ISO-10303-21;
HEADER;
/* Generated by software containing ST-Developer
 * from STEP Tools, Inc. (www.steptools.com) 
 */

FILE_DESCRIPTION(
/* description */ (''),
/* implementation_level */ '2;1');

FILE_NAME(
/* name */ 'Base_joint.stp',
/* time_stamp */ '2026-06-25T23:26:28+02:00',
/* author */ ('frede'),
/* organization */ (''),
/* preprocessor_version */ 'ST-DEVELOPER v20.1',
/* originating_system */ 'Autodesk Inventor 2026',
/* authorisation */ '');

FILE_SCHEMA (('AUTOMOTIVE_DESIGN { 1 0 10303 214 3 1 1 }'));
ENDSEC;

DATA;
#10=MECHANICAL_DESIGN_GEOMETRIC_PRESENTATION_REPRESENTATION('',(#13),#1651);
#11=SHAPE_REPRESENTATION_RELATIONSHIP('SRR','None',#1658,#12);
#12=ADVANCED_BREP_SHAPE_REPRESENTATION('',(#14),#1650);
#13=STYLED_ITEM('',(#1667),#14);
#14=MANIFOLD_SOLID_BREP('Solid1',#918);
#15=(
BOUNDED_SURFACE()
B_SPLINE_SURFACE(1,2,((#1601,#1602,#1603),(#1604,#1605,#1606)),
 .UNSPECIFIED.,.F.,.F.,.F.)
B_SPLINE_SURFACE_WITH_KNOTS((2,2),(3,3),(-0.509742520517888,0.514850052664399),
(-0.676231226803492,0.676231226803496),.UNSPECIFIED.)
GEOMETRIC_REPRESENTATION_ITEM()
RATIONAL_B_SPLINE_SURFACE(((1.,0.779936969256701,1.),(1.,0.779936969256701,
1.)))
REPRESENTATION_ITEM('')
SURFACE()
);
#16=ELLIPSE('',#986,5.59818689742974,5.);
#17=ELLIPSE('',#987,5.59818689742974,5.);
#18=ELLIPSE('',#998,16.6753294075432,7.5);
#19=ELLIPSE('',#999,16.6753294075432,7.5);
#20=ELLIPSE('',#1001,5.59818689742974,5.);
#21=ELLIPSE('',#1002,5.59818689742974,5.);
#22=ELLIPSE('',#1004,16.6753294075432,7.5);
#23=ELLIPSE('',#1007,16.6753294075432,7.5);
#24=ELLIPSE('',#1011,16.6753294075432,7.5);
#25=ELLIPSE('',#1013,16.6753294075432,7.5);
#26=B_SPLINE_CURVE_WITH_KNOTS('',3,(#1455,#1456,#1457,#1458,#1459,#1460,
#1461,#1462,#1463,#1464),.UNSPECIFIED.,.F.,.F.,(4,2,2,2,4),(0.227532455784376,
0.284407095578176,0.341281735371976,0.398173323470364,0.455064911568751),
 .UNSPECIFIED.);
#27=B_SPLINE_CURVE_WITH_KNOTS('',3,(#1465,#1466,#1467,#1468,#1469,#1470,
#1471,#1472,#1473,#1474),.UNSPECIFIED.,.F.,.F.,(4,2,2,2,4),(0.455064911568751,
0.511956499667139,0.568848087765526,0.625722727559326,0.682597367353127),
 .UNSPECIFIED.);
#28=B_SPLINE_CURVE_WITH_KNOTS('',3,(#1501,#1502,#1503,#1504,#1505,#1506,
#1507,#1508,#1509,#1510,#1511,#1512,#1513,#1514,#1515,#1516,#1517,#1518,
#1519,#1520,#1521,#1522,#1523,#1524,#1525,#1526),.UNSPECIFIED.,.F.,.F.,
(4,2,2,2,2,2,2,2,2,2,2,2,4),(0.,0.0566692883835292,0.113338576767058,0.170004689706688,
0.226670802646318,0.283336915585948,0.340003028525578,0.396672316909107,
0.453341605292636,0.510010893676165,0.566680182059694,0.623346294999324,
0.680012407938954),.UNSPECIFIED.);
#29=B_SPLINE_CURVE_WITH_KNOTS('',3,(#1527,#1528,#1529,#1530,#1531,#1532,
#1533,#1534,#1535,#1536),.UNSPECIFIED.,.F.,.F.,(4,2,2,2,4),(0.680012407938954,
0.736678520878584,0.793344633818213,0.850013922201742,0.906683210585272),
 .UNSPECIFIED.);
#30=B_SPLINE_CURVE_WITH_KNOTS('',3,(#1540,#1541,#1542,#1543,#1544,#1545,
#1546,#1547,#1548,#1549),.UNSPECIFIED.,.F.,.F.,(4,2,2,2,4),(0.,0.0566692883835292,
0.113338576767058,0.170004689706688,0.226670802646318),.UNSPECIFIED.);
#31=B_SPLINE_CURVE_WITH_KNOTS('',3,(#1550,#1551,#1552,#1553,#1554,#1555,
#1556,#1557,#1558,#1559,#1560,#1561,#1562,#1563,#1564,#1565,#1566,#1567,
#1568,#1569,#1570,#1571,#1572,#1573,#1574,#1575),.UNSPECIFIED.,.F.,.F.,
(4,2,2,2,2,2,2,2,2,2,2,2,4),(0.226670802646318,0.283336915585948,0.340003028525578,
0.396672316909107,0.453341605292636,0.510010893676165,0.566680182059694,
0.623346294999324,0.680012407938954,0.736678520878583,0.793344633818213,
0.850013922201742,0.906683210585272),.UNSPECIFIED.);
#32=B_SPLINE_CURVE_WITH_KNOTS('',3,(#1579,#1580,#1581,#1582,#1583,#1584,
#1585,#1586,#1587,#1588),.UNSPECIFIED.,.F.,.F.,(4,2,2,2,4),(0.227532455784375,
0.284407095578176,0.341281735371976,0.398173323470364,0.455064911568751),
 .UNSPECIFIED.);
#33=B_SPLINE_CURVE_WITH_KNOTS('',3,(#1589,#1590,#1591,#1592,#1593,#1594,
#1595,#1596,#1597,#1598),.UNSPECIFIED.,.F.,.F.,(4,2,2,2,4),(0.455064911568751,
0.511956499667139,0.568848087765526,0.625722727559326,0.682597367353127),
 .UNSPECIFIED.);
#34=FACE_BOUND('',#143,.T.);
#35=FACE_BOUND('',#146,.T.);
#36=FACE_BOUND('',#158,.T.);
#37=FACE_BOUND('',#160,.T.);
#38=FACE_BOUND('',#164,.T.);
#39=FACE_BOUND('',#165,.T.);
#40=FACE_BOUND('',#179,.T.);
#41=PLANE('',#944);
#42=PLANE('',#945);
#43=PLANE('',#946);
#44=PLANE('',#948);
#45=PLANE('',#950);
#46=PLANE('',#951);
#47=PLANE('',#952);
#48=PLANE('',#954);
#49=PLANE('',#956);
#50=PLANE('',#958);
#51=PLANE('',#961);
#52=PLANE('',#962);
#53=PLANE('',#963);
#54=PLANE('',#964);
#55=PLANE('',#965);
#56=PLANE('',#966);
#57=PLANE('',#967);
#58=PLANE('',#968);
#59=PLANE('',#973);
#60=PLANE('',#975);
#61=PLANE('',#976);
#62=PLANE('',#977);
#63=PLANE('',#978);
#64=PLANE('',#988);
#65=PLANE('',#989);
#66=PLANE('',#991);
#67=PLANE('',#992);
#68=PLANE('',#1003);
#69=PLANE('',#1006);
#70=PLANE('',#1008);
#71=PLANE('',#1010);
#72=PLANE('',#1012);
#73=PLANE('',#1016);
#74=PLANE('',#1017);
#75=PLANE('',#1018);
#76=PLANE('',#1021);
#77=FACE_OUTER_BOUND('',#125,.T.);
#78=FACE_OUTER_BOUND('',#126,.T.);
#79=FACE_OUTER_BOUND('',#127,.T.);
#80=FACE_OUTER_BOUND('',#128,.T.);
#81=FACE_OUTER_BOUND('',#129,.T.);
#82=FACE_OUTER_BOUND('',#130,.T.);
#83=FACE_OUTER_BOUND('',#131,.T.);
#84=FACE_OUTER_BOUND('',#132,.T.);
#85=FACE_OUTER_BOUND('',#133,.T.);
#86=FACE_OUTER_BOUND('',#134,.T.);
#87=FACE_OUTER_BOUND('',#135,.T.);
#88=FACE_OUTER_BOUND('',#136,.T.);
#89=FACE_OUTER_BOUND('',#137,.T.);
#90=FACE_OUTER_BOUND('',#138,.T.);
#91=FACE_OUTER_BOUND('',#139,.T.);
#92=FACE_OUTER_BOUND('',#140,.T.);
#93=FACE_OUTER_BOUND('',#141,.T.);
#94=FACE_OUTER_BOUND('',#142,.T.);
#95=FACE_OUTER_BOUND('',#144,.T.);
#96=FACE_OUTER_BOUND('',#145,.T.);
#97=FACE_OUTER_BOUND('',#147,.T.);
#98=FACE_OUTER_BOUND('',#148,.T.);
#99=FACE_OUTER_BOUND('',#149,.T.);
#100=FACE_OUTER_BOUND('',#150,.T.);
#101=FACE_OUTER_BOUND('',#151,.T.);
#102=FACE_OUTER_BOUND('',#152,.T.);
#103=FACE_OUTER_BOUND('',#153,.T.);
#104=FACE_OUTER_BOUND('',#154,.T.);
#105=FACE_OUTER_BOUND('',#155,.T.);
#106=FACE_OUTER_BOUND('',#156,.T.);
#107=FACE_OUTER_BOUND('',#157,.T.);
#108=FACE_OUTER_BOUND('',#159,.T.);
#109=FACE_OUTER_BOUND('',#161,.T.);
#110=FACE_OUTER_BOUND('',#162,.T.);
#111=FACE_OUTER_BOUND('',#163,.T.);
#112=FACE_OUTER_BOUND('',#166,.T.);
#113=FACE_OUTER_BOUND('',#167,.T.);
#114=FACE_OUTER_BOUND('',#168,.T.);
#115=FACE_OUTER_BOUND('',#169,.T.);
#116=FACE_OUTER_BOUND('',#170,.T.);
#117=FACE_OUTER_BOUND('',#171,.T.);
#118=FACE_OUTER_BOUND('',#172,.T.);
#119=FACE_OUTER_BOUND('',#173,.T.);
#120=FACE_OUTER_BOUND('',#174,.T.);
#121=FACE_OUTER_BOUND('',#175,.T.);
#122=FACE_OUTER_BOUND('',#176,.T.);
#123=FACE_OUTER_BOUND('',#177,.T.);
#124=FACE_OUTER_BOUND('',#178,.T.);
#125=EDGE_LOOP('',(#597,#598,#599,#600,#601,#602));
#126=EDGE_LOOP('',(#603,#604,#605,#606));
#127=EDGE_LOOP('',(#607,#608,#609,#610));
#128=EDGE_LOOP('',(#611,#612,#613,#614));
#129=EDGE_LOOP('',(#615,#616,#617,#618));
#130=EDGE_LOOP('',(#619,#620,#621,#622));
#131=EDGE_LOOP('',(#623,#624,#625,#626));
#132=EDGE_LOOP('',(#627,#628,#629,#630));
#133=EDGE_LOOP('',(#631,#632,#633,#634));
#134=EDGE_LOOP('',(#635,#636,#637,#638));
#135=EDGE_LOOP('',(#639,#640,#641,#642,#643));
#136=EDGE_LOOP('',(#644,#645,#646,#647));
#137=EDGE_LOOP('',(#648,#649,#650,#651));
#138=EDGE_LOOP('',(#652,#653,#654,#655,#656));
#139=EDGE_LOOP('',(#657,#658,#659,#660));
#140=EDGE_LOOP('',(#661,#662,#663,#664,#665));
#141=EDGE_LOOP('',(#666,#667,#668,#669));
#142=EDGE_LOOP('',(#670,#671,#672,#673));
#143=EDGE_LOOP('',(#674,#675,#676,#677));
#144=EDGE_LOOP('',(#678,#679,#680,#681,#682,#683,#684,#685,#686,#687,#688,
#689));
#145=EDGE_LOOP('',(#690,#691,#692,#693));
#146=EDGE_LOOP('',(#694,#695,#696,#697));
#147=EDGE_LOOP('',(#698,#699,#700,#701));
#148=EDGE_LOOP('',(#702,#703,#704,#705));
#149=EDGE_LOOP('',(#706,#707,#708,#709));
#150=EDGE_LOOP('',(#710,#711,#712,#713,#714,#715));
#151=EDGE_LOOP('',(#716,#717,#718,#719,#720,#721,#722,#723,#724));
#152=EDGE_LOOP('',(#725,#726,#727,#728,#729,#730,#731));
#153=EDGE_LOOP('',(#732,#733,#734));
#154=EDGE_LOOP('',(#735,#736,#737,#738,#739,#740));
#155=EDGE_LOOP('',(#741,#742,#743));
#156=EDGE_LOOP('',(#744,#745,#746));
#157=EDGE_LOOP('',(#747,#748,#749,#750));
#158=EDGE_LOOP('',(#751,#752));
#159=EDGE_LOOP('',(#753,#754,#755,#756));
#160=EDGE_LOOP('',(#757,#758));
#161=EDGE_LOOP('',(#759,#760,#761,#762,#763,#764,#765));
#162=EDGE_LOOP('',(#766,#767,#768,#769,#770,#771,#772));
#163=EDGE_LOOP('',(#773,#774,#775,#776));
#164=EDGE_LOOP('',(#777,#778));
#165=EDGE_LOOP('',(#779,#780));
#166=EDGE_LOOP('',(#781,#782,#783,#784,#785,#786,#787));
#167=EDGE_LOOP('',(#788,#789,#790,#791));
#168=EDGE_LOOP('',(#792,#793,#794,#795,#796,#797));
#169=EDGE_LOOP('',(#798,#799,#800,#801));
#170=EDGE_LOOP('',(#802,#803,#804));
#171=EDGE_LOOP('',(#805,#806,#807,#808));
#172=EDGE_LOOP('',(#809,#810,#811,#812));
#173=EDGE_LOOP('',(#813,#814,#815,#816,#817,#818,#819,#820,#821));
#174=EDGE_LOOP('',(#822,#823,#824,#825));
#175=EDGE_LOOP('',(#826,#827,#828,#829));
#176=EDGE_LOOP('',(#830,#831,#832,#833));
#177=EDGE_LOOP('',(#834,#835,#836,#837,#838,#839,#840,#841,#842,#843,#844,
#845,#846,#847,#848,#849));
#178=EDGE_LOOP('',(#850));
#179=EDGE_LOOP('',(#851,#852,#853,#854,#855,#856,#857,#858));
#180=LINE('',#1281,#269);
#181=LINE('',#1283,#270);
#182=LINE('',#1287,#271);
#183=LINE('',#1288,#272);
#184=LINE('',#1292,#273);
#185=LINE('',#1294,#274);
#186=LINE('',#1296,#275);
#187=LINE('',#1297,#276);
#188=LINE('',#1301,#277);
#189=LINE('',#1303,#278);
#190=LINE('',#1305,#279);
#191=LINE('',#1306,#280);
#192=LINE('',#1311,#281);
#193=LINE('',#1312,#282);
#194=LINE('',#1317,#283);
#195=LINE('',#1318,#284);
#196=LINE('',#1321,#285);
#197=LINE('',#1323,#286);
#198=LINE('',#1324,#287);
#199=LINE('',#1327,#288);
#200=LINE('',#1329,#289);
#201=LINE('',#1330,#290);
#202=LINE('',#1333,#291);
#203=LINE('',#1336,#292);
#204=LINE('',#1342,#293);
#205=LINE('',#1344,#294);
#206=LINE('',#1345,#295);
#207=LINE('',#1351,#296);
#208=LINE('',#1353,#297);
#209=LINE('',#1355,#298);
#210=LINE('',#1358,#299);
#211=LINE('',#1359,#300);
#212=LINE('',#1362,#301);
#213=LINE('',#1364,#302);
#214=LINE('',#1365,#303);
#215=LINE('',#1369,#304);
#216=LINE('',#1371,#305);
#217=LINE('',#1373,#306);
#218=LINE('',#1375,#307);
#219=LINE('',#1376,#308);
#220=LINE('',#1378,#309);
#221=LINE('',#1379,#310);
#222=LINE('',#1383,#311);
#223=LINE('',#1385,#312);
#224=LINE('',#1387,#313);
#225=LINE('',#1389,#314);
#226=LINE('',#1390,#315);
#227=LINE('',#1393,#316);
#228=LINE('',#1395,#317);
#229=LINE('',#1396,#318);
#230=LINE('',#1404,#319);
#231=LINE('',#1406,#320);
#232=LINE('',#1408,#321);
#233=LINE('',#1413,#322);
#234=LINE('',#1415,#323);
#235=LINE('',#1416,#324);
#236=LINE('',#1421,#325);
#237=LINE('',#1423,#326);
#238=LINE('',#1424,#327);
#239=LINE('',#1427,#328);
#240=LINE('',#1428,#329);
#241=LINE('',#1431,#330);
#242=LINE('',#1432,#331);
#243=LINE('',#1436,#332);
#244=LINE('',#1440,#333);
#245=LINE('',#1442,#334);
#246=LINE('',#1445,#335);
#247=LINE('',#1451,#336);
#248=LINE('',#1478,#337);
#249=LINE('',#1481,#338);
#250=LINE('',#1485,#339);
#251=LINE('',#1489,#340);
#252=LINE('',#1490,#341);
#253=LINE('',#1491,#342);
#254=LINE('',#1493,#343);
#255=LINE('',#1496,#344);
#256=LINE('',#1578,#345);
#257=LINE('',#1600,#346);
#258=LINE('',#1610,#347);
#259=LINE('',#1612,#348);
#260=LINE('',#1617,#349);
#261=LINE('',#1620,#350);
#262=LINE('',#1632,#351);
#263=LINE('',#1635,#352);
#264=LINE('',#1636,#353);
#265=LINE('',#1639,#354);
#266=LINE('',#1640,#355);
#267=LINE('',#1642,#356);
#268=LINE('',#1645,#357);
#269=VECTOR('',#1028,10.);
#270=VECTOR('',#1029,10.);
#271=VECTOR('',#1032,10.);
#272=VECTOR('',#1033,10.);
#273=VECTOR('',#1036,10.);
#274=VECTOR('',#1037,10.);
#275=VECTOR('',#1038,10.);
#276=VECTOR('',#1039,10.);
#277=VECTOR('',#1042,10.);
#278=VECTOR('',#1043,10.);
#279=VECTOR('',#1044,10.);
#280=VECTOR('',#1045,10.);
#281=VECTOR('',#1050,10.);
#282=VECTOR('',#1051,10.);
#283=VECTOR('',#1056,10.);
#284=VECTOR('',#1057,10.);
#285=VECTOR('',#1060,10.);
#286=VECTOR('',#1061,10.);
#287=VECTOR('',#1062,10.);
#288=VECTOR('',#1065,10.);
#289=VECTOR('',#1066,10.);
#290=VECTOR('',#1067,10.);
#291=VECTOR('',#1072,10.);
#292=VECTOR('',#1077,10.);
#293=VECTOR('',#1082,10.);
#294=VECTOR('',#1083,10.);
#295=VECTOR('',#1084,10.);
#296=VECTOR('',#1089,10.);
#297=VECTOR('',#1090,10.);
#298=VECTOR('',#1091,10.);
#299=VECTOR('',#1096,10.);
#300=VECTOR('',#1097,10.);
#301=VECTOR('',#1100,10.);
#302=VECTOR('',#1101,10.);
#303=VECTOR('',#1102,10.);
#304=VECTOR('',#1105,10.);
#305=VECTOR('',#1106,10.);
#306=VECTOR('',#1107,10.);
#307=VECTOR('',#1108,10.);
#308=VECTOR('',#1109,10.);
#309=VECTOR('',#1112,10.);
#310=VECTOR('',#1113,10.);
#311=VECTOR('',#1116,10.);
#312=VECTOR('',#1117,10.);
#313=VECTOR('',#1118,10.);
#314=VECTOR('',#1119,10.);
#315=VECTOR('',#1120,10.);
#316=VECTOR('',#1123,10.);
#317=VECTOR('',#1124,10.);
#318=VECTOR('',#1125,10.);
#319=VECTOR('',#1134,10.);
#320=VECTOR('',#1135,10.);
#321=VECTOR('',#1136,10.);
#322=VECTOR('',#1141,10.);
#323=VECTOR('',#1142,10.);
#324=VECTOR('',#1143,10.);
#325=VECTOR('',#1150,10.);
#326=VECTOR('',#1151,10.);
#327=VECTOR('',#1152,10.);
#328=VECTOR('',#1155,10.);
#329=VECTOR('',#1156,10.);
#330=VECTOR('',#1159,10.);
#331=VECTOR('',#1160,10.);
#332=VECTOR('',#1163,10.);
#333=VECTOR('',#1166,10.);
#334=VECTOR('',#1167,10.);
#335=VECTOR('',#1170,10.);
#336=VECTOR('',#1177,10.);
#337=VECTOR('',#1184,10.);
#338=VECTOR('',#1189,10.);
#339=VECTOR('',#1192,10.);
#340=VECTOR('',#1195,10.);
#341=VECTOR('',#1196,10.);
#342=VECTOR('',#1197,10.);
#343=VECTOR('',#1200,10.);
#344=VECTOR('',#1203,10.);
#345=VECTOR('',#1212,1.5);
#346=VECTOR('',#1215,1.5);
#347=VECTOR('',#1218,10.);
#348=VECTOR('',#1221,10.);
#349=VECTOR('',#1230,10.);
#350=VECTOR('',#1235,10.);
#351=VECTOR('',#1256,10.);
#352=VECTOR('',#1259,10.);
#353=VECTOR('',#1260,10.);
#354=VECTOR('',#1263,10.);
#355=VECTOR('',#1264,10.);
#356=VECTOR('',#1267,10.);
#357=VECTOR('',#1270,7.5);
#358=CIRCLE('',#942,4.);
#359=CIRCLE('',#943,3.99999999999999);
#360=CIRCLE('',#947,7.5);
#361=CIRCLE('',#949,7.5);
#362=CIRCLE('',#953,7.5);
#363=CIRCLE('',#955,7.5);
#364=CIRCLE('',#957,7.5);
#365=CIRCLE('',#959,7.5);
#366=CIRCLE('',#960,7.5);
#367=CIRCLE('',#969,4.07499999999997);
#368=CIRCLE('',#970,4.07499999999997);
#369=CIRCLE('',#971,4.07499999999997);
#370=CIRCLE('',#972,4.07499999999997);
#371=CIRCLE('',#974,3.99999999999999);
#372=CIRCLE('',#979,1.5);
#373=CIRCLE('',#980,4.);
#374=CIRCLE('',#982,4.07499999999997);
#375=CIRCLE('',#983,4.07499999999997);
#376=CIRCLE('',#984,4.07499999999997);
#377=CIRCLE('',#990,1.5);
#378=CIRCLE('',#993,4.07499999999997);
#379=CIRCLE('',#1009,4.07499999999997);
#380=CIRCLE('',#1015,4.07499999999997);
#381=CIRCLE('',#1020,7.5);
#382=VERTEX_POINT('',#1277);
#383=VERTEX_POINT('',#1278);
#384=VERTEX_POINT('',#1280);
#385=VERTEX_POINT('',#1282);
#386=VERTEX_POINT('',#1284);
#387=VERTEX_POINT('',#1286);
#388=VERTEX_POINT('',#1290);
#389=VERTEX_POINT('',#1291);
#390=VERTEX_POINT('',#1293);
#391=VERTEX_POINT('',#1295);
#392=VERTEX_POINT('',#1299);
#393=VERTEX_POINT('',#1300);
#394=VERTEX_POINT('',#1302);
#395=VERTEX_POINT('',#1304);
#396=VERTEX_POINT('',#1308);
#397=VERTEX_POINT('',#1310);
#398=VERTEX_POINT('',#1314);
#399=VERTEX_POINT('',#1316);
#400=VERTEX_POINT('',#1320);
#401=VERTEX_POINT('',#1322);
#402=VERTEX_POINT('',#1326);
#403=VERTEX_POINT('',#1328);
#404=VERTEX_POINT('',#1338);
#405=VERTEX_POINT('',#1339);
#406=VERTEX_POINT('',#1341);
#407=VERTEX_POINT('',#1343);
#408=VERTEX_POINT('',#1347);
#409=VERTEX_POINT('',#1348);
#410=VERTEX_POINT('',#1350);
#411=VERTEX_POINT('',#1352);
#412=VERTEX_POINT('',#1354);
#413=VERTEX_POINT('',#1361);
#414=VERTEX_POINT('',#1363);
#415=VERTEX_POINT('',#1367);
#416=VERTEX_POINT('',#1368);
#417=VERTEX_POINT('',#1370);
#418=VERTEX_POINT('',#1372);
#419=VERTEX_POINT('',#1374);
#420=VERTEX_POINT('',#1381);
#421=VERTEX_POINT('',#1382);
#422=VERTEX_POINT('',#1384);
#423=VERTEX_POINT('',#1386);
#424=VERTEX_POINT('',#1388);
#425=VERTEX_POINT('',#1392);
#426=VERTEX_POINT('',#1394);
#427=VERTEX_POINT('',#1399);
#428=VERTEX_POINT('',#1401);
#429=VERTEX_POINT('',#1403);
#430=VERTEX_POINT('',#1405);
#431=VERTEX_POINT('',#1407);
#432=VERTEX_POINT('',#1410);
#433=VERTEX_POINT('',#1412);
#434=VERTEX_POINT('',#1414);
#435=VERTEX_POINT('',#1420);
#436=VERTEX_POINT('',#1422);
#437=VERTEX_POINT('',#1426);
#438=VERTEX_POINT('',#1430);
#439=VERTEX_POINT('',#1434);
#440=VERTEX_POINT('',#1435);
#441=VERTEX_POINT('',#1437);
#442=VERTEX_POINT('',#1439);
#443=VERTEX_POINT('',#1441);
#444=VERTEX_POINT('',#1443);
#445=VERTEX_POINT('',#1447);
#446=VERTEX_POINT('',#1450);
#447=VERTEX_POINT('',#1454);
#448=VERTEX_POINT('',#1475);
#449=VERTEX_POINT('',#1477);
#450=VERTEX_POINT('',#1483);
#451=VERTEX_POINT('',#1484);
#452=VERTEX_POINT('',#1486);
#453=VERTEX_POINT('',#1488);
#454=VERTEX_POINT('',#1495);
#455=VERTEX_POINT('',#1499);
#456=VERTEX_POINT('',#1500);
#457=VERTEX_POINT('',#1538);
#458=VERTEX_POINT('',#1539);
#459=VERTEX_POINT('',#1577);
#460=VERTEX_POINT('',#1607);
#461=VERTEX_POINT('',#1609);
#462=VERTEX_POINT('',#1630);
#463=VERTEX_POINT('',#1634);
#464=VERTEX_POINT('',#1638);
#465=VERTEX_POINT('',#1644);
#466=EDGE_CURVE('',#382,#383,#358,.T.);
#467=EDGE_CURVE('',#384,#383,#180,.T.);
#468=EDGE_CURVE('',#385,#384,#181,.T.);
#469=EDGE_CURVE('',#386,#385,#359,.T.);
#470=EDGE_CURVE('',#386,#387,#182,.T.);
#471=EDGE_CURVE('',#382,#387,#183,.T.);
#472=EDGE_CURVE('',#388,#389,#184,.T.);
#473=EDGE_CURVE('',#390,#388,#185,.T.);
#474=EDGE_CURVE('',#391,#390,#186,.T.);
#475=EDGE_CURVE('',#389,#391,#187,.T.);
#476=EDGE_CURVE('',#392,#393,#188,.T.);
#477=EDGE_CURVE('',#394,#392,#189,.T.);
#478=EDGE_CURVE('',#395,#394,#190,.T.);
#479=EDGE_CURVE('',#393,#395,#191,.T.);
#480=EDGE_CURVE('',#393,#396,#360,.T.);
#481=EDGE_CURVE('',#397,#395,#192,.T.);
#482=EDGE_CURVE('',#396,#397,#193,.T.);
#483=EDGE_CURVE('',#398,#388,#361,.T.);
#484=EDGE_CURVE('',#399,#398,#194,.T.);
#485=EDGE_CURVE('',#390,#399,#195,.T.);
#486=EDGE_CURVE('',#396,#400,#196,.T.);
#487=EDGE_CURVE('',#401,#397,#197,.T.);
#488=EDGE_CURVE('',#400,#401,#198,.T.);
#489=EDGE_CURVE('',#402,#398,#199,.T.);
#490=EDGE_CURVE('',#403,#402,#200,.T.);
#491=EDGE_CURVE('',#399,#403,#201,.T.);
#492=EDGE_CURVE('',#389,#402,#362,.T.);
#493=EDGE_CURVE('',#403,#391,#202,.T.);
#494=EDGE_CURVE('',#400,#392,#363,.T.);
#495=EDGE_CURVE('',#394,#401,#203,.T.);
#496=EDGE_CURVE('',#404,#405,#364,.T.);
#497=EDGE_CURVE('',#404,#406,#204,.T.);
#498=EDGE_CURVE('',#407,#406,#205,.T.);
#499=EDGE_CURVE('',#407,#405,#206,.T.);
#500=EDGE_CURVE('',#408,#409,#365,.T.);
#501=EDGE_CURVE('',#408,#410,#207,.T.);
#502=EDGE_CURVE('',#411,#410,#208,.T.);
#503=EDGE_CURVE('',#411,#412,#209,.T.);
#504=EDGE_CURVE('',#409,#412,#366,.T.);
#505=EDGE_CURVE('',#387,#404,#210,.T.);
#506=EDGE_CURVE('',#406,#386,#211,.T.);
#507=EDGE_CURVE('',#412,#413,#212,.T.);
#508=EDGE_CURVE('',#414,#411,#213,.T.);
#509=EDGE_CURVE('',#413,#414,#214,.T.);
#510=EDGE_CURVE('',#415,#416,#215,.T.);
#511=EDGE_CURVE('',#417,#415,#216,.T.);
#512=EDGE_CURVE('',#418,#417,#217,.T.);
#513=EDGE_CURVE('',#419,#418,#218,.T.);
#514=EDGE_CURVE('',#416,#419,#219,.T.);
#515=EDGE_CURVE('',#405,#384,#220,.T.);
#516=EDGE_CURVE('',#385,#407,#221,.T.);
#517=EDGE_CURVE('',#420,#421,#222,.T.);
#518=EDGE_CURVE('',#422,#420,#223,.T.);
#519=EDGE_CURVE('',#423,#422,#224,.T.);
#520=EDGE_CURVE('',#424,#423,#225,.T.);
#521=EDGE_CURVE('',#421,#424,#226,.T.);
#522=EDGE_CURVE('',#425,#408,#227,.T.);
#523=EDGE_CURVE('',#425,#426,#228,.T.);
#524=EDGE_CURVE('',#410,#426,#229,.T.);
#525=EDGE_CURVE('',#416,#427,#367,.T.);
#526=EDGE_CURVE('',#428,#419,#368,.T.);
#527=EDGE_CURVE('',#429,#428,#230,.T.);
#528=EDGE_CURVE('',#430,#429,#231,.T.);
#529=EDGE_CURVE('',#431,#430,#232,.T.);
#530=EDGE_CURVE('',#422,#431,#369,.T.);
#531=EDGE_CURVE('',#432,#420,#370,.T.);
#532=EDGE_CURVE('',#433,#432,#233,.T.);
#533=EDGE_CURVE('',#434,#433,#234,.T.);
#534=EDGE_CURVE('',#427,#434,#235,.T.);
#535=EDGE_CURVE('',#426,#414,#371,.T.);
#536=EDGE_CURVE('',#435,#434,#236,.T.);
#537=EDGE_CURVE('',#435,#436,#237,.T.);
#538=EDGE_CURVE('',#436,#427,#238,.T.);
#539=EDGE_CURVE('',#437,#433,#239,.T.);
#540=EDGE_CURVE('',#437,#435,#240,.T.);
#541=EDGE_CURVE('',#438,#432,#241,.T.);
#542=EDGE_CURVE('',#438,#437,#242,.T.);
#543=EDGE_CURVE('',#439,#440,#243,.T.);
#544=EDGE_CURVE('',#440,#441,#372,.T.);
#545=EDGE_CURVE('',#441,#442,#244,.T.);
#546=EDGE_CURVE('',#443,#442,#245,.T.);
#547=EDGE_CURVE('',#444,#443,#373,.T.);
#548=EDGE_CURVE('',#439,#444,#246,.T.);
#549=EDGE_CURVE('',#445,#421,#374,.T.);
#550=EDGE_CURVE('',#423,#445,#375,.T.);
#551=EDGE_CURVE('',#446,#431,#247,.T.);
#552=EDGE_CURVE('',#446,#438,#376,.T.);
#553=EDGE_CURVE('',#441,#447,#26,.T.);
#554=EDGE_CURVE('',#447,#440,#27,.T.);
#555=EDGE_CURVE('',#448,#439,#16,.T.);
#556=EDGE_CURVE('',#448,#449,#248,.T.);
#557=EDGE_CURVE('',#442,#449,#17,.T.);
#558=EDGE_CURVE('',#445,#424,#249,.T.);
#559=EDGE_CURVE('',#450,#451,#250,.T.);
#560=EDGE_CURVE('',#450,#452,#377,.T.);
#561=EDGE_CURVE('',#453,#452,#251,.T.);
#562=EDGE_CURVE('',#383,#453,#252,.T.);
#563=EDGE_CURVE('',#451,#382,#253,.T.);
#564=EDGE_CURVE('',#445,#424,#254,.T.);
#565=EDGE_CURVE('',#417,#454,#255,.T.);
#566=EDGE_CURVE('',#454,#418,#378,.T.);
#567=EDGE_CURVE('',#455,#456,#28,.T.);
#568=EDGE_CURVE('',#456,#455,#29,.T.);
#569=EDGE_CURVE('',#457,#458,#30,.T.);
#570=EDGE_CURVE('',#458,#457,#31,.T.);
#571=EDGE_CURVE('',#456,#459,#256,.T.);
#572=EDGE_CURVE('',#452,#459,#32,.T.);
#573=EDGE_CURVE('',#459,#450,#33,.T.);
#574=EDGE_CURVE('',#447,#458,#257,.T.);
#575=EDGE_CURVE('',#460,#448,#18,.T.);
#576=EDGE_CURVE('',#460,#461,#258,.T.);
#577=EDGE_CURVE('',#449,#461,#19,.T.);
#578=EDGE_CURVE('',#417,#454,#259,.T.);
#579=EDGE_CURVE('',#461,#451,#20,.T.);
#580=EDGE_CURVE('',#453,#460,#21,.T.);
#581=EDGE_CURVE('',#444,#425,#260,.T.);
#582=EDGE_CURVE('',#448,#425,#22,.T.);
#583=EDGE_CURVE('',#413,#443,#261,.T.);
#584=EDGE_CURVE('',#413,#449,#23,.T.);
#585=EDGE_CURVE('',#415,#454,#379,.T.);
#586=EDGE_CURVE('',#384,#460,#24,.T.);
#587=EDGE_CURVE('',#461,#387,#25,.T.);
#588=EDGE_CURVE('',#436,#462,#380,.T.);
#589=EDGE_CURVE('',#462,#428,#262,.T.);
#590=EDGE_CURVE('',#463,#430,#263,.T.);
#591=EDGE_CURVE('',#463,#446,#264,.T.);
#592=EDGE_CURVE('',#464,#429,#265,.T.);
#593=EDGE_CURVE('',#464,#463,#266,.T.);
#594=EDGE_CURVE('',#462,#464,#267,.T.);
#595=EDGE_CURVE('',#409,#465,#268,.T.);
#596=EDGE_CURVE('',#465,#465,#381,.T.);
#597=ORIENTED_EDGE('',*,*,#466,.T.);
#598=ORIENTED_EDGE('',*,*,#467,.F.);
#599=ORIENTED_EDGE('',*,*,#468,.F.);
#600=ORIENTED_EDGE('',*,*,#469,.F.);
#601=ORIENTED_EDGE('',*,*,#470,.T.);
#602=ORIENTED_EDGE('',*,*,#471,.F.);
#603=ORIENTED_EDGE('',*,*,#472,.F.);
#604=ORIENTED_EDGE('',*,*,#473,.F.);
#605=ORIENTED_EDGE('',*,*,#474,.F.);
#606=ORIENTED_EDGE('',*,*,#475,.F.);
#607=ORIENTED_EDGE('',*,*,#476,.F.);
#608=ORIENTED_EDGE('',*,*,#477,.F.);
#609=ORIENTED_EDGE('',*,*,#478,.F.);
#610=ORIENTED_EDGE('',*,*,#479,.F.);
#611=ORIENTED_EDGE('',*,*,#480,.F.);
#612=ORIENTED_EDGE('',*,*,#479,.T.);
#613=ORIENTED_EDGE('',*,*,#481,.F.);
#614=ORIENTED_EDGE('',*,*,#482,.F.);
#615=ORIENTED_EDGE('',*,*,#483,.F.);
#616=ORIENTED_EDGE('',*,*,#484,.F.);
#617=ORIENTED_EDGE('',*,*,#485,.F.);
#618=ORIENTED_EDGE('',*,*,#473,.T.);
#619=ORIENTED_EDGE('',*,*,#486,.F.);
#620=ORIENTED_EDGE('',*,*,#482,.T.);
#621=ORIENTED_EDGE('',*,*,#487,.F.);
#622=ORIENTED_EDGE('',*,*,#488,.F.);
#623=ORIENTED_EDGE('',*,*,#489,.F.);
#624=ORIENTED_EDGE('',*,*,#490,.F.);
#625=ORIENTED_EDGE('',*,*,#491,.F.);
#626=ORIENTED_EDGE('',*,*,#484,.T.);
#627=ORIENTED_EDGE('',*,*,#492,.F.);
#628=ORIENTED_EDGE('',*,*,#475,.T.);
#629=ORIENTED_EDGE('',*,*,#493,.F.);
#630=ORIENTED_EDGE('',*,*,#490,.T.);
#631=ORIENTED_EDGE('',*,*,#494,.F.);
#632=ORIENTED_EDGE('',*,*,#488,.T.);
#633=ORIENTED_EDGE('',*,*,#495,.F.);
#634=ORIENTED_EDGE('',*,*,#477,.T.);
#635=ORIENTED_EDGE('',*,*,#496,.F.);
#636=ORIENTED_EDGE('',*,*,#497,.T.);
#637=ORIENTED_EDGE('',*,*,#498,.F.);
#638=ORIENTED_EDGE('',*,*,#499,.T.);
#639=ORIENTED_EDGE('',*,*,#500,.F.);
#640=ORIENTED_EDGE('',*,*,#501,.T.);
#641=ORIENTED_EDGE('',*,*,#502,.F.);
#642=ORIENTED_EDGE('',*,*,#503,.T.);
#643=ORIENTED_EDGE('',*,*,#504,.F.);
#644=ORIENTED_EDGE('',*,*,#505,.F.);
#645=ORIENTED_EDGE('',*,*,#470,.F.);
#646=ORIENTED_EDGE('',*,*,#506,.F.);
#647=ORIENTED_EDGE('',*,*,#497,.F.);
#648=ORIENTED_EDGE('',*,*,#507,.F.);
#649=ORIENTED_EDGE('',*,*,#503,.F.);
#650=ORIENTED_EDGE('',*,*,#508,.F.);
#651=ORIENTED_EDGE('',*,*,#509,.F.);
#652=ORIENTED_EDGE('',*,*,#510,.F.);
#653=ORIENTED_EDGE('',*,*,#511,.F.);
#654=ORIENTED_EDGE('',*,*,#512,.F.);
#655=ORIENTED_EDGE('',*,*,#513,.F.);
#656=ORIENTED_EDGE('',*,*,#514,.F.);
#657=ORIENTED_EDGE('',*,*,#515,.F.);
#658=ORIENTED_EDGE('',*,*,#499,.F.);
#659=ORIENTED_EDGE('',*,*,#516,.F.);
#660=ORIENTED_EDGE('',*,*,#468,.T.);
#661=ORIENTED_EDGE('',*,*,#517,.F.);
#662=ORIENTED_EDGE('',*,*,#518,.F.);
#663=ORIENTED_EDGE('',*,*,#519,.F.);
#664=ORIENTED_EDGE('',*,*,#520,.F.);
#665=ORIENTED_EDGE('',*,*,#521,.F.);
#666=ORIENTED_EDGE('',*,*,#522,.F.);
#667=ORIENTED_EDGE('',*,*,#523,.T.);
#668=ORIENTED_EDGE('',*,*,#524,.F.);
#669=ORIENTED_EDGE('',*,*,#501,.F.);
#670=ORIENTED_EDGE('',*,*,#498,.T.);
#671=ORIENTED_EDGE('',*,*,#506,.T.);
#672=ORIENTED_EDGE('',*,*,#469,.T.);
#673=ORIENTED_EDGE('',*,*,#516,.T.);
#674=ORIENTED_EDGE('',*,*,#493,.T.);
#675=ORIENTED_EDGE('',*,*,#474,.T.);
#676=ORIENTED_EDGE('',*,*,#485,.T.);
#677=ORIENTED_EDGE('',*,*,#491,.T.);
#678=ORIENTED_EDGE('',*,*,#525,.F.);
#679=ORIENTED_EDGE('',*,*,#514,.T.);
#680=ORIENTED_EDGE('',*,*,#526,.F.);
#681=ORIENTED_EDGE('',*,*,#527,.F.);
#682=ORIENTED_EDGE('',*,*,#528,.F.);
#683=ORIENTED_EDGE('',*,*,#529,.F.);
#684=ORIENTED_EDGE('',*,*,#530,.F.);
#685=ORIENTED_EDGE('',*,*,#518,.T.);
#686=ORIENTED_EDGE('',*,*,#531,.F.);
#687=ORIENTED_EDGE('',*,*,#532,.F.);
#688=ORIENTED_EDGE('',*,*,#533,.F.);
#689=ORIENTED_EDGE('',*,*,#534,.F.);
#690=ORIENTED_EDGE('',*,*,#502,.T.);
#691=ORIENTED_EDGE('',*,*,#524,.T.);
#692=ORIENTED_EDGE('',*,*,#535,.T.);
#693=ORIENTED_EDGE('',*,*,#508,.T.);
#694=ORIENTED_EDGE('',*,*,#495,.T.);
#695=ORIENTED_EDGE('',*,*,#487,.T.);
#696=ORIENTED_EDGE('',*,*,#481,.T.);
#697=ORIENTED_EDGE('',*,*,#478,.T.);
#698=ORIENTED_EDGE('',*,*,#534,.T.);
#699=ORIENTED_EDGE('',*,*,#536,.F.);
#700=ORIENTED_EDGE('',*,*,#537,.T.);
#701=ORIENTED_EDGE('',*,*,#538,.T.);
#702=ORIENTED_EDGE('',*,*,#533,.T.);
#703=ORIENTED_EDGE('',*,*,#539,.F.);
#704=ORIENTED_EDGE('',*,*,#540,.T.);
#705=ORIENTED_EDGE('',*,*,#536,.T.);
#706=ORIENTED_EDGE('',*,*,#532,.T.);
#707=ORIENTED_EDGE('',*,*,#541,.F.);
#708=ORIENTED_EDGE('',*,*,#542,.T.);
#709=ORIENTED_EDGE('',*,*,#539,.T.);
#710=ORIENTED_EDGE('',*,*,#543,.T.);
#711=ORIENTED_EDGE('',*,*,#544,.T.);
#712=ORIENTED_EDGE('',*,*,#545,.T.);
#713=ORIENTED_EDGE('',*,*,#546,.F.);
#714=ORIENTED_EDGE('',*,*,#547,.F.);
#715=ORIENTED_EDGE('',*,*,#548,.F.);
#716=ORIENTED_EDGE('',*,*,#531,.T.);
#717=ORIENTED_EDGE('',*,*,#517,.T.);
#718=ORIENTED_EDGE('',*,*,#549,.F.);
#719=ORIENTED_EDGE('',*,*,#550,.F.);
#720=ORIENTED_EDGE('',*,*,#519,.T.);
#721=ORIENTED_EDGE('',*,*,#530,.T.);
#722=ORIENTED_EDGE('',*,*,#551,.F.);
#723=ORIENTED_EDGE('',*,*,#552,.T.);
#724=ORIENTED_EDGE('',*,*,#541,.T.);
#725=ORIENTED_EDGE('',*,*,#545,.F.);
#726=ORIENTED_EDGE('',*,*,#553,.T.);
#727=ORIENTED_EDGE('',*,*,#554,.T.);
#728=ORIENTED_EDGE('',*,*,#543,.F.);
#729=ORIENTED_EDGE('',*,*,#555,.F.);
#730=ORIENTED_EDGE('',*,*,#556,.T.);
#731=ORIENTED_EDGE('',*,*,#557,.F.);
#732=ORIENTED_EDGE('',*,*,#521,.T.);
#733=ORIENTED_EDGE('',*,*,#558,.F.);
#734=ORIENTED_EDGE('',*,*,#549,.T.);
#735=ORIENTED_EDGE('',*,*,#559,.F.);
#736=ORIENTED_EDGE('',*,*,#560,.T.);
#737=ORIENTED_EDGE('',*,*,#561,.F.);
#738=ORIENTED_EDGE('',*,*,#562,.F.);
#739=ORIENTED_EDGE('',*,*,#466,.F.);
#740=ORIENTED_EDGE('',*,*,#563,.F.);
#741=ORIENTED_EDGE('',*,*,#520,.T.);
#742=ORIENTED_EDGE('',*,*,#550,.T.);
#743=ORIENTED_EDGE('',*,*,#564,.T.);
#744=ORIENTED_EDGE('',*,*,#512,.T.);
#745=ORIENTED_EDGE('',*,*,#565,.T.);
#746=ORIENTED_EDGE('',*,*,#566,.T.);
#747=ORIENTED_EDGE('',*,*,#472,.T.);
#748=ORIENTED_EDGE('',*,*,#492,.T.);
#749=ORIENTED_EDGE('',*,*,#489,.T.);
#750=ORIENTED_EDGE('',*,*,#483,.T.);
#751=ORIENTED_EDGE('',*,*,#567,.T.);
#752=ORIENTED_EDGE('',*,*,#568,.T.);
#753=ORIENTED_EDGE('',*,*,#476,.T.);
#754=ORIENTED_EDGE('',*,*,#480,.T.);
#755=ORIENTED_EDGE('',*,*,#486,.T.);
#756=ORIENTED_EDGE('',*,*,#494,.T.);
#757=ORIENTED_EDGE('',*,*,#569,.T.);
#758=ORIENTED_EDGE('',*,*,#570,.T.);
#759=ORIENTED_EDGE('',*,*,#567,.F.);
#760=ORIENTED_EDGE('',*,*,#568,.F.);
#761=ORIENTED_EDGE('',*,*,#571,.T.);
#762=ORIENTED_EDGE('',*,*,#572,.F.);
#763=ORIENTED_EDGE('',*,*,#560,.F.);
#764=ORIENTED_EDGE('',*,*,#573,.F.);
#765=ORIENTED_EDGE('',*,*,#571,.F.);
#766=ORIENTED_EDGE('',*,*,#553,.F.);
#767=ORIENTED_EDGE('',*,*,#544,.F.);
#768=ORIENTED_EDGE('',*,*,#554,.F.);
#769=ORIENTED_EDGE('',*,*,#574,.T.);
#770=ORIENTED_EDGE('',*,*,#569,.F.);
#771=ORIENTED_EDGE('',*,*,#570,.F.);
#772=ORIENTED_EDGE('',*,*,#574,.F.);
#773=ORIENTED_EDGE('',*,*,#556,.F.);
#774=ORIENTED_EDGE('',*,*,#575,.F.);
#775=ORIENTED_EDGE('',*,*,#576,.T.);
#776=ORIENTED_EDGE('',*,*,#577,.F.);
#777=ORIENTED_EDGE('',*,*,#578,.T.);
#778=ORIENTED_EDGE('',*,*,#565,.F.);
#779=ORIENTED_EDGE('',*,*,#564,.F.);
#780=ORIENTED_EDGE('',*,*,#558,.T.);
#781=ORIENTED_EDGE('',*,*,#561,.T.);
#782=ORIENTED_EDGE('',*,*,#572,.T.);
#783=ORIENTED_EDGE('',*,*,#573,.T.);
#784=ORIENTED_EDGE('',*,*,#559,.T.);
#785=ORIENTED_EDGE('',*,*,#579,.F.);
#786=ORIENTED_EDGE('',*,*,#576,.F.);
#787=ORIENTED_EDGE('',*,*,#580,.F.);
#788=ORIENTED_EDGE('',*,*,#555,.T.);
#789=ORIENTED_EDGE('',*,*,#548,.T.);
#790=ORIENTED_EDGE('',*,*,#581,.T.);
#791=ORIENTED_EDGE('',*,*,#582,.F.);
#792=ORIENTED_EDGE('',*,*,#547,.T.);
#793=ORIENTED_EDGE('',*,*,#583,.F.);
#794=ORIENTED_EDGE('',*,*,#509,.T.);
#795=ORIENTED_EDGE('',*,*,#535,.F.);
#796=ORIENTED_EDGE('',*,*,#523,.F.);
#797=ORIENTED_EDGE('',*,*,#581,.F.);
#798=ORIENTED_EDGE('',*,*,#557,.T.);
#799=ORIENTED_EDGE('',*,*,#584,.F.);
#800=ORIENTED_EDGE('',*,*,#583,.T.);
#801=ORIENTED_EDGE('',*,*,#546,.T.);
#802=ORIENTED_EDGE('',*,*,#511,.T.);
#803=ORIENTED_EDGE('',*,*,#585,.T.);
#804=ORIENTED_EDGE('',*,*,#578,.F.);
#805=ORIENTED_EDGE('',*,*,#580,.T.);
#806=ORIENTED_EDGE('',*,*,#586,.F.);
#807=ORIENTED_EDGE('',*,*,#467,.T.);
#808=ORIENTED_EDGE('',*,*,#562,.T.);
#809=ORIENTED_EDGE('',*,*,#563,.T.);
#810=ORIENTED_EDGE('',*,*,#471,.T.);
#811=ORIENTED_EDGE('',*,*,#587,.F.);
#812=ORIENTED_EDGE('',*,*,#579,.T.);
#813=ORIENTED_EDGE('',*,*,#513,.T.);
#814=ORIENTED_EDGE('',*,*,#566,.F.);
#815=ORIENTED_EDGE('',*,*,#585,.F.);
#816=ORIENTED_EDGE('',*,*,#510,.T.);
#817=ORIENTED_EDGE('',*,*,#525,.T.);
#818=ORIENTED_EDGE('',*,*,#538,.F.);
#819=ORIENTED_EDGE('',*,*,#588,.T.);
#820=ORIENTED_EDGE('',*,*,#589,.T.);
#821=ORIENTED_EDGE('',*,*,#526,.T.);
#822=ORIENTED_EDGE('',*,*,#529,.T.);
#823=ORIENTED_EDGE('',*,*,#590,.F.);
#824=ORIENTED_EDGE('',*,*,#591,.T.);
#825=ORIENTED_EDGE('',*,*,#551,.T.);
#826=ORIENTED_EDGE('',*,*,#528,.T.);
#827=ORIENTED_EDGE('',*,*,#592,.F.);
#828=ORIENTED_EDGE('',*,*,#593,.T.);
#829=ORIENTED_EDGE('',*,*,#590,.T.);
#830=ORIENTED_EDGE('',*,*,#527,.T.);
#831=ORIENTED_EDGE('',*,*,#589,.F.);
#832=ORIENTED_EDGE('',*,*,#594,.T.);
#833=ORIENTED_EDGE('',*,*,#592,.T.);
#834=ORIENTED_EDGE('',*,*,#507,.T.);
#835=ORIENTED_EDGE('',*,*,#584,.T.);
#836=ORIENTED_EDGE('',*,*,#577,.T.);
#837=ORIENTED_EDGE('',*,*,#587,.T.);
#838=ORIENTED_EDGE('',*,*,#505,.T.);
#839=ORIENTED_EDGE('',*,*,#496,.T.);
#840=ORIENTED_EDGE('',*,*,#515,.T.);
#841=ORIENTED_EDGE('',*,*,#586,.T.);
#842=ORIENTED_EDGE('',*,*,#575,.T.);
#843=ORIENTED_EDGE('',*,*,#582,.T.);
#844=ORIENTED_EDGE('',*,*,#522,.T.);
#845=ORIENTED_EDGE('',*,*,#500,.T.);
#846=ORIENTED_EDGE('',*,*,#595,.T.);
#847=ORIENTED_EDGE('',*,*,#596,.T.);
#848=ORIENTED_EDGE('',*,*,#595,.F.);
#849=ORIENTED_EDGE('',*,*,#504,.T.);
#850=ORIENTED_EDGE('',*,*,#596,.F.);
#851=ORIENTED_EDGE('',*,*,#594,.F.);
#852=ORIENTED_EDGE('',*,*,#588,.F.);
#853=ORIENTED_EDGE('',*,*,#537,.F.);
#854=ORIENTED_EDGE('',*,*,#540,.F.);
#855=ORIENTED_EDGE('',*,*,#542,.F.);
#856=ORIENTED_EDGE('',*,*,#552,.F.);
#857=ORIENTED_EDGE('',*,*,#591,.F.);
#858=ORIENTED_EDGE('',*,*,#593,.F.);
#859=CYLINDRICAL_SURFACE('',#941,4.);
#860=CYLINDRICAL_SURFACE('',#981,4.07499999999997);
#861=CYLINDRICAL_SURFACE('',#985,5.);
#862=CYLINDRICAL_SURFACE('',#994,7.5);
#863=CYLINDRICAL_SURFACE('',#995,7.5);
#864=CYLINDRICAL_SURFACE('',#996,1.5);
#865=CYLINDRICAL_SURFACE('',#997,1.5);
#866=CYLINDRICAL_SURFACE('',#1000,5.);
#867=CYLINDRICAL_SURFACE('',#1005,4.);
#868=CYLINDRICAL_SURFACE('',#1014,4.07499999999997);
#869=CYLINDRICAL_SURFACE('',#1019,7.5);
#870=ADVANCED_FACE('',(#77),#859,.T.);
#871=ADVANCED_FACE('',(#78),#41,.T.);
#872=ADVANCED_FACE('',(#79),#42,.T.);
#873=ADVANCED_FACE('',(#80),#43,.T.);
#874=ADVANCED_FACE('',(#81),#44,.T.);
#875=ADVANCED_FACE('',(#82),#45,.T.);
#876=ADVANCED_FACE('',(#83),#46,.T.);
#877=ADVANCED_FACE('',(#84),#47,.T.);
#878=ADVANCED_FACE('',(#85),#48,.T.);
#879=ADVANCED_FACE('',(#86),#49,.T.);
#880=ADVANCED_FACE('',(#87),#50,.T.);
#881=ADVANCED_FACE('',(#88),#51,.T.);
#882=ADVANCED_FACE('',(#89),#52,.T.);
#883=ADVANCED_FACE('',(#90),#53,.T.);
#884=ADVANCED_FACE('',(#91),#54,.T.);
#885=ADVANCED_FACE('',(#92),#55,.T.);
#886=ADVANCED_FACE('',(#93),#56,.T.);
#887=ADVANCED_FACE('',(#94,#34),#57,.F.);
#888=ADVANCED_FACE('',(#95),#58,.T.);
#889=ADVANCED_FACE('',(#96,#35),#59,.T.);
#890=ADVANCED_FACE('',(#97),#60,.T.);
#891=ADVANCED_FACE('',(#98),#61,.T.);
#892=ADVANCED_FACE('',(#99),#62,.T.);
#893=ADVANCED_FACE('',(#100),#63,.F.);
#894=ADVANCED_FACE('',(#101),#860,.F.);
#895=ADVANCED_FACE('',(#102),#861,.F.);
#896=ADVANCED_FACE('',(#103),#64,.F.);
#897=ADVANCED_FACE('',(#104),#65,.F.);
#898=ADVANCED_FACE('',(#105),#66,.F.);
#899=ADVANCED_FACE('',(#106),#67,.F.);
#900=ADVANCED_FACE('',(#107,#36),#862,.T.);
#901=ADVANCED_FACE('',(#108,#37),#863,.T.);
#902=ADVANCED_FACE('',(#109),#864,.F.);
#903=ADVANCED_FACE('',(#110),#865,.F.);
#904=ADVANCED_FACE('',(#111,#38,#39),#15,.T.);
#905=ADVANCED_FACE('',(#112),#866,.F.);
#906=ADVANCED_FACE('',(#113),#68,.F.);
#907=ADVANCED_FACE('',(#114),#867,.T.);
#908=ADVANCED_FACE('',(#115),#69,.F.);
#909=ADVANCED_FACE('',(#116),#70,.F.);
#910=ADVANCED_FACE('',(#117),#71,.F.);
#911=ADVANCED_FACE('',(#118),#72,.F.);
#912=ADVANCED_FACE('',(#119),#868,.F.);
#913=ADVANCED_FACE('',(#120),#73,.T.);
#914=ADVANCED_FACE('',(#121),#74,.T.);
#915=ADVANCED_FACE('',(#122),#75,.T.);
#916=ADVANCED_FACE('',(#123),#869,.T.);
#917=ADVANCED_FACE('',(#124,#40),#76,.F.);
#918=CLOSED_SHELL('',(#870,#871,#872,#873,#874,#875,#876,#877,#878,#879,
#880,#881,#882,#883,#884,#885,#886,#887,#888,#889,#890,#891,#892,#893,#894,
#895,#896,#897,#898,#899,#900,#901,#902,#903,#904,#905,#906,#907,#908,#909,
#910,#911,#912,#913,#914,#915,#916,#917));
#919=DERIVED_UNIT_ELEMENT(#922,1.);
#920=DERIVED_UNIT_ELEMENT(#1653,-3.);
#921=DIMENSIONAL_EXPONENTS(0.,1.,0.,0.,0.,0.,0.);
#922=(
CONVERSION_BASED_UNIT('gram',#924)
MASS_UNIT()
NAMED_UNIT(#921)
);
#923=(
MASS_UNIT()
NAMED_UNIT(*)
SI_UNIT(.KILO.,.GRAM.)
);
#924=MASS_MEASURE_WITH_UNIT(MASS_MEASURE(0.001),#923);
#925=DERIVED_UNIT((#919,#920));
#926=MEASURE_REPRESENTATION_ITEM('density measure',
POSITIVE_RATIO_MEASURE(1.),#925);
#927=PROPERTY_DEFINITION_REPRESENTATION(#932,#929);
#928=PROPERTY_DEFINITION_REPRESENTATION(#933,#930);
#929=REPRESENTATION('material name',(#931),#1650);
#930=REPRESENTATION('density',(#926),#1650);
#931=DESCRIPTIVE_REPRESENTATION_ITEM('Generic','Generic');
#932=PROPERTY_DEFINITION('material property','material name',#1660);
#933=PROPERTY_DEFINITION('material property','density of part',#1660);
#934=DATE_TIME_ROLE('creation_date');
#935=APPLIED_DATE_AND_TIME_ASSIGNMENT(#936,#934,(#1660));
#936=DATE_AND_TIME(#937,#938);
#937=CALENDAR_DATE(2026,25,6);
#938=LOCAL_TIME(0,0,0.,#939);
#939=COORDINATED_UNIVERSAL_TIME_OFFSET(0,0,.BEHIND.);
#940=AXIS2_PLACEMENT_3D('',#1275,#1022,#1023);
#941=AXIS2_PLACEMENT_3D('',#1276,#1024,#1025);
#942=AXIS2_PLACEMENT_3D('',#1279,#1026,#1027);
#943=AXIS2_PLACEMENT_3D('',#1285,#1030,#1031);
#944=AXIS2_PLACEMENT_3D('',#1289,#1034,#1035);
#945=AXIS2_PLACEMENT_3D('',#1298,#1040,#1041);
#946=AXIS2_PLACEMENT_3D('',#1307,#1046,#1047);
#947=AXIS2_PLACEMENT_3D('',#1309,#1048,#1049);
#948=AXIS2_PLACEMENT_3D('',#1313,#1052,#1053);
#949=AXIS2_PLACEMENT_3D('',#1315,#1054,#1055);
#950=AXIS2_PLACEMENT_3D('',#1319,#1058,#1059);
#951=AXIS2_PLACEMENT_3D('',#1325,#1063,#1064);
#952=AXIS2_PLACEMENT_3D('',#1331,#1068,#1069);
#953=AXIS2_PLACEMENT_3D('',#1332,#1070,#1071);
#954=AXIS2_PLACEMENT_3D('',#1334,#1073,#1074);
#955=AXIS2_PLACEMENT_3D('',#1335,#1075,#1076);
#956=AXIS2_PLACEMENT_3D('',#1337,#1078,#1079);
#957=AXIS2_PLACEMENT_3D('',#1340,#1080,#1081);
#958=AXIS2_PLACEMENT_3D('',#1346,#1085,#1086);
#959=AXIS2_PLACEMENT_3D('',#1349,#1087,#1088);
#960=AXIS2_PLACEMENT_3D('',#1356,#1092,#1093);
#961=AXIS2_PLACEMENT_3D('',#1357,#1094,#1095);
#962=AXIS2_PLACEMENT_3D('',#1360,#1098,#1099);
#963=AXIS2_PLACEMENT_3D('',#1366,#1103,#1104);
#964=AXIS2_PLACEMENT_3D('',#1377,#1110,#1111);
#965=AXIS2_PLACEMENT_3D('',#1380,#1114,#1115);
#966=AXIS2_PLACEMENT_3D('',#1391,#1121,#1122);
#967=AXIS2_PLACEMENT_3D('',#1397,#1126,#1127);
#968=AXIS2_PLACEMENT_3D('',#1398,#1128,#1129);
#969=AXIS2_PLACEMENT_3D('',#1400,#1130,#1131);
#970=AXIS2_PLACEMENT_3D('',#1402,#1132,#1133);
#971=AXIS2_PLACEMENT_3D('',#1409,#1137,#1138);
#972=AXIS2_PLACEMENT_3D('',#1411,#1139,#1140);
#973=AXIS2_PLACEMENT_3D('',#1417,#1144,#1145);
#974=AXIS2_PLACEMENT_3D('',#1418,#1146,#1147);
#975=AXIS2_PLACEMENT_3D('',#1419,#1148,#1149);
#976=AXIS2_PLACEMENT_3D('',#1425,#1153,#1154);
#977=AXIS2_PLACEMENT_3D('',#1429,#1157,#1158);
#978=AXIS2_PLACEMENT_3D('',#1433,#1161,#1162);
#979=AXIS2_PLACEMENT_3D('',#1438,#1164,#1165);
#980=AXIS2_PLACEMENT_3D('',#1444,#1168,#1169);
#981=AXIS2_PLACEMENT_3D('',#1446,#1171,#1172);
#982=AXIS2_PLACEMENT_3D('',#1448,#1173,#1174);
#983=AXIS2_PLACEMENT_3D('',#1449,#1175,#1176);
#984=AXIS2_PLACEMENT_3D('',#1452,#1178,#1179);
#985=AXIS2_PLACEMENT_3D('',#1453,#1180,#1181);
#986=AXIS2_PLACEMENT_3D('',#1476,#1182,#1183);
#987=AXIS2_PLACEMENT_3D('',#1479,#1185,#1186);
#988=AXIS2_PLACEMENT_3D('',#1480,#1187,#1188);
#989=AXIS2_PLACEMENT_3D('',#1482,#1190,#1191);
#990=AXIS2_PLACEMENT_3D('',#1487,#1193,#1194);
#991=AXIS2_PLACEMENT_3D('',#1492,#1198,#1199);
#992=AXIS2_PLACEMENT_3D('',#1494,#1201,#1202);
#993=AXIS2_PLACEMENT_3D('',#1497,#1204,#1205);
#994=AXIS2_PLACEMENT_3D('',#1498,#1206,#1207);
#995=AXIS2_PLACEMENT_3D('',#1537,#1208,#1209);
#996=AXIS2_PLACEMENT_3D('',#1576,#1210,#1211);
#997=AXIS2_PLACEMENT_3D('',#1599,#1213,#1214);
#998=AXIS2_PLACEMENT_3D('',#1608,#1216,#1217);
#999=AXIS2_PLACEMENT_3D('',#1611,#1219,#1220);
#1000=AXIS2_PLACEMENT_3D('',#1613,#1222,#1223);
#1001=AXIS2_PLACEMENT_3D('',#1614,#1224,#1225);
#1002=AXIS2_PLACEMENT_3D('',#1615,#1226,#1227);
#1003=AXIS2_PLACEMENT_3D('',#1616,#1228,#1229);
#1004=AXIS2_PLACEMENT_3D('',#1618,#1231,#1232);
#1005=AXIS2_PLACEMENT_3D('',#1619,#1233,#1234);
#1006=AXIS2_PLACEMENT_3D('',#1621,#1236,#1237);
#1007=AXIS2_PLACEMENT_3D('',#1622,#1238,#1239);
#1008=AXIS2_PLACEMENT_3D('',#1623,#1240,#1241);
#1009=AXIS2_PLACEMENT_3D('',#1624,#1242,#1243);
#1010=AXIS2_PLACEMENT_3D('',#1625,#1244,#1245);
#1011=AXIS2_PLACEMENT_3D('',#1626,#1246,#1247);
#1012=AXIS2_PLACEMENT_3D('',#1627,#1248,#1249);
#1013=AXIS2_PLACEMENT_3D('',#1628,#1250,#1251);
#1014=AXIS2_PLACEMENT_3D('',#1629,#1252,#1253);
#1015=AXIS2_PLACEMENT_3D('',#1631,#1254,#1255);
#1016=AXIS2_PLACEMENT_3D('',#1633,#1257,#1258);
#1017=AXIS2_PLACEMENT_3D('',#1637,#1261,#1262);
#1018=AXIS2_PLACEMENT_3D('',#1641,#1265,#1266);
#1019=AXIS2_PLACEMENT_3D('',#1643,#1268,#1269);
#1020=AXIS2_PLACEMENT_3D('',#1646,#1271,#1272);
#1021=AXIS2_PLACEMENT_3D('',#1647,#1273,#1274);
#1022=DIRECTION('axis',(0.,0.,1.));
#1023=DIRECTION('refdir',(1.,0.,0.));
#1024=DIRECTION('center_axis',(1.,0.,0.));
#1025=DIRECTION('ref_axis',(0.,1.,1.65389215948552E-15));
#1026=DIRECTION('center_axis',(-1.,5.04432424961311E-16,0.));
#1027=DIRECTION('ref_axis',(0.,-1.,0.));
#1028=DIRECTION('',(1.,0.,0.));
#1029=DIRECTION('',(1.,0.,0.));
#1030=DIRECTION('center_axis',(-1.,0.,0.));
#1031=DIRECTION('ref_axis',(0.,1.,1.27502175484296E-15));
#1032=DIRECTION('',(1.,0.,0.));
#1033=DIRECTION('',(-1.,0.,0.));
#1034=DIRECTION('center_axis',(0.,0.,1.));
#1035=DIRECTION('ref_axis',(0.,-1.,0.));
#1036=DIRECTION('',(0.,-1.,0.));
#1037=DIRECTION('',(1.,0.,0.));
#1038=DIRECTION('',(0.,1.,0.));
#1039=DIRECTION('',(-1.,0.,0.));
#1040=DIRECTION('center_axis',(0.,0.,1.));
#1041=DIRECTION('ref_axis',(0.,-1.,0.));
#1042=DIRECTION('',(0.,1.,0.));
#1043=DIRECTION('',(-1.,0.,0.));
#1044=DIRECTION('',(0.,-1.,0.));
#1045=DIRECTION('',(1.,0.,0.));
#1046=DIRECTION('center_axis',(0.,-1.,0.));
#1047=DIRECTION('ref_axis',(0.,0.,-1.));
#1048=DIRECTION('center_axis',(0.,-1.,0.));
#1049=DIRECTION('ref_axis',(-1.,0.,0.));
#1050=DIRECTION('',(0.,0.,-1.));
#1051=DIRECTION('',(1.,0.,0.));
#1052=DIRECTION('center_axis',(0.,-1.,0.));
#1053=DIRECTION('ref_axis',(0.,0.,-1.));
#1054=DIRECTION('center_axis',(0.,-1.,0.));
#1055=DIRECTION('ref_axis',(-1.,0.,0.));
#1056=DIRECTION('',(1.,0.,0.));
#1057=DIRECTION('',(0.,0.,1.));
#1058=DIRECTION('center_axis',(0.,0.,-1.));
#1059=DIRECTION('ref_axis',(0.,1.,0.));
#1060=DIRECTION('',(0.,-1.,0.));
#1061=DIRECTION('',(0.,1.,0.));
#1062=DIRECTION('',(1.,0.,0.));
#1063=DIRECTION('center_axis',(0.,0.,-1.));
#1064=DIRECTION('ref_axis',(0.,1.,0.));
#1065=DIRECTION('',(0.,1.,0.));
#1066=DIRECTION('',(1.,0.,0.));
#1067=DIRECTION('',(0.,-1.,0.));
#1068=DIRECTION('center_axis',(0.,1.,0.));
#1069=DIRECTION('ref_axis',(0.,0.,1.));
#1070=DIRECTION('center_axis',(0.,1.,0.));
#1071=DIRECTION('ref_axis',(-1.,0.,0.));
#1072=DIRECTION('',(0.,0.,-1.));
#1073=DIRECTION('center_axis',(0.,1.,0.));
#1074=DIRECTION('ref_axis',(0.,0.,1.));
#1075=DIRECTION('center_axis',(0.,1.,0.));
#1076=DIRECTION('ref_axis',(-1.,0.,0.));
#1077=DIRECTION('',(0.,0.,1.));
#1078=DIRECTION('center_axis',(0.,-1.,0.));
#1079=DIRECTION('ref_axis',(0.,0.,-1.));
#1080=DIRECTION('center_axis',(0.,-1.,0.));
#1081=DIRECTION('ref_axis',(-1.,0.,0.));
#1082=DIRECTION('',(-1.,0.,0.));
#1083=DIRECTION('',(0.,0.,1.));
#1084=DIRECTION('',(1.,0.,0.));
#1085=DIRECTION('center_axis',(0.,-1.,0.));
#1086=DIRECTION('ref_axis',(0.,0.,-1.));
#1087=DIRECTION('center_axis',(0.,-1.,0.));
#1088=DIRECTION('ref_axis',(-1.,0.,0.));
#1089=DIRECTION('',(1.,0.,0.));
#1090=DIRECTION('',(0.,0.,-1.));
#1091=DIRECTION('',(-1.,0.,0.));
#1092=DIRECTION('center_axis',(0.,-1.,0.));
#1093=DIRECTION('ref_axis',(-1.,0.,0.));
#1094=DIRECTION('center_axis',(0.,0.,1.));
#1095=DIRECTION('ref_axis',(0.,-1.,0.));
#1096=DIRECTION('',(0.,-1.,0.));
#1097=DIRECTION('',(0.,1.,0.));
#1098=DIRECTION('center_axis',(0.,0.,1.));
#1099=DIRECTION('ref_axis',(0.,-1.,0.));
#1100=DIRECTION('',(0.,1.,0.));
#1101=DIRECTION('',(0.,-1.,0.));
#1102=DIRECTION('',(1.,0.,0.));
#1103=DIRECTION('center_axis',(0.,0.,1.));
#1104=DIRECTION('ref_axis',(0.,-1.,0.));
#1105=DIRECTION('',(0.,-1.,0.));
#1106=DIRECTION('',(1.,0.,0.));
#1107=DIRECTION('',(1.,0.,0.));
#1108=DIRECTION('',(0.,1.,0.));
#1109=DIRECTION('',(-1.,0.,0.));
#1110=DIRECTION('center_axis',(0.,0.,-1.));
#1111=DIRECTION('ref_axis',(0.,1.,0.));
#1112=DIRECTION('',(0.,1.,0.));
#1113=DIRECTION('',(0.,-1.,0.));
#1114=DIRECTION('center_axis',(0.,0.,-1.));
#1115=DIRECTION('ref_axis',(0.,1.,0.));
#1116=DIRECTION('',(0.,1.,0.));
#1117=DIRECTION('',(1.,0.,0.));
#1118=DIRECTION('',(0.,-1.,0.));
#1119=DIRECTION('',(-1.,0.,0.));
#1120=DIRECTION('',(-1.,0.,0.));
#1121=DIRECTION('center_axis',(0.,0.,-1.));
#1122=DIRECTION('ref_axis',(0.,1.,0.));
#1123=DIRECTION('',(0.,-1.,0.));
#1124=DIRECTION('',(1.,0.,0.));
#1125=DIRECTION('',(0.,1.,0.));
#1126=DIRECTION('center_axis',(1.,0.,0.));
#1127=DIRECTION('ref_axis',(0.,0.,-1.));
#1128=DIRECTION('center_axis',(0.,-1.,0.));
#1129=DIRECTION('ref_axis',(0.,0.,-1.));
#1130=DIRECTION('center_axis',(0.,1.,0.));
#1131=DIRECTION('ref_axis',(0.968204343884509,0.,-0.250160645352475));
#1132=DIRECTION('center_axis',(0.,1.,0.));
#1133=DIRECTION('ref_axis',(0.968204343884509,0.,-0.250160645352475));
#1134=DIRECTION('',(-0.99001446864595,0.,-0.14096578262712));
#1135=DIRECTION('',(-0.140965782627116,0.,0.990014468645951));
#1136=DIRECTION('',(0.990014468645951,0.,0.140965782627114));
#1137=DIRECTION('center_axis',(0.,1.,0.));
#1138=DIRECTION('ref_axis',(-0.968204343884509,0.,0.250160645352478));
#1139=DIRECTION('center_axis',(0.,1.,0.));
#1140=DIRECTION('ref_axis',(-0.968204343884509,0.,0.250160645352478));
#1141=DIRECTION('',(0.99001446864595,0.,0.140965782627126));
#1142=DIRECTION('',(0.140965782627118,0.,-0.990014468645951));
#1143=DIRECTION('',(-0.990014468645948,0.,-0.140965782627134));
#1144=DIRECTION('center_axis',(1.,0.,0.));
#1145=DIRECTION('ref_axis',(0.,0.,-1.));
#1146=DIRECTION('center_axis',(1.,0.,0.));
#1147=DIRECTION('ref_axis',(0.,1.,1.27502175484296E-15));
#1148=DIRECTION('center_axis',(-0.140965782627134,0.,0.990014468645949));
#1149=DIRECTION('ref_axis',(0.990014468645948,0.,0.140965782627134));
#1150=DIRECTION('',(0.,1.,0.));
#1151=DIRECTION('',(0.990014468645948,0.,0.140965782627134));
#1152=DIRECTION('',(0.,1.,0.));
#1153=DIRECTION('center_axis',(-0.990014468645951,0.,-0.140965782627118));
#1154=DIRECTION('ref_axis',(-0.140965782627118,0.,0.990014468645951));
#1155=DIRECTION('',(0.,1.,0.));
#1156=DIRECTION('',(-0.140965782627118,0.,0.990014468645951));
#1157=DIRECTION('center_axis',(0.140965782627126,0.,-0.99001446864595));
#1158=DIRECTION('ref_axis',(-0.99001446864595,0.,-0.140965782627126));
#1159=DIRECTION('',(0.,1.,0.));
#1160=DIRECTION('',(-0.99001446864595,0.,-0.140965782627126));
#1161=DIRECTION('center_axis',(1.,0.,0.));
#1162=DIRECTION('ref_axis',(0.,1.,0.));
#1163=DIRECTION('',(0.,0.,1.));
#1164=DIRECTION('center_axis',(1.,0.,0.));
#1165=DIRECTION('ref_axis',(0.,1.,0.));
#1166=DIRECTION('',(0.,0.,1.));
#1167=DIRECTION('',(0.,-0.893146315335707,0.449766227502967));
#1168=DIRECTION('center_axis',(1.,0.,0.));
#1169=DIRECTION('ref_axis',(0.,-1.,0.));
#1170=DIRECTION('',(0.,0.893146315335707,0.449766227502967));
#1171=DIRECTION('center_axis',(0.,1.,0.));
#1172=DIRECTION('ref_axis',(-0.968204343884509,0.,0.250160645352478));
#1173=DIRECTION('center_axis',(0.,-1.,0.));
#1174=DIRECTION('ref_axis',(-0.968204343884509,0.,0.250160645352478));
#1175=DIRECTION('center_axis',(0.,-1.,0.));
#1176=DIRECTION('ref_axis',(-0.968204343884509,0.,0.250160645352478));
#1177=DIRECTION('',(0.,1.,0.));
#1178=DIRECTION('center_axis',(0.,-1.,0.));
#1179=DIRECTION('ref_axis',(-0.968204343884509,0.,0.250160645352478));
#1180=DIRECTION('center_axis',(0.,0.,1.));
#1181=DIRECTION('ref_axis',(1.,0.,0.));
#1182=DIRECTION('center_axis',(0.,-0.449766227502967,0.893146315335707));
#1183=DIRECTION('ref_axis',(0.,0.893146315335707,0.449766227502967));
#1184=DIRECTION('',(0.,0.,1.));
#1185=DIRECTION('center_axis',(0.,-0.449766227502967,-0.893146315335707));
#1186=DIRECTION('ref_axis',(0.,0.893146315335707,-0.449766227502967));
#1187=DIRECTION('center_axis',(0.,1.,0.));
#1188=DIRECTION('ref_axis',(0.,0.,1.));
#1189=DIRECTION('',(0.,0.,1.));
#1190=DIRECTION('center_axis',(-1.,-2.22044604925032E-16,0.));
#1191=DIRECTION('ref_axis',(2.22044604925032E-16,-1.,0.));
#1192=DIRECTION('',(0.,0.,1.));
#1193=DIRECTION('center_axis',(-1.,-2.22044604925032E-16,0.));
#1194=DIRECTION('ref_axis',(0.,1.,0.));
#1195=DIRECTION('',(0.,0.,1.));
#1196=DIRECTION('',(1.98318320728965E-16,-0.893146315335707,-0.449766227502967));
#1197=DIRECTION('',(-1.98318320728965E-16,0.893146315335707,-0.449766227502967));
#1198=DIRECTION('center_axis',(0.,1.,0.));
#1199=DIRECTION('ref_axis',(0.,0.,1.));
#1200=DIRECTION('',(0.,0.,1.));
#1201=DIRECTION('center_axis',(0.,1.,0.));
#1202=DIRECTION('ref_axis',(0.,0.,1.));
#1203=DIRECTION('',(0.,0.,1.));
#1204=DIRECTION('center_axis',(0.,-1.,0.));
#1205=DIRECTION('ref_axis',(0.968204343884509,0.,-0.250160645352475));
#1206=DIRECTION('center_axis',(0.,1.,0.));
#1207=DIRECTION('ref_axis',(-1.,0.,0.));
#1208=DIRECTION('center_axis',(0.,1.,0.));
#1209=DIRECTION('ref_axis',(1.,0.,-1.22464679914735E-16));
#1210=DIRECTION('center_axis',(1.,0.,0.));
#1211=DIRECTION('ref_axis',(0.,1.,0.));
#1212=DIRECTION('',(1.,0.,0.));
#1213=DIRECTION('center_axis',(1.,0.,0.));
#1214=DIRECTION('ref_axis',(0.,1.,0.));
#1215=DIRECTION('',(1.,0.,0.));
#1216=DIRECTION('center_axis',(0.,-0.449766227502967,0.893146315335707));
#1217=DIRECTION('ref_axis',(0.,0.893146315335707,0.449766227502967));
#1218=DIRECTION('',(0.,0.,1.));
#1219=DIRECTION('center_axis',(0.,-0.449766227502967,-0.893146315335707));
#1220=DIRECTION('ref_axis',(0.,-0.893146315335707,0.449766227502967));
#1221=DIRECTION('',(0.,0.,1.));
#1222=DIRECTION('center_axis',(0.,0.,1.));
#1223=DIRECTION('ref_axis',(1.,0.,0.));
#1224=DIRECTION('center_axis',(0.,-0.449766227502967,-0.893146315335707));
#1225=DIRECTION('ref_axis',(0.,0.893146315335707,-0.449766227502967));
#1226=DIRECTION('center_axis',(0.,-0.449766227502967,0.893146315335707));
#1227=DIRECTION('ref_axis',(0.,0.893146315335707,0.449766227502967));
#1228=DIRECTION('center_axis',(0.,-0.449766227502967,0.893146315335707));
#1229=DIRECTION('ref_axis',(0.,-0.893146315335707,-0.449766227502967));
#1230=DIRECTION('',(1.,0.,0.));
#1231=DIRECTION('center_axis',(0.,-0.449766227502967,0.893146315335707));
#1232=DIRECTION('ref_axis',(0.,0.893146315335707,0.449766227502967));
#1233=DIRECTION('center_axis',(1.,0.,0.));
#1234=DIRECTION('ref_axis',(0.,1.,1.65389215948552E-15));
#1235=DIRECTION('',(-1.,0.,0.));
#1236=DIRECTION('center_axis',(0.,-0.449766227502967,-0.893146315335707));
#1237=DIRECTION('ref_axis',(0.,0.893146315335707,-0.449766227502967));
#1238=DIRECTION('center_axis',(0.,-0.449766227502967,-0.893146315335707));
#1239=DIRECTION('ref_axis',(0.,-0.893146315335707,0.449766227502967));
#1240=DIRECTION('center_axis',(0.,1.,0.));
#1241=DIRECTION('ref_axis',(0.,0.,1.));
#1242=DIRECTION('center_axis',(0.,-1.,0.));
#1243=DIRECTION('ref_axis',(0.968204343884509,0.,-0.250160645352475));
#1244=DIRECTION('center_axis',(0.,-0.449766227502967,0.893146315335707));
#1245=DIRECTION('ref_axis',(0.,-0.893146315335707,-0.449766227502967));
#1246=DIRECTION('center_axis',(0.,-0.449766227502967,0.893146315335707));
#1247=DIRECTION('ref_axis',(0.,0.893146315335707,0.449766227502967));
#1248=DIRECTION('center_axis',(0.,-0.449766227502967,-0.893146315335707));
#1249=DIRECTION('ref_axis',(0.,0.893146315335707,-0.449766227502967));
#1250=DIRECTION('center_axis',(0.,-0.449766227502967,-0.893146315335707));
#1251=DIRECTION('ref_axis',(0.,-0.893146315335707,0.449766227502967));
#1252=DIRECTION('center_axis',(0.,1.,0.));
#1253=DIRECTION('ref_axis',(0.968204343884509,0.,-0.250160645352475));
#1254=DIRECTION('center_axis',(0.,-1.,0.));
#1255=DIRECTION('ref_axis',(0.968204343884509,0.,-0.250160645352475));
#1256=DIRECTION('',(0.,1.,0.));
#1257=DIRECTION('center_axis',(0.140965782627114,0.,-0.990014468645951));
#1258=DIRECTION('ref_axis',(-0.990014468645951,0.,-0.140965782627114));
#1259=DIRECTION('',(0.,1.,0.));
#1260=DIRECTION('',(-0.990014468645951,0.,-0.140965782627114));
#1261=DIRECTION('center_axis',(0.990014468645951,0.,0.140965782627116));
#1262=DIRECTION('ref_axis',(0.140965782627116,0.,-0.990014468645951));
#1263=DIRECTION('',(0.,1.,0.));
#1264=DIRECTION('',(0.140965782627116,0.,-0.990014468645951));
#1265=DIRECTION('center_axis',(-0.14096578262712,0.,0.99001446864595));
#1266=DIRECTION('ref_axis',(0.99001446864595,0.,0.14096578262712));
#1267=DIRECTION('',(0.99001446864595,0.,0.14096578262712));
#1268=DIRECTION('center_axis',(0.,1.,0.));
#1269=DIRECTION('ref_axis',(-1.,0.,0.));
#1270=DIRECTION('',(0.,-1.,0.));
#1271=DIRECTION('center_axis',(0.,1.,0.));
#1272=DIRECTION('ref_axis',(-1.,0.,0.));
#1273=DIRECTION('center_axis',(0.,1.,0.));
#1274=DIRECTION('ref_axis',(0.,0.,1.));
#1275=CARTESIAN_POINT('',(0.,0.,0.));
#1276=CARTESIAN_POINT('Origin',(0.,21.,0.0380345380401625));
#1277=CARTESIAN_POINT('',(-5.,22.7990649100119,3.61061979938299));
#1278=CARTESIAN_POINT('',(-5.,22.7990649100119,-3.53455072330267));
#1279=CARTESIAN_POINT('Origin',(-5.,21.,0.0380345380401625));
#1280=CARTESIAN_POINT('',(-6.59443966917857,22.7990649100119,-3.53455072330267));
#1281=CARTESIAN_POINT('',(0.,22.7990649100119,-3.53455072330267));
#1282=CARTESIAN_POINT('',(-10.,22.7990649100119,-3.53455072330266));
#1283=CARTESIAN_POINT('',(0.,22.7990649100119,-3.53455072330266));
#1284=CARTESIAN_POINT('',(-10.,22.7990649100119,3.61061979938299));
#1285=CARTESIAN_POINT('Origin',(-10.,21.,0.0380345380401581));
#1286=CARTESIAN_POINT('',(-6.59443966917857,22.7990649100119,3.61061979938299));
#1287=CARTESIAN_POINT('',(0.,22.7990649100119,3.61061979938299));
#1288=CARTESIAN_POINT('',(0.,22.7990649100119,3.61061979938299));
#1289=CARTESIAN_POINT('Origin',(0.,22.630041979264,-2.63176541058448));
#1290=CARTESIAN_POINT('',(-7.00872087005352,22.630041979264,-2.63176541058448));
#1291=CARTESIAN_POINT('',(-7.00872087005352,17.369958020736,-2.63176541058448));
#1292=CARTESIAN_POINT('',(-7.00872087005352,0.,-2.63176541058448));
#1293=CARTESIAN_POINT('',(-10.,22.630041979264,-2.63176541058448));
#1294=CARTESIAN_POINT('',(0.,22.630041979264,-2.63176541058448));
#1295=CARTESIAN_POINT('',(-10.,17.369958020736,-2.63176541058448));
#1296=CARTESIAN_POINT('',(-10.,22.630041979264,-2.63176541058448));
#1297=CARTESIAN_POINT('',(0.,17.369958020736,-2.63176541058448));
#1298=CARTESIAN_POINT('Origin',(0.,22.630041979264,-2.63176541058448));
#1299=CARTESIAN_POINT('',(7.00872087005352,17.369958020736,-2.63176541058448));
#1300=CARTESIAN_POINT('',(7.00872087005352,22.630041979264,-2.63176541058448));
#1301=CARTESIAN_POINT('',(7.00872087005352,0.,-2.63176541058448));
#1302=CARTESIAN_POINT('',(10.,17.369958020736,-2.63176541058448));
#1303=CARTESIAN_POINT('',(0.,17.369958020736,-2.63176541058448));
#1304=CARTESIAN_POINT('',(10.,22.630041979264,-2.63176541058448));
#1305=CARTESIAN_POINT('',(10.,22.630041979264,-2.63176541058448));
#1306=CARTESIAN_POINT('',(0.,22.630041979264,-2.63176541058448));
#1307=CARTESIAN_POINT('Origin',(0.,22.630041979264,2.70783448666481));
#1308=CARTESIAN_POINT('',(7.00872087005353,22.630041979264,2.70783448666481));
#1309=CARTESIAN_POINT('Origin',(0.,22.630041979264,0.0380345380401625));
#1310=CARTESIAN_POINT('',(10.,22.630041979264,2.70783448666481));
#1311=CARTESIAN_POINT('',(10.,22.630041979264,2.70783448666481));
#1312=CARTESIAN_POINT('',(0.,22.630041979264,2.70783448666481));
#1313=CARTESIAN_POINT('Origin',(0.,22.630041979264,2.70783448666481));
#1314=CARTESIAN_POINT('',(-7.00872087005353,22.630041979264,2.70783448666481));
#1315=CARTESIAN_POINT('Origin',(0.,22.630041979264,0.0380345380401625));
#1316=CARTESIAN_POINT('',(-10.,22.630041979264,2.70783448666481));
#1317=CARTESIAN_POINT('',(0.,22.630041979264,2.70783448666481));
#1318=CARTESIAN_POINT('',(-10.,22.630041979264,2.70783448666481));
#1319=CARTESIAN_POINT('Origin',(0.,17.369958020736,2.70783448666481));
#1320=CARTESIAN_POINT('',(7.00872087005353,17.369958020736,2.70783448666481));
#1321=CARTESIAN_POINT('',(7.00872087005353,0.,2.70783448666481));
#1322=CARTESIAN_POINT('',(10.,17.369958020736,2.70783448666481));
#1323=CARTESIAN_POINT('',(10.,17.369958020736,2.70783448666481));
#1324=CARTESIAN_POINT('',(0.,17.369958020736,2.70783448666481));
#1325=CARTESIAN_POINT('Origin',(0.,17.369958020736,2.70783448666481));
#1326=CARTESIAN_POINT('',(-7.00872087005353,17.369958020736,2.70783448666481));
#1327=CARTESIAN_POINT('',(-7.00872087005353,0.,2.70783448666481));
#1328=CARTESIAN_POINT('',(-10.,17.369958020736,2.70783448666481));
#1329=CARTESIAN_POINT('',(0.,17.369958020736,2.70783448666481));
#1330=CARTESIAN_POINT('',(-10.,17.369958020736,2.70783448666481));
#1331=CARTESIAN_POINT('Origin',(0.,17.369958020736,-2.63176541058448));
#1332=CARTESIAN_POINT('Origin',(0.,17.369958020736,0.0380345380401625));
#1333=CARTESIAN_POINT('',(-10.,17.369958020736,-2.63176541058448));
#1334=CARTESIAN_POINT('Origin',(0.,17.369958020736,-2.63176541058448));
#1335=CARTESIAN_POINT('Origin',(0.,17.369958020736,0.0380345380401625));
#1336=CARTESIAN_POINT('',(10.,17.369958020736,-2.63176541058448));
#1337=CARTESIAN_POINT('Origin',(0.,14.7990649100119,3.61061979938299));
#1338=CARTESIAN_POINT('',(-6.59443966917857,14.7990649100119,3.61061979938299));
#1339=CARTESIAN_POINT('',(-6.59443966917857,14.7990649100119,-3.53455072330267));
#1340=CARTESIAN_POINT('Origin',(0.,14.7990649100119,0.0380345380401625));
#1341=CARTESIAN_POINT('',(-10.,14.7990649100119,3.61061979938299));
#1342=CARTESIAN_POINT('',(0.,14.7990649100119,3.61061979938299));
#1343=CARTESIAN_POINT('',(-10.,14.7990649100119,-3.53455072330267));
#1344=CARTESIAN_POINT('',(-10.,14.7990649100119,3.61061979938299));
#1345=CARTESIAN_POINT('',(0.,14.7990649100119,-3.53455072330267));
#1346=CARTESIAN_POINT('Origin',(0.,14.7990649100119,3.61061979938299));
#1347=CARTESIAN_POINT('',(6.59443966917857,14.7990649100119,-3.53455072330267));
#1348=CARTESIAN_POINT('',(7.5,14.7990649100119,0.0380345380401616));
#1349=CARTESIAN_POINT('Origin',(0.,14.7990649100119,0.0380345380401625));
#1350=CARTESIAN_POINT('',(10.,14.7990649100119,-3.53455072330267));
#1351=CARTESIAN_POINT('',(0.,14.7990649100119,-3.53455072330267));
#1352=CARTESIAN_POINT('',(10.,14.7990649100119,3.61061979938299));
#1353=CARTESIAN_POINT('',(10.,14.7990649100119,3.61061979938299));
#1354=CARTESIAN_POINT('',(6.59443966917857,14.7990649100119,3.61061979938299));
#1355=CARTESIAN_POINT('',(0.,14.7990649100119,3.61061979938299));
#1356=CARTESIAN_POINT('Origin',(0.,14.7990649100119,0.0380345380401625));
#1357=CARTESIAN_POINT('Origin',(0.,22.7990649100119,3.61061979938299));
#1358=CARTESIAN_POINT('',(-6.59443966917857,0.,3.61061979938299));
#1359=CARTESIAN_POINT('',(-10.,22.7990649100119,3.61061979938299));
#1360=CARTESIAN_POINT('Origin',(0.,22.7990649100119,3.61061979938299));
#1361=CARTESIAN_POINT('',(6.59443966917857,22.7990649100119,3.61061979938299));
#1362=CARTESIAN_POINT('',(6.59443966917857,0.,3.61061979938299));
#1363=CARTESIAN_POINT('',(10.,22.7990649100119,3.61061979938299));
#1364=CARTESIAN_POINT('',(10.,22.7990649100119,3.61061979938299));
#1365=CARTESIAN_POINT('',(0.,22.7990649100119,3.61061979938299));
#1366=CARTESIAN_POINT('Origin',(0.,22.7990649100119,3.61061979938299));
#1367=CARTESIAN_POINT('',(1.88919286053679,15.,3.61061979938299));
#1368=CARTESIAN_POINT('',(1.88919286053679,14.7990649100119,3.61061979938299));
#1369=CARTESIAN_POINT('',(1.88919286053679,0.,3.61061979938299));
#1370=CARTESIAN_POINT('',(0.,15.,3.61061979938299));
#1371=CARTESIAN_POINT('',(0.,15.,3.61061979938299));
#1372=CARTESIAN_POINT('',(-1.88919286053681,15.,3.61061979938299));
#1373=CARTESIAN_POINT('',(0.,15.,3.61061979938299));
#1374=CARTESIAN_POINT('',(-1.88919286053681,14.7990649100119,3.61061979938299));
#1375=CARTESIAN_POINT('',(-1.88919286053681,0.,3.61061979938299));
#1376=CARTESIAN_POINT('',(0.,14.7990649100119,3.61061979938299));
#1377=CARTESIAN_POINT('Origin',(0.,14.7990649100119,-3.53455072330267));
#1378=CARTESIAN_POINT('',(-6.59443966917857,0.,-3.53455072330267));
#1379=CARTESIAN_POINT('',(-10.,14.7990649100119,-3.53455072330267));
#1380=CARTESIAN_POINT('Origin',(0.,14.7990649100119,-3.53455072330267));
#1381=CARTESIAN_POINT('',(2.02794876276504,14.7990649100119,-3.53455072330267));
#1382=CARTESIAN_POINT('',(2.02794876276504,15.,-3.53455072330267));
#1383=CARTESIAN_POINT('',(2.02794876276504,0.,-3.53455072330267));
#1384=CARTESIAN_POINT('',(-2.02794876276503,14.7990649100119,-3.53455072330267));
#1385=CARTESIAN_POINT('',(0.,14.7990649100119,-3.53455072330267));
#1386=CARTESIAN_POINT('',(-2.02794876276503,15.,-3.53455072330267));
#1387=CARTESIAN_POINT('',(-2.02794876276503,0.,-3.53455072330267));
#1388=CARTESIAN_POINT('',(0.,15.,-3.53455072330267));
#1389=CARTESIAN_POINT('',(0.,15.,-3.53455072330267));
#1390=CARTESIAN_POINT('',(0.,15.,-3.53455072330267));
#1391=CARTESIAN_POINT('Origin',(0.,14.7990649100119,-3.53455072330267));
#1392=CARTESIAN_POINT('',(6.59443966917857,22.7990649100119,-3.53455072330267));
#1393=CARTESIAN_POINT('',(6.59443966917857,0.,-3.53455072330267));
#1394=CARTESIAN_POINT('',(10.,22.7990649100119,-3.53455072330266));
#1395=CARTESIAN_POINT('',(0.,22.7990649100119,-3.53455072330266));
#1396=CARTESIAN_POINT('',(10.,14.7990649100119,-3.53455072330267));
#1397=CARTESIAN_POINT('Origin',(-10.,19.9007510578535,0.0380345380401589));
#1398=CARTESIAN_POINT('Origin',(0.,14.7990649100119,3.61061979938299));
#1399=CARTESIAN_POINT('',(3.50409806053731,14.7990649100119,2.08012542461706));
#1400=CARTESIAN_POINT('Origin',(-8.88178419700125E-15,14.7990649100119,
-1.33226762955019E-14));
#1401=CARTESIAN_POINT('',(-3.94543270132936,14.7990649100119,1.01940462981132));
#1402=CARTESIAN_POINT('Origin',(-8.88178419700125E-15,14.7990649100119,
-1.33226762955019E-14));
#1403=CARTESIAN_POINT('',(-2.60681347340836,14.7990649100119,1.21000740692192));
#1404=CARTESIAN_POINT('',(-1.83110427511595,14.7990649100119,1.32045877676695));
#1405=CARTESIAN_POINT('',(-2.16547883261633,14.7990649100119,-1.88952264750646));
#1406=CARTESIAN_POINT('',(-2.74842554895708,14.7990649100119,2.20456084475213));
#1407=CARTESIAN_POINT('',(-3.50409806053732,14.7990649100119,-2.08012542461705));
#1408=CARTESIAN_POINT('',(-0.720460020363433,14.7990649100119,-1.68376988910614));
#1409=CARTESIAN_POINT('Origin',(4.44089209850063E-15,14.7990649100119,1.77635683940025E-14));
#1410=CARTESIAN_POINT('',(3.94543270132935,14.7990649100119,-1.01940462981132));
#1411=CARTESIAN_POINT('Origin',(4.44089209850063E-15,14.7990649100119,1.77635683940025E-14));
#1412=CARTESIAN_POINT('',(2.60681347340836,14.7990649100119,-1.21000740692193));
#1413=CARTESIAN_POINT('',(2.33499574660944,14.7990649100119,-1.24871088025858));
#1414=CARTESIAN_POINT('',(2.16547883261633,14.7990649100119,1.88952264750644));
#1415=CARTESIAN_POINT('',(2.24453407746361,14.7990649100119,1.33431105812248));
#1416=CARTESIAN_POINT('',(1.22435149185691,14.7990649100119,1.75551778561448));
#1417=CARTESIAN_POINT('Origin',(10.,19.9007510578535,0.0380345380401589));
#1418=CARTESIAN_POINT('Origin',(10.,21.,0.0380345380401581));
#1419=CARTESIAN_POINT('Origin',(2.16547883261633,0.,1.88952264750644));
#1420=CARTESIAN_POINT('',(2.16547883261633,0.,1.88952264750644));
#1421=CARTESIAN_POINT('',(2.16547883261633,0.,1.88952264750644));
#1422=CARTESIAN_POINT('',(3.50409806053731,0.,2.08012542461706));
#1423=CARTESIAN_POINT('',(2.16547883261633,0.,1.88952264750644));
#1424=CARTESIAN_POINT('',(3.50409806053731,0.,2.08012542461706));
#1425=CARTESIAN_POINT('Origin',(2.60681347340836,0.,-1.21000740692193));
#1426=CARTESIAN_POINT('',(2.60681347340836,0.,-1.21000740692193));
#1427=CARTESIAN_POINT('',(2.60681347340836,0.,-1.21000740692193));
#1428=CARTESIAN_POINT('',(2.60681347340836,0.,-1.21000740692193));
#1429=CARTESIAN_POINT('Origin',(3.94543270132935,0.,-1.01940462981132));
#1430=CARTESIAN_POINT('',(3.94543270132935,0.,-1.01940462981132));
#1431=CARTESIAN_POINT('',(3.94543270132935,0.,-1.01940462981132));
#1432=CARTESIAN_POINT('',(3.94543270132935,0.,-1.01940462981132));
#1433=CARTESIAN_POINT('Origin',(5.,20.,0.));
#1434=CARTESIAN_POINT('',(5.,20.,-4.94409006024633));
#1435=CARTESIAN_POINT('',(5.,20.,-1.46196546195984));
#1436=CARTESIAN_POINT('',(5.,20.,0.));
#1437=CARTESIAN_POINT('',(5.,20.,1.53803453804016));
#1438=CARTESIAN_POINT('Origin',(5.,20.,0.038034538040162));
#1439=CARTESIAN_POINT('',(5.,20.,5.02015913632665));
#1440=CARTESIAN_POINT('',(5.,20.,0.));
#1441=CARTESIAN_POINT('',(5.,22.7990649100119,3.61061979938299));
#1442=CARTESIAN_POINT('',(5.,18.5083166557224,5.7713336962671));
#1443=CARTESIAN_POINT('',(5.,22.7990649100119,-3.53455072330267));
#1444=CARTESIAN_POINT('Origin',(5.,21.,0.0380345380401625));
#1445=CARTESIAN_POINT('',(5.,22.3925703686976,-3.73925124460386));
#1446=CARTESIAN_POINT('Origin',(4.44089209850063E-15,0.,1.77635683940025E-14));
#1447=CARTESIAN_POINT('',(0.,15.,-4.07499999999995));
#1448=CARTESIAN_POINT('Origin',(4.44089209850063E-15,15.,1.77635683940025E-14));
#1449=CARTESIAN_POINT('Origin',(4.44089209850063E-15,15.,1.77635683940025E-14));
#1450=CARTESIAN_POINT('',(-3.50409806053732,0.,-2.08012542461705));
#1451=CARTESIAN_POINT('',(-3.50409806053732,0.,-2.08012542461705));
#1452=CARTESIAN_POINT('Origin',(4.44089209850063E-15,0.,1.77635683940025E-14));
#1453=CARTESIAN_POINT('Origin',(0.,20.,0.));
#1454=CARTESIAN_POINT('',(4.76969600708473,18.5,0.0380345380401618));
#1455=CARTESIAN_POINT('Ctrl Pts',(5.,20.,1.53803453804016));
#1456=CARTESIAN_POINT('Ctrl Pts',(5.,19.810417867354,1.53803453804016));
#1457=CARTESIAN_POINT('Ctrl Pts',(4.98815066693916,19.6089811412591,1.4999086612955));
#1458=CARTESIAN_POINT('Ctrl Pts',(4.9453559749504,19.2397387904969,1.34645899155665));
#1459=CARTESIAN_POINT('Ctrl Pts',(4.91496781307491,19.0718428276415,1.23119770924126));
#1460=CARTESIAN_POINT('Ctrl Pts',(4.85743375864508,18.8067973436927,0.966152225292492));
#1461=CARTESIAN_POINT('Ctrl Pts',(4.82642478051604,18.6915666369212,0.798272306898235));
#1462=CARTESIAN_POINT('Ctrl Pts',(4.78218969528744,18.5381395419504,0.429088280754281));
#1463=CARTESIAN_POINT('Ctrl Pts',(4.76969600708473,18.5,0.227673165034787));
#1464=CARTESIAN_POINT('Ctrl Pts',(4.76969600708473,18.5,0.0380345380401617));
#1465=CARTESIAN_POINT('Ctrl Pts',(4.76969600708473,18.5,0.0380345380401619));
#1466=CARTESIAN_POINT('Ctrl Pts',(4.76969600708473,18.5,-0.151604088954463));
#1467=CARTESIAN_POINT('Ctrl Pts',(4.78218969528744,18.5381395419504,-0.353019204673958));
#1468=CARTESIAN_POINT('Ctrl Pts',(4.82642478051604,18.6915666369212,-0.722203230817911));
#1469=CARTESIAN_POINT('Ctrl Pts',(4.85743375864508,18.8067973436927,-0.890083149212168));
#1470=CARTESIAN_POINT('Ctrl Pts',(4.91496781307491,19.0718428276415,-1.15512863316094));
#1471=CARTESIAN_POINT('Ctrl Pts',(4.9453559749504,19.2397387904969,-1.27038991547632));
#1472=CARTESIAN_POINT('Ctrl Pts',(4.98815066693916,19.6089811412591,-1.42383958521518));
#1473=CARTESIAN_POINT('Ctrl Pts',(5.,19.810417867354,-1.46196546195984));
#1474=CARTESIAN_POINT('Ctrl Pts',(5.,20.,-1.46196546195984));
#1475=CARTESIAN_POINT('',(4.69393552621363,18.2775107327621,-5.81149273138509));
#1476=CARTESIAN_POINT('Origin',(0.,20.,-4.94409006024633));
#1477=CARTESIAN_POINT('',(4.69393552621363,18.2775107327621,5.88756180746541));
#1478=CARTESIAN_POINT('',(4.69393552621363,18.2775107327621,0.));
#1479=CARTESIAN_POINT('Origin',(0.,20.,5.02015913632665));
#1480=CARTESIAN_POINT('Origin',(0.,15.,0.0380345380401625));
#1481=CARTESIAN_POINT('',(0.,15.,0.));
#1482=CARTESIAN_POINT('Origin',(-5.,25.,0.));
#1483=CARTESIAN_POINT('',(-5.,20.,1.53803453804016));
#1484=CARTESIAN_POINT('',(-5.,20.,5.02015913632665));
#1485=CARTESIAN_POINT('',(-5.,20.,0.));
#1486=CARTESIAN_POINT('',(-5.,20.,-1.46196546195984));
#1487=CARTESIAN_POINT('Origin',(-5.,20.,0.038034538040162));
#1488=CARTESIAN_POINT('',(-5.,20.,-4.94409006024633));
#1489=CARTESIAN_POINT('',(-5.,20.,0.));
#1490=CARTESIAN_POINT('',(-5.,24.386846220192,-2.73498362246207));
#1491=CARTESIAN_POINT('',(-5.,20.5025925072168,4.76706607412531));
#1492=CARTESIAN_POINT('Origin',(0.,15.,0.0380345380401625));
#1493=CARTESIAN_POINT('',(0.,15.,0.));
#1494=CARTESIAN_POINT('Origin',(0.,15.,0.0380345380401625));
#1495=CARTESIAN_POINT('',(1.36571611234239E-16,15.,4.07499999999996));
#1496=CARTESIAN_POINT('',(0.,15.,0.));
#1497=CARTESIAN_POINT('Origin',(-8.88178419700125E-15,15.,-1.33226762955019E-14));
#1498=CARTESIAN_POINT('Origin',(0.,0.,0.0380345380401625));
#1499=CARTESIAN_POINT('',(-7.34846922834953,20.,-1.46196546195984));
#1500=CARTESIAN_POINT('',(-7.5,18.5,0.0380345380401618));
#1501=CARTESIAN_POINT('Ctrl Pts',(-7.34846922834953,20.,-1.46196546195984));
#1502=CARTESIAN_POINT('Ctrl Pts',(-7.34846922834953,20.1888976279451,-1.46196546195984));
#1503=CARTESIAN_POINT('Ctrl Pts',(-7.3565081492767,20.3900266657428,-1.42410965633276));
#1504=CARTESIAN_POINT('Ctrl Pts',(-7.38531226189156,20.7594380075451,-1.27087358843241));
#1505=CARTESIAN_POINT('Ctrl Pts',(-7.40563627652899,20.9277656902715,-1.15552011524797));
#1506=CARTESIAN_POINT('Ctrl Pts',(-7.44360506457477,21.193547206592,-0.889738598927479));
#1507=CARTESIAN_POINT('Ctrl Pts',(-7.46375020727795,21.3089065123171,-0.721407753756279));
#1508=CARTESIAN_POINT('Ctrl Pts',(-7.49214282970622,21.4621468133538,-0.351985421082637));
#1509=CARTESIAN_POINT('Ctrl Pts',(-7.5,21.5,-0.150852505091937));
#1510=CARTESIAN_POINT('Ctrl Pts',(-7.5,21.5,0.226921581172262));
#1511=CARTESIAN_POINT('Ctrl Pts',(-7.49214282970622,21.4621468133538,0.428054497162961));
#1512=CARTESIAN_POINT('Ctrl Pts',(-7.46375020727795,21.3089065123171,0.797476829836603));
#1513=CARTESIAN_POINT('Ctrl Pts',(-7.44360506457477,21.193547206592,0.965807675007803));
#1514=CARTESIAN_POINT('Ctrl Pts',(-7.40563627652899,20.9277656902715,1.23158919132829));
#1515=CARTESIAN_POINT('Ctrl Pts',(-7.38531226189156,20.7594380075451,1.34694266451274));
#1516=CARTESIAN_POINT('Ctrl Pts',(-7.3565081492767,20.3900266657428,1.50017873241308));
#1517=CARTESIAN_POINT('Ctrl Pts',(-7.34846922834953,20.1888976279451,1.53803453804016));
#1518=CARTESIAN_POINT('Ctrl Pts',(-7.34846922834953,19.8111023720549,1.53803453804016));
#1519=CARTESIAN_POINT('Ctrl Pts',(-7.3565081492767,19.6099733342572,1.50017873241308));
#1520=CARTESIAN_POINT('Ctrl Pts',(-7.38531226189156,19.2405619924549,1.34694266451274));
#1521=CARTESIAN_POINT('Ctrl Pts',(-7.40563627652899,19.0722343097285,1.2315891913283));
#1522=CARTESIAN_POINT('Ctrl Pts',(-7.44360506457477,18.806452793408,0.965807675007803));
#1523=CARTESIAN_POINT('Ctrl Pts',(-7.46375020727795,18.6910934876829,0.797476829836601));
#1524=CARTESIAN_POINT('Ctrl Pts',(-7.49214282970622,18.5378531866463,0.42805449716296));
#1525=CARTESIAN_POINT('Ctrl Pts',(-7.5,18.5,0.226921581172262));
#1526=CARTESIAN_POINT('Ctrl Pts',(-7.5,18.5,0.0380345380401621));
#1527=CARTESIAN_POINT('Ctrl Pts',(-7.5,18.5,0.0380345380401621));
#1528=CARTESIAN_POINT('Ctrl Pts',(-7.5,18.5,-0.150852505091937));
#1529=CARTESIAN_POINT('Ctrl Pts',(-7.49214282970622,18.5378531866463,-0.351985421082635));
#1530=CARTESIAN_POINT('Ctrl Pts',(-7.46375020727795,18.6910934876829,-0.721407753756277));
#1531=CARTESIAN_POINT('Ctrl Pts',(-7.44360506457477,18.806452793408,-0.889738598927479));
#1532=CARTESIAN_POINT('Ctrl Pts',(-7.40563627652899,19.0722343097285,-1.15552011524797));
#1533=CARTESIAN_POINT('Ctrl Pts',(-7.38531226189156,19.2405619924549,-1.27087358843241));
#1534=CARTESIAN_POINT('Ctrl Pts',(-7.3565081492767,19.6099733342572,-1.42410965633276));
#1535=CARTESIAN_POINT('Ctrl Pts',(-7.34846922834953,19.8111023720549,-1.46196546195984));
#1536=CARTESIAN_POINT('Ctrl Pts',(-7.34846922834953,20.,-1.46196546195984));
#1537=CARTESIAN_POINT('Origin',(0.,0.,0.0380345380401625));
#1538=CARTESIAN_POINT('',(7.34846922834953,20.,-1.46196546195984));
#1539=CARTESIAN_POINT('',(7.5,18.5,0.0380345380401618));
#1540=CARTESIAN_POINT('Ctrl Pts',(7.34846922834953,20.,-1.46196546195984));
#1541=CARTESIAN_POINT('Ctrl Pts',(7.34846922834953,19.8111023720549,-1.46196546195984));
#1542=CARTESIAN_POINT('Ctrl Pts',(7.3565081492767,19.6099733342572,-1.42410965633276));
#1543=CARTESIAN_POINT('Ctrl Pts',(7.38531226189156,19.2405619924549,-1.27087358843241));
#1544=CARTESIAN_POINT('Ctrl Pts',(7.40563627652899,19.0722343097285,-1.15552011524797));
#1545=CARTESIAN_POINT('Ctrl Pts',(7.44360506457477,18.806452793408,-0.889738598927479));
#1546=CARTESIAN_POINT('Ctrl Pts',(7.46375020727795,18.6910934876829,-0.721407753756277));
#1547=CARTESIAN_POINT('Ctrl Pts',(7.49214282970622,18.5378531866463,-0.351985421082635));
#1548=CARTESIAN_POINT('Ctrl Pts',(7.5,18.5,-0.150852505091937));
#1549=CARTESIAN_POINT('Ctrl Pts',(7.5,18.5,0.038034538040162));
#1550=CARTESIAN_POINT('Ctrl Pts',(7.5,18.5,0.0380345380401622));
#1551=CARTESIAN_POINT('Ctrl Pts',(7.5,18.5,0.226921581172262));
#1552=CARTESIAN_POINT('Ctrl Pts',(7.49214282970622,18.5378531866463,0.428054497162959));
#1553=CARTESIAN_POINT('Ctrl Pts',(7.46375020727795,18.6910934876829,0.797476829836601));
#1554=CARTESIAN_POINT('Ctrl Pts',(7.44360506457477,18.806452793408,0.965807675007803));
#1555=CARTESIAN_POINT('Ctrl Pts',(7.40563627652899,19.0722343097285,1.2315891913283));
#1556=CARTESIAN_POINT('Ctrl Pts',(7.38531226189156,19.2405619924549,1.34694266451274));
#1557=CARTESIAN_POINT('Ctrl Pts',(7.3565081492767,19.6099733342572,1.50017873241308));
#1558=CARTESIAN_POINT('Ctrl Pts',(7.34846922834953,19.8111023720549,1.53803453804016));
#1559=CARTESIAN_POINT('Ctrl Pts',(7.34846922834953,20.1888976279451,1.53803453804016));
#1560=CARTESIAN_POINT('Ctrl Pts',(7.3565081492767,20.3900266657428,1.50017873241308));
#1561=CARTESIAN_POINT('Ctrl Pts',(7.38531226189156,20.7594380075451,1.34694266451274));
#1562=CARTESIAN_POINT('Ctrl Pts',(7.40563627652899,20.9277656902715,1.23158919132829));
#1563=CARTESIAN_POINT('Ctrl Pts',(7.44360506457477,21.193547206592,0.965807675007803));
#1564=CARTESIAN_POINT('Ctrl Pts',(7.46375020727795,21.3089065123171,0.797476829836603));
#1565=CARTESIAN_POINT('Ctrl Pts',(7.49214282970622,21.4621468133538,0.428054497162961));
#1566=CARTESIAN_POINT('Ctrl Pts',(7.5,21.5,0.226921581172262));
#1567=CARTESIAN_POINT('Ctrl Pts',(7.5,21.5,-0.150852505091937));
#1568=CARTESIAN_POINT('Ctrl Pts',(7.49214282970622,21.4621468133538,-0.351985421082637));
#1569=CARTESIAN_POINT('Ctrl Pts',(7.46375020727795,21.3089065123171,-0.721407753756279));
#1570=CARTESIAN_POINT('Ctrl Pts',(7.44360506457477,21.193547206592,-0.889738598927479));
#1571=CARTESIAN_POINT('Ctrl Pts',(7.40563627652899,20.9277656902715,-1.15552011524797));
#1572=CARTESIAN_POINT('Ctrl Pts',(7.38531226189156,20.7594380075451,-1.27087358843241));
#1573=CARTESIAN_POINT('Ctrl Pts',(7.3565081492767,20.3900266657428,-1.42410965633276));
#1574=CARTESIAN_POINT('Ctrl Pts',(7.34846922834953,20.1888976279451,-1.46196546195984));
#1575=CARTESIAN_POINT('Ctrl Pts',(7.34846922834953,20.,-1.46196546195984));
#1576=CARTESIAN_POINT('Origin',(0.,20.,0.038034538040162));
#1577=CARTESIAN_POINT('',(-4.76969600708473,18.5,0.0380345380401618));
#1578=CARTESIAN_POINT('',(0.,18.5,0.0380345380401618));
#1579=CARTESIAN_POINT('Ctrl Pts',(-5.,20.,-1.46196546195984));
#1580=CARTESIAN_POINT('Ctrl Pts',(-5.,19.810417867354,-1.46196546195984));
#1581=CARTESIAN_POINT('Ctrl Pts',(-4.98815066693916,19.6089811412591,-1.42383958521518));
#1582=CARTESIAN_POINT('Ctrl Pts',(-4.9453559749504,19.2397387904969,-1.27038991547632));
#1583=CARTESIAN_POINT('Ctrl Pts',(-4.91496781307491,19.0718428276415,-1.15512863316094));
#1584=CARTESIAN_POINT('Ctrl Pts',(-4.85743375864508,18.8067973436927,-0.890083149212168));
#1585=CARTESIAN_POINT('Ctrl Pts',(-4.82642478051604,18.6915666369212,-0.722203230817911));
#1586=CARTESIAN_POINT('Ctrl Pts',(-4.78218969528744,18.5381395419504,-0.353019204673958));
#1587=CARTESIAN_POINT('Ctrl Pts',(-4.76969600708473,18.5,-0.151604088954463));
#1588=CARTESIAN_POINT('Ctrl Pts',(-4.76969600708473,18.5,0.0380345380401621));
#1589=CARTESIAN_POINT('Ctrl Pts',(-4.76969600708473,18.5,0.0380345380401621));
#1590=CARTESIAN_POINT('Ctrl Pts',(-4.76969600708473,18.5,0.227673165034787));
#1591=CARTESIAN_POINT('Ctrl Pts',(-4.78218969528744,18.5381395419504,0.429088280754281));
#1592=CARTESIAN_POINT('Ctrl Pts',(-4.82642478051604,18.6915666369212,0.798272306898235));
#1593=CARTESIAN_POINT('Ctrl Pts',(-4.85743375864508,18.8067973436927,0.966152225292492));
#1594=CARTESIAN_POINT('Ctrl Pts',(-4.91496781307491,19.0718428276415,1.23119770924126));
#1595=CARTESIAN_POINT('Ctrl Pts',(-4.9453559749504,19.2397387904969,1.34645899155665));
#1596=CARTESIAN_POINT('Ctrl Pts',(-4.98815066693916,19.6089811412591,1.4999086612955));
#1597=CARTESIAN_POINT('Ctrl Pts',(-5.,19.810417867354,1.53803453804016));
#1598=CARTESIAN_POINT('Ctrl Pts',(-5.,20.,1.53803453804016));
#1599=CARTESIAN_POINT('Origin',(0.,20.,0.038034538040162));
#1600=CARTESIAN_POINT('',(0.,18.5,0.0380345380401618));
#1601=CARTESIAN_POINT('Ctrl Pts',(-4.6939355262136,18.2775107327621,-7.59185482586315));
#1602=CARTESIAN_POINT('Ctrl Pts',(0.,10.7977235828613,-7.59185482586315));
#1603=CARTESIAN_POINT('Ctrl Pts',(4.69393552621363,18.2775107327621,-7.59185482586315));
#1604=CARTESIAN_POINT('Ctrl Pts',(-4.6939355262136,18.2775107327621,7.66792390194364));
#1605=CARTESIAN_POINT('Ctrl Pts',(0.,10.7977235828613,7.66792390194364));
#1606=CARTESIAN_POINT('Ctrl Pts',(4.69393552621363,18.2775107327621,7.66792390194364));
#1607=CARTESIAN_POINT('',(-4.6939355262136,18.2775107327621,-5.81149273138511));
#1608=CARTESIAN_POINT('Origin',(0.,29.8935090173564,0.0380345380401625));
#1609=CARTESIAN_POINT('',(-4.6939355262136,18.2775107327621,5.88756180746543));
#1610=CARTESIAN_POINT('',(-4.6939355262136,18.2775107327621,0.));
#1611=CARTESIAN_POINT('Origin',(0.,29.8935090173564,0.0380345380401625));
#1612=CARTESIAN_POINT('',(0.,15.,0.));
#1613=CARTESIAN_POINT('Origin',(0.,20.,0.));
#1614=CARTESIAN_POINT('Origin',(0.,20.,5.02015913632665));
#1615=CARTESIAN_POINT('Origin',(0.,20.,-4.94409006024633));
#1616=CARTESIAN_POINT('Origin',(0.,22.7990649100119,-3.53455072330267));
#1617=CARTESIAN_POINT('',(0.,22.7990649100119,-3.53455072330267));
#1618=CARTESIAN_POINT('Origin',(0.,29.8935090173564,0.0380345380401625));
#1619=CARTESIAN_POINT('Origin',(0.,21.,0.0380345380401625));
#1620=CARTESIAN_POINT('',(0.,22.7990649100119,3.61061979938299));
#1621=CARTESIAN_POINT('Origin',(0.,15.,7.53803453804016));
#1622=CARTESIAN_POINT('Origin',(0.,29.8935090173564,0.0380345380401625));
#1623=CARTESIAN_POINT('Origin',(0.,15.,0.0380345380401625));
#1624=CARTESIAN_POINT('Origin',(-8.88178419700125E-15,15.,-1.33226762955019E-14));
#1625=CARTESIAN_POINT('Origin',(0.,22.7990649100119,-3.53455072330267));
#1626=CARTESIAN_POINT('Origin',(0.,29.8935090173564,0.0380345380401625));
#1627=CARTESIAN_POINT('Origin',(0.,15.,7.53803453804016));
#1628=CARTESIAN_POINT('Origin',(0.,29.8935090173564,0.0380345380401625));
#1629=CARTESIAN_POINT('Origin',(-8.88178419700125E-15,0.,-1.33226762955019E-14));
#1630=CARTESIAN_POINT('',(-3.94543270132936,0.,1.01940462981132));
#1631=CARTESIAN_POINT('Origin',(-8.88178419700125E-15,0.,-1.33226762955019E-14));
#1632=CARTESIAN_POINT('',(-3.94543270132936,0.,1.01940462981132));
#1633=CARTESIAN_POINT('Origin',(-2.16547883261633,0.,-1.88952264750646));
#1634=CARTESIAN_POINT('',(-2.16547883261633,0.,-1.88952264750646));
#1635=CARTESIAN_POINT('',(-2.16547883261633,0.,-1.88952264750646));
#1636=CARTESIAN_POINT('',(-2.16547883261633,0.,-1.88952264750646));
#1637=CARTESIAN_POINT('Origin',(-2.60681347340836,0.,1.21000740692192));
#1638=CARTESIAN_POINT('',(-2.60681347340836,0.,1.21000740692192));
#1639=CARTESIAN_POINT('',(-2.60681347340836,0.,1.21000740692192));
#1640=CARTESIAN_POINT('',(-2.60681347340836,0.,1.21000740692192));
#1641=CARTESIAN_POINT('Origin',(-3.94543270132936,0.,1.01940462981132));
#1642=CARTESIAN_POINT('',(-3.94543270132936,0.,1.01940462981132));
#1643=CARTESIAN_POINT('Origin',(0.,0.,0.0380345380401625));
#1644=CARTESIAN_POINT('',(7.5,0.,0.0380345380401616));
#1645=CARTESIAN_POINT('',(7.5,0.,0.0380345380401616));
#1646=CARTESIAN_POINT('Origin',(0.,0.,0.0380345380401625));
#1647=CARTESIAN_POINT('Origin',(0.,0.,0.));
#1648=UNCERTAINTY_MEASURE_WITH_UNIT(LENGTH_MEASURE(0.01),#1652,
'DISTANCE_ACCURACY_VALUE',
'Maximum model space distance between geometric entities at asserted c
onnectivities');
#1649=UNCERTAINTY_MEASURE_WITH_UNIT(LENGTH_MEASURE(0.01),#1652,
'DISTANCE_ACCURACY_VALUE',
'Maximum model space distance between geometric entities at asserted c
onnectivities');
#1650=(
GEOMETRIC_REPRESENTATION_CONTEXT(3)
GLOBAL_UNCERTAINTY_ASSIGNED_CONTEXT((#1648))
GLOBAL_UNIT_ASSIGNED_CONTEXT((#1652,#1654,#1655))
REPRESENTATION_CONTEXT('','3D')
);
#1651=(
GEOMETRIC_REPRESENTATION_CONTEXT(3)
GLOBAL_UNCERTAINTY_ASSIGNED_CONTEXT((#1649))
GLOBAL_UNIT_ASSIGNED_CONTEXT((#1652,#1654,#1655))
REPRESENTATION_CONTEXT('','3D')
);
#1652=(
LENGTH_UNIT()
NAMED_UNIT(*)
SI_UNIT(.MILLI.,.METRE.)
);
#1653=(
LENGTH_UNIT()
NAMED_UNIT(*)
SI_UNIT(.CENTI.,.METRE.)
);
#1654=(
NAMED_UNIT(*)
PLANE_ANGLE_UNIT()
SI_UNIT($,.RADIAN.)
);
#1655=(
NAMED_UNIT(*)
SI_UNIT($,.STERADIAN.)
SOLID_ANGLE_UNIT()
);
#1656=SHAPE_DEFINITION_REPRESENTATION(#1657,#1658);
#1657=PRODUCT_DEFINITION_SHAPE('',$,#1660);
#1658=SHAPE_REPRESENTATION('',(#940),#1650);
#1659=PRODUCT_DEFINITION_CONTEXT('part definition',#1664,'design');
#1660=PRODUCT_DEFINITION('Base_joint','Base_joint',#1661,#1659);
#1661=PRODUCT_DEFINITION_FORMATION('',$,#1666);
#1662=PRODUCT_RELATED_PRODUCT_CATEGORY('Base_joint','Base_joint',(#1666));
#1663=APPLICATION_PROTOCOL_DEFINITION('international standard',
'automotive_design',2009,#1664);
#1664=APPLICATION_CONTEXT(
'Core Data for Automotive Mechanical Design Process');
#1665=PRODUCT_CONTEXT('part definition',#1664,'mechanical');
#1666=PRODUCT('Base_joint','Base_joint',$,(#1665));
#1667=PRESENTATION_STYLE_ASSIGNMENT((#1668));
#1668=SURFACE_STYLE_USAGE(.BOTH.,#1671);
#1669=SURFACE_STYLE_RENDERING_WITH_PROPERTIES($,#1675,(#1670));
#1670=SURFACE_STYLE_TRANSPARENT(0.);
#1671=SURFACE_SIDE_STYLE('',(#1672,#1669));
#1672=SURFACE_STYLE_FILL_AREA(#1673);
#1673=FILL_AREA_STYLE('',(#1674));
#1674=FILL_AREA_STYLE_COLOUR('',#1675);
#1675=COLOUR_RGB('',0.749019607843137,0.749019607843137,0.749019607843137);
ENDSEC;
END-ISO-10303-21;
