ISO-10303-21;
HEADER;
/* Generated by software containing ST-Developer
 * from STEP Tools, Inc. (www.steptools.com) 
 */

FILE_DESCRIPTION(
/* description */ (''),
/* implementation_level */ '2;1');

FILE_NAME(
/* name */ 'MiddleJointCylinder.stp',
/* time_stamp */ '2026-06-25T23:26:39+02:00',
/* author */ ('frede'),
/* organization */ (''),
/* preprocessor_version */ 'ST-DEVELOPER v20.1',
/* originating_system */ 'Autodesk Inventor 2026',
/* authorisation */ '');

FILE_SCHEMA (('AUTOMOTIVE_DESIGN { 1 0 10303 214 3 1 1 }'));
ENDSEC;

DATA;
#10=MECHANICAL_DESIGN_GEOMETRIC_PRESENTATION_REPRESENTATION('',(#13),#794);
#11=SHAPE_REPRESENTATION_RELATIONSHIP('SRR','None',#801,#12);
#12=ADVANCED_BREP_SHAPE_REPRESENTATION('',(#14),#793);
#13=STYLED_ITEM('',(#810),#14);
#14=MANIFOLD_SOLID_BREP('Solid1',#315);
#15=TOROIDAL_SURFACE('',#357,2.925,2.);
#16=TOROIDAL_SURFACE('',#365,2.925,2.);
#17=B_SPLINE_CURVE_WITH_KNOTS('',3,(#483,#484,#485,#486),.UNSPECIFIED.,
 .F.,.F.,(4,4),(0.405952808690732,0.455162745706684),.UNSPECIFIED.);
#18=B_SPLINE_CURVE_WITH_KNOTS('',3,(#488,#489,#490,#491,#492,#493,#494,
#495,#496,#497,#498,#499,#500,#501,#502,#503,#504,#505,#506,#507,#508,#509,
#510,#511),.UNSPECIFIED.,.F.,.F.,(4,2,2,2,2,2,2,2,2,2,2,4),(-0.370809108153882,
-0.338858136108229,-0.30309299032054,-0.242985179467368,-0.211722510293422,
-0.195956745423267,-0.184359532106548,-0.172366306756838,-0.154706802290173,
-0.1130268146705,-0.0560802682029958,-8.78539888567176E-6),
 .UNSPECIFIED.);
#19=B_SPLINE_CURVE_WITH_KNOTS('',3,(#513,#514,#515,#516,#517,#518,#519),
 .UNSPECIFIED.,.F.,.F.,(4,3,4),(-0.0492099369210854,0.,0.0492099370159517),
 .UNSPECIFIED.);
#20=B_SPLINE_CURVE_WITH_KNOTS('',3,(#521,#522,#523,#524,#525,#526,#527,
#528,#529,#530,#531,#532,#533,#534,#535,#536,#537,#538,#539,#540,#541,#542,
#543,#544),.UNSPECIFIED.,.F.,.F.,(4,2,2,2,2,2,2,2,2,2,2,4),(-0.370809108154705,
-0.338858136109436,-0.303092990321141,-0.242985179467989,-0.21172251029417,
-0.195956745424051,-0.184359532107324,-0.172366306757571,-0.154706802290766,
-0.113026814670549,-0.0560802682029551,-8.78539976551657E-6),
 .UNSPECIFIED.);
#21=B_SPLINE_CURVE_WITH_KNOTS('',3,(#545,#546,#547,#548),.UNSPECIFIED.,
 .F.,.F.,(4,4),(0.455162745706684,0.504372682722636),.UNSPECIFIED.);
#22=B_SPLINE_CURVE_WITH_KNOTS('',3,(#552,#553,#554,#555,#556,#557,#558,
#559,#560,#561,#562,#563,#564,#565),.UNSPECIFIED.,.F.,.F.,(4,2,2,2,2,2,
4),(-0.370809108154761,-0.338858136109485,-0.303092990321181,-0.242985179468012,
-0.211722510294185,-0.19595674542406,-0.185506305724175),.UNSPECIFIED.);
#23=B_SPLINE_CURVE_WITH_KNOTS('',3,(#567,#568,#569,#570,#571,#572,#573),
 .UNSPECIFIED.,.F.,.F.,(4,3,4),(-0.0492099369210852,0.,0.0492099370159518),
 .UNSPECIFIED.);
#24=B_SPLINE_CURVE_WITH_KNOTS('',3,(#575,#576,#577,#578,#579,#580,#581,
#582,#583,#584,#585,#586,#587,#588),.UNSPECIFIED.,.F.,.F.,(4,2,2,2,2,2,
4),(-0.18550630572328,-0.184359532106537,-0.17236630675683,-0.154706802290169,
-0.113026814670495,-0.0560802682029942,-8.78539888562319E-6),
 .UNSPECIFIED.);
#25=B_SPLINE_CURVE_WITH_KNOTS('',3,(#590,#591,#592,#593,#594,#595,#596,
#597,#598,#599,#600,#601,#602,#603),.UNSPECIFIED.,.F.,.F.,(4,2,2,2,2,2,
4),(-0.370809108153715,-0.33885813610809,-0.303092990320442,-0.242985179467315,
-0.211722510293391,-0.195956745423251,-0.18550630572328),.UNSPECIFIED.);
#26=B_SPLINE_CURVE_WITH_KNOTS('',3,(#605,#606,#607,#608),.UNSPECIFIED.,
 .F.,.F.,(4,4),(0.455162745706684,0.504372682722636),.UNSPECIFIED.);
#27=B_SPLINE_CURVE_WITH_KNOTS('',3,(#611,#612,#613,#614),.UNSPECIFIED.,
 .F.,.F.,(4,4),(0.405952808690733,0.455162745706684),.UNSPECIFIED.);
#28=B_SPLINE_CURVE_WITH_KNOTS('',3,(#615,#616,#617,#618,#619,#620,#621,
#622,#623,#624,#625,#626,#627,#628),.UNSPECIFIED.,.F.,.F.,(4,2,2,2,2,2,
4),(-0.185506305724175,-0.18435953210733,-0.172366306757574,-0.154706802290766,
-0.11302681467055,-0.0560802682029553,-8.7853997655235E-6),
 .UNSPECIFIED.);
#29=B_SPLINE_CURVE_WITH_KNOTS('',3,(#633,#634,#635,#636,#637,#638),
 .UNSPECIFIED.,.F.,.F.,(4,2,4),(0.405952808698344,0.455162745706684,0.504372682715025),
 .UNSPECIFIED.);
#30=B_SPLINE_CURVE_WITH_KNOTS('',3,(#644,#645,#646,#647,#648,#649,#650,
#651,#652,#653,#654,#655),.UNSPECIFIED.,.F.,.F.,(4,2,2,2,2,4),(0.350117301388662,
0.40710082444428,0.465613642990396,0.504980515410538,0.525473279573121,
0.538513876287206),.UNSPECIFIED.);
#31=B_SPLINE_CURVE_WITH_KNOTS('',3,(#657,#658,#659,#660,#661,#662,#663,
#664,#665,#666,#667,#668,#669,#670),.UNSPECIFIED.,.F.,.F.,(4,2,2,2,2,2,
4),(0.538513876287206,0.541054743150408,0.557490747232602,0.581977081242875,
0.632966043946991,0.684877181365575,0.726909763734589),.UNSPECIFIED.);
#32=B_SPLINE_CURVE_WITH_KNOTS('',3,(#678,#679,#680,#681,#682,#683,#684,
#685,#686,#687,#688,#689),.UNSPECIFIED.,.F.,.F.,(4,2,2,2,2,4),(0.350117301401817,
0.407100824459648,0.465613643008035,0.504980515429708,0.525473279593088,
0.538513876307679),.UNSPECIFIED.);
#33=B_SPLINE_CURVE_WITH_KNOTS('',3,(#690,#691,#692,#693,#694,#695,#696,
#697,#698,#699,#700,#701,#702,#703),.UNSPECIFIED.,.F.,.F.,(4,2,2,2,2,2,
4),(0.538513876307679,0.541054743170979,0.557490747253809,0.581977081265026,
0.63296604397111,0.684877181391696,0.726909763762327),.UNSPECIFIED.);
#34=B_SPLINE_CURVE_WITH_KNOTS('',3,(#708,#709,#710,#711),.UNSPECIFIED.,
 .F.,.F.,(4,4),(0.861115554405028,0.910325491413368),.UNSPECIFIED.);
#35=B_SPLINE_CURVE_WITH_KNOTS('',3,(#712,#713,#714,#715),.UNSPECIFIED.,
 .F.,.F.,(4,4),(0.,0.0492099370083403),.UNSPECIFIED.);
#36=B_SPLINE_CURVE_WITH_KNOTS('',3,(#723,#724,#725,#726,#727,#728,#729,
#730,#731,#732,#733,#734,#735,#736,#737,#738,#739,#740,#741,#742,#743,#744),
 .UNSPECIFIED.,.F.,.F.,(4,2,2,2,2,2,2,2,2,2,4),(0.349561023035617,0.391508924279025,
0.443315478697934,0.494201716265691,0.518638718776232,0.535041609991029,
0.550591682304679,0.571043160630461,0.610330722409187,0.668725657849923,
0.725594378801998),.UNSPECIFIED.);
#37=B_SPLINE_CURVE_WITH_KNOTS('',3,(#746,#747,#748,#749,#750,#751,#752,
#753,#754,#755,#756,#757,#758,#759,#760,#761,#762,#763,#764,#765,#766,#767),
 .UNSPECIFIED.,.F.,.F.,(4,2,2,2,2,2,2,2,2,2,4),(0.349561023039486,0.391508924283376,
0.443315478702879,0.494201716271212,0.518638718782029,0.535041609997019,
0.550591682310855,0.571043160636879,0.610330722416067,0.668725657857489,
0.725594378810233),.UNSPECIFIED.);
#38=B_SPLINE_CURVE_WITH_KNOTS('',3,(#771,#772,#773,#774,#775,#776),
 .UNSPECIFIED.,.F.,.F.,(4,2,4),(0.405952808698344,0.455162745706684,0.504372682715025),
 .UNSPECIFIED.);
#39=B_SPLINE_CURVE_WITH_KNOTS('',3,(#778,#779,#780,#781),.UNSPECIFIED.,
 .F.,.F.,(4,4),(0.,0.0492099370083403),.UNSPECIFIED.);
#40=B_SPLINE_CURVE_WITH_KNOTS('',3,(#782,#783,#784,#785),.UNSPECIFIED.,
 .F.,.F.,(4,4),(0.861115554405028,0.910325491413369),.UNSPECIFIED.);
#41=LINE('',#481,#45);
#42=LINE('',#609,#46);
#43=LINE('',#769,#47);
#44=LINE('',#786,#48);
#45=VECTOR('',#408,1.5);
#46=VECTOR('',#411,1.5);
#47=VECTOR('',#446,1.5);
#48=VECTOR('',#449,1.5);
#49=CYLINDRICAL_SURFACE('',#352,1.5);
#50=CYLINDRICAL_SURFACE('',#353,1.5);
#51=CYLINDRICAL_SURFACE('',#354,4.925);
#52=CYLINDRICAL_SURFACE('',#363,4.925);
#53=CYLINDRICAL_SURFACE('',#370,1.5);
#54=CYLINDRICAL_SURFACE('',#371,1.5);
#55=CYLINDRICAL_SURFACE('',#372,4.925);
#56=CYLINDRICAL_SURFACE('',#374,4.925);
#57=FACE_OUTER_BOUND('',#73,.T.);
#58=FACE_OUTER_BOUND('',#74,.T.);
#59=FACE_OUTER_BOUND('',#75,.T.);
#60=FACE_OUTER_BOUND('',#76,.T.);
#61=FACE_OUTER_BOUND('',#77,.T.);
#62=FACE_OUTER_BOUND('',#78,.T.);
#63=FACE_OUTER_BOUND('',#79,.T.);
#64=FACE_OUTER_BOUND('',#80,.T.);
#65=FACE_OUTER_BOUND('',#81,.T.);
#66=FACE_OUTER_BOUND('',#82,.T.);
#67=FACE_OUTER_BOUND('',#83,.T.);
#68=FACE_OUTER_BOUND('',#84,.T.);
#69=FACE_OUTER_BOUND('',#85,.T.);
#70=FACE_OUTER_BOUND('',#86,.T.);
#71=FACE_OUTER_BOUND('',#87,.T.);
#72=FACE_OUTER_BOUND('',#88,.T.);
#73=EDGE_LOOP('',(#193,#194));
#74=EDGE_LOOP('',(#195,#196,#197));
#75=EDGE_LOOP('',(#198,#199));
#76=EDGE_LOOP('',(#200,#201,#202));
#77=EDGE_LOOP('',(#203,#204,#205,#206,#207,#208,#209,#210,#211));
#78=EDGE_LOOP('',(#212,#213,#214,#215,#216,#217,#218,#219,#220,#221,#222));
#79=EDGE_LOOP('',(#223,#224,#225,#226));
#80=EDGE_LOOP('',(#227,#228,#229,#230,#231,#232,#233,#234,#235,#236,#237,
#238,#239,#240));
#81=EDGE_LOOP('',(#241,#242,#243,#244,#245));
#82=EDGE_LOOP('',(#246,#247,#248,#249,#250,#251,#252,#253,#254,#255,#256,
#257));
#83=EDGE_LOOP('',(#258,#259,#260,#261,#262,#263,#264,#265,#266,#267,#268));
#84=EDGE_LOOP('',(#269,#270,#271,#272,#273,#274,#275,#276,#277,#278,#279));
#85=EDGE_LOOP('',(#280,#281,#282,#283,#284));
#86=EDGE_LOOP('',(#285));
#87=EDGE_LOOP('',(#286,#287,#288,#289,#290,#291));
#88=EDGE_LOOP('',(#292));
#89=CIRCLE('',#339,1.5);
#90=CIRCLE('',#340,1.5);
#91=CIRCLE('',#342,1.5);
#92=CIRCLE('',#343,1.5);
#93=CIRCLE('',#344,1.5);
#94=CIRCLE('',#346,1.5);
#95=CIRCLE('',#347,1.5);
#96=CIRCLE('',#349,1.5);
#97=CIRCLE('',#350,1.5);
#98=CIRCLE('',#351,1.5);
#99=CIRCLE('',#355,4.925);
#100=CIRCLE('',#356,4.925);
#101=CIRCLE('',#358,4.925);
#102=CIRCLE('',#359,4.925);
#103=CIRCLE('',#360,2.);
#104=CIRCLE('',#361,2.925);
#105=CIRCLE('',#362,4.925);
#106=CIRCLE('',#364,4.925);
#107=CIRCLE('',#366,2.925);
#108=CIRCLE('',#367,2.);
#109=CIRCLE('',#368,4.925);
#110=CIRCLE('',#369,4.925);
#111=VERTEX_POINT('',#460);
#112=VERTEX_POINT('',#461);
#113=VERTEX_POINT('',#465);
#114=VERTEX_POINT('',#466);
#115=VERTEX_POINT('',#471);
#116=VERTEX_POINT('',#476);
#117=VERTEX_POINT('',#480);
#118=VERTEX_POINT('',#482);
#119=VERTEX_POINT('',#487);
#120=VERTEX_POINT('',#512);
#121=VERTEX_POINT('',#520);
#122=VERTEX_POINT('',#550);
#123=VERTEX_POINT('',#551);
#124=VERTEX_POINT('',#566);
#125=VERTEX_POINT('',#574);
#126=VERTEX_POINT('',#589);
#127=VERTEX_POINT('',#604);
#128=VERTEX_POINT('',#610);
#129=VERTEX_POINT('',#630);
#130=VERTEX_POINT('',#632);
#131=VERTEX_POINT('',#641);
#132=VERTEX_POINT('',#643);
#133=VERTEX_POINT('',#656);
#134=VERTEX_POINT('',#672);
#135=VERTEX_POINT('',#675);
#136=VERTEX_POINT('',#677);
#137=VERTEX_POINT('',#705);
#138=VERTEX_POINT('',#707);
#139=VERTEX_POINT('',#717);
#140=VERTEX_POINT('',#720);
#141=VERTEX_POINT('',#722);
#142=VERTEX_POINT('',#777);
#143=EDGE_CURVE('',#111,#112,#89,.T.);
#144=EDGE_CURVE('',#112,#111,#90,.T.);
#145=EDGE_CURVE('',#113,#114,#91,.T.);
#146=EDGE_CURVE('',#112,#113,#92,.T.);
#147=EDGE_CURVE('',#114,#112,#93,.T.);
#148=EDGE_CURVE('',#113,#115,#94,.T.);
#149=EDGE_CURVE('',#115,#113,#95,.T.);
#150=EDGE_CURVE('',#115,#111,#96,.T.);
#151=EDGE_CURVE('',#116,#115,#97,.T.);
#152=EDGE_CURVE('',#111,#116,#98,.T.);
#153=EDGE_CURVE('',#113,#117,#41,.T.);
#154=EDGE_CURVE('',#118,#117,#17,.T.);
#155=EDGE_CURVE('',#119,#118,#18,.T.);
#156=EDGE_CURVE('',#120,#119,#19,.T.);
#157=EDGE_CURVE('',#121,#120,#20,.T.);
#158=EDGE_CURVE('',#117,#121,#21,.T.);
#159=EDGE_CURVE('',#122,#123,#22,.T.);
#160=EDGE_CURVE('',#124,#122,#23,.T.);
#161=EDGE_CURVE('',#125,#124,#24,.T.);
#162=EDGE_CURVE('',#126,#125,#25,.T.);
#163=EDGE_CURVE('',#127,#126,#26,.T.);
#164=EDGE_CURVE('',#127,#112,#42,.T.);
#165=EDGE_CURVE('',#128,#127,#27,.T.);
#166=EDGE_CURVE('',#123,#128,#28,.T.);
#167=EDGE_CURVE('',#129,#119,#99,.T.);
#168=EDGE_CURVE('',#129,#130,#29,.T.);
#169=EDGE_CURVE('',#120,#130,#100,.T.);
#170=EDGE_CURVE('',#118,#131,#101,.T.);
#171=EDGE_CURVE('',#131,#132,#30,.T.);
#172=EDGE_CURVE('',#132,#133,#31,.T.);
#173=EDGE_CURVE('',#133,#126,#102,.T.);
#174=EDGE_CURVE('',#125,#134,#103,.T.);
#175=EDGE_CURVE('',#134,#134,#104,.T.);
#176=EDGE_CURVE('',#124,#135,#105,.T.);
#177=EDGE_CURVE('',#135,#136,#32,.T.);
#178=EDGE_CURVE('',#136,#129,#33,.T.);
#179=EDGE_CURVE('',#137,#122,#106,.T.);
#180=EDGE_CURVE('',#137,#138,#34,.T.);
#181=EDGE_CURVE('',#138,#135,#35,.T.);
#182=EDGE_CURVE('',#139,#139,#107,.T.);
#183=EDGE_CURVE('',#139,#123,#108,.T.);
#184=EDGE_CURVE('',#128,#140,#109,.T.);
#185=EDGE_CURVE('',#140,#141,#36,.T.);
#186=EDGE_CURVE('',#141,#121,#110,.T.);
#187=EDGE_CURVE('',#130,#137,#37,.T.);
#188=EDGE_CURVE('',#116,#136,#43,.T.);
#189=EDGE_CURVE('',#141,#131,#38,.T.);
#190=EDGE_CURVE('',#142,#140,#39,.T.);
#191=EDGE_CURVE('',#133,#142,#40,.T.);
#192=EDGE_CURVE('',#132,#114,#44,.T.);
#193=ORIENTED_EDGE('',*,*,#143,.F.);
#194=ORIENTED_EDGE('',*,*,#144,.F.);
#195=ORIENTED_EDGE('',*,*,#145,.F.);
#196=ORIENTED_EDGE('',*,*,#146,.F.);
#197=ORIENTED_EDGE('',*,*,#147,.F.);
#198=ORIENTED_EDGE('',*,*,#148,.F.);
#199=ORIENTED_EDGE('',*,*,#149,.F.);
#200=ORIENTED_EDGE('',*,*,#150,.F.);
#201=ORIENTED_EDGE('',*,*,#151,.F.);
#202=ORIENTED_EDGE('',*,*,#152,.F.);
#203=ORIENTED_EDGE('',*,*,#149,.T.);
#204=ORIENTED_EDGE('',*,*,#153,.T.);
#205=ORIENTED_EDGE('',*,*,#154,.F.);
#206=ORIENTED_EDGE('',*,*,#155,.F.);
#207=ORIENTED_EDGE('',*,*,#156,.F.);
#208=ORIENTED_EDGE('',*,*,#157,.F.);
#209=ORIENTED_EDGE('',*,*,#158,.F.);
#210=ORIENTED_EDGE('',*,*,#153,.F.);
#211=ORIENTED_EDGE('',*,*,#148,.T.);
#212=ORIENTED_EDGE('',*,*,#159,.F.);
#213=ORIENTED_EDGE('',*,*,#160,.F.);
#214=ORIENTED_EDGE('',*,*,#161,.F.);
#215=ORIENTED_EDGE('',*,*,#162,.F.);
#216=ORIENTED_EDGE('',*,*,#163,.F.);
#217=ORIENTED_EDGE('',*,*,#164,.T.);
#218=ORIENTED_EDGE('',*,*,#144,.T.);
#219=ORIENTED_EDGE('',*,*,#143,.T.);
#220=ORIENTED_EDGE('',*,*,#164,.F.);
#221=ORIENTED_EDGE('',*,*,#165,.F.);
#222=ORIENTED_EDGE('',*,*,#166,.F.);
#223=ORIENTED_EDGE('',*,*,#156,.T.);
#224=ORIENTED_EDGE('',*,*,#167,.F.);
#225=ORIENTED_EDGE('',*,*,#168,.T.);
#226=ORIENTED_EDGE('',*,*,#169,.F.);
#227=ORIENTED_EDGE('',*,*,#155,.T.);
#228=ORIENTED_EDGE('',*,*,#170,.T.);
#229=ORIENTED_EDGE('',*,*,#171,.T.);
#230=ORIENTED_EDGE('',*,*,#172,.T.);
#231=ORIENTED_EDGE('',*,*,#173,.T.);
#232=ORIENTED_EDGE('',*,*,#162,.T.);
#233=ORIENTED_EDGE('',*,*,#174,.T.);
#234=ORIENTED_EDGE('',*,*,#175,.T.);
#235=ORIENTED_EDGE('',*,*,#174,.F.);
#236=ORIENTED_EDGE('',*,*,#161,.T.);
#237=ORIENTED_EDGE('',*,*,#176,.T.);
#238=ORIENTED_EDGE('',*,*,#177,.T.);
#239=ORIENTED_EDGE('',*,*,#178,.T.);
#240=ORIENTED_EDGE('',*,*,#167,.T.);
#241=ORIENTED_EDGE('',*,*,#160,.T.);
#242=ORIENTED_EDGE('',*,*,#179,.F.);
#243=ORIENTED_EDGE('',*,*,#180,.T.);
#244=ORIENTED_EDGE('',*,*,#181,.T.);
#245=ORIENTED_EDGE('',*,*,#176,.F.);
#246=ORIENTED_EDGE('',*,*,#182,.T.);
#247=ORIENTED_EDGE('',*,*,#183,.T.);
#248=ORIENTED_EDGE('',*,*,#166,.T.);
#249=ORIENTED_EDGE('',*,*,#184,.T.);
#250=ORIENTED_EDGE('',*,*,#185,.T.);
#251=ORIENTED_EDGE('',*,*,#186,.T.);
#252=ORIENTED_EDGE('',*,*,#157,.T.);
#253=ORIENTED_EDGE('',*,*,#169,.T.);
#254=ORIENTED_EDGE('',*,*,#187,.T.);
#255=ORIENTED_EDGE('',*,*,#179,.T.);
#256=ORIENTED_EDGE('',*,*,#159,.T.);
#257=ORIENTED_EDGE('',*,*,#183,.F.);
#258=ORIENTED_EDGE('',*,*,#152,.T.);
#259=ORIENTED_EDGE('',*,*,#188,.T.);
#260=ORIENTED_EDGE('',*,*,#177,.F.);
#261=ORIENTED_EDGE('',*,*,#181,.F.);
#262=ORIENTED_EDGE('',*,*,#180,.F.);
#263=ORIENTED_EDGE('',*,*,#187,.F.);
#264=ORIENTED_EDGE('',*,*,#168,.F.);
#265=ORIENTED_EDGE('',*,*,#178,.F.);
#266=ORIENTED_EDGE('',*,*,#188,.F.);
#267=ORIENTED_EDGE('',*,*,#151,.T.);
#268=ORIENTED_EDGE('',*,*,#150,.T.);
#269=ORIENTED_EDGE('',*,*,#171,.F.);
#270=ORIENTED_EDGE('',*,*,#189,.F.);
#271=ORIENTED_EDGE('',*,*,#185,.F.);
#272=ORIENTED_EDGE('',*,*,#190,.F.);
#273=ORIENTED_EDGE('',*,*,#191,.F.);
#274=ORIENTED_EDGE('',*,*,#172,.F.);
#275=ORIENTED_EDGE('',*,*,#192,.T.);
#276=ORIENTED_EDGE('',*,*,#147,.T.);
#277=ORIENTED_EDGE('',*,*,#146,.T.);
#278=ORIENTED_EDGE('',*,*,#145,.T.);
#279=ORIENTED_EDGE('',*,*,#192,.F.);
#280=ORIENTED_EDGE('',*,*,#154,.T.);
#281=ORIENTED_EDGE('',*,*,#158,.T.);
#282=ORIENTED_EDGE('',*,*,#186,.F.);
#283=ORIENTED_EDGE('',*,*,#189,.T.);
#284=ORIENTED_EDGE('',*,*,#170,.F.);
#285=ORIENTED_EDGE('',*,*,#175,.F.);
#286=ORIENTED_EDGE('',*,*,#165,.T.);
#287=ORIENTED_EDGE('',*,*,#163,.T.);
#288=ORIENTED_EDGE('',*,*,#173,.F.);
#289=ORIENTED_EDGE('',*,*,#191,.T.);
#290=ORIENTED_EDGE('',*,*,#190,.T.);
#291=ORIENTED_EDGE('',*,*,#184,.F.);
#292=ORIENTED_EDGE('',*,*,#182,.F.);
#293=PLANE('',#338);
#294=PLANE('',#341);
#295=PLANE('',#345);
#296=PLANE('',#348);
#297=PLANE('',#373);
#298=PLANE('',#375);
#299=ADVANCED_FACE('',(#57),#293,.T.);
#300=ADVANCED_FACE('',(#58),#294,.T.);
#301=ADVANCED_FACE('',(#59),#295,.T.);
#302=ADVANCED_FACE('',(#60),#296,.T.);
#303=ADVANCED_FACE('',(#61),#49,.F.);
#304=ADVANCED_FACE('',(#62),#50,.F.);
#305=ADVANCED_FACE('',(#63),#51,.T.);
#306=ADVANCED_FACE('',(#64),#15,.T.);
#307=ADVANCED_FACE('',(#65),#52,.T.);
#308=ADVANCED_FACE('',(#66),#16,.T.);
#309=ADVANCED_FACE('',(#67),#53,.F.);
#310=ADVANCED_FACE('',(#68),#54,.F.);
#311=ADVANCED_FACE('',(#69),#55,.T.);
#312=ADVANCED_FACE('',(#70),#297,.F.);
#313=ADVANCED_FACE('',(#71),#56,.T.);
#314=ADVANCED_FACE('',(#72),#298,.T.);
#315=CLOSED_SHELL('',(#299,#300,#301,#302,#303,#304,#305,#306,#307,#308,
#309,#310,#311,#312,#313,#314));
#316=DERIVED_UNIT_ELEMENT(#319,1.);
#317=DERIVED_UNIT_ELEMENT(#796,-3.);
#318=DIMENSIONAL_EXPONENTS(0.,1.,0.,0.,0.,0.,0.);
#319=(
CONVERSION_BASED_UNIT('gram',#321)
MASS_UNIT()
NAMED_UNIT(#318)
);
#320=(
MASS_UNIT()
NAMED_UNIT(*)
SI_UNIT(.KILO.,.GRAM.)
);
#321=MASS_MEASURE_WITH_UNIT(MASS_MEASURE(0.001),#320);
#322=DERIVED_UNIT((#316,#317));
#323=MEASURE_REPRESENTATION_ITEM('density measure',
POSITIVE_RATIO_MEASURE(1.),#322);
#324=PROPERTY_DEFINITION_REPRESENTATION(#329,#326);
#325=PROPERTY_DEFINITION_REPRESENTATION(#330,#327);
#326=REPRESENTATION('material name',(#328),#793);
#327=REPRESENTATION('density',(#323),#793);
#328=DESCRIPTIVE_REPRESENTATION_ITEM('Generic','Generic');
#329=PROPERTY_DEFINITION('material property','material name',#803);
#330=PROPERTY_DEFINITION('material property','density of part',#803);
#331=DATE_TIME_ROLE('creation_date');
#332=APPLIED_DATE_AND_TIME_ASSIGNMENT(#333,#331,(#803));
#333=DATE_AND_TIME(#334,#335);
#334=CALENDAR_DATE(2026,25,6);
#335=LOCAL_TIME(0,0,0.,#336);
#336=COORDINATED_UNIVERSAL_TIME_OFFSET(0,0,.BEHIND.);
#337=AXIS2_PLACEMENT_3D('',#458,#376,#377);
#338=AXIS2_PLACEMENT_3D('',#459,#378,#379);
#339=AXIS2_PLACEMENT_3D('',#462,#380,#381);
#340=AXIS2_PLACEMENT_3D('',#463,#382,#383);
#341=AXIS2_PLACEMENT_3D('',#464,#384,#385);
#342=AXIS2_PLACEMENT_3D('',#467,#386,#387);
#343=AXIS2_PLACEMENT_3D('',#468,#388,#389);
#344=AXIS2_PLACEMENT_3D('',#469,#390,#391);
#345=AXIS2_PLACEMENT_3D('',#470,#392,#393);
#346=AXIS2_PLACEMENT_3D('',#472,#394,#395);
#347=AXIS2_PLACEMENT_3D('',#473,#396,#397);
#348=AXIS2_PLACEMENT_3D('',#474,#398,#399);
#349=AXIS2_PLACEMENT_3D('',#475,#400,#401);
#350=AXIS2_PLACEMENT_3D('',#477,#402,#403);
#351=AXIS2_PLACEMENT_3D('',#478,#404,#405);
#352=AXIS2_PLACEMENT_3D('',#479,#406,#407);
#353=AXIS2_PLACEMENT_3D('',#549,#409,#410);
#354=AXIS2_PLACEMENT_3D('',#629,#412,#413);
#355=AXIS2_PLACEMENT_3D('',#631,#414,#415);
#356=AXIS2_PLACEMENT_3D('',#639,#416,#417);
#357=AXIS2_PLACEMENT_3D('',#640,#418,#419);
#358=AXIS2_PLACEMENT_3D('',#642,#420,#421);
#359=AXIS2_PLACEMENT_3D('',#671,#422,#423);
#360=AXIS2_PLACEMENT_3D('',#673,#424,#425);
#361=AXIS2_PLACEMENT_3D('',#674,#426,#427);
#362=AXIS2_PLACEMENT_3D('',#676,#428,#429);
#363=AXIS2_PLACEMENT_3D('',#704,#430,#431);
#364=AXIS2_PLACEMENT_3D('',#706,#432,#433);
#365=AXIS2_PLACEMENT_3D('',#716,#434,#435);
#366=AXIS2_PLACEMENT_3D('',#718,#436,#437);
#367=AXIS2_PLACEMENT_3D('',#719,#438,#439);
#368=AXIS2_PLACEMENT_3D('',#721,#440,#441);
#369=AXIS2_PLACEMENT_3D('',#745,#442,#443);
#370=AXIS2_PLACEMENT_3D('',#768,#444,#445);
#371=AXIS2_PLACEMENT_3D('',#770,#447,#448);
#372=AXIS2_PLACEMENT_3D('',#787,#450,#451);
#373=AXIS2_PLACEMENT_3D('',#788,#452,#453);
#374=AXIS2_PLACEMENT_3D('',#789,#454,#455);
#375=AXIS2_PLACEMENT_3D('',#790,#456,#457);
#376=DIRECTION('axis',(0.,0.,1.));
#377=DIRECTION('refdir',(1.,0.,0.));
#378=DIRECTION('center_axis',(0.,0.,-1.));
#379=DIRECTION('ref_axis',(1.,0.,0.));
#380=DIRECTION('center_axis',(0.,0.,1.));
#381=DIRECTION('ref_axis',(1.,0.,0.));
#382=DIRECTION('center_axis',(0.,0.,1.));
#383=DIRECTION('ref_axis',(1.,0.,0.));
#384=DIRECTION('center_axis',(-1.,0.,0.));
#385=DIRECTION('ref_axis',(0.,0.,-1.));
#386=DIRECTION('center_axis',(1.,0.,0.));
#387=DIRECTION('ref_axis',(0.,1.,0.));
#388=DIRECTION('center_axis',(1.,0.,0.));
#389=DIRECTION('ref_axis',(0.,1.,0.));
#390=DIRECTION('center_axis',(1.,0.,0.));
#391=DIRECTION('ref_axis',(0.,1.,0.));
#392=DIRECTION('center_axis',(0.,0.,1.));
#393=DIRECTION('ref_axis',(-1.,0.,0.));
#394=DIRECTION('center_axis',(0.,0.,-1.));
#395=DIRECTION('ref_axis',(1.,0.,0.));
#396=DIRECTION('center_axis',(0.,0.,-1.));
#397=DIRECTION('ref_axis',(1.,0.,0.));
#398=DIRECTION('center_axis',(1.,0.,0.));
#399=DIRECTION('ref_axis',(0.,0.,1.));
#400=DIRECTION('center_axis',(-1.,0.,0.));
#401=DIRECTION('ref_axis',(0.,1.,0.));
#402=DIRECTION('center_axis',(-1.,0.,0.));
#403=DIRECTION('ref_axis',(0.,1.,0.));
#404=DIRECTION('center_axis',(-1.,0.,0.));
#405=DIRECTION('ref_axis',(0.,1.,0.));
#406=DIRECTION('center_axis',(0.,0.,1.));
#407=DIRECTION('ref_axis',(1.,0.,0.));
#408=DIRECTION('',(0.,0.,1.));
#409=DIRECTION('center_axis',(0.,0.,1.));
#410=DIRECTION('ref_axis',(1.,0.,0.));
#411=DIRECTION('',(0.,0.,1.));
#412=DIRECTION('center_axis',(0.,1.,0.));
#413=DIRECTION('ref_axis',(-1.,0.,0.));
#414=DIRECTION('center_axis',(0.,-1.,0.));
#415=DIRECTION('ref_axis',(1.,0.,1.22464679914735E-16));
#416=DIRECTION('center_axis',(0.,1.,0.));
#417=DIRECTION('ref_axis',(1.,0.,1.22464679914735E-16));
#418=DIRECTION('center_axis',(0.,1.,0.));
#419=DIRECTION('ref_axis',(0.,0.,1.));
#420=DIRECTION('center_axis',(0.,-1.,0.));
#421=DIRECTION('ref_axis',(1.,0.,1.22464679914735E-16));
#422=DIRECTION('center_axis',(0.,-1.,0.));
#423=DIRECTION('ref_axis',(1.,0.,1.22464679914735E-16));
#424=DIRECTION('center_axis',(-1.,0.,1.22464679914735E-16));
#425=DIRECTION('ref_axis',(-1.22464679914735E-16,0.,-1.));
#426=DIRECTION('center_axis',(0.,1.,0.));
#427=DIRECTION('ref_axis',(1.,0.,1.22464679914735E-16));
#428=DIRECTION('center_axis',(0.,-1.,0.));
#429=DIRECTION('ref_axis',(1.,0.,1.22464679914735E-16));
#430=DIRECTION('center_axis',(0.,1.,0.));
#431=DIRECTION('ref_axis',(-1.,0.,0.));
#432=DIRECTION('center_axis',(0.,1.,0.));
#433=DIRECTION('ref_axis',(1.,0.,1.22464679914735E-16));
#434=DIRECTION('center_axis',(0.,1.,0.));
#435=DIRECTION('ref_axis',(0.,0.,1.));
#436=DIRECTION('center_axis',(0.,-1.,0.));
#437=DIRECTION('ref_axis',(1.,0.,1.22464679914735E-16));
#438=DIRECTION('center_axis',(-1.,0.,1.22464679914735E-16));
#439=DIRECTION('ref_axis',(-1.22464679914735E-16,0.,-1.));
#440=DIRECTION('center_axis',(0.,1.,0.));
#441=DIRECTION('ref_axis',(1.,0.,1.22464679914735E-16));
#442=DIRECTION('center_axis',(0.,1.,0.));
#443=DIRECTION('ref_axis',(1.,0.,1.22464679914735E-16));
#444=DIRECTION('center_axis',(1.,0.,0.));
#445=DIRECTION('ref_axis',(0.,1.,0.));
#446=DIRECTION('',(1.,0.,0.));
#447=DIRECTION('center_axis',(1.,0.,0.));
#448=DIRECTION('ref_axis',(0.,1.,0.));
#449=DIRECTION('',(1.,0.,0.));
#450=DIRECTION('center_axis',(0.,1.,0.));
#451=DIRECTION('ref_axis',(-1.,0.,0.));
#452=DIRECTION('center_axis',(0.,1.,0.));
#453=DIRECTION('ref_axis',(0.,0.,1.));
#454=DIRECTION('center_axis',(0.,1.,0.));
#455=DIRECTION('ref_axis',(-1.,0.,0.));
#456=DIRECTION('center_axis',(0.,1.,0.));
#457=DIRECTION('ref_axis',(0.,0.,1.));
#458=CARTESIAN_POINT('',(0.,0.,0.));
#459=CARTESIAN_POINT('Origin',(-1.5,5.,-1.5));
#460=CARTESIAN_POINT('',(1.5,2.5,-1.5));
#461=CARTESIAN_POINT('',(-1.5,2.5,-1.5));
#462=CARTESIAN_POINT('Origin',(0.,2.5,-1.5));
#463=CARTESIAN_POINT('Origin',(0.,2.5,-1.5));
#464=CARTESIAN_POINT('Origin',(-1.5,5.,1.5));
#465=CARTESIAN_POINT('',(-1.5,2.5,1.5));
#466=CARTESIAN_POINT('',(-1.5,1.,-1.83697019872103E-16));
#467=CARTESIAN_POINT('Origin',(-1.5,2.5,0.));
#468=CARTESIAN_POINT('Origin',(-1.5,2.5,0.));
#469=CARTESIAN_POINT('Origin',(-1.5,2.5,0.));
#470=CARTESIAN_POINT('Origin',(1.5,5.,1.5));
#471=CARTESIAN_POINT('',(1.5,2.5,1.5));
#472=CARTESIAN_POINT('Origin',(0.,2.5,1.5));
#473=CARTESIAN_POINT('Origin',(0.,2.5,1.5));
#474=CARTESIAN_POINT('Origin',(1.5,5.,-1.5));
#475=CARTESIAN_POINT('Origin',(1.5,2.5,0.));
#476=CARTESIAN_POINT('',(1.5,1.,-1.83697019872103E-16));
#477=CARTESIAN_POINT('Origin',(1.5,2.5,0.));
#478=CARTESIAN_POINT('Origin',(1.5,2.5,0.));
#479=CARTESIAN_POINT('Origin',(0.,2.5,0.));
#480=CARTESIAN_POINT('',(-1.5,2.5,4.69101534851465));
#481=CARTESIAN_POINT('',(-1.5,2.5,0.));
#482=CARTESIAN_POINT('',(-1.4142135623731,2.,4.7175867771563));
#483=CARTESIAN_POINT('Ctrl Pts',(-1.4142135623731,2.,4.7175867771563));
#484=CARTESIAN_POINT('Ctrl Pts',(-1.47184023443132,2.16299284235833,4.70031175392328));
#485=CARTESIAN_POINT('Ctrl Pts',(-1.5,2.33596687661349,4.69101534851465));
#486=CARTESIAN_POINT('Ctrl Pts',(-1.5,2.5,4.69101534851465));
#487=CARTESIAN_POINT('',(1.4142135623731,2.,4.7175867771563));
#488=CARTESIAN_POINT('Ctrl Pts',(1.4142135623731,2.,4.7175867771563));
#489=CARTESIAN_POINT('Ctrl Pts',(1.37889374658425,1.90010047498178,4.72817476734463));
#490=CARTESIAN_POINT('Ctrl Pts',(1.33301747607303,1.80401115853626,4.73366957964063));
#491=CARTESIAN_POINT('Ctrl Pts',(1.21467900127509,1.61187893214017,4.736769989417));
#492=CARTESIAN_POINT('Ctrl Pts',(1.1403769092767,1.51831631974076,4.73333281768615));
#493=CARTESIAN_POINT('Ctrl Pts',(0.913784104706374,1.29376612090046,4.71612913177698));
#494=CARTESIAN_POINT('Ctrl Pts',(0.745117380265277,1.18292552510475,4.69713884683338));
#495=CARTESIAN_POINT('Ctrl Pts',(0.463469079392401,1.06962036536354,4.67398481665919));
#496=CARTESIAN_POINT('Ctrl Pts',(0.363248175273809,1.04092725420454,4.66716634632306));
#497=CARTESIAN_POINT('Ctrl Pts',(0.208993326287993,1.0137028420483,4.66052236813673));
#498=CARTESIAN_POINT('Ctrl Pts',(0.156831989757059,1.00729590088519,4.65890325049889));
#499=CARTESIAN_POINT('Ctrl Pts',(0.0658427812881718,1.00094725333973,4.65729417379453));
#500=CARTESIAN_POINT('Ctrl Pts',(0.0271937797895102,0.999748227110552,4.6569865464911));
#501=CARTESIAN_POINT('Ctrl Pts',(-0.051451630447974,1.00034955785648,4.65714002786654));
#502=CARTESIAN_POINT('Ctrl Pts',(-0.0913931267824509,1.00225328741693,4.65762774109706));
#503=CARTESIAN_POINT('Ctrl Pts',(-0.189848180745235,1.01089887467428,4.65980994554621));
#504=CARTESIAN_POINT('Ctrl Pts',(-0.248079898205707,1.01948867168131,4.66196629485783));
#505=CARTESIAN_POINT('Ctrl Pts',(-0.441514216254606,1.05974829227984,4.67162353391567));
#506=CARTESIAN_POINT('Ctrl Pts',(-0.572575783541128,1.10669478068527,4.68244055544173));
#507=CARTESIAN_POINT('Ctrl Pts',(-0.862683239374338,1.25842387206281,4.70935481784109));
#508=CARTESIAN_POINT('Ctrl Pts',(-1.01240298077441,1.37705641190486,4.72548864678909));
#509=CARTESIAN_POINT('Ctrl Pts',(-1.25811522176325,1.66213875753571,4.7388633952439));
#510=CARTESIAN_POINT('Ctrl Pts',(-1.35222095286959,1.82465842174649,4.7361705983488));
#511=CARTESIAN_POINT('Ctrl Pts',(-1.4142135623731,2.,4.7175867771563));
#512=CARTESIAN_POINT('',(1.4142135623731,3.,4.7175867771563));
#513=CARTESIAN_POINT('Ctrl Pts',(1.41421356237309,3.,4.7175867771563));
#514=CARTESIAN_POINT('Ctrl Pts',(1.47184023383765,2.83700715932081,4.70031175410125));
#515=CARTESIAN_POINT('Ctrl Pts',(1.5,2.66403312307028,4.69101534851465));
#516=CARTESIAN_POINT('Ctrl Pts',(1.5,2.5,4.69101534851465));
#517=CARTESIAN_POINT('Ctrl Pts',(1.5,2.33596687661349,4.69101534851465));
#518=CARTESIAN_POINT('Ctrl Pts',(1.47184023443132,2.16299284235833,4.70031175392328));
#519=CARTESIAN_POINT('Ctrl Pts',(1.4142135623731,2.,4.7175867771563));
#520=CARTESIAN_POINT('',(-1.4142135623731,3.,4.7175867771563));
#521=CARTESIAN_POINT('Ctrl Pts',(-1.4142135623731,3.,4.7175867771563));
#522=CARTESIAN_POINT('Ctrl Pts',(-1.37889374658466,3.09989952501704,4.7281747673445));
#523=CARTESIAN_POINT('Ctrl Pts',(-1.33301747607411,3.19598884146148,4.7336695796405));
#524=CARTESIAN_POINT('Ctrl Pts',(-1.21467900127621,3.38812106785858,4.73676998941708));
#525=CARTESIAN_POINT('Ctrl Pts',(-1.14037690927655,3.48168368025966,4.73333281768617));
#526=CARTESIAN_POINT('Ctrl Pts',(-0.913784104704436,3.706233879101,4.71612913177678));
#527=CARTESIAN_POINT('Ctrl Pts',(-0.745117380263192,3.81707447489643,4.69713884683317));
#528=CARTESIAN_POINT('Ctrl Pts',(-0.463469079390499,3.93037963463705,4.67398481665905));
#529=CARTESIAN_POINT('Ctrl Pts',(-0.363248175272267,3.95907274579581,4.66716634632298));
#530=CARTESIAN_POINT('Ctrl Pts',(-0.208993326286945,3.98629715795185,4.66052236813669));
#531=CARTESIAN_POINT('Ctrl Pts',(-0.156831989756103,3.99270409911491,4.65890325049886));
#532=CARTESIAN_POINT('Ctrl Pts',(-0.0658427812872688,3.99905274666031,4.65729417379452));
#533=CARTESIAN_POINT('Ctrl Pts',(-0.0271937797885412,4.00025177288947,4.6569865464911));
#534=CARTESIAN_POINT('Ctrl Pts',(0.0514516304491969,3.99965044214348,4.65714002786655));
#535=CARTESIAN_POINT('Ctrl Pts',(0.0913931267838608,3.99774671258299,4.65762774109708));
#536=CARTESIAN_POINT('Ctrl Pts',(0.189848180747247,3.98910112532549,4.65980994554627));
#537=CARTESIAN_POINT('Ctrl Pts',(0.248079898208169,3.9805113283183,4.66196629485793));
#538=CARTESIAN_POINT('Ctrl Pts',(0.441514216259193,3.94025170771893,4.67162353391595));
#539=CARTESIAN_POINT('Ctrl Pts',(0.572575783547251,3.8933052193124,4.68244055544224));
#540=CARTESIAN_POINT('Ctrl Pts',(0.86268323938147,3.74157612793228,4.70935481784182));
#541=CARTESIAN_POINT('Ctrl Pts',(1.0124029807811,3.62294358808917,4.72548864678971));
#542=CARTESIAN_POINT('Ctrl Pts',(1.2581152217664,3.33786124245888,4.73886339524382));
#543=CARTESIAN_POINT('Ctrl Pts',(1.35222095287064,3.17534157825055,4.73617059834848));
#544=CARTESIAN_POINT('Ctrl Pts',(1.41421356237309,3.,4.7175867771563));
#545=CARTESIAN_POINT('Ctrl Pts',(-1.5,2.5,4.69101534851465));
#546=CARTESIAN_POINT('Ctrl Pts',(-1.5,2.66403312338651,4.69101534851465));
#547=CARTESIAN_POINT('Ctrl Pts',(-1.47184023443132,2.83700715764167,4.70031175392328));
#548=CARTESIAN_POINT('Ctrl Pts',(-1.4142135623731,3.,4.7175867771563));
#549=CARTESIAN_POINT('Origin',(0.,2.5,0.));
#550=CARTESIAN_POINT('',(1.4142135623731,3.,-4.7175867771563));
#551=CARTESIAN_POINT('',(-6.24285650846996E-16,4.,-4.65705080756888));
#552=CARTESIAN_POINT('Ctrl Pts',(1.4142135623731,3.,-4.7175867771563));
#553=CARTESIAN_POINT('Ctrl Pts',(1.37889374658466,3.09989952501704,-4.72817476734451));
#554=CARTESIAN_POINT('Ctrl Pts',(1.33301747607411,3.19598884146148,-4.7336695796405));
#555=CARTESIAN_POINT('Ctrl Pts',(1.21467900127621,3.38812106785858,-4.73676998941708));
#556=CARTESIAN_POINT('Ctrl Pts',(1.14037690927655,3.48168368025966,-4.73333281768617));
#557=CARTESIAN_POINT('Ctrl Pts',(0.913784104704438,3.70623387910099,-4.71612913177678));
#558=CARTESIAN_POINT('Ctrl Pts',(0.745117380263194,3.81707447489643,-4.69713884683317));
#559=CARTESIAN_POINT('Ctrl Pts',(0.46346907939051,3.93037963463704,-4.67398481665905));
#560=CARTESIAN_POINT('Ctrl Pts',(0.363248175272274,3.95907274579581,-4.66716634632298));
#561=CARTESIAN_POINT('Ctrl Pts',(0.208993326286934,3.98629715795185,-4.66052236813669));
#562=CARTESIAN_POINT('Ctrl Pts',(0.156831989756098,3.99270409911491,-4.65890325049886));
#563=CARTESIAN_POINT('Ctrl Pts',(0.0696561097553,3.99878667688318,-4.65736160968178));
#564=CARTESIAN_POINT('Ctrl Pts',(0.0348364478978881,4.,-4.65705080756888));
#565=CARTESIAN_POINT('Ctrl Pts',(-6.7824706519841E-16,4.,-4.65705080756888));
#566=CARTESIAN_POINT('',(1.4142135623731,2.,-4.7175867771563));
#567=CARTESIAN_POINT('Ctrl Pts',(1.41421356237309,2.,-4.7175867771563));
#568=CARTESIAN_POINT('Ctrl Pts',(1.47184023383765,2.16299284067919,-4.70031175410125));
#569=CARTESIAN_POINT('Ctrl Pts',(1.5,2.33596687692972,-4.69101534851465));
#570=CARTESIAN_POINT('Ctrl Pts',(1.5,2.5,-4.69101534851465));
#571=CARTESIAN_POINT('Ctrl Pts',(1.5,2.66403312338651,-4.69101534851465));
#572=CARTESIAN_POINT('Ctrl Pts',(1.47184023443132,2.83700715764167,-4.70031175392328));
#573=CARTESIAN_POINT('Ctrl Pts',(1.4142135623731,3.,-4.7175867771563));
#574=CARTESIAN_POINT('',(-5.20125322525953E-16,1.,-4.65705080756888));
#575=CARTESIAN_POINT('Ctrl Pts',(-4.69926408556324E-16,1.,-4.65705080756888));
#576=CARTESIAN_POINT('Ctrl Pts',(0.0038227596634772,1.,-4.65705080756888));
#577=CARTESIAN_POINT('Ctrl Pts',(0.00764572145877412,1.00001461345414,-4.65705453792957));
#578=CARTESIAN_POINT('Ctrl Pts',(0.0514516304479708,1.00034955785648,-4.65714002786654));
#579=CARTESIAN_POINT('Ctrl Pts',(0.0913931267824482,1.00225328741693,-4.65762774109706));
#580=CARTESIAN_POINT('Ctrl Pts',(0.18984818074524,1.01089887467428,-4.65980994554621));
#581=CARTESIAN_POINT('Ctrl Pts',(0.248079898205718,1.01948867168131,-4.66196629485783));
#582=CARTESIAN_POINT('Ctrl Pts',(0.441514216254602,1.05974829227984,-4.67162353391567));
#583=CARTESIAN_POINT('Ctrl Pts',(0.572575783541124,1.10669478068526,-4.68244055544172));
#584=CARTESIAN_POINT('Ctrl Pts',(0.862683239374336,1.25842387206281,-4.70935481784109));
#585=CARTESIAN_POINT('Ctrl Pts',(1.01240298077441,1.37705641190486,-4.72548864678909));
#586=CARTESIAN_POINT('Ctrl Pts',(1.25811522176326,1.66213875753572,-4.7388633952439));
#587=CARTESIAN_POINT('Ctrl Pts',(1.35222095286959,1.82465842174649,-4.7361705983488));
#588=CARTESIAN_POINT('Ctrl Pts',(1.4142135623731,2.,-4.7175867771563));
#589=CARTESIAN_POINT('',(-1.4142135623731,2.,-4.7175867771563));
#590=CARTESIAN_POINT('Ctrl Pts',(-1.4142135623731,2.,-4.7175867771563));
#591=CARTESIAN_POINT('Ctrl Pts',(-1.37889374658425,1.9001004749818,-4.72817476734463));
#592=CARTESIAN_POINT('Ctrl Pts',(-1.33301747607306,1.80401115853631,-4.73366957964063));
#593=CARTESIAN_POINT('Ctrl Pts',(-1.2146790012751,1.61187893214017,-4.736769989417));
#594=CARTESIAN_POINT('Ctrl Pts',(-1.14037690927669,1.51831631974075,-4.73333281768615));
#595=CARTESIAN_POINT('Ctrl Pts',(-0.913784104706402,1.29376612090049,-4.71612913177698));
#596=CARTESIAN_POINT('Ctrl Pts',(-0.745117380265312,1.18292552510477,-4.69713884683338));
#597=CARTESIAN_POINT('Ctrl Pts',(-0.463469079392421,1.06962036536355,-4.67398481665919));
#598=CARTESIAN_POINT('Ctrl Pts',(-0.363248175273826,1.04092725420454,-4.66716634632306));
#599=CARTESIAN_POINT('Ctrl Pts',(-0.208993326288017,1.0137028420483,-4.66052236813673));
#600=CARTESIAN_POINT('Ctrl Pts',(-0.156831989757075,1.00729590088519,-4.65890325049889));
#601=CARTESIAN_POINT('Ctrl Pts',(-0.0696561097558392,1.00121332311684,-4.65736160968178));
#602=CARTESIAN_POINT('Ctrl Pts',(-0.0348364478981557,1.,-4.65705080756888));
#603=CARTESIAN_POINT('Ctrl Pts',(-4.69926408556324E-16,1.,-4.65705080756888));
#604=CARTESIAN_POINT('',(-1.5,2.5,-4.69101534851465));
#605=CARTESIAN_POINT('Ctrl Pts',(-1.5,2.5,-4.69101534851465));
#606=CARTESIAN_POINT('Ctrl Pts',(-1.5,2.33596687661349,-4.69101534851465));
#607=CARTESIAN_POINT('Ctrl Pts',(-1.47184023443132,2.16299284235833,-4.70031175392328));
#608=CARTESIAN_POINT('Ctrl Pts',(-1.4142135623731,2.,-4.7175867771563));
#609=CARTESIAN_POINT('',(-1.5,2.5,0.));
#610=CARTESIAN_POINT('',(-1.4142135623731,3.,-4.7175867771563));
#611=CARTESIAN_POINT('Ctrl Pts',(-1.41421356237309,3.,-4.7175867771563));
#612=CARTESIAN_POINT('Ctrl Pts',(-1.47184023443132,2.83700715764167,-4.70031175392328));
#613=CARTESIAN_POINT('Ctrl Pts',(-1.5,2.66403312338651,-4.69101534851465));
#614=CARTESIAN_POINT('Ctrl Pts',(-1.5,2.5,-4.69101534851465));
#615=CARTESIAN_POINT('Ctrl Pts',(-6.7824706519841E-16,4.,-4.65705080756888));
#616=CARTESIAN_POINT('Ctrl Pts',(-0.00382275966382256,4.,-4.65705080756888));
#617=CARTESIAN_POINT('Ctrl Pts',(-0.0076457214594638,3.99998538654585,-4.65705453792957));
#618=CARTESIAN_POINT('Ctrl Pts',(-0.0514516304491953,3.99965044214348,-4.65714002786655));
#619=CARTESIAN_POINT('Ctrl Pts',(-0.0913931267838612,3.99774671258299,-4.65762774109708));
#620=CARTESIAN_POINT('Ctrl Pts',(-0.18984818074724,3.98910112532549,-4.65980994554627));
#621=CARTESIAN_POINT('Ctrl Pts',(-0.248079898208157,3.9805113283183,-4.66196629485793));
#622=CARTESIAN_POINT('Ctrl Pts',(-0.441514216259197,3.94025170771893,-4.67162353391596));
#623=CARTESIAN_POINT('Ctrl Pts',(-0.572575783547258,3.89330521931239,-4.68244055544224));
#624=CARTESIAN_POINT('Ctrl Pts',(-0.862683239381471,3.74157612793228,-4.70935481784182));
#625=CARTESIAN_POINT('Ctrl Pts',(-1.0124029807811,3.62294358808917,-4.72548864678971));
#626=CARTESIAN_POINT('Ctrl Pts',(-1.2581152217664,3.33786124245888,-4.73886339524382));
#627=CARTESIAN_POINT('Ctrl Pts',(-1.35222095287064,3.17534157825055,-4.73617059834848));
#628=CARTESIAN_POINT('Ctrl Pts',(-1.41421356237309,3.,-4.7175867771563));
#629=CARTESIAN_POINT('Origin',(0.,0.,0.));
#630=CARTESIAN_POINT('',(4.71758677714199,2.00000000006754,1.41421356242085));
#631=CARTESIAN_POINT('Origin',(0.,2.,0.));
#632=CARTESIAN_POINT('',(4.71758677714199,2.99999999993246,1.41421356242085));
#633=CARTESIAN_POINT('Ctrl Pts',(4.71758677714829,2.00000000007564,1.41421356239984));
#634=CARTESIAN_POINT('Ctrl Pts',(4.70031175392021,2.16299284241172,1.47184023444039));
#635=CARTESIAN_POINT('Ctrl Pts',(4.69101534851465,2.33596687663887,1.5));
#636=CARTESIAN_POINT('Ctrl Pts',(4.69101534851465,2.66403312336113,1.5));
#637=CARTESIAN_POINT('Ctrl Pts',(4.70031175392021,2.83700715758828,1.47184023444039));
#638=CARTESIAN_POINT('Ctrl Pts',(4.71758677714829,2.99999999992436,1.41421356239984));
#639=CARTESIAN_POINT('Origin',(0.,3.,0.));
#640=CARTESIAN_POINT('Origin',(0.,2.,0.));
#641=CARTESIAN_POINT('',(-4.71758677714199,2.00000000006754,1.41421356242085));
#642=CARTESIAN_POINT('Origin',(0.,2.,0.));
#643=CARTESIAN_POINT('',(-4.65705080756888,1.,-3.92651477804307E-16));
#644=CARTESIAN_POINT('Ctrl Pts',(-4.7175867771563,2.,1.4142135623731));
#645=CARTESIAN_POINT('Ctrl Pts',(-4.73618313167404,1.82454016764766,1.352179143732));
#646=CARTESIAN_POINT('Ctrl Pts',(-4.73886665255931,1.66192156040727,1.2579890286731));
#647=CARTESIAN_POINT('Ctrl Pts',(-4.72538400302527,1.37512083034162,1.01067193533427));
#648=CARTESIAN_POINT('Ctrl Pts',(-4.70894289627097,1.25544306741849,0.858868723434856));
#649=CARTESIAN_POINT('Ctrl Pts',(-4.68267745959372,1.10849398249808,0.574689201489923));
#650=CARTESIAN_POINT('Ctrl Pts',(-4.67263927077361,1.06426595292237,0.453116518724322));
#651=CARTESIAN_POINT('Ctrl Pts',(-4.66246928336055,1.02147103046478,0.261654478587058));
#652=CARTESIAN_POINT('Ctrl Pts',(-4.65989519672469,1.01123373677914,0.195184505015487));
#653=CARTESIAN_POINT('Ctrl Pts',(-4.65752048632778,1.00183030958346,0.085549527402447));
#654=CARTESIAN_POINT('Ctrl Pts',(-4.65705080756888,1.,0.0427887959746842));
#655=CARTESIAN_POINT('Ctrl Pts',(-4.65705080756888,1.,-6.01605935736512E-16));
#656=CARTESIAN_POINT('',(-4.71758677714199,2.00000000006754,-1.41421356242085));
#657=CARTESIAN_POINT('Ctrl Pts',(-4.65705080756888,1.,-6.01605935736512E-16));
#658=CARTESIAN_POINT('Ctrl Pts',(-4.65705080756888,1.,-0.00833709041020833));
#659=CARTESIAN_POINT('Ctrl Pts',(-4.65706855320226,1.0000695062417,-0.016675246256883));
#660=CARTESIAN_POINT('Ctrl Pts',(-4.6573335748874,1.00110817862674,-0.0789526773878653));
#661=CARTESIAN_POINT('Ctrl Pts',(-4.65831044993043,1.00491504772816,-0.132771563275724));
#662=CARTESIAN_POINT('Ctrl Pts',(-4.66247026248309,1.02158634388797,-0.265980860232885));
#663=CARTESIAN_POINT('Ctrl Pts',(-4.66649967894341,1.03793209635135,-0.3446559083065));
#664=CARTESIAN_POINT('Ctrl Pts',(-4.68221121823716,1.10740519997095,-0.581861052809832));
#665=CARTESIAN_POINT('Ctrl Pts',(-4.69740079742633,1.18073910826736,-0.733030449000039));
#666=CARTESIAN_POINT('Ctrl Pts',(-4.72360886605838,1.37559205962761,-1.00722577542854));
#667=CARTESIAN_POINT('Ctrl Pts',(-4.73420447340409,1.49679744177095,-1.12808676594116));
#668=CARTESIAN_POINT('Ctrl Pts',(-4.73640699459742,1.74869773329238,-1.30558593652818));
#669=CARTESIAN_POINT('Ctrl Pts',(-4.73123648859142,1.87121260367213,-1.36868034174345));
#670=CARTESIAN_POINT('Ctrl Pts',(-4.71758677714829,2.00000000007564,-1.41421356239984));
#671=CARTESIAN_POINT('Origin',(0.,2.,0.));
#672=CARTESIAN_POINT('',(-3.58209188750601E-16,0.,-2.925));
#673=CARTESIAN_POINT('Origin',(-3.58209188750601E-16,2.,-2.925));
#674=CARTESIAN_POINT('Origin',(0.,0.,0.));
#675=CARTESIAN_POINT('',(4.71758677714199,2.00000000006754,-1.41421356242085));
#676=CARTESIAN_POINT('Origin',(0.,2.,0.));
#677=CARTESIAN_POINT('',(4.65705080756888,1.,-3.35859763285002E-16));
#678=CARTESIAN_POINT('Ctrl Pts',(4.7175867771563,2.,-1.4142135623731));
#679=CARTESIAN_POINT('Ctrl Pts',(4.73618313167404,1.82454016764766,-1.352179143732));
#680=CARTESIAN_POINT('Ctrl Pts',(4.73886665255931,1.66192156040727,-1.2579890286731));
#681=CARTESIAN_POINT('Ctrl Pts',(4.72538400302527,1.37512083034162,-1.01067193533427));
#682=CARTESIAN_POINT('Ctrl Pts',(4.70894289627097,1.25544306741848,-0.858868723434854));
#683=CARTESIAN_POINT('Ctrl Pts',(4.68267745959372,1.10849398249808,-0.574689201489917));
#684=CARTESIAN_POINT('Ctrl Pts',(4.67263927077361,1.06426595292237,-0.453116518724318));
#685=CARTESIAN_POINT('Ctrl Pts',(4.66246928336055,1.02147103046478,-0.261654478587063));
#686=CARTESIAN_POINT('Ctrl Pts',(4.65989519672469,1.01123373677914,-0.195184505015491));
#687=CARTESIAN_POINT('Ctrl Pts',(4.65752048632778,1.00183030958346,-0.0855495274024503));
#688=CARTESIAN_POINT('Ctrl Pts',(4.65705080756888,1.,-0.0427887959746866));
#689=CARTESIAN_POINT('Ctrl Pts',(4.65705080756888,1.,-4.88022506697901E-16));
#690=CARTESIAN_POINT('Ctrl Pts',(4.65705080756888,1.,-4.88022506697901E-16));
#691=CARTESIAN_POINT('Ctrl Pts',(4.65705080756888,1.,0.0083370904102071));
#692=CARTESIAN_POINT('Ctrl Pts',(4.65706855320226,1.0000695062417,0.0166752462568817));
#693=CARTESIAN_POINT('Ctrl Pts',(4.6573335748874,1.00110817862674,0.0789526773878598));
#694=CARTESIAN_POINT('Ctrl Pts',(4.65831044993043,1.00491504772816,0.132771563275714));
#695=CARTESIAN_POINT('Ctrl Pts',(4.66247026248309,1.02158634388797,0.265980860232888));
#696=CARTESIAN_POINT('Ctrl Pts',(4.66649967894341,1.03793209635135,0.344655908306504));
#697=CARTESIAN_POINT('Ctrl Pts',(4.68221121823716,1.10740519997095,0.581861052809834));
#698=CARTESIAN_POINT('Ctrl Pts',(4.69740079742633,1.18073910826736,0.733030449000041));
#699=CARTESIAN_POINT('Ctrl Pts',(4.72360886605838,1.37559205962761,1.00722577542854));
#700=CARTESIAN_POINT('Ctrl Pts',(4.73420447340409,1.49679744177095,1.12808676594116));
#701=CARTESIAN_POINT('Ctrl Pts',(4.73640699459742,1.74869773329237,1.30558593652818));
#702=CARTESIAN_POINT('Ctrl Pts',(4.73123648859142,1.87121260367213,1.36868034174344));
#703=CARTESIAN_POINT('Ctrl Pts',(4.71758677714829,2.00000000007564,1.41421356239984));
#704=CARTESIAN_POINT('Origin',(0.,0.,0.));
#705=CARTESIAN_POINT('',(4.71758677714199,2.99999999993246,-1.41421356242085));
#706=CARTESIAN_POINT('Origin',(0.,3.,0.));
#707=CARTESIAN_POINT('',(4.69101534851465,2.5,-1.5));
#708=CARTESIAN_POINT('Ctrl Pts',(4.71758677714829,2.99999999992436,-1.41421356239984));
#709=CARTESIAN_POINT('Ctrl Pts',(4.70031175392021,2.83700715758828,-1.47184023444039));
#710=CARTESIAN_POINT('Ctrl Pts',(4.69101534851465,2.66403312336113,-1.5));
#711=CARTESIAN_POINT('Ctrl Pts',(4.69101534851465,2.5,-1.5));
#712=CARTESIAN_POINT('Ctrl Pts',(4.69101534851465,2.5,-1.5));
#713=CARTESIAN_POINT('Ctrl Pts',(4.69101534851465,2.33596687663887,-1.5));
#714=CARTESIAN_POINT('Ctrl Pts',(4.70031175392021,2.16299284241172,-1.47184023444039));
#715=CARTESIAN_POINT('Ctrl Pts',(4.71758677714829,2.00000000007564,-1.41421356239984));
#716=CARTESIAN_POINT('Origin',(0.,3.,0.));
#717=CARTESIAN_POINT('',(-3.58209188750601E-16,5.,-2.925));
#718=CARTESIAN_POINT('Origin',(0.,5.,0.));
#719=CARTESIAN_POINT('Origin',(-3.58209188750601E-16,3.,-2.925));
#720=CARTESIAN_POINT('',(-4.71758677714199,2.99999999993246,-1.41421356242085));
#721=CARTESIAN_POINT('Origin',(0.,3.,0.));
#722=CARTESIAN_POINT('',(-4.71758677714199,2.99999999993246,1.41421356242085));
#723=CARTESIAN_POINT('Ctrl Pts',(-4.71758677714829,2.99999999992436,-1.41421356239984));
#724=CARTESIAN_POINT('Ctrl Pts',(-4.73123648859142,3.12878739632787,-1.36868034174345));
#725=CARTESIAN_POINT('Ctrl Pts',(-4.73640699459742,3.25130226670763,-1.30558593652818));
#726=CARTESIAN_POINT('Ctrl Pts',(-4.73420447340409,3.50320255822906,-1.12808676594115));
#727=CARTESIAN_POINT('Ctrl Pts',(-4.72360886605838,3.6244079403724,-1.00722577542853));
#728=CARTESIAN_POINT('Ctrl Pts',(-4.69740079742633,3.81926089173264,-0.733030449000031));
#729=CARTESIAN_POINT('Ctrl Pts',(-4.68221121823716,3.89259480002906,-0.581861052809825));
#730=CARTESIAN_POINT('Ctrl Pts',(-4.66649967894341,3.96206790364865,-0.344655908306485));
#731=CARTESIAN_POINT('Ctrl Pts',(-4.66247026248309,3.97841365611203,-0.265980860232875));
#732=CARTESIAN_POINT('Ctrl Pts',(-4.65831044993044,3.99508495227183,-0.132771563275743));
#733=CARTESIAN_POINT('Ctrl Pts',(-4.6573335748874,3.99889182137326,-0.0789526773878739));
#734=CARTESIAN_POINT('Ctrl Pts',(-4.65688643461557,4.00064425250864,0.0261207903555512));
#735=CARTESIAN_POINT('Ctrl Pts',(-4.65734055139733,3.99888220046436,0.0772423409355522));
#736=CARTESIAN_POINT('Ctrl Pts',(-4.65989519672469,3.98876626322086,0.195184505015489));
#737=CARTESIAN_POINT('Ctrl Pts',(-4.66246928336055,3.97852896953522,0.261654478587059));
#738=CARTESIAN_POINT('Ctrl Pts',(-4.67263927077361,3.93573404707763,0.453116518724322));
#739=CARTESIAN_POINT('Ctrl Pts',(-4.68267745959372,3.89150601750192,0.574689201489921));
#740=CARTESIAN_POINT('Ctrl Pts',(-4.70894289627097,3.74455693258152,0.858868723434846));
#741=CARTESIAN_POINT('Ctrl Pts',(-4.72538400302527,3.62487916965838,1.01067193533427));
#742=CARTESIAN_POINT('Ctrl Pts',(-4.73886665255931,3.33807843959273,1.2579890286731));
#743=CARTESIAN_POINT('Ctrl Pts',(-4.73618313167404,3.17545983235234,1.352179143732));
#744=CARTESIAN_POINT('Ctrl Pts',(-4.7175867771563,3.,1.41421356237309));
#745=CARTESIAN_POINT('Origin',(0.,3.,0.));
#746=CARTESIAN_POINT('Ctrl Pts',(4.71758677714829,2.99999999992436,1.41421356239984));
#747=CARTESIAN_POINT('Ctrl Pts',(4.73123648859142,3.12878739632788,1.36868034174344));
#748=CARTESIAN_POINT('Ctrl Pts',(4.73640699459742,3.25130226670764,1.30558593652817));
#749=CARTESIAN_POINT('Ctrl Pts',(4.73420447340409,3.50320255822907,1.12808676594113));
#750=CARTESIAN_POINT('Ctrl Pts',(4.72360886605838,3.62440794037241,1.00722577542852));
#751=CARTESIAN_POINT('Ctrl Pts',(4.69740079742632,3.81926089173265,0.733030449000025));
#752=CARTESIAN_POINT('Ctrl Pts',(4.68221121823716,3.89259480002906,0.58186105280982));
#753=CARTESIAN_POINT('Ctrl Pts',(4.66649967894341,3.96206790364865,0.34465590830648));
#754=CARTESIAN_POINT('Ctrl Pts',(4.66247026248309,3.97841365611204,0.265980860232871));
#755=CARTESIAN_POINT('Ctrl Pts',(4.65831044993043,3.99508495227184,0.132771563275713));
#756=CARTESIAN_POINT('Ctrl Pts',(4.6573335748874,3.99889182137326,0.0789526773878571));
#757=CARTESIAN_POINT('Ctrl Pts',(4.65688643461557,4.00064425250864,-0.0261207903555512));
#758=CARTESIAN_POINT('Ctrl Pts',(4.65734055139733,3.99888220046436,-0.0772423409355488));
#759=CARTESIAN_POINT('Ctrl Pts',(4.65989519672469,3.98876626322086,-0.195184505015492));
#760=CARTESIAN_POINT('Ctrl Pts',(4.66246928336055,3.97852896953522,-0.261654478587061));
#761=CARTESIAN_POINT('Ctrl Pts',(4.67263927077361,3.93573404707763,-0.453116518724321));
#762=CARTESIAN_POINT('Ctrl Pts',(4.68267745959372,3.89150601750192,-0.574689201489917));
#763=CARTESIAN_POINT('Ctrl Pts',(4.70894289627097,3.74455693258152,-0.858868723434852));
#764=CARTESIAN_POINT('Ctrl Pts',(4.72538400302527,3.62487916965838,-1.01067193533427));
#765=CARTESIAN_POINT('Ctrl Pts',(4.73886665255931,3.33807843959273,-1.2579890286731));
#766=CARTESIAN_POINT('Ctrl Pts',(4.73618313167404,3.17545983235234,-1.352179143732));
#767=CARTESIAN_POINT('Ctrl Pts',(4.7175867771563,3.,-1.41421356237309));
#768=CARTESIAN_POINT('Origin',(0.,2.5,0.));
#769=CARTESIAN_POINT('',(0.,1.,-1.83697019872103E-16));
#770=CARTESIAN_POINT('Origin',(0.,2.5,0.));
#771=CARTESIAN_POINT('Ctrl Pts',(-4.71758677714829,2.99999999992436,1.41421356239984));
#772=CARTESIAN_POINT('Ctrl Pts',(-4.70031175392021,2.83700715758828,1.47184023444039));
#773=CARTESIAN_POINT('Ctrl Pts',(-4.69101534851465,2.66403312336113,1.5));
#774=CARTESIAN_POINT('Ctrl Pts',(-4.69101534851465,2.33596687663887,1.5));
#775=CARTESIAN_POINT('Ctrl Pts',(-4.70031175392021,2.16299284241172,1.47184023444039));
#776=CARTESIAN_POINT('Ctrl Pts',(-4.71758677714829,2.00000000007564,1.41421356239984));
#777=CARTESIAN_POINT('',(-4.69101534851465,2.5,-1.5));
#778=CARTESIAN_POINT('Ctrl Pts',(-4.69101534851465,2.5,-1.5));
#779=CARTESIAN_POINT('Ctrl Pts',(-4.69101534851465,2.66403312336113,-1.5));
#780=CARTESIAN_POINT('Ctrl Pts',(-4.70031175392021,2.83700715758828,-1.47184023444039));
#781=CARTESIAN_POINT('Ctrl Pts',(-4.71758677714829,2.99999999992436,-1.41421356239984));
#782=CARTESIAN_POINT('Ctrl Pts',(-4.71758677714829,2.00000000007564,-1.41421356239984));
#783=CARTESIAN_POINT('Ctrl Pts',(-4.70031175392021,2.16299284241172,-1.47184023444039));
#784=CARTESIAN_POINT('Ctrl Pts',(-4.69101534851465,2.33596687663887,-1.5));
#785=CARTESIAN_POINT('Ctrl Pts',(-4.69101534851465,2.5,-1.5));
#786=CARTESIAN_POINT('',(0.,1.,-1.83697019872103E-16));
#787=CARTESIAN_POINT('Origin',(0.,0.,0.));
#788=CARTESIAN_POINT('Origin',(0.,0.,0.));
#789=CARTESIAN_POINT('Origin',(0.,0.,0.));
#790=CARTESIAN_POINT('Origin',(0.,5.,0.));
#791=UNCERTAINTY_MEASURE_WITH_UNIT(LENGTH_MEASURE(0.01),#795,
'DISTANCE_ACCURACY_VALUE',
'Maximum model space distance between geometric entities at asserted c
onnectivities');
#792=UNCERTAINTY_MEASURE_WITH_UNIT(LENGTH_MEASURE(0.01),#795,
'DISTANCE_ACCURACY_VALUE',
'Maximum model space distance between geometric entities at asserted c
onnectivities');
#793=(
GEOMETRIC_REPRESENTATION_CONTEXT(3)
GLOBAL_UNCERTAINTY_ASSIGNED_CONTEXT((#791))
GLOBAL_UNIT_ASSIGNED_CONTEXT((#795,#797,#798))
REPRESENTATION_CONTEXT('','3D')
);
#794=(
GEOMETRIC_REPRESENTATION_CONTEXT(3)
GLOBAL_UNCERTAINTY_ASSIGNED_CONTEXT((#792))
GLOBAL_UNIT_ASSIGNED_CONTEXT((#795,#797,#798))
REPRESENTATION_CONTEXT('','3D')
);
#795=(
LENGTH_UNIT()
NAMED_UNIT(*)
SI_UNIT(.MILLI.,.METRE.)
);
#796=(
LENGTH_UNIT()
NAMED_UNIT(*)
SI_UNIT(.CENTI.,.METRE.)
);
#797=(
NAMED_UNIT(*)
PLANE_ANGLE_UNIT()
SI_UNIT($,.RADIAN.)
);
#798=(
NAMED_UNIT(*)
SI_UNIT($,.STERADIAN.)
SOLID_ANGLE_UNIT()
);
#799=SHAPE_DEFINITION_REPRESENTATION(#800,#801);
#800=PRODUCT_DEFINITION_SHAPE('',$,#803);
#801=SHAPE_REPRESENTATION('',(#337),#793);
#802=PRODUCT_DEFINITION_CONTEXT('part definition',#807,'design');
#803=PRODUCT_DEFINITION('MiddleJointCylinder','MiddleJointCylinder',#804,
#802);
#804=PRODUCT_DEFINITION_FORMATION('',$,#809);
#805=PRODUCT_RELATED_PRODUCT_CATEGORY('MiddleJointCylinder',
'MiddleJointCylinder',(#809));
#806=APPLICATION_PROTOCOL_DEFINITION('international standard',
'automotive_design',2009,#807);
#807=APPLICATION_CONTEXT(
'Core Data for Automotive Mechanical Design Process');
#808=PRODUCT_CONTEXT('part definition',#807,'mechanical');
#809=PRODUCT('MiddleJointCylinder','MiddleJointCylinder',$,(#808));
#810=PRESENTATION_STYLE_ASSIGNMENT((#811));
#811=SURFACE_STYLE_USAGE(.BOTH.,#814);
#812=SURFACE_STYLE_RENDERING_WITH_PROPERTIES($,#818,(#813));
#813=SURFACE_STYLE_TRANSPARENT(0.);
#814=SURFACE_SIDE_STYLE('',(#815,#812));
#815=SURFACE_STYLE_FILL_AREA(#816);
#816=FILL_AREA_STYLE('',(#817));
#817=FILL_AREA_STYLE_COLOUR('',#818);
#818=COLOUR_RGB('',0.749019607843137,0.749019607843137,0.749019607843137);
ENDSEC;
END-ISO-10303-21;
