ISO-10303-21;
HEADER;
/* Generated by software containing ST-Developer
 * from STEP Tools, Inc. (www.steptools.com) 
 */

FILE_DESCRIPTION(
/* description */ (''),
/* implementation_level */ '2;1');

FILE_NAME(
/* name */ 'Axel_connector.stp',
/* time_stamp */ '2026-06-22T01:49:10+02:00',
/* author */ ('sniel'),
/* organization */ (''),
/* preprocessor_version */ 'ST-DEVELOPER v20.1',
/* originating_system */ 'Autodesk Inventor 2026',
/* authorisation */ '');

FILE_SCHEMA (('AUTOMOTIVE_DESIGN { 1 0 10303 214 3 1 1 }'));
ENDSEC;

DATA;
#10=MECHANICAL_DESIGN_GEOMETRIC_PRESENTATION_REPRESENTATION('',(#13),#367);
#11=SHAPE_REPRESENTATION_RELATIONSHIP('SRR','None',#374,#12);
#12=ADVANCED_BREP_SHAPE_REPRESENTATION('',(#14),#366);
#13=STYLED_ITEM('',(#383),#14);
#14=MANIFOLD_SOLID_BREP('Solid1',#210);
#15=FACE_BOUND('',#47,.T.);
#16=FACE_BOUND('',#49,.T.);
#17=CIRCLE('',#237,4.075);
#18=CIRCLE('',#238,4.075);
#19=CIRCLE('',#243,4.075);
#20=CIRCLE('',#244,4.075);
#21=CIRCLE('',#246,4.925);
#22=CIRCLE('',#247,4.925);
#23=CYLINDRICAL_SURFACE('',#236,4.075);
#24=CYLINDRICAL_SURFACE('',#242,4.075);
#25=CYLINDRICAL_SURFACE('',#245,4.925);
#26=FACE_OUTER_BOUND('',#37,.T.);
#27=FACE_OUTER_BOUND('',#38,.T.);
#28=FACE_OUTER_BOUND('',#39,.T.);
#29=FACE_OUTER_BOUND('',#40,.T.);
#30=FACE_OUTER_BOUND('',#41,.T.);
#31=FACE_OUTER_BOUND('',#42,.T.);
#32=FACE_OUTER_BOUND('',#43,.T.);
#33=FACE_OUTER_BOUND('',#44,.T.);
#34=FACE_OUTER_BOUND('',#45,.T.);
#35=FACE_OUTER_BOUND('',#46,.T.);
#36=FACE_OUTER_BOUND('',#48,.T.);
#37=EDGE_LOOP('',(#137,#138,#139,#140));
#38=EDGE_LOOP('',(#141,#142,#143,#144));
#39=EDGE_LOOP('',(#145,#146,#147,#148));
#40=EDGE_LOOP('',(#149,#150,#151,#152));
#41=EDGE_LOOP('',(#153,#154,#155,#156));
#42=EDGE_LOOP('',(#157,#158,#159,#160));
#43=EDGE_LOOP('',(#161,#162,#163,#164));
#44=EDGE_LOOP('',(#165,#166,#167,#168));
#45=EDGE_LOOP('',(#169,#170,#171,#172));
#46=EDGE_LOOP('',(#173));
#47=EDGE_LOOP('',(#174,#175,#176,#177,#178,#179,#180,#181));
#48=EDGE_LOOP('',(#182));
#49=EDGE_LOOP('',(#183,#184,#185,#186,#187,#188,#189,#190));
#50=LINE('',#311,#71);
#51=LINE('',#313,#72);
#52=LINE('',#315,#73);
#53=LINE('',#316,#74);
#54=LINE('',#319,#75);
#55=LINE('',#321,#76);
#56=LINE('',#322,#77);
#57=LINE('',#325,#78);
#58=LINE('',#327,#79);
#59=LINE('',#328,#80);
#60=LINE('',#334,#81);
#61=LINE('',#337,#82);
#62=LINE('',#339,#83);
#63=LINE('',#340,#84);
#64=LINE('',#343,#85);
#65=LINE('',#345,#86);
#66=LINE('',#346,#87);
#67=LINE('',#349,#88);
#68=LINE('',#351,#89);
#69=LINE('',#352,#90);
#70=LINE('',#360,#91);
#71=VECTOR('',#254,10.);
#72=VECTOR('',#255,10.);
#73=VECTOR('',#256,10.);
#74=VECTOR('',#257,10.);
#75=VECTOR('',#260,10.);
#76=VECTOR('',#261,10.);
#77=VECTOR('',#262,10.);
#78=VECTOR('',#265,10.);
#79=VECTOR('',#266,10.);
#80=VECTOR('',#267,10.);
#81=VECTOR('',#274,10.);
#82=VECTOR('',#277,10.);
#83=VECTOR('',#278,10.);
#84=VECTOR('',#279,10.);
#85=VECTOR('',#282,10.);
#86=VECTOR('',#283,10.);
#87=VECTOR('',#284,10.);
#88=VECTOR('',#287,10.);
#89=VECTOR('',#288,10.);
#90=VECTOR('',#289,10.);
#91=VECTOR('',#300,4.925);
#92=VERTEX_POINT('',#309);
#93=VERTEX_POINT('',#310);
#94=VERTEX_POINT('',#312);
#95=VERTEX_POINT('',#314);
#96=VERTEX_POINT('',#318);
#97=VERTEX_POINT('',#320);
#98=VERTEX_POINT('',#324);
#99=VERTEX_POINT('',#326);
#100=VERTEX_POINT('',#330);
#101=VERTEX_POINT('',#332);
#102=VERTEX_POINT('',#336);
#103=VERTEX_POINT('',#338);
#104=VERTEX_POINT('',#342);
#105=VERTEX_POINT('',#344);
#106=VERTEX_POINT('',#348);
#107=VERTEX_POINT('',#350);
#108=VERTEX_POINT('',#357);
#109=VERTEX_POINT('',#359);
#110=EDGE_CURVE('',#92,#93,#50,.T.);
#111=EDGE_CURVE('',#93,#94,#51,.T.);
#112=EDGE_CURVE('',#95,#94,#52,.T.);
#113=EDGE_CURVE('',#92,#95,#53,.T.);
#114=EDGE_CURVE('',#96,#92,#54,.T.);
#115=EDGE_CURVE('',#97,#95,#55,.T.);
#116=EDGE_CURVE('',#96,#97,#56,.T.);
#117=EDGE_CURVE('',#98,#96,#57,.T.);
#118=EDGE_CURVE('',#99,#97,#58,.T.);
#119=EDGE_CURVE('',#98,#99,#59,.T.);
#120=EDGE_CURVE('',#100,#98,#17,.T.);
#121=EDGE_CURVE('',#101,#99,#18,.T.);
#122=EDGE_CURVE('',#100,#101,#60,.T.);
#123=EDGE_CURVE('',#102,#100,#61,.T.);
#124=EDGE_CURVE('',#103,#101,#62,.T.);
#125=EDGE_CURVE('',#102,#103,#63,.T.);
#126=EDGE_CURVE('',#104,#102,#64,.T.);
#127=EDGE_CURVE('',#105,#103,#65,.T.);
#128=EDGE_CURVE('',#104,#105,#66,.T.);
#129=EDGE_CURVE('',#106,#104,#67,.T.);
#130=EDGE_CURVE('',#107,#105,#68,.T.);
#131=EDGE_CURVE('',#106,#107,#69,.T.);
#132=EDGE_CURVE('',#93,#106,#19,.T.);
#133=EDGE_CURVE('',#94,#107,#20,.T.);
#134=EDGE_CURVE('',#108,#108,#21,.T.);
#135=EDGE_CURVE('',#108,#109,#70,.T.);
#136=EDGE_CURVE('',#109,#109,#22,.T.);
#137=ORIENTED_EDGE('',*,*,#110,.T.);
#138=ORIENTED_EDGE('',*,*,#111,.T.);
#139=ORIENTED_EDGE('',*,*,#112,.F.);
#140=ORIENTED_EDGE('',*,*,#113,.F.);
#141=ORIENTED_EDGE('',*,*,#114,.T.);
#142=ORIENTED_EDGE('',*,*,#113,.T.);
#143=ORIENTED_EDGE('',*,*,#115,.F.);
#144=ORIENTED_EDGE('',*,*,#116,.F.);
#145=ORIENTED_EDGE('',*,*,#117,.T.);
#146=ORIENTED_EDGE('',*,*,#116,.T.);
#147=ORIENTED_EDGE('',*,*,#118,.F.);
#148=ORIENTED_EDGE('',*,*,#119,.F.);
#149=ORIENTED_EDGE('',*,*,#120,.T.);
#150=ORIENTED_EDGE('',*,*,#119,.T.);
#151=ORIENTED_EDGE('',*,*,#121,.F.);
#152=ORIENTED_EDGE('',*,*,#122,.F.);
#153=ORIENTED_EDGE('',*,*,#123,.T.);
#154=ORIENTED_EDGE('',*,*,#122,.T.);
#155=ORIENTED_EDGE('',*,*,#124,.F.);
#156=ORIENTED_EDGE('',*,*,#125,.F.);
#157=ORIENTED_EDGE('',*,*,#126,.T.);
#158=ORIENTED_EDGE('',*,*,#125,.T.);
#159=ORIENTED_EDGE('',*,*,#127,.F.);
#160=ORIENTED_EDGE('',*,*,#128,.F.);
#161=ORIENTED_EDGE('',*,*,#129,.T.);
#162=ORIENTED_EDGE('',*,*,#128,.T.);
#163=ORIENTED_EDGE('',*,*,#130,.F.);
#164=ORIENTED_EDGE('',*,*,#131,.F.);
#165=ORIENTED_EDGE('',*,*,#132,.T.);
#166=ORIENTED_EDGE('',*,*,#131,.T.);
#167=ORIENTED_EDGE('',*,*,#133,.F.);
#168=ORIENTED_EDGE('',*,*,#111,.F.);
#169=ORIENTED_EDGE('',*,*,#134,.F.);
#170=ORIENTED_EDGE('',*,*,#135,.T.);
#171=ORIENTED_EDGE('',*,*,#136,.T.);
#172=ORIENTED_EDGE('',*,*,#135,.F.);
#173=ORIENTED_EDGE('',*,*,#134,.T.);
#174=ORIENTED_EDGE('',*,*,#133,.T.);
#175=ORIENTED_EDGE('',*,*,#130,.T.);
#176=ORIENTED_EDGE('',*,*,#127,.T.);
#177=ORIENTED_EDGE('',*,*,#124,.T.);
#178=ORIENTED_EDGE('',*,*,#121,.T.);
#179=ORIENTED_EDGE('',*,*,#118,.T.);
#180=ORIENTED_EDGE('',*,*,#115,.T.);
#181=ORIENTED_EDGE('',*,*,#112,.T.);
#182=ORIENTED_EDGE('',*,*,#136,.F.);
#183=ORIENTED_EDGE('',*,*,#132,.F.);
#184=ORIENTED_EDGE('',*,*,#110,.F.);
#185=ORIENTED_EDGE('',*,*,#114,.F.);
#186=ORIENTED_EDGE('',*,*,#117,.F.);
#187=ORIENTED_EDGE('',*,*,#120,.F.);
#188=ORIENTED_EDGE('',*,*,#123,.F.);
#189=ORIENTED_EDGE('',*,*,#126,.F.);
#190=ORIENTED_EDGE('',*,*,#129,.F.);
#191=PLANE('',#233);
#192=PLANE('',#234);
#193=PLANE('',#235);
#194=PLANE('',#239);
#195=PLANE('',#240);
#196=PLANE('',#241);
#197=PLANE('',#248);
#198=PLANE('',#249);
#199=ADVANCED_FACE('',(#26),#191,.T.);
#200=ADVANCED_FACE('',(#27),#192,.T.);
#201=ADVANCED_FACE('',(#28),#193,.T.);
#202=ADVANCED_FACE('',(#29),#23,.F.);
#203=ADVANCED_FACE('',(#30),#194,.T.);
#204=ADVANCED_FACE('',(#31),#195,.T.);
#205=ADVANCED_FACE('',(#32),#196,.T.);
#206=ADVANCED_FACE('',(#33),#24,.F.);
#207=ADVANCED_FACE('',(#34),#25,.T.);
#208=ADVANCED_FACE('',(#35,#15),#197,.T.);
#209=ADVANCED_FACE('',(#36,#16),#198,.F.);
#210=CLOSED_SHELL('',(#199,#200,#201,#202,#203,#204,#205,#206,#207,#208,
#209));
#211=DERIVED_UNIT_ELEMENT(#214,1.);
#212=DERIVED_UNIT_ELEMENT(#369,-3.);
#213=DIMENSIONAL_EXPONENTS(0.,1.,0.,0.,0.,0.,0.);
#214=(
CONVERSION_BASED_UNIT('gram',#216)
MASS_UNIT()
NAMED_UNIT(#213)
);
#215=(
MASS_UNIT()
NAMED_UNIT(*)
SI_UNIT(.KILO.,.GRAM.)
);
#216=MASS_MEASURE_WITH_UNIT(MASS_MEASURE(0.001),#215);
#217=DERIVED_UNIT((#211,#212));
#218=MEASURE_REPRESENTATION_ITEM('density measure',
POSITIVE_RATIO_MEASURE(1.),#217);
#219=PROPERTY_DEFINITION_REPRESENTATION(#224,#221);
#220=PROPERTY_DEFINITION_REPRESENTATION(#225,#222);
#221=REPRESENTATION('material name',(#223),#366);
#222=REPRESENTATION('density',(#218),#366);
#223=DESCRIPTIVE_REPRESENTATION_ITEM('Generic','Generic');
#224=PROPERTY_DEFINITION('material property','material name',#376);
#225=PROPERTY_DEFINITION('material property','density of part',#376);
#226=DATE_TIME_ROLE('creation_date');
#227=APPLIED_DATE_AND_TIME_ASSIGNMENT(#228,#226,(#376));
#228=DATE_AND_TIME(#229,#230);
#229=CALENDAR_DATE(2026,21,6);
#230=LOCAL_TIME(0,0,0.,#231);
#231=COORDINATED_UNIVERSAL_TIME_OFFSET(0,0,.BEHIND.);
#232=AXIS2_PLACEMENT_3D('',#307,#250,#251);
#233=AXIS2_PLACEMENT_3D('',#308,#252,#253);
#234=AXIS2_PLACEMENT_3D('',#317,#258,#259);
#235=AXIS2_PLACEMENT_3D('',#323,#263,#264);
#236=AXIS2_PLACEMENT_3D('',#329,#268,#269);
#237=AXIS2_PLACEMENT_3D('',#331,#270,#271);
#238=AXIS2_PLACEMENT_3D('',#333,#272,#273);
#239=AXIS2_PLACEMENT_3D('',#335,#275,#276);
#240=AXIS2_PLACEMENT_3D('',#341,#280,#281);
#241=AXIS2_PLACEMENT_3D('',#347,#285,#286);
#242=AXIS2_PLACEMENT_3D('',#353,#290,#291);
#243=AXIS2_PLACEMENT_3D('',#354,#292,#293);
#244=AXIS2_PLACEMENT_3D('',#355,#294,#295);
#245=AXIS2_PLACEMENT_3D('',#356,#296,#297);
#246=AXIS2_PLACEMENT_3D('',#358,#298,#299);
#247=AXIS2_PLACEMENT_3D('',#361,#301,#302);
#248=AXIS2_PLACEMENT_3D('',#362,#303,#304);
#249=AXIS2_PLACEMENT_3D('',#363,#305,#306);
#250=DIRECTION('axis',(0.,0.,1.));
#251=DIRECTION('refdir',(1.,0.,0.));
#252=DIRECTION('center_axis',(1.,-5.13068074415808E-15,0.));
#253=DIRECTION('ref_axis',(5.13068074415808E-15,1.,0.));
#254=DIRECTION('',(5.13068074415808E-15,1.,0.));
#255=DIRECTION('',(0.,0.,1.));
#256=DIRECTION('',(5.13068074415808E-15,1.,0.));
#257=DIRECTION('',(0.,0.,1.));
#258=DIRECTION('center_axis',(-7.97881577732366E-16,-1.,0.));
#259=DIRECTION('ref_axis',(1.,-7.97881577732366E-16,0.));
#260=DIRECTION('',(1.,-7.97881577732366E-16,0.));
#261=DIRECTION('',(1.,-7.97881577732366E-16,0.));
#262=DIRECTION('',(0.,0.,1.));
#263=DIRECTION('center_axis',(-1.,0.,0.));
#264=DIRECTION('ref_axis',(0.,-1.,0.));
#265=DIRECTION('',(0.,-1.,0.));
#266=DIRECTION('',(0.,-1.,0.));
#267=DIRECTION('',(0.,0.,1.));
#268=DIRECTION('center_axis',(0.,0.,1.));
#269=DIRECTION('ref_axis',(-1.,0.,0.));
#270=DIRECTION('center_axis',(0.,0.,-1.));
#271=DIRECTION('ref_axis',(-1.,0.,0.));
#272=DIRECTION('center_axis',(0.,0.,-1.));
#273=DIRECTION('ref_axis',(-1.,0.,0.));
#274=DIRECTION('',(0.,0.,1.));
#275=DIRECTION('center_axis',(-1.,8.92292303331842E-16,0.));
#276=DIRECTION('ref_axis',(-8.92292303331842E-16,-1.,0.));
#277=DIRECTION('',(-8.92292303331842E-16,-1.,0.));
#278=DIRECTION('',(-8.92292303331842E-16,-1.,0.));
#279=DIRECTION('',(0.,0.,1.));
#280=DIRECTION('center_axis',(-7.97881577732366E-16,1.,0.));
#281=DIRECTION('ref_axis',(-1.,-7.97881577732366E-16,0.));
#282=DIRECTION('',(-1.,-7.97881577732366E-16,0.));
#283=DIRECTION('',(-1.,-7.97881577732366E-16,0.));
#284=DIRECTION('',(0.,0.,1.));
#285=DIRECTION('center_axis',(1.,0.,0.));
#286=DIRECTION('ref_axis',(0.,1.,0.));
#287=DIRECTION('',(0.,1.,0.));
#288=DIRECTION('',(0.,1.,0.));
#289=DIRECTION('',(0.,0.,1.));
#290=DIRECTION('center_axis',(0.,0.,1.));
#291=DIRECTION('ref_axis',(1.,3.21624529935327E-16,0.));
#292=DIRECTION('center_axis',(0.,0.,-1.));
#293=DIRECTION('ref_axis',(-1.,0.,0.));
#294=DIRECTION('center_axis',(0.,0.,-1.));
#295=DIRECTION('ref_axis',(-1.,0.,0.));
#296=DIRECTION('center_axis',(0.,0.,1.));
#297=DIRECTION('ref_axis',(1.,0.,0.));
#298=DIRECTION('center_axis',(0.,0.,1.));
#299=DIRECTION('ref_axis',(1.,0.,0.));
#300=DIRECTION('',(0.,0.,-1.));
#301=DIRECTION('center_axis',(0.,0.,1.));
#302=DIRECTION('ref_axis',(1.,0.,0.));
#303=DIRECTION('center_axis',(0.,0.,1.));
#304=DIRECTION('ref_axis',(1.,0.,0.));
#305=DIRECTION('center_axis',(0.,0.,1.));
#306=DIRECTION('ref_axis',(1.,0.,0.));
#307=CARTESIAN_POINT('',(0.,0.,0.));
#308=CARTESIAN_POINT('Origin',(1.56539634146342,2.41021341463415,0.));
#309=CARTESIAN_POINT('',(1.56539634146342,2.41021341463415,0.));
#310=CARTESIAN_POINT('',(1.56539634146343,3.76233428792991,0.));
#311=CARTESIAN_POINT('',(1.56539634146342,2.41021341463415,0.));
#312=CARTESIAN_POINT('',(1.56539634146343,3.76233428792991,15.));
#313=CARTESIAN_POINT('',(1.56539634146343,3.76233428792991,0.));
#314=CARTESIAN_POINT('',(1.56539634146342,2.41021341463415,15.));
#315=CARTESIAN_POINT('',(1.56539634146342,2.41021341463415,15.));
#316=CARTESIAN_POINT('',(1.56539634146342,2.41021341463415,0.));
#317=CARTESIAN_POINT('Origin',(-1.5653963414634,2.41021341463415,0.));
#318=CARTESIAN_POINT('',(-1.5653963414634,2.41021341463415,0.));
#319=CARTESIAN_POINT('',(-1.5653963414634,2.41021341463415,0.));
#320=CARTESIAN_POINT('',(-1.5653963414634,2.41021341463415,15.));
#321=CARTESIAN_POINT('',(-1.5653963414634,2.41021341463415,15.));
#322=CARTESIAN_POINT('',(-1.5653963414634,2.41021341463415,0.));
#323=CARTESIAN_POINT('Origin',(-1.56539634146341,3.7623342879299,0.));
#324=CARTESIAN_POINT('',(-1.56539634146341,3.7623342879299,0.));
#325=CARTESIAN_POINT('',(-1.56539634146341,3.7623342879299,0.));
#326=CARTESIAN_POINT('',(-1.5653963414634,3.7623342879299,15.));
#327=CARTESIAN_POINT('',(-1.56539634146341,3.7623342879299,15.));
#328=CARTESIAN_POINT('',(-1.56539634146341,3.7623342879299,0.));
#329=CARTESIAN_POINT('Origin',(1.77635683940025E-14,8.88178419700125E-15,
0.));
#330=CARTESIAN_POINT('',(-1.5653963414634,-3.76233428792988,0.));
#331=CARTESIAN_POINT('Origin',(1.77635683940025E-14,8.88178419700125E-15,
0.));
#332=CARTESIAN_POINT('',(-1.5653963414634,-3.76233428792988,15.));
#333=CARTESIAN_POINT('Origin',(1.77635683940025E-14,8.88178419700125E-15,
15.));
#334=CARTESIAN_POINT('',(-1.5653963414634,-3.76233428792988,0.));
#335=CARTESIAN_POINT('Origin',(-1.5653963414634,-2.41021341463413,0.));
#336=CARTESIAN_POINT('',(-1.5653963414634,-2.41021341463413,0.));
#337=CARTESIAN_POINT('',(-1.5653963414634,-2.41021341463413,0.));
#338=CARTESIAN_POINT('',(-1.5653963414634,-2.41021341463413,15.));
#339=CARTESIAN_POINT('',(-1.5653963414634,-2.41021341463413,15.));
#340=CARTESIAN_POINT('',(-1.5653963414634,-2.41021341463413,0.));
#341=CARTESIAN_POINT('Origin',(1.56539634146342,-2.41021341463412,0.));
#342=CARTESIAN_POINT('',(1.56539634146342,-2.41021341463412,0.));
#343=CARTESIAN_POINT('',(1.56539634146342,-2.41021341463412,0.));
#344=CARTESIAN_POINT('',(1.56539634146342,-2.41021341463412,15.));
#345=CARTESIAN_POINT('',(1.56539634146342,-2.41021341463412,15.));
#346=CARTESIAN_POINT('',(1.56539634146342,-2.41021341463412,0.));
#347=CARTESIAN_POINT('Origin',(1.56539634146343,-3.76233428792988,0.));
#348=CARTESIAN_POINT('',(1.56539634146343,-3.76233428792988,0.));
#349=CARTESIAN_POINT('',(1.56539634146343,-3.76233428792988,0.));
#350=CARTESIAN_POINT('',(1.56539634146343,-3.76233428792988,15.));
#351=CARTESIAN_POINT('',(1.56539634146343,-3.76233428792988,15.));
#352=CARTESIAN_POINT('',(1.56539634146343,-3.76233428792988,0.));
#353=CARTESIAN_POINT('Origin',(1.77635683940025E-14,8.88178419700125E-15,
0.));
#354=CARTESIAN_POINT('Origin',(1.77635683940025E-14,8.88178419700125E-15,
0.));
#355=CARTESIAN_POINT('Origin',(1.77635683940025E-14,8.88178419700125E-15,
15.));
#356=CARTESIAN_POINT('Origin',(1.77635683940025E-14,8.88178419700125E-15,
0.));
#357=CARTESIAN_POINT('',(-4.92499999999998,8.27864564842118E-15,15.));
#358=CARTESIAN_POINT('Origin',(1.77635683940025E-14,8.88178419700125E-15,
15.));
#359=CARTESIAN_POINT('',(-4.92499999999998,8.27864564842118E-15,0.));
#360=CARTESIAN_POINT('',(-4.92499999999998,8.27864564842118E-15,0.));
#361=CARTESIAN_POINT('Origin',(1.77635683940025E-14,8.88178419700125E-15,
0.));
#362=CARTESIAN_POINT('Origin',(1.77635683940025E-14,8.88178419700125E-15,
15.));
#363=CARTESIAN_POINT('Origin',(1.77635683940025E-14,8.88178419700125E-15,
0.));
#364=UNCERTAINTY_MEASURE_WITH_UNIT(LENGTH_MEASURE(0.01),#368,
'DISTANCE_ACCURACY_VALUE',
'Maximum model space distance between geometric entities at asserted c
onnectivities');
#365=UNCERTAINTY_MEASURE_WITH_UNIT(LENGTH_MEASURE(0.01),#368,
'DISTANCE_ACCURACY_VALUE',
'Maximum model space distance between geometric entities at asserted c
onnectivities');
#366=(
GEOMETRIC_REPRESENTATION_CONTEXT(3)
GLOBAL_UNCERTAINTY_ASSIGNED_CONTEXT((#364))
GLOBAL_UNIT_ASSIGNED_CONTEXT((#368,#370,#371))
REPRESENTATION_CONTEXT('','3D')
);
#367=(
GEOMETRIC_REPRESENTATION_CONTEXT(3)
GLOBAL_UNCERTAINTY_ASSIGNED_CONTEXT((#365))
GLOBAL_UNIT_ASSIGNED_CONTEXT((#368,#370,#371))
REPRESENTATION_CONTEXT('','3D')
);
#368=(
LENGTH_UNIT()
NAMED_UNIT(*)
SI_UNIT(.MILLI.,.METRE.)
);
#369=(
LENGTH_UNIT()
NAMED_UNIT(*)
SI_UNIT(.CENTI.,.METRE.)
);
#370=(
NAMED_UNIT(*)
PLANE_ANGLE_UNIT()
SI_UNIT($,.RADIAN.)
);
#371=(
NAMED_UNIT(*)
SI_UNIT($,.STERADIAN.)
SOLID_ANGLE_UNIT()
);
#372=SHAPE_DEFINITION_REPRESENTATION(#373,#374);
#373=PRODUCT_DEFINITION_SHAPE('',$,#376);
#374=SHAPE_REPRESENTATION('',(#232),#366);
#375=PRODUCT_DEFINITION_CONTEXT('part definition',#380,'design');
#376=PRODUCT_DEFINITION('Axel_connector','Axel_connector',#377,#375);
#377=PRODUCT_DEFINITION_FORMATION('',$,#382);
#378=PRODUCT_RELATED_PRODUCT_CATEGORY('Axel_connector','Axel_connector',
(#382));
#379=APPLICATION_PROTOCOL_DEFINITION('international standard',
'automotive_design',2009,#380);
#380=APPLICATION_CONTEXT(
'Core Data for Automotive Mechanical Design Process');
#381=PRODUCT_CONTEXT('part definition',#380,'mechanical');
#382=PRODUCT('Axel_connector','Axel_connector',$,(#381));
#383=PRESENTATION_STYLE_ASSIGNMENT((#384));
#384=SURFACE_STYLE_USAGE(.BOTH.,#387);
#385=SURFACE_STYLE_RENDERING_WITH_PROPERTIES($,#391,(#386));
#386=SURFACE_STYLE_TRANSPARENT(0.);
#387=SURFACE_SIDE_STYLE('',(#388,#385));
#388=SURFACE_STYLE_FILL_AREA(#389);
#389=FILL_AREA_STYLE('',(#390));
#390=FILL_AREA_STYLE_COLOUR('',#391);
#391=COLOUR_RGB('',0.749019607843137,0.749019607843137,0.749019607843137);
ENDSEC;
END-ISO-10303-21;
