ISO-10303-21;
HEADER;
/* Generated by software containing ST-Developer
 * from STEP Tools, Inc. (www.steptools.com) 
 */

FILE_DESCRIPTION(
/* description */ (''),
/* implementation_level */ '2;1');

FILE_NAME(
/* name */ 'LegV2.stp',
/* time_stamp */ '2026-06-22T01:48:19+02:00',
/* author */ ('sniel'),
/* organization */ (''),
/* preprocessor_version */ 'ST-DEVELOPER v20.1',
/* originating_system */ 'Autodesk Inventor 2026',
/* authorisation */ '');

FILE_SCHEMA (('AUTOMOTIVE_DESIGN { 1 0 10303 214 3 1 1 }'));
ENDSEC;

DATA;
#10=MECHANICAL_DESIGN_GEOMETRIC_PRESENTATION_REPRESENTATION('',(#13),#1052);
#11=SHAPE_REPRESENTATION_RELATIONSHIP('SRR','None',#1059,#12);
#12=ADVANCED_BREP_SHAPE_REPRESENTATION('',(#14),#1051);
#13=STYLED_ITEM('',(#1068),#14);
#14=MANIFOLD_SOLID_BREP('Solid1',#639);
#15=CYLINDRICAL_SURFACE('',#687,7.00035713374678);
#16=CIRCLE('',#678,7.00035713374678);
#17=CIRCLE('',#679,7.00035713374678);
#18=CIRCLE('',#688,7.00035713374678);
#19=CIRCLE('',#689,7.00035713374678);
#20=CIRCLE('',#690,7.00035713374678);
#21=CIRCLE('',#691,7.00035713374678);
#22=CIRCLE('',#692,7.00035713374678);
#23=CIRCLE('',#693,7.00035713374678);
#24=FACE_OUTER_BOUND('',#58,.T.);
#25=FACE_OUTER_BOUND('',#59,.T.);
#26=FACE_OUTER_BOUND('',#60,.T.);
#27=FACE_OUTER_BOUND('',#61,.T.);
#28=FACE_OUTER_BOUND('',#62,.T.);
#29=FACE_OUTER_BOUND('',#63,.T.);
#30=FACE_OUTER_BOUND('',#64,.T.);
#31=FACE_OUTER_BOUND('',#65,.T.);
#32=FACE_OUTER_BOUND('',#66,.T.);
#33=FACE_OUTER_BOUND('',#67,.T.);
#34=FACE_OUTER_BOUND('',#68,.T.);
#35=FACE_OUTER_BOUND('',#69,.T.);
#36=FACE_OUTER_BOUND('',#70,.T.);
#37=FACE_OUTER_BOUND('',#71,.T.);
#38=FACE_OUTER_BOUND('',#72,.T.);
#39=FACE_OUTER_BOUND('',#73,.T.);
#40=FACE_OUTER_BOUND('',#74,.T.);
#41=FACE_OUTER_BOUND('',#75,.T.);
#42=FACE_OUTER_BOUND('',#76,.T.);
#43=FACE_OUTER_BOUND('',#77,.T.);
#44=FACE_OUTER_BOUND('',#78,.T.);
#45=FACE_OUTER_BOUND('',#79,.T.);
#46=FACE_OUTER_BOUND('',#80,.T.);
#47=FACE_OUTER_BOUND('',#81,.T.);
#48=FACE_OUTER_BOUND('',#82,.T.);
#49=FACE_OUTER_BOUND('',#83,.T.);
#50=FACE_OUTER_BOUND('',#84,.T.);
#51=FACE_OUTER_BOUND('',#85,.T.);
#52=FACE_OUTER_BOUND('',#86,.T.);
#53=FACE_OUTER_BOUND('',#87,.T.);
#54=FACE_OUTER_BOUND('',#88,.T.);
#55=FACE_OUTER_BOUND('',#89,.T.);
#56=FACE_OUTER_BOUND('',#90,.T.);
#57=FACE_OUTER_BOUND('',#91,.T.);
#58=EDGE_LOOP('',(#396,#397,#398,#399));
#59=EDGE_LOOP('',(#400,#401,#402,#403));
#60=EDGE_LOOP('',(#404,#405,#406,#407));
#61=EDGE_LOOP('',(#408,#409,#410,#411));
#62=EDGE_LOOP('',(#412,#413,#414,#415));
#63=EDGE_LOOP('',(#416,#417,#418,#419));
#64=EDGE_LOOP('',(#420,#421,#422,#423));
#65=EDGE_LOOP('',(#424,#425,#426,#427));
#66=EDGE_LOOP('',(#428,#429,#430,#431));
#67=EDGE_LOOP('',(#432,#433,#434,#435));
#68=EDGE_LOOP('',(#436,#437,#438,#439));
#69=EDGE_LOOP('',(#440,#441,#442,#443));
#70=EDGE_LOOP('',(#444,#445,#446,#447));
#71=EDGE_LOOP('',(#448,#449,#450,#451));
#72=EDGE_LOOP('',(#452,#453,#454,#455));
#73=EDGE_LOOP('',(#456,#457,#458,#459,#460,#461,#462,#463,#464,#465,#466,
#467,#468,#469,#470,#471,#472,#473,#474,#475,#476,#477,#478,#479));
#74=EDGE_LOOP('',(#480,#481,#482,#483));
#75=EDGE_LOOP('',(#484,#485,#486,#487));
#76=EDGE_LOOP('',(#488,#489,#490,#491));
#77=EDGE_LOOP('',(#492,#493,#494,#495));
#78=EDGE_LOOP('',(#496,#497,#498,#499));
#79=EDGE_LOOP('',(#500,#501,#502,#503));
#80=EDGE_LOOP('',(#504,#505,#506,#507));
#81=EDGE_LOOP('',(#508,#509,#510,#511,#512,#513,#514,#515,#516,#517,#518,
#519));
#82=EDGE_LOOP('',(#520,#521));
#83=EDGE_LOOP('',(#522,#523,#524));
#84=EDGE_LOOP('',(#525,#526));
#85=EDGE_LOOP('',(#527,#528));
#86=EDGE_LOOP('',(#529,#530,#531,#532,#533,#534,#535,#536,#537,#538,#539,
#540,#541,#542,#543,#544,#545,#546,#547,#548,#549,#550,#551));
#87=EDGE_LOOP('',(#552,#553,#554,#555));
#88=EDGE_LOOP('',(#556,#557,#558,#559));
#89=EDGE_LOOP('',(#560,#561,#562,#563));
#90=EDGE_LOOP('',(#564,#565,#566,#567));
#91=EDGE_LOOP('',(#568,#569,#570,#571));
#92=LINE('',#874,#172);
#93=LINE('',#876,#173);
#94=LINE('',#878,#174);
#95=LINE('',#879,#175);
#96=LINE('',#882,#176);
#97=LINE('',#884,#177);
#98=LINE('',#885,#178);
#99=LINE('',#888,#179);
#100=LINE('',#890,#180);
#101=LINE('',#891,#181);
#102=LINE('',#894,#182);
#103=LINE('',#896,#183);
#104=LINE('',#897,#184);
#105=LINE('',#901,#185);
#106=LINE('',#903,#186);
#107=LINE('',#905,#187);
#108=LINE('',#906,#188);
#109=LINE('',#909,#189);
#110=LINE('',#911,#190);
#111=LINE('',#912,#191);
#112=LINE('',#914,#192);
#113=LINE('',#915,#193);
#114=LINE('',#919,#194);
#115=LINE('',#921,#195);
#116=LINE('',#923,#196);
#117=LINE('',#924,#197);
#118=LINE('',#927,#198);
#119=LINE('',#929,#199);
#120=LINE('',#930,#200);
#121=LINE('',#933,#201);
#122=LINE('',#935,#202);
#123=LINE('',#936,#203);
#124=LINE('',#939,#204);
#125=LINE('',#941,#205);
#126=LINE('',#942,#206);
#127=LINE('',#946,#207);
#128=LINE('',#948,#208);
#129=LINE('',#950,#209);
#130=LINE('',#951,#210);
#131=LINE('',#954,#211);
#132=LINE('',#956,#212);
#133=LINE('',#957,#213);
#134=LINE('',#959,#214);
#135=LINE('',#960,#215);
#136=LINE('',#963,#216);
#137=LINE('',#965,#217);
#138=LINE('',#966,#218);
#139=LINE('',#969,#219);
#140=LINE('',#975,#220);
#141=LINE('',#976,#221);
#142=LINE('',#978,#222);
#143=LINE('',#980,#223);
#144=LINE('',#982,#224);
#145=LINE('',#983,#225);
#146=LINE('',#986,#226);
#147=LINE('',#987,#227);
#148=LINE('',#990,#228);
#149=LINE('',#991,#229);
#150=LINE('',#994,#230);
#151=LINE('',#995,#231);
#152=LINE('',#998,#232);
#153=LINE('',#999,#233);
#154=LINE('',#1001,#234);
#155=LINE('',#1004,#235);
#156=LINE('',#1005,#236);
#157=LINE('',#1008,#237);
#158=LINE('',#1009,#238);
#159=LINE('',#1012,#239);
#160=LINE('',#1024,#240);
#161=LINE('',#1026,#241);
#162=LINE('',#1028,#242);
#163=LINE('',#1030,#243);
#164=LINE('',#1034,#244);
#165=LINE('',#1036,#245);
#166=LINE('',#1037,#246);
#167=LINE('',#1040,#247);
#168=LINE('',#1041,#248);
#169=LINE('',#1044,#249);
#170=LINE('',#1045,#250);
#171=LINE('',#1047,#251);
#172=VECTOR('',#708,10.);
#173=VECTOR('',#709,10.);
#174=VECTOR('',#710,10.);
#175=VECTOR('',#711,10.);
#176=VECTOR('',#714,10.);
#177=VECTOR('',#715,10.);
#178=VECTOR('',#716,10.);
#179=VECTOR('',#719,10.);
#180=VECTOR('',#720,10.);
#181=VECTOR('',#721,10.);
#182=VECTOR('',#724,10.);
#183=VECTOR('',#725,10.);
#184=VECTOR('',#726,10.);
#185=VECTOR('',#729,10.);
#186=VECTOR('',#730,10.);
#187=VECTOR('',#731,10.);
#188=VECTOR('',#732,10.);
#189=VECTOR('',#735,10.);
#190=VECTOR('',#736,10.);
#191=VECTOR('',#737,10.);
#192=VECTOR('',#740,10.);
#193=VECTOR('',#741,10.);
#194=VECTOR('',#744,10.);
#195=VECTOR('',#745,10.);
#196=VECTOR('',#746,10.);
#197=VECTOR('',#747,10.);
#198=VECTOR('',#750,10.);
#199=VECTOR('',#751,10.);
#200=VECTOR('',#752,10.);
#201=VECTOR('',#755,10.);
#202=VECTOR('',#756,10.);
#203=VECTOR('',#757,10.);
#204=VECTOR('',#760,10.);
#205=VECTOR('',#761,10.);
#206=VECTOR('',#762,10.);
#207=VECTOR('',#765,10.);
#208=VECTOR('',#766,10.);
#209=VECTOR('',#767,10.);
#210=VECTOR('',#768,10.);
#211=VECTOR('',#771,10.);
#212=VECTOR('',#772,10.);
#213=VECTOR('',#773,10.);
#214=VECTOR('',#776,10.);
#215=VECTOR('',#777,10.);
#216=VECTOR('',#780,10.);
#217=VECTOR('',#781,10.);
#218=VECTOR('',#782,10.);
#219=VECTOR('',#785,10.);
#220=VECTOR('',#790,10.);
#221=VECTOR('',#791,10.);
#222=VECTOR('',#792,10.);
#223=VECTOR('',#793,10.);
#224=VECTOR('',#794,10.);
#225=VECTOR('',#795,10.);
#226=VECTOR('',#798,10.);
#227=VECTOR('',#799,10.);
#228=VECTOR('',#802,10.);
#229=VECTOR('',#803,10.);
#230=VECTOR('',#806,10.);
#231=VECTOR('',#807,10.);
#232=VECTOR('',#810,10.);
#233=VECTOR('',#811,10.);
#234=VECTOR('',#814,10.);
#235=VECTOR('',#817,10.);
#236=VECTOR('',#818,10.);
#237=VECTOR('',#821,10.);
#238=VECTOR('',#822,10.);
#239=VECTOR('',#825,7.00035713374678);
#240=VECTOR('',#840,10.);
#241=VECTOR('',#843,10.);
#242=VECTOR('',#846,10.);
#243=VECTOR('',#849,10.);
#244=VECTOR('',#854,10.);
#245=VECTOR('',#855,10.);
#246=VECTOR('',#856,10.);
#247=VECTOR('',#859,10.);
#248=VECTOR('',#860,10.);
#249=VECTOR('',#863,10.);
#250=VECTOR('',#864,10.);
#251=VECTOR('',#867,10.);
#252=VERTEX_POINT('',#872);
#253=VERTEX_POINT('',#873);
#254=VERTEX_POINT('',#875);
#255=VERTEX_POINT('',#877);
#256=VERTEX_POINT('',#881);
#257=VERTEX_POINT('',#883);
#258=VERTEX_POINT('',#887);
#259=VERTEX_POINT('',#889);
#260=VERTEX_POINT('',#893);
#261=VERTEX_POINT('',#895);
#262=VERTEX_POINT('',#899);
#263=VERTEX_POINT('',#900);
#264=VERTEX_POINT('',#902);
#265=VERTEX_POINT('',#904);
#266=VERTEX_POINT('',#908);
#267=VERTEX_POINT('',#910);
#268=VERTEX_POINT('',#917);
#269=VERTEX_POINT('',#918);
#270=VERTEX_POINT('',#920);
#271=VERTEX_POINT('',#922);
#272=VERTEX_POINT('',#926);
#273=VERTEX_POINT('',#928);
#274=VERTEX_POINT('',#932);
#275=VERTEX_POINT('',#934);
#276=VERTEX_POINT('',#938);
#277=VERTEX_POINT('',#940);
#278=VERTEX_POINT('',#944);
#279=VERTEX_POINT('',#945);
#280=VERTEX_POINT('',#947);
#281=VERTEX_POINT('',#949);
#282=VERTEX_POINT('',#953);
#283=VERTEX_POINT('',#955);
#284=VERTEX_POINT('',#962);
#285=VERTEX_POINT('',#964);
#286=VERTEX_POINT('',#968);
#287=VERTEX_POINT('',#970);
#288=VERTEX_POINT('',#972);
#289=VERTEX_POINT('',#974);
#290=VERTEX_POINT('',#977);
#291=VERTEX_POINT('',#979);
#292=VERTEX_POINT('',#981);
#293=VERTEX_POINT('',#985);
#294=VERTEX_POINT('',#989);
#295=VERTEX_POINT('',#993);
#296=VERTEX_POINT('',#997);
#297=VERTEX_POINT('',#1003);
#298=VERTEX_POINT('',#1007);
#299=VERTEX_POINT('',#1011);
#300=VERTEX_POINT('',#1013);
#301=VERTEX_POINT('',#1015);
#302=VERTEX_POINT('',#1017);
#303=VERTEX_POINT('',#1019);
#304=VERTEX_POINT('',#1033);
#305=VERTEX_POINT('',#1035);
#306=VERTEX_POINT('',#1039);
#307=VERTEX_POINT('',#1043);
#308=EDGE_CURVE('',#252,#253,#92,.T.);
#309=EDGE_CURVE('',#254,#252,#93,.T.);
#310=EDGE_CURVE('',#255,#254,#94,.T.);
#311=EDGE_CURVE('',#255,#253,#95,.T.);
#312=EDGE_CURVE('',#253,#256,#96,.T.);
#313=EDGE_CURVE('',#257,#255,#97,.T.);
#314=EDGE_CURVE('',#257,#256,#98,.T.);
#315=EDGE_CURVE('',#256,#258,#99,.T.);
#316=EDGE_CURVE('',#259,#257,#100,.T.);
#317=EDGE_CURVE('',#259,#258,#101,.T.);
#318=EDGE_CURVE('',#258,#260,#102,.T.);
#319=EDGE_CURVE('',#261,#259,#103,.T.);
#320=EDGE_CURVE('',#260,#261,#104,.T.);
#321=EDGE_CURVE('',#262,#263,#105,.T.);
#322=EDGE_CURVE('',#264,#262,#106,.T.);
#323=EDGE_CURVE('',#265,#264,#107,.T.);
#324=EDGE_CURVE('',#265,#263,#108,.T.);
#325=EDGE_CURVE('',#263,#266,#109,.T.);
#326=EDGE_CURVE('',#267,#265,#110,.T.);
#327=EDGE_CURVE('',#267,#266,#111,.T.);
#328=EDGE_CURVE('',#266,#252,#112,.T.);
#329=EDGE_CURVE('',#254,#267,#113,.T.);
#330=EDGE_CURVE('',#268,#269,#114,.T.);
#331=EDGE_CURVE('',#270,#268,#115,.T.);
#332=EDGE_CURVE('',#271,#270,#116,.T.);
#333=EDGE_CURVE('',#271,#269,#117,.T.);
#334=EDGE_CURVE('',#269,#272,#118,.T.);
#335=EDGE_CURVE('',#273,#271,#119,.T.);
#336=EDGE_CURVE('',#273,#272,#120,.T.);
#337=EDGE_CURVE('',#272,#274,#121,.T.);
#338=EDGE_CURVE('',#275,#273,#122,.T.);
#339=EDGE_CURVE('',#275,#274,#123,.T.);
#340=EDGE_CURVE('',#274,#276,#124,.T.);
#341=EDGE_CURVE('',#277,#275,#125,.T.);
#342=EDGE_CURVE('',#276,#277,#126,.T.);
#343=EDGE_CURVE('',#278,#279,#127,.T.);
#344=EDGE_CURVE('',#280,#278,#128,.T.);
#345=EDGE_CURVE('',#281,#280,#129,.T.);
#346=EDGE_CURVE('',#281,#279,#130,.T.);
#347=EDGE_CURVE('',#279,#282,#131,.T.);
#348=EDGE_CURVE('',#283,#281,#132,.T.);
#349=EDGE_CURVE('',#283,#282,#133,.T.);
#350=EDGE_CURVE('',#282,#268,#134,.T.);
#351=EDGE_CURVE('',#270,#283,#135,.T.);
#352=EDGE_CURVE('',#284,#261,#136,.T.);
#353=EDGE_CURVE('',#284,#285,#137,.T.);
#354=EDGE_CURVE('',#260,#285,#138,.T.);
#355=EDGE_CURVE('',#285,#286,#139,.T.);
#356=EDGE_CURVE('',#287,#286,#16,.T.);
#357=EDGE_CURVE('',#288,#287,#17,.T.);
#358=EDGE_CURVE('',#288,#289,#140,.T.);
#359=EDGE_CURVE('',#289,#278,#141,.T.);
#360=EDGE_CURVE('',#276,#290,#142,.T.);
#361=EDGE_CURVE('',#290,#291,#143,.T.);
#362=EDGE_CURVE('',#291,#292,#144,.T.);
#363=EDGE_CURVE('',#292,#262,#145,.T.);
#364=EDGE_CURVE('',#293,#277,#146,.T.);
#365=EDGE_CURVE('',#293,#290,#147,.T.);
#366=EDGE_CURVE('',#294,#284,#148,.T.);
#367=EDGE_CURVE('',#286,#294,#149,.T.);
#368=EDGE_CURVE('',#295,#292,#150,.T.);
#369=EDGE_CURVE('',#264,#295,#151,.T.);
#370=EDGE_CURVE('',#295,#296,#152,.T.);
#371=EDGE_CURVE('',#296,#291,#153,.T.);
#372=EDGE_CURVE('',#296,#293,#154,.T.);
#373=EDGE_CURVE('',#297,#289,#155,.T.);
#374=EDGE_CURVE('',#280,#297,#156,.T.);
#375=EDGE_CURVE('',#297,#298,#157,.T.);
#376=EDGE_CURVE('',#288,#298,#158,.T.);
#377=EDGE_CURVE('',#287,#299,#159,.T.);
#378=EDGE_CURVE('',#299,#300,#18,.T.);
#379=EDGE_CURVE('',#300,#301,#19,.T.);
#380=EDGE_CURVE('',#301,#302,#20,.T.);
#381=EDGE_CURVE('',#302,#303,#21,.T.);
#382=EDGE_CURVE('',#303,#299,#22,.T.);
#383=EDGE_CURVE('',#298,#294,#23,.T.);
#384=EDGE_CURVE('',#303,#302,#160,.T.);
#385=EDGE_CURVE('',#300,#303,#161,.T.);
#386=EDGE_CURVE('',#301,#300,#162,.T.);
#387=EDGE_CURVE('',#302,#301,#163,.T.);
#388=EDGE_CURVE('',#301,#304,#164,.T.);
#389=EDGE_CURVE('',#305,#304,#165,.T.);
#390=EDGE_CURVE('',#302,#305,#166,.T.);
#391=EDGE_CURVE('',#306,#305,#167,.T.);
#392=EDGE_CURVE('',#303,#306,#168,.T.);
#393=EDGE_CURVE('',#307,#306,#169,.T.);
#394=EDGE_CURVE('',#300,#307,#170,.T.);
#395=EDGE_CURVE('',#304,#307,#171,.T.);
#396=ORIENTED_EDGE('',*,*,#308,.F.);
#397=ORIENTED_EDGE('',*,*,#309,.F.);
#398=ORIENTED_EDGE('',*,*,#310,.F.);
#399=ORIENTED_EDGE('',*,*,#311,.T.);
#400=ORIENTED_EDGE('',*,*,#312,.F.);
#401=ORIENTED_EDGE('',*,*,#311,.F.);
#402=ORIENTED_EDGE('',*,*,#313,.F.);
#403=ORIENTED_EDGE('',*,*,#314,.T.);
#404=ORIENTED_EDGE('',*,*,#315,.F.);
#405=ORIENTED_EDGE('',*,*,#314,.F.);
#406=ORIENTED_EDGE('',*,*,#316,.F.);
#407=ORIENTED_EDGE('',*,*,#317,.T.);
#408=ORIENTED_EDGE('',*,*,#318,.F.);
#409=ORIENTED_EDGE('',*,*,#317,.F.);
#410=ORIENTED_EDGE('',*,*,#319,.F.);
#411=ORIENTED_EDGE('',*,*,#320,.F.);
#412=ORIENTED_EDGE('',*,*,#321,.F.);
#413=ORIENTED_EDGE('',*,*,#322,.F.);
#414=ORIENTED_EDGE('',*,*,#323,.F.);
#415=ORIENTED_EDGE('',*,*,#324,.T.);
#416=ORIENTED_EDGE('',*,*,#325,.F.);
#417=ORIENTED_EDGE('',*,*,#324,.F.);
#418=ORIENTED_EDGE('',*,*,#326,.F.);
#419=ORIENTED_EDGE('',*,*,#327,.T.);
#420=ORIENTED_EDGE('',*,*,#328,.F.);
#421=ORIENTED_EDGE('',*,*,#327,.F.);
#422=ORIENTED_EDGE('',*,*,#329,.F.);
#423=ORIENTED_EDGE('',*,*,#309,.T.);
#424=ORIENTED_EDGE('',*,*,#330,.F.);
#425=ORIENTED_EDGE('',*,*,#331,.F.);
#426=ORIENTED_EDGE('',*,*,#332,.F.);
#427=ORIENTED_EDGE('',*,*,#333,.T.);
#428=ORIENTED_EDGE('',*,*,#334,.F.);
#429=ORIENTED_EDGE('',*,*,#333,.F.);
#430=ORIENTED_EDGE('',*,*,#335,.F.);
#431=ORIENTED_EDGE('',*,*,#336,.T.);
#432=ORIENTED_EDGE('',*,*,#337,.F.);
#433=ORIENTED_EDGE('',*,*,#336,.F.);
#434=ORIENTED_EDGE('',*,*,#338,.F.);
#435=ORIENTED_EDGE('',*,*,#339,.T.);
#436=ORIENTED_EDGE('',*,*,#340,.F.);
#437=ORIENTED_EDGE('',*,*,#339,.F.);
#438=ORIENTED_EDGE('',*,*,#341,.F.);
#439=ORIENTED_EDGE('',*,*,#342,.F.);
#440=ORIENTED_EDGE('',*,*,#343,.F.);
#441=ORIENTED_EDGE('',*,*,#344,.F.);
#442=ORIENTED_EDGE('',*,*,#345,.F.);
#443=ORIENTED_EDGE('',*,*,#346,.T.);
#444=ORIENTED_EDGE('',*,*,#347,.F.);
#445=ORIENTED_EDGE('',*,*,#346,.F.);
#446=ORIENTED_EDGE('',*,*,#348,.F.);
#447=ORIENTED_EDGE('',*,*,#349,.T.);
#448=ORIENTED_EDGE('',*,*,#350,.F.);
#449=ORIENTED_EDGE('',*,*,#349,.F.);
#450=ORIENTED_EDGE('',*,*,#351,.F.);
#451=ORIENTED_EDGE('',*,*,#331,.T.);
#452=ORIENTED_EDGE('',*,*,#320,.T.);
#453=ORIENTED_EDGE('',*,*,#352,.F.);
#454=ORIENTED_EDGE('',*,*,#353,.T.);
#455=ORIENTED_EDGE('',*,*,#354,.F.);
#456=ORIENTED_EDGE('',*,*,#321,.T.);
#457=ORIENTED_EDGE('',*,*,#325,.T.);
#458=ORIENTED_EDGE('',*,*,#328,.T.);
#459=ORIENTED_EDGE('',*,*,#308,.T.);
#460=ORIENTED_EDGE('',*,*,#312,.T.);
#461=ORIENTED_EDGE('',*,*,#315,.T.);
#462=ORIENTED_EDGE('',*,*,#318,.T.);
#463=ORIENTED_EDGE('',*,*,#354,.T.);
#464=ORIENTED_EDGE('',*,*,#355,.T.);
#465=ORIENTED_EDGE('',*,*,#356,.F.);
#466=ORIENTED_EDGE('',*,*,#357,.F.);
#467=ORIENTED_EDGE('',*,*,#358,.T.);
#468=ORIENTED_EDGE('',*,*,#359,.T.);
#469=ORIENTED_EDGE('',*,*,#343,.T.);
#470=ORIENTED_EDGE('',*,*,#347,.T.);
#471=ORIENTED_EDGE('',*,*,#350,.T.);
#472=ORIENTED_EDGE('',*,*,#330,.T.);
#473=ORIENTED_EDGE('',*,*,#334,.T.);
#474=ORIENTED_EDGE('',*,*,#337,.T.);
#475=ORIENTED_EDGE('',*,*,#340,.T.);
#476=ORIENTED_EDGE('',*,*,#360,.T.);
#477=ORIENTED_EDGE('',*,*,#361,.T.);
#478=ORIENTED_EDGE('',*,*,#362,.T.);
#479=ORIENTED_EDGE('',*,*,#363,.T.);
#480=ORIENTED_EDGE('',*,*,#342,.T.);
#481=ORIENTED_EDGE('',*,*,#364,.F.);
#482=ORIENTED_EDGE('',*,*,#365,.T.);
#483=ORIENTED_EDGE('',*,*,#360,.F.);
#484=ORIENTED_EDGE('',*,*,#366,.F.);
#485=ORIENTED_EDGE('',*,*,#367,.F.);
#486=ORIENTED_EDGE('',*,*,#355,.F.);
#487=ORIENTED_EDGE('',*,*,#353,.F.);
#488=ORIENTED_EDGE('',*,*,#322,.T.);
#489=ORIENTED_EDGE('',*,*,#363,.F.);
#490=ORIENTED_EDGE('',*,*,#368,.F.);
#491=ORIENTED_EDGE('',*,*,#369,.F.);
#492=ORIENTED_EDGE('',*,*,#370,.F.);
#493=ORIENTED_EDGE('',*,*,#368,.T.);
#494=ORIENTED_EDGE('',*,*,#362,.F.);
#495=ORIENTED_EDGE('',*,*,#371,.F.);
#496=ORIENTED_EDGE('',*,*,#372,.F.);
#497=ORIENTED_EDGE('',*,*,#371,.T.);
#498=ORIENTED_EDGE('',*,*,#361,.F.);
#499=ORIENTED_EDGE('',*,*,#365,.F.);
#500=ORIENTED_EDGE('',*,*,#344,.T.);
#501=ORIENTED_EDGE('',*,*,#359,.F.);
#502=ORIENTED_EDGE('',*,*,#373,.F.);
#503=ORIENTED_EDGE('',*,*,#374,.F.);
#504=ORIENTED_EDGE('',*,*,#375,.F.);
#505=ORIENTED_EDGE('',*,*,#373,.T.);
#506=ORIENTED_EDGE('',*,*,#358,.F.);
#507=ORIENTED_EDGE('',*,*,#376,.T.);
#508=ORIENTED_EDGE('',*,*,#376,.F.);
#509=ORIENTED_EDGE('',*,*,#357,.T.);
#510=ORIENTED_EDGE('',*,*,#377,.T.);
#511=ORIENTED_EDGE('',*,*,#378,.T.);
#512=ORIENTED_EDGE('',*,*,#379,.T.);
#513=ORIENTED_EDGE('',*,*,#380,.T.);
#514=ORIENTED_EDGE('',*,*,#381,.T.);
#515=ORIENTED_EDGE('',*,*,#382,.T.);
#516=ORIENTED_EDGE('',*,*,#377,.F.);
#517=ORIENTED_EDGE('',*,*,#356,.T.);
#518=ORIENTED_EDGE('',*,*,#367,.T.);
#519=ORIENTED_EDGE('',*,*,#383,.F.);
#520=ORIENTED_EDGE('',*,*,#384,.F.);
#521=ORIENTED_EDGE('',*,*,#381,.F.);
#522=ORIENTED_EDGE('',*,*,#385,.F.);
#523=ORIENTED_EDGE('',*,*,#378,.F.);
#524=ORIENTED_EDGE('',*,*,#382,.F.);
#525=ORIENTED_EDGE('',*,*,#386,.F.);
#526=ORIENTED_EDGE('',*,*,#379,.F.);
#527=ORIENTED_EDGE('',*,*,#387,.F.);
#528=ORIENTED_EDGE('',*,*,#380,.F.);
#529=ORIENTED_EDGE('',*,*,#323,.T.);
#530=ORIENTED_EDGE('',*,*,#369,.T.);
#531=ORIENTED_EDGE('',*,*,#370,.T.);
#532=ORIENTED_EDGE('',*,*,#372,.T.);
#533=ORIENTED_EDGE('',*,*,#364,.T.);
#534=ORIENTED_EDGE('',*,*,#341,.T.);
#535=ORIENTED_EDGE('',*,*,#338,.T.);
#536=ORIENTED_EDGE('',*,*,#335,.T.);
#537=ORIENTED_EDGE('',*,*,#332,.T.);
#538=ORIENTED_EDGE('',*,*,#351,.T.);
#539=ORIENTED_EDGE('',*,*,#348,.T.);
#540=ORIENTED_EDGE('',*,*,#345,.T.);
#541=ORIENTED_EDGE('',*,*,#374,.T.);
#542=ORIENTED_EDGE('',*,*,#375,.T.);
#543=ORIENTED_EDGE('',*,*,#383,.T.);
#544=ORIENTED_EDGE('',*,*,#366,.T.);
#545=ORIENTED_EDGE('',*,*,#352,.T.);
#546=ORIENTED_EDGE('',*,*,#319,.T.);
#547=ORIENTED_EDGE('',*,*,#316,.T.);
#548=ORIENTED_EDGE('',*,*,#313,.T.);
#549=ORIENTED_EDGE('',*,*,#310,.T.);
#550=ORIENTED_EDGE('',*,*,#329,.T.);
#551=ORIENTED_EDGE('',*,*,#326,.T.);
#552=ORIENTED_EDGE('',*,*,#387,.T.);
#553=ORIENTED_EDGE('',*,*,#388,.T.);
#554=ORIENTED_EDGE('',*,*,#389,.F.);
#555=ORIENTED_EDGE('',*,*,#390,.F.);
#556=ORIENTED_EDGE('',*,*,#384,.T.);
#557=ORIENTED_EDGE('',*,*,#390,.T.);
#558=ORIENTED_EDGE('',*,*,#391,.F.);
#559=ORIENTED_EDGE('',*,*,#392,.F.);
#560=ORIENTED_EDGE('',*,*,#385,.T.);
#561=ORIENTED_EDGE('',*,*,#392,.T.);
#562=ORIENTED_EDGE('',*,*,#393,.F.);
#563=ORIENTED_EDGE('',*,*,#394,.F.);
#564=ORIENTED_EDGE('',*,*,#386,.T.);
#565=ORIENTED_EDGE('',*,*,#394,.T.);
#566=ORIENTED_EDGE('',*,*,#395,.F.);
#567=ORIENTED_EDGE('',*,*,#388,.F.);
#568=ORIENTED_EDGE('',*,*,#395,.T.);
#569=ORIENTED_EDGE('',*,*,#393,.T.);
#570=ORIENTED_EDGE('',*,*,#391,.T.);
#571=ORIENTED_EDGE('',*,*,#389,.T.);
#572=PLANE('',#662);
#573=PLANE('',#663);
#574=PLANE('',#664);
#575=PLANE('',#665);
#576=PLANE('',#666);
#577=PLANE('',#667);
#578=PLANE('',#668);
#579=PLANE('',#669);
#580=PLANE('',#670);
#581=PLANE('',#671);
#582=PLANE('',#672);
#583=PLANE('',#673);
#584=PLANE('',#674);
#585=PLANE('',#675);
#586=PLANE('',#676);
#587=PLANE('',#677);
#588=PLANE('',#680);
#589=PLANE('',#681);
#590=PLANE('',#682);
#591=PLANE('',#683);
#592=PLANE('',#684);
#593=PLANE('',#685);
#594=PLANE('',#686);
#595=PLANE('',#694);
#596=PLANE('',#695);
#597=PLANE('',#696);
#598=PLANE('',#697);
#599=PLANE('',#698);
#600=PLANE('',#699);
#601=PLANE('',#700);
#602=PLANE('',#701);
#603=PLANE('',#702);
#604=PLANE('',#703);
#605=ADVANCED_FACE('',(#24),#572,.F.);
#606=ADVANCED_FACE('',(#25),#573,.F.);
#607=ADVANCED_FACE('',(#26),#574,.F.);
#608=ADVANCED_FACE('',(#27),#575,.F.);
#609=ADVANCED_FACE('',(#28),#576,.F.);
#610=ADVANCED_FACE('',(#29),#577,.F.);
#611=ADVANCED_FACE('',(#30),#578,.F.);
#612=ADVANCED_FACE('',(#31),#579,.F.);
#613=ADVANCED_FACE('',(#32),#580,.F.);
#614=ADVANCED_FACE('',(#33),#581,.F.);
#615=ADVANCED_FACE('',(#34),#582,.F.);
#616=ADVANCED_FACE('',(#35),#583,.F.);
#617=ADVANCED_FACE('',(#36),#584,.F.);
#618=ADVANCED_FACE('',(#37),#585,.F.);
#619=ADVANCED_FACE('',(#38),#586,.T.);
#620=ADVANCED_FACE('',(#39),#587,.F.);
#621=ADVANCED_FACE('',(#40),#588,.T.);
#622=ADVANCED_FACE('',(#41),#589,.T.);
#623=ADVANCED_FACE('',(#42),#590,.T.);
#624=ADVANCED_FACE('',(#43),#591,.T.);
#625=ADVANCED_FACE('',(#44),#592,.T.);
#626=ADVANCED_FACE('',(#45),#593,.T.);
#627=ADVANCED_FACE('',(#46),#594,.T.);
#628=ADVANCED_FACE('',(#47),#15,.T.);
#629=ADVANCED_FACE('',(#48),#595,.F.);
#630=ADVANCED_FACE('',(#49),#596,.F.);
#631=ADVANCED_FACE('',(#50),#597,.F.);
#632=ADVANCED_FACE('',(#51),#598,.F.);
#633=ADVANCED_FACE('',(#52),#599,.T.);
#634=ADVANCED_FACE('',(#53),#600,.T.);
#635=ADVANCED_FACE('',(#54),#601,.T.);
#636=ADVANCED_FACE('',(#55),#602,.T.);
#637=ADVANCED_FACE('',(#56),#603,.T.);
#638=ADVANCED_FACE('',(#57),#604,.T.);
#639=CLOSED_SHELL('',(#605,#606,#607,#608,#609,#610,#611,#612,#613,#614,
#615,#616,#617,#618,#619,#620,#621,#622,#623,#624,#625,#626,#627,#628,#629,
#630,#631,#632,#633,#634,#635,#636,#637,#638));
#640=DERIVED_UNIT_ELEMENT(#643,1.);
#641=DERIVED_UNIT_ELEMENT(#1054,-3.);
#642=DIMENSIONAL_EXPONENTS(0.,1.,0.,0.,0.,0.,0.);
#643=(
CONVERSION_BASED_UNIT('gram',#645)
MASS_UNIT()
NAMED_UNIT(#642)
);
#644=(
MASS_UNIT()
NAMED_UNIT(*)
SI_UNIT(.KILO.,.GRAM.)
);
#645=MASS_MEASURE_WITH_UNIT(MASS_MEASURE(0.001),#644);
#646=DERIVED_UNIT((#640,#641));
#647=MEASURE_REPRESENTATION_ITEM('density measure',
POSITIVE_RATIO_MEASURE(1.),#646);
#648=PROPERTY_DEFINITION_REPRESENTATION(#653,#650);
#649=PROPERTY_DEFINITION_REPRESENTATION(#654,#651);
#650=REPRESENTATION('material name',(#652),#1051);
#651=REPRESENTATION('density',(#647),#1051);
#652=DESCRIPTIVE_REPRESENTATION_ITEM('Generic','Generic');
#653=PROPERTY_DEFINITION('material property','material name',#1061);
#654=PROPERTY_DEFINITION('material property','density of part',#1061);
#655=DATE_TIME_ROLE('creation_date');
#656=APPLIED_DATE_AND_TIME_ASSIGNMENT(#657,#655,(#1061));
#657=DATE_AND_TIME(#658,#659);
#658=CALENDAR_DATE(2026,2,5);
#659=LOCAL_TIME(0,0,0.,#660);
#660=COORDINATED_UNIVERSAL_TIME_OFFSET(0,0,.BEHIND.);
#661=AXIS2_PLACEMENT_3D('',#870,#704,#705);
#662=AXIS2_PLACEMENT_3D('',#871,#706,#707);
#663=AXIS2_PLACEMENT_3D('',#880,#712,#713);
#664=AXIS2_PLACEMENT_3D('',#886,#717,#718);
#665=AXIS2_PLACEMENT_3D('',#892,#722,#723);
#666=AXIS2_PLACEMENT_3D('',#898,#727,#728);
#667=AXIS2_PLACEMENT_3D('',#907,#733,#734);
#668=AXIS2_PLACEMENT_3D('',#913,#738,#739);
#669=AXIS2_PLACEMENT_3D('',#916,#742,#743);
#670=AXIS2_PLACEMENT_3D('',#925,#748,#749);
#671=AXIS2_PLACEMENT_3D('',#931,#753,#754);
#672=AXIS2_PLACEMENT_3D('',#937,#758,#759);
#673=AXIS2_PLACEMENT_3D('',#943,#763,#764);
#674=AXIS2_PLACEMENT_3D('',#952,#769,#770);
#675=AXIS2_PLACEMENT_3D('',#958,#774,#775);
#676=AXIS2_PLACEMENT_3D('',#961,#778,#779);
#677=AXIS2_PLACEMENT_3D('',#967,#783,#784);
#678=AXIS2_PLACEMENT_3D('',#971,#786,#787);
#679=AXIS2_PLACEMENT_3D('',#973,#788,#789);
#680=AXIS2_PLACEMENT_3D('',#984,#796,#797);
#681=AXIS2_PLACEMENT_3D('',#988,#800,#801);
#682=AXIS2_PLACEMENT_3D('',#992,#804,#805);
#683=AXIS2_PLACEMENT_3D('',#996,#808,#809);
#684=AXIS2_PLACEMENT_3D('',#1000,#812,#813);
#685=AXIS2_PLACEMENT_3D('',#1002,#815,#816);
#686=AXIS2_PLACEMENT_3D('',#1006,#819,#820);
#687=AXIS2_PLACEMENT_3D('',#1010,#823,#824);
#688=AXIS2_PLACEMENT_3D('',#1014,#826,#827);
#689=AXIS2_PLACEMENT_3D('',#1016,#828,#829);
#690=AXIS2_PLACEMENT_3D('',#1018,#830,#831);
#691=AXIS2_PLACEMENT_3D('',#1020,#832,#833);
#692=AXIS2_PLACEMENT_3D('',#1021,#834,#835);
#693=AXIS2_PLACEMENT_3D('',#1022,#836,#837);
#694=AXIS2_PLACEMENT_3D('',#1023,#838,#839);
#695=AXIS2_PLACEMENT_3D('',#1025,#841,#842);
#696=AXIS2_PLACEMENT_3D('',#1027,#844,#845);
#697=AXIS2_PLACEMENT_3D('',#1029,#847,#848);
#698=AXIS2_PLACEMENT_3D('',#1031,#850,#851);
#699=AXIS2_PLACEMENT_3D('',#1032,#852,#853);
#700=AXIS2_PLACEMENT_3D('',#1038,#857,#858);
#701=AXIS2_PLACEMENT_3D('',#1042,#861,#862);
#702=AXIS2_PLACEMENT_3D('',#1046,#865,#866);
#703=AXIS2_PLACEMENT_3D('',#1048,#868,#869);
#704=DIRECTION('axis',(0.,0.,1.));
#705=DIRECTION('refdir',(1.,0.,0.));
#706=DIRECTION('center_axis',(1.,0.,0.));
#707=DIRECTION('ref_axis',(0.,0.,-1.));
#708=DIRECTION('',(0.,0.,1.));
#709=DIRECTION('',(0.,1.,0.));
#710=DIRECTION('',(0.,0.,-1.));
#711=DIRECTION('',(0.,1.,0.));
#712=DIRECTION('center_axis',(2.77555756156289E-16,0.,1.));
#713=DIRECTION('ref_axis',(1.,0.,-2.77555756156289E-16));
#714=DIRECTION('',(-1.,0.,2.77555756156289E-16));
#715=DIRECTION('',(1.,0.,-2.77555756156289E-16));
#716=DIRECTION('',(0.,1.,0.));
#717=DIRECTION('center_axis',(-1.,0.,0.));
#718=DIRECTION('ref_axis',(0.,0.,1.));
#719=DIRECTION('',(0.,0.,-1.));
#720=DIRECTION('',(0.,0.,1.));
#721=DIRECTION('',(0.,1.,0.));
#722=DIRECTION('center_axis',(0.,0.,1.));
#723=DIRECTION('ref_axis',(1.,0.,0.));
#724=DIRECTION('',(-1.,0.,0.));
#725=DIRECTION('',(1.,0.,0.));
#726=DIRECTION('',(0.,-1.,0.));
#727=DIRECTION('center_axis',(0.,0.,-1.));
#728=DIRECTION('ref_axis',(-1.,0.,0.));
#729=DIRECTION('',(1.,0.,0.));
#730=DIRECTION('',(0.,1.,0.));
#731=DIRECTION('',(-1.,0.,0.));
#732=DIRECTION('',(0.,1.,0.));
#733=DIRECTION('center_axis',(-1.,0.,0.));
#734=DIRECTION('ref_axis',(0.,0.,1.));
#735=DIRECTION('',(0.,0.,-1.));
#736=DIRECTION('',(0.,0.,1.));
#737=DIRECTION('',(0.,1.,0.));
#738=DIRECTION('center_axis',(-1.38777878078145E-16,0.,-1.));
#739=DIRECTION('ref_axis',(-1.,0.,1.38777878078145E-16));
#740=DIRECTION('',(1.,0.,-1.38777878078145E-16));
#741=DIRECTION('',(-1.,0.,1.38777878078145E-16));
#742=DIRECTION('center_axis',(0.,0.,1.));
#743=DIRECTION('ref_axis',(1.,0.,0.));
#744=DIRECTION('',(-1.,0.,0.));
#745=DIRECTION('',(0.,1.,0.));
#746=DIRECTION('',(1.,0.,0.));
#747=DIRECTION('',(0.,1.,0.));
#748=DIRECTION('center_axis',(-1.,0.,0.));
#749=DIRECTION('ref_axis',(0.,0.,1.));
#750=DIRECTION('',(0.,0.,-1.));
#751=DIRECTION('',(0.,0.,1.));
#752=DIRECTION('',(0.,1.,0.));
#753=DIRECTION('center_axis',(0.,0.,-1.));
#754=DIRECTION('ref_axis',(-1.,0.,0.));
#755=DIRECTION('',(1.,0.,0.));
#756=DIRECTION('',(-1.,0.,0.));
#757=DIRECTION('',(0.,1.,0.));
#758=DIRECTION('center_axis',(-1.,0.,0.));
#759=DIRECTION('ref_axis',(0.,0.,1.));
#760=DIRECTION('',(0.,0.,-1.));
#761=DIRECTION('',(0.,0.,1.));
#762=DIRECTION('',(0.,-1.,0.));
#763=DIRECTION('center_axis',(1.,0.,0.));
#764=DIRECTION('ref_axis',(0.,0.,-1.));
#765=DIRECTION('',(0.,0.,1.));
#766=DIRECTION('',(0.,1.,0.));
#767=DIRECTION('',(0.,0.,-1.));
#768=DIRECTION('',(0.,1.,0.));
#769=DIRECTION('center_axis',(0.,0.,-1.));
#770=DIRECTION('ref_axis',(-1.,0.,0.));
#771=DIRECTION('',(1.,0.,0.));
#772=DIRECTION('',(-1.,0.,0.));
#773=DIRECTION('',(0.,1.,0.));
#774=DIRECTION('center_axis',(1.,0.,0.));
#775=DIRECTION('ref_axis',(0.,0.,-1.));
#776=DIRECTION('',(0.,0.,1.));
#777=DIRECTION('',(0.,0.,-1.));
#778=DIRECTION('center_axis',(-1.,0.,0.));
#779=DIRECTION('ref_axis',(0.,0.,1.));
#780=DIRECTION('',(0.,0.,-1.));
#781=DIRECTION('',(0.,1.,0.));
#782=DIRECTION('',(0.,0.,1.));
#783=DIRECTION('center_axis',(0.,-1.,0.));
#784=DIRECTION('ref_axis',(0.,0.,-1.));
#785=DIRECTION('',(0.947630976437242,0.,0.319367394228964));
#786=DIRECTION('center_axis',(0.,1.,0.));
#787=DIRECTION('ref_axis',(1.,0.,0.));
#788=DIRECTION('center_axis',(0.,1.,0.));
#789=DIRECTION('ref_axis',(1.,0.,0.));
#790=DIRECTION('',(-0.319400524693769,0.,-0.947619810274851));
#791=DIRECTION('',(-1.,0.,0.));
#792=DIRECTION('',(-1.,0.,0.));
#793=DIRECTION('',(-0.319400524693769,0.,0.947619810274851));
#794=DIRECTION('',(-0.947614273411586,0.,0.319416951376459));
#795=DIRECTION('',(0.,0.,1.));
#796=DIRECTION('center_axis',(0.,0.,-1.));
#797=DIRECTION('ref_axis',(-1.,0.,0.));
#798=DIRECTION('',(1.,0.,0.));
#799=DIRECTION('',(0.,1.,0.));
#800=DIRECTION('center_axis',(-0.319367394228964,0.,0.947630976437242));
#801=DIRECTION('ref_axis',(0.947630976437242,0.,0.319367394228964));
#802=DIRECTION('',(-0.947630976437242,0.,-0.319367394228964));
#803=DIRECTION('',(0.,-1.,0.));
#804=DIRECTION('center_axis',(-1.,0.,0.));
#805=DIRECTION('ref_axis',(0.,0.,1.));
#806=DIRECTION('',(0.,1.,0.));
#807=DIRECTION('',(0.,0.,-1.));
#808=DIRECTION('center_axis',(-0.319416951376459,0.,-0.947614273411586));
#809=DIRECTION('ref_axis',(-0.947614273411586,0.,0.319416951376459));
#810=DIRECTION('',(0.947614273411586,0.,-0.319416951376459));
#811=DIRECTION('',(0.,1.,0.));
#812=DIRECTION('center_axis',(-0.947619810274851,0.,-0.319400524693769));
#813=DIRECTION('ref_axis',(-0.319400524693769,0.,0.947619810274851));
#814=DIRECTION('',(0.319400524693769,0.,-0.947619810274851));
#815=DIRECTION('center_axis',(0.,0.,-1.));
#816=DIRECTION('ref_axis',(-1.,0.,0.));
#817=DIRECTION('',(0.,1.,0.));
#818=DIRECTION('',(1.,0.,0.));
#819=DIRECTION('center_axis',(0.947619810274851,0.,-0.319400524693769));
#820=DIRECTION('ref_axis',(-0.319400524693769,0.,-0.947619810274851));
#821=DIRECTION('',(0.319400524693769,0.,0.947619810274851));
#822=DIRECTION('',(0.,-1.,0.));
#823=DIRECTION('center_axis',(0.,-1.,0.));
#824=DIRECTION('ref_axis',(1.,0.,0.));
#825=DIRECTION('',(0.,1.,0.));
#826=DIRECTION('center_axis',(0.,-1.,0.));
#827=DIRECTION('ref_axis',(1.,0.,0.));
#828=DIRECTION('center_axis',(0.,-1.,0.));
#829=DIRECTION('ref_axis',(1.,0.,0.));
#830=DIRECTION('center_axis',(0.,-1.,0.));
#831=DIRECTION('ref_axis',(1.,0.,0.));
#832=DIRECTION('center_axis',(0.,-1.,0.));
#833=DIRECTION('ref_axis',(1.,0.,0.));
#834=DIRECTION('center_axis',(0.,-1.,0.));
#835=DIRECTION('ref_axis',(1.,0.,0.));
#836=DIRECTION('center_axis',(0.,-1.,0.));
#837=DIRECTION('ref_axis',(1.,0.,0.));
#838=DIRECTION('center_axis',(0.,-1.,0.));
#839=DIRECTION('ref_axis',(0.,0.,-1.));
#840=DIRECTION('',(1.,0.,0.));
#841=DIRECTION('center_axis',(0.,-1.,0.));
#842=DIRECTION('ref_axis',(0.,0.,-1.));
#843=DIRECTION('',(0.,0.,1.));
#844=DIRECTION('center_axis',(0.,-1.,0.));
#845=DIRECTION('ref_axis',(0.,0.,-1.));
#846=DIRECTION('',(-1.,0.,0.));
#847=DIRECTION('center_axis',(0.,-1.,0.));
#848=DIRECTION('ref_axis',(0.,0.,-1.));
#849=DIRECTION('',(0.,0.,-1.));
#850=DIRECTION('center_axis',(0.,-1.,0.));
#851=DIRECTION('ref_axis',(0.,0.,-1.));
#852=DIRECTION('center_axis',(1.,0.,0.));
#853=DIRECTION('ref_axis',(0.,0.,-1.));
#854=DIRECTION('',(0.,1.,0.));
#855=DIRECTION('',(0.,0.,-1.));
#856=DIRECTION('',(0.,1.,0.));
#857=DIRECTION('center_axis',(0.,0.,1.));
#858=DIRECTION('ref_axis',(1.,0.,0.));
#859=DIRECTION('',(1.,0.,0.));
#860=DIRECTION('',(0.,1.,0.));
#861=DIRECTION('center_axis',(-1.,0.,0.));
#862=DIRECTION('ref_axis',(0.,0.,1.));
#863=DIRECTION('',(0.,0.,1.));
#864=DIRECTION('',(0.,1.,0.));
#865=DIRECTION('center_axis',(0.,0.,-1.));
#866=DIRECTION('ref_axis',(-1.,0.,0.));
#867=DIRECTION('',(-1.,0.,0.));
#868=DIRECTION('center_axis',(0.,1.,0.));
#869=DIRECTION('ref_axis',(0.,0.,1.));
#870=CARTESIAN_POINT('',(0.,0.,0.));
#871=CARTESIAN_POINT('Origin',(-12.5003571246374,-85.,7.00035712463736));
#872=CARTESIAN_POINT('',(-12.5003571246374,-75.,3.00035712463736));
#873=CARTESIAN_POINT('',(-12.5003571246374,-75.,7.00035712463736));
#874=CARTESIAN_POINT('',(-12.5003571246374,-75.,4.03361737883413));
#875=CARTESIAN_POINT('',(-12.5003571246374,-85.,3.00035712463736));
#876=CARTESIAN_POINT('',(-12.5003571246374,-85.,3.00035712463736));
#877=CARTESIAN_POINT('',(-12.5003571246374,-85.,7.00035712463736));
#878=CARTESIAN_POINT('',(-12.5003571246374,-85.,6.00017856231866));
#879=CARTESIAN_POINT('',(-12.5003571246374,-85.,7.00035712463736));
#880=CARTESIAN_POINT('Origin',(-16.5003571246374,-85.,7.00035712463736));
#881=CARTESIAN_POINT('',(-16.5003571246374,-75.,7.00035712463736));
#882=CARTESIAN_POINT('',(-12.7168485687437,-75.,7.00035712463736));
#883=CARTESIAN_POINT('',(-16.5003571246374,-85.,7.00035712463736));
#884=CARTESIAN_POINT('',(-10.7501785623187,-85.,7.00035712463736));
#885=CARTESIAN_POINT('',(-16.5003571246374,-85.,7.00035712463736));
#886=CARTESIAN_POINT('Origin',(-16.5003571246374,-85.,6.00035712463736));
#887=CARTESIAN_POINT('',(-16.5003571246374,-75.,6.00035712463736));
#888=CARTESIAN_POINT('',(-16.5003571246374,-75.,3.53361737883413));
#889=CARTESIAN_POINT('',(-16.5003571246374,-85.,6.00035712463736));
#890=CARTESIAN_POINT('',(-16.5003571246374,-85.,5.50017856231866));
#891=CARTESIAN_POINT('',(-16.5003571246374,-85.,6.00035712463736));
#892=CARTESIAN_POINT('Origin',(-19.5003571246374,-85.,6.00035712463736));
#893=CARTESIAN_POINT('',(-19.5003571246374,-75.,6.00035712463736));
#894=CARTESIAN_POINT('',(-14.2168485687437,-75.,6.00035712463736));
#895=CARTESIAN_POINT('',(-19.5003571246374,-85.,6.00035712463736));
#896=CARTESIAN_POINT('',(-12.2501785623187,-85.,6.00035712463736));
#897=CARTESIAN_POINT('',(-19.5003571246374,-85.,6.00035712463736));
#898=CARTESIAN_POINT('Origin',(-16.5003571246374,-85.,4.00035712463736));
#899=CARTESIAN_POINT('',(-19.5003571246374,-75.,4.00035712463736));
#900=CARTESIAN_POINT('',(-16.5003571246374,-75.,4.00035712463736));
#901=CARTESIAN_POINT('',(-12.7168485687437,-75.,4.00035712463736));
#902=CARTESIAN_POINT('',(-19.5003571246374,-85.,4.00035712463736));
#903=CARTESIAN_POINT('',(-19.5003571246374,-85.,4.00035712463736));
#904=CARTESIAN_POINT('',(-16.5003571246374,-85.,4.00035712463736));
#905=CARTESIAN_POINT('',(-10.7501785623187,-85.,4.00035712463736));
#906=CARTESIAN_POINT('',(-16.5003571246374,-85.,4.00035712463736));
#907=CARTESIAN_POINT('Origin',(-16.5003571246374,-85.,3.00035712463736));
#908=CARTESIAN_POINT('',(-16.5003571246374,-75.,3.00035712463736));
#909=CARTESIAN_POINT('',(-16.5003571246374,-75.,2.03361737883413));
#910=CARTESIAN_POINT('',(-16.5003571246374,-85.,3.00035712463736));
#911=CARTESIAN_POINT('',(-16.5003571246374,-85.,4.00017856231866));
#912=CARTESIAN_POINT('',(-16.5003571246374,-85.,3.00035712463736));
#913=CARTESIAN_POINT('Origin',(-12.5003571246374,-85.,3.00035712463736));
#914=CARTESIAN_POINT('',(-10.7168485687437,-75.,3.00035712463736));
#915=CARTESIAN_POINT('',(-8.75017856231869,-85.,3.00035712463736));
#916=CARTESIAN_POINT('Origin',(-6.99999999999999,-85.,-2.50000000000003));
#917=CARTESIAN_POINT('',(-3.,-75.,-2.50000000000003));
#918=CARTESIAN_POINT('',(-6.99999999999999,-75.,-2.50000000000003));
#919=CARTESIAN_POINT('',(-7.96667000642501,-75.,-2.50000000000003));
#920=CARTESIAN_POINT('',(-3.,-85.,-2.50000000000003));
#921=CARTESIAN_POINT('',(-3.,-85.,-2.50000000000003));
#922=CARTESIAN_POINT('',(-6.99999999999999,-85.,-2.50000000000003));
#923=CARTESIAN_POINT('',(-6.,-85.,-2.50000000000003));
#924=CARTESIAN_POINT('',(-6.99999999999999,-85.,-2.50000000000003));
#925=CARTESIAN_POINT('Origin',(-6.99999999999999,-85.,-6.50000000000003));
#926=CARTESIAN_POINT('',(-6.99999999999999,-75.,-6.50000000000003));
#927=CARTESIAN_POINT('',(-6.99999999999999,-75.,-2.71656118348456));
#928=CARTESIAN_POINT('',(-6.99999999999999,-85.,-6.50000000000003));
#929=CARTESIAN_POINT('',(-6.99999999999999,-85.,-0.750000000000032));
#930=CARTESIAN_POINT('',(-6.99999999999999,-85.,-6.50000000000003));
#931=CARTESIAN_POINT('Origin',(-6.,-85.,-6.50000000000003));
#932=CARTESIAN_POINT('',(-6.,-75.,-6.50000000000003));
#933=CARTESIAN_POINT('',(-7.46667000642501,-75.,-6.50000000000003));
#934=CARTESIAN_POINT('',(-6.,-85.,-6.50000000000003));
#935=CARTESIAN_POINT('',(-5.5,-85.,-6.50000000000003));
#936=CARTESIAN_POINT('',(-6.,-85.,-6.50000000000003));
#937=CARTESIAN_POINT('Origin',(-6.,-85.,-9.50000000000003));
#938=CARTESIAN_POINT('',(-6.,-75.,-9.50000000000003));
#939=CARTESIAN_POINT('',(-6.,-75.,-4.21656118348456));
#940=CARTESIAN_POINT('',(-6.,-85.,-9.50000000000003));
#941=CARTESIAN_POINT('',(-6.,-85.,-2.25000000000003));
#942=CARTESIAN_POINT('',(-6.,-85.,-9.50000000000003));
#943=CARTESIAN_POINT('Origin',(-3.99999999999999,-85.,-6.50000000000003));
#944=CARTESIAN_POINT('',(-3.99999999999999,-75.,-9.50000000000003));
#945=CARTESIAN_POINT('',(-3.99999999999999,-75.,-6.50000000000003));
#946=CARTESIAN_POINT('',(-3.99999999999999,-75.,-2.71656118348456));
#947=CARTESIAN_POINT('',(-3.99999999999999,-85.,-9.50000000000003));
#948=CARTESIAN_POINT('',(-3.99999999999999,-85.,-9.50000000000003));
#949=CARTESIAN_POINT('',(-3.99999999999999,-85.,-6.50000000000003));
#950=CARTESIAN_POINT('',(-3.99999999999999,-85.,-0.750000000000032));
#951=CARTESIAN_POINT('',(-3.99999999999999,-85.,-6.50000000000003));
#952=CARTESIAN_POINT('Origin',(-3.,-85.,-6.50000000000003));
#953=CARTESIAN_POINT('',(-3.,-75.,-6.50000000000003));
#954=CARTESIAN_POINT('',(-5.96667000642501,-75.,-6.50000000000003));
#955=CARTESIAN_POINT('',(-3.,-85.,-6.50000000000003));
#956=CARTESIAN_POINT('',(-4.,-85.,-6.50000000000003));
#957=CARTESIAN_POINT('',(-3.,-85.,-6.50000000000003));
#958=CARTESIAN_POINT('Origin',(-3.,-85.,-2.50000000000003));
#959=CARTESIAN_POINT('',(-3.,-75.,-0.716561183484563));
#960=CARTESIAN_POINT('',(-3.,-85.,1.24999999999997));
#961=CARTESIAN_POINT('Origin',(-19.5003571246374,-85.,2.50035712463736));
#962=CARTESIAN_POINT('',(-19.5003571246374,-85.,7.50035712463736));
#963=CARTESIAN_POINT('',(-19.5003571246374,-85.,7.50035712463736));
#964=CARTESIAN_POINT('',(-19.5003571246374,-75.,7.50035712463736));
#965=CARTESIAN_POINT('',(-19.5003571246374,-85.,7.50035712463736));
#966=CARTESIAN_POINT('',(-19.5003571246374,-75.,7.50035712463736));
#967=CARTESIAN_POINT('Origin',(-8.93334001285003,-75.,1.06687763303091));
#968=CARTESIAN_POINT('',(-7.23568581647685,-75.,11.6337552660618));
#969=CARTESIAN_POINT('',(-7.23568581647685,-75.,11.6337552660618));
#970=CARTESIAN_POINT('',(-12.0003571337468,-75.,4.99999999999997));
#971=CARTESIAN_POINT('Origin',(-5.,-75.,4.99999999999997));
#972=CARTESIAN_POINT('',(1.63367709893733,-75.,2.76408225843747));
#973=CARTESIAN_POINT('Origin',(-5.,-75.,4.99999999999997));
#974=CARTESIAN_POINT('',(-2.5,-75.,-9.50000000000003));
#975=CARTESIAN_POINT('',(-2.5,-75.,-9.50000000000003));
#976=CARTESIAN_POINT('',(-7.5,-75.,-9.50000000000003));
#977=CARTESIAN_POINT('',(-7.5,-75.,-9.50000000000003));
#978=CARTESIAN_POINT('',(-7.5,-75.,-9.50000000000003));
#979=CARTESIAN_POINT('',(-10.5250792201978,-75.,-0.524983445288186));
#980=CARTESIAN_POINT('',(-11.6336770989373,-75.,2.76408225843747));
#981=CARTESIAN_POINT('',(-19.5003571246374,-75.,2.50035712463736));
#982=CARTESIAN_POINT('',(-19.5003571246374,-75.,2.50035712463736));
#983=CARTESIAN_POINT('',(-19.5003571246374,-75.,7.50035712463736));
#984=CARTESIAN_POINT('Origin',(-2.5,-85.,-9.50000000000003));
#985=CARTESIAN_POINT('',(-7.5,-85.,-9.50000000000003));
#986=CARTESIAN_POINT('',(-7.5,-85.,-9.50000000000003));
#987=CARTESIAN_POINT('',(-7.5,-85.,-9.50000000000003));
#988=CARTESIAN_POINT('Origin',(-19.5003571246374,-85.,7.50035712463736));
#989=CARTESIAN_POINT('',(-7.23568581647685,-85.,11.6337552660618));
#990=CARTESIAN_POINT('',(-7.23568581647685,-85.,11.6337552660618));
#991=CARTESIAN_POINT('',(-7.23568581647685,0.,11.6337552660618));
#992=CARTESIAN_POINT('Origin',(-19.5003571246374,-85.,2.50035712463736));
#993=CARTESIAN_POINT('',(-19.5003571246374,-85.,2.50035712463736));
#994=CARTESIAN_POINT('',(-19.5003571246374,-85.,2.50035712463736));
#995=CARTESIAN_POINT('',(-19.5003571246374,-85.,7.50035712463736));
#996=CARTESIAN_POINT('Origin',(-10.5250792201978,-85.,-0.524983445288187));
#997=CARTESIAN_POINT('',(-10.5250792201978,-85.,-0.524983445288186));
#998=CARTESIAN_POINT('',(-19.5003571246374,-85.,2.50035712463736));
#999=CARTESIAN_POINT('',(-10.5250792201978,-85.,-0.524983445288186));
#1000=CARTESIAN_POINT('Origin',(-7.5,-85.,-9.50000000000003));
#1001=CARTESIAN_POINT('',(-11.6336770989373,-85.,2.76408225843747));
#1002=CARTESIAN_POINT('Origin',(-2.5,-85.,-9.50000000000003));
#1003=CARTESIAN_POINT('',(-2.5,-85.,-9.50000000000003));
#1004=CARTESIAN_POINT('',(-2.5,-85.,-9.50000000000003));
#1005=CARTESIAN_POINT('',(-7.5,-85.,-9.50000000000003));
#1006=CARTESIAN_POINT('Origin',(1.63367709893733,-85.,2.76408225843747));
#1007=CARTESIAN_POINT('',(1.63367709893733,-85.,2.76408225843747));
#1008=CARTESIAN_POINT('',(-2.5,-85.,-9.50000000000003));
#1009=CARTESIAN_POINT('',(1.63367709893733,0.,2.76408225843747));
#1010=CARTESIAN_POINT('Origin',(-5.,0.,4.99999999999997));
#1011=CARTESIAN_POINT('',(-12.0003571337468,0.,4.99999999999997));
#1012=CARTESIAN_POINT('',(-12.0003571337468,0.,4.99999999999997));
#1013=CARTESIAN_POINT('',(-9.94999999999997,0.,0.05));
#1014=CARTESIAN_POINT('Origin',(-5.,0.,4.99999999999997));
#1015=CARTESIAN_POINT('',(-0.0500000000000178,0.,0.05));
#1016=CARTESIAN_POINT('Origin',(-5.,0.,4.99999999999997));
#1017=CARTESIAN_POINT('',(-0.0500000000000178,0.,9.94999999999994));
#1018=CARTESIAN_POINT('Origin',(-5.,0.,4.99999999999997));
#1019=CARTESIAN_POINT('',(-9.94999999999997,0.,9.94999999999994));
#1020=CARTESIAN_POINT('Origin',(-5.,0.,4.99999999999997));
#1021=CARTESIAN_POINT('Origin',(-5.,0.,4.99999999999997));
#1022=CARTESIAN_POINT('Origin',(-5.,-85.,4.99999999999997));
#1023=CARTESIAN_POINT('Origin',(-4.99999999999999,0.,4.99999999999997));
#1024=CARTESIAN_POINT('',(-9.94999999999997,0.,9.94999999999994));
#1025=CARTESIAN_POINT('Origin',(-4.99999999999999,0.,4.99999999999997));
#1026=CARTESIAN_POINT('',(-9.94999999999997,0.,0.05));
#1027=CARTESIAN_POINT('Origin',(-4.99999999999999,0.,4.99999999999997));
#1028=CARTESIAN_POINT('',(-0.0500000000000178,0.,0.05));
#1029=CARTESIAN_POINT('Origin',(-4.99999999999999,0.,4.99999999999997));
#1030=CARTESIAN_POINT('',(-0.0500000000000178,0.,9.94999999999994));
#1031=CARTESIAN_POINT('Origin',(-4.99999999999999,-85.,4.99999999999997));
#1032=CARTESIAN_POINT('Origin',(-0.0500000000000178,0.,9.94999999999994));
#1033=CARTESIAN_POINT('',(-0.0500000000000178,5.,0.05));
#1034=CARTESIAN_POINT('',(-0.0500000000000178,0.,0.05));
#1035=CARTESIAN_POINT('',(-0.0500000000000178,5.,9.94999999999994));
#1036=CARTESIAN_POINT('',(-0.0500000000000178,5.,9.94999999999994));
#1037=CARTESIAN_POINT('',(-0.0500000000000178,0.,9.94999999999994));
#1038=CARTESIAN_POINT('Origin',(-9.94999999999997,0.,9.94999999999994));
#1039=CARTESIAN_POINT('',(-9.94999999999997,5.,9.94999999999994));
#1040=CARTESIAN_POINT('',(-9.94999999999997,5.,9.94999999999994));
#1041=CARTESIAN_POINT('',(-9.94999999999997,0.,9.94999999999994));
#1042=CARTESIAN_POINT('Origin',(-9.94999999999997,0.,0.05));
#1043=CARTESIAN_POINT('',(-9.94999999999997,5.,0.05));
#1044=CARTESIAN_POINT('',(-9.94999999999997,5.,0.05));
#1045=CARTESIAN_POINT('',(-9.94999999999997,0.,0.05));
#1046=CARTESIAN_POINT('Origin',(-0.0500000000000178,0.,0.05));
#1047=CARTESIAN_POINT('',(-0.0500000000000178,5.,0.05));
#1048=CARTESIAN_POINT('Origin',(-5.,5.,4.99999999999997));
#1049=UNCERTAINTY_MEASURE_WITH_UNIT(LENGTH_MEASURE(0.01),#1053,
'DISTANCE_ACCURACY_VALUE',
'Maximum model space distance between geometric entities at asserted c
onnectivities');
#1050=UNCERTAINTY_MEASURE_WITH_UNIT(LENGTH_MEASURE(0.01),#1053,
'DISTANCE_ACCURACY_VALUE',
'Maximum model space distance between geometric entities at asserted c
onnectivities');
#1051=(
GEOMETRIC_REPRESENTATION_CONTEXT(3)
GLOBAL_UNCERTAINTY_ASSIGNED_CONTEXT((#1049))
GLOBAL_UNIT_ASSIGNED_CONTEXT((#1053,#1055,#1056))
REPRESENTATION_CONTEXT('','3D')
);
#1052=(
GEOMETRIC_REPRESENTATION_CONTEXT(3)
GLOBAL_UNCERTAINTY_ASSIGNED_CONTEXT((#1050))
GLOBAL_UNIT_ASSIGNED_CONTEXT((#1053,#1055,#1056))
REPRESENTATION_CONTEXT('','3D')
);
#1053=(
LENGTH_UNIT()
NAMED_UNIT(*)
SI_UNIT(.MILLI.,.METRE.)
);
#1054=(
LENGTH_UNIT()
NAMED_UNIT(*)
SI_UNIT(.CENTI.,.METRE.)
);
#1055=(
NAMED_UNIT(*)
PLANE_ANGLE_UNIT()
SI_UNIT($,.RADIAN.)
);
#1056=(
NAMED_UNIT(*)
SI_UNIT($,.STERADIAN.)
SOLID_ANGLE_UNIT()
);
#1057=SHAPE_DEFINITION_REPRESENTATION(#1058,#1059);
#1058=PRODUCT_DEFINITION_SHAPE('',$,#1061);
#1059=SHAPE_REPRESENTATION('',(#661),#1051);
#1060=PRODUCT_DEFINITION_CONTEXT('part definition',#1065,'design');
#1061=PRODUCT_DEFINITION('LegV2','LegV2',#1062,#1060);
#1062=PRODUCT_DEFINITION_FORMATION('',$,#1067);
#1063=PRODUCT_RELATED_PRODUCT_CATEGORY('LegV2','LegV2',(#1067));
#1064=APPLICATION_PROTOCOL_DEFINITION('international standard',
'automotive_design',2009,#1065);
#1065=APPLICATION_CONTEXT(
'Core Data for Automotive Mechanical Design Process');
#1066=PRODUCT_CONTEXT('part definition',#1065,'mechanical');
#1067=PRODUCT('LegV2','LegV2',$,(#1066));
#1068=PRESENTATION_STYLE_ASSIGNMENT((#1069));
#1069=SURFACE_STYLE_USAGE(.BOTH.,#1072);
#1070=SURFACE_STYLE_RENDERING_WITH_PROPERTIES($,#1076,(#1071));
#1071=SURFACE_STYLE_TRANSPARENT(0.);
#1072=SURFACE_SIDE_STYLE('',(#1073,#1070));
#1073=SURFACE_STYLE_FILL_AREA(#1074);
#1074=FILL_AREA_STYLE('',(#1075));
#1075=FILL_AREA_STYLE_COLOUR('',#1076);
#1076=COLOUR_RGB('',0.749019607843137,0.749019607843137,0.749019607843137);
ENDSEC;
END-ISO-10303-21;
