ISO-10303-21;
HEADER;
/* Generated by software containing ST-Developer
 * from STEP Tools, Inc. (www.steptools.com) 
 */

FILE_DESCRIPTION(
/* description */ (''),
/* implementation_level */ '2;1');

FILE_NAME(
/* name */ 'ExtensionFastener.stp',
/* time_stamp */ '2026-06-23T19:42:04+02:00',
/* author */ ('frede'),
/* organization */ (''),
/* preprocessor_version */ 'ST-DEVELOPER v20.1',
/* originating_system */ 'Autodesk Inventor 2026',
/* authorisation */ '');

FILE_SCHEMA (('AUTOMOTIVE_DESIGN { 1 0 10303 214 3 1 1 }'));
ENDSEC;

DATA;
#10=MECHANICAL_DESIGN_GEOMETRIC_PRESENTATION_REPRESENTATION('',(#13),#756);
#11=SHAPE_REPRESENTATION_RELATIONSHIP('SRR','None',#763,#12);
#12=ADVANCED_BREP_SHAPE_REPRESENTATION('',(#14),#755);
#13=STYLED_ITEM('',(#772),#14);
#14=MANIFOLD_SOLID_BREP('Solid1',#422);
#15=ELLIPSE('',#468,0.577350269189626,0.5);
#16=ELLIPSE('',#469,0.577350269189626,0.5);
#17=ELLIPSE('',#471,0.577350269189626,0.5);
#18=ELLIPSE('',#473,0.577350269189626,0.5);
#19=ELLIPSE('',#475,0.577350269189626,0.5);
#20=ELLIPSE('',#477,0.577350269189625,0.5);
#21=ELLIPSE('',#483,0.577350269189626,0.5);
#22=ELLIPSE('',#484,0.577350269189626,0.5);
#23=ELLIPSE('',#486,0.577350269189626,0.5);
#24=ELLIPSE('',#488,0.577350269189626,0.5);
#25=ELLIPSE('',#490,0.577350269189626,0.5);
#26=ELLIPSE('',#491,0.577350269189626,0.5);
#27=FACE_BOUND('',#147,.T.);
#28=FACE_BOUND('',#150,.T.);
#29=FACE_BOUND('',#155,.T.);
#30=PLANE('',#451);
#31=PLANE('',#456);
#32=PLANE('',#466);
#33=PLANE('',#479);
#34=PLANE('',#480);
#35=PLANE('',#481);
#36=PLANE('',#494);
#37=PLANE('',#495);
#38=PLANE('',#496);
#39=LINE('',#645,#71);
#40=LINE('',#656,#72);
#41=LINE('',#658,#73);
#42=LINE('',#660,#74);
#43=LINE('',#662,#75);
#44=LINE('',#664,#76);
#45=LINE('',#665,#77);
#46=LINE('',#674,#78);
#47=LINE('',#683,#79);
#48=LINE('',#685,#80);
#49=LINE('',#687,#81);
#50=LINE('',#689,#82);
#51=LINE('',#691,#83);
#52=LINE('',#692,#84);
#53=LINE('',#697,#85);
#54=LINE('',#702,#86);
#55=LINE('',#705,#87);
#56=LINE('',#709,#88);
#57=LINE('',#713,#89);
#58=LINE('',#716,#90);
#59=LINE('',#719,#91);
#60=LINE('',#721,#92);
#61=LINE('',#722,#93);
#62=LINE('',#725,#94);
#63=LINE('',#726,#95);
#64=LINE('',#729,#96);
#65=LINE('',#730,#97);
#66=LINE('',#741,#98);
#67=LINE('',#745,#99);
#68=LINE('',#747,#100);
#69=LINE('',#749,#101);
#70=LINE('',#751,#102);
#71=VECTOR('',#511,15.);
#72=VECTOR('',#524,10.);
#73=VECTOR('',#525,10.);
#74=VECTOR('',#526,10.);
#75=VECTOR('',#527,10.);
#76=VECTOR('',#528,10.);
#77=VECTOR('',#529,10.);
#78=VECTOR('',#540,3.25);
#79=VECTOR('',#551,10.);
#80=VECTOR('',#552,10.);
#81=VECTOR('',#553,10.);
#82=VECTOR('',#554,10.);
#83=VECTOR('',#555,10.);
#84=VECTOR('',#556,10.);
#85=VECTOR('',#561,10.);
#86=VECTOR('',#568,10.);
#87=VECTOR('',#571,10.);
#88=VECTOR('',#576,10.);
#89=VECTOR('',#581,10.);
#90=VECTOR('',#586,10.);
#91=VECTOR('',#589,10.);
#92=VECTOR('',#590,10.);
#93=VECTOR('',#591,10.);
#94=VECTOR('',#594,10.);
#95=VECTOR('',#595,10.);
#96=VECTOR('',#598,10.);
#97=VECTOR('',#599,10.);
#98=VECTOR('',#616,10.);
#99=VECTOR('',#623,10.);
#100=VECTOR('',#626,10.);
#101=VECTOR('',#629,10.);
#102=VECTOR('',#632,10.);
#103=CYLINDRICAL_SURFACE('',#449,15.);
#104=CYLINDRICAL_SURFACE('',#460,3.25);
#105=CYLINDRICAL_SURFACE('',#467,0.5);
#106=CYLINDRICAL_SURFACE('',#470,0.5);
#107=CYLINDRICAL_SURFACE('',#472,0.5);
#108=CYLINDRICAL_SURFACE('',#474,0.5);
#109=CYLINDRICAL_SURFACE('',#476,0.5);
#110=CYLINDRICAL_SURFACE('',#478,0.5);
#111=CYLINDRICAL_SURFACE('',#482,0.5);
#112=CYLINDRICAL_SURFACE('',#485,0.5);
#113=CYLINDRICAL_SURFACE('',#487,0.5);
#114=CYLINDRICAL_SURFACE('',#489,0.5);
#115=CYLINDRICAL_SURFACE('',#492,0.5);
#116=CYLINDRICAL_SURFACE('',#493,0.5);
#117=FACE_OUTER_BOUND('',#144,.T.);
#118=FACE_OUTER_BOUND('',#145,.T.);
#119=FACE_OUTER_BOUND('',#146,.T.);
#120=FACE_OUTER_BOUND('',#148,.T.);
#121=FACE_OUTER_BOUND('',#149,.T.);
#122=FACE_OUTER_BOUND('',#151,.T.);
#123=FACE_OUTER_BOUND('',#152,.T.);
#124=FACE_OUTER_BOUND('',#153,.T.);
#125=FACE_OUTER_BOUND('',#154,.T.);
#126=FACE_OUTER_BOUND('',#156,.T.);
#127=FACE_OUTER_BOUND('',#157,.T.);
#128=FACE_OUTER_BOUND('',#158,.T.);
#129=FACE_OUTER_BOUND('',#159,.T.);
#130=FACE_OUTER_BOUND('',#160,.T.);
#131=FACE_OUTER_BOUND('',#161,.T.);
#132=FACE_OUTER_BOUND('',#162,.T.);
#133=FACE_OUTER_BOUND('',#163,.T.);
#134=FACE_OUTER_BOUND('',#164,.T.);
#135=FACE_OUTER_BOUND('',#165,.T.);
#136=FACE_OUTER_BOUND('',#166,.T.);
#137=FACE_OUTER_BOUND('',#167,.T.);
#138=FACE_OUTER_BOUND('',#168,.T.);
#139=FACE_OUTER_BOUND('',#169,.T.);
#140=FACE_OUTER_BOUND('',#170,.T.);
#141=FACE_OUTER_BOUND('',#171,.T.);
#142=FACE_OUTER_BOUND('',#172,.T.);
#143=FACE_OUTER_BOUND('',#173,.T.);
#144=EDGE_LOOP('',(#277,#278,#279,#280));
#145=EDGE_LOOP('',(#281,#282,#283,#284));
#146=EDGE_LOOP('',(#285));
#147=EDGE_LOOP('',(#286));
#148=EDGE_LOOP('',(#287,#288,#289,#290));
#149=EDGE_LOOP('',(#291));
#150=EDGE_LOOP('',(#292,#293,#294,#295,#296,#297));
#151=EDGE_LOOP('',(#298,#299,#300,#301));
#152=EDGE_LOOP('',(#302,#303,#304,#305,#306));
#153=EDGE_LOOP('',(#307,#308,#309,#310,#311));
#154=EDGE_LOOP('',(#312,#313,#314,#315,#316,#317));
#155=EDGE_LOOP('',(#318));
#156=EDGE_LOOP('',(#319,#320,#321,#322));
#157=EDGE_LOOP('',(#323,#324,#325,#326));
#158=EDGE_LOOP('',(#327,#328,#329,#330));
#159=EDGE_LOOP('',(#331,#332,#333,#334));
#160=EDGE_LOOP('',(#335,#336,#337,#338));
#161=EDGE_LOOP('',(#339,#340,#341,#342));
#162=EDGE_LOOP('',(#343,#344,#345,#346));
#163=EDGE_LOOP('',(#347,#348,#349,#350));
#164=EDGE_LOOP('',(#351,#352,#353,#354));
#165=EDGE_LOOP('',(#355,#356,#357,#358));
#166=EDGE_LOOP('',(#359,#360,#361,#362));
#167=EDGE_LOOP('',(#363,#364,#365,#366));
#168=EDGE_LOOP('',(#367,#368,#369,#370));
#169=EDGE_LOOP('',(#371,#372,#373,#374));
#170=EDGE_LOOP('',(#375,#376,#377,#378));
#171=EDGE_LOOP('',(#379,#380,#381,#382));
#172=EDGE_LOOP('',(#383,#384,#385,#386));
#173=EDGE_LOOP('',(#387,#388,#389,#390));
#174=CIRCLE('',#446,15.);
#175=CIRCLE('',#447,1.);
#176=CIRCLE('',#448,14.);
#177=CIRCLE('',#450,15.);
#178=CIRCLE('',#452,4.25);
#179=CIRCLE('',#454,14.);
#180=CIRCLE('',#455,1.);
#181=CIRCLE('',#458,3.25);
#182=CIRCLE('',#459,1.);
#183=CIRCLE('',#461,3.25);
#184=CIRCLE('',#462,3.25);
#185=CIRCLE('',#464,1.);
#186=CIRCLE('',#465,4.25);
#187=VERTEX_POINT('',#637);
#188=VERTEX_POINT('',#639);
#189=VERTEX_POINT('',#643);
#190=VERTEX_POINT('',#647);
#191=VERTEX_POINT('',#650);
#192=VERTEX_POINT('',#654);
#193=VERTEX_POINT('',#655);
#194=VERTEX_POINT('',#657);
#195=VERTEX_POINT('',#659);
#196=VERTEX_POINT('',#661);
#197=VERTEX_POINT('',#663);
#198=VERTEX_POINT('',#667);
#199=VERTEX_POINT('',#671);
#200=VERTEX_POINT('',#672);
#201=VERTEX_POINT('',#677);
#202=VERTEX_POINT('',#681);
#203=VERTEX_POINT('',#682);
#204=VERTEX_POINT('',#684);
#205=VERTEX_POINT('',#686);
#206=VERTEX_POINT('',#688);
#207=VERTEX_POINT('',#690);
#208=VERTEX_POINT('',#694);
#209=VERTEX_POINT('',#696);
#210=VERTEX_POINT('',#700);
#211=VERTEX_POINT('',#704);
#212=VERTEX_POINT('',#708);
#213=VERTEX_POINT('',#712);
#214=VERTEX_POINT('',#718);
#215=VERTEX_POINT('',#720);
#216=VERTEX_POINT('',#724);
#217=VERTEX_POINT('',#728);
#218=VERTEX_POINT('',#739);
#219=VERTEX_POINT('',#740);
#220=EDGE_CURVE('',#187,#187,#174,.T.);
#221=EDGE_CURVE('',#187,#188,#175,.T.);
#222=EDGE_CURVE('',#188,#188,#176,.T.);
#223=EDGE_CURVE('',#189,#189,#177,.T.);
#224=EDGE_CURVE('',#189,#187,#39,.T.);
#225=EDGE_CURVE('',#190,#190,#178,.T.);
#226=EDGE_CURVE('',#191,#191,#179,.T.);
#227=EDGE_CURVE('',#191,#189,#180,.T.);
#228=EDGE_CURVE('',#192,#193,#40,.T.);
#229=EDGE_CURVE('',#194,#192,#41,.T.);
#230=EDGE_CURVE('',#195,#194,#42,.T.);
#231=EDGE_CURVE('',#196,#195,#43,.T.);
#232=EDGE_CURVE('',#197,#196,#44,.T.);
#233=EDGE_CURVE('',#193,#197,#45,.T.);
#234=EDGE_CURVE('',#198,#198,#181,.T.);
#235=EDGE_CURVE('',#198,#190,#182,.T.);
#236=EDGE_CURVE('',#199,#200,#183,.T.);
#237=EDGE_CURVE('',#199,#198,#46,.T.);
#238=EDGE_CURVE('',#200,#199,#184,.T.);
#239=EDGE_CURVE('',#200,#201,#185,.T.);
#240=EDGE_CURVE('',#201,#201,#186,.T.);
#241=EDGE_CURVE('',#202,#203,#47,.T.);
#242=EDGE_CURVE('',#204,#202,#48,.T.);
#243=EDGE_CURVE('',#205,#204,#49,.T.);
#244=EDGE_CURVE('',#206,#205,#50,.T.);
#245=EDGE_CURVE('',#207,#206,#51,.T.);
#246=EDGE_CURVE('',#203,#207,#52,.T.);
#247=EDGE_CURVE('',#203,#208,#15,.T.);
#248=EDGE_CURVE('',#208,#209,#53,.T.);
#249=EDGE_CURVE('',#202,#209,#16,.T.);
#250=EDGE_CURVE('',#207,#210,#17,.T.);
#251=EDGE_CURVE('',#210,#208,#54,.T.);
#252=EDGE_CURVE('',#211,#210,#55,.T.);
#253=EDGE_CURVE('',#206,#211,#18,.T.);
#254=EDGE_CURVE('',#212,#211,#56,.T.);
#255=EDGE_CURVE('',#205,#212,#19,.T.);
#256=EDGE_CURVE('',#213,#212,#57,.T.);
#257=EDGE_CURVE('',#204,#213,#20,.T.);
#258=EDGE_CURVE('',#209,#213,#58,.T.);
#259=EDGE_CURVE('',#214,#213,#59,.T.);
#260=EDGE_CURVE('',#215,#214,#60,.T.);
#261=EDGE_CURVE('',#215,#212,#61,.T.);
#262=EDGE_CURVE('',#216,#209,#62,.T.);
#263=EDGE_CURVE('',#214,#216,#63,.T.);
#264=EDGE_CURVE('',#217,#208,#64,.T.);
#265=EDGE_CURVE('',#216,#217,#65,.T.);
#266=EDGE_CURVE('',#196,#216,#21,.T.);
#267=EDGE_CURVE('',#197,#217,#22,.T.);
#268=EDGE_CURVE('',#195,#214,#23,.T.);
#269=EDGE_CURVE('',#194,#215,#24,.T.);
#270=EDGE_CURVE('',#218,#219,#66,.T.);
#271=EDGE_CURVE('',#219,#192,#25,.T.);
#272=EDGE_CURVE('',#193,#218,#26,.T.);
#273=EDGE_CURVE('',#219,#215,#67,.T.);
#274=EDGE_CURVE('',#217,#218,#68,.T.);
#275=EDGE_CURVE('',#219,#211,#69,.T.);
#276=EDGE_CURVE('',#218,#210,#70,.T.);
#277=ORIENTED_EDGE('',*,*,#220,.T.);
#278=ORIENTED_EDGE('',*,*,#221,.T.);
#279=ORIENTED_EDGE('',*,*,#222,.T.);
#280=ORIENTED_EDGE('',*,*,#221,.F.);
#281=ORIENTED_EDGE('',*,*,#223,.F.);
#282=ORIENTED_EDGE('',*,*,#224,.T.);
#283=ORIENTED_EDGE('',*,*,#220,.F.);
#284=ORIENTED_EDGE('',*,*,#224,.F.);
#285=ORIENTED_EDGE('',*,*,#222,.F.);
#286=ORIENTED_EDGE('',*,*,#225,.F.);
#287=ORIENTED_EDGE('',*,*,#226,.T.);
#288=ORIENTED_EDGE('',*,*,#227,.T.);
#289=ORIENTED_EDGE('',*,*,#223,.T.);
#290=ORIENTED_EDGE('',*,*,#227,.F.);
#291=ORIENTED_EDGE('',*,*,#226,.F.);
#292=ORIENTED_EDGE('',*,*,#228,.F.);
#293=ORIENTED_EDGE('',*,*,#229,.F.);
#294=ORIENTED_EDGE('',*,*,#230,.F.);
#295=ORIENTED_EDGE('',*,*,#231,.F.);
#296=ORIENTED_EDGE('',*,*,#232,.F.);
#297=ORIENTED_EDGE('',*,*,#233,.F.);
#298=ORIENTED_EDGE('',*,*,#234,.T.);
#299=ORIENTED_EDGE('',*,*,#235,.T.);
#300=ORIENTED_EDGE('',*,*,#225,.T.);
#301=ORIENTED_EDGE('',*,*,#235,.F.);
#302=ORIENTED_EDGE('',*,*,#236,.F.);
#303=ORIENTED_EDGE('',*,*,#237,.T.);
#304=ORIENTED_EDGE('',*,*,#234,.F.);
#305=ORIENTED_EDGE('',*,*,#237,.F.);
#306=ORIENTED_EDGE('',*,*,#238,.F.);
#307=ORIENTED_EDGE('',*,*,#236,.T.);
#308=ORIENTED_EDGE('',*,*,#239,.T.);
#309=ORIENTED_EDGE('',*,*,#240,.T.);
#310=ORIENTED_EDGE('',*,*,#239,.F.);
#311=ORIENTED_EDGE('',*,*,#238,.T.);
#312=ORIENTED_EDGE('',*,*,#241,.F.);
#313=ORIENTED_EDGE('',*,*,#242,.F.);
#314=ORIENTED_EDGE('',*,*,#243,.F.);
#315=ORIENTED_EDGE('',*,*,#244,.F.);
#316=ORIENTED_EDGE('',*,*,#245,.F.);
#317=ORIENTED_EDGE('',*,*,#246,.F.);
#318=ORIENTED_EDGE('',*,*,#240,.F.);
#319=ORIENTED_EDGE('',*,*,#241,.T.);
#320=ORIENTED_EDGE('',*,*,#247,.T.);
#321=ORIENTED_EDGE('',*,*,#248,.T.);
#322=ORIENTED_EDGE('',*,*,#249,.F.);
#323=ORIENTED_EDGE('',*,*,#246,.T.);
#324=ORIENTED_EDGE('',*,*,#250,.T.);
#325=ORIENTED_EDGE('',*,*,#251,.T.);
#326=ORIENTED_EDGE('',*,*,#247,.F.);
#327=ORIENTED_EDGE('',*,*,#252,.T.);
#328=ORIENTED_EDGE('',*,*,#250,.F.);
#329=ORIENTED_EDGE('',*,*,#245,.T.);
#330=ORIENTED_EDGE('',*,*,#253,.T.);
#331=ORIENTED_EDGE('',*,*,#254,.T.);
#332=ORIENTED_EDGE('',*,*,#253,.F.);
#333=ORIENTED_EDGE('',*,*,#244,.T.);
#334=ORIENTED_EDGE('',*,*,#255,.T.);
#335=ORIENTED_EDGE('',*,*,#256,.T.);
#336=ORIENTED_EDGE('',*,*,#255,.F.);
#337=ORIENTED_EDGE('',*,*,#243,.T.);
#338=ORIENTED_EDGE('',*,*,#257,.T.);
#339=ORIENTED_EDGE('',*,*,#258,.T.);
#340=ORIENTED_EDGE('',*,*,#257,.F.);
#341=ORIENTED_EDGE('',*,*,#242,.T.);
#342=ORIENTED_EDGE('',*,*,#249,.T.);
#343=ORIENTED_EDGE('',*,*,#256,.F.);
#344=ORIENTED_EDGE('',*,*,#259,.F.);
#345=ORIENTED_EDGE('',*,*,#260,.F.);
#346=ORIENTED_EDGE('',*,*,#261,.T.);
#347=ORIENTED_EDGE('',*,*,#258,.F.);
#348=ORIENTED_EDGE('',*,*,#262,.F.);
#349=ORIENTED_EDGE('',*,*,#263,.F.);
#350=ORIENTED_EDGE('',*,*,#259,.T.);
#351=ORIENTED_EDGE('',*,*,#248,.F.);
#352=ORIENTED_EDGE('',*,*,#264,.F.);
#353=ORIENTED_EDGE('',*,*,#265,.F.);
#354=ORIENTED_EDGE('',*,*,#262,.T.);
#355=ORIENTED_EDGE('',*,*,#232,.T.);
#356=ORIENTED_EDGE('',*,*,#266,.T.);
#357=ORIENTED_EDGE('',*,*,#265,.T.);
#358=ORIENTED_EDGE('',*,*,#267,.F.);
#359=ORIENTED_EDGE('',*,*,#231,.T.);
#360=ORIENTED_EDGE('',*,*,#268,.T.);
#361=ORIENTED_EDGE('',*,*,#263,.T.);
#362=ORIENTED_EDGE('',*,*,#266,.F.);
#363=ORIENTED_EDGE('',*,*,#230,.T.);
#364=ORIENTED_EDGE('',*,*,#269,.T.);
#365=ORIENTED_EDGE('',*,*,#260,.T.);
#366=ORIENTED_EDGE('',*,*,#268,.F.);
#367=ORIENTED_EDGE('',*,*,#270,.T.);
#368=ORIENTED_EDGE('',*,*,#271,.T.);
#369=ORIENTED_EDGE('',*,*,#228,.T.);
#370=ORIENTED_EDGE('',*,*,#272,.T.);
#371=ORIENTED_EDGE('',*,*,#229,.T.);
#372=ORIENTED_EDGE('',*,*,#271,.F.);
#373=ORIENTED_EDGE('',*,*,#273,.T.);
#374=ORIENTED_EDGE('',*,*,#269,.F.);
#375=ORIENTED_EDGE('',*,*,#274,.T.);
#376=ORIENTED_EDGE('',*,*,#272,.F.);
#377=ORIENTED_EDGE('',*,*,#233,.T.);
#378=ORIENTED_EDGE('',*,*,#267,.T.);
#379=ORIENTED_EDGE('',*,*,#254,.F.);
#380=ORIENTED_EDGE('',*,*,#261,.F.);
#381=ORIENTED_EDGE('',*,*,#273,.F.);
#382=ORIENTED_EDGE('',*,*,#275,.T.);
#383=ORIENTED_EDGE('',*,*,#252,.F.);
#384=ORIENTED_EDGE('',*,*,#275,.F.);
#385=ORIENTED_EDGE('',*,*,#270,.F.);
#386=ORIENTED_EDGE('',*,*,#276,.T.);
#387=ORIENTED_EDGE('',*,*,#251,.F.);
#388=ORIENTED_EDGE('',*,*,#276,.F.);
#389=ORIENTED_EDGE('',*,*,#274,.F.);
#390=ORIENTED_EDGE('',*,*,#264,.T.);
#391=TOROIDAL_SURFACE('',#445,14.,1.);
#392=TOROIDAL_SURFACE('',#453,14.,1.);
#393=TOROIDAL_SURFACE('',#457,4.25,1.);
#394=TOROIDAL_SURFACE('',#463,4.25,1.);
#395=ADVANCED_FACE('',(#117),#391,.T.);
#396=ADVANCED_FACE('',(#118),#103,.T.);
#397=ADVANCED_FACE('',(#119,#27),#30,.F.);
#398=ADVANCED_FACE('',(#120),#392,.T.);
#399=ADVANCED_FACE('',(#121,#28),#31,.T.);
#400=ADVANCED_FACE('',(#122),#393,.T.);
#401=ADVANCED_FACE('',(#123),#104,.F.);
#402=ADVANCED_FACE('',(#124),#394,.T.);
#403=ADVANCED_FACE('',(#125,#29),#32,.T.);
#404=ADVANCED_FACE('',(#126),#105,.F.);
#405=ADVANCED_FACE('',(#127),#106,.F.);
#406=ADVANCED_FACE('',(#128),#107,.F.);
#407=ADVANCED_FACE('',(#129),#108,.F.);
#408=ADVANCED_FACE('',(#130),#109,.F.);
#409=ADVANCED_FACE('',(#131),#110,.F.);
#410=ADVANCED_FACE('',(#132),#33,.F.);
#411=ADVANCED_FACE('',(#133),#34,.F.);
#412=ADVANCED_FACE('',(#134),#35,.F.);
#413=ADVANCED_FACE('',(#135),#111,.T.);
#414=ADVANCED_FACE('',(#136),#112,.T.);
#415=ADVANCED_FACE('',(#137),#113,.T.);
#416=ADVANCED_FACE('',(#138),#114,.T.);
#417=ADVANCED_FACE('',(#139),#115,.T.);
#418=ADVANCED_FACE('',(#140),#116,.T.);
#419=ADVANCED_FACE('',(#141),#36,.F.);
#420=ADVANCED_FACE('',(#142),#37,.F.);
#421=ADVANCED_FACE('',(#143),#38,.F.);
#422=CLOSED_SHELL('',(#395,#396,#397,#398,#399,#400,#401,#402,#403,#404,
#405,#406,#407,#408,#409,#410,#411,#412,#413,#414,#415,#416,#417,#418,#419,
#420,#421));
#423=DERIVED_UNIT_ELEMENT(#426,1.);
#424=DERIVED_UNIT_ELEMENT(#758,-3.);
#425=DIMENSIONAL_EXPONENTS(0.,1.,0.,0.,0.,0.,0.);
#426=(
CONVERSION_BASED_UNIT('gram',#428)
MASS_UNIT()
NAMED_UNIT(#425)
);
#427=(
MASS_UNIT()
NAMED_UNIT(*)
SI_UNIT(.KILO.,.GRAM.)
);
#428=MASS_MEASURE_WITH_UNIT(MASS_MEASURE(0.001),#427);
#429=DERIVED_UNIT((#423,#424));
#430=MEASURE_REPRESENTATION_ITEM('density measure',
POSITIVE_RATIO_MEASURE(1.),#429);
#431=PROPERTY_DEFINITION_REPRESENTATION(#436,#433);
#432=PROPERTY_DEFINITION_REPRESENTATION(#437,#434);
#433=REPRESENTATION('material name',(#435),#755);
#434=REPRESENTATION('density',(#430),#755);
#435=DESCRIPTIVE_REPRESENTATION_ITEM('Generic','Generic');
#436=PROPERTY_DEFINITION('material property','material name',#765);
#437=PROPERTY_DEFINITION('material property','density of part',#765);
#438=DATE_TIME_ROLE('creation_date');
#439=APPLIED_DATE_AND_TIME_ASSIGNMENT(#440,#438,(#765));
#440=DATE_AND_TIME(#441,#442);
#441=CALENDAR_DATE(2026,23,6);
#442=LOCAL_TIME(0,0,0.,#443);
#443=COORDINATED_UNIVERSAL_TIME_OFFSET(0,0,.BEHIND.);
#444=AXIS2_PLACEMENT_3D('',#635,#497,#498);
#445=AXIS2_PLACEMENT_3D('',#636,#499,#500);
#446=AXIS2_PLACEMENT_3D('',#638,#501,#502);
#447=AXIS2_PLACEMENT_3D('',#640,#503,#504);
#448=AXIS2_PLACEMENT_3D('',#641,#505,#506);
#449=AXIS2_PLACEMENT_3D('',#642,#507,#508);
#450=AXIS2_PLACEMENT_3D('',#644,#509,#510);
#451=AXIS2_PLACEMENT_3D('',#646,#512,#513);
#452=AXIS2_PLACEMENT_3D('',#648,#514,#515);
#453=AXIS2_PLACEMENT_3D('',#649,#516,#517);
#454=AXIS2_PLACEMENT_3D('',#651,#518,#519);
#455=AXIS2_PLACEMENT_3D('',#652,#520,#521);
#456=AXIS2_PLACEMENT_3D('',#653,#522,#523);
#457=AXIS2_PLACEMENT_3D('',#666,#530,#531);
#458=AXIS2_PLACEMENT_3D('',#668,#532,#533);
#459=AXIS2_PLACEMENT_3D('',#669,#534,#535);
#460=AXIS2_PLACEMENT_3D('',#670,#536,#537);
#461=AXIS2_PLACEMENT_3D('',#673,#538,#539);
#462=AXIS2_PLACEMENT_3D('',#675,#541,#542);
#463=AXIS2_PLACEMENT_3D('',#676,#543,#544);
#464=AXIS2_PLACEMENT_3D('',#678,#545,#546);
#465=AXIS2_PLACEMENT_3D('',#679,#547,#548);
#466=AXIS2_PLACEMENT_3D('',#680,#549,#550);
#467=AXIS2_PLACEMENT_3D('',#693,#557,#558);
#468=AXIS2_PLACEMENT_3D('',#695,#559,#560);
#469=AXIS2_PLACEMENT_3D('',#698,#562,#563);
#470=AXIS2_PLACEMENT_3D('',#699,#564,#565);
#471=AXIS2_PLACEMENT_3D('',#701,#566,#567);
#472=AXIS2_PLACEMENT_3D('',#703,#569,#570);
#473=AXIS2_PLACEMENT_3D('',#706,#572,#573);
#474=AXIS2_PLACEMENT_3D('',#707,#574,#575);
#475=AXIS2_PLACEMENT_3D('',#710,#577,#578);
#476=AXIS2_PLACEMENT_3D('',#711,#579,#580);
#477=AXIS2_PLACEMENT_3D('',#714,#582,#583);
#478=AXIS2_PLACEMENT_3D('',#715,#584,#585);
#479=AXIS2_PLACEMENT_3D('',#717,#587,#588);
#480=AXIS2_PLACEMENT_3D('',#723,#592,#593);
#481=AXIS2_PLACEMENT_3D('',#727,#596,#597);
#482=AXIS2_PLACEMENT_3D('',#731,#600,#601);
#483=AXIS2_PLACEMENT_3D('',#732,#602,#603);
#484=AXIS2_PLACEMENT_3D('',#733,#604,#605);
#485=AXIS2_PLACEMENT_3D('',#734,#606,#607);
#486=AXIS2_PLACEMENT_3D('',#735,#608,#609);
#487=AXIS2_PLACEMENT_3D('',#736,#610,#611);
#488=AXIS2_PLACEMENT_3D('',#737,#612,#613);
#489=AXIS2_PLACEMENT_3D('',#738,#614,#615);
#490=AXIS2_PLACEMENT_3D('',#742,#617,#618);
#491=AXIS2_PLACEMENT_3D('',#743,#619,#620);
#492=AXIS2_PLACEMENT_3D('',#744,#621,#622);
#493=AXIS2_PLACEMENT_3D('',#746,#624,#625);
#494=AXIS2_PLACEMENT_3D('',#748,#627,#628);
#495=AXIS2_PLACEMENT_3D('',#750,#630,#631);
#496=AXIS2_PLACEMENT_3D('',#752,#633,#634);
#497=DIRECTION('axis',(0.,0.,1.));
#498=DIRECTION('refdir',(1.,0.,0.));
#499=DIRECTION('center_axis',(0.,0.,1.));
#500=DIRECTION('ref_axis',(1.,0.,0.));
#501=DIRECTION('center_axis',(0.,0.,-1.));
#502=DIRECTION('ref_axis',(-1.,1.22464679914735E-16,0.));
#503=DIRECTION('center_axis',(1.22464679914735E-16,-1.,0.));
#504=DIRECTION('ref_axis',(-1.,-1.22464679914735E-16,0.));
#505=DIRECTION('center_axis',(0.,0.,1.));
#506=DIRECTION('ref_axis',(-1.,1.22464679914735E-16,0.));
#507=DIRECTION('center_axis',(0.,0.,1.));
#508=DIRECTION('ref_axis',(1.,0.,0.));
#509=DIRECTION('center_axis',(0.,0.,1.));
#510=DIRECTION('ref_axis',(-1.,1.22464679914735E-16,0.));
#511=DIRECTION('',(0.,0.,-1.));
#512=DIRECTION('center_axis',(0.,0.,1.));
#513=DIRECTION('ref_axis',(1.,0.,0.));
#514=DIRECTION('center_axis',(0.,0.,-1.));
#515=DIRECTION('ref_axis',(-1.,0.,0.));
#516=DIRECTION('center_axis',(0.,0.,1.));
#517=DIRECTION('ref_axis',(1.,0.,0.));
#518=DIRECTION('center_axis',(0.,0.,-1.));
#519=DIRECTION('ref_axis',(-1.,1.22464679914735E-16,0.));
#520=DIRECTION('center_axis',(1.22464679914735E-16,-1.,0.));
#521=DIRECTION('ref_axis',(-1.,-1.22464679914735E-16,0.));
#522=DIRECTION('center_axis',(0.,0.,1.));
#523=DIRECTION('ref_axis',(1.,0.,0.));
#524=DIRECTION('',(-0.00445264663856942,-0.999990086919821,0.));
#525=DIRECTION('',(-0.868243142124459,-0.496138938356834,0.));
#526=DIRECTION('',(-0.863790495485889,0.503851148562987,0.));
#527=DIRECTION('',(0.0044526466385698,0.999990086919821,0.));
#528=DIRECTION('',(0.868243142124459,0.496138938356834,0.));
#529=DIRECTION('',(0.863790495485889,-0.503851148562987,0.));
#530=DIRECTION('center_axis',(0.,0.,-1.));
#531=DIRECTION('ref_axis',(-1.,0.,0.));
#532=DIRECTION('center_axis',(0.,0.,1.));
#533=DIRECTION('ref_axis',(-1.,0.,0.));
#534=DIRECTION('center_axis',(-1.22464679914735E-16,-1.,0.));
#535=DIRECTION('ref_axis',(1.,-1.22464679914735E-16,0.));
#536=DIRECTION('center_axis',(0.,0.,1.));
#537=DIRECTION('ref_axis',(-1.,0.,0.));
#538=DIRECTION('center_axis',(0.,0.,-1.));
#539=DIRECTION('ref_axis',(-1.,0.,0.));
#540=DIRECTION('',(0.,0.,-1.));
#541=DIRECTION('center_axis',(0.,0.,-1.));
#542=DIRECTION('ref_axis',(-1.,0.,0.));
#543=DIRECTION('center_axis',(0.,0.,1.));
#544=DIRECTION('ref_axis',(1.,0.,0.));
#545=DIRECTION('center_axis',(1.22464679914735E-16,-1.,0.));
#546=DIRECTION('ref_axis',(-1.,-1.22464679914735E-16,0.));
#547=DIRECTION('center_axis',(0.,0.,1.));
#548=DIRECTION('ref_axis',(-1.,0.,0.));
#549=DIRECTION('center_axis',(0.,0.,1.));
#550=DIRECTION('ref_axis',(1.,0.,0.));
#551=DIRECTION('',(-0.868243142124459,-0.496138938356834,0.));
#552=DIRECTION('',(-0.0044526466385698,-0.999990086919821,0.));
#553=DIRECTION('',(0.863790495485889,-0.503851148562987,0.));
#554=DIRECTION('',(0.868243142124459,0.496138938356834,0.));
#555=DIRECTION('',(0.00445264663856942,0.999990086919821,0.));
#556=DIRECTION('',(-0.863790495485889,0.503851148562987,0.));
#557=DIRECTION('center_axis',(-0.868243142124459,-0.496138938356834,0.));
#558=DIRECTION('ref_axis',(0.350823207722811,-0.613940613514919,-0.70710678118655));
#559=DIRECTION('center_axis',(-0.999990086919821,0.00445264663857007,-5.55106009447648E-16));
#560=DIRECTION('ref_axis',(0.00445264663857007,0.999990086919821,-9.61471811950135E-16));
#561=DIRECTION('',(0.868243142124459,0.496138938356834,0.));
#562=DIRECTION('center_axis',(-0.503851148562988,-0.863790495485889,0.));
#563=DIRECTION('ref_axis',(-0.863790495485889,0.503851148562988,0.));
#564=DIRECTION('center_axis',(-0.863790495485889,0.503851148562987,0.));
#565=DIRECTION('ref_axis',(-0.356276563857518,-0.610792116882559,-0.707106781186549));
#566=DIRECTION('center_axis',(-0.496138938356834,0.868243142124459,-5.50824872776838E-16));
#567=DIRECTION('ref_axis',(0.868243142124459,0.496138938356834,-9.54056665722148E-16));
#568=DIRECTION('',(0.863790495485889,-0.503851148562987,0.));
#569=DIRECTION('center_axis',(0.00445264663856942,0.999990086919821,0.));
#570=DIRECTION('ref_axis',(-0.707099771580329,0.00314849663236011,-0.707106781186549));
#571=DIRECTION('',(-0.00445264663856942,-0.999990086919821,0.));
#572=DIRECTION('center_axis',(0.503851148562988,0.863790495485889,0.));
#573=DIRECTION('ref_axis',(0.863790495485889,-0.503851148562988,0.));
#574=DIRECTION('center_axis',(0.868243142124459,0.496138938356834,0.));
#575=DIRECTION('ref_axis',(-0.350823207722812,0.613940613514918,-0.707106781186549));
#576=DIRECTION('',(-0.868243142124459,-0.496138938356834,0.));
#577=DIRECTION('center_axis',(0.999990086919821,-0.00445264663856839,-2.77553004723824E-16));
#578=DIRECTION('ref_axis',(-0.00445264663856839,-0.999990086919821,-4.80735905975069E-16));
#579=DIRECTION('center_axis',(0.863790495485889,-0.503851148562987,0.));
#580=DIRECTION('ref_axis',(0.356276563857518,0.610792116882559,-0.707106781186549));
#581=DIRECTION('',(-0.863790495485889,0.503851148562987,0.));
#582=DIRECTION('center_axis',(0.496138938356835,-0.868243142124458,-9.63943527359465E-16));
#583=DIRECTION('ref_axis',(-0.868243142124459,-0.496138938356835,-1.66959916501376E-15));
#584=DIRECTION('center_axis',(-0.0044526466385698,-0.999990086919821,0.));
#585=DIRECTION('ref_axis',(0.707099771580329,-0.00314849663236011,-0.707106781186549));
#586=DIRECTION('',(0.0044526466385698,0.999990086919821,0.));
#587=DIRECTION('center_axis',(0.503851148562987,0.863790495485889,0.));
#588=DIRECTION('ref_axis',(0.863790495485889,-0.503851148562987,0.));
#589=DIRECTION('',(0.,0.,-1.));
#590=DIRECTION('',(0.863790495485889,-0.503851148562987,0.));
#591=DIRECTION('',(0.,0.,-1.));
#592=DIRECTION('center_axis',(0.999990086919821,-0.0044526466385698,0.));
#593=DIRECTION('ref_axis',(-0.0044526466385698,-0.999990086919821,0.));
#594=DIRECTION('',(0.,0.,-1.));
#595=DIRECTION('',(-0.0044526466385698,-0.999990086919821,0.));
#596=DIRECTION('center_axis',(0.496138938356834,-0.868243142124459,0.));
#597=DIRECTION('ref_axis',(-0.868243142124459,-0.496138938356834,0.));
#598=DIRECTION('',(0.,0.,-1.));
#599=DIRECTION('',(-0.868243142124459,-0.496138938356834,0.));
#600=DIRECTION('center_axis',(-0.868243142124459,-0.496138938356834,0.));
#601=DIRECTION('ref_axis',(-0.350823207722812,0.613940613514922,0.707106781186546));
#602=DIRECTION('center_axis',(-0.503851148562986,-0.86379049548589,0.));
#603=DIRECTION('ref_axis',(0.86379049548589,-0.503851148562986,0.));
#604=DIRECTION('center_axis',(-0.999990086919821,0.00445264663856911,0.));
#605=DIRECTION('ref_axis',(-0.00445264663856911,-0.999990086919821,0.));
#606=DIRECTION('center_axis',(-0.0044526466385698,-0.999990086919821,0.));
#607=DIRECTION('ref_axis',(-0.707099771580334,0.00314849663236012,0.707106781186545));
#608=DIRECTION('center_axis',(0.496138938356833,-0.86824314212446,0.));
#609=DIRECTION('ref_axis',(0.86824314212446,0.496138938356833,0.));
#610=DIRECTION('center_axis',(0.863790495485889,-0.503851148562987,0.));
#611=DIRECTION('ref_axis',(-0.35627656385752,-0.610792116882561,0.707106781186547));
#612=DIRECTION('center_axis',(0.999990086919821,-0.00445264663856935,1.66531802834295E-15));
#613=DIRECTION('ref_axis',(0.00445264663856935,0.999990086919821,2.88441543585042E-15));
#614=DIRECTION('center_axis',(0.00445264663856942,0.999990086919821,0.));
#615=DIRECTION('ref_axis',(0.707099771580332,-0.00314849663236013,0.707106781186546));
#616=DIRECTION('',(0.00445264663856942,0.999990086919821,0.));
#617=DIRECTION('center_axis',(-0.503851148562987,-0.86379049548589,0.));
#618=DIRECTION('ref_axis',(0.86379049548589,-0.503851148562987,0.));
#619=DIRECTION('center_axis',(-0.496138938356834,0.868243142124459,0.));
#620=DIRECTION('ref_axis',(-0.868243142124459,-0.496138938356834,0.));
#621=DIRECTION('center_axis',(0.868243142124459,0.496138938356834,0.));
#622=DIRECTION('ref_axis',(0.350823207722814,-0.613940613514921,0.707106781186546));
#623=DIRECTION('',(0.868243142124459,0.496138938356834,0.));
#624=DIRECTION('center_axis',(-0.863790495485889,0.503851148562987,0.));
#625=DIRECTION('ref_axis',(0.35627656385752,0.610792116882561,0.707106781186547));
#626=DIRECTION('',(-0.863790495485889,0.503851148562987,0.));
#627=DIRECTION('center_axis',(-0.496138938356834,0.868243142124459,0.));
#628=DIRECTION('ref_axis',(0.868243142124459,0.496138938356834,0.));
#629=DIRECTION('',(0.,0.,-1.));
#630=DIRECTION('center_axis',(-0.999990086919821,0.00445264663856942,0.));
#631=DIRECTION('ref_axis',(0.00445264663856942,0.999990086919821,0.));
#632=DIRECTION('',(0.,0.,-1.));
#633=DIRECTION('center_axis',(-0.503851148562987,-0.863790495485889,0.));
#634=DIRECTION('ref_axis',(-0.863790495485889,0.503851148562987,0.));
#635=CARTESIAN_POINT('',(0.,0.,0.));
#636=CARTESIAN_POINT('Origin',(0.,0.,1.));
#637=CARTESIAN_POINT('',(-15.,-1.83697019872103E-15,1.));
#638=CARTESIAN_POINT('Origin',(0.,0.,1.));
#639=CARTESIAN_POINT('',(-14.,-1.71450551880629E-15,0.));
#640=CARTESIAN_POINT('Origin',(-14.,-1.71450551880629E-15,1.));
#641=CARTESIAN_POINT('Origin',(0.,0.,0.));
#642=CARTESIAN_POINT('Origin',(0.,0.,0.));
#643=CARTESIAN_POINT('',(-15.,-1.83697019872103E-15,14.));
#644=CARTESIAN_POINT('Origin',(0.,0.,14.));
#645=CARTESIAN_POINT('',(-15.,-1.83697019872103E-15,0.));
#646=CARTESIAN_POINT('Origin',(0.,0.,0.));
#647=CARTESIAN_POINT('',(4.25,-5.20474889637625E-16,0.));
#648=CARTESIAN_POINT('Origin',(0.,0.,0.));
#649=CARTESIAN_POINT('Origin',(0.,0.,14.));
#650=CARTESIAN_POINT('',(-14.,-1.71450551880629E-15,15.));
#651=CARTESIAN_POINT('Origin',(0.,0.,15.));
#652=CARTESIAN_POINT('Origin',(-14.,-1.71450551880629E-15,14.));
#653=CARTESIAN_POINT('Origin',(0.,0.,15.));
#654=CARTESIAN_POINT('',(-5.53567739352363,3.2289744184232,15.));
#655=CARTESIAN_POINT('',(-5.56421257128639,-3.17955004073508,15.));
#656=CARTESIAN_POINT('',(-5.55643609266185,-1.43308278947798,15.));
#657=CARTESIAN_POINT('',(0.0285351777627646,6.40852445915829,15.));
#658=CARTESIAN_POINT('',(-4.01930414774513,4.09547341601092,15.));
#659=CARTESIAN_POINT('',(5.56421257128639,3.17955004073508,15.));
#660=CARTESIAN_POINT('',(1.53713194491673,5.5285562054889,15.));
#661=CARTESIAN_POINT('',(5.53567739352363,-3.22897441842321,15.));
#662=CARTESIAN_POINT('',(5.55643609266186,1.43308278947798,15.));
#663=CARTESIAN_POINT('',(-0.0285351777627685,-6.40852445915829,15.));
#664=CARTESIAN_POINT('',(4.01930414774513,-4.09547341601092,15.));
#665=CARTESIAN_POINT('',(-1.53713194491673,-5.5285562054889,15.));
#666=CARTESIAN_POINT('Origin',(0.,0.,1.));
#667=CARTESIAN_POINT('',(3.25,3.9801020972289E-16,1.));
#668=CARTESIAN_POINT('Origin',(0.,0.,1.));
#669=CARTESIAN_POINT('Origin',(4.25,-5.20474889637625E-16,1.));
#670=CARTESIAN_POINT('Origin',(0.,0.,0.));
#671=CARTESIAN_POINT('',(3.25,-3.9801020972289E-16,9.));
#672=CARTESIAN_POINT('',(-3.25,-3.9801020972289E-16,9.));
#673=CARTESIAN_POINT('Origin',(0.,0.,9.));
#674=CARTESIAN_POINT('',(3.25,3.9801020972289E-16,0.));
#675=CARTESIAN_POINT('Origin',(0.,0.,9.));
#676=CARTESIAN_POINT('Origin',(0.,0.,9.));
#677=CARTESIAN_POINT('',(-4.25,-5.20474889637625E-16,10.));
#678=CARTESIAN_POINT('Origin',(-4.25,-5.20474889637625E-16,9.));
#679=CARTESIAN_POINT('Origin',(0.,0.,10.));
#680=CARTESIAN_POINT('Origin',(5.55111512312578E-16,0.,10.));
#681=CARTESIAN_POINT('',(4.53825804333919,-2.64717722591452,10.));
#682=CARTESIAN_POINT('',(-0.0233937042919985,-5.25383536741806,10.));
#683=CARTESIAN_POINT('',(3.52316520938829,-3.22723027388646,10.));
#684=CARTESIAN_POINT('',(4.56165174763119,2.60665814150354,10.));
#685=CARTESIAN_POINT('',(4.55644600574203,1.43753543611655,10.));
#686=CARTESIAN_POINT('',(0.0233937042919967,5.25383536741806,10.));
#687=CARTESIAN_POINT('',(1.03328079635374,4.66476571000301,10.));
#688=CARTESIAN_POINT('',(-4.53825804333919,2.64717722591452,10.));
#689=CARTESIAN_POINT('',(-3.52316520938829,3.22723027388646,10.));
#690=CARTESIAN_POINT('',(-4.56165174763119,-2.60665814150354,10.));
#691=CARTESIAN_POINT('',(-4.55644600574203,-1.43753543611655,10.));
#692=CARTESIAN_POINT('',(-1.03328079635374,-4.66476571000301,10.));
#693=CARTESIAN_POINT('Origin',(3.52316520938829,-3.22723027388646,10.5));
#694=CARTESIAN_POINT('',(-0.0259644410273832,-5.83117991328817,10.5));
#695=CARTESIAN_POINT('Origin',(-0.0233937042919985,-5.25383536741806,10.5));
#696=CARTESIAN_POINT('',(5.03696771843141,-2.93807582216886,10.5));
#697=CARTESIAN_POINT('',(3.77123467856671,-3.66135184494869,10.5));
#698=CARTESIAN_POINT('Origin',(4.53825804333919,-2.64717722591452,10.5));
#699=CARTESIAN_POINT('Origin',(-1.03328079635374,-4.66476571000301,10.5));
#700=CARTESIAN_POINT('',(-5.06293215945879,-2.89310409111931,10.5));
#701=CARTESIAN_POINT('Origin',(-4.56165174763119,-2.60665814150354,10.5));
#702=CARTESIAN_POINT('',(-1.28520637063523,-5.09666095774596,10.5));
#703=CARTESIAN_POINT('Origin',(-4.55644600574203,-1.43753543611655,10.5));
#704=CARTESIAN_POINT('',(-5.03696771843141,2.93807582216886,10.5));
#705=CARTESIAN_POINT('',(-5.05644104920194,-1.43530911279727,10.5));
#706=CARTESIAN_POINT('Origin',(-4.53825804333919,2.64717722591452,10.5));
#707=CARTESIAN_POINT('Origin',(-3.52316520938829,3.22723027388646,10.5));
#708=CARTESIAN_POINT('',(0.0259644410273806,5.83117991328817,10.5));
#709=CARTESIAN_POINT('',(-3.77123467856671,3.66135184494869,10.5));
#710=CARTESIAN_POINT('Origin',(0.0233937042919968,5.25383536741806,10.5));
#711=CARTESIAN_POINT('Origin',(1.03328079635374,4.66476571000301,10.5));
#712=CARTESIAN_POINT('',(5.06293215945879,2.89310409111931,10.5));
#713=CARTESIAN_POINT('',(1.28520637063523,5.09666095774596,10.5));
#714=CARTESIAN_POINT('Origin',(4.56165174763119,2.60665814150354,10.5));
#715=CARTESIAN_POINT('Origin',(4.55644600574203,1.43753543611655,10.5));
#716=CARTESIAN_POINT('',(5.05644104920195,1.43530911279727,10.5));
#717=CARTESIAN_POINT('Origin',(0.0259644410273807,5.83117991328817,15.));
#718=CARTESIAN_POINT('',(5.06293215945879,2.89310409111931,14.5));
#719=CARTESIAN_POINT('',(5.06293215945879,2.89310409111931,15.));
#720=CARTESIAN_POINT('',(0.0259644410273806,5.83117991328817,14.5));
#721=CARTESIAN_POINT('',(1.28520637063523,5.09666095774596,14.5));
#722=CARTESIAN_POINT('',(0.0259644410273806,5.83117991328817,15.));
#723=CARTESIAN_POINT('Origin',(5.06293215945879,2.89310409111931,15.));
#724=CARTESIAN_POINT('',(5.03696771843141,-2.93807582216886,14.5));
#725=CARTESIAN_POINT('',(5.03696771843141,-2.93807582216886,15.));
#726=CARTESIAN_POINT('',(5.05644104920194,1.43530911279727,14.5));
#727=CARTESIAN_POINT('Origin',(5.03696771843141,-2.93807582216886,15.));
#728=CARTESIAN_POINT('',(-0.0259644410273832,-5.83117991328817,14.5));
#729=CARTESIAN_POINT('',(-0.0259644410273832,-5.83117991328817,15.));
#730=CARTESIAN_POINT('',(3.77123467856671,-3.66135184494869,14.5));
#731=CARTESIAN_POINT('Origin',(4.01930414774513,-4.09547341601092,14.5));
#732=CARTESIAN_POINT('Origin',(5.53567739352363,-3.22897441842321,14.5));
#733=CARTESIAN_POINT('Origin',(-0.0285351777627674,-6.40852445915829,14.5));
#734=CARTESIAN_POINT('Origin',(5.55643609266186,1.43308278947798,14.5));
#735=CARTESIAN_POINT('Origin',(5.56421257128639,3.17955004073508,14.5));
#736=CARTESIAN_POINT('Origin',(1.53713194491673,5.5285562054889,14.5));
#737=CARTESIAN_POINT('Origin',(0.0285351777627649,6.40852445915829,14.5));
#738=CARTESIAN_POINT('Origin',(-5.55643609266185,-1.43308278947798,14.5));
#739=CARTESIAN_POINT('',(-5.06293215945879,-2.89310409111931,14.5));
#740=CARTESIAN_POINT('',(-5.03696771843141,2.93807582216886,14.5));
#741=CARTESIAN_POINT('',(-5.05644104920194,-1.43530911279727,14.5));
#742=CARTESIAN_POINT('Origin',(-5.53567739352363,3.2289744184232,14.5));
#743=CARTESIAN_POINT('Origin',(-5.56421257128639,-3.17955004073508,14.5));
#744=CARTESIAN_POINT('Origin',(-4.01930414774513,4.09547341601092,14.5));
#745=CARTESIAN_POINT('',(-3.77123467856671,3.66135184494869,14.5));
#746=CARTESIAN_POINT('Origin',(-1.53713194491673,-5.5285562054889,14.5));
#747=CARTESIAN_POINT('',(-1.28520637063523,-5.09666095774596,14.5));
#748=CARTESIAN_POINT('Origin',(-5.03696771843141,2.93807582216886,15.));
#749=CARTESIAN_POINT('',(-5.03696771843141,2.93807582216886,15.));
#750=CARTESIAN_POINT('Origin',(-5.06293215945879,-2.89310409111931,15.));
#751=CARTESIAN_POINT('',(-5.06293215945879,-2.89310409111931,15.));
#752=CARTESIAN_POINT('Origin',(-0.0259644410273829,-5.83117991328817,15.));
#753=UNCERTAINTY_MEASURE_WITH_UNIT(LENGTH_MEASURE(0.01),#757,
'DISTANCE_ACCURACY_VALUE',
'Maximum model space distance between geometric entities at asserted c
onnectivities');
#754=UNCERTAINTY_MEASURE_WITH_UNIT(LENGTH_MEASURE(0.01),#757,
'DISTANCE_ACCURACY_VALUE',
'Maximum model space distance between geometric entities at asserted c
onnectivities');
#755=(
GEOMETRIC_REPRESENTATION_CONTEXT(3)
GLOBAL_UNCERTAINTY_ASSIGNED_CONTEXT((#753))
GLOBAL_UNIT_ASSIGNED_CONTEXT((#757,#759,#760))
REPRESENTATION_CONTEXT('','3D')
);
#756=(
GEOMETRIC_REPRESENTATION_CONTEXT(3)
GLOBAL_UNCERTAINTY_ASSIGNED_CONTEXT((#754))
GLOBAL_UNIT_ASSIGNED_CONTEXT((#757,#759,#760))
REPRESENTATION_CONTEXT('','3D')
);
#757=(
LENGTH_UNIT()
NAMED_UNIT(*)
SI_UNIT(.MILLI.,.METRE.)
);
#758=(
LENGTH_UNIT()
NAMED_UNIT(*)
SI_UNIT(.CENTI.,.METRE.)
);
#759=(
NAMED_UNIT(*)
PLANE_ANGLE_UNIT()
SI_UNIT($,.RADIAN.)
);
#760=(
NAMED_UNIT(*)
SI_UNIT($,.STERADIAN.)
SOLID_ANGLE_UNIT()
);
#761=SHAPE_DEFINITION_REPRESENTATION(#762,#763);
#762=PRODUCT_DEFINITION_SHAPE('',$,#765);
#763=SHAPE_REPRESENTATION('',(#444),#755);
#764=PRODUCT_DEFINITION_CONTEXT('part definition',#769,'design');
#765=PRODUCT_DEFINITION('ExtensionFastener','ExtensionFastener',#766,#764);
#766=PRODUCT_DEFINITION_FORMATION('',$,#771);
#767=PRODUCT_RELATED_PRODUCT_CATEGORY('ExtensionFastener',
'ExtensionFastener',(#771));
#768=APPLICATION_PROTOCOL_DEFINITION('international standard',
'automotive_design',2009,#769);
#769=APPLICATION_CONTEXT(
'Core Data for Automotive Mechanical Design Process');
#770=PRODUCT_CONTEXT('part definition',#769,'mechanical');
#771=PRODUCT('ExtensionFastener','ExtensionFastener',$,(#770));
#772=PRESENTATION_STYLE_ASSIGNMENT((#773));
#773=SURFACE_STYLE_USAGE(.BOTH.,#776);
#774=SURFACE_STYLE_RENDERING_WITH_PROPERTIES($,#780,(#775));
#775=SURFACE_STYLE_TRANSPARENT(0.);
#776=SURFACE_SIDE_STYLE('',(#777,#774));
#777=SURFACE_STYLE_FILL_AREA(#778);
#778=FILL_AREA_STYLE('',(#779));
#779=FILL_AREA_STYLE_COLOUR('',#780);
#780=COLOUR_RGB('',0.749019607843137,0.749019607843137,0.749019607843137);
ENDSEC;
END-ISO-10303-21;
