ISO-10303-21;
HEADER;
/* Generated by software containing ST-Developer
 * from STEP Tools, Inc. (www.steptools.com) 
 */

FILE_DESCRIPTION(
/* description */ (''),
/* implementation_level */ '2;1');

FILE_NAME(
/* name */ 'HeightAdjustment.stp',
/* time_stamp */ '2026-06-24T19:36:48+02:00',
/* author */ ('frede'),
/* organization */ (''),
/* preprocessor_version */ 'ST-DEVELOPER v20.1',
/* originating_system */ 'Autodesk Inventor 2026',
/* authorisation */ '');

FILE_SCHEMA (('AUTOMOTIVE_DESIGN { 1 0 10303 214 3 1 1 }'));
ENDSEC;

DATA;
#10=MECHANICAL_DESIGN_GEOMETRIC_PRESENTATION_REPRESENTATION('',(#13),#570);
#11=SHAPE_REPRESENTATION_RELATIONSHIP('SRR','None',#577,#12);
#12=ADVANCED_BREP_SHAPE_REPRESENTATION('',(#14),#569);
#13=STYLED_ITEM('',(#586),#14);
#14=MANIFOLD_SOLID_BREP('Solid1',#321);
#15=FACE_BOUND('',#54,.T.);
#16=FACE_BOUND('',#55,.T.);
#17=FACE_BOUND('',#58,.T.);
#18=FACE_BOUND('',#59,.T.);
#19=PLANE('',#349);
#20=PLANE('',#355);
#21=PLANE('',#359);
#22=PLANE('',#362);
#23=PLANE('',#367);
#24=PLANE('',#368);
#25=PLANE('',#370);
#26=PLANE('',#379);
#27=CYLINDRICAL_SURFACE('',#347,2.125);
#28=CYLINDRICAL_SURFACE('',#365,5.);
#29=CYLINDRICAL_SURFACE('',#373,5.);
#30=CYLINDRICAL_SURFACE('',#376,2.125);
#31=FACE_OUTER_BOUND('',#51,.T.);
#32=FACE_OUTER_BOUND('',#52,.T.);
#33=FACE_OUTER_BOUND('',#53,.T.);
#34=FACE_OUTER_BOUND('',#56,.T.);
#35=FACE_OUTER_BOUND('',#57,.T.);
#36=FACE_OUTER_BOUND('',#60,.T.);
#37=FACE_OUTER_BOUND('',#61,.T.);
#38=FACE_OUTER_BOUND('',#62,.T.);
#39=FACE_OUTER_BOUND('',#63,.T.);
#40=FACE_OUTER_BOUND('',#64,.T.);
#41=FACE_OUTER_BOUND('',#65,.T.);
#42=FACE_OUTER_BOUND('',#66,.T.);
#43=FACE_OUTER_BOUND('',#67,.T.);
#44=FACE_OUTER_BOUND('',#68,.T.);
#45=FACE_OUTER_BOUND('',#69,.T.);
#46=FACE_OUTER_BOUND('',#70,.T.);
#47=FACE_OUTER_BOUND('',#71,.T.);
#48=FACE_OUTER_BOUND('',#72,.T.);
#49=FACE_OUTER_BOUND('',#73,.T.);
#50=FACE_OUTER_BOUND('',#74,.T.);
#51=EDGE_LOOP('',(#209,#210,#211,#212));
#52=EDGE_LOOP('',(#213,#214,#215,#216));
#53=EDGE_LOOP('',(#217,#218,#219,#220));
#54=EDGE_LOOP('',(#221));
#55=EDGE_LOOP('',(#222));
#56=EDGE_LOOP('',(#223,#224,#225,#226));
#57=EDGE_LOOP('',(#227,#228,#229,#230));
#58=EDGE_LOOP('',(#231));
#59=EDGE_LOOP('',(#232));
#60=EDGE_LOOP('',(#233,#234,#235,#236));
#61=EDGE_LOOP('',(#237,#238,#239,#240));
#62=EDGE_LOOP('',(#241,#242,#243,#244));
#63=EDGE_LOOP('',(#245,#246,#247,#248));
#64=EDGE_LOOP('',(#249,#250,#251,#252));
#65=EDGE_LOOP('',(#253,#254,#255,#256));
#66=EDGE_LOOP('',(#257,#258,#259,#260));
#67=EDGE_LOOP('',(#261,#262,#263,#264));
#68=EDGE_LOOP('',(#265,#266,#267,#268));
#69=EDGE_LOOP('',(#269,#270,#271,#272));
#70=EDGE_LOOP('',(#273,#274,#275,#276));
#71=EDGE_LOOP('',(#277,#278,#279,#280));
#72=EDGE_LOOP('',(#281,#282,#283,#284));
#73=EDGE_LOOP('',(#285,#286,#287,#288));
#74=EDGE_LOOP('',(#289,#290,#291,#292));
#75=LINE('',#485,#101);
#76=LINE('',#490,#102);
#77=LINE('',#494,#103);
#78=LINE('',#498,#104);
#79=LINE('',#505,#105);
#80=LINE('',#509,#106);
#81=LINE('',#513,#107);
#82=LINE('',#519,#108);
#83=LINE('',#521,#109);
#84=LINE('',#522,#110);
#85=LINE('',#525,#111);
#86=LINE('',#529,#112);
#87=LINE('',#530,#113);
#88=LINE('',#535,#114);
#89=LINE('',#538,#115);
#90=LINE('',#541,#116);
#91=LINE('',#542,#117);
#92=LINE('',#544,#118);
#93=LINE('',#545,#119);
#94=LINE('',#547,#120);
#95=LINE('',#550,#121);
#96=LINE('',#551,#122);
#97=LINE('',#555,#123);
#98=LINE('',#559,#124);
#99=LINE('',#563,#125);
#100=LINE('',#565,#126);
#101=VECTOR('',#386,2.37500000000001);
#102=VECTOR('',#393,2.125);
#103=VECTOR('',#396,10.);
#104=VECTOR('',#399,10.);
#105=VECTOR('',#408,2.37500000000001);
#106=VECTOR('',#411,10.);
#107=VECTOR('',#414,10.);
#108=VECTOR('',#421,10.);
#109=VECTOR('',#422,10.);
#110=VECTOR('',#423,10.);
#111=VECTOR('',#426,10.);
#112=VECTOR('',#431,10.);
#113=VECTOR('',#432,10.);
#114=VECTOR('',#439,10.);
#115=VECTOR('',#442,10.);
#116=VECTOR('',#445,10.);
#117=VECTOR('',#446,10.);
#118=VECTOR('',#449,10.);
#119=VECTOR('',#450,10.);
#120=VECTOR('',#453,10.);
#121=VECTOR('',#456,10.);
#122=VECTOR('',#457,10.);
#123=VECTOR('',#464,10.);
#124=VECTOR('',#469,2.375);
#125=VECTOR('',#474,2.125);
#126=VECTOR('',#477,2.375);
#127=CIRCLE('',#345,2.125);
#128=CIRCLE('',#346,2.62500000000001);
#129=CIRCLE('',#348,2.125);
#130=CIRCLE('',#350,4.5);
#131=CIRCLE('',#351,4.5);
#132=CIRCLE('',#352,2.625);
#133=CIRCLE('',#354,2.62500000000001);
#134=CIRCLE('',#356,4.5);
#135=CIRCLE('',#357,4.5);
#136=CIRCLE('',#358,2.625);
#137=CIRCLE('',#361,5.);
#138=CIRCLE('',#364,5.);
#139=CIRCLE('',#366,5.);
#140=CIRCLE('',#372,5.);
#141=CIRCLE('',#375,2.125);
#142=CIRCLE('',#377,2.125);
#143=VERTEX_POINT('',#482);
#144=VERTEX_POINT('',#484);
#145=VERTEX_POINT('',#488);
#146=VERTEX_POINT('',#492);
#147=VERTEX_POINT('',#493);
#148=VERTEX_POINT('',#495);
#149=VERTEX_POINT('',#497);
#150=VERTEX_POINT('',#500);
#151=VERTEX_POINT('',#503);
#152=VERTEX_POINT('',#507);
#153=VERTEX_POINT('',#508);
#154=VERTEX_POINT('',#510);
#155=VERTEX_POINT('',#512);
#156=VERTEX_POINT('',#515);
#157=VERTEX_POINT('',#518);
#158=VERTEX_POINT('',#520);
#159=VERTEX_POINT('',#524);
#160=VERTEX_POINT('',#528);
#161=VERTEX_POINT('',#534);
#162=VERTEX_POINT('',#536);
#163=VERTEX_POINT('',#540);
#164=VERTEX_POINT('',#549);
#165=VERTEX_POINT('',#557);
#166=VERTEX_POINT('',#561);
#167=EDGE_CURVE('',#143,#143,#127,.T.);
#168=EDGE_CURVE('',#143,#144,#75,.T.);
#169=EDGE_CURVE('',#144,#144,#128,.T.);
#170=EDGE_CURVE('',#145,#145,#129,.T.);
#171=EDGE_CURVE('',#145,#143,#76,.T.);
#172=EDGE_CURVE('',#146,#147,#77,.T.);
#173=EDGE_CURVE('',#148,#146,#130,.T.);
#174=EDGE_CURVE('',#149,#148,#78,.T.);
#175=EDGE_CURVE('',#147,#149,#131,.T.);
#176=EDGE_CURVE('',#150,#150,#132,.T.);
#177=EDGE_CURVE('',#151,#151,#133,.T.);
#178=EDGE_CURVE('',#151,#145,#79,.T.);
#179=EDGE_CURVE('',#152,#153,#80,.T.);
#180=EDGE_CURVE('',#154,#152,#134,.T.);
#181=EDGE_CURVE('',#155,#154,#81,.T.);
#182=EDGE_CURVE('',#153,#155,#135,.T.);
#183=EDGE_CURVE('',#156,#156,#136,.T.);
#184=EDGE_CURVE('',#157,#152,#82,.T.);
#185=EDGE_CURVE('',#153,#158,#83,.T.);
#186=EDGE_CURVE('',#158,#157,#84,.T.);
#187=EDGE_CURVE('',#159,#154,#85,.T.);
#188=EDGE_CURVE('',#157,#159,#137,.T.);
#189=EDGE_CURVE('',#160,#155,#86,.T.);
#190=EDGE_CURVE('',#159,#160,#87,.T.);
#191=EDGE_CURVE('',#160,#158,#138,.T.);
#192=EDGE_CURVE('',#161,#157,#88,.T.);
#193=EDGE_CURVE('',#162,#161,#139,.T.);
#194=EDGE_CURVE('',#162,#159,#89,.T.);
#195=EDGE_CURVE('',#163,#158,#90,.T.);
#196=EDGE_CURVE('',#161,#163,#91,.T.);
#197=EDGE_CURVE('',#147,#161,#92,.T.);
#198=EDGE_CURVE('',#163,#146,#93,.T.);
#199=EDGE_CURVE('',#149,#162,#94,.T.);
#200=EDGE_CURVE('',#148,#164,#95,.T.);
#201=EDGE_CURVE('',#164,#162,#96,.T.);
#202=EDGE_CURVE('',#163,#164,#140,.T.);
#203=EDGE_CURVE('',#164,#160,#97,.T.);
#204=EDGE_CURVE('',#165,#165,#141,.T.);
#205=EDGE_CURVE('',#165,#150,#98,.T.);
#206=EDGE_CURVE('',#166,#166,#142,.T.);
#207=EDGE_CURVE('',#166,#165,#99,.T.);
#208=EDGE_CURVE('',#156,#166,#100,.T.);
#209=ORIENTED_EDGE('',*,*,#167,.T.);
#210=ORIENTED_EDGE('',*,*,#168,.T.);
#211=ORIENTED_EDGE('',*,*,#169,.T.);
#212=ORIENTED_EDGE('',*,*,#168,.F.);
#213=ORIENTED_EDGE('',*,*,#170,.F.);
#214=ORIENTED_EDGE('',*,*,#171,.T.);
#215=ORIENTED_EDGE('',*,*,#167,.F.);
#216=ORIENTED_EDGE('',*,*,#171,.F.);
#217=ORIENTED_EDGE('',*,*,#172,.F.);
#218=ORIENTED_EDGE('',*,*,#173,.F.);
#219=ORIENTED_EDGE('',*,*,#174,.F.);
#220=ORIENTED_EDGE('',*,*,#175,.F.);
#221=ORIENTED_EDGE('',*,*,#176,.F.);
#222=ORIENTED_EDGE('',*,*,#169,.F.);
#223=ORIENTED_EDGE('',*,*,#177,.T.);
#224=ORIENTED_EDGE('',*,*,#178,.T.);
#225=ORIENTED_EDGE('',*,*,#170,.T.);
#226=ORIENTED_EDGE('',*,*,#178,.F.);
#227=ORIENTED_EDGE('',*,*,#179,.F.);
#228=ORIENTED_EDGE('',*,*,#180,.F.);
#229=ORIENTED_EDGE('',*,*,#181,.F.);
#230=ORIENTED_EDGE('',*,*,#182,.F.);
#231=ORIENTED_EDGE('',*,*,#183,.F.);
#232=ORIENTED_EDGE('',*,*,#177,.F.);
#233=ORIENTED_EDGE('',*,*,#184,.T.);
#234=ORIENTED_EDGE('',*,*,#179,.T.);
#235=ORIENTED_EDGE('',*,*,#185,.T.);
#236=ORIENTED_EDGE('',*,*,#186,.T.);
#237=ORIENTED_EDGE('',*,*,#187,.T.);
#238=ORIENTED_EDGE('',*,*,#180,.T.);
#239=ORIENTED_EDGE('',*,*,#184,.F.);
#240=ORIENTED_EDGE('',*,*,#188,.T.);
#241=ORIENTED_EDGE('',*,*,#189,.T.);
#242=ORIENTED_EDGE('',*,*,#181,.T.);
#243=ORIENTED_EDGE('',*,*,#187,.F.);
#244=ORIENTED_EDGE('',*,*,#190,.T.);
#245=ORIENTED_EDGE('',*,*,#185,.F.);
#246=ORIENTED_EDGE('',*,*,#182,.T.);
#247=ORIENTED_EDGE('',*,*,#189,.F.);
#248=ORIENTED_EDGE('',*,*,#191,.T.);
#249=ORIENTED_EDGE('',*,*,#188,.F.);
#250=ORIENTED_EDGE('',*,*,#192,.F.);
#251=ORIENTED_EDGE('',*,*,#193,.F.);
#252=ORIENTED_EDGE('',*,*,#194,.T.);
#253=ORIENTED_EDGE('',*,*,#186,.F.);
#254=ORIENTED_EDGE('',*,*,#195,.F.);
#255=ORIENTED_EDGE('',*,*,#196,.F.);
#256=ORIENTED_EDGE('',*,*,#192,.T.);
#257=ORIENTED_EDGE('',*,*,#197,.T.);
#258=ORIENTED_EDGE('',*,*,#196,.T.);
#259=ORIENTED_EDGE('',*,*,#198,.T.);
#260=ORIENTED_EDGE('',*,*,#172,.T.);
#261=ORIENTED_EDGE('',*,*,#199,.T.);
#262=ORIENTED_EDGE('',*,*,#193,.T.);
#263=ORIENTED_EDGE('',*,*,#197,.F.);
#264=ORIENTED_EDGE('',*,*,#175,.T.);
#265=ORIENTED_EDGE('',*,*,#200,.T.);
#266=ORIENTED_EDGE('',*,*,#201,.T.);
#267=ORIENTED_EDGE('',*,*,#199,.F.);
#268=ORIENTED_EDGE('',*,*,#174,.T.);
#269=ORIENTED_EDGE('',*,*,#198,.F.);
#270=ORIENTED_EDGE('',*,*,#202,.T.);
#271=ORIENTED_EDGE('',*,*,#200,.F.);
#272=ORIENTED_EDGE('',*,*,#173,.T.);
#273=ORIENTED_EDGE('',*,*,#191,.F.);
#274=ORIENTED_EDGE('',*,*,#203,.F.);
#275=ORIENTED_EDGE('',*,*,#202,.F.);
#276=ORIENTED_EDGE('',*,*,#195,.T.);
#277=ORIENTED_EDGE('',*,*,#204,.T.);
#278=ORIENTED_EDGE('',*,*,#205,.T.);
#279=ORIENTED_EDGE('',*,*,#176,.T.);
#280=ORIENTED_EDGE('',*,*,#205,.F.);
#281=ORIENTED_EDGE('',*,*,#206,.F.);
#282=ORIENTED_EDGE('',*,*,#207,.T.);
#283=ORIENTED_EDGE('',*,*,#204,.F.);
#284=ORIENTED_EDGE('',*,*,#207,.F.);
#285=ORIENTED_EDGE('',*,*,#183,.T.);
#286=ORIENTED_EDGE('',*,*,#208,.T.);
#287=ORIENTED_EDGE('',*,*,#206,.T.);
#288=ORIENTED_EDGE('',*,*,#208,.F.);
#289=ORIENTED_EDGE('',*,*,#190,.F.);
#290=ORIENTED_EDGE('',*,*,#194,.F.);
#291=ORIENTED_EDGE('',*,*,#201,.F.);
#292=ORIENTED_EDGE('',*,*,#203,.T.);
#293=CONICAL_SURFACE('',#344,2.37500000000001,0.785398163397455);
#294=CONICAL_SURFACE('',#353,2.37500000000001,0.785398163397455);
#295=CONICAL_SURFACE('',#360,4.75,0.785398163397455);
#296=CONICAL_SURFACE('',#363,4.75,0.785398163397448);
#297=CONICAL_SURFACE('',#369,4.75,0.785398163397455);
#298=CONICAL_SURFACE('',#371,4.75,0.785398163397448);
#299=CONICAL_SURFACE('',#374,2.375,0.785398163397449);
#300=CONICAL_SURFACE('',#378,2.375,0.785398163397448);
#301=ADVANCED_FACE('',(#31),#293,.F.);
#302=ADVANCED_FACE('',(#32),#27,.F.);
#303=ADVANCED_FACE('',(#33,#15,#16),#19,.F.);
#304=ADVANCED_FACE('',(#34),#294,.F.);
#305=ADVANCED_FACE('',(#35,#17,#18),#20,.T.);
#306=ADVANCED_FACE('',(#36),#21,.T.);
#307=ADVANCED_FACE('',(#37),#295,.T.);
#308=ADVANCED_FACE('',(#38),#22,.T.);
#309=ADVANCED_FACE('',(#39),#296,.T.);
#310=ADVANCED_FACE('',(#40),#28,.T.);
#311=ADVANCED_FACE('',(#41),#23,.T.);
#312=ADVANCED_FACE('',(#42),#24,.T.);
#313=ADVANCED_FACE('',(#43),#297,.T.);
#314=ADVANCED_FACE('',(#44),#25,.T.);
#315=ADVANCED_FACE('',(#45),#298,.T.);
#316=ADVANCED_FACE('',(#46),#29,.T.);
#317=ADVANCED_FACE('',(#47),#299,.F.);
#318=ADVANCED_FACE('',(#48),#30,.F.);
#319=ADVANCED_FACE('',(#49),#300,.F.);
#320=ADVANCED_FACE('',(#50),#26,.T.);
#321=CLOSED_SHELL('',(#301,#302,#303,#304,#305,#306,#307,#308,#309,#310,
#311,#312,#313,#314,#315,#316,#317,#318,#319,#320));
#322=DERIVED_UNIT_ELEMENT(#325,1.);
#323=DERIVED_UNIT_ELEMENT(#572,-3.);
#324=DIMENSIONAL_EXPONENTS(0.,1.,0.,0.,0.,0.,0.);
#325=(
CONVERSION_BASED_UNIT('gram',#327)
MASS_UNIT()
NAMED_UNIT(#324)
);
#326=(
MASS_UNIT()
NAMED_UNIT(*)
SI_UNIT(.KILO.,.GRAM.)
);
#327=MASS_MEASURE_WITH_UNIT(MASS_MEASURE(0.001),#326);
#328=DERIVED_UNIT((#322,#323));
#329=MEASURE_REPRESENTATION_ITEM('density measure',
POSITIVE_RATIO_MEASURE(1.),#328);
#330=PROPERTY_DEFINITION_REPRESENTATION(#335,#332);
#331=PROPERTY_DEFINITION_REPRESENTATION(#336,#333);
#332=REPRESENTATION('material name',(#334),#569);
#333=REPRESENTATION('density',(#329),#569);
#334=DESCRIPTIVE_REPRESENTATION_ITEM('Generic','Generic');
#335=PROPERTY_DEFINITION('material property','material name',#579);
#336=PROPERTY_DEFINITION('material property','density of part',#579);
#337=DATE_TIME_ROLE('creation_date');
#338=APPLIED_DATE_AND_TIME_ASSIGNMENT(#339,#337,(#579));
#339=DATE_AND_TIME(#340,#341);
#340=CALENDAR_DATE(2026,24,6);
#341=LOCAL_TIME(0,0,0.,#342);
#342=COORDINATED_UNIVERSAL_TIME_OFFSET(0,0,.BEHIND.);
#343=AXIS2_PLACEMENT_3D('',#480,#380,#381);
#344=AXIS2_PLACEMENT_3D('',#481,#382,#383);
#345=AXIS2_PLACEMENT_3D('',#483,#384,#385);
#346=AXIS2_PLACEMENT_3D('',#486,#387,#388);
#347=AXIS2_PLACEMENT_3D('',#487,#389,#390);
#348=AXIS2_PLACEMENT_3D('',#489,#391,#392);
#349=AXIS2_PLACEMENT_3D('',#491,#394,#395);
#350=AXIS2_PLACEMENT_3D('',#496,#397,#398);
#351=AXIS2_PLACEMENT_3D('',#499,#400,#401);
#352=AXIS2_PLACEMENT_3D('',#501,#402,#403);
#353=AXIS2_PLACEMENT_3D('',#502,#404,#405);
#354=AXIS2_PLACEMENT_3D('',#504,#406,#407);
#355=AXIS2_PLACEMENT_3D('',#506,#409,#410);
#356=AXIS2_PLACEMENT_3D('',#511,#412,#413);
#357=AXIS2_PLACEMENT_3D('',#514,#415,#416);
#358=AXIS2_PLACEMENT_3D('',#516,#417,#418);
#359=AXIS2_PLACEMENT_3D('',#517,#419,#420);
#360=AXIS2_PLACEMENT_3D('',#523,#424,#425);
#361=AXIS2_PLACEMENT_3D('',#526,#427,#428);
#362=AXIS2_PLACEMENT_3D('',#527,#429,#430);
#363=AXIS2_PLACEMENT_3D('',#531,#433,#434);
#364=AXIS2_PLACEMENT_3D('',#532,#435,#436);
#365=AXIS2_PLACEMENT_3D('',#533,#437,#438);
#366=AXIS2_PLACEMENT_3D('',#537,#440,#441);
#367=AXIS2_PLACEMENT_3D('',#539,#443,#444);
#368=AXIS2_PLACEMENT_3D('',#543,#447,#448);
#369=AXIS2_PLACEMENT_3D('',#546,#451,#452);
#370=AXIS2_PLACEMENT_3D('',#548,#454,#455);
#371=AXIS2_PLACEMENT_3D('',#552,#458,#459);
#372=AXIS2_PLACEMENT_3D('',#553,#460,#461);
#373=AXIS2_PLACEMENT_3D('',#554,#462,#463);
#374=AXIS2_PLACEMENT_3D('',#556,#465,#466);
#375=AXIS2_PLACEMENT_3D('',#558,#467,#468);
#376=AXIS2_PLACEMENT_3D('',#560,#470,#471);
#377=AXIS2_PLACEMENT_3D('',#562,#472,#473);
#378=AXIS2_PLACEMENT_3D('',#564,#475,#476);
#379=AXIS2_PLACEMENT_3D('',#566,#478,#479);
#380=DIRECTION('axis',(0.,0.,1.));
#381=DIRECTION('refdir',(1.,0.,0.));
#382=DIRECTION('center_axis',(0.,0.,-1.));
#383=DIRECTION('ref_axis',(-1.,0.,0.));
#384=DIRECTION('center_axis',(0.,0.,1.));
#385=DIRECTION('ref_axis',(-1.,0.,0.));
#386=DIRECTION('',(0.707106781186553,8.659560562355E-17,-0.707106781186543));
#387=DIRECTION('center_axis',(0.,0.,-1.));
#388=DIRECTION('ref_axis',(-1.,0.,0.));
#389=DIRECTION('center_axis',(0.,0.,1.));
#390=DIRECTION('ref_axis',(-1.,0.,0.));
#391=DIRECTION('center_axis',(0.,0.,-1.));
#392=DIRECTION('ref_axis',(-1.,0.,0.));
#393=DIRECTION('',(0.,0.,-1.));
#394=DIRECTION('center_axis',(0.,0.,1.));
#395=DIRECTION('ref_axis',(1.,0.,0.));
#396=DIRECTION('',(1.,-3.96508223080413E-17,0.));
#397=DIRECTION('center_axis',(0.,0.,1.));
#398=DIRECTION('ref_axis',(0.,1.,0.));
#399=DIRECTION('',(-1.,-3.96508223080413E-17,0.));
#400=DIRECTION('center_axis',(0.,0.,1.));
#401=DIRECTION('ref_axis',(-7.105427357601E-15,-1.,0.));
#402=DIRECTION('center_axis',(0.,0.,-1.));
#403=DIRECTION('ref_axis',(-1.,0.,0.));
#404=DIRECTION('center_axis',(0.,0.,1.));
#405=DIRECTION('ref_axis',(-1.,0.,0.));
#406=DIRECTION('center_axis',(0.,0.,1.));
#407=DIRECTION('ref_axis',(-1.,0.,0.));
#408=DIRECTION('',(-0.707106781186552,-8.65956056235499E-17,-0.707106781186543));
#409=DIRECTION('center_axis',(0.,0.,1.));
#410=DIRECTION('ref_axis',(1.,0.,0.));
#411=DIRECTION('',(-1.,3.96508223080413E-17,0.));
#412=DIRECTION('center_axis',(0.,0.,-1.));
#413=DIRECTION('ref_axis',(-7.105427357601E-15,-1.,0.));
#414=DIRECTION('',(1.,3.96508223080413E-17,0.));
#415=DIRECTION('center_axis',(0.,0.,-1.));
#416=DIRECTION('ref_axis',(0.,1.,0.));
#417=DIRECTION('center_axis',(0.,0.,1.));
#418=DIRECTION('ref_axis',(-1.,0.,0.));
#419=DIRECTION('center_axis',(-2.80373653336389E-17,-0.707106781186548,
0.707106781186548));
#420=DIRECTION('ref_axis',(1.,0.,3.96508223080413E-17));
#421=DIRECTION('',(0.,0.707106781186547,0.707106781186547));
#422=DIRECTION('',(0.,-0.707106781186547,-0.707106781186547));
#423=DIRECTION('',(1.,-3.96508223080413E-17,0.));
#424=DIRECTION('center_axis',(0.,0.,-1.));
#425=DIRECTION('ref_axis',(-7.105427357601E-15,-1.,0.));
#426=DIRECTION('',(0.,-0.707106781186551,0.707106781186544));
#427=DIRECTION('center_axis',(0.,0.,1.));
#428=DIRECTION('ref_axis',(-7.105427357601E-15,-1.,0.));
#429=DIRECTION('center_axis',(-2.80373653336389E-17,0.707106781186548,0.707106781186547));
#430=DIRECTION('ref_axis',(1.,0.,3.96508223080414E-17));
#431=DIRECTION('',(0.,-0.707106781186547,0.707106781186548));
#432=DIRECTION('',(-1.,-3.96508223080413E-17,0.));
#433=DIRECTION('center_axis',(0.,0.,-1.));
#434=DIRECTION('ref_axis',(0.,1.,0.));
#435=DIRECTION('center_axis',(0.,0.,1.));
#436=DIRECTION('ref_axis',(0.,1.,0.));
#437=DIRECTION('center_axis',(0.,0.,1.));
#438=DIRECTION('ref_axis',(-7.105427357601E-15,-1.,0.));
#439=DIRECTION('',(0.,0.,1.));
#440=DIRECTION('center_axis',(0.,0.,-1.));
#441=DIRECTION('ref_axis',(-7.105427357601E-15,-1.,0.));
#442=DIRECTION('',(0.,0.,1.));
#443=DIRECTION('center_axis',(-3.96508223080413E-17,-1.,0.));
#444=DIRECTION('ref_axis',(1.,-3.96508223080413E-17,0.));
#445=DIRECTION('',(0.,0.,1.));
#446=DIRECTION('',(-1.,3.96508223080413E-17,0.));
#447=DIRECTION('center_axis',(-2.80373653336388E-17,-0.707106781186547,
-0.707106781186548));
#448=DIRECTION('ref_axis',(-1.,0.,3.96508223080413E-17));
#449=DIRECTION('',(0.,-0.707106781186548,0.707106781186547));
#450=DIRECTION('',(0.,0.707106781186548,-0.707106781186547));
#451=DIRECTION('center_axis',(0.,0.,1.));
#452=DIRECTION('ref_axis',(-7.105427357601E-15,-1.,0.));
#453=DIRECTION('',(0.,0.707106781186552,0.707106781186543));
#454=DIRECTION('center_axis',(-2.80373653336389E-17,0.707106781186548,-0.707106781186547));
#455=DIRECTION('ref_axis',(-1.,0.,3.96508223080414E-17));
#456=DIRECTION('',(0.,0.707106781186547,0.707106781186548));
#457=DIRECTION('',(1.,3.96508223080413E-17,0.));
#458=DIRECTION('center_axis',(0.,0.,1.));
#459=DIRECTION('ref_axis',(0.,1.,0.));
#460=DIRECTION('center_axis',(0.,0.,-1.));
#461=DIRECTION('ref_axis',(0.,1.,0.));
#462=DIRECTION('center_axis',(0.,0.,1.));
#463=DIRECTION('ref_axis',(0.,1.,0.));
#464=DIRECTION('',(0.,0.,1.));
#465=DIRECTION('center_axis',(0.,0.,-1.));
#466=DIRECTION('ref_axis',(-1.,0.,0.));
#467=DIRECTION('center_axis',(0.,0.,1.));
#468=DIRECTION('ref_axis',(-1.,0.,0.));
#469=DIRECTION('',(0.707106781186548,8.65956056235493E-17,-0.707106781186547));
#470=DIRECTION('center_axis',(0.,0.,1.));
#471=DIRECTION('ref_axis',(-1.,0.,0.));
#472=DIRECTION('center_axis',(0.,0.,-1.));
#473=DIRECTION('ref_axis',(-1.,0.,0.));
#474=DIRECTION('',(0.,0.,-1.));
#475=DIRECTION('center_axis',(0.,0.,1.));
#476=DIRECTION('ref_axis',(-1.,0.,0.));
#477=DIRECTION('',(-0.707106781186547,-8.65956056235493E-17,-0.707106781186548));
#478=DIRECTION('center_axis',(-3.96508223080413E-17,1.,0.));
#479=DIRECTION('ref_axis',(-1.,-3.96508223080413E-17,0.));
#480=CARTESIAN_POINT('',(0.,0.,0.));
#481=CARTESIAN_POINT('Origin',(84.,0.,0.25));
#482=CARTESIAN_POINT('',(86.125,2.60237444818813E-16,0.5));
#483=CARTESIAN_POINT('Origin',(84.,0.,0.5));
#484=CARTESIAN_POINT('',(86.625,-3.21469784776182E-16,0.));
#485=CARTESIAN_POINT('',(86.375,2.90853614797497E-16,0.25));
#486=CARTESIAN_POINT('Origin',(84.,0.,0.));
#487=CARTESIAN_POINT('Origin',(84.,0.,0.));
#488=CARTESIAN_POINT('',(86.125,-2.60237444818813E-16,9.5));
#489=CARTESIAN_POINT('Origin',(84.,0.,9.5));
#490=CARTESIAN_POINT('',(86.125,2.60237444818813E-16,0.));
#491=CARTESIAN_POINT('Origin',(42.,0.,0.));
#492=CARTESIAN_POINT('',(0.,-4.5,0.));
#493=CARTESIAN_POINT('',(84.,-4.5,0.));
#494=CARTESIAN_POINT('',(21.,-4.5,0.));
#495=CARTESIAN_POINT('',(0.,4.5,0.));
#496=CARTESIAN_POINT('Origin',(0.,0.,0.));
#497=CARTESIAN_POINT('',(84.,4.5,0.));
#498=CARTESIAN_POINT('',(63.,4.5,0.));
#499=CARTESIAN_POINT('Origin',(84.,0.,0.));
#500=CARTESIAN_POINT('',(2.625,-3.2146978477618E-16,0.));
#501=CARTESIAN_POINT('Origin',(0.,0.,0.));
#502=CARTESIAN_POINT('Origin',(84.,0.,9.75));
#503=CARTESIAN_POINT('',(86.625,3.21469784776182E-16,10.));
#504=CARTESIAN_POINT('Origin',(84.,0.,10.));
#505=CARTESIAN_POINT('',(86.375,2.90853614797497E-16,9.75));
#506=CARTESIAN_POINT('Origin',(42.,0.,10.));
#507=CARTESIAN_POINT('',(84.,-4.5,10.));
#508=CARTESIAN_POINT('',(0.,-4.5,10.));
#509=CARTESIAN_POINT('',(21.,-4.5,10.));
#510=CARTESIAN_POINT('',(84.,4.5,10.));
#511=CARTESIAN_POINT('Origin',(84.,0.,10.));
#512=CARTESIAN_POINT('',(0.,4.5,10.));
#513=CARTESIAN_POINT('',(63.,4.5,10.));
#514=CARTESIAN_POINT('Origin',(0.,0.,10.));
#515=CARTESIAN_POINT('',(2.625,3.2146978477618E-16,10.));
#516=CARTESIAN_POINT('Origin',(0.,0.,10.));
#517=CARTESIAN_POINT('Origin',(21.,-4.75,9.75));
#518=CARTESIAN_POINT('',(84.,-5.,9.5));
#519=CARTESIAN_POINT('',(84.,-5.,9.5));
#520=CARTESIAN_POINT('',(0.,-5.,9.5));
#521=CARTESIAN_POINT('',(0.,-4.5,10.));
#522=CARTESIAN_POINT('',(21.,-5.,9.5));
#523=CARTESIAN_POINT('Origin',(84.,0.,9.75));
#524=CARTESIAN_POINT('',(84.,5.,9.5));
#525=CARTESIAN_POINT('',(84.,5.,9.5));
#526=CARTESIAN_POINT('Origin',(84.,0.,9.5));
#527=CARTESIAN_POINT('Origin',(63.,4.75,9.75));
#528=CARTESIAN_POINT('',(0.,5.,9.5));
#529=CARTESIAN_POINT('',(0.,5.,9.5));
#530=CARTESIAN_POINT('',(63.,5.,9.5));
#531=CARTESIAN_POINT('Origin',(0.,0.,9.75));
#532=CARTESIAN_POINT('Origin',(0.,0.,9.5));
#533=CARTESIAN_POINT('Origin',(84.,0.,0.));
#534=CARTESIAN_POINT('',(84.,-5.,0.5));
#535=CARTESIAN_POINT('',(84.,-5.,0.));
#536=CARTESIAN_POINT('',(84.,5.,0.5));
#537=CARTESIAN_POINT('Origin',(84.,0.,0.5));
#538=CARTESIAN_POINT('',(84.,5.,0.));
#539=CARTESIAN_POINT('Origin',(0.,-5.,0.));
#540=CARTESIAN_POINT('',(0.,-5.,0.5));
#541=CARTESIAN_POINT('',(0.,-5.,0.));
#542=CARTESIAN_POINT('',(21.,-5.,0.5));
#543=CARTESIAN_POINT('Origin',(21.,-4.75,0.25));
#544=CARTESIAN_POINT('',(84.,-4.5,0.));
#545=CARTESIAN_POINT('',(0.,-5.,0.5));
#546=CARTESIAN_POINT('Origin',(84.,0.,0.25));
#547=CARTESIAN_POINT('',(84.,4.5,0.));
#548=CARTESIAN_POINT('Origin',(63.,4.75,0.25));
#549=CARTESIAN_POINT('',(0.,5.,0.5));
#550=CARTESIAN_POINT('',(0.,4.5,0.));
#551=CARTESIAN_POINT('',(63.,5.,0.5));
#552=CARTESIAN_POINT('Origin',(0.,0.,0.25));
#553=CARTESIAN_POINT('Origin',(0.,0.,0.5));
#554=CARTESIAN_POINT('Origin',(0.,0.,0.));
#555=CARTESIAN_POINT('',(0.,5.,0.));
#556=CARTESIAN_POINT('Origin',(0.,0.,0.25));
#557=CARTESIAN_POINT('',(2.125,2.60237444818813E-16,0.5));
#558=CARTESIAN_POINT('Origin',(0.,0.,0.5));
#559=CARTESIAN_POINT('',(2.375,2.90853614797496E-16,0.25));
#560=CARTESIAN_POINT('Origin',(0.,0.,0.));
#561=CARTESIAN_POINT('',(2.125,-2.60237444818813E-16,9.5));
#562=CARTESIAN_POINT('Origin',(0.,0.,9.5));
#563=CARTESIAN_POINT('',(2.125,2.60237444818813E-16,0.));
#564=CARTESIAN_POINT('Origin',(0.,0.,9.75));
#565=CARTESIAN_POINT('',(2.375,2.90853614797496E-16,9.75));
#566=CARTESIAN_POINT('Origin',(84.,5.,0.));
#567=UNCERTAINTY_MEASURE_WITH_UNIT(LENGTH_MEASURE(0.01),#571,
'DISTANCE_ACCURACY_VALUE',
'Maximum model space distance between geometric entities at asserted c
onnectivities');
#568=UNCERTAINTY_MEASURE_WITH_UNIT(LENGTH_MEASURE(0.01),#571,
'DISTANCE_ACCURACY_VALUE',
'Maximum model space distance between geometric entities at asserted c
onnectivities');
#569=(
GEOMETRIC_REPRESENTATION_CONTEXT(3)
GLOBAL_UNCERTAINTY_ASSIGNED_CONTEXT((#567))
GLOBAL_UNIT_ASSIGNED_CONTEXT((#571,#573,#574))
REPRESENTATION_CONTEXT('','3D')
);
#570=(
GEOMETRIC_REPRESENTATION_CONTEXT(3)
GLOBAL_UNCERTAINTY_ASSIGNED_CONTEXT((#568))
GLOBAL_UNIT_ASSIGNED_CONTEXT((#571,#573,#574))
REPRESENTATION_CONTEXT('','3D')
);
#571=(
LENGTH_UNIT()
NAMED_UNIT(*)
SI_UNIT(.MILLI.,.METRE.)
);
#572=(
LENGTH_UNIT()
NAMED_UNIT(*)
SI_UNIT(.CENTI.,.METRE.)
);
#573=(
NAMED_UNIT(*)
PLANE_ANGLE_UNIT()
SI_UNIT($,.RADIAN.)
);
#574=(
NAMED_UNIT(*)
SI_UNIT($,.STERADIAN.)
SOLID_ANGLE_UNIT()
);
#575=SHAPE_DEFINITION_REPRESENTATION(#576,#577);
#576=PRODUCT_DEFINITION_SHAPE('',$,#579);
#577=SHAPE_REPRESENTATION('',(#343),#569);
#578=PRODUCT_DEFINITION_CONTEXT('part definition',#583,'design');
#579=PRODUCT_DEFINITION('HeightAdjustment','HeightAdjustment',#580,#578);
#580=PRODUCT_DEFINITION_FORMATION('',$,#585);
#581=PRODUCT_RELATED_PRODUCT_CATEGORY('HeightAdjustment',
'HeightAdjustment',(#585));
#582=APPLICATION_PROTOCOL_DEFINITION('international standard',
'automotive_design',2009,#583);
#583=APPLICATION_CONTEXT(
'Core Data for Automotive Mechanical Design Process');
#584=PRODUCT_CONTEXT('part definition',#583,'mechanical');
#585=PRODUCT('HeightAdjustment','HeightAdjustment',$,(#584));
#586=PRESENTATION_STYLE_ASSIGNMENT((#587));
#587=SURFACE_STYLE_USAGE(.BOTH.,#590);
#588=SURFACE_STYLE_RENDERING_WITH_PROPERTIES($,#594,(#589));
#589=SURFACE_STYLE_TRANSPARENT(0.);
#590=SURFACE_SIDE_STYLE('',(#591,#588));
#591=SURFACE_STYLE_FILL_AREA(#592);
#592=FILL_AREA_STYLE('',(#593));
#593=FILL_AREA_STYLE_COLOUR('',#594);
#594=COLOUR_RGB('',0.749019607843137,0.749019607843137,0.749019607843137);
ENDSEC;
END-ISO-10303-21;
