ISO-10303-21;
HEADER;
/* Generated by software containing ST-Developer
 * from STEP Tools, Inc. (www.steptools.com) 
 */

FILE_DESCRIPTION(
/* description */ (''),
/* implementation_level */ '2;1');

FILE_NAME(
/* name */ 'Leg_rod.stp',
/* time_stamp */ '2026-06-22T01:48:33+02:00',
/* author */ ('sniel'),
/* organization */ (''),
/* preprocessor_version */ 'ST-DEVELOPER v20.1',
/* originating_system */ 'Autodesk Inventor 2026',
/* authorisation */ '');

FILE_SCHEMA (('AUTOMOTIVE_DESIGN { 1 0 10303 214 3 1 1 }'));
ENDSEC;

DATA;
#10=MECHANICAL_DESIGN_GEOMETRIC_PRESENTATION_REPRESENTATION('',(#13),#1327);
#11=SHAPE_REPRESENTATION_RELATIONSHIP('SRR','None',#1334,#12);
#12=ADVANCED_BREP_SHAPE_REPRESENTATION('',(#14),#1326);
#13=STYLED_ITEM('',(#1343),#14);
#14=MANIFOLD_SOLID_BREP('Solid1',#794);
#15=FACE_BOUND('',#100,.T.);
#16=FACE_BOUND('',#103,.T.);
#17=FACE_BOUND('',#109,.T.);
#18=FACE_BOUND('',#113,.T.);
#19=PLANE('',#820);
#20=PLANE('',#824);
#21=PLANE('',#832);
#22=PLANE('',#840);
#23=PLANE('',#841);
#24=PLANE('',#842);
#25=PLANE('',#843);
#26=PLANE('',#844);
#27=PLANE('',#845);
#28=PLANE('',#849);
#29=PLANE('',#850);
#30=PLANE('',#851);
#31=PLANE('',#855);
#32=PLANE('',#856);
#33=PLANE('',#858);
#34=PLANE('',#860);
#35=PLANE('',#861);
#36=PLANE('',#862);
#37=PLANE('',#863);
#38=PLANE('',#864);
#39=PLANE('',#865);
#40=PLANE('',#866);
#41=PLANE('',#867);
#42=PLANE('',#868);
#43=PLANE('',#869);
#44=PLANE('',#871);
#45=PLANE('',#872);
#46=PLANE('',#873);
#47=PLANE('',#874);
#48=PLANE('',#875);
#49=PLANE('',#876);
#50=PLANE('',#877);
#51=PLANE('',#878);
#52=PLANE('',#879);
#53=FACE_OUTER_BOUND('',#94,.T.);
#54=FACE_OUTER_BOUND('',#95,.T.);
#55=FACE_OUTER_BOUND('',#96,.T.);
#56=FACE_OUTER_BOUND('',#97,.T.);
#57=FACE_OUTER_BOUND('',#98,.T.);
#58=FACE_OUTER_BOUND('',#99,.T.);
#59=FACE_OUTER_BOUND('',#101,.T.);
#60=FACE_OUTER_BOUND('',#102,.T.);
#61=FACE_OUTER_BOUND('',#104,.T.);
#62=FACE_OUTER_BOUND('',#105,.T.);
#63=FACE_OUTER_BOUND('',#106,.T.);
#64=FACE_OUTER_BOUND('',#107,.T.);
#65=FACE_OUTER_BOUND('',#108,.T.);
#66=FACE_OUTER_BOUND('',#110,.T.);
#67=FACE_OUTER_BOUND('',#111,.T.);
#68=FACE_OUTER_BOUND('',#112,.T.);
#69=FACE_OUTER_BOUND('',#114,.T.);
#70=FACE_OUTER_BOUND('',#115,.T.);
#71=FACE_OUTER_BOUND('',#116,.T.);
#72=FACE_OUTER_BOUND('',#117,.T.);
#73=FACE_OUTER_BOUND('',#118,.T.);
#74=FACE_OUTER_BOUND('',#119,.T.);
#75=FACE_OUTER_BOUND('',#120,.T.);
#76=FACE_OUTER_BOUND('',#121,.T.);
#77=FACE_OUTER_BOUND('',#122,.T.);
#78=FACE_OUTER_BOUND('',#123,.T.);
#79=FACE_OUTER_BOUND('',#124,.T.);
#80=FACE_OUTER_BOUND('',#125,.T.);
#81=FACE_OUTER_BOUND('',#126,.T.);
#82=FACE_OUTER_BOUND('',#127,.T.);
#83=FACE_OUTER_BOUND('',#128,.T.);
#84=FACE_OUTER_BOUND('',#129,.T.);
#85=FACE_OUTER_BOUND('',#130,.T.);
#86=FACE_OUTER_BOUND('',#131,.T.);
#87=FACE_OUTER_BOUND('',#132,.T.);
#88=FACE_OUTER_BOUND('',#133,.T.);
#89=FACE_OUTER_BOUND('',#134,.T.);
#90=FACE_OUTER_BOUND('',#135,.T.);
#91=FACE_OUTER_BOUND('',#136,.T.);
#92=FACE_OUTER_BOUND('',#137,.T.);
#93=FACE_OUTER_BOUND('',#138,.T.);
#94=EDGE_LOOP('',(#524,#525,#526,#527));
#95=EDGE_LOOP('',(#528));
#96=EDGE_LOOP('',(#529,#530,#531,#532));
#97=EDGE_LOOP('',(#533));
#98=EDGE_LOOP('',(#534,#535,#536,#537,#538,#539,#540,#541,#542,#543,#544,
#545));
#99=EDGE_LOOP('',(#546));
#100=EDGE_LOOP('',(#547));
#101=EDGE_LOOP('',(#548,#549,#550,#551,#552,#553,#554,#555,#556,#557,#558,
#559));
#102=EDGE_LOOP('',(#560));
#103=EDGE_LOOP('',(#561));
#104=EDGE_LOOP('',(#562,#563,#564,#565));
#105=EDGE_LOOP('',(#566,#567,#568,#569));
#106=EDGE_LOOP('',(#570,#571,#572,#573));
#107=EDGE_LOOP('',(#574,#575,#576,#577,#578,#579,#580,#581,#582,#583,#584,
#585));
#108=EDGE_LOOP('',(#586,#587,#588,#589,#590,#591,#592,#593));
#109=EDGE_LOOP('',(#594));
#110=EDGE_LOOP('',(#595,#596,#597,#598,#599,#600,#601,#602,#603,#604,#605,
#606));
#111=EDGE_LOOP('',(#607,#608,#609,#610));
#112=EDGE_LOOP('',(#611,#612,#613,#614,#615,#616,#617,#618,#619,#620,#621,
#622,#623,#624,#625,#626,#627,#628,#629,#630,#631,#632,#633,#634,#635,#636,
#637,#638,#639,#640,#641,#642,#643,#644));
#113=EDGE_LOOP('',(#645));
#114=EDGE_LOOP('',(#646,#647,#648,#649));
#115=EDGE_LOOP('',(#650,#651,#652,#653));
#116=EDGE_LOOP('',(#654,#655,#656,#657));
#117=EDGE_LOOP('',(#658,#659,#660,#661));
#118=EDGE_LOOP('',(#662,#663,#664,#665));
#119=EDGE_LOOP('',(#666,#667,#668,#669));
#120=EDGE_LOOP('',(#670,#671,#672,#673));
#121=EDGE_LOOP('',(#674,#675,#676,#677));
#122=EDGE_LOOP('',(#678,#679,#680,#681));
#123=EDGE_LOOP('',(#682,#683,#684,#685));
#124=EDGE_LOOP('',(#686,#687,#688,#689));
#125=EDGE_LOOP('',(#690,#691,#692,#693));
#126=EDGE_LOOP('',(#694,#695,#696,#697));
#127=EDGE_LOOP('',(#698,#699,#700,#701));
#128=EDGE_LOOP('',(#702,#703,#704,#705));
#129=EDGE_LOOP('',(#706,#707,#708,#709));
#130=EDGE_LOOP('',(#710,#711,#712,#713));
#131=EDGE_LOOP('',(#714,#715,#716,#717));
#132=EDGE_LOOP('',(#718,#719,#720,#721));
#133=EDGE_LOOP('',(#722,#723,#724,#725));
#134=EDGE_LOOP('',(#726,#727,#728,#729));
#135=EDGE_LOOP('',(#730,#731,#732,#733));
#136=EDGE_LOOP('',(#734,#735,#736,#737));
#137=EDGE_LOOP('',(#738,#739,#740,#741));
#138=EDGE_LOOP('',(#742,#743,#744,#745));
#139=LINE('',#1102,#228);
#140=LINE('',#1109,#229);
#141=LINE('',#1116,#230);
#142=LINE('',#1120,#231);
#143=LINE('',#1124,#232);
#144=LINE('',#1128,#233);
#145=LINE('',#1132,#234);
#146=LINE('',#1139,#235);
#147=LINE('',#1143,#236);
#148=LINE('',#1147,#237);
#149=LINE('',#1151,#238);
#150=LINE('',#1155,#239);
#151=LINE('',#1160,#240);
#152=LINE('',#1162,#241);
#153=LINE('',#1163,#242);
#154=LINE('',#1166,#243);
#155=LINE('',#1168,#244);
#156=LINE('',#1169,#245);
#157=LINE('',#1172,#246);
#158=LINE('',#1174,#247);
#159=LINE('',#1175,#248);
#160=LINE('',#1178,#249);
#161=LINE('',#1180,#250);
#162=LINE('',#1182,#251);
#163=LINE('',#1184,#252);
#164=LINE('',#1186,#253);
#165=LINE('',#1188,#254);
#166=LINE('',#1190,#255);
#167=LINE('',#1192,#256);
#168=LINE('',#1194,#257);
#169=LINE('',#1196,#258);
#170=LINE('',#1197,#259);
#171=LINE('',#1201,#260);
#172=LINE('',#1203,#261);
#173=LINE('',#1209,#262);
#174=LINE('',#1211,#263);
#175=LINE('',#1213,#264);
#176=LINE('',#1215,#265);
#177=LINE('',#1217,#266);
#178=LINE('',#1219,#267);
#179=LINE('',#1221,#268);
#180=LINE('',#1223,#269);
#181=LINE('',#1225,#270);
#182=LINE('',#1226,#271);
#183=LINE('',#1229,#272);
#184=LINE('',#1230,#273);
#185=LINE('',#1233,#274);
#186=LINE('',#1235,#275);
#187=LINE('',#1237,#276);
#188=LINE('',#1239,#277);
#189=LINE('',#1241,#278);
#190=LINE('',#1243,#279);
#191=LINE('',#1245,#280);
#192=LINE('',#1247,#281);
#193=LINE('',#1249,#282);
#194=LINE('',#1250,#283);
#195=LINE('',#1252,#284);
#196=LINE('',#1255,#285);
#197=LINE('',#1257,#286);
#198=LINE('',#1259,#287);
#199=LINE('',#1261,#288);
#200=LINE('',#1263,#289);
#201=LINE('',#1265,#290);
#202=LINE('',#1267,#291);
#203=LINE('',#1269,#292);
#204=LINE('',#1271,#293);
#205=LINE('',#1272,#294);
#206=LINE('',#1275,#295);
#207=LINE('',#1279,#296);
#208=LINE('',#1281,#297);
#209=LINE('',#1283,#298);
#210=LINE('',#1285,#299);
#211=LINE('',#1287,#300);
#212=LINE('',#1290,#301);
#213=LINE('',#1292,#302);
#214=LINE('',#1294,#303);
#215=LINE('',#1296,#304);
#216=LINE('',#1298,#305);
#217=LINE('',#1300,#306);
#218=LINE('',#1302,#307);
#219=LINE('',#1304,#308);
#220=LINE('',#1308,#309);
#221=LINE('',#1310,#310);
#222=LINE('',#1312,#311);
#223=LINE('',#1314,#312);
#224=LINE('',#1316,#313);
#225=LINE('',#1318,#314);
#226=LINE('',#1320,#315);
#227=LINE('',#1322,#316);
#228=VECTOR('',#886,5.);
#229=VECTOR('',#895,5.);
#230=VECTOR('',#904,8.);
#231=VECTOR('',#907,10.);
#232=VECTOR('',#910,10.);
#233=VECTOR('',#913,10.);
#234=VECTOR('',#916,10.);
#235=VECTOR('',#925,8.);
#236=VECTOR('',#928,10.);
#237=VECTOR('',#931,10.);
#238=VECTOR('',#934,10.);
#239=VECTOR('',#937,10.);
#240=VECTOR('',#944,10.);
#241=VECTOR('',#945,10.);
#242=VECTOR('',#946,10.);
#243=VECTOR('',#949,10.);
#244=VECTOR('',#950,10.);
#245=VECTOR('',#951,10.);
#246=VECTOR('',#954,10.);
#247=VECTOR('',#955,10.);
#248=VECTOR('',#956,10.);
#249=VECTOR('',#959,10.);
#250=VECTOR('',#960,10.);
#251=VECTOR('',#961,10.);
#252=VECTOR('',#962,10.);
#253=VECTOR('',#963,10.);
#254=VECTOR('',#964,10.);
#255=VECTOR('',#965,10.);
#256=VECTOR('',#966,10.);
#257=VECTOR('',#967,10.);
#258=VECTOR('',#968,10.);
#259=VECTOR('',#969,10.);
#260=VECTOR('',#974,10.);
#261=VECTOR('',#975,10.);
#262=VECTOR('',#982,10.);
#263=VECTOR('',#983,10.);
#264=VECTOR('',#984,10.);
#265=VECTOR('',#985,10.);
#266=VECTOR('',#986,10.);
#267=VECTOR('',#987,10.);
#268=VECTOR('',#988,10.);
#269=VECTOR('',#989,10.);
#270=VECTOR('',#990,10.);
#271=VECTOR('',#991,10.);
#272=VECTOR('',#994,10.);
#273=VECTOR('',#995,10.);
#274=VECTOR('',#998,10.);
#275=VECTOR('',#999,10.);
#276=VECTOR('',#1000,10.);
#277=VECTOR('',#1001,10.);
#278=VECTOR('',#1002,10.);
#279=VECTOR('',#1003,10.);
#280=VECTOR('',#1004,10.);
#281=VECTOR('',#1005,10.);
#282=VECTOR('',#1006,10.);
#283=VECTOR('',#1007,10.);
#284=VECTOR('',#1008,10.);
#285=VECTOR('',#1011,10.);
#286=VECTOR('',#1012,10.);
#287=VECTOR('',#1013,10.);
#288=VECTOR('',#1014,10.);
#289=VECTOR('',#1015,10.);
#290=VECTOR('',#1016,10.);
#291=VECTOR('',#1017,10.);
#292=VECTOR('',#1018,10.);
#293=VECTOR('',#1019,10.);
#294=VECTOR('',#1020,10.);
#295=VECTOR('',#1023,10.);
#296=VECTOR('',#1028,10.);
#297=VECTOR('',#1031,10.);
#298=VECTOR('',#1034,4.5);
#299=VECTOR('',#1037,10.);
#300=VECTOR('',#1040,10.);
#301=VECTOR('',#1045,10.);
#302=VECTOR('',#1048,10.);
#303=VECTOR('',#1051,10.);
#304=VECTOR('',#1054,10.);
#305=VECTOR('',#1057,10.);
#306=VECTOR('',#1060,10.);
#307=VECTOR('',#1063,10.);
#308=VECTOR('',#1066,10.);
#309=VECTOR('',#1073,10.);
#310=VECTOR('',#1076,10.);
#311=VECTOR('',#1079,10.);
#312=VECTOR('',#1082,10.);
#313=VECTOR('',#1085,10.);
#314=VECTOR('',#1088,10.);
#315=VECTOR('',#1091,10.);
#316=VECTOR('',#1094,10.);
#317=CIRCLE('',#818,5.);
#318=CIRCLE('',#819,5.);
#319=CIRCLE('',#822,5.);
#320=CIRCLE('',#823,5.);
#321=CIRCLE('',#826,8.);
#322=CIRCLE('',#827,8.);
#323=CIRCLE('',#828,8.);
#324=CIRCLE('',#829,8.);
#325=CIRCLE('',#830,8.);
#326=CIRCLE('',#831,8.);
#327=CIRCLE('',#834,8.);
#328=CIRCLE('',#835,8.);
#329=CIRCLE('',#836,8.);
#330=CIRCLE('',#837,8.);
#331=CIRCLE('',#838,8.);
#332=CIRCLE('',#839,8.);
#333=CIRCLE('',#846,7.49999999999999);
#334=CIRCLE('',#847,7.49999999999999);
#335=CIRCLE('',#848,4.5);
#336=CIRCLE('',#852,7.49999999999999);
#337=CIRCLE('',#853,7.49999999999999);
#338=CIRCLE('',#854,4.5);
#339=VERTEX_POINT('',#1099);
#340=VERTEX_POINT('',#1101);
#341=VERTEX_POINT('',#1106);
#342=VERTEX_POINT('',#1108);
#343=VERTEX_POINT('',#1113);
#344=VERTEX_POINT('',#1115);
#345=VERTEX_POINT('',#1117);
#346=VERTEX_POINT('',#1119);
#347=VERTEX_POINT('',#1121);
#348=VERTEX_POINT('',#1123);
#349=VERTEX_POINT('',#1125);
#350=VERTEX_POINT('',#1127);
#351=VERTEX_POINT('',#1129);
#352=VERTEX_POINT('',#1131);
#353=VERTEX_POINT('',#1136);
#354=VERTEX_POINT('',#1138);
#355=VERTEX_POINT('',#1140);
#356=VERTEX_POINT('',#1142);
#357=VERTEX_POINT('',#1144);
#358=VERTEX_POINT('',#1146);
#359=VERTEX_POINT('',#1148);
#360=VERTEX_POINT('',#1150);
#361=VERTEX_POINT('',#1152);
#362=VERTEX_POINT('',#1154);
#363=VERTEX_POINT('',#1159);
#364=VERTEX_POINT('',#1161);
#365=VERTEX_POINT('',#1165);
#366=VERTEX_POINT('',#1167);
#367=VERTEX_POINT('',#1171);
#368=VERTEX_POINT('',#1173);
#369=VERTEX_POINT('',#1177);
#370=VERTEX_POINT('',#1179);
#371=VERTEX_POINT('',#1181);
#372=VERTEX_POINT('',#1183);
#373=VERTEX_POINT('',#1185);
#374=VERTEX_POINT('',#1187);
#375=VERTEX_POINT('',#1189);
#376=VERTEX_POINT('',#1191);
#377=VERTEX_POINT('',#1193);
#378=VERTEX_POINT('',#1195);
#379=VERTEX_POINT('',#1199);
#380=VERTEX_POINT('',#1202);
#381=VERTEX_POINT('',#1205);
#382=VERTEX_POINT('',#1208);
#383=VERTEX_POINT('',#1210);
#384=VERTEX_POINT('',#1212);
#385=VERTEX_POINT('',#1214);
#386=VERTEX_POINT('',#1216);
#387=VERTEX_POINT('',#1218);
#388=VERTEX_POINT('',#1220);
#389=VERTEX_POINT('',#1222);
#390=VERTEX_POINT('',#1224);
#391=VERTEX_POINT('',#1228);
#392=VERTEX_POINT('',#1232);
#393=VERTEX_POINT('',#1234);
#394=VERTEX_POINT('',#1236);
#395=VERTEX_POINT('',#1238);
#396=VERTEX_POINT('',#1240);
#397=VERTEX_POINT('',#1242);
#398=VERTEX_POINT('',#1244);
#399=VERTEX_POINT('',#1246);
#400=VERTEX_POINT('',#1248);
#401=VERTEX_POINT('',#1251);
#402=VERTEX_POINT('',#1254);
#403=VERTEX_POINT('',#1256);
#404=VERTEX_POINT('',#1258);
#405=VERTEX_POINT('',#1260);
#406=VERTEX_POINT('',#1262);
#407=VERTEX_POINT('',#1264);
#408=VERTEX_POINT('',#1266);
#409=VERTEX_POINT('',#1268);
#410=VERTEX_POINT('',#1270);
#411=VERTEX_POINT('',#1273);
#412=VERTEX_POINT('',#1276);
#413=EDGE_CURVE('',#339,#339,#317,.T.);
#414=EDGE_CURVE('',#339,#340,#139,.T.);
#415=EDGE_CURVE('',#340,#340,#318,.T.);
#416=EDGE_CURVE('',#341,#341,#319,.T.);
#417=EDGE_CURVE('',#341,#342,#140,.T.);
#418=EDGE_CURVE('',#342,#342,#320,.T.);
#419=EDGE_CURVE('',#343,#343,#321,.T.);
#420=EDGE_CURVE('',#343,#344,#141,.T.);
#421=EDGE_CURVE('',#345,#344,#322,.T.);
#422=EDGE_CURVE('',#346,#345,#142,.T.);
#423=EDGE_CURVE('',#347,#346,#323,.T.);
#424=EDGE_CURVE('',#348,#347,#143,.T.);
#425=EDGE_CURVE('',#349,#348,#324,.T.);
#426=EDGE_CURVE('',#350,#349,#144,.T.);
#427=EDGE_CURVE('',#351,#350,#325,.T.);
#428=EDGE_CURVE('',#352,#351,#145,.T.);
#429=EDGE_CURVE('',#344,#352,#326,.T.);
#430=EDGE_CURVE('',#353,#353,#327,.T.);
#431=EDGE_CURVE('',#353,#354,#146,.T.);
#432=EDGE_CURVE('',#355,#354,#328,.T.);
#433=EDGE_CURVE('',#356,#355,#147,.T.);
#434=EDGE_CURVE('',#357,#356,#329,.T.);
#435=EDGE_CURVE('',#358,#357,#148,.T.);
#436=EDGE_CURVE('',#359,#358,#330,.T.);
#437=EDGE_CURVE('',#360,#359,#149,.T.);
#438=EDGE_CURVE('',#361,#360,#331,.T.);
#439=EDGE_CURVE('',#362,#361,#150,.T.);
#440=EDGE_CURVE('',#354,#362,#332,.T.);
#441=EDGE_CURVE('',#363,#345,#151,.T.);
#442=EDGE_CURVE('',#364,#363,#152,.T.);
#443=EDGE_CURVE('',#364,#346,#153,.T.);
#444=EDGE_CURVE('',#347,#365,#154,.T.);
#445=EDGE_CURVE('',#365,#366,#155,.T.);
#446=EDGE_CURVE('',#348,#366,#156,.T.);
#447=EDGE_CURVE('',#367,#349,#157,.T.);
#448=EDGE_CURVE('',#368,#367,#158,.T.);
#449=EDGE_CURVE('',#368,#350,#159,.T.);
#450=EDGE_CURVE('',#369,#356,#160,.T.);
#451=EDGE_CURVE('',#370,#369,#161,.T.);
#452=EDGE_CURVE('',#371,#370,#162,.T.);
#453=EDGE_CURVE('',#372,#371,#163,.T.);
#454=EDGE_CURVE('',#373,#372,#164,.T.);
#455=EDGE_CURVE('',#374,#373,#165,.T.);
#456=EDGE_CURVE('',#375,#374,#166,.T.);
#457=EDGE_CURVE('',#376,#375,#167,.T.);
#458=EDGE_CURVE('',#377,#376,#168,.T.);
#459=EDGE_CURVE('',#378,#377,#169,.T.);
#460=EDGE_CURVE('',#357,#378,#170,.T.);
#461=EDGE_CURVE('',#379,#364,#333,.T.);
#462=EDGE_CURVE('',#361,#379,#171,.T.);
#463=EDGE_CURVE('',#380,#360,#172,.T.);
#464=EDGE_CURVE('',#365,#380,#334,.T.);
#465=EDGE_CURVE('',#381,#381,#335,.T.);
#466=EDGE_CURVE('',#382,#368,#173,.T.);
#467=EDGE_CURVE('',#383,#382,#174,.T.);
#468=EDGE_CURVE('',#384,#383,#175,.T.);
#469=EDGE_CURVE('',#385,#384,#176,.T.);
#470=EDGE_CURVE('',#386,#385,#177,.T.);
#471=EDGE_CURVE('',#387,#386,#178,.T.);
#472=EDGE_CURVE('',#388,#387,#179,.T.);
#473=EDGE_CURVE('',#389,#388,#180,.T.);
#474=EDGE_CURVE('',#390,#389,#181,.T.);
#475=EDGE_CURVE('',#351,#390,#182,.T.);
#476=EDGE_CURVE('',#391,#355,#183,.T.);
#477=EDGE_CURVE('',#369,#391,#184,.T.);
#478=EDGE_CURVE('',#358,#392,#185,.T.);
#479=EDGE_CURVE('',#392,#393,#186,.T.);
#480=EDGE_CURVE('',#393,#394,#187,.T.);
#481=EDGE_CURVE('',#394,#395,#188,.T.);
#482=EDGE_CURVE('',#395,#396,#189,.T.);
#483=EDGE_CURVE('',#396,#397,#190,.T.);
#484=EDGE_CURVE('',#397,#398,#191,.T.);
#485=EDGE_CURVE('',#398,#399,#192,.T.);
#486=EDGE_CURVE('',#399,#400,#193,.T.);
#487=EDGE_CURVE('',#400,#391,#194,.T.);
#488=EDGE_CURVE('',#362,#401,#195,.T.);
#489=EDGE_CURVE('',#401,#363,#336,.T.);
#490=EDGE_CURVE('',#352,#402,#196,.T.);
#491=EDGE_CURVE('',#402,#403,#197,.T.);
#492=EDGE_CURVE('',#403,#404,#198,.T.);
#493=EDGE_CURVE('',#404,#405,#199,.T.);
#494=EDGE_CURVE('',#405,#406,#200,.T.);
#495=EDGE_CURVE('',#406,#407,#201,.T.);
#496=EDGE_CURVE('',#407,#408,#202,.T.);
#497=EDGE_CURVE('',#408,#409,#203,.T.);
#498=EDGE_CURVE('',#409,#410,#204,.T.);
#499=EDGE_CURVE('',#410,#367,#205,.T.);
#500=EDGE_CURVE('',#366,#411,#337,.T.);
#501=EDGE_CURVE('',#411,#359,#206,.T.);
#502=EDGE_CURVE('',#412,#412,#338,.T.);
#503=EDGE_CURVE('',#378,#392,#207,.T.);
#504=EDGE_CURVE('',#380,#411,#208,.T.);
#505=EDGE_CURVE('',#412,#381,#209,.T.);
#506=EDGE_CURVE('',#390,#402,#210,.T.);
#507=EDGE_CURVE('',#379,#401,#211,.T.);
#508=EDGE_CURVE('',#370,#400,#212,.T.);
#509=EDGE_CURVE('',#371,#399,#213,.T.);
#510=EDGE_CURVE('',#372,#398,#214,.T.);
#511=EDGE_CURVE('',#373,#397,#215,.T.);
#512=EDGE_CURVE('',#374,#396,#216,.T.);
#513=EDGE_CURVE('',#375,#395,#217,.T.);
#514=EDGE_CURVE('',#376,#394,#218,.T.);
#515=EDGE_CURVE('',#377,#393,#219,.T.);
#516=EDGE_CURVE('',#382,#410,#220,.T.);
#517=EDGE_CURVE('',#383,#409,#221,.T.);
#518=EDGE_CURVE('',#384,#408,#222,.T.);
#519=EDGE_CURVE('',#385,#407,#223,.T.);
#520=EDGE_CURVE('',#386,#406,#224,.T.);
#521=EDGE_CURVE('',#387,#405,#225,.T.);
#522=EDGE_CURVE('',#388,#404,#226,.T.);
#523=EDGE_CURVE('',#389,#403,#227,.T.);
#524=ORIENTED_EDGE('',*,*,#413,.F.);
#525=ORIENTED_EDGE('',*,*,#414,.T.);
#526=ORIENTED_EDGE('',*,*,#415,.T.);
#527=ORIENTED_EDGE('',*,*,#414,.F.);
#528=ORIENTED_EDGE('',*,*,#415,.F.);
#529=ORIENTED_EDGE('',*,*,#416,.F.);
#530=ORIENTED_EDGE('',*,*,#417,.T.);
#531=ORIENTED_EDGE('',*,*,#418,.T.);
#532=ORIENTED_EDGE('',*,*,#417,.F.);
#533=ORIENTED_EDGE('',*,*,#418,.F.);
#534=ORIENTED_EDGE('',*,*,#419,.F.);
#535=ORIENTED_EDGE('',*,*,#420,.T.);
#536=ORIENTED_EDGE('',*,*,#421,.F.);
#537=ORIENTED_EDGE('',*,*,#422,.F.);
#538=ORIENTED_EDGE('',*,*,#423,.F.);
#539=ORIENTED_EDGE('',*,*,#424,.F.);
#540=ORIENTED_EDGE('',*,*,#425,.F.);
#541=ORIENTED_EDGE('',*,*,#426,.F.);
#542=ORIENTED_EDGE('',*,*,#427,.F.);
#543=ORIENTED_EDGE('',*,*,#428,.F.);
#544=ORIENTED_EDGE('',*,*,#429,.F.);
#545=ORIENTED_EDGE('',*,*,#420,.F.);
#546=ORIENTED_EDGE('',*,*,#419,.T.);
#547=ORIENTED_EDGE('',*,*,#416,.T.);
#548=ORIENTED_EDGE('',*,*,#430,.F.);
#549=ORIENTED_EDGE('',*,*,#431,.T.);
#550=ORIENTED_EDGE('',*,*,#432,.F.);
#551=ORIENTED_EDGE('',*,*,#433,.F.);
#552=ORIENTED_EDGE('',*,*,#434,.F.);
#553=ORIENTED_EDGE('',*,*,#435,.F.);
#554=ORIENTED_EDGE('',*,*,#436,.F.);
#555=ORIENTED_EDGE('',*,*,#437,.F.);
#556=ORIENTED_EDGE('',*,*,#438,.F.);
#557=ORIENTED_EDGE('',*,*,#439,.F.);
#558=ORIENTED_EDGE('',*,*,#440,.F.);
#559=ORIENTED_EDGE('',*,*,#431,.F.);
#560=ORIENTED_EDGE('',*,*,#430,.T.);
#561=ORIENTED_EDGE('',*,*,#413,.T.);
#562=ORIENTED_EDGE('',*,*,#422,.T.);
#563=ORIENTED_EDGE('',*,*,#441,.F.);
#564=ORIENTED_EDGE('',*,*,#442,.F.);
#565=ORIENTED_EDGE('',*,*,#443,.T.);
#566=ORIENTED_EDGE('',*,*,#424,.T.);
#567=ORIENTED_EDGE('',*,*,#444,.T.);
#568=ORIENTED_EDGE('',*,*,#445,.T.);
#569=ORIENTED_EDGE('',*,*,#446,.F.);
#570=ORIENTED_EDGE('',*,*,#426,.T.);
#571=ORIENTED_EDGE('',*,*,#447,.F.);
#572=ORIENTED_EDGE('',*,*,#448,.F.);
#573=ORIENTED_EDGE('',*,*,#449,.T.);
#574=ORIENTED_EDGE('',*,*,#434,.T.);
#575=ORIENTED_EDGE('',*,*,#450,.F.);
#576=ORIENTED_EDGE('',*,*,#451,.F.);
#577=ORIENTED_EDGE('',*,*,#452,.F.);
#578=ORIENTED_EDGE('',*,*,#453,.F.);
#579=ORIENTED_EDGE('',*,*,#454,.F.);
#580=ORIENTED_EDGE('',*,*,#455,.F.);
#581=ORIENTED_EDGE('',*,*,#456,.F.);
#582=ORIENTED_EDGE('',*,*,#457,.F.);
#583=ORIENTED_EDGE('',*,*,#458,.F.);
#584=ORIENTED_EDGE('',*,*,#459,.F.);
#585=ORIENTED_EDGE('',*,*,#460,.F.);
#586=ORIENTED_EDGE('',*,*,#423,.T.);
#587=ORIENTED_EDGE('',*,*,#443,.F.);
#588=ORIENTED_EDGE('',*,*,#461,.F.);
#589=ORIENTED_EDGE('',*,*,#462,.F.);
#590=ORIENTED_EDGE('',*,*,#438,.T.);
#591=ORIENTED_EDGE('',*,*,#463,.F.);
#592=ORIENTED_EDGE('',*,*,#464,.F.);
#593=ORIENTED_EDGE('',*,*,#444,.F.);
#594=ORIENTED_EDGE('',*,*,#465,.F.);
#595=ORIENTED_EDGE('',*,*,#427,.T.);
#596=ORIENTED_EDGE('',*,*,#449,.F.);
#597=ORIENTED_EDGE('',*,*,#466,.F.);
#598=ORIENTED_EDGE('',*,*,#467,.F.);
#599=ORIENTED_EDGE('',*,*,#468,.F.);
#600=ORIENTED_EDGE('',*,*,#469,.F.);
#601=ORIENTED_EDGE('',*,*,#470,.F.);
#602=ORIENTED_EDGE('',*,*,#471,.F.);
#603=ORIENTED_EDGE('',*,*,#472,.F.);
#604=ORIENTED_EDGE('',*,*,#473,.F.);
#605=ORIENTED_EDGE('',*,*,#474,.F.);
#606=ORIENTED_EDGE('',*,*,#475,.F.);
#607=ORIENTED_EDGE('',*,*,#433,.T.);
#608=ORIENTED_EDGE('',*,*,#476,.F.);
#609=ORIENTED_EDGE('',*,*,#477,.F.);
#610=ORIENTED_EDGE('',*,*,#450,.T.);
#611=ORIENTED_EDGE('',*,*,#478,.T.);
#612=ORIENTED_EDGE('',*,*,#479,.T.);
#613=ORIENTED_EDGE('',*,*,#480,.T.);
#614=ORIENTED_EDGE('',*,*,#481,.T.);
#615=ORIENTED_EDGE('',*,*,#482,.T.);
#616=ORIENTED_EDGE('',*,*,#483,.T.);
#617=ORIENTED_EDGE('',*,*,#484,.T.);
#618=ORIENTED_EDGE('',*,*,#485,.T.);
#619=ORIENTED_EDGE('',*,*,#486,.T.);
#620=ORIENTED_EDGE('',*,*,#487,.T.);
#621=ORIENTED_EDGE('',*,*,#476,.T.);
#622=ORIENTED_EDGE('',*,*,#432,.T.);
#623=ORIENTED_EDGE('',*,*,#440,.T.);
#624=ORIENTED_EDGE('',*,*,#488,.T.);
#625=ORIENTED_EDGE('',*,*,#489,.T.);
#626=ORIENTED_EDGE('',*,*,#441,.T.);
#627=ORIENTED_EDGE('',*,*,#421,.T.);
#628=ORIENTED_EDGE('',*,*,#429,.T.);
#629=ORIENTED_EDGE('',*,*,#490,.T.);
#630=ORIENTED_EDGE('',*,*,#491,.T.);
#631=ORIENTED_EDGE('',*,*,#492,.T.);
#632=ORIENTED_EDGE('',*,*,#493,.T.);
#633=ORIENTED_EDGE('',*,*,#494,.T.);
#634=ORIENTED_EDGE('',*,*,#495,.T.);
#635=ORIENTED_EDGE('',*,*,#496,.T.);
#636=ORIENTED_EDGE('',*,*,#497,.T.);
#637=ORIENTED_EDGE('',*,*,#498,.T.);
#638=ORIENTED_EDGE('',*,*,#499,.T.);
#639=ORIENTED_EDGE('',*,*,#447,.T.);
#640=ORIENTED_EDGE('',*,*,#425,.T.);
#641=ORIENTED_EDGE('',*,*,#446,.T.);
#642=ORIENTED_EDGE('',*,*,#500,.T.);
#643=ORIENTED_EDGE('',*,*,#501,.T.);
#644=ORIENTED_EDGE('',*,*,#436,.T.);
#645=ORIENTED_EDGE('',*,*,#502,.T.);
#646=ORIENTED_EDGE('',*,*,#435,.T.);
#647=ORIENTED_EDGE('',*,*,#460,.T.);
#648=ORIENTED_EDGE('',*,*,#503,.T.);
#649=ORIENTED_EDGE('',*,*,#478,.F.);
#650=ORIENTED_EDGE('',*,*,#437,.T.);
#651=ORIENTED_EDGE('',*,*,#501,.F.);
#652=ORIENTED_EDGE('',*,*,#504,.F.);
#653=ORIENTED_EDGE('',*,*,#463,.T.);
#654=ORIENTED_EDGE('',*,*,#502,.F.);
#655=ORIENTED_EDGE('',*,*,#505,.T.);
#656=ORIENTED_EDGE('',*,*,#465,.T.);
#657=ORIENTED_EDGE('',*,*,#505,.F.);
#658=ORIENTED_EDGE('',*,*,#428,.T.);
#659=ORIENTED_EDGE('',*,*,#475,.T.);
#660=ORIENTED_EDGE('',*,*,#506,.T.);
#661=ORIENTED_EDGE('',*,*,#490,.F.);
#662=ORIENTED_EDGE('',*,*,#461,.T.);
#663=ORIENTED_EDGE('',*,*,#442,.T.);
#664=ORIENTED_EDGE('',*,*,#489,.F.);
#665=ORIENTED_EDGE('',*,*,#507,.F.);
#666=ORIENTED_EDGE('',*,*,#439,.T.);
#667=ORIENTED_EDGE('',*,*,#462,.T.);
#668=ORIENTED_EDGE('',*,*,#507,.T.);
#669=ORIENTED_EDGE('',*,*,#488,.F.);
#670=ORIENTED_EDGE('',*,*,#451,.T.);
#671=ORIENTED_EDGE('',*,*,#477,.T.);
#672=ORIENTED_EDGE('',*,*,#487,.F.);
#673=ORIENTED_EDGE('',*,*,#508,.F.);
#674=ORIENTED_EDGE('',*,*,#452,.T.);
#675=ORIENTED_EDGE('',*,*,#508,.T.);
#676=ORIENTED_EDGE('',*,*,#486,.F.);
#677=ORIENTED_EDGE('',*,*,#509,.F.);
#678=ORIENTED_EDGE('',*,*,#453,.T.);
#679=ORIENTED_EDGE('',*,*,#509,.T.);
#680=ORIENTED_EDGE('',*,*,#485,.F.);
#681=ORIENTED_EDGE('',*,*,#510,.F.);
#682=ORIENTED_EDGE('',*,*,#454,.T.);
#683=ORIENTED_EDGE('',*,*,#510,.T.);
#684=ORIENTED_EDGE('',*,*,#484,.F.);
#685=ORIENTED_EDGE('',*,*,#511,.F.);
#686=ORIENTED_EDGE('',*,*,#455,.T.);
#687=ORIENTED_EDGE('',*,*,#511,.T.);
#688=ORIENTED_EDGE('',*,*,#483,.F.);
#689=ORIENTED_EDGE('',*,*,#512,.F.);
#690=ORIENTED_EDGE('',*,*,#456,.T.);
#691=ORIENTED_EDGE('',*,*,#512,.T.);
#692=ORIENTED_EDGE('',*,*,#482,.F.);
#693=ORIENTED_EDGE('',*,*,#513,.F.);
#694=ORIENTED_EDGE('',*,*,#457,.T.);
#695=ORIENTED_EDGE('',*,*,#513,.T.);
#696=ORIENTED_EDGE('',*,*,#481,.F.);
#697=ORIENTED_EDGE('',*,*,#514,.F.);
#698=ORIENTED_EDGE('',*,*,#458,.T.);
#699=ORIENTED_EDGE('',*,*,#514,.T.);
#700=ORIENTED_EDGE('',*,*,#480,.F.);
#701=ORIENTED_EDGE('',*,*,#515,.F.);
#702=ORIENTED_EDGE('',*,*,#459,.T.);
#703=ORIENTED_EDGE('',*,*,#515,.T.);
#704=ORIENTED_EDGE('',*,*,#479,.F.);
#705=ORIENTED_EDGE('',*,*,#503,.F.);
#706=ORIENTED_EDGE('',*,*,#464,.T.);
#707=ORIENTED_EDGE('',*,*,#504,.T.);
#708=ORIENTED_EDGE('',*,*,#500,.F.);
#709=ORIENTED_EDGE('',*,*,#445,.F.);
#710=ORIENTED_EDGE('',*,*,#466,.T.);
#711=ORIENTED_EDGE('',*,*,#448,.T.);
#712=ORIENTED_EDGE('',*,*,#499,.F.);
#713=ORIENTED_EDGE('',*,*,#516,.F.);
#714=ORIENTED_EDGE('',*,*,#467,.T.);
#715=ORIENTED_EDGE('',*,*,#516,.T.);
#716=ORIENTED_EDGE('',*,*,#498,.F.);
#717=ORIENTED_EDGE('',*,*,#517,.F.);
#718=ORIENTED_EDGE('',*,*,#468,.T.);
#719=ORIENTED_EDGE('',*,*,#517,.T.);
#720=ORIENTED_EDGE('',*,*,#497,.F.);
#721=ORIENTED_EDGE('',*,*,#518,.F.);
#722=ORIENTED_EDGE('',*,*,#469,.T.);
#723=ORIENTED_EDGE('',*,*,#518,.T.);
#724=ORIENTED_EDGE('',*,*,#496,.F.);
#725=ORIENTED_EDGE('',*,*,#519,.F.);
#726=ORIENTED_EDGE('',*,*,#470,.T.);
#727=ORIENTED_EDGE('',*,*,#519,.T.);
#728=ORIENTED_EDGE('',*,*,#495,.F.);
#729=ORIENTED_EDGE('',*,*,#520,.F.);
#730=ORIENTED_EDGE('',*,*,#471,.T.);
#731=ORIENTED_EDGE('',*,*,#520,.T.);
#732=ORIENTED_EDGE('',*,*,#494,.F.);
#733=ORIENTED_EDGE('',*,*,#521,.F.);
#734=ORIENTED_EDGE('',*,*,#472,.T.);
#735=ORIENTED_EDGE('',*,*,#521,.T.);
#736=ORIENTED_EDGE('',*,*,#493,.F.);
#737=ORIENTED_EDGE('',*,*,#522,.F.);
#738=ORIENTED_EDGE('',*,*,#473,.T.);
#739=ORIENTED_EDGE('',*,*,#522,.T.);
#740=ORIENTED_EDGE('',*,*,#492,.F.);
#741=ORIENTED_EDGE('',*,*,#523,.F.);
#742=ORIENTED_EDGE('',*,*,#474,.T.);
#743=ORIENTED_EDGE('',*,*,#523,.T.);
#744=ORIENTED_EDGE('',*,*,#491,.F.);
#745=ORIENTED_EDGE('',*,*,#506,.F.);
#746=CYLINDRICAL_SURFACE('',#817,5.);
#747=CYLINDRICAL_SURFACE('',#821,5.);
#748=CYLINDRICAL_SURFACE('',#825,8.);
#749=CYLINDRICAL_SURFACE('',#833,8.);
#750=CYLINDRICAL_SURFACE('',#857,4.5);
#751=CYLINDRICAL_SURFACE('',#859,7.49999999999999);
#752=CYLINDRICAL_SURFACE('',#870,7.49999999999999);
#753=ADVANCED_FACE('',(#53),#746,.F.);
#754=ADVANCED_FACE('',(#54),#19,.T.);
#755=ADVANCED_FACE('',(#55),#747,.F.);
#756=ADVANCED_FACE('',(#56),#20,.T.);
#757=ADVANCED_FACE('',(#57),#748,.T.);
#758=ADVANCED_FACE('',(#58,#15),#21,.T.);
#759=ADVANCED_FACE('',(#59),#749,.T.);
#760=ADVANCED_FACE('',(#60,#16),#22,.T.);
#761=ADVANCED_FACE('',(#61),#23,.T.);
#762=ADVANCED_FACE('',(#62),#24,.T.);
#763=ADVANCED_FACE('',(#63),#25,.T.);
#764=ADVANCED_FACE('',(#64),#26,.F.);
#765=ADVANCED_FACE('',(#65,#17),#27,.F.);
#766=ADVANCED_FACE('',(#66),#28,.F.);
#767=ADVANCED_FACE('',(#67),#29,.T.);
#768=ADVANCED_FACE('',(#68,#18),#30,.T.);
#769=ADVANCED_FACE('',(#69),#31,.T.);
#770=ADVANCED_FACE('',(#70),#32,.T.);
#771=ADVANCED_FACE('',(#71),#750,.F.);
#772=ADVANCED_FACE('',(#72),#33,.T.);
#773=ADVANCED_FACE('',(#73),#751,.T.);
#774=ADVANCED_FACE('',(#74),#34,.T.);
#775=ADVANCED_FACE('',(#75),#35,.T.);
#776=ADVANCED_FACE('',(#76),#36,.T.);
#777=ADVANCED_FACE('',(#77),#37,.T.);
#778=ADVANCED_FACE('',(#78),#38,.T.);
#779=ADVANCED_FACE('',(#79),#39,.T.);
#780=ADVANCED_FACE('',(#80),#40,.T.);
#781=ADVANCED_FACE('',(#81),#41,.T.);
#782=ADVANCED_FACE('',(#82),#42,.T.);
#783=ADVANCED_FACE('',(#83),#43,.T.);
#784=ADVANCED_FACE('',(#84),#752,.T.);
#785=ADVANCED_FACE('',(#85),#44,.T.);
#786=ADVANCED_FACE('',(#86),#45,.T.);
#787=ADVANCED_FACE('',(#87),#46,.T.);
#788=ADVANCED_FACE('',(#88),#47,.T.);
#789=ADVANCED_FACE('',(#89),#48,.T.);
#790=ADVANCED_FACE('',(#90),#49,.T.);
#791=ADVANCED_FACE('',(#91),#50,.T.);
#792=ADVANCED_FACE('',(#92),#51,.T.);
#793=ADVANCED_FACE('',(#93),#52,.T.);
#794=CLOSED_SHELL('',(#753,#754,#755,#756,#757,#758,#759,#760,#761,#762,
#763,#764,#765,#766,#767,#768,#769,#770,#771,#772,#773,#774,#775,#776,#777,
#778,#779,#780,#781,#782,#783,#784,#785,#786,#787,#788,#789,#790,#791,#792,
#793));
#795=DERIVED_UNIT_ELEMENT(#798,1.);
#796=DERIVED_UNIT_ELEMENT(#1329,-3.);
#797=DIMENSIONAL_EXPONENTS(0.,1.,0.,0.,0.,0.,0.);
#798=(
CONVERSION_BASED_UNIT('gram',#800)
MASS_UNIT()
NAMED_UNIT(#797)
);
#799=(
MASS_UNIT()
NAMED_UNIT(*)
SI_UNIT(.KILO.,.GRAM.)
);
#800=MASS_MEASURE_WITH_UNIT(MASS_MEASURE(0.001),#799);
#801=DERIVED_UNIT((#795,#796));
#802=MEASURE_REPRESENTATION_ITEM('density measure',
POSITIVE_RATIO_MEASURE(1.),#801);
#803=PROPERTY_DEFINITION_REPRESENTATION(#808,#805);
#804=PROPERTY_DEFINITION_REPRESENTATION(#809,#806);
#805=REPRESENTATION('material name',(#807),#1326);
#806=REPRESENTATION('density',(#802),#1326);
#807=DESCRIPTIVE_REPRESENTATION_ITEM('Generic','Generic');
#808=PROPERTY_DEFINITION('material property','material name',#1336);
#809=PROPERTY_DEFINITION('material property','density of part',#1336);
#810=DATE_TIME_ROLE('creation_date');
#811=APPLIED_DATE_AND_TIME_ASSIGNMENT(#812,#810,(#1336));
#812=DATE_AND_TIME(#813,#814);
#813=CALENDAR_DATE(2026,2,5);
#814=LOCAL_TIME(0,0,0.,#815);
#815=COORDINATED_UNIVERSAL_TIME_OFFSET(0,0,.BEHIND.);
#816=AXIS2_PLACEMENT_3D('',#1097,#880,#881);
#817=AXIS2_PLACEMENT_3D('',#1098,#882,#883);
#818=AXIS2_PLACEMENT_3D('',#1100,#884,#885);
#819=AXIS2_PLACEMENT_3D('',#1103,#887,#888);
#820=AXIS2_PLACEMENT_3D('',#1104,#889,#890);
#821=AXIS2_PLACEMENT_3D('',#1105,#891,#892);
#822=AXIS2_PLACEMENT_3D('',#1107,#893,#894);
#823=AXIS2_PLACEMENT_3D('',#1110,#896,#897);
#824=AXIS2_PLACEMENT_3D('',#1111,#898,#899);
#825=AXIS2_PLACEMENT_3D('',#1112,#900,#901);
#826=AXIS2_PLACEMENT_3D('',#1114,#902,#903);
#827=AXIS2_PLACEMENT_3D('',#1118,#905,#906);
#828=AXIS2_PLACEMENT_3D('',#1122,#908,#909);
#829=AXIS2_PLACEMENT_3D('',#1126,#911,#912);
#830=AXIS2_PLACEMENT_3D('',#1130,#914,#915);
#831=AXIS2_PLACEMENT_3D('',#1133,#917,#918);
#832=AXIS2_PLACEMENT_3D('',#1134,#919,#920);
#833=AXIS2_PLACEMENT_3D('',#1135,#921,#922);
#834=AXIS2_PLACEMENT_3D('',#1137,#923,#924);
#835=AXIS2_PLACEMENT_3D('',#1141,#926,#927);
#836=AXIS2_PLACEMENT_3D('',#1145,#929,#930);
#837=AXIS2_PLACEMENT_3D('',#1149,#932,#933);
#838=AXIS2_PLACEMENT_3D('',#1153,#935,#936);
#839=AXIS2_PLACEMENT_3D('',#1156,#938,#939);
#840=AXIS2_PLACEMENT_3D('',#1157,#940,#941);
#841=AXIS2_PLACEMENT_3D('',#1158,#942,#943);
#842=AXIS2_PLACEMENT_3D('',#1164,#947,#948);
#843=AXIS2_PLACEMENT_3D('',#1170,#952,#953);
#844=AXIS2_PLACEMENT_3D('',#1176,#957,#958);
#845=AXIS2_PLACEMENT_3D('',#1198,#970,#971);
#846=AXIS2_PLACEMENT_3D('',#1200,#972,#973);
#847=AXIS2_PLACEMENT_3D('',#1204,#976,#977);
#848=AXIS2_PLACEMENT_3D('',#1206,#978,#979);
#849=AXIS2_PLACEMENT_3D('',#1207,#980,#981);
#850=AXIS2_PLACEMENT_3D('',#1227,#992,#993);
#851=AXIS2_PLACEMENT_3D('',#1231,#996,#997);
#852=AXIS2_PLACEMENT_3D('',#1253,#1009,#1010);
#853=AXIS2_PLACEMENT_3D('',#1274,#1021,#1022);
#854=AXIS2_PLACEMENT_3D('',#1277,#1024,#1025);
#855=AXIS2_PLACEMENT_3D('',#1278,#1026,#1027);
#856=AXIS2_PLACEMENT_3D('',#1280,#1029,#1030);
#857=AXIS2_PLACEMENT_3D('',#1282,#1032,#1033);
#858=AXIS2_PLACEMENT_3D('',#1284,#1035,#1036);
#859=AXIS2_PLACEMENT_3D('',#1286,#1038,#1039);
#860=AXIS2_PLACEMENT_3D('',#1288,#1041,#1042);
#861=AXIS2_PLACEMENT_3D('',#1289,#1043,#1044);
#862=AXIS2_PLACEMENT_3D('',#1291,#1046,#1047);
#863=AXIS2_PLACEMENT_3D('',#1293,#1049,#1050);
#864=AXIS2_PLACEMENT_3D('',#1295,#1052,#1053);
#865=AXIS2_PLACEMENT_3D('',#1297,#1055,#1056);
#866=AXIS2_PLACEMENT_3D('',#1299,#1058,#1059);
#867=AXIS2_PLACEMENT_3D('',#1301,#1061,#1062);
#868=AXIS2_PLACEMENT_3D('',#1303,#1064,#1065);
#869=AXIS2_PLACEMENT_3D('',#1305,#1067,#1068);
#870=AXIS2_PLACEMENT_3D('',#1306,#1069,#1070);
#871=AXIS2_PLACEMENT_3D('',#1307,#1071,#1072);
#872=AXIS2_PLACEMENT_3D('',#1309,#1074,#1075);
#873=AXIS2_PLACEMENT_3D('',#1311,#1077,#1078);
#874=AXIS2_PLACEMENT_3D('',#1313,#1080,#1081);
#875=AXIS2_PLACEMENT_3D('',#1315,#1083,#1084);
#876=AXIS2_PLACEMENT_3D('',#1317,#1086,#1087);
#877=AXIS2_PLACEMENT_3D('',#1319,#1089,#1090);
#878=AXIS2_PLACEMENT_3D('',#1321,#1092,#1093);
#879=AXIS2_PLACEMENT_3D('',#1323,#1095,#1096);
#880=DIRECTION('axis',(0.,0.,1.));
#881=DIRECTION('refdir',(1.,0.,0.));
#882=DIRECTION('center_axis',(0.,1.,0.));
#883=DIRECTION('ref_axis',(1.,0.,0.));
#884=DIRECTION('center_axis',(0.,1.,0.));
#885=DIRECTION('ref_axis',(1.,0.,0.));
#886=DIRECTION('',(0.,1.,0.));
#887=DIRECTION('center_axis',(0.,1.,0.));
#888=DIRECTION('ref_axis',(1.,0.,0.));
#889=DIRECTION('center_axis',(0.,-1.,0.));
#890=DIRECTION('ref_axis',(0.,0.,-1.));
#891=DIRECTION('center_axis',(0.,1.,0.));
#892=DIRECTION('ref_axis',(1.,0.,0.));
#893=DIRECTION('center_axis',(0.,1.,0.));
#894=DIRECTION('ref_axis',(1.,0.,0.));
#895=DIRECTION('',(0.,1.,0.));
#896=DIRECTION('center_axis',(0.,1.,0.));
#897=DIRECTION('ref_axis',(1.,0.,0.));
#898=DIRECTION('center_axis',(0.,-1.,0.));
#899=DIRECTION('ref_axis',(0.,0.,-1.));
#900=DIRECTION('center_axis',(0.,-1.,0.));
#901=DIRECTION('ref_axis',(1.,0.,0.));
#902=DIRECTION('center_axis',(0.,-1.,0.));
#903=DIRECTION('ref_axis',(1.,0.,0.));
#904=DIRECTION('',(0.,1.,0.));
#905=DIRECTION('center_axis',(0.,1.,0.));
#906=DIRECTION('ref_axis',(1.,0.,0.));
#907=DIRECTION('',(0.,1.,0.));
#908=DIRECTION('center_axis',(0.,1.,0.));
#909=DIRECTION('ref_axis',(1.,0.,0.));
#910=DIRECTION('',(0.,-1.,0.));
#911=DIRECTION('center_axis',(0.,1.,0.));
#912=DIRECTION('ref_axis',(1.,0.,0.));
#913=DIRECTION('',(0.,1.,0.));
#914=DIRECTION('center_axis',(0.,1.,0.));
#915=DIRECTION('ref_axis',(1.,0.,0.));
#916=DIRECTION('',(0.,-1.,0.));
#917=DIRECTION('center_axis',(0.,1.,0.));
#918=DIRECTION('ref_axis',(1.,0.,0.));
#919=DIRECTION('center_axis',(0.,-1.,0.));
#920=DIRECTION('ref_axis',(0.,0.,-1.));
#921=DIRECTION('center_axis',(0.,-1.,0.));
#922=DIRECTION('ref_axis',(1.,0.,0.));
#923=DIRECTION('center_axis',(0.,-1.,0.));
#924=DIRECTION('ref_axis',(1.,0.,0.));
#925=DIRECTION('',(0.,1.,0.));
#926=DIRECTION('center_axis',(0.,1.,0.));
#927=DIRECTION('ref_axis',(1.,0.,0.));
#928=DIRECTION('',(0.,1.,0.));
#929=DIRECTION('center_axis',(0.,1.,0.));
#930=DIRECTION('ref_axis',(1.,0.,0.));
#931=DIRECTION('',(0.,-1.,0.));
#932=DIRECTION('center_axis',(0.,1.,0.));
#933=DIRECTION('ref_axis',(1.,0.,0.));
#934=DIRECTION('',(0.,1.,0.));
#935=DIRECTION('center_axis',(0.,1.,0.));
#936=DIRECTION('ref_axis',(1.,0.,0.));
#937=DIRECTION('',(0.,-1.,0.));
#938=DIRECTION('center_axis',(0.,1.,0.));
#939=DIRECTION('ref_axis',(1.,0.,0.));
#940=DIRECTION('center_axis',(0.,-1.,0.));
#941=DIRECTION('ref_axis',(0.,0.,-1.));
#942=DIRECTION('center_axis',(-0.999999479507931,0.,0.00102028616932325));
#943=DIRECTION('ref_axis',(0.00102028616932325,0.,0.999999479507931));
#944=DIRECTION('',(0.00102028616932325,0.,0.999999479507931));
#945=DIRECTION('',(0.,1.,0.));
#946=DIRECTION('',(0.00102028616932325,0.,0.999999479507931));
#947=DIRECTION('center_axis',(0.999999479507931,0.,-0.00102028616932303));
#948=DIRECTION('ref_axis',(-0.00102028616932303,0.,-0.999999479507931));
#949=DIRECTION('',(-0.00102028616932303,0.,-0.999999479507931));
#950=DIRECTION('',(0.,1.,0.));
#951=DIRECTION('',(-0.00102028616932303,0.,-0.999999479507931));
#952=DIRECTION('center_axis',(0.999999479507931,0.,-0.00102028616932303));
#953=DIRECTION('ref_axis',(-0.00102028616932303,0.,-0.999999479507931));
#954=DIRECTION('',(-0.00102028616932303,0.,-0.999999479507931));
#955=DIRECTION('',(0.,1.,0.));
#956=DIRECTION('',(-0.00102028616932303,0.,-0.999999479507931));
#957=DIRECTION('center_axis',(0.,1.,0.));
#958=DIRECTION('ref_axis',(0.,0.,1.));
#959=DIRECTION('',(0.00102028616932325,0.,0.999999479507931));
#960=DIRECTION('',(-1.,0.,0.));
#961=DIRECTION('',(0.,0.,1.));
#962=DIRECTION('',(1.,0.,0.));
#963=DIRECTION('',(8.32667268468863E-16,0.,1.));
#964=DIRECTION('',(-1.,0.,0.));
#965=DIRECTION('',(-2.77555756156288E-16,0.,-1.));
#966=DIRECTION('',(1.,0.,0.));
#967=DIRECTION('',(7.40148683083436E-16,0.,-1.));
#968=DIRECTION('',(-1.,0.,0.));
#969=DIRECTION('',(-0.00102028616932303,0.,-0.999999479507931));
#970=DIRECTION('center_axis',(0.,1.,0.));
#971=DIRECTION('ref_axis',(0.,0.,1.));
#972=DIRECTION('center_axis',(0.,1.,0.));
#973=DIRECTION('ref_axis',(-1.,0.,0.));
#974=DIRECTION('',(0.00102028616932325,0.,0.999999479507931));
#975=DIRECTION('',(-0.00102028616932303,0.,-0.999999479507931));
#976=DIRECTION('center_axis',(0.,1.,0.));
#977=DIRECTION('ref_axis',(-1.,0.,0.));
#978=DIRECTION('center_axis',(0.,-1.,0.));
#979=DIRECTION('ref_axis',(1.,0.,0.));
#980=DIRECTION('center_axis',(0.,1.,0.));
#981=DIRECTION('ref_axis',(0.,0.,1.));
#982=DIRECTION('',(1.,0.,0.));
#983=DIRECTION('',(2.22044604925031E-15,0.,-1.));
#984=DIRECTION('',(-1.,0.,1.77635683940026E-14));
#985=DIRECTION('',(-1.11022302462516E-15,0.,-1.));
#986=DIRECTION('',(1.,0.,-4.44089209850063E-15));
#987=DIRECTION('',(-5.55111512312578E-16,0.,1.));
#988=DIRECTION('',(-1.,0.,0.));
#989=DIRECTION('',(2.96059473233374E-15,0.,1.));
#990=DIRECTION('',(1.,0.,0.));
#991=DIRECTION('',(0.00102028616932325,0.,0.999999479507931));
#992=DIRECTION('center_axis',(-0.999999479507931,0.,0.00102028616932325));
#993=DIRECTION('ref_axis',(0.00102028616932325,0.,0.999999479507931));
#994=DIRECTION('',(0.00102028616932325,0.,0.999999479507931));
#995=DIRECTION('',(0.,1.,0.));
#996=DIRECTION('center_axis',(0.,1.,0.));
#997=DIRECTION('ref_axis',(0.,0.,1.));
#998=DIRECTION('',(-0.00102028616932303,0.,-0.999999479507931));
#999=DIRECTION('',(-1.,0.,0.));
#1000=DIRECTION('',(7.40148683083436E-16,0.,-1.));
#1001=DIRECTION('',(1.,0.,0.));
#1002=DIRECTION('',(-2.77555756156288E-16,0.,-1.));
#1003=DIRECTION('',(-1.,0.,0.));
#1004=DIRECTION('',(8.32667268468863E-16,0.,1.));
#1005=DIRECTION('',(1.,0.,0.));
#1006=DIRECTION('',(0.,0.,1.));
#1007=DIRECTION('',(-1.,0.,0.));
#1008=DIRECTION('',(0.00102028616932325,0.,0.999999479507931));
#1009=DIRECTION('center_axis',(0.,1.,0.));
#1010=DIRECTION('ref_axis',(-1.,0.,0.));
#1011=DIRECTION('',(0.00102028616932325,0.,0.999999479507931));
#1012=DIRECTION('',(1.,0.,0.));
#1013=DIRECTION('',(2.96059473233374E-15,0.,1.));
#1014=DIRECTION('',(-1.,0.,0.));
#1015=DIRECTION('',(-5.55111512312578E-16,0.,1.));
#1016=DIRECTION('',(1.,0.,-4.44089209850063E-15));
#1017=DIRECTION('',(-1.11022302462516E-15,0.,-1.));
#1018=DIRECTION('',(-1.,0.,1.77635683940026E-14));
#1019=DIRECTION('',(2.22044604925031E-15,0.,-1.));
#1020=DIRECTION('',(1.,0.,0.));
#1021=DIRECTION('center_axis',(0.,1.,0.));
#1022=DIRECTION('ref_axis',(-1.,0.,0.));
#1023=DIRECTION('',(-0.00102028616932303,0.,-0.999999479507931));
#1024=DIRECTION('center_axis',(0.,-1.,0.));
#1025=DIRECTION('ref_axis',(1.,0.,0.));
#1026=DIRECTION('center_axis',(0.999999479507931,0.,-0.00102028616932303));
#1027=DIRECTION('ref_axis',(-0.00102028616932303,0.,-0.999999479507931));
#1028=DIRECTION('',(0.,1.,0.));
#1029=DIRECTION('center_axis',(0.999999479507931,0.,-0.00102028616932303));
#1030=DIRECTION('ref_axis',(-0.00102028616932303,0.,-0.999999479507931));
#1031=DIRECTION('',(0.,1.,0.));
#1032=DIRECTION('center_axis',(0.,1.,0.));
#1033=DIRECTION('ref_axis',(1.,0.,0.));
#1034=DIRECTION('',(0.,-1.,0.));
#1035=DIRECTION('center_axis',(-0.999999479507931,0.,0.00102028616932325));
#1036=DIRECTION('ref_axis',(0.00102028616932325,0.,0.999999479507931));
#1037=DIRECTION('',(0.,1.,0.));
#1038=DIRECTION('center_axis',(0.,1.,0.));
#1039=DIRECTION('ref_axis',(-1.,0.,0.));
#1040=DIRECTION('',(0.,1.,0.));
#1041=DIRECTION('center_axis',(-0.999999479507931,0.,0.00102028616932325));
#1042=DIRECTION('ref_axis',(0.00102028616932325,0.,0.999999479507931));
#1043=DIRECTION('center_axis',(0.,0.,-1.));
#1044=DIRECTION('ref_axis',(-1.,0.,0.));
#1045=DIRECTION('',(0.,1.,0.));
#1046=DIRECTION('center_axis',(-1.,0.,0.));
#1047=DIRECTION('ref_axis',(0.,0.,1.));
#1048=DIRECTION('',(0.,1.,0.));
#1049=DIRECTION('center_axis',(0.,0.,1.));
#1050=DIRECTION('ref_axis',(1.,0.,0.));
#1051=DIRECTION('',(0.,1.,0.));
#1052=DIRECTION('center_axis',(-1.,0.,8.32667268468863E-16));
#1053=DIRECTION('ref_axis',(8.32667268468863E-16,0.,1.));
#1054=DIRECTION('',(0.,1.,0.));
#1055=DIRECTION('center_axis',(0.,0.,-1.));
#1056=DIRECTION('ref_axis',(-1.,0.,0.));
#1057=DIRECTION('',(0.,1.,0.));
#1058=DIRECTION('center_axis',(1.,0.,-2.77555756156288E-16));
#1059=DIRECTION('ref_axis',(-2.77555756156288E-16,0.,-1.));
#1060=DIRECTION('',(0.,1.,0.));
#1061=DIRECTION('center_axis',(0.,0.,1.));
#1062=DIRECTION('ref_axis',(1.,0.,0.));
#1063=DIRECTION('',(0.,1.,0.));
#1064=DIRECTION('center_axis',(1.,0.,7.40148683083436E-16));
#1065=DIRECTION('ref_axis',(7.40148683083436E-16,0.,-1.));
#1066=DIRECTION('',(0.,1.,0.));
#1067=DIRECTION('center_axis',(0.,0.,-1.));
#1068=DIRECTION('ref_axis',(-1.,0.,0.));
#1069=DIRECTION('center_axis',(0.,1.,0.));
#1070=DIRECTION('ref_axis',(0.999999479507931,0.,-0.00102028616932244));
#1071=DIRECTION('center_axis',(0.,0.,1.));
#1072=DIRECTION('ref_axis',(1.,0.,0.));
#1073=DIRECTION('',(0.,1.,0.));
#1074=DIRECTION('center_axis',(1.,0.,2.22044604925031E-15));
#1075=DIRECTION('ref_axis',(2.22044604925031E-15,0.,-1.));
#1076=DIRECTION('',(0.,1.,0.));
#1077=DIRECTION('center_axis',(-1.77635683940026E-14,0.,-1.));
#1078=DIRECTION('ref_axis',(-1.,0.,1.77635683940026E-14));
#1079=DIRECTION('',(0.,1.,0.));
#1080=DIRECTION('center_axis',(1.,0.,-1.11022302462516E-15));
#1081=DIRECTION('ref_axis',(-1.11022302462516E-15,0.,-1.));
#1082=DIRECTION('',(0.,1.,0.));
#1083=DIRECTION('center_axis',(4.44089209850063E-15,0.,1.));
#1084=DIRECTION('ref_axis',(1.,0.,-4.44089209850063E-15));
#1085=DIRECTION('',(0.,1.,0.));
#1086=DIRECTION('center_axis',(-1.,0.,-5.55111512312578E-16));
#1087=DIRECTION('ref_axis',(-5.55111512312578E-16,0.,1.));
#1088=DIRECTION('',(0.,1.,0.));
#1089=DIRECTION('center_axis',(0.,0.,-1.));
#1090=DIRECTION('ref_axis',(-1.,0.,0.));
#1091=DIRECTION('',(0.,1.,0.));
#1092=DIRECTION('center_axis',(-1.,0.,2.96059473233374E-15));
#1093=DIRECTION('ref_axis',(2.96059473233374E-15,0.,1.));
#1094=DIRECTION('',(0.,1.,0.));
#1095=DIRECTION('center_axis',(0.,0.,1.));
#1096=DIRECTION('ref_axis',(1.,0.,0.));
#1097=CARTESIAN_POINT('',(0.,0.,0.));
#1098=CARTESIAN_POINT('Origin',(-5.31204397986287,-10.,-171.202630453904));
#1099=CARTESIAN_POINT('',(-10.3120439798629,-10.,-171.202630453904));
#1100=CARTESIAN_POINT('Origin',(-5.31204397986287,-10.,-171.202630453904));
#1101=CARTESIAN_POINT('',(-10.3120439798629,8.,-171.202630453904));
#1102=CARTESIAN_POINT('',(-10.3120439798629,-10.,-171.202630453904));
#1103=CARTESIAN_POINT('Origin',(-5.31204397986287,8.,-171.202630453904));
#1104=CARTESIAN_POINT('Origin',(-5.31204397986287,8.,-171.202630453904));
#1105=CARTESIAN_POINT('Origin',(-5.31204397986287,-10.,-121.202630453904));
#1106=CARTESIAN_POINT('',(-10.3120439798629,-10.,-121.202630453904));
#1107=CARTESIAN_POINT('Origin',(-5.31204397986287,-10.,-121.202630453904));
#1108=CARTESIAN_POINT('',(-10.3120439798629,8.,-121.202630453904));
#1109=CARTESIAN_POINT('',(-10.3120439798629,-10.,-121.202630453904));
#1110=CARTESIAN_POINT('Origin',(-5.31204397986287,8.,-121.202630453904));
#1111=CARTESIAN_POINT('Origin',(-5.31204397986287,8.,-121.202630453904));
#1112=CARTESIAN_POINT('Origin',(-5.31204397986287,0.,-121.202630453904));
#1113=CARTESIAN_POINT('',(-13.3120439798629,-10.,-121.202630453904));
#1114=CARTESIAN_POINT('Origin',(-5.31204397986287,-10.,-121.202630453904));
#1115=CARTESIAN_POINT('',(-13.3120439798629,10.,-121.202630453904));
#1116=CARTESIAN_POINT('',(-13.3120439798629,0.,-121.202630453904));
#1117=CARTESIAN_POINT('',(-7.79429625360959,10.,-128.807788154405));
#1118=CARTESIAN_POINT('Origin',(-5.31204397986287,10.,-121.202630453904));
#1119=CARTESIAN_POINT('',(-7.79429625360959,0.,-128.807788154405));
#1120=CARTESIAN_POINT('',(-7.79429625360959,0.,-128.807788154405));
#1121=CARTESIAN_POINT('',(-2.7942843355044,0.,-128.796107020882));
#1122=CARTESIAN_POINT('Origin',(-5.31204397986287,0.,-121.202630453904));
#1123=CARTESIAN_POINT('',(-2.7942843355044,10.,-128.796107020882));
#1124=CARTESIAN_POINT('',(-2.7942843355044,0.,-128.796107020882));
#1125=CARTESIAN_POINT('',(-2.77879454722706,10.,-113.614307364311));
#1126=CARTESIAN_POINT('Origin',(-5.31204397986287,10.,-121.202630453904));
#1127=CARTESIAN_POINT('',(-2.77879454722706,0.,-113.614307364311));
#1128=CARTESIAN_POINT('',(-2.77879454722706,0.,-113.614307364311));
#1129=CARTESIAN_POINT('',(-7.77877221928321,0.,-113.592423374406));
#1130=CARTESIAN_POINT('Origin',(-5.31204397986287,0.,-121.202630453904));
#1131=CARTESIAN_POINT('',(-7.77877221928321,10.,-113.592423374406));
#1132=CARTESIAN_POINT('',(-7.77877221928321,0.,-113.592423374406));
#1133=CARTESIAN_POINT('Origin',(-5.31204397986287,10.,-121.202630453904));
#1134=CARTESIAN_POINT('Origin',(-5.31204397986287,-10.,-121.202630453904));
#1135=CARTESIAN_POINT('Origin',(-5.31204397986287,0.,-171.202630453904));
#1136=CARTESIAN_POINT('',(-13.3120439798629,-10.,-171.202630453904));
#1137=CARTESIAN_POINT('Origin',(-5.31204397986287,-10.,-171.202630453904));
#1138=CARTESIAN_POINT('',(-13.3120439798629,10.,-171.202630453904));
#1139=CARTESIAN_POINT('',(-13.3120439798629,0.,-171.202630453904));
#1140=CARTESIAN_POINT('',(-7.8452934124987,10.,-178.790953543497));
#1141=CARTESIAN_POINT('Origin',(-5.31204397986287,10.,-171.202630453904));
#1142=CARTESIAN_POINT('',(-7.8452934124987,0.,-178.790953543497));
#1143=CARTESIAN_POINT('',(-7.8452934124987,0.,-178.790953543497));
#1144=CARTESIAN_POINT('',(-2.84531574044252,0.,-178.812837533403));
#1145=CARTESIAN_POINT('Origin',(-5.31204397986287,0.,-171.202630453904));
#1146=CARTESIAN_POINT('',(-2.84531574044252,10.,-178.812837533403));
#1147=CARTESIAN_POINT('',(-2.84531574044252,0.,-178.812837533403));
#1148=CARTESIAN_POINT('',(-2.82979170611615,10.,-163.597472753404));
#1149=CARTESIAN_POINT('Origin',(-5.31204397986287,10.,-171.202630453904));
#1150=CARTESIAN_POINT('',(-2.82979170611615,0.,-163.597472753404));
#1151=CARTESIAN_POINT('',(-2.82979170611615,0.,-163.597472753404));
#1152=CARTESIAN_POINT('',(-7.82980362422135,0.,-163.609153886926));
#1153=CARTESIAN_POINT('Origin',(-5.31204397986287,0.,-171.202630453904));
#1154=CARTESIAN_POINT('',(-7.82980362422135,10.,-163.609153886926));
#1155=CARTESIAN_POINT('',(-7.82980362422135,0.,-163.609153886926));
#1156=CARTESIAN_POINT('Origin',(-5.31204397986287,10.,-171.202630453904));
#1157=CARTESIAN_POINT('Origin',(-5.31204397986287,-10.,-171.202630453904));
#1158=CARTESIAN_POINT('Origin',(-7.80482686424303,0.,-139.129015148324));
#1159=CARTESIAN_POINT('',(-7.80482686424303,10.,-139.129015148324));
#1160=CARTESIAN_POINT('',(-7.8618654175441,10.,-195.033451891585));
#1161=CARTESIAN_POINT('',(-7.80482686424303,0.,-139.129015148324));
#1162=CARTESIAN_POINT('',(-7.80482686424303,0.,-139.129015148324));
#1163=CARTESIAN_POINT('',(-7.8618654175441,0.,-195.033451891585));
#1164=CARTESIAN_POINT('Origin',(-2.76222254218165,0.,-97.3718090162234));
#1165=CARTESIAN_POINT('',(-2.80483206916236,0.,-139.134116576515));
#1166=CARTESIAN_POINT('',(-2.76222254218165,0.,-97.3718090162234));
#1167=CARTESIAN_POINT('',(-2.80483206916236,10.,-139.134116576515));
#1168=CARTESIAN_POINT('',(-2.80483206916236,0.,-139.134116576515));
#1169=CARTESIAN_POINT('',(-2.76222254218165,10.,-97.3718090162234));
#1170=CARTESIAN_POINT('Origin',(-2.76222254218165,0.,-97.3718090162234));
#1171=CARTESIAN_POINT('',(-2.76222254218165,10.,-97.3718090162234));
#1172=CARTESIAN_POINT('',(-2.76222254218165,10.,-97.3718090162234));
#1173=CARTESIAN_POINT('',(-2.76222254218165,0.,-97.3718090162234));
#1174=CARTESIAN_POINT('',(-2.76222254218165,0.,-97.3718090162234));
#1175=CARTESIAN_POINT('',(-2.76222254218165,0.,-97.3718090162234));
#1176=CARTESIAN_POINT('Origin',(-5.31204397986287,0.,-146.202630453904));
#1177=CARTESIAN_POINT('',(-7.8618654175441,0.,-195.033451891585));
#1178=CARTESIAN_POINT('',(-7.8618654175441,0.,-195.033451891585));
#1179=CARTESIAN_POINT('',(-6.3618654175441,0.,-195.033451891585));
#1180=CARTESIAN_POINT('',(-6.3618654175441,0.,-195.033451891585));
#1181=CARTESIAN_POINT('',(-6.3618654175441,0.,-198.033451891585));
#1182=CARTESIAN_POINT('',(-6.3618654175441,0.,-198.033451891585));
#1183=CARTESIAN_POINT('',(-7.36186541754409,0.,-198.033451891585));
#1184=CARTESIAN_POINT('',(-7.36186541754409,0.,-198.033451891585));
#1185=CARTESIAN_POINT('',(-7.3618654175441,0.,-202.033451891585));
#1186=CARTESIAN_POINT('',(-7.3618654175441,0.,-202.033451891585));
#1187=CARTESIAN_POINT('',(-3.36186541754408,0.,-202.033451891585));
#1188=CARTESIAN_POINT('',(-3.36186541754408,0.,-202.033451891585));
#1189=CARTESIAN_POINT('',(-3.36186541754408,0.,-198.033451891585));
#1190=CARTESIAN_POINT('',(-3.36186541754408,0.,-198.033451891585));
#1191=CARTESIAN_POINT('',(-4.36186541754409,0.,-198.033451891585));
#1192=CARTESIAN_POINT('',(-4.36186541754409,0.,-198.033451891585));
#1193=CARTESIAN_POINT('',(-4.36186541754409,0.,-195.033451891585));
#1194=CARTESIAN_POINT('',(-4.36186541754409,0.,-195.033451891585));
#1195=CARTESIAN_POINT('',(-2.86186541754408,0.,-195.033451891585));
#1196=CARTESIAN_POINT('',(-2.86186541754408,0.,-195.033451891585));
#1197=CARTESIAN_POINT('',(-2.76222254218165,0.,-97.3718090162234));
#1198=CARTESIAN_POINT('Origin',(-5.31204397986287,0.,-146.202630453904));
#1199=CARTESIAN_POINT('',(-7.81925589056339,0.,-153.271144331293));
#1200=CARTESIAN_POINT('Origin',(-5.31204397986287,0.,-146.202630453904));
#1201=CARTESIAN_POINT('',(-7.8618654175441,0.,-195.033451891585));
#1202=CARTESIAN_POINT('',(-2.81926109548271,0.,-153.276245759485));
#1203=CARTESIAN_POINT('',(-2.76222254218165,0.,-97.3718090162234));
#1204=CARTESIAN_POINT('Origin',(-5.31204397986287,0.,-146.202630453904));
#1205=CARTESIAN_POINT('',(-9.81204397986287,0.,-146.202630453904));
#1206=CARTESIAN_POINT('Origin',(-5.31204397986287,0.,-146.202630453904));
#1207=CARTESIAN_POINT('Origin',(-5.31204397986287,0.,-146.202630453904));
#1208=CARTESIAN_POINT('',(-4.26222254218165,0.,-97.3718090162234));
#1209=CARTESIAN_POINT('',(-4.26222254218165,0.,-97.3718090162234));
#1210=CARTESIAN_POINT('',(-4.26222254218166,0.,-94.3718090162234));
#1211=CARTESIAN_POINT('',(-4.26222254218166,0.,-94.3718090162234));
#1212=CARTESIAN_POINT('',(-3.26222254218166,0.,-94.3718090162234));
#1213=CARTESIAN_POINT('',(-3.26222254218166,0.,-94.3718090162234));
#1214=CARTESIAN_POINT('',(-3.26222254218166,0.,-90.3718090162234));
#1215=CARTESIAN_POINT('',(-3.26222254218166,0.,-90.3718090162234));
#1216=CARTESIAN_POINT('',(-7.26222254218166,0.,-90.3718090162234));
#1217=CARTESIAN_POINT('',(-7.26222254218166,0.,-90.3718090162234));
#1218=CARTESIAN_POINT('',(-7.26222254218165,0.,-94.3718090162234));
#1219=CARTESIAN_POINT('',(-7.26222254218165,0.,-94.3718090162234));
#1220=CARTESIAN_POINT('',(-6.26222254218166,0.,-94.3718090162234));
#1221=CARTESIAN_POINT('',(-6.26222254218166,0.,-94.3718090162234));
#1222=CARTESIAN_POINT('',(-6.26222254218167,0.,-97.3718090162234));
#1223=CARTESIAN_POINT('',(-6.26222254218167,0.,-97.3718090162234));
#1224=CARTESIAN_POINT('',(-7.76222254218166,0.,-97.3718090162234));
#1225=CARTESIAN_POINT('',(-7.76222254218166,0.,-97.3718090162234));
#1226=CARTESIAN_POINT('',(-7.8618654175441,0.,-195.033451891585));
#1227=CARTESIAN_POINT('Origin',(-7.8618654175441,0.,-195.033451891585));
#1228=CARTESIAN_POINT('',(-7.8618654175441,10.,-195.033451891585));
#1229=CARTESIAN_POINT('',(-7.8618654175441,10.,-195.033451891585));
#1230=CARTESIAN_POINT('',(-7.8618654175441,0.,-195.033451891585));
#1231=CARTESIAN_POINT('Origin',(-5.31204397986287,10.,-146.202630453904));
#1232=CARTESIAN_POINT('',(-2.86186541754408,10.,-195.033451891585));
#1233=CARTESIAN_POINT('',(-2.76222254218165,10.,-97.3718090162234));
#1234=CARTESIAN_POINT('',(-4.36186541754409,10.,-195.033451891585));
#1235=CARTESIAN_POINT('',(-2.86186541754408,10.,-195.033451891585));
#1236=CARTESIAN_POINT('',(-4.36186541754409,10.,-198.033451891585));
#1237=CARTESIAN_POINT('',(-4.36186541754409,10.,-195.033451891585));
#1238=CARTESIAN_POINT('',(-3.36186541754408,10.,-198.033451891585));
#1239=CARTESIAN_POINT('',(-4.36186541754409,10.,-198.033451891585));
#1240=CARTESIAN_POINT('',(-3.36186541754408,10.,-202.033451891585));
#1241=CARTESIAN_POINT('',(-3.36186541754408,10.,-198.033451891585));
#1242=CARTESIAN_POINT('',(-7.3618654175441,10.,-202.033451891585));
#1243=CARTESIAN_POINT('',(-3.36186541754408,10.,-202.033451891585));
#1244=CARTESIAN_POINT('',(-7.36186541754409,10.,-198.033451891585));
#1245=CARTESIAN_POINT('',(-7.3618654175441,10.,-202.033451891585));
#1246=CARTESIAN_POINT('',(-6.3618654175441,10.,-198.033451891585));
#1247=CARTESIAN_POINT('',(-7.36186541754409,10.,-198.033451891585));
#1248=CARTESIAN_POINT('',(-6.3618654175441,10.,-195.033451891585));
#1249=CARTESIAN_POINT('',(-6.3618654175441,10.,-198.033451891585));
#1250=CARTESIAN_POINT('',(-6.3618654175441,10.,-195.033451891585));
#1251=CARTESIAN_POINT('',(-7.81925589056339,10.,-153.271144331293));
#1252=CARTESIAN_POINT('',(-7.8618654175441,10.,-195.033451891585));
#1253=CARTESIAN_POINT('Origin',(-5.31204397986287,10.,-146.202630453904));
#1254=CARTESIAN_POINT('',(-7.76222254218166,10.,-97.3718090162234));
#1255=CARTESIAN_POINT('',(-7.8618654175441,10.,-195.033451891585));
#1256=CARTESIAN_POINT('',(-6.26222254218167,10.,-97.3718090162234));
#1257=CARTESIAN_POINT('',(-7.76222254218166,10.,-97.3718090162234));
#1258=CARTESIAN_POINT('',(-6.26222254218166,10.,-94.3718090162234));
#1259=CARTESIAN_POINT('',(-6.26222254218167,10.,-97.3718090162234));
#1260=CARTESIAN_POINT('',(-7.26222254218165,10.,-94.3718090162234));
#1261=CARTESIAN_POINT('',(-6.26222254218166,10.,-94.3718090162234));
#1262=CARTESIAN_POINT('',(-7.26222254218166,10.,-90.3718090162234));
#1263=CARTESIAN_POINT('',(-7.26222254218165,10.,-94.3718090162234));
#1264=CARTESIAN_POINT('',(-3.26222254218166,10.,-90.3718090162234));
#1265=CARTESIAN_POINT('',(-7.26222254218166,10.,-90.3718090162234));
#1266=CARTESIAN_POINT('',(-3.26222254218166,10.,-94.3718090162234));
#1267=CARTESIAN_POINT('',(-3.26222254218166,10.,-90.3718090162234));
#1268=CARTESIAN_POINT('',(-4.26222254218166,10.,-94.3718090162234));
#1269=CARTESIAN_POINT('',(-3.26222254218166,10.,-94.3718090162234));
#1270=CARTESIAN_POINT('',(-4.26222254218165,10.,-97.3718090162234));
#1271=CARTESIAN_POINT('',(-4.26222254218166,10.,-94.3718090162234));
#1272=CARTESIAN_POINT('',(-4.26222254218165,10.,-97.3718090162234));
#1273=CARTESIAN_POINT('',(-2.81926109548271,10.,-153.276245759485));
#1274=CARTESIAN_POINT('Origin',(-5.31204397986287,10.,-146.202630453904));
#1275=CARTESIAN_POINT('',(-2.76222254218165,10.,-97.3718090162234));
#1276=CARTESIAN_POINT('',(-9.81204397986287,10.,-146.202630453904));
#1277=CARTESIAN_POINT('Origin',(-5.31204397986287,10.,-146.202630453904));
#1278=CARTESIAN_POINT('Origin',(-2.81926109548271,0.,-153.276245759485));
#1279=CARTESIAN_POINT('',(-2.86186541754408,0.,-195.033451891585));
#1280=CARTESIAN_POINT('Origin',(-2.81926109548271,0.,-153.276245759485));
#1281=CARTESIAN_POINT('',(-2.81926109548271,0.,-153.276245759485));
#1282=CARTESIAN_POINT('Origin',(-5.31204397986287,0.,-146.202630453904));
#1283=CARTESIAN_POINT('',(-9.81204397986287,0.,-146.202630453904));
#1284=CARTESIAN_POINT('Origin',(-7.80482686424303,0.,-139.129015148324));
#1285=CARTESIAN_POINT('',(-7.76222254218166,0.,-97.3718090162234));
#1286=CARTESIAN_POINT('Origin',(-5.31204397986287,0.,-146.202630453904));
#1287=CARTESIAN_POINT('',(-7.81925589056339,0.,-153.271144331293));
#1288=CARTESIAN_POINT('Origin',(-7.8618654175441,0.,-195.033451891585));
#1289=CARTESIAN_POINT('Origin',(-6.3618654175441,0.,-195.033451891585));
#1290=CARTESIAN_POINT('',(-6.3618654175441,0.,-195.033451891585));
#1291=CARTESIAN_POINT('Origin',(-6.3618654175441,0.,-198.033451891585));
#1292=CARTESIAN_POINT('',(-6.3618654175441,0.,-198.033451891585));
#1293=CARTESIAN_POINT('Origin',(-7.36186541754409,0.,-198.033451891585));
#1294=CARTESIAN_POINT('',(-7.36186541754409,0.,-198.033451891585));
#1295=CARTESIAN_POINT('Origin',(-7.3618654175441,0.,-202.033451891585));
#1296=CARTESIAN_POINT('',(-7.3618654175441,0.,-202.033451891585));
#1297=CARTESIAN_POINT('Origin',(-3.36186541754408,0.,-202.033451891585));
#1298=CARTESIAN_POINT('',(-3.36186541754408,0.,-202.033451891585));
#1299=CARTESIAN_POINT('Origin',(-3.36186541754408,0.,-198.033451891585));
#1300=CARTESIAN_POINT('',(-3.36186541754408,0.,-198.033451891585));
#1301=CARTESIAN_POINT('Origin',(-4.36186541754409,0.,-198.033451891585));
#1302=CARTESIAN_POINT('',(-4.36186541754409,0.,-198.033451891585));
#1303=CARTESIAN_POINT('Origin',(-4.36186541754409,0.,-195.033451891585));
#1304=CARTESIAN_POINT('',(-4.36186541754409,0.,-195.033451891585));
#1305=CARTESIAN_POINT('Origin',(-2.86186541754408,0.,-195.033451891585));
#1306=CARTESIAN_POINT('Origin',(-5.31204397986287,0.,-146.202630453904));
#1307=CARTESIAN_POINT('Origin',(-4.26222254218165,0.,-97.3718090162234));
#1308=CARTESIAN_POINT('',(-4.26222254218165,0.,-97.3718090162234));
#1309=CARTESIAN_POINT('Origin',(-4.26222254218166,0.,-94.3718090162234));
#1310=CARTESIAN_POINT('',(-4.26222254218166,0.,-94.3718090162234));
#1311=CARTESIAN_POINT('Origin',(-3.26222254218166,0.,-94.3718090162234));
#1312=CARTESIAN_POINT('',(-3.26222254218166,0.,-94.3718090162234));
#1313=CARTESIAN_POINT('Origin',(-3.26222254218166,0.,-90.3718090162234));
#1314=CARTESIAN_POINT('',(-3.26222254218166,0.,-90.3718090162234));
#1315=CARTESIAN_POINT('Origin',(-7.26222254218166,0.,-90.3718090162234));
#1316=CARTESIAN_POINT('',(-7.26222254218166,0.,-90.3718090162234));
#1317=CARTESIAN_POINT('Origin',(-7.26222254218165,0.,-94.3718090162234));
#1318=CARTESIAN_POINT('',(-7.26222254218165,0.,-94.3718090162234));
#1319=CARTESIAN_POINT('Origin',(-6.26222254218166,0.,-94.3718090162234));
#1320=CARTESIAN_POINT('',(-6.26222254218166,0.,-94.3718090162234));
#1321=CARTESIAN_POINT('Origin',(-6.26222254218167,0.,-97.3718090162234));
#1322=CARTESIAN_POINT('',(-6.26222254218167,0.,-97.3718090162234));
#1323=CARTESIAN_POINT('Origin',(-7.76222254218166,0.,-97.3718090162234));
#1324=UNCERTAINTY_MEASURE_WITH_UNIT(LENGTH_MEASURE(0.01),#1328,
'DISTANCE_ACCURACY_VALUE',
'Maximum model space distance between geometric entities at asserted c
onnectivities');
#1325=UNCERTAINTY_MEASURE_WITH_UNIT(LENGTH_MEASURE(0.01),#1328,
'DISTANCE_ACCURACY_VALUE',
'Maximum model space distance between geometric entities at asserted c
onnectivities');
#1326=(
GEOMETRIC_REPRESENTATION_CONTEXT(3)
GLOBAL_UNCERTAINTY_ASSIGNED_CONTEXT((#1324))
GLOBAL_UNIT_ASSIGNED_CONTEXT((#1328,#1330,#1331))
REPRESENTATION_CONTEXT('','3D')
);
#1327=(
GEOMETRIC_REPRESENTATION_CONTEXT(3)
GLOBAL_UNCERTAINTY_ASSIGNED_CONTEXT((#1325))
GLOBAL_UNIT_ASSIGNED_CONTEXT((#1328,#1330,#1331))
REPRESENTATION_CONTEXT('','3D')
);
#1328=(
LENGTH_UNIT()
NAMED_UNIT(*)
SI_UNIT(.MILLI.,.METRE.)
);
#1329=(
LENGTH_UNIT()
NAMED_UNIT(*)
SI_UNIT(.CENTI.,.METRE.)
);
#1330=(
NAMED_UNIT(*)
PLANE_ANGLE_UNIT()
SI_UNIT($,.RADIAN.)
);
#1331=(
NAMED_UNIT(*)
SI_UNIT($,.STERADIAN.)
SOLID_ANGLE_UNIT()
);
#1332=SHAPE_DEFINITION_REPRESENTATION(#1333,#1334);
#1333=PRODUCT_DEFINITION_SHAPE('',$,#1336);
#1334=SHAPE_REPRESENTATION('',(#816),#1326);
#1335=PRODUCT_DEFINITION_CONTEXT('part definition',#1340,'design');
#1336=PRODUCT_DEFINITION('Leg_rod','Leg_rod',#1337,#1335);
#1337=PRODUCT_DEFINITION_FORMATION('',$,#1342);
#1338=PRODUCT_RELATED_PRODUCT_CATEGORY('Leg_rod','Leg_rod',(#1342));
#1339=APPLICATION_PROTOCOL_DEFINITION('international standard',
'automotive_design',2009,#1340);
#1340=APPLICATION_CONTEXT(
'Core Data for Automotive Mechanical Design Process');
#1341=PRODUCT_CONTEXT('part definition',#1340,'mechanical');
#1342=PRODUCT('Leg_rod','Leg_rod',$,(#1341));
#1343=PRESENTATION_STYLE_ASSIGNMENT((#1344));
#1344=SURFACE_STYLE_USAGE(.BOTH.,#1347);
#1345=SURFACE_STYLE_RENDERING_WITH_PROPERTIES($,#1351,(#1346));
#1346=SURFACE_STYLE_TRANSPARENT(0.);
#1347=SURFACE_SIDE_STYLE('',(#1348,#1345));
#1348=SURFACE_STYLE_FILL_AREA(#1349);
#1349=FILL_AREA_STYLE('',(#1350));
#1350=FILL_AREA_STYLE_COLOUR('',#1351);
#1351=COLOUR_RGB('',0.749019607843137,0.749019607843137,0.749019607843137);
ENDSEC;
END-ISO-10303-21;
