ISO-10303-21;
HEADER;
/* Generated by software containing ST-Developer
 * from STEP Tools, Inc. (www.steptools.com) 
 */

FILE_DESCRIPTION(
/* description */ (''),
/* implementation_level */ '2;1');

FILE_NAME(
/* name */ 'center_disk.stp',
/* time_stamp */ '2026-05-09T20:57:09+02:00',
/* author */ ('sniel'),
/* organization */ (''),
/* preprocessor_version */ 'ST-DEVELOPER v20.1',
/* originating_system */ 'Autodesk Inventor 2026',
/* authorisation */ '');

FILE_SCHEMA (('AUTOMOTIVE_DESIGN { 1 0 10303 214 3 1 1 }'));
ENDSEC;

DATA;
#10=MECHANICAL_DESIGN_GEOMETRIC_PRESENTATION_REPRESENTATION('',(#13),#497);
#11=SHAPE_REPRESENTATION_RELATIONSHIP('SRR','None',#504,#12);
#12=ADVANCED_BREP_SHAPE_REPRESENTATION('',(#14),#496);
#13=STYLED_ITEM('',(#513),#14);
#14=MANIFOLD_SOLID_BREP('Solid1',#260);
#15=TOROIDAL_SURFACE('',#313,99.,3.5);
#16=FACE_BOUND('',#56,.T.);
#17=FACE_BOUND('',#58,.T.);
#18=FACE_BOUND('',#62,.T.);
#19=FACE_BOUND('',#67,.T.);
#20=FACE_BOUND('',#70,.T.);
#21=PLANE('',#290);
#22=PLANE('',#292);
#23=PLANE('',#299);
#24=PLANE('',#300);
#25=PLANE('',#305);
#26=PLANE('',#312);
#27=PLANE('',#316);
#28=CYLINDRICAL_SURFACE('',#287,4.);
#29=CYLINDRICAL_SURFACE('',#295,1.4142135623731);
#30=CYLINDRICAL_SURFACE('',#296,7.50000000000072);
#31=CYLINDRICAL_SURFACE('',#311,5.24999999999999);
#32=CYLINDRICAL_SURFACE('',#321,7.5);
#33=CYLINDRICAL_SURFACE('',#322,1.75);
#34=CYLINDRICAL_SURFACE('',#323,7.5);
#35=CYLINDRICAL_SURFACE('',#324,1.75);
#36=FACE_OUTER_BOUND('',#53,.T.);
#37=FACE_OUTER_BOUND('',#54,.T.);
#38=FACE_OUTER_BOUND('',#55,.T.);
#39=FACE_OUTER_BOUND('',#57,.T.);
#40=FACE_OUTER_BOUND('',#59,.T.);
#41=FACE_OUTER_BOUND('',#60,.T.);
#42=FACE_OUTER_BOUND('',#61,.T.);
#43=FACE_OUTER_BOUND('',#63,.T.);
#44=FACE_OUTER_BOUND('',#64,.T.);
#45=FACE_OUTER_BOUND('',#65,.T.);
#46=FACE_OUTER_BOUND('',#66,.T.);
#47=FACE_OUTER_BOUND('',#68,.T.);
#48=FACE_OUTER_BOUND('',#69,.T.);
#49=FACE_OUTER_BOUND('',#71,.T.);
#50=FACE_OUTER_BOUND('',#72,.T.);
#51=FACE_OUTER_BOUND('',#73,.T.);
#52=FACE_OUTER_BOUND('',#74,.T.);
#53=EDGE_LOOP('',(#174,#175,#176,#177,#178));
#54=EDGE_LOOP('',(#179,#180,#181,#182));
#55=EDGE_LOOP('',(#183));
#56=EDGE_LOOP('',(#184));
#57=EDGE_LOOP('',(#185));
#58=EDGE_LOOP('',(#186));
#59=EDGE_LOOP('',(#187,#188,#189,#190));
#60=EDGE_LOOP('',(#191,#192,#193,#194));
#61=EDGE_LOOP('',(#195));
#62=EDGE_LOOP('',(#196));
#63=EDGE_LOOP('',(#197,#198,#199,#200));
#64=EDGE_LOOP('',(#201,#202,#203,#204,#205));
#65=EDGE_LOOP('',(#206,#207,#208,#209,#210,#211));
#66=EDGE_LOOP('',(#212));
#67=EDGE_LOOP('',(#213));
#68=EDGE_LOOP('',(#214,#215,#216,#217,#218));
#69=EDGE_LOOP('',(#219));
#70=EDGE_LOOP('',(#220,#221,#222,#223));
#71=EDGE_LOOP('',(#224,#225,#226,#227));
#72=EDGE_LOOP('',(#228,#229,#230,#231,#232));
#73=EDGE_LOOP('',(#233,#234,#235,#236));
#74=EDGE_LOOP('',(#237,#238,#239,#240,#241));
#75=LINE('',#425,#84);
#76=LINE('',#433,#85);
#77=LINE('',#444,#86);
#78=LINE('',#449,#87);
#79=LINE('',#471,#88);
#80=LINE('',#487,#89);
#81=LINE('',#488,#90);
#82=LINE('',#490,#91);
#83=LINE('',#492,#92);
#84=VECTOR('',#331,60.0000000000002);
#85=VECTOR('',#340,4.);
#86=VECTOR('',#355,1.4142135623731);
#87=VECTOR('',#360,7.50000000000072);
#88=VECTOR('',#389,5.24999999999999);
#89=VECTOR('',#410,10.);
#90=VECTOR('',#411,10.);
#91=VECTOR('',#414,10.);
#92=VECTOR('',#417,10.);
#93=CIRCLE('',#284,17.5000000000007);
#94=CIRCLE('',#285,102.5);
#95=CIRCLE('',#286,102.5);
#96=CIRCLE('',#288,4.);
#97=CIRCLE('',#289,4.);
#98=CIRCLE('',#291,1.4142135623731);
#99=CIRCLE('',#293,5.24999999999999);
#100=CIRCLE('',#294,1.4142135623731);
#101=CIRCLE('',#297,7.50000000000072);
#102=CIRCLE('',#298,7.50000000000072);
#103=CIRCLE('',#301,1.75);
#104=CIRCLE('',#302,5.24999999999999);
#105=CIRCLE('',#303,1.75);
#106=CIRCLE('',#304,7.5);
#107=CIRCLE('',#306,1.75);
#108=CIRCLE('',#307,7.5);
#109=CIRCLE('',#308,1.75);
#110=CIRCLE('',#309,5.24999999999999);
#111=CIRCLE('',#310,5.24999999999999);
#112=CIRCLE('',#314,99.);
#113=CIRCLE('',#315,3.5);
#114=CIRCLE('',#317,1.75);
#115=CIRCLE('',#318,7.5);
#116=CIRCLE('',#319,1.75);
#117=CIRCLE('',#320,7.5);
#118=VERTEX_POINT('',#422);
#119=VERTEX_POINT('',#424);
#120=VERTEX_POINT('',#426);
#121=VERTEX_POINT('',#430);
#122=VERTEX_POINT('',#432);
#123=VERTEX_POINT('',#436);
#124=VERTEX_POINT('',#439);
#125=VERTEX_POINT('',#441);
#126=VERTEX_POINT('',#446);
#127=VERTEX_POINT('',#448);
#128=VERTEX_POINT('',#453);
#129=VERTEX_POINT('',#454);
#130=VERTEX_POINT('',#456);
#131=VERTEX_POINT('',#458);
#132=VERTEX_POINT('',#462);
#133=VERTEX_POINT('',#464);
#134=VERTEX_POINT('',#467);
#135=VERTEX_POINT('',#474);
#136=VERTEX_POINT('',#478);
#137=VERTEX_POINT('',#479);
#138=VERTEX_POINT('',#481);
#139=VERTEX_POINT('',#483);
#140=EDGE_CURVE('',#118,#118,#93,.T.);
#141=EDGE_CURVE('',#118,#119,#75,.T.);
#142=EDGE_CURVE('',#120,#119,#94,.T.);
#143=EDGE_CURVE('',#119,#120,#95,.T.);
#144=EDGE_CURVE('',#121,#121,#96,.T.);
#145=EDGE_CURVE('',#121,#122,#76,.T.);
#146=EDGE_CURVE('',#122,#122,#97,.T.);
#147=EDGE_CURVE('',#123,#123,#98,.T.);
#148=EDGE_CURVE('',#124,#124,#99,.T.);
#149=EDGE_CURVE('',#125,#125,#100,.T.);
#150=EDGE_CURVE('',#123,#125,#77,.T.);
#151=EDGE_CURVE('',#126,#126,#101,.T.);
#152=EDGE_CURVE('',#126,#127,#78,.T.);
#153=EDGE_CURVE('',#127,#127,#102,.T.);
#154=EDGE_CURVE('',#128,#129,#103,.T.);
#155=EDGE_CURVE('',#130,#129,#104,.T.);
#156=EDGE_CURVE('',#130,#131,#105,.T.);
#157=EDGE_CURVE('',#131,#128,#106,.T.);
#158=EDGE_CURVE('',#129,#132,#107,.T.);
#159=EDGE_CURVE('',#132,#133,#108,.T.);
#160=EDGE_CURVE('',#133,#130,#109,.T.);
#161=EDGE_CURVE('',#134,#130,#110,.T.);
#162=EDGE_CURVE('',#129,#134,#111,.T.);
#163=EDGE_CURVE('',#124,#134,#79,.T.);
#164=EDGE_CURVE('',#135,#135,#112,.T.);
#165=EDGE_CURVE('',#135,#120,#113,.T.);
#166=EDGE_CURVE('',#136,#137,#114,.T.);
#167=EDGE_CURVE('',#137,#138,#115,.T.);
#168=EDGE_CURVE('',#138,#139,#116,.T.);
#169=EDGE_CURVE('',#139,#136,#117,.T.);
#170=EDGE_CURVE('',#132,#136,#80,.T.);
#171=EDGE_CURVE('',#133,#139,#81,.T.);
#172=EDGE_CURVE('',#131,#138,#82,.T.);
#173=EDGE_CURVE('',#128,#137,#83,.T.);
#174=ORIENTED_EDGE('',*,*,#140,.F.);
#175=ORIENTED_EDGE('',*,*,#141,.T.);
#176=ORIENTED_EDGE('',*,*,#142,.F.);
#177=ORIENTED_EDGE('',*,*,#143,.F.);
#178=ORIENTED_EDGE('',*,*,#141,.F.);
#179=ORIENTED_EDGE('',*,*,#144,.F.);
#180=ORIENTED_EDGE('',*,*,#145,.T.);
#181=ORIENTED_EDGE('',*,*,#146,.T.);
#182=ORIENTED_EDGE('',*,*,#145,.F.);
#183=ORIENTED_EDGE('',*,*,#146,.F.);
#184=ORIENTED_EDGE('',*,*,#147,.F.);
#185=ORIENTED_EDGE('',*,*,#148,.T.);
#186=ORIENTED_EDGE('',*,*,#149,.F.);
#187=ORIENTED_EDGE('',*,*,#147,.T.);
#188=ORIENTED_EDGE('',*,*,#150,.T.);
#189=ORIENTED_EDGE('',*,*,#149,.T.);
#190=ORIENTED_EDGE('',*,*,#150,.F.);
#191=ORIENTED_EDGE('',*,*,#151,.F.);
#192=ORIENTED_EDGE('',*,*,#152,.T.);
#193=ORIENTED_EDGE('',*,*,#153,.F.);
#194=ORIENTED_EDGE('',*,*,#152,.F.);
#195=ORIENTED_EDGE('',*,*,#151,.T.);
#196=ORIENTED_EDGE('',*,*,#144,.T.);
#197=ORIENTED_EDGE('',*,*,#154,.T.);
#198=ORIENTED_EDGE('',*,*,#155,.F.);
#199=ORIENTED_EDGE('',*,*,#156,.T.);
#200=ORIENTED_EDGE('',*,*,#157,.T.);
#201=ORIENTED_EDGE('',*,*,#158,.T.);
#202=ORIENTED_EDGE('',*,*,#159,.T.);
#203=ORIENTED_EDGE('',*,*,#160,.T.);
#204=ORIENTED_EDGE('',*,*,#161,.F.);
#205=ORIENTED_EDGE('',*,*,#162,.F.);
#206=ORIENTED_EDGE('',*,*,#148,.F.);
#207=ORIENTED_EDGE('',*,*,#163,.T.);
#208=ORIENTED_EDGE('',*,*,#161,.T.);
#209=ORIENTED_EDGE('',*,*,#155,.T.);
#210=ORIENTED_EDGE('',*,*,#162,.T.);
#211=ORIENTED_EDGE('',*,*,#163,.F.);
#212=ORIENTED_EDGE('',*,*,#140,.T.);
#213=ORIENTED_EDGE('',*,*,#153,.T.);
#214=ORIENTED_EDGE('',*,*,#164,.T.);
#215=ORIENTED_EDGE('',*,*,#165,.T.);
#216=ORIENTED_EDGE('',*,*,#142,.T.);
#217=ORIENTED_EDGE('',*,*,#143,.T.);
#218=ORIENTED_EDGE('',*,*,#165,.F.);
#219=ORIENTED_EDGE('',*,*,#164,.F.);
#220=ORIENTED_EDGE('',*,*,#166,.T.);
#221=ORIENTED_EDGE('',*,*,#167,.T.);
#222=ORIENTED_EDGE('',*,*,#168,.T.);
#223=ORIENTED_EDGE('',*,*,#169,.T.);
#224=ORIENTED_EDGE('',*,*,#159,.F.);
#225=ORIENTED_EDGE('',*,*,#170,.T.);
#226=ORIENTED_EDGE('',*,*,#169,.F.);
#227=ORIENTED_EDGE('',*,*,#171,.F.);
#228=ORIENTED_EDGE('',*,*,#160,.F.);
#229=ORIENTED_EDGE('',*,*,#171,.T.);
#230=ORIENTED_EDGE('',*,*,#168,.F.);
#231=ORIENTED_EDGE('',*,*,#172,.F.);
#232=ORIENTED_EDGE('',*,*,#156,.F.);
#233=ORIENTED_EDGE('',*,*,#157,.F.);
#234=ORIENTED_EDGE('',*,*,#172,.T.);
#235=ORIENTED_EDGE('',*,*,#167,.F.);
#236=ORIENTED_EDGE('',*,*,#173,.F.);
#237=ORIENTED_EDGE('',*,*,#154,.F.);
#238=ORIENTED_EDGE('',*,*,#173,.T.);
#239=ORIENTED_EDGE('',*,*,#166,.F.);
#240=ORIENTED_EDGE('',*,*,#170,.F.);
#241=ORIENTED_EDGE('',*,*,#158,.F.);
#242=CONICAL_SURFACE('',#283,60.0000000000002,1.4682164743766);
#243=ADVANCED_FACE('',(#36),#242,.T.);
#244=ADVANCED_FACE('',(#37),#28,.F.);
#245=ADVANCED_FACE('',(#38,#16),#21,.T.);
#246=ADVANCED_FACE('',(#39,#17),#22,.F.);
#247=ADVANCED_FACE('',(#40),#29,.F.);
#248=ADVANCED_FACE('',(#41),#30,.T.);
#249=ADVANCED_FACE('',(#42,#18),#23,.T.);
#250=ADVANCED_FACE('',(#43),#24,.F.);
#251=ADVANCED_FACE('',(#44),#25,.F.);
#252=ADVANCED_FACE('',(#45),#31,.F.);
#253=ADVANCED_FACE('',(#46,#19),#26,.T.);
#254=ADVANCED_FACE('',(#47),#15,.T.);
#255=ADVANCED_FACE('',(#48,#20),#27,.F.);
#256=ADVANCED_FACE('',(#49),#32,.F.);
#257=ADVANCED_FACE('',(#50),#33,.T.);
#258=ADVANCED_FACE('',(#51),#34,.F.);
#259=ADVANCED_FACE('',(#52),#35,.T.);
#260=CLOSED_SHELL('',(#243,#244,#245,#246,#247,#248,#249,#250,#251,#252,
#253,#254,#255,#256,#257,#258,#259));
#261=DERIVED_UNIT_ELEMENT(#264,1.);
#262=DERIVED_UNIT_ELEMENT(#499,-3.);
#263=DIMENSIONAL_EXPONENTS(0.,1.,0.,0.,0.,0.,0.);
#264=(
CONVERSION_BASED_UNIT('gram',#266)
MASS_UNIT()
NAMED_UNIT(#263)
);
#265=(
MASS_UNIT()
NAMED_UNIT(*)
SI_UNIT(.KILO.,.GRAM.)
);
#266=MASS_MEASURE_WITH_UNIT(MASS_MEASURE(0.001),#265);
#267=DERIVED_UNIT((#261,#262));
#268=MEASURE_REPRESENTATION_ITEM('density measure',
POSITIVE_RATIO_MEASURE(1.),#267);
#269=PROPERTY_DEFINITION_REPRESENTATION(#274,#271);
#270=PROPERTY_DEFINITION_REPRESENTATION(#275,#272);
#271=REPRESENTATION('material name',(#273),#496);
#272=REPRESENTATION('density',(#268),#496);
#273=DESCRIPTIVE_REPRESENTATION_ITEM('Generic','Generic');
#274=PROPERTY_DEFINITION('material property','material name',#506);
#275=PROPERTY_DEFINITION('material property','density of part',#506);
#276=DATE_TIME_ROLE('creation_date');
#277=APPLIED_DATE_AND_TIME_ASSIGNMENT(#278,#276,(#506));
#278=DATE_AND_TIME(#279,#280);
#279=CALENDAR_DATE(2026,9,5);
#280=LOCAL_TIME(0,0,0.,#281);
#281=COORDINATED_UNIVERSAL_TIME_OFFSET(0,0,.BEHIND.);
#282=AXIS2_PLACEMENT_3D('',#420,#325,#326);
#283=AXIS2_PLACEMENT_3D('',#421,#327,#328);
#284=AXIS2_PLACEMENT_3D('',#423,#329,#330);
#285=AXIS2_PLACEMENT_3D('',#427,#332,#333);
#286=AXIS2_PLACEMENT_3D('',#428,#334,#335);
#287=AXIS2_PLACEMENT_3D('',#429,#336,#337);
#288=AXIS2_PLACEMENT_3D('',#431,#338,#339);
#289=AXIS2_PLACEMENT_3D('',#434,#341,#342);
#290=AXIS2_PLACEMENT_3D('',#435,#343,#344);
#291=AXIS2_PLACEMENT_3D('',#437,#345,#346);
#292=AXIS2_PLACEMENT_3D('',#438,#347,#348);
#293=AXIS2_PLACEMENT_3D('',#440,#349,#350);
#294=AXIS2_PLACEMENT_3D('',#442,#351,#352);
#295=AXIS2_PLACEMENT_3D('',#443,#353,#354);
#296=AXIS2_PLACEMENT_3D('',#445,#356,#357);
#297=AXIS2_PLACEMENT_3D('',#447,#358,#359);
#298=AXIS2_PLACEMENT_3D('',#450,#361,#362);
#299=AXIS2_PLACEMENT_3D('',#451,#363,#364);
#300=AXIS2_PLACEMENT_3D('',#452,#365,#366);
#301=AXIS2_PLACEMENT_3D('',#455,#367,#368);
#302=AXIS2_PLACEMENT_3D('',#457,#369,#370);
#303=AXIS2_PLACEMENT_3D('',#459,#371,#372);
#304=AXIS2_PLACEMENT_3D('',#460,#373,#374);
#305=AXIS2_PLACEMENT_3D('',#461,#375,#376);
#306=AXIS2_PLACEMENT_3D('',#463,#377,#378);
#307=AXIS2_PLACEMENT_3D('',#465,#379,#380);
#308=AXIS2_PLACEMENT_3D('',#466,#381,#382);
#309=AXIS2_PLACEMENT_3D('',#468,#383,#384);
#310=AXIS2_PLACEMENT_3D('',#469,#385,#386);
#311=AXIS2_PLACEMENT_3D('',#470,#387,#388);
#312=AXIS2_PLACEMENT_3D('',#472,#390,#391);
#313=AXIS2_PLACEMENT_3D('',#473,#392,#393);
#314=AXIS2_PLACEMENT_3D('',#475,#394,#395);
#315=AXIS2_PLACEMENT_3D('',#476,#396,#397);
#316=AXIS2_PLACEMENT_3D('',#477,#398,#399);
#317=AXIS2_PLACEMENT_3D('',#480,#400,#401);
#318=AXIS2_PLACEMENT_3D('',#482,#402,#403);
#319=AXIS2_PLACEMENT_3D('',#484,#404,#405);
#320=AXIS2_PLACEMENT_3D('',#485,#406,#407);
#321=AXIS2_PLACEMENT_3D('',#486,#408,#409);
#322=AXIS2_PLACEMENT_3D('',#489,#412,#413);
#323=AXIS2_PLACEMENT_3D('',#491,#415,#416);
#324=AXIS2_PLACEMENT_3D('',#493,#418,#419);
#325=DIRECTION('axis',(0.,0.,1.));
#326=DIRECTION('refdir',(1.,0.,0.));
#327=DIRECTION('center_axis',(0.,0.,-1.));
#328=DIRECTION('ref_axis',(0.,1.,0.));
#329=DIRECTION('center_axis',(0.,0.,1.));
#330=DIRECTION('ref_axis',(0.,1.,0.));
#331=DIRECTION('',(-1.21820919695914E-16,-0.994743298890183,-0.102400045473991));
#332=DIRECTION('center_axis',(0.,0.,-1.));
#333=DIRECTION('ref_axis',(-1.,1.22464679914735E-16,0.));
#334=DIRECTION('center_axis',(0.,0.,-1.));
#335=DIRECTION('ref_axis',(-1.,1.22464679914735E-16,0.));
#336=DIRECTION('center_axis',(0.,0.,-1.));
#337=DIRECTION('ref_axis',(1.,0.,0.));
#338=DIRECTION('center_axis',(0.,0.,-1.));
#339=DIRECTION('ref_axis',(1.,0.,0.));
#340=DIRECTION('',(0.,0.,-1.));
#341=DIRECTION('center_axis',(0.,0.,-1.));
#342=DIRECTION('ref_axis',(1.,0.,0.));
#343=DIRECTION('center_axis',(0.,0.,1.));
#344=DIRECTION('ref_axis',(1.,0.,0.));
#345=DIRECTION('center_axis',(0.,0.,1.));
#346=DIRECTION('ref_axis',(-1.,0.,0.));
#347=DIRECTION('center_axis',(0.,0.,1.));
#348=DIRECTION('ref_axis',(1.,0.,0.));
#349=DIRECTION('center_axis',(0.,0.,-1.));
#350=DIRECTION('ref_axis',(-1.,0.,0.));
#351=DIRECTION('center_axis',(0.,0.,-1.));
#352=DIRECTION('ref_axis',(-1.,0.,0.));
#353=DIRECTION('center_axis',(0.,0.,1.));
#354=DIRECTION('ref_axis',(-1.,0.,0.));
#355=DIRECTION('',(0.,0.,-1.));
#356=DIRECTION('center_axis',(0.,0.,1.));
#357=DIRECTION('ref_axis',(1.,0.,0.));
#358=DIRECTION('center_axis',(0.,0.,1.));
#359=DIRECTION('ref_axis',(1.,0.,0.));
#360=DIRECTION('',(0.,0.,-1.));
#361=DIRECTION('center_axis',(0.,0.,-1.));
#362=DIRECTION('ref_axis',(1.,0.,0.));
#363=DIRECTION('center_axis',(0.,0.,1.));
#364=DIRECTION('ref_axis',(1.,0.,0.));
#365=DIRECTION('center_axis',(0.,0.,1.));
#366=DIRECTION('ref_axis',(1.,0.,0.));
#367=DIRECTION('center_axis',(0.,0.,1.));
#368=DIRECTION('ref_axis',(1.,0.,0.));
#369=DIRECTION('center_axis',(0.,0.,-1.));
#370=DIRECTION('ref_axis',(-1.,0.,0.));
#371=DIRECTION('center_axis',(0.,0.,1.));
#372=DIRECTION('ref_axis',(1.,0.,0.));
#373=DIRECTION('center_axis',(0.,0.,-1.));
#374=DIRECTION('ref_axis',(-1.,0.,0.));
#375=DIRECTION('center_axis',(0.,0.,1.));
#376=DIRECTION('ref_axis',(1.,0.,0.));
#377=DIRECTION('center_axis',(0.,0.,1.));
#378=DIRECTION('ref_axis',(1.,0.,0.));
#379=DIRECTION('center_axis',(0.,0.,-1.));
#380=DIRECTION('ref_axis',(-1.,0.,0.));
#381=DIRECTION('center_axis',(0.,0.,1.));
#382=DIRECTION('ref_axis',(1.,0.,0.));
#383=DIRECTION('center_axis',(0.,0.,-1.));
#384=DIRECTION('ref_axis',(-1.,0.,0.));
#385=DIRECTION('center_axis',(0.,0.,-1.));
#386=DIRECTION('ref_axis',(-1.,0.,0.));
#387=DIRECTION('center_axis',(0.,0.,1.));
#388=DIRECTION('ref_axis',(-1.,0.,0.));
#389=DIRECTION('',(0.,0.,-1.));
#390=DIRECTION('center_axis',(0.,0.,1.));
#391=DIRECTION('ref_axis',(1.,0.,0.));
#392=DIRECTION('center_axis',(0.,0.,-1.));
#393=DIRECTION('ref_axis',(-1.,0.,0.));
#394=DIRECTION('center_axis',(0.,0.,1.));
#395=DIRECTION('ref_axis',(-1.,1.22464679914735E-16,0.));
#396=DIRECTION('center_axis',(-1.22464679914735E-16,-1.,0.));
#397=DIRECTION('ref_axis',(1.,-1.22464679914735E-16,0.));
#398=DIRECTION('center_axis',(0.,0.,1.));
#399=DIRECTION('ref_axis',(1.,0.,0.));
#400=DIRECTION('center_axis',(0.,0.,-1.));
#401=DIRECTION('ref_axis',(1.,0.,0.));
#402=DIRECTION('center_axis',(0.,0.,1.));
#403=DIRECTION('ref_axis',(-1.,0.,0.));
#404=DIRECTION('center_axis',(0.,0.,-1.));
#405=DIRECTION('ref_axis',(1.,0.,0.));
#406=DIRECTION('center_axis',(0.,0.,1.));
#407=DIRECTION('ref_axis',(-1.,0.,0.));
#408=DIRECTION('center_axis',(0.,0.,-1.));
#409=DIRECTION('ref_axis',(1.,-8.31523030723645E-15,0.));
#410=DIRECTION('',(0.,0.,-1.));
#411=DIRECTION('',(0.,0.,-1.));
#412=DIRECTION('center_axis',(0.,0.,-1.));
#413=DIRECTION('ref_axis',(2.57632974052994E-13,1.,0.));
#414=DIRECTION('',(0.,0.,-1.));
#415=DIRECTION('center_axis',(0.,0.,-1.));
#416=DIRECTION('ref_axis',(-1.,0.,0.));
#417=DIRECTION('',(0.,0.,-1.));
#418=DIRECTION('center_axis',(0.,0.,-1.));
#419=DIRECTION('ref_axis',(2.56300706423444E-13,-1.,0.));
#420=CARTESIAN_POINT('',(0.,0.,0.));
#421=CARTESIAN_POINT('Origin',(0.,0.,-0.375000000000001));
#422=CARTESIAN_POINT('',(-2.14313189850796E-15,-17.5000000000007,4.));
#423=CARTESIAN_POINT('Origin',(0.,0.,4.));
#424=CARTESIAN_POINT('',(-1.25526296912606E-14,-102.500000000002,-4.75000000000023));
#425=CARTESIAN_POINT('',(-7.34788079488415E-15,-60.0000000000002,-0.375000000000001));
#426=CARTESIAN_POINT('',(102.500000000002,-3.44849490474566E-13,-4.75));
#427=CARTESIAN_POINT('Origin',(1.79856129989275E-12,-3.19744231092045E-13,
-4.75));
#428=CARTESIAN_POINT('Origin',(1.79856129989275E-12,-3.19744231092045E-13,
-4.75));
#429=CARTESIAN_POINT('Origin',(0.,0.,8.));
#430=CARTESIAN_POINT('',(-4.,4.89858719658941E-16,8.));
#431=CARTESIAN_POINT('Origin',(0.,0.,8.));
#432=CARTESIAN_POINT('',(-4.,4.89858719658941E-16,6.));
#433=CARTESIAN_POINT('',(-4.,4.89858719658941E-16,8.));
#434=CARTESIAN_POINT('Origin',(0.,0.,6.));
#435=CARTESIAN_POINT('Origin',(0.,0.,6.));
#436=CARTESIAN_POINT('',(1.41421356237489,-3.19571039880798E-13,6.));
#437=CARTESIAN_POINT('Origin',(1.79856129989275E-12,-3.19744231092045E-13,
6.));
#438=CARTESIAN_POINT('Origin',(5.36792832406263E-13,0.,4.));
#439=CARTESIAN_POINT('',(5.25,6.42939569552353E-16,4.));
#440=CARTESIAN_POINT('Origin',(0.,0.,4.));
#441=CARTESIAN_POINT('',(1.41421356237489,-3.19571039880798E-13,4.));
#442=CARTESIAN_POINT('Origin',(1.79856129989275E-12,-3.19744231092045E-13,
4.));
#443=CARTESIAN_POINT('Origin',(1.79856129989275E-12,-3.19744231092045E-13,
4.));
#444=CARTESIAN_POINT('',(1.41421356237489,-3.19571039880798E-13,4.));
#445=CARTESIAN_POINT('Origin',(0.,0.,4.));
#446=CARTESIAN_POINT('',(-7.50000000000072,-9.18485099360604E-16,8.));
#447=CARTESIAN_POINT('Origin',(0.,0.,8.));
#448=CARTESIAN_POINT('',(-7.50000000000072,-9.18485099360604E-16,4.));
#449=CARTESIAN_POINT('',(-7.50000000000072,-9.18485099360604E-16,4.));
#450=CARTESIAN_POINT('Origin',(0.,0.,4.));
#451=CARTESIAN_POINT('Origin',(5.36792832406263E-13,0.,8.));
#452=CARTESIAN_POINT('Origin',(1.79412040779425E-12,-3.19744231092045E-13,
0.));
#453=CARTESIAN_POINT('',(-1.72424908789081,7.29910714285637,0.));
#454=CARTESIAN_POINT('',(3.33066907387547E-15,5.24999999999999,0.));
#455=CARTESIAN_POINT('Origin',(4.44089209850063E-15,6.99999999999999,0.));
#456=CARTESIAN_POINT('',(-3.33066907387547E-15,-5.24999999999999,0.));
#457=CARTESIAN_POINT('Origin',(0.,0.,0.));
#458=CARTESIAN_POINT('',(-1.7242490878907,-7.29910714285703,0.));
#459=CARTESIAN_POINT('Origin',(-4.44089209850063E-15,-6.99999999999999,
0.));
#460=CARTESIAN_POINT('Origin',(1.79856129989275E-12,-3.19744231092045E-13,
0.));
#461=CARTESIAN_POINT('Origin',(1.79412040779425E-12,-3.19744231092045E-13,
0.));
#462=CARTESIAN_POINT('',(1.72424908789066,7.29910714285725,0.));
#463=CARTESIAN_POINT('Origin',(4.44089209850063E-15,6.99999999999999,0.));
#464=CARTESIAN_POINT('',(1.72424908789054,-7.29910714285792,0.));
#465=CARTESIAN_POINT('Origin',(1.79856129989275E-12,-3.19744231092045E-13,
0.));
#466=CARTESIAN_POINT('Origin',(-4.44089209850063E-15,-6.99999999999999,
0.));
#467=CARTESIAN_POINT('',(5.24999999999999,6.4293956955236E-16,0.));
#468=CARTESIAN_POINT('Origin',(0.,0.,0.));
#469=CARTESIAN_POINT('Origin',(0.,0.,0.));
#470=CARTESIAN_POINT('Origin',(0.,0.,0.));
#471=CARTESIAN_POINT('',(5.24999999999999,6.4293956955236E-16,0.));
#472=CARTESIAN_POINT('Origin',(1.79412040779425E-12,-3.19744231092045E-13,
4.));
#473=CARTESIAN_POINT('Origin',(1.79856129989275E-12,-3.19744231092045E-13,
-4.75));
#474=CARTESIAN_POINT('',(99.0000000000018,-3.19744231092045E-13,-8.25));
#475=CARTESIAN_POINT('Origin',(1.79856129989275E-12,-3.19744231092045E-13,
-8.25));
#476=CARTESIAN_POINT('Origin',(99.0000000000018,-3.31868234403604E-13,-4.75));
#477=CARTESIAN_POINT('Origin',(1.79412040779425E-12,-3.19744231092045E-13,
-8.25));
#478=CARTESIAN_POINT('',(1.72424908789067,7.29910714285725,-8.25));
#479=CARTESIAN_POINT('',(-1.72424908789081,7.29910714285637,-8.25));
#480=CARTESIAN_POINT('Origin',(4.44089209850063E-15,6.99999999999999,-8.25));
#481=CARTESIAN_POINT('',(-1.7242490878907,-7.29910714285703,-8.25));
#482=CARTESIAN_POINT('Origin',(1.79856129989275E-12,-3.19744231092045E-13,
-8.25));
#483=CARTESIAN_POINT('',(1.72424908789054,-7.29910714285792,-8.25));
#484=CARTESIAN_POINT('Origin',(-4.44089209850063E-15,-6.99999999999999,
-8.25));
#485=CARTESIAN_POINT('Origin',(1.79856129989275E-12,-3.19744231092045E-13,
-8.25));
#486=CARTESIAN_POINT('Origin',(1.79856129989275E-12,-3.19744231092045E-13,
0.));
#487=CARTESIAN_POINT('',(1.72424908789066,7.29910714285725,0.));
#488=CARTESIAN_POINT('',(1.72424908789054,-7.29910714285792,0.));
#489=CARTESIAN_POINT('Origin',(-4.44089209850063E-15,-6.99999999999999,
0.));
#490=CARTESIAN_POINT('',(-1.7242490878907,-7.29910714285703,0.));
#491=CARTESIAN_POINT('Origin',(1.79856129989275E-12,-3.19744231092045E-13,
0.));
#492=CARTESIAN_POINT('',(-1.72424908789081,7.29910714285637,0.));
#493=CARTESIAN_POINT('Origin',(4.44089209850063E-15,6.99999999999999,0.));
#494=UNCERTAINTY_MEASURE_WITH_UNIT(LENGTH_MEASURE(0.01),#498,
'DISTANCE_ACCURACY_VALUE',
'Maximum model space distance between geometric entities at asserted c
onnectivities');
#495=UNCERTAINTY_MEASURE_WITH_UNIT(LENGTH_MEASURE(0.01),#498,
'DISTANCE_ACCURACY_VALUE',
'Maximum model space distance between geometric entities at asserted c
onnectivities');
#496=(
GEOMETRIC_REPRESENTATION_CONTEXT(3)
GLOBAL_UNCERTAINTY_ASSIGNED_CONTEXT((#494))
GLOBAL_UNIT_ASSIGNED_CONTEXT((#498,#500,#501))
REPRESENTATION_CONTEXT('','3D')
);
#497=(
GEOMETRIC_REPRESENTATION_CONTEXT(3)
GLOBAL_UNCERTAINTY_ASSIGNED_CONTEXT((#495))
GLOBAL_UNIT_ASSIGNED_CONTEXT((#498,#500,#501))
REPRESENTATION_CONTEXT('','3D')
);
#498=(
LENGTH_UNIT()
NAMED_UNIT(*)
SI_UNIT(.MILLI.,.METRE.)
);
#499=(
LENGTH_UNIT()
NAMED_UNIT(*)
SI_UNIT(.CENTI.,.METRE.)
);
#500=(
NAMED_UNIT(*)
PLANE_ANGLE_UNIT()
SI_UNIT($,.RADIAN.)
);
#501=(
NAMED_UNIT(*)
SI_UNIT($,.STERADIAN.)
SOLID_ANGLE_UNIT()
);
#502=SHAPE_DEFINITION_REPRESENTATION(#503,#504);
#503=PRODUCT_DEFINITION_SHAPE('',$,#506);
#504=SHAPE_REPRESENTATION('',(#282),#496);
#505=PRODUCT_DEFINITION_CONTEXT('part definition',#510,'design');
#506=PRODUCT_DEFINITION('center_disk','center_disk',#507,#505);
#507=PRODUCT_DEFINITION_FORMATION('',$,#512);
#508=PRODUCT_RELATED_PRODUCT_CATEGORY('center_disk','center_disk',(#512));
#509=APPLICATION_PROTOCOL_DEFINITION('international standard',
'automotive_design',2009,#510);
#510=APPLICATION_CONTEXT(
'Core Data for Automotive Mechanical Design Process');
#511=PRODUCT_CONTEXT('part definition',#510,'mechanical');
#512=PRODUCT('center_disk','center_disk',$,(#511));
#513=PRESENTATION_STYLE_ASSIGNMENT((#514));
#514=SURFACE_STYLE_USAGE(.BOTH.,#517);
#515=SURFACE_STYLE_RENDERING_WITH_PROPERTIES($,#521,(#516));
#516=SURFACE_STYLE_TRANSPARENT(0.);
#517=SURFACE_SIDE_STYLE('',(#518,#515));
#518=SURFACE_STYLE_FILL_AREA(#519);
#519=FILL_AREA_STYLE('',(#520));
#520=FILL_AREA_STYLE_COLOUR('',#521);
#521=COLOUR_RGB('',0.749019607843137,0.749019607843137,0.749019607843137);
ENDSEC;
END-ISO-10303-21;
