ISO-10303-21;
HEADER;
/* Generated by software containing ST-Developer
 * from STEP Tools, Inc. (www.steptools.com) 
 */

FILE_DESCRIPTION(
/* description */ (''),
/* implementation_level */ '2;1');

FILE_NAME(
/* name */ 'Bande L.step',
/* time_stamp */ '2026-06-25T10:42:18+02:00',
/* author */ (''),
/* organization */ (''),
/* preprocessor_version */ 'ST-DEVELOPER v20.1',
/* originating_system */ 'Autodesk Translation Framework v14.21.0.0',
/* authorisation */ '');

FILE_SCHEMA (('AUTOMOTIVE_DESIGN { 1 0 10303 214 3 1 1 }'));
ENDSEC;

DATA;
#10=MECHANICAL_DESIGN_GEOMETRIC_PRESENTATION_REPRESENTATION('',(#13),#630);
#11=SHAPE_REPRESENTATION_RELATIONSHIP('SRR','None',#637,#12);
#12=ADVANCED_BREP_SHAPE_REPRESENTATION('',(#14),#629);
#13=STYLED_ITEM('',(#646),#14);
#14=MANIFOLD_SOLID_BREP('Body4',#378);
#15=FACE_BOUND('',#71,.T.);
#16=FACE_BOUND('',#72,.T.);
#17=FACE_BOUND('',#74,.T.);
#18=FACE_BOUND('',#75,.T.);
#19=CIRCLE('',#399,34.3040942068003);
#20=CIRCLE('',#400,34.3040942068003);
#21=CIRCLE('',#405,5.5);
#22=CIRCLE('',#406,5.5);
#23=CIRCLE('',#408,5.5);
#24=CIRCLE('',#409,5.5);
#25=CIRCLE('',#412,12.5);
#26=CIRCLE('',#413,12.5);
#27=CIRCLE('',#417,12.5);
#28=CIRCLE('',#418,12.5);
#29=CYLINDRICAL_SURFACE('',#398,34.3040942068003);
#30=CYLINDRICAL_SURFACE('',#404,5.5);
#31=CYLINDRICAL_SURFACE('',#407,5.5);
#32=CYLINDRICAL_SURFACE('',#411,12.5);
#33=CYLINDRICAL_SURFACE('',#416,12.5);
#34=FACE_OUTER_BOUND('',#53,.T.);
#35=FACE_OUTER_BOUND('',#54,.T.);
#36=FACE_OUTER_BOUND('',#55,.T.);
#37=FACE_OUTER_BOUND('',#56,.T.);
#38=FACE_OUTER_BOUND('',#57,.T.);
#39=FACE_OUTER_BOUND('',#58,.T.);
#40=FACE_OUTER_BOUND('',#59,.T.);
#41=FACE_OUTER_BOUND('',#60,.T.);
#42=FACE_OUTER_BOUND('',#61,.T.);
#43=FACE_OUTER_BOUND('',#62,.T.);
#44=FACE_OUTER_BOUND('',#63,.T.);
#45=FACE_OUTER_BOUND('',#64,.T.);
#46=FACE_OUTER_BOUND('',#65,.T.);
#47=FACE_OUTER_BOUND('',#66,.T.);
#48=FACE_OUTER_BOUND('',#67,.T.);
#49=FACE_OUTER_BOUND('',#68,.T.);
#50=FACE_OUTER_BOUND('',#69,.T.);
#51=FACE_OUTER_BOUND('',#70,.T.);
#52=FACE_OUTER_BOUND('',#73,.T.);
#53=EDGE_LOOP('',(#243,#244,#245,#246));
#54=EDGE_LOOP('',(#247,#248,#249,#250,#251,#252));
#55=EDGE_LOOP('',(#253,#254,#255,#256,#257,#258));
#56=EDGE_LOOP('',(#259,#260,#261,#262));
#57=EDGE_LOOP('',(#263,#264,#265,#266));
#58=EDGE_LOOP('',(#267,#268,#269,#270));
#59=EDGE_LOOP('',(#271,#272,#273,#274));
#60=EDGE_LOOP('',(#275,#276,#277,#278));
#61=EDGE_LOOP('',(#279,#280,#281,#282,#283,#284,#285));
#62=EDGE_LOOP('',(#286,#287,#288,#289,#290,#291,#292,#293,#294));
#63=EDGE_LOOP('',(#295,#296,#297,#298));
#64=EDGE_LOOP('',(#299,#300,#301,#302));
#65=EDGE_LOOP('',(#303,#304,#305,#306));
#66=EDGE_LOOP('',(#307,#308,#309,#310));
#67=EDGE_LOOP('',(#311,#312,#313,#314,#315,#316,#317,#318));
#68=EDGE_LOOP('',(#319,#320,#321,#322,#323,#324));
#69=EDGE_LOOP('',(#325,#326,#327,#328));
#70=EDGE_LOOP('',(#329,#330,#331,#332,#333,#334));
#71=EDGE_LOOP('',(#335));
#72=EDGE_LOOP('',(#336));
#73=EDGE_LOOP('',(#337,#338,#339,#340,#341,#342));
#74=EDGE_LOOP('',(#343));
#75=EDGE_LOOP('',(#344));
#76=LINE('',#526,#117);
#77=LINE('',#528,#118);
#78=LINE('',#530,#119);
#79=LINE('',#531,#120);
#80=LINE('',#534,#121);
#81=LINE('',#536,#122);
#82=LINE('',#538,#123);
#83=LINE('',#540,#124);
#84=LINE('',#541,#125);
#85=LINE('',#544,#126);
#86=LINE('',#546,#127);
#87=LINE('',#548,#128);
#88=LINE('',#549,#129);
#89=LINE('',#552,#130);
#90=LINE('',#553,#131);
#91=LINE('',#556,#132);
#92=LINE('',#558,#133);
#93=LINE('',#559,#134);
#94=LINE('',#562,#135);
#95=LINE('',#564,#136);
#96=LINE('',#565,#137);
#97=LINE('',#570,#138);
#98=LINE('',#574,#139);
#99=LINE('',#576,#140);
#100=LINE('',#577,#141);
#101=LINE('',#579,#142);
#102=LINE('',#582,#143);
#103=LINE('',#584,#144);
#104=LINE('',#585,#145);
#105=LINE('',#590,#146);
#106=LINE('',#596,#147);
#107=LINE('',#601,#148);
#108=LINE('',#603,#149);
#109=LINE('',#605,#150);
#110=LINE('',#606,#151);
#111=LINE('',#611,#152);
#112=LINE('',#614,#153);
#113=LINE('',#615,#154);
#114=LINE('',#618,#155);
#115=LINE('',#620,#156);
#116=LINE('',#621,#157);
#117=VECTOR('',#425,10.);
#118=VECTOR('',#426,10.);
#119=VECTOR('',#427,10.);
#120=VECTOR('',#428,10.);
#121=VECTOR('',#431,10.);
#122=VECTOR('',#432,10.);
#123=VECTOR('',#433,10.);
#124=VECTOR('',#434,10.);
#125=VECTOR('',#435,10.);
#126=VECTOR('',#438,10.);
#127=VECTOR('',#439,10.);
#128=VECTOR('',#440,10.);
#129=VECTOR('',#441,10.);
#130=VECTOR('',#444,10.);
#131=VECTOR('',#445,10.);
#132=VECTOR('',#448,10.);
#133=VECTOR('',#449,10.);
#134=VECTOR('',#450,10.);
#135=VECTOR('',#453,10.);
#136=VECTOR('',#454,10.);
#137=VECTOR('',#455,10.);
#138=VECTOR('',#460,10.);
#139=VECTOR('',#465,10.);
#140=VECTOR('',#466,10.);
#141=VECTOR('',#467,10.);
#142=VECTOR('',#470,10.);
#143=VECTOR('',#473,10.);
#144=VECTOR('',#474,10.);
#145=VECTOR('',#475,10.);
#146=VECTOR('',#480,5.5);
#147=VECTOR('',#487,5.5);
#148=VECTOR('',#492,10.);
#149=VECTOR('',#493,10.);
#150=VECTOR('',#494,10.);
#151=VECTOR('',#495,10.);
#152=VECTOR('',#500,10.);
#153=VECTOR('',#505,10.);
#154=VECTOR('',#506,10.);
#155=VECTOR('',#509,10.);
#156=VECTOR('',#510,10.);
#157=VECTOR('',#511,10.);
#158=VERTEX_POINT('',#524);
#159=VERTEX_POINT('',#525);
#160=VERTEX_POINT('',#527);
#161=VERTEX_POINT('',#529);
#162=VERTEX_POINT('',#533);
#163=VERTEX_POINT('',#535);
#164=VERTEX_POINT('',#537);
#165=VERTEX_POINT('',#539);
#166=VERTEX_POINT('',#543);
#167=VERTEX_POINT('',#545);
#168=VERTEX_POINT('',#547);
#169=VERTEX_POINT('',#551);
#170=VERTEX_POINT('',#555);
#171=VERTEX_POINT('',#557);
#172=VERTEX_POINT('',#561);
#173=VERTEX_POINT('',#563);
#174=VERTEX_POINT('',#567);
#175=VERTEX_POINT('',#569);
#176=VERTEX_POINT('',#573);
#177=VERTEX_POINT('',#575);
#178=VERTEX_POINT('',#581);
#179=VERTEX_POINT('',#583);
#180=VERTEX_POINT('',#587);
#181=VERTEX_POINT('',#589);
#182=VERTEX_POINT('',#593);
#183=VERTEX_POINT('',#595);
#184=VERTEX_POINT('',#599);
#185=VERTEX_POINT('',#600);
#186=VERTEX_POINT('',#602);
#187=VERTEX_POINT('',#604);
#188=VERTEX_POINT('',#608);
#189=VERTEX_POINT('',#610);
#190=VERTEX_POINT('',#617);
#191=VERTEX_POINT('',#619);
#192=EDGE_CURVE('',#158,#159,#76,.T.);
#193=EDGE_CURVE('',#159,#160,#77,.T.);
#194=EDGE_CURVE('',#160,#161,#78,.T.);
#195=EDGE_CURVE('',#158,#161,#79,.T.);
#196=EDGE_CURVE('',#161,#162,#80,.T.);
#197=EDGE_CURVE('',#160,#163,#81,.T.);
#198=EDGE_CURVE('',#163,#164,#82,.T.);
#199=EDGE_CURVE('',#165,#164,#83,.T.);
#200=EDGE_CURVE('',#162,#165,#84,.T.);
#201=EDGE_CURVE('',#159,#166,#85,.T.);
#202=EDGE_CURVE('',#166,#167,#86,.T.);
#203=EDGE_CURVE('',#167,#168,#87,.T.);
#204=EDGE_CURVE('',#163,#168,#88,.T.);
#205=EDGE_CURVE('',#168,#169,#89,.T.);
#206=EDGE_CURVE('',#164,#169,#90,.T.);
#207=EDGE_CURVE('',#166,#170,#91,.T.);
#208=EDGE_CURVE('',#170,#171,#92,.T.);
#209=EDGE_CURVE('',#171,#167,#93,.T.);
#210=EDGE_CURVE('',#172,#170,#94,.T.);
#211=EDGE_CURVE('',#172,#173,#95,.T.);
#212=EDGE_CURVE('',#173,#171,#96,.T.);
#213=EDGE_CURVE('',#174,#172,#19,.T.);
#214=EDGE_CURVE('',#174,#175,#97,.T.);
#215=EDGE_CURVE('',#175,#173,#20,.T.);
#216=EDGE_CURVE('',#176,#174,#98,.T.);
#217=EDGE_CURVE('',#176,#177,#99,.T.);
#218=EDGE_CURVE('',#177,#175,#100,.T.);
#219=EDGE_CURVE('',#169,#177,#101,.T.);
#220=EDGE_CURVE('',#158,#178,#102,.T.);
#221=EDGE_CURVE('',#178,#179,#103,.T.);
#222=EDGE_CURVE('',#179,#176,#104,.T.);
#223=EDGE_CURVE('',#180,#180,#21,.T.);
#224=EDGE_CURVE('',#180,#181,#105,.T.);
#225=EDGE_CURVE('',#181,#181,#22,.T.);
#226=EDGE_CURVE('',#182,#182,#23,.T.);
#227=EDGE_CURVE('',#182,#183,#106,.T.);
#228=EDGE_CURVE('',#183,#183,#24,.T.);
#229=EDGE_CURVE('',#184,#185,#107,.T.);
#230=EDGE_CURVE('',#184,#186,#108,.T.);
#231=EDGE_CURVE('',#186,#187,#109,.T.);
#232=EDGE_CURVE('',#185,#187,#110,.T.);
#233=EDGE_CURVE('',#188,#184,#25,.T.);
#234=EDGE_CURVE('',#188,#189,#111,.T.);
#235=EDGE_CURVE('',#189,#186,#26,.T.);
#236=EDGE_CURVE('',#188,#165,#112,.T.);
#237=EDGE_CURVE('',#179,#189,#113,.T.);
#238=EDGE_CURVE('',#190,#162,#114,.T.);
#239=EDGE_CURVE('',#190,#191,#115,.T.);
#240=EDGE_CURVE('',#191,#178,#116,.T.);
#241=EDGE_CURVE('',#185,#190,#27,.T.);
#242=EDGE_CURVE('',#187,#191,#28,.T.);
#243=ORIENTED_EDGE('',*,*,#192,.T.);
#244=ORIENTED_EDGE('',*,*,#193,.T.);
#245=ORIENTED_EDGE('',*,*,#194,.T.);
#246=ORIENTED_EDGE('',*,*,#195,.F.);
#247=ORIENTED_EDGE('',*,*,#196,.F.);
#248=ORIENTED_EDGE('',*,*,#194,.F.);
#249=ORIENTED_EDGE('',*,*,#197,.T.);
#250=ORIENTED_EDGE('',*,*,#198,.T.);
#251=ORIENTED_EDGE('',*,*,#199,.F.);
#252=ORIENTED_EDGE('',*,*,#200,.F.);
#253=ORIENTED_EDGE('',*,*,#193,.F.);
#254=ORIENTED_EDGE('',*,*,#201,.T.);
#255=ORIENTED_EDGE('',*,*,#202,.T.);
#256=ORIENTED_EDGE('',*,*,#203,.T.);
#257=ORIENTED_EDGE('',*,*,#204,.F.);
#258=ORIENTED_EDGE('',*,*,#197,.F.);
#259=ORIENTED_EDGE('',*,*,#198,.F.);
#260=ORIENTED_EDGE('',*,*,#204,.T.);
#261=ORIENTED_EDGE('',*,*,#205,.T.);
#262=ORIENTED_EDGE('',*,*,#206,.F.);
#263=ORIENTED_EDGE('',*,*,#207,.T.);
#264=ORIENTED_EDGE('',*,*,#208,.T.);
#265=ORIENTED_EDGE('',*,*,#209,.T.);
#266=ORIENTED_EDGE('',*,*,#202,.F.);
#267=ORIENTED_EDGE('',*,*,#210,.F.);
#268=ORIENTED_EDGE('',*,*,#211,.T.);
#269=ORIENTED_EDGE('',*,*,#212,.T.);
#270=ORIENTED_EDGE('',*,*,#208,.F.);
#271=ORIENTED_EDGE('',*,*,#213,.F.);
#272=ORIENTED_EDGE('',*,*,#214,.T.);
#273=ORIENTED_EDGE('',*,*,#215,.T.);
#274=ORIENTED_EDGE('',*,*,#211,.F.);
#275=ORIENTED_EDGE('',*,*,#216,.F.);
#276=ORIENTED_EDGE('',*,*,#217,.T.);
#277=ORIENTED_EDGE('',*,*,#218,.T.);
#278=ORIENTED_EDGE('',*,*,#214,.F.);
#279=ORIENTED_EDGE('',*,*,#205,.F.);
#280=ORIENTED_EDGE('',*,*,#203,.F.);
#281=ORIENTED_EDGE('',*,*,#209,.F.);
#282=ORIENTED_EDGE('',*,*,#212,.F.);
#283=ORIENTED_EDGE('',*,*,#215,.F.);
#284=ORIENTED_EDGE('',*,*,#218,.F.);
#285=ORIENTED_EDGE('',*,*,#219,.F.);
#286=ORIENTED_EDGE('',*,*,#201,.F.);
#287=ORIENTED_EDGE('',*,*,#192,.F.);
#288=ORIENTED_EDGE('',*,*,#220,.T.);
#289=ORIENTED_EDGE('',*,*,#221,.T.);
#290=ORIENTED_EDGE('',*,*,#222,.T.);
#291=ORIENTED_EDGE('',*,*,#216,.T.);
#292=ORIENTED_EDGE('',*,*,#213,.T.);
#293=ORIENTED_EDGE('',*,*,#210,.T.);
#294=ORIENTED_EDGE('',*,*,#207,.F.);
#295=ORIENTED_EDGE('',*,*,#223,.T.);
#296=ORIENTED_EDGE('',*,*,#224,.T.);
#297=ORIENTED_EDGE('',*,*,#225,.F.);
#298=ORIENTED_EDGE('',*,*,#224,.F.);
#299=ORIENTED_EDGE('',*,*,#226,.T.);
#300=ORIENTED_EDGE('',*,*,#227,.T.);
#301=ORIENTED_EDGE('',*,*,#228,.F.);
#302=ORIENTED_EDGE('',*,*,#227,.F.);
#303=ORIENTED_EDGE('',*,*,#229,.F.);
#304=ORIENTED_EDGE('',*,*,#230,.T.);
#305=ORIENTED_EDGE('',*,*,#231,.T.);
#306=ORIENTED_EDGE('',*,*,#232,.F.);
#307=ORIENTED_EDGE('',*,*,#233,.F.);
#308=ORIENTED_EDGE('',*,*,#234,.T.);
#309=ORIENTED_EDGE('',*,*,#235,.T.);
#310=ORIENTED_EDGE('',*,*,#230,.F.);
#311=ORIENTED_EDGE('',*,*,#236,.T.);
#312=ORIENTED_EDGE('',*,*,#199,.T.);
#313=ORIENTED_EDGE('',*,*,#206,.T.);
#314=ORIENTED_EDGE('',*,*,#219,.T.);
#315=ORIENTED_EDGE('',*,*,#217,.F.);
#316=ORIENTED_EDGE('',*,*,#222,.F.);
#317=ORIENTED_EDGE('',*,*,#237,.T.);
#318=ORIENTED_EDGE('',*,*,#234,.F.);
#319=ORIENTED_EDGE('',*,*,#238,.F.);
#320=ORIENTED_EDGE('',*,*,#239,.T.);
#321=ORIENTED_EDGE('',*,*,#240,.T.);
#322=ORIENTED_EDGE('',*,*,#220,.F.);
#323=ORIENTED_EDGE('',*,*,#195,.T.);
#324=ORIENTED_EDGE('',*,*,#196,.T.);
#325=ORIENTED_EDGE('',*,*,#241,.F.);
#326=ORIENTED_EDGE('',*,*,#232,.T.);
#327=ORIENTED_EDGE('',*,*,#242,.T.);
#328=ORIENTED_EDGE('',*,*,#239,.F.);
#329=ORIENTED_EDGE('',*,*,#242,.F.);
#330=ORIENTED_EDGE('',*,*,#231,.F.);
#331=ORIENTED_EDGE('',*,*,#235,.F.);
#332=ORIENTED_EDGE('',*,*,#237,.F.);
#333=ORIENTED_EDGE('',*,*,#221,.F.);
#334=ORIENTED_EDGE('',*,*,#240,.F.);
#335=ORIENTED_EDGE('',*,*,#226,.F.);
#336=ORIENTED_EDGE('',*,*,#223,.F.);
#337=ORIENTED_EDGE('',*,*,#241,.T.);
#338=ORIENTED_EDGE('',*,*,#238,.T.);
#339=ORIENTED_EDGE('',*,*,#200,.T.);
#340=ORIENTED_EDGE('',*,*,#236,.F.);
#341=ORIENTED_EDGE('',*,*,#233,.T.);
#342=ORIENTED_EDGE('',*,*,#229,.T.);
#343=ORIENTED_EDGE('',*,*,#228,.T.);
#344=ORIENTED_EDGE('',*,*,#225,.T.);
#345=PLANE('',#392);
#346=PLANE('',#393);
#347=PLANE('',#394);
#348=PLANE('',#395);
#349=PLANE('',#396);
#350=PLANE('',#397);
#351=PLANE('',#401);
#352=PLANE('',#402);
#353=PLANE('',#403);
#354=PLANE('',#410);
#355=PLANE('',#414);
#356=PLANE('',#415);
#357=PLANE('',#419);
#358=PLANE('',#420);
#359=ADVANCED_FACE('',(#34),#345,.F.);
#360=ADVANCED_FACE('',(#35),#346,.F.);
#361=ADVANCED_FACE('',(#36),#347,.F.);
#362=ADVANCED_FACE('',(#37),#348,.F.);
#363=ADVANCED_FACE('',(#38),#349,.F.);
#364=ADVANCED_FACE('',(#39),#350,.F.);
#365=ADVANCED_FACE('',(#40),#29,.T.);
#366=ADVANCED_FACE('',(#41),#351,.F.);
#367=ADVANCED_FACE('',(#42),#352,.F.);
#368=ADVANCED_FACE('',(#43),#353,.T.);
#369=ADVANCED_FACE('',(#44),#30,.F.);
#370=ADVANCED_FACE('',(#45),#31,.F.);
#371=ADVANCED_FACE('',(#46),#354,.F.);
#372=ADVANCED_FACE('',(#47),#32,.T.);
#373=ADVANCED_FACE('',(#48),#355,.F.);
#374=ADVANCED_FACE('',(#49),#356,.F.);
#375=ADVANCED_FACE('',(#50),#33,.T.);
#376=ADVANCED_FACE('',(#51,#15,#16),#357,.F.);
#377=ADVANCED_FACE('',(#52,#17,#18),#358,.T.);
#378=CLOSED_SHELL('',(#359,#360,#361,#362,#363,#364,#365,#366,#367,#368,
#369,#370,#371,#372,#373,#374,#375,#376,#377));
#379=DERIVED_UNIT_ELEMENT(#381,1.);
#380=DERIVED_UNIT_ELEMENT(#632,-3.);
#381=(
MASS_UNIT()
NAMED_UNIT(*)
SI_UNIT(.KILO.,.GRAM.)
);
#382=DERIVED_UNIT((#379,#380));
#383=MEASURE_REPRESENTATION_ITEM('density measure',
POSITIVE_RATIO_MEASURE(7850.),#382);
#384=PROPERTY_DEFINITION_REPRESENTATION(#389,#386);
#385=PROPERTY_DEFINITION_REPRESENTATION(#390,#387);
#386=REPRESENTATION('material name',(#388),#629);
#387=REPRESENTATION('density',(#383),#629);
#388=DESCRIPTIVE_REPRESENTATION_ITEM('Steel','Steel');
#389=PROPERTY_DEFINITION('material property','material name',#639);
#390=PROPERTY_DEFINITION('material property','density of part',#639);
#391=AXIS2_PLACEMENT_3D('',#522,#421,#422);
#392=AXIS2_PLACEMENT_3D('',#523,#423,#424);
#393=AXIS2_PLACEMENT_3D('',#532,#429,#430);
#394=AXIS2_PLACEMENT_3D('',#542,#436,#437);
#395=AXIS2_PLACEMENT_3D('',#550,#442,#443);
#396=AXIS2_PLACEMENT_3D('',#554,#446,#447);
#397=AXIS2_PLACEMENT_3D('',#560,#451,#452);
#398=AXIS2_PLACEMENT_3D('',#566,#456,#457);
#399=AXIS2_PLACEMENT_3D('',#568,#458,#459);
#400=AXIS2_PLACEMENT_3D('',#571,#461,#462);
#401=AXIS2_PLACEMENT_3D('',#572,#463,#464);
#402=AXIS2_PLACEMENT_3D('',#578,#468,#469);
#403=AXIS2_PLACEMENT_3D('',#580,#471,#472);
#404=AXIS2_PLACEMENT_3D('',#586,#476,#477);
#405=AXIS2_PLACEMENT_3D('',#588,#478,#479);
#406=AXIS2_PLACEMENT_3D('',#591,#481,#482);
#407=AXIS2_PLACEMENT_3D('',#592,#483,#484);
#408=AXIS2_PLACEMENT_3D('',#594,#485,#486);
#409=AXIS2_PLACEMENT_3D('',#597,#488,#489);
#410=AXIS2_PLACEMENT_3D('',#598,#490,#491);
#411=AXIS2_PLACEMENT_3D('',#607,#496,#497);
#412=AXIS2_PLACEMENT_3D('',#609,#498,#499);
#413=AXIS2_PLACEMENT_3D('',#612,#501,#502);
#414=AXIS2_PLACEMENT_3D('',#613,#503,#504);
#415=AXIS2_PLACEMENT_3D('',#616,#507,#508);
#416=AXIS2_PLACEMENT_3D('',#622,#512,#513);
#417=AXIS2_PLACEMENT_3D('',#623,#514,#515);
#418=AXIS2_PLACEMENT_3D('',#624,#516,#517);
#419=AXIS2_PLACEMENT_3D('',#625,#518,#519);
#420=AXIS2_PLACEMENT_3D('',#626,#520,#521);
#421=DIRECTION('axis',(0.,0.,1.));
#422=DIRECTION('refdir',(1.,0.,0.));
#423=DIRECTION('center_axis',(-1.,0.,0.));
#424=DIRECTION('ref_axis',(0.,-1.,8.88178419700125E-17));
#425=DIRECTION('',(0.,1.,-8.88178419700125E-17));
#426=DIRECTION('',(0.,0.,1.));
#427=DIRECTION('',(0.,-1.,8.88178419700125E-17));
#428=DIRECTION('',(0.,0.,1.));
#429=DIRECTION('center_axis',(0.,0.,-1.));
#430=DIRECTION('ref_axis',(-1.,0.,0.));
#431=DIRECTION('',(1.,0.,0.));
#432=DIRECTION('',(-0.5,-0.866025403784438,0.));
#433=DIRECTION('',(0.,-1.,0.));
#434=DIRECTION('',(-1.,0.,0.));
#435=DIRECTION('',(0.,-1.,8.88178419700125E-17));
#436=DIRECTION('center_axis',(-0.866025403784438,0.5,0.));
#437=DIRECTION('ref_axis',(-0.5,-0.866025403784438,7.69185074553425E-17));
#438=DIRECTION('',(0.5,0.866025403784438,-7.69185074553425E-17));
#439=DIRECTION('',(0.,0.,1.));
#440=DIRECTION('',(-0.5,-0.866025403784438,7.69185074553425E-17));
#441=DIRECTION('',(0.,0.,1.));
#442=DIRECTION('center_axis',(-1.,0.,0.));
#443=DIRECTION('ref_axis',(0.,-1.,8.88178419700125E-17));
#444=DIRECTION('',(0.,-1.,8.88178419700125E-17));
#445=DIRECTION('',(0.,0.,1.));
#446=DIRECTION('center_axis',(-0.500000000000012,-0.866025403784432,0.));
#447=DIRECTION('ref_axis',(0.866025403784432,-0.500000000000012,4.44089209850073E-17));
#448=DIRECTION('',(-0.866025403784432,0.500000000000012,-4.44089209850073E-17));
#449=DIRECTION('',(0.,0.,1.));
#450=DIRECTION('',(0.866025403784432,-0.500000000000012,4.44089209850073E-17));
#451=DIRECTION('center_axis',(0.866025403784439,-0.5,0.));
#452=DIRECTION('ref_axis',(0.5,0.866025403784439,-7.69185074553426E-17));
#453=DIRECTION('',(0.5,0.866025403784439,-7.69185074553425E-17));
#454=DIRECTION('',(0.,0.,1.));
#455=DIRECTION('',(0.5,0.866025403784439,-7.69185074553425E-17));
#456=DIRECTION('center_axis',(0.,0.,-1.));
#457=DIRECTION('ref_axis',(-1.,0.,0.));
#458=DIRECTION('center_axis',(0.,-8.88178419700125E-17,-1.));
#459=DIRECTION('ref_axis',(-1.,0.,0.));
#460=DIRECTION('',(0.,0.,1.));
#461=DIRECTION('center_axis',(0.,-8.88178419700125E-17,-1.));
#462=DIRECTION('ref_axis',(-1.,0.,0.));
#463=DIRECTION('center_axis',(1.,0.,0.));
#464=DIRECTION('ref_axis',(0.,1.,-8.88178419700125E-17));
#465=DIRECTION('',(0.,1.,-8.88178419700125E-17));
#466=DIRECTION('',(0.,0.,1.));
#467=DIRECTION('',(0.,1.,-8.88178419700125E-17));
#468=DIRECTION('center_axis',(0.,-8.88178419700125E-17,-1.));
#469=DIRECTION('ref_axis',(1.,0.,0.));
#470=DIRECTION('',(-1.,0.,0.));
#471=DIRECTION('center_axis',(0.,-8.88178419700125E-17,-1.));
#472=DIRECTION('ref_axis',(1.,0.,0.));
#473=DIRECTION('',(1.,0.,0.));
#474=DIRECTION('',(0.,-1.,1.33226762955019E-16));
#475=DIRECTION('',(-1.,0.,0.));
#476=DIRECTION('center_axis',(1.,0.,0.));
#477=DIRECTION('ref_axis',(0.,1.,0.));
#478=DIRECTION('center_axis',(-1.,0.,0.));
#479=DIRECTION('ref_axis',(0.,1.,0.));
#480=DIRECTION('',(1.,0.,0.));
#481=DIRECTION('center_axis',(-1.,0.,0.));
#482=DIRECTION('ref_axis',(0.,1.,0.));
#483=DIRECTION('center_axis',(1.,0.,0.));
#484=DIRECTION('ref_axis',(0.,1.,0.));
#485=DIRECTION('center_axis',(-1.,0.,0.));
#486=DIRECTION('ref_axis',(0.,1.,0.));
#487=DIRECTION('',(1.,0.,0.));
#488=DIRECTION('center_axis',(-1.,0.,0.));
#489=DIRECTION('ref_axis',(0.,1.,0.));
#490=DIRECTION('center_axis',(0.,0.,1.));
#491=DIRECTION('ref_axis',(0.,1.,0.));
#492=DIRECTION('',(0.,1.,0.));
#493=DIRECTION('',(-1.,0.,0.));
#494=DIRECTION('',(0.,1.,0.));
#495=DIRECTION('',(-1.,0.,0.));
#496=DIRECTION('center_axis',(1.,0.,0.));
#497=DIRECTION('ref_axis',(0.,-1.,0.));
#498=DIRECTION('center_axis',(1.,0.,0.));
#499=DIRECTION('ref_axis',(0.,-1.,0.));
#500=DIRECTION('',(-1.,0.,0.));
#501=DIRECTION('center_axis',(1.,0.,0.));
#502=DIRECTION('ref_axis',(0.,-1.,0.));
#503=DIRECTION('center_axis',(0.,1.,-5.58283578097221E-15));
#504=DIRECTION('ref_axis',(0.,-5.58283578097221E-15,-1.));
#505=DIRECTION('',(0.,0.,1.));
#506=DIRECTION('',(0.,-5.58283578097221E-15,-1.));
#507=DIRECTION('center_axis',(0.,-1.,7.07159198923148E-14));
#508=DIRECTION('ref_axis',(0.,7.07159198923148E-14,1.));
#509=DIRECTION('',(0.,7.07159198923148E-14,1.));
#510=DIRECTION('',(-1.,0.,0.));
#511=DIRECTION('',(0.,7.07159198923148E-14,1.));
#512=DIRECTION('center_axis',(1.,0.,0.));
#513=DIRECTION('ref_axis',(0.,0.,-1.));
#514=DIRECTION('center_axis',(1.,0.,0.));
#515=DIRECTION('ref_axis',(0.,0.,-1.));
#516=DIRECTION('center_axis',(1.,0.,0.));
#517=DIRECTION('ref_axis',(0.,0.,-1.));
#518=DIRECTION('center_axis',(1.,0.,0.));
#519=DIRECTION('ref_axis',(0.,1.,0.));
#520=DIRECTION('center_axis',(1.,0.,0.));
#521=DIRECTION('ref_axis',(0.,1.,0.));
#522=CARTESIAN_POINT('',(0.,0.,0.));
#523=CARTESIAN_POINT('Origin',(-22.2362732736831,68.6433215687713,32.5));
#524=CARTESIAN_POINT('',(-22.2362732736831,50.0000000000034,32.5));
#525=CARTESIAN_POINT('',(-22.2362732736831,68.6433215687713,32.5));
#526=CARTESIAN_POINT('',(-22.2362732736831,50.0000000000034,32.5));
#527=CARTESIAN_POINT('',(-22.2362732736831,68.6433215687713,38.));
#528=CARTESIAN_POINT('',(-22.2362732736831,68.6433215687713,32.5));
#529=CARTESIAN_POINT('',(-22.2362732736831,50.0000000000034,38.));
#530=CARTESIAN_POINT('',(-22.2362732736831,50.0000000000034,38.));
#531=CARTESIAN_POINT('',(-22.2362732736831,50.0000000000034,32.5));
#532=CARTESIAN_POINT('Origin',(-16.5,9.32166078438735,38.));
#533=CARTESIAN_POINT('',(0.,50.0000000000034,38.));
#534=CARTESIAN_POINT('',(-33.,50.0000000000034,38.));
#535=CARTESIAN_POINT('',(-33.,50.0000000000034,38.));
#536=CARTESIAN_POINT('',(-23.2446187861211,66.8968159096447,38.));
#537=CARTESIAN_POINT('',(-33.,-49.9999999999966,38.));
#538=CARTESIAN_POINT('',(-33.,29.6608303921954,38.));
#539=CARTESIAN_POINT('',(0.,-49.9999999999966,38.));
#540=CARTESIAN_POINT('',(0.,-49.9999999999966,38.));
#541=CARTESIAN_POINT('',(0.,50.0000000000034,38.));
#542=CARTESIAN_POINT('Origin',(0.,107.157676649776,32.5));
#543=CARTESIAN_POINT('',(0.,107.157676649776,32.5));
#544=CARTESIAN_POINT('',(-33.,50.0000000000034,32.5));
#545=CARTESIAN_POINT('',(0.,107.157676649776,42.5));
#546=CARTESIAN_POINT('',(0.,107.157676649776,32.5));
#547=CARTESIAN_POINT('',(-33.,50.0000000000034,42.5));
#548=CARTESIAN_POINT('',(-33.,50.0000000000034,42.5));
#549=CARTESIAN_POINT('',(-33.,50.0000000000034,32.5));
#550=CARTESIAN_POINT('Origin',(-33.,50.0000000000034,32.5));
#551=CARTESIAN_POINT('',(-33.,-49.9999999999966,42.5));
#552=CARTESIAN_POINT('',(-33.,-49.9999999999966,42.5));
#553=CARTESIAN_POINT('',(-33.,-49.9999999999966,32.5));
#554=CARTESIAN_POINT('Origin',(-4.76313972081439,109.907676649776,32.5));
#555=CARTESIAN_POINT('',(-4.76313972081439,109.907676649776,32.5));
#556=CARTESIAN_POINT('',(0.,107.157676649776,32.5));
#557=CARTESIAN_POINT('',(-4.76313972081439,109.907676649776,42.5));
#558=CARTESIAN_POINT('',(-4.76313972081439,109.907676649776,32.5));
#559=CARTESIAN_POINT('',(0.,107.157676649776,42.5));
#560=CARTESIAN_POINT('Origin',(-33.9041228301034,59.4340133219815,32.5));
#561=CARTESIAN_POINT('',(-33.9041228301034,59.4340133219815,32.5));
#562=CARTESIAN_POINT('',(-33.9041228301034,59.4340133219815,32.5));
#563=CARTESIAN_POINT('',(-33.9041228301034,59.4340133219815,42.5));
#564=CARTESIAN_POINT('',(-33.9041228301034,59.4340133219815,32.5));
#565=CARTESIAN_POINT('',(-33.9041228301034,59.4340133219815,42.5));
#566=CARTESIAN_POINT('Origin',(-4.19590579319972,42.2819662185813,32.5));
#567=CARTESIAN_POINT('',(-38.5,42.2819662185813,32.5));
#568=CARTESIAN_POINT('Origin',(-4.19590579319972,42.2819662185813,32.5));
#569=CARTESIAN_POINT('',(-38.5,42.2819662185813,42.5));
#570=CARTESIAN_POINT('',(-38.5,42.2819662185813,32.5));
#571=CARTESIAN_POINT('Origin',(-4.19590579319972,42.2819662185813,42.5));
#572=CARTESIAN_POINT('Origin',(-38.5,-49.9999999999966,32.5));
#573=CARTESIAN_POINT('',(-38.5,-49.9999999999966,32.5));
#574=CARTESIAN_POINT('',(-38.5,-49.9999999999966,32.5));
#575=CARTESIAN_POINT('',(-38.5,-49.9999999999966,42.5));
#576=CARTESIAN_POINT('',(-38.5,-49.9999999999966,32.5));
#577=CARTESIAN_POINT('',(-38.5,-49.9999999999966,42.5));
#578=CARTESIAN_POINT('Origin',(-19.25,29.9538383248899,42.5));
#579=CARTESIAN_POINT('',(-33.,-49.9999999999966,42.5));
#580=CARTESIAN_POINT('Origin',(-19.25,29.9538383248899,32.5));
#581=CARTESIAN_POINT('',(-5.5,50.0000000000025,32.5));
#582=CARTESIAN_POINT('',(-33.,50.0000000000034,32.5));
#583=CARTESIAN_POINT('',(-5.5,-49.9999999999975,32.5));
#584=CARTESIAN_POINT('',(-5.5,50.0000000000025,32.5));
#585=CARTESIAN_POINT('',(0.,-49.9999999999966,32.5));
#586=CARTESIAN_POINT('Origin',(0.,-37.4999999999978,-20.));
#587=CARTESIAN_POINT('',(-5.5,-42.9999999999978,-20.));
#588=CARTESIAN_POINT('Origin',(-5.5,-37.4999999999978,-20.));
#589=CARTESIAN_POINT('',(0.,-42.9999999999978,-20.));
#590=CARTESIAN_POINT('',(0.,-42.9999999999978,-20.));
#591=CARTESIAN_POINT('Origin',(0.,-37.4999999999978,-20.));
#592=CARTESIAN_POINT('Origin',(0.,37.4999999999988,-20.));
#593=CARTESIAN_POINT('',(-5.5,31.9999999999988,-20.));
#594=CARTESIAN_POINT('Origin',(-5.5,37.4999999999988,-20.));
#595=CARTESIAN_POINT('',(0.,31.9999999999988,-20.));
#596=CARTESIAN_POINT('',(0.,31.9999999999988,-20.));
#597=CARTESIAN_POINT('Origin',(0.,37.4999999999988,-20.));
#598=CARTESIAN_POINT('Origin',(0.,-37.4999999999978,-32.5));
#599=CARTESIAN_POINT('',(0.,-37.4999999999978,-32.5));
#600=CARTESIAN_POINT('',(0.,37.4999999999988,-32.5));
#601=CARTESIAN_POINT('',(0.,-37.4999999999978,-32.5));
#602=CARTESIAN_POINT('',(-5.5,-37.4999999999978,-32.5));
#603=CARTESIAN_POINT('',(0.,-37.4999999999978,-32.5));
#604=CARTESIAN_POINT('',(-5.5,37.4999999999988,-32.5));
#605=CARTESIAN_POINT('',(-5.5,-37.4999999999978,-32.5));
#606=CARTESIAN_POINT('',(0.,37.4999999999988,-32.5));
#607=CARTESIAN_POINT('Origin',(0.,-37.4999999999978,-20.));
#608=CARTESIAN_POINT('',(0.,-49.9999999999978,-20.));
#609=CARTESIAN_POINT('Origin',(0.,-37.4999999999978,-20.));
#610=CARTESIAN_POINT('',(-5.5,-49.9999999999978,-20.));
#611=CARTESIAN_POINT('',(0.,-49.9999999999978,-20.));
#612=CARTESIAN_POINT('Origin',(-5.5,-37.4999999999978,-20.));
#613=CARTESIAN_POINT('Origin',(0.,-49.9999999999975,32.5));
#614=CARTESIAN_POINT('',(0.,-49.9999999999966,32.5));
#615=CARTESIAN_POINT('',(-5.5,-49.9999999999975,32.5));
#616=CARTESIAN_POINT('Origin',(0.,49.9999999999988,-20.));
#617=CARTESIAN_POINT('',(0.,49.9999999999988,-20.));
#618=CARTESIAN_POINT('',(0.,49.9999999999988,-20.));
#619=CARTESIAN_POINT('',(-5.5,49.9999999999988,-20.));
#620=CARTESIAN_POINT('',(0.,49.9999999999988,-20.));
#621=CARTESIAN_POINT('',(-5.5,49.9999999999988,-20.));
#622=CARTESIAN_POINT('Origin',(0.,37.4999999999988,-20.));
#623=CARTESIAN_POINT('Origin',(0.,37.4999999999988,-20.));
#624=CARTESIAN_POINT('Origin',(-5.5,37.4999999999988,-20.));
#625=CARTESIAN_POINT('Origin',(-5.5,2.32702745961433E-12,4.44089209850063E-15));
#626=CARTESIAN_POINT('Origin',(0.,2.32702745961433E-12,4.44089209850063E-15));
#627=UNCERTAINTY_MEASURE_WITH_UNIT(LENGTH_MEASURE(0.01),#631,
'DISTANCE_ACCURACY_VALUE',
'Maximum model space distance between geometric entities at asserted c
onnectivities');
#628=UNCERTAINTY_MEASURE_WITH_UNIT(LENGTH_MEASURE(0.01),#631,
'DISTANCE_ACCURACY_VALUE',
'Maximum model space distance between geometric entities at asserted c
onnectivities');
#629=(
GEOMETRIC_REPRESENTATION_CONTEXT(3)
GLOBAL_UNCERTAINTY_ASSIGNED_CONTEXT((#627))
GLOBAL_UNIT_ASSIGNED_CONTEXT((#631,#633,#634))
REPRESENTATION_CONTEXT('','3D')
);
#630=(
GEOMETRIC_REPRESENTATION_CONTEXT(3)
GLOBAL_UNCERTAINTY_ASSIGNED_CONTEXT((#628))
GLOBAL_UNIT_ASSIGNED_CONTEXT((#631,#633,#634))
REPRESENTATION_CONTEXT('','3D')
);
#631=(
LENGTH_UNIT()
NAMED_UNIT(*)
SI_UNIT(.MILLI.,.METRE.)
);
#632=(
LENGTH_UNIT()
NAMED_UNIT(*)
SI_UNIT($,.METRE.)
);
#633=(
NAMED_UNIT(*)
PLANE_ANGLE_UNIT()
SI_UNIT($,.RADIAN.)
);
#634=(
NAMED_UNIT(*)
SI_UNIT($,.STERADIAN.)
SOLID_ANGLE_UNIT()
);
#635=SHAPE_DEFINITION_REPRESENTATION(#636,#637);
#636=PRODUCT_DEFINITION_SHAPE('',$,#639);
#637=SHAPE_REPRESENTATION('',(#391),#629);
#638=PRODUCT_DEFINITION_CONTEXT('part definition',#643,'design');
#639=PRODUCT_DEFINITION('Bande','Bande',#640,#638);
#640=PRODUCT_DEFINITION_FORMATION('',$,#645);
#641=PRODUCT_RELATED_PRODUCT_CATEGORY('Bande','Bande',(#645));
#642=APPLICATION_PROTOCOL_DEFINITION('international standard',
'automotive_design',2009,#643);
#643=APPLICATION_CONTEXT(
'Core Data for Automotive Mechanical Design Process');
#644=PRODUCT_CONTEXT('part definition',#643,'mechanical');
#645=PRODUCT('Bande','Bande',$,(#644));
#646=PRESENTATION_STYLE_ASSIGNMENT((#647));
#647=SURFACE_STYLE_USAGE(.BOTH.,#648);
#648=SURFACE_SIDE_STYLE('',(#649));
#649=SURFACE_STYLE_FILL_AREA(#650);
#650=FILL_AREA_STYLE('Steel - Satin',(#651));
#651=FILL_AREA_STYLE_COLOUR('Steel - Satin',#652);
#652=COLOUR_RGB('Steel - Satin',0.627450980392157,0.627450980392157,0.627450980392157);
ENDSEC;
END-ISO-10303-21;
