ISO-10303-21;
HEADER;
/* Generated by software containing ST-Developer
 * from STEP Tools, Inc. (www.steptools.com) 
 */

FILE_DESCRIPTION(
/* description */ (''),
/* implementation_level */ '2;1');

FILE_NAME(
/* name */ 'BandeV2Joint3_HALF.stp',
/* time_stamp */ '2026-06-25T23:05:49+02:00',
/* author */ ('frede'),
/* organization */ (''),
/* preprocessor_version */ 'ST-DEVELOPER v20.1',
/* originating_system */ 'Autodesk Inventor 2026',
/* authorisation */ '');

FILE_SCHEMA (('AUTOMOTIVE_DESIGN { 1 0 10303 214 3 1 1 }'));
ENDSEC;

DATA;
#10=MECHANICAL_DESIGN_GEOMETRIC_PRESENTATION_REPRESENTATION('',(#13),#1772);
#11=SHAPE_REPRESENTATION_RELATIONSHIP('SRR','None',#1779,#12);
#12=ADVANCED_BREP_SHAPE_REPRESENTATION('',(#14),#1771);
#13=STYLED_ITEM('',(#1788),#14);
#14=MANIFOLD_SOLID_BREP('Solid1',#923);
#15=B_SPLINE_CURVE_WITH_KNOTS('',3,(#1640,#1641,#1642,#1643,#1644,#1645,
#1646,#1647,#1648,#1649,#1650,#1651),.UNSPECIFIED.,.F.,.F.,(4,1,1,1,1,1,
1,2,4),(1.15461484392115E-15,0.185181230859118,0.370362461718235,0.555543692577352,
0.64813430800691,0.740724923436469,0.833315538866027,0.925906154295586,
0.927338282203001),.UNSPECIFIED.);
#16=B_SPLINE_CURVE_WITH_KNOTS('',3,(#1652,#1653,#1654,#1655,#1656,#1657,
#1658,#1659,#1660,#1661,#1662,#1663),.UNSPECIFIED.,.F.,.F.,(4,2,1,1,1,1,
1,1,4),(-0.927338282203001,-0.925906154295586,-0.833315538866027,-0.740724923436469,
-0.64813430800691,-0.555543692577352,-0.370362461718235,-0.185181230859118,
-1.15461484392115E-15),.UNSPECIFIED.);
#17=B_SPLINE_CURVE_WITH_KNOTS('',3,(#1709,#1710,#1711,#1712,#1713,#1714,
#1715,#1716),.UNSPECIFIED.,.F.,.F.,(4,1,1,2,4),(-0.925906154278936,-0.740724923423149,
-0.555543692567362,0.,0.00143212790804973),.UNSPECIFIED.);
#18=B_SPLINE_CURVE_WITH_KNOTS('',3,(#1717,#1718,#1719,#1720,#1721,#1722,
#1723,#1724),.UNSPECIFIED.,.F.,.F.,(4,2,1,1,4),(-0.00143212790804973,0.,
0.555543692567362,0.740724923423149,0.925906154278936),.UNSPECIFIED.);
#19=B_SPLINE_SURFACE_WITH_KNOTS('',3,3,((#1580,#1581,#1582,#1583,#1584,
#1585,#1586,#1587,#1588,#1589,#1590,#1591),(#1592,#1593,#1594,#1595,#1596,
#1597,#1598,#1599,#1600,#1601,#1602,#1603),(#1604,#1605,#1606,#1607,#1608,
#1609,#1610,#1611,#1612,#1613,#1614,#1615),(#1616,#1617,#1618,#1619,#1620,
#1621,#1622,#1623,#1624,#1625,#1626,#1627),(#1628,#1629,#1630,#1631,#1632,
#1633,#1634,#1635,#1636,#1637,#1638,#1639)),.UNSPECIFIED.,.F.,.F.,.F.,(4,
1,4),(4,1,1,1,1,1,1,2,4),(0.,0.5,1.),(1.15461484392115E-15,0.185181230859118,
0.370362461718235,0.555543692577352,0.64813430800691,0.740724923436469,
0.833315538866027,0.925906154295586,0.927338282203001),.UNSPECIFIED.);
#20=B_SPLINE_SURFACE_WITH_KNOTS('',3,3,((#1675,#1676,#1677,#1678,#1679,
#1680,#1681,#1682),(#1683,#1684,#1685,#1686,#1687,#1688,#1689,#1690),(#1691,
#1692,#1693,#1694,#1695,#1696,#1697,#1698),(#1699,#1700,#1701,#1702,#1703,
#1704,#1705,#1706)),.UNSPECIFIED.,.F.,.F.,.F.,(4,4),(4,2,1,1,4),(0.,1.),
(-0.00143212790804973,0.,0.555543692567362,0.740724923423149,0.925906154278936),
 .UNSPECIFIED.);
#21=SPHERICAL_SURFACE('',#987,0.499999999999988);
#22=SPHERICAL_SURFACE('',#993,0.5);
#23=SPHERICAL_SURFACE('',#999,0.499999999999999);
#24=SPHERICAL_SURFACE('',#1003,0.5);
#25=SPHERICAL_SURFACE('',#1010,0.5);
#26=SPHERICAL_SURFACE('',#1014,0.5);
#27=SPHERICAL_SURFACE('',#1025,0.5);
#28=SPHERICAL_SURFACE('',#1035,0.499999999999998);
#29=ELLIPSE('',#986,0.504314480290077,0.5);
#30=ELLIPSE('',#992,0.504314480290075,0.5);
#31=ELLIPSE('',#998,0.504314480290069,0.5);
#32=ELLIPSE('',#1009,0.504314480290079,0.5);
#33=CYLINDRICAL_SURFACE('',#961,0.5);
#34=CYLINDRICAL_SURFACE('',#966,0.5);
#35=CYLINDRICAL_SURFACE('',#968,2.125);
#36=CYLINDRICAL_SURFACE('',#974,0.5);
#37=CYLINDRICAL_SURFACE('',#980,0.5);
#38=CYLINDRICAL_SURFACE('',#985,0.5);
#39=CYLINDRICAL_SURFACE('',#991,0.5);
#40=CYLINDRICAL_SURFACE('',#997,0.5);
#41=CYLINDRICAL_SURFACE('',#1007,0.5);
#42=CYLINDRICAL_SURFACE('',#1008,0.5);
#43=CYLINDRICAL_SURFACE('',#1018,0.5);
#44=CYLINDRICAL_SURFACE('',#1023,0.5);
#45=CYLINDRICAL_SURFACE('',#1024,0.5);
#46=CYLINDRICAL_SURFACE('',#1029,0.5);
#47=CYLINDRICAL_SURFACE('',#1030,0.5);
#48=CYLINDRICAL_SURFACE('',#1039,0.5);
#49=CYLINDRICAL_SURFACE('',#1040,0.5);
#50=CYLINDRICAL_SURFACE('',#1045,0.5);
#51=CYLINDRICAL_SURFACE('',#1046,0.5);
#52=CYLINDRICAL_SURFACE('',#1050,0.5);
#53=CYLINDRICAL_SURFACE('',#1051,0.5);
#54=CYLINDRICAL_SURFACE('',#1052,0.5);
#55=CYLINDRICAL_SURFACE('',#1053,0.5);
#56=CYLINDRICAL_SURFACE('',#1054,0.5);
#57=CYLINDRICAL_SURFACE('',#1055,0.5);
#58=CYLINDRICAL_SURFACE('',#1058,15.);
#59=CYLINDRICAL_SURFACE('',#1063,2.);
#60=CYLINDRICAL_SURFACE('',#1064,15.);
#61=CYLINDRICAL_SURFACE('',#1067,2.125);
#62=TOROIDAL_SURFACE('',#957,2.625,0.5);
#63=TOROIDAL_SURFACE('',#963,2.625,0.5);
#64=TOROIDAL_SURFACE('',#970,2.625,0.5);
#65=TOROIDAL_SURFACE('',#976,2.625,0.5);
#66=TOROIDAL_SURFACE('',#1020,15.5,0.5);
#67=TOROIDAL_SURFACE('',#1032,15.5,0.5);
#68=TOROIDAL_SURFACE('',#1042,15.5,0.5);
#69=TOROIDAL_SURFACE('',#1048,15.5,0.5);
#70=FACE_BOUND('',#135,.T.);
#71=FACE_BOUND('',#149,.T.);
#72=FACE_OUTER_BOUND('',#133,.T.);
#73=FACE_OUTER_BOUND('',#134,.T.);
#74=FACE_OUTER_BOUND('',#136,.T.);
#75=FACE_OUTER_BOUND('',#137,.T.);
#76=FACE_OUTER_BOUND('',#138,.T.);
#77=FACE_OUTER_BOUND('',#139,.T.);
#78=FACE_OUTER_BOUND('',#140,.T.);
#79=FACE_OUTER_BOUND('',#141,.T.);
#80=FACE_OUTER_BOUND('',#142,.T.);
#81=FACE_OUTER_BOUND('',#143,.T.);
#82=FACE_OUTER_BOUND('',#144,.T.);
#83=FACE_OUTER_BOUND('',#145,.T.);
#84=FACE_OUTER_BOUND('',#146,.T.);
#85=FACE_OUTER_BOUND('',#147,.T.);
#86=FACE_OUTER_BOUND('',#148,.T.);
#87=FACE_OUTER_BOUND('',#150,.T.);
#88=FACE_OUTER_BOUND('',#151,.T.);
#89=FACE_OUTER_BOUND('',#152,.T.);
#90=FACE_OUTER_BOUND('',#153,.T.);
#91=FACE_OUTER_BOUND('',#154,.T.);
#92=FACE_OUTER_BOUND('',#155,.T.);
#93=FACE_OUTER_BOUND('',#156,.T.);
#94=FACE_OUTER_BOUND('',#157,.T.);
#95=FACE_OUTER_BOUND('',#158,.T.);
#96=FACE_OUTER_BOUND('',#159,.T.);
#97=FACE_OUTER_BOUND('',#160,.T.);
#98=FACE_OUTER_BOUND('',#161,.T.);
#99=FACE_OUTER_BOUND('',#162,.T.);
#100=FACE_OUTER_BOUND('',#163,.T.);
#101=FACE_OUTER_BOUND('',#164,.T.);
#102=FACE_OUTER_BOUND('',#165,.T.);
#103=FACE_OUTER_BOUND('',#166,.T.);
#104=FACE_OUTER_BOUND('',#167,.T.);
#105=FACE_OUTER_BOUND('',#168,.T.);
#106=FACE_OUTER_BOUND('',#169,.T.);
#107=FACE_OUTER_BOUND('',#170,.T.);
#108=FACE_OUTER_BOUND('',#171,.T.);
#109=FACE_OUTER_BOUND('',#172,.T.);
#110=FACE_OUTER_BOUND('',#173,.T.);
#111=FACE_OUTER_BOUND('',#174,.T.);
#112=FACE_OUTER_BOUND('',#175,.T.);
#113=FACE_OUTER_BOUND('',#176,.T.);
#114=FACE_OUTER_BOUND('',#177,.T.);
#115=FACE_OUTER_BOUND('',#178,.T.);
#116=FACE_OUTER_BOUND('',#179,.T.);
#117=FACE_OUTER_BOUND('',#180,.T.);
#118=FACE_OUTER_BOUND('',#181,.T.);
#119=FACE_OUTER_BOUND('',#182,.T.);
#120=FACE_OUTER_BOUND('',#183,.T.);
#121=FACE_OUTER_BOUND('',#184,.T.);
#122=FACE_OUTER_BOUND('',#185,.T.);
#123=FACE_OUTER_BOUND('',#186,.T.);
#124=FACE_OUTER_BOUND('',#187,.T.);
#125=FACE_OUTER_BOUND('',#188,.T.);
#126=FACE_OUTER_BOUND('',#189,.T.);
#127=FACE_OUTER_BOUND('',#190,.T.);
#128=FACE_OUTER_BOUND('',#191,.T.);
#129=FACE_OUTER_BOUND('',#192,.T.);
#130=FACE_OUTER_BOUND('',#193,.T.);
#131=FACE_OUTER_BOUND('',#194,.T.);
#132=FACE_OUTER_BOUND('',#195,.T.);
#133=EDGE_LOOP('',(#586,#587,#588,#589,#590,#591,#592,#593,#594));
#134=EDGE_LOOP('',(#595,#596,#597,#598,#599,#600,#601,#602,#603,#604,#605));
#135=EDGE_LOOP('',(#606,#607,#608,#609));
#136=EDGE_LOOP('',(#610,#611,#612,#613,#614,#615));
#137=EDGE_LOOP('',(#616,#617,#618,#619));
#138=EDGE_LOOP('',(#620,#621,#622,#623));
#139=EDGE_LOOP('',(#624,#625,#626,#627));
#140=EDGE_LOOP('',(#628,#629,#630,#631));
#141=EDGE_LOOP('',(#632,#633,#634,#635));
#142=EDGE_LOOP('',(#636,#637,#638,#639));
#143=EDGE_LOOP('',(#640,#641,#642,#643));
#144=EDGE_LOOP('',(#644,#645,#646,#647));
#145=EDGE_LOOP('',(#648,#649,#650,#651));
#146=EDGE_LOOP('',(#652,#653,#654,#655));
#147=EDGE_LOOP('',(#656,#657,#658,#659));
#148=EDGE_LOOP('',(#660,#661,#662,#663,#664,#665));
#149=EDGE_LOOP('',(#666,#667,#668,#669));
#150=EDGE_LOOP('',(#670,#671,#672,#673));
#151=EDGE_LOOP('',(#674,#675,#676));
#152=EDGE_LOOP('',(#677,#678,#679,#680));
#153=EDGE_LOOP('',(#681,#682,#683));
#154=EDGE_LOOP('',(#684,#685,#686,#687));
#155=EDGE_LOOP('',(#688,#689,#690));
#156=EDGE_LOOP('',(#691,#692,#693));
#157=EDGE_LOOP('',(#694,#695,#696,#697));
#158=EDGE_LOOP('',(#698,#699,#700,#701));
#159=EDGE_LOOP('',(#702,#703,#704));
#160=EDGE_LOOP('',(#705,#706,#707));
#161=EDGE_LOOP('',(#708,#709,#710,#711));
#162=EDGE_LOOP('',(#712,#713,#714,#715));
#163=EDGE_LOOP('',(#716,#717,#718,#719));
#164=EDGE_LOOP('',(#720,#721,#722,#723));
#165=EDGE_LOOP('',(#724,#725,#726));
#166=EDGE_LOOP('',(#727,#728,#729,#730));
#167=EDGE_LOOP('',(#731,#732,#733,#734));
#168=EDGE_LOOP('',(#735,#736,#737,#738));
#169=EDGE_LOOP('',(#739,#740,#741));
#170=EDGE_LOOP('',(#742,#743,#744));
#171=EDGE_LOOP('',(#745,#746,#747,#748));
#172=EDGE_LOOP('',(#749,#750,#751,#752));
#173=EDGE_LOOP('',(#753,#754,#755));
#174=EDGE_LOOP('',(#756,#757,#758,#759));
#175=EDGE_LOOP('',(#760,#761,#762,#763));
#176=EDGE_LOOP('',(#764,#765,#766,#767));
#177=EDGE_LOOP('',(#768,#769,#770,#771));
#178=EDGE_LOOP('',(#772,#773,#774,#775));
#179=EDGE_LOOP('',(#776,#777,#778,#779));
#180=EDGE_LOOP('',(#780,#781,#782,#783));
#181=EDGE_LOOP('',(#784,#785,#786,#787));
#182=EDGE_LOOP('',(#788,#789,#790,#791));
#183=EDGE_LOOP('',(#792,#793,#794,#795));
#184=EDGE_LOOP('',(#796,#797,#798,#799));
#185=EDGE_LOOP('',(#800,#801,#802,#803));
#186=EDGE_LOOP('',(#804,#805,#806,#807,#808));
#187=EDGE_LOOP('',(#809,#810,#811,#812));
#188=EDGE_LOOP('',(#813,#814,#815,#816));
#189=EDGE_LOOP('',(#817,#818,#819,#820));
#190=EDGE_LOOP('',(#821,#822,#823,#824,#825,#826));
#191=EDGE_LOOP('',(#827,#828,#829,#830));
#192=EDGE_LOOP('',(#831,#832,#833,#834,#835));
#193=EDGE_LOOP('',(#836,#837,#838,#839));
#194=EDGE_LOOP('',(#840,#841,#842,#843));
#195=EDGE_LOOP('',(#844,#845,#846,#847));
#196=LINE('',#1384,#260);
#197=LINE('',#1388,#261);
#198=LINE('',#1392,#262);
#199=LINE('',#1394,#263);
#200=LINE('',#1397,#264);
#201=LINE('',#1402,#265);
#202=LINE('',#1404,#266);
#203=LINE('',#1406,#267);
#204=LINE('',#1410,#268);
#205=LINE('',#1412,#269);
#206=LINE('',#1414,#270);
#207=LINE('',#1416,#271);
#208=LINE('',#1417,#272);
#209=LINE('',#1422,#273);
#210=LINE('',#1425,#274);
#211=LINE('',#1428,#275);
#212=LINE('',#1430,#276);
#213=LINE('',#1432,#277);
#214=LINE('',#1434,#278);
#215=LINE('',#1435,#279);
#216=LINE('',#1445,#280);
#217=LINE('',#1451,#281);
#218=LINE('',#1454,#282);
#219=LINE('',#1456,#283);
#220=LINE('',#1457,#284);
#221=LINE('',#1460,#285);
#222=LINE('',#1472,#286);
#223=LINE('',#1473,#287);
#224=LINE('',#1480,#288);
#225=LINE('',#1482,#289);
#226=LINE('',#1488,#290);
#227=LINE('',#1492,#291);
#228=LINE('',#1494,#292);
#229=LINE('',#1495,#293);
#230=LINE('',#1498,#294);
#231=LINE('',#1501,#295);
#232=LINE('',#1511,#296);
#233=LINE('',#1521,#297);
#234=LINE('',#1537,#298);
#235=LINE('',#1539,#299);
#236=LINE('',#1560,#300);
#237=LINE('',#1562,#301);
#238=LINE('',#1570,#302);
#239=LINE('',#1571,#303);
#240=LINE('',#1575,#304);
#241=LINE('',#1671,#305);
#242=LINE('',#1672,#306);
#243=LINE('',#1674,#307);
#244=LINE('',#1730,#308);
#245=LINE('',#1734,#309);
#246=LINE('',#1738,#310);
#247=LINE('',#1739,#311);
#248=LINE('',#1741,#312);
#249=LINE('',#1742,#313);
#250=LINE('',#1744,#314);
#251=LINE('',#1745,#315);
#252=LINE('',#1747,#316);
#253=LINE('',#1748,#317);
#254=LINE('',#1750,#318);
#255=LINE('',#1751,#319);
#256=LINE('',#1753,#320);
#257=LINE('',#1756,#321);
#258=LINE('',#1759,#322);
#259=LINE('',#1765,#323);
#260=VECTOR('',#1074,10.);
#261=VECTOR('',#1077,10.);
#262=VECTOR('',#1080,10.);
#263=VECTOR('',#1081,10.);
#264=VECTOR('',#1084,10.);
#265=VECTOR('',#1089,10.);
#266=VECTOR('',#1090,10.);
#267=VECTOR('',#1091,10.);
#268=VECTOR('',#1094,10.);
#269=VECTOR('',#1095,10.);
#270=VECTOR('',#1096,10.);
#271=VECTOR('',#1097,10.);
#272=VECTOR('',#1098,10.);
#273=VECTOR('',#1101,10.);
#274=VECTOR('',#1104,10.);
#275=VECTOR('',#1107,10.);
#276=VECTOR('',#1108,10.);
#277=VECTOR('',#1109,10.);
#278=VECTOR('',#1110,10.);
#279=VECTOR('',#1111,10.);
#280=VECTOR('',#1124,10.);
#281=VECTOR('',#1133,10.);
#282=VECTOR('',#1136,10.);
#283=VECTOR('',#1137,10.);
#284=VECTOR('',#1138,10.);
#285=VECTOR('',#1141,10.);
#286=VECTOR('',#1156,10.);
#287=VECTOR('',#1157,10.);
#288=VECTOR('',#1168,10.);
#289=VECTOR('',#1171,10.);
#290=VECTOR('',#1176,10.);
#291=VECTOR('',#1179,10.);
#292=VECTOR('',#1180,10.);
#293=VECTOR('',#1181,10.);
#294=VECTOR('',#1184,10.);
#295=VECTOR('',#1187,10.);
#296=VECTOR('',#1198,10.);
#297=VECTOR('',#1211,10.);
#298=VECTOR('',#1232,10.);
#299=VECTOR('',#1235,10.);
#300=VECTOR('',#1266,10.);
#301=VECTOR('',#1269,10.);
#302=VECTOR('',#1280,10.);
#303=VECTOR('',#1281,10.);
#304=VECTOR('',#1286,10.);
#305=VECTOR('',#1303,10.);
#306=VECTOR('',#1304,10.);
#307=VECTOR('',#1307,10.);
#308=VECTOR('',#1318,10.);
#309=VECTOR('',#1323,10.);
#310=VECTOR('',#1330,10.);
#311=VECTOR('',#1331,10.);
#312=VECTOR('',#1334,10.);
#313=VECTOR('',#1335,10.);
#314=VECTOR('',#1338,10.);
#315=VECTOR('',#1339,10.);
#316=VECTOR('',#1342,10.);
#317=VECTOR('',#1343,10.);
#318=VECTOR('',#1346,10.);
#319=VECTOR('',#1347,10.);
#320=VECTOR('',#1350,10.);
#321=VECTOR('',#1355,10.);
#322=VECTOR('',#1360,10.);
#323=VECTOR('',#1371,10.);
#324=CIRCLE('',#947,0.5);
#325=CIRCLE('',#948,0.5);
#326=CIRCLE('',#949,0.5);
#327=CIRCLE('',#950,0.5);
#328=CIRCLE('',#952,15.5);
#329=CIRCLE('',#953,15.5);
#330=CIRCLE('',#954,2.625);
#331=CIRCLE('',#955,2.625);
#332=CIRCLE('',#958,0.500000000000001);
#333=CIRCLE('',#959,0.5);
#334=CIRCLE('',#960,2.125);
#335=CIRCLE('',#962,0.5);
#336=CIRCLE('',#964,0.5);
#337=CIRCLE('',#965,2.125);
#338=CIRCLE('',#969,2.125);
#339=CIRCLE('',#971,0.5);
#340=CIRCLE('',#972,0.499999999999996);
#341=CIRCLE('',#973,2.625);
#342=CIRCLE('',#975,0.5);
#343=CIRCLE('',#977,0.500000000000001);
#344=CIRCLE('',#978,2.625);
#345=CIRCLE('',#979,2.125);
#346=CIRCLE('',#983,15.5);
#347=CIRCLE('',#984,15.5);
#348=CIRCLE('',#988,0.49999999999999);
#349=CIRCLE('',#989,0.499999999999988);
#350=CIRCLE('',#990,0.5);
#351=CIRCLE('',#994,0.499999999999999);
#352=CIRCLE('',#995,0.5);
#353=CIRCLE('',#996,0.500000000000005);
#354=CIRCLE('',#1000,0.499999999999986);
#355=CIRCLE('',#1001,0.499999999999999);
#356=CIRCLE('',#1002,0.5);
#357=CIRCLE('',#1004,0.500000000000025);
#358=CIRCLE('',#1005,0.5);
#359=CIRCLE('',#1006,0.499999999999999);
#360=CIRCLE('',#1011,0.5);
#361=CIRCLE('',#1012,0.5);
#362=CIRCLE('',#1013,0.5);
#363=CIRCLE('',#1015,0.5);
#364=CIRCLE('',#1016,0.5);
#365=CIRCLE('',#1017,0.499999999999998);
#366=CIRCLE('',#1019,0.5);
#367=CIRCLE('',#1021,0.5);
#368=CIRCLE('',#1022,15.);
#369=CIRCLE('',#1026,0.5);
#370=CIRCLE('',#1027,0.5);
#371=CIRCLE('',#1028,0.5);
#372=CIRCLE('',#1031,0.5);
#373=CIRCLE('',#1033,0.499999999999999);
#374=CIRCLE('',#1034,15.);
#375=CIRCLE('',#1036,0.500000000000003);
#376=CIRCLE('',#1037,0.499999999999998);
#377=CIRCLE('',#1038,0.5);
#378=CIRCLE('',#1041,0.500000000000004);
#379=CIRCLE('',#1043,0.499999999999998);
#380=CIRCLE('',#1044,15.);
#381=CIRCLE('',#1047,0.5);
#382=CIRCLE('',#1049,15.);
#383=VERTEX_POINT('',#1380);
#384=VERTEX_POINT('',#1381);
#385=VERTEX_POINT('',#1383);
#386=VERTEX_POINT('',#1385);
#387=VERTEX_POINT('',#1387);
#388=VERTEX_POINT('',#1389);
#389=VERTEX_POINT('',#1391);
#390=VERTEX_POINT('',#1393);
#391=VERTEX_POINT('',#1395);
#392=VERTEX_POINT('',#1399);
#393=VERTEX_POINT('',#1401);
#394=VERTEX_POINT('',#1403);
#395=VERTEX_POINT('',#1405);
#396=VERTEX_POINT('',#1407);
#397=VERTEX_POINT('',#1409);
#398=VERTEX_POINT('',#1411);
#399=VERTEX_POINT('',#1413);
#400=VERTEX_POINT('',#1415);
#401=VERTEX_POINT('',#1418);
#402=VERTEX_POINT('',#1419);
#403=VERTEX_POINT('',#1421);
#404=VERTEX_POINT('',#1423);
#405=VERTEX_POINT('',#1427);
#406=VERTEX_POINT('',#1429);
#407=VERTEX_POINT('',#1431);
#408=VERTEX_POINT('',#1433);
#409=VERTEX_POINT('',#1437);
#410=VERTEX_POINT('',#1439);
#411=VERTEX_POINT('',#1443);
#412=VERTEX_POINT('',#1447);
#413=VERTEX_POINT('',#1453);
#414=VERTEX_POINT('',#1455);
#415=VERTEX_POINT('',#1459);
#416=VERTEX_POINT('',#1463);
#417=VERTEX_POINT('',#1465);
#418=VERTEX_POINT('',#1469);
#419=VERTEX_POINT('',#1470);
#420=VERTEX_POINT('',#1475);
#421=VERTEX_POINT('',#1484);
#422=VERTEX_POINT('',#1485);
#423=VERTEX_POINT('',#1487);
#424=VERTEX_POINT('',#1489);
#425=VERTEX_POINT('',#1491);
#426=VERTEX_POINT('',#1493);
#427=VERTEX_POINT('',#1497);
#428=VERTEX_POINT('',#1499);
#429=VERTEX_POINT('',#1503);
#430=VERTEX_POINT('',#1504);
#431=VERTEX_POINT('',#1506);
#432=VERTEX_POINT('',#1510);
#433=VERTEX_POINT('',#1514);
#434=VERTEX_POINT('',#1515);
#435=VERTEX_POINT('',#1520);
#436=VERTEX_POINT('',#1524);
#437=VERTEX_POINT('',#1525);
#438=VERTEX_POINT('',#1527);
#439=VERTEX_POINT('',#1531);
#440=VERTEX_POINT('',#1532);
#441=VERTEX_POINT('',#1542);
#442=VERTEX_POINT('',#1543);
#443=VERTEX_POINT('',#1548);
#444=VERTEX_POINT('',#1549);
#445=VERTEX_POINT('',#1556);
#446=VERTEX_POINT('',#1564);
#447=VERTEX_POINT('',#1566);
#448=VERTEX_POINT('',#1573);
#449=VERTEX_POINT('',#1577);
#450=VERTEX_POINT('',#1665);
#451=VERTEX_POINT('',#1667);
#452=VERTEX_POINT('',#1707);
#453=VERTEX_POINT('',#1726);
#454=VERTEX_POINT('',#1732);
#455=EDGE_CURVE('',#383,#384,#324,.T.);
#456=EDGE_CURVE('',#385,#383,#196,.T.);
#457=EDGE_CURVE('',#386,#385,#325,.T.);
#458=EDGE_CURVE('',#387,#386,#197,.T.);
#459=EDGE_CURVE('',#388,#387,#326,.T.);
#460=EDGE_CURVE('',#389,#388,#198,.T.);
#461=EDGE_CURVE('',#390,#389,#199,.T.);
#462=EDGE_CURVE('',#391,#390,#327,.T.);
#463=EDGE_CURVE('',#384,#391,#200,.T.);
#464=EDGE_CURVE('',#392,#391,#328,.T.);
#465=EDGE_CURVE('',#393,#392,#201,.T.);
#466=EDGE_CURVE('',#394,#393,#202,.T.);
#467=EDGE_CURVE('',#395,#394,#203,.T.);
#468=EDGE_CURVE('',#396,#395,#329,.T.);
#469=EDGE_CURVE('',#397,#396,#204,.T.);
#470=EDGE_CURVE('',#398,#397,#205,.T.);
#471=EDGE_CURVE('',#399,#398,#206,.T.);
#472=EDGE_CURVE('',#400,#399,#207,.T.);
#473=EDGE_CURVE('',#384,#400,#208,.T.);
#474=EDGE_CURVE('',#401,#402,#330,.T.);
#475=EDGE_CURVE('',#403,#401,#209,.T.);
#476=EDGE_CURVE('',#404,#403,#331,.T.);
#477=EDGE_CURVE('',#402,#404,#210,.T.);
#478=EDGE_CURVE('',#405,#388,#211,.T.);
#479=EDGE_CURVE('',#406,#405,#212,.T.);
#480=EDGE_CURVE('',#407,#406,#213,.T.);
#481=EDGE_CURVE('',#408,#407,#214,.T.);
#482=EDGE_CURVE('',#389,#408,#215,.T.);
#483=EDGE_CURVE('',#409,#401,#332,.T.);
#484=EDGE_CURVE('',#402,#410,#333,.T.);
#485=EDGE_CURVE('',#410,#409,#334,.T.);
#486=EDGE_CURVE('',#404,#411,#335,.T.);
#487=EDGE_CURVE('',#411,#410,#216,.T.);
#488=EDGE_CURVE('',#403,#412,#336,.T.);
#489=EDGE_CURVE('',#412,#411,#337,.T.);
#490=EDGE_CURVE('',#409,#412,#217,.T.);
#491=EDGE_CURVE('',#409,#413,#218,.T.);
#492=EDGE_CURVE('',#414,#413,#219,.T.);
#493=EDGE_CURVE('',#412,#414,#220,.T.);
#494=EDGE_CURVE('',#410,#415,#221,.T.);
#495=EDGE_CURVE('',#413,#415,#338,.T.);
#496=EDGE_CURVE('',#416,#413,#339,.T.);
#497=EDGE_CURVE('',#415,#417,#340,.T.);
#498=EDGE_CURVE('',#417,#416,#341,.T.);
#499=EDGE_CURVE('',#418,#419,#342,.T.);
#500=EDGE_CURVE('',#419,#417,#222,.T.);
#501=EDGE_CURVE('',#415,#418,#223,.T.);
#502=EDGE_CURVE('',#414,#420,#343,.T.);
#503=EDGE_CURVE('',#420,#419,#344,.T.);
#504=EDGE_CURVE('',#418,#414,#345,.T.);
#505=EDGE_CURVE('',#416,#420,#224,.T.);
#506=EDGE_CURVE('',#411,#418,#225,.T.);
#507=EDGE_CURVE('',#421,#422,#346,.T.);
#508=EDGE_CURVE('',#423,#421,#226,.T.);
#509=EDGE_CURVE('',#424,#423,#347,.T.);
#510=EDGE_CURVE('',#425,#424,#227,.T.);
#511=EDGE_CURVE('',#426,#425,#228,.T.);
#512=EDGE_CURVE('',#422,#426,#229,.T.);
#513=EDGE_CURVE('',#385,#427,#230,.T.);
#514=EDGE_CURVE('',#428,#427,#29,.T.);
#515=EDGE_CURVE('',#428,#386,#231,.T.);
#516=EDGE_CURVE('',#429,#430,#348,.F.);
#517=EDGE_CURVE('',#431,#429,#349,.F.);
#518=EDGE_CURVE('',#430,#431,#350,.F.);
#519=EDGE_CURVE('',#387,#432,#232,.T.);
#520=EDGE_CURVE('',#432,#405,#30,.T.);
#521=EDGE_CURVE('',#433,#434,#351,.F.);
#522=EDGE_CURVE('',#399,#433,#352,.F.);
#523=EDGE_CURVE('',#434,#399,#353,.F.);
#524=EDGE_CURVE('',#433,#435,#233,.T.);
#525=EDGE_CURVE('',#400,#435,#31,.T.);
#526=EDGE_CURVE('',#436,#437,#354,.F.);
#527=EDGE_CURVE('',#438,#436,#355,.F.);
#528=EDGE_CURVE('',#437,#438,#356,.F.);
#529=EDGE_CURVE('',#439,#440,#357,.F.);
#530=EDGE_CURVE('',#398,#439,#358,.F.);
#531=EDGE_CURVE('',#440,#398,#359,.F.);
#532=EDGE_CURVE('',#439,#434,#234,.T.);
#533=EDGE_CURVE('',#406,#440,#235,.T.);
#534=EDGE_CURVE('',#397,#406,#32,.T.);
#535=EDGE_CURVE('',#441,#442,#360,.F.);
#536=EDGE_CURVE('',#393,#441,#361,.F.);
#537=EDGE_CURVE('',#442,#393,#362,.F.);
#538=EDGE_CURVE('',#443,#444,#363,.F.);
#539=EDGE_CURVE('',#394,#443,#364,.F.);
#540=EDGE_CURVE('',#444,#394,#365,.F.);
#541=EDGE_CURVE('',#396,#407,#366,.T.);
#542=EDGE_CURVE('',#395,#445,#367,.T.);
#543=EDGE_CURVE('',#445,#407,#368,.T.);
#544=EDGE_CURVE('',#443,#445,#236,.T.);
#545=EDGE_CURVE('',#441,#444,#237,.T.);
#546=EDGE_CURVE('',#446,#426,#369,.F.);
#547=EDGE_CURVE('',#447,#446,#370,.F.);
#548=EDGE_CURVE('',#426,#447,#371,.F.);
#549=EDGE_CURVE('',#446,#441,#238,.T.);
#550=EDGE_CURVE('',#442,#447,#239,.T.);
#551=EDGE_CURVE('',#448,#422,#372,.T.);
#552=EDGE_CURVE('',#447,#448,#240,.T.);
#553=EDGE_CURVE('',#449,#421,#373,.T.);
#554=EDGE_CURVE('',#448,#449,#374,.T.);
#555=EDGE_CURVE('',#449,#389,#15,.T.);
#556=EDGE_CURVE('',#389,#421,#16,.T.);
#557=EDGE_CURVE('',#450,#425,#375,.F.);
#558=EDGE_CURVE('',#451,#450,#376,.F.);
#559=EDGE_CURVE('',#425,#451,#377,.F.);
#560=EDGE_CURVE('',#450,#443,#241,.T.);
#561=EDGE_CURVE('',#444,#451,#242,.T.);
#562=EDGE_CURVE('',#451,#446,#243,.T.);
#563=EDGE_CURVE('',#452,#423,#378,.T.);
#564=EDGE_CURVE('',#423,#408,#17,.T.);
#565=EDGE_CURVE('',#408,#452,#18,.T.);
#566=EDGE_CURVE('',#453,#424,#379,.T.);
#567=EDGE_CURVE('',#452,#453,#380,.T.);
#568=EDGE_CURVE('',#453,#450,#244,.T.);
#569=EDGE_CURVE('',#392,#454,#381,.T.);
#570=EDGE_CURVE('',#454,#442,#245,.T.);
#571=EDGE_CURVE('',#390,#454,#382,.T.);
#572=EDGE_CURVE('',#436,#439,#246,.T.);
#573=EDGE_CURVE('',#440,#438,#247,.T.);
#574=EDGE_CURVE('',#432,#437,#248,.T.);
#575=EDGE_CURVE('',#438,#405,#249,.T.);
#576=EDGE_CURVE('',#437,#430,#250,.T.);
#577=EDGE_CURVE('',#431,#436,#251,.T.);
#578=EDGE_CURVE('',#429,#433,#252,.T.);
#579=EDGE_CURVE('',#434,#431,#253,.T.);
#580=EDGE_CURVE('',#427,#429,#254,.T.);
#581=EDGE_CURVE('',#430,#428,#255,.T.);
#582=EDGE_CURVE('',#435,#383,#256,.T.);
#583=EDGE_CURVE('',#445,#453,#257,.T.);
#584=EDGE_CURVE('',#435,#427,#258,.T.);
#585=EDGE_CURVE('',#448,#454,#259,.T.);
#586=ORIENTED_EDGE('',*,*,#455,.F.);
#587=ORIENTED_EDGE('',*,*,#456,.F.);
#588=ORIENTED_EDGE('',*,*,#457,.F.);
#589=ORIENTED_EDGE('',*,*,#458,.F.);
#590=ORIENTED_EDGE('',*,*,#459,.F.);
#591=ORIENTED_EDGE('',*,*,#460,.F.);
#592=ORIENTED_EDGE('',*,*,#461,.F.);
#593=ORIENTED_EDGE('',*,*,#462,.F.);
#594=ORIENTED_EDGE('',*,*,#463,.F.);
#595=ORIENTED_EDGE('',*,*,#463,.T.);
#596=ORIENTED_EDGE('',*,*,#464,.F.);
#597=ORIENTED_EDGE('',*,*,#465,.F.);
#598=ORIENTED_EDGE('',*,*,#466,.F.);
#599=ORIENTED_EDGE('',*,*,#467,.F.);
#600=ORIENTED_EDGE('',*,*,#468,.F.);
#601=ORIENTED_EDGE('',*,*,#469,.F.);
#602=ORIENTED_EDGE('',*,*,#470,.F.);
#603=ORIENTED_EDGE('',*,*,#471,.F.);
#604=ORIENTED_EDGE('',*,*,#472,.F.);
#605=ORIENTED_EDGE('',*,*,#473,.F.);
#606=ORIENTED_EDGE('',*,*,#474,.F.);
#607=ORIENTED_EDGE('',*,*,#475,.F.);
#608=ORIENTED_EDGE('',*,*,#476,.F.);
#609=ORIENTED_EDGE('',*,*,#477,.F.);
#610=ORIENTED_EDGE('',*,*,#460,.T.);
#611=ORIENTED_EDGE('',*,*,#478,.F.);
#612=ORIENTED_EDGE('',*,*,#479,.F.);
#613=ORIENTED_EDGE('',*,*,#480,.F.);
#614=ORIENTED_EDGE('',*,*,#481,.F.);
#615=ORIENTED_EDGE('',*,*,#482,.F.);
#616=ORIENTED_EDGE('',*,*,#483,.T.);
#617=ORIENTED_EDGE('',*,*,#474,.T.);
#618=ORIENTED_EDGE('',*,*,#484,.T.);
#619=ORIENTED_EDGE('',*,*,#485,.T.);
#620=ORIENTED_EDGE('',*,*,#486,.T.);
#621=ORIENTED_EDGE('',*,*,#487,.T.);
#622=ORIENTED_EDGE('',*,*,#484,.F.);
#623=ORIENTED_EDGE('',*,*,#477,.T.);
#624=ORIENTED_EDGE('',*,*,#488,.T.);
#625=ORIENTED_EDGE('',*,*,#489,.T.);
#626=ORIENTED_EDGE('',*,*,#486,.F.);
#627=ORIENTED_EDGE('',*,*,#476,.T.);
#628=ORIENTED_EDGE('',*,*,#483,.F.);
#629=ORIENTED_EDGE('',*,*,#490,.T.);
#630=ORIENTED_EDGE('',*,*,#488,.F.);
#631=ORIENTED_EDGE('',*,*,#475,.T.);
#632=ORIENTED_EDGE('',*,*,#490,.F.);
#633=ORIENTED_EDGE('',*,*,#491,.T.);
#634=ORIENTED_EDGE('',*,*,#492,.F.);
#635=ORIENTED_EDGE('',*,*,#493,.F.);
#636=ORIENTED_EDGE('',*,*,#485,.F.);
#637=ORIENTED_EDGE('',*,*,#494,.T.);
#638=ORIENTED_EDGE('',*,*,#495,.F.);
#639=ORIENTED_EDGE('',*,*,#491,.F.);
#640=ORIENTED_EDGE('',*,*,#496,.T.);
#641=ORIENTED_EDGE('',*,*,#495,.T.);
#642=ORIENTED_EDGE('',*,*,#497,.T.);
#643=ORIENTED_EDGE('',*,*,#498,.T.);
#644=ORIENTED_EDGE('',*,*,#499,.T.);
#645=ORIENTED_EDGE('',*,*,#500,.T.);
#646=ORIENTED_EDGE('',*,*,#497,.F.);
#647=ORIENTED_EDGE('',*,*,#501,.T.);
#648=ORIENTED_EDGE('',*,*,#502,.T.);
#649=ORIENTED_EDGE('',*,*,#503,.T.);
#650=ORIENTED_EDGE('',*,*,#499,.F.);
#651=ORIENTED_EDGE('',*,*,#504,.T.);
#652=ORIENTED_EDGE('',*,*,#496,.F.);
#653=ORIENTED_EDGE('',*,*,#505,.T.);
#654=ORIENTED_EDGE('',*,*,#502,.F.);
#655=ORIENTED_EDGE('',*,*,#492,.T.);
#656=ORIENTED_EDGE('',*,*,#487,.F.);
#657=ORIENTED_EDGE('',*,*,#506,.T.);
#658=ORIENTED_EDGE('',*,*,#501,.F.);
#659=ORIENTED_EDGE('',*,*,#494,.F.);
#660=ORIENTED_EDGE('',*,*,#507,.F.);
#661=ORIENTED_EDGE('',*,*,#508,.F.);
#662=ORIENTED_EDGE('',*,*,#509,.F.);
#663=ORIENTED_EDGE('',*,*,#510,.F.);
#664=ORIENTED_EDGE('',*,*,#511,.F.);
#665=ORIENTED_EDGE('',*,*,#512,.F.);
#666=ORIENTED_EDGE('',*,*,#498,.F.);
#667=ORIENTED_EDGE('',*,*,#500,.F.);
#668=ORIENTED_EDGE('',*,*,#503,.F.);
#669=ORIENTED_EDGE('',*,*,#505,.F.);
#670=ORIENTED_EDGE('',*,*,#457,.T.);
#671=ORIENTED_EDGE('',*,*,#513,.T.);
#672=ORIENTED_EDGE('',*,*,#514,.F.);
#673=ORIENTED_EDGE('',*,*,#515,.T.);
#674=ORIENTED_EDGE('',*,*,#516,.F.);
#675=ORIENTED_EDGE('',*,*,#517,.F.);
#676=ORIENTED_EDGE('',*,*,#518,.F.);
#677=ORIENTED_EDGE('',*,*,#459,.T.);
#678=ORIENTED_EDGE('',*,*,#519,.T.);
#679=ORIENTED_EDGE('',*,*,#520,.T.);
#680=ORIENTED_EDGE('',*,*,#478,.T.);
#681=ORIENTED_EDGE('',*,*,#521,.F.);
#682=ORIENTED_EDGE('',*,*,#522,.F.);
#683=ORIENTED_EDGE('',*,*,#523,.F.);
#684=ORIENTED_EDGE('',*,*,#472,.T.);
#685=ORIENTED_EDGE('',*,*,#522,.T.);
#686=ORIENTED_EDGE('',*,*,#524,.T.);
#687=ORIENTED_EDGE('',*,*,#525,.F.);
#688=ORIENTED_EDGE('',*,*,#526,.F.);
#689=ORIENTED_EDGE('',*,*,#527,.F.);
#690=ORIENTED_EDGE('',*,*,#528,.F.);
#691=ORIENTED_EDGE('',*,*,#529,.F.);
#692=ORIENTED_EDGE('',*,*,#530,.F.);
#693=ORIENTED_EDGE('',*,*,#531,.F.);
#694=ORIENTED_EDGE('',*,*,#530,.T.);
#695=ORIENTED_EDGE('',*,*,#532,.T.);
#696=ORIENTED_EDGE('',*,*,#523,.T.);
#697=ORIENTED_EDGE('',*,*,#471,.T.);
#698=ORIENTED_EDGE('',*,*,#533,.T.);
#699=ORIENTED_EDGE('',*,*,#531,.T.);
#700=ORIENTED_EDGE('',*,*,#470,.T.);
#701=ORIENTED_EDGE('',*,*,#534,.T.);
#702=ORIENTED_EDGE('',*,*,#535,.F.);
#703=ORIENTED_EDGE('',*,*,#536,.F.);
#704=ORIENTED_EDGE('',*,*,#537,.F.);
#705=ORIENTED_EDGE('',*,*,#538,.F.);
#706=ORIENTED_EDGE('',*,*,#539,.F.);
#707=ORIENTED_EDGE('',*,*,#540,.F.);
#708=ORIENTED_EDGE('',*,*,#469,.T.);
#709=ORIENTED_EDGE('',*,*,#541,.T.);
#710=ORIENTED_EDGE('',*,*,#480,.T.);
#711=ORIENTED_EDGE('',*,*,#534,.F.);
#712=ORIENTED_EDGE('',*,*,#542,.T.);
#713=ORIENTED_EDGE('',*,*,#543,.T.);
#714=ORIENTED_EDGE('',*,*,#541,.F.);
#715=ORIENTED_EDGE('',*,*,#468,.T.);
#716=ORIENTED_EDGE('',*,*,#539,.T.);
#717=ORIENTED_EDGE('',*,*,#544,.T.);
#718=ORIENTED_EDGE('',*,*,#542,.F.);
#719=ORIENTED_EDGE('',*,*,#467,.T.);
#720=ORIENTED_EDGE('',*,*,#536,.T.);
#721=ORIENTED_EDGE('',*,*,#545,.T.);
#722=ORIENTED_EDGE('',*,*,#540,.T.);
#723=ORIENTED_EDGE('',*,*,#466,.T.);
#724=ORIENTED_EDGE('',*,*,#546,.F.);
#725=ORIENTED_EDGE('',*,*,#547,.F.);
#726=ORIENTED_EDGE('',*,*,#548,.F.);
#727=ORIENTED_EDGE('',*,*,#547,.T.);
#728=ORIENTED_EDGE('',*,*,#549,.T.);
#729=ORIENTED_EDGE('',*,*,#535,.T.);
#730=ORIENTED_EDGE('',*,*,#550,.T.);
#731=ORIENTED_EDGE('',*,*,#551,.T.);
#732=ORIENTED_EDGE('',*,*,#512,.T.);
#733=ORIENTED_EDGE('',*,*,#548,.T.);
#734=ORIENTED_EDGE('',*,*,#552,.T.);
#735=ORIENTED_EDGE('',*,*,#553,.T.);
#736=ORIENTED_EDGE('',*,*,#507,.T.);
#737=ORIENTED_EDGE('',*,*,#551,.F.);
#738=ORIENTED_EDGE('',*,*,#554,.T.);
#739=ORIENTED_EDGE('',*,*,#555,.T.);
#740=ORIENTED_EDGE('',*,*,#556,.T.);
#741=ORIENTED_EDGE('',*,*,#553,.F.);
#742=ORIENTED_EDGE('',*,*,#557,.F.);
#743=ORIENTED_EDGE('',*,*,#558,.F.);
#744=ORIENTED_EDGE('',*,*,#559,.F.);
#745=ORIENTED_EDGE('',*,*,#558,.T.);
#746=ORIENTED_EDGE('',*,*,#560,.T.);
#747=ORIENTED_EDGE('',*,*,#538,.T.);
#748=ORIENTED_EDGE('',*,*,#561,.T.);
#749=ORIENTED_EDGE('',*,*,#546,.T.);
#750=ORIENTED_EDGE('',*,*,#511,.T.);
#751=ORIENTED_EDGE('',*,*,#559,.T.);
#752=ORIENTED_EDGE('',*,*,#562,.T.);
#753=ORIENTED_EDGE('',*,*,#563,.T.);
#754=ORIENTED_EDGE('',*,*,#564,.T.);
#755=ORIENTED_EDGE('',*,*,#565,.T.);
#756=ORIENTED_EDGE('',*,*,#566,.T.);
#757=ORIENTED_EDGE('',*,*,#509,.T.);
#758=ORIENTED_EDGE('',*,*,#563,.F.);
#759=ORIENTED_EDGE('',*,*,#567,.T.);
#760=ORIENTED_EDGE('',*,*,#557,.T.);
#761=ORIENTED_EDGE('',*,*,#510,.T.);
#762=ORIENTED_EDGE('',*,*,#566,.F.);
#763=ORIENTED_EDGE('',*,*,#568,.T.);
#764=ORIENTED_EDGE('',*,*,#569,.T.);
#765=ORIENTED_EDGE('',*,*,#570,.T.);
#766=ORIENTED_EDGE('',*,*,#537,.T.);
#767=ORIENTED_EDGE('',*,*,#465,.T.);
#768=ORIENTED_EDGE('',*,*,#462,.T.);
#769=ORIENTED_EDGE('',*,*,#571,.T.);
#770=ORIENTED_EDGE('',*,*,#569,.F.);
#771=ORIENTED_EDGE('',*,*,#464,.T.);
#772=ORIENTED_EDGE('',*,*,#527,.T.);
#773=ORIENTED_EDGE('',*,*,#572,.T.);
#774=ORIENTED_EDGE('',*,*,#529,.T.);
#775=ORIENTED_EDGE('',*,*,#573,.T.);
#776=ORIENTED_EDGE('',*,*,#574,.T.);
#777=ORIENTED_EDGE('',*,*,#528,.T.);
#778=ORIENTED_EDGE('',*,*,#575,.T.);
#779=ORIENTED_EDGE('',*,*,#520,.F.);
#780=ORIENTED_EDGE('',*,*,#526,.T.);
#781=ORIENTED_EDGE('',*,*,#576,.T.);
#782=ORIENTED_EDGE('',*,*,#518,.T.);
#783=ORIENTED_EDGE('',*,*,#577,.T.);
#784=ORIENTED_EDGE('',*,*,#517,.T.);
#785=ORIENTED_EDGE('',*,*,#578,.T.);
#786=ORIENTED_EDGE('',*,*,#521,.T.);
#787=ORIENTED_EDGE('',*,*,#579,.T.);
#788=ORIENTED_EDGE('',*,*,#580,.T.);
#789=ORIENTED_EDGE('',*,*,#516,.T.);
#790=ORIENTED_EDGE('',*,*,#581,.T.);
#791=ORIENTED_EDGE('',*,*,#514,.T.);
#792=ORIENTED_EDGE('',*,*,#455,.T.);
#793=ORIENTED_EDGE('',*,*,#473,.T.);
#794=ORIENTED_EDGE('',*,*,#525,.T.);
#795=ORIENTED_EDGE('',*,*,#582,.T.);
#796=ORIENTED_EDGE('',*,*,#575,.F.);
#797=ORIENTED_EDGE('',*,*,#573,.F.);
#798=ORIENTED_EDGE('',*,*,#533,.F.);
#799=ORIENTED_EDGE('',*,*,#479,.T.);
#800=ORIENTED_EDGE('',*,*,#544,.F.);
#801=ORIENTED_EDGE('',*,*,#560,.F.);
#802=ORIENTED_EDGE('',*,*,#568,.F.);
#803=ORIENTED_EDGE('',*,*,#583,.F.);
#804=ORIENTED_EDGE('',*,*,#543,.F.);
#805=ORIENTED_EDGE('',*,*,#583,.T.);
#806=ORIENTED_EDGE('',*,*,#567,.F.);
#807=ORIENTED_EDGE('',*,*,#565,.F.);
#808=ORIENTED_EDGE('',*,*,#481,.T.);
#809=ORIENTED_EDGE('',*,*,#456,.T.);
#810=ORIENTED_EDGE('',*,*,#582,.F.);
#811=ORIENTED_EDGE('',*,*,#584,.T.);
#812=ORIENTED_EDGE('',*,*,#513,.F.);
#813=ORIENTED_EDGE('',*,*,#532,.F.);
#814=ORIENTED_EDGE('',*,*,#572,.F.);
#815=ORIENTED_EDGE('',*,*,#577,.F.);
#816=ORIENTED_EDGE('',*,*,#579,.F.);
#817=ORIENTED_EDGE('',*,*,#545,.F.);
#818=ORIENTED_EDGE('',*,*,#549,.F.);
#819=ORIENTED_EDGE('',*,*,#562,.F.);
#820=ORIENTED_EDGE('',*,*,#561,.F.);
#821=ORIENTED_EDGE('',*,*,#458,.T.);
#822=ORIENTED_EDGE('',*,*,#515,.F.);
#823=ORIENTED_EDGE('',*,*,#581,.F.);
#824=ORIENTED_EDGE('',*,*,#576,.F.);
#825=ORIENTED_EDGE('',*,*,#574,.F.);
#826=ORIENTED_EDGE('',*,*,#519,.F.);
#827=ORIENTED_EDGE('',*,*,#556,.F.);
#828=ORIENTED_EDGE('',*,*,#482,.T.);
#829=ORIENTED_EDGE('',*,*,#564,.F.);
#830=ORIENTED_EDGE('',*,*,#508,.T.);
#831=ORIENTED_EDGE('',*,*,#571,.F.);
#832=ORIENTED_EDGE('',*,*,#461,.T.);
#833=ORIENTED_EDGE('',*,*,#555,.F.);
#834=ORIENTED_EDGE('',*,*,#554,.F.);
#835=ORIENTED_EDGE('',*,*,#585,.T.);
#836=ORIENTED_EDGE('',*,*,#570,.F.);
#837=ORIENTED_EDGE('',*,*,#585,.F.);
#838=ORIENTED_EDGE('',*,*,#552,.F.);
#839=ORIENTED_EDGE('',*,*,#550,.F.);
#840=ORIENTED_EDGE('',*,*,#580,.F.);
#841=ORIENTED_EDGE('',*,*,#584,.F.);
#842=ORIENTED_EDGE('',*,*,#524,.F.);
#843=ORIENTED_EDGE('',*,*,#578,.F.);
#844=ORIENTED_EDGE('',*,*,#489,.F.);
#845=ORIENTED_EDGE('',*,*,#493,.T.);
#846=ORIENTED_EDGE('',*,*,#504,.F.);
#847=ORIENTED_EDGE('',*,*,#506,.F.);
#848=PLANE('',#946);
#849=PLANE('',#951);
#850=PLANE('',#956);
#851=PLANE('',#967);
#852=PLANE('',#981);
#853=PLANE('',#982);
#854=PLANE('',#1056);
#855=PLANE('',#1057);
#856=PLANE('',#1059);
#857=PLANE('',#1060);
#858=PLANE('',#1061);
#859=PLANE('',#1062);
#860=PLANE('',#1065);
#861=PLANE('',#1066);
#862=ADVANCED_FACE('',(#72),#848,.F.);
#863=ADVANCED_FACE('',(#73,#70),#849,.F.);
#864=ADVANCED_FACE('',(#74),#850,.T.);
#865=ADVANCED_FACE('',(#75),#62,.T.);
#866=ADVANCED_FACE('',(#76),#33,.T.);
#867=ADVANCED_FACE('',(#77),#63,.T.);
#868=ADVANCED_FACE('',(#78),#34,.T.);
#869=ADVANCED_FACE('',(#79),#851,.T.);
#870=ADVANCED_FACE('',(#80),#35,.F.);
#871=ADVANCED_FACE('',(#81),#64,.T.);
#872=ADVANCED_FACE('',(#82),#36,.T.);
#873=ADVANCED_FACE('',(#83),#65,.T.);
#874=ADVANCED_FACE('',(#84),#37,.T.);
#875=ADVANCED_FACE('',(#85),#852,.T.);
#876=ADVANCED_FACE('',(#86,#71),#853,.T.);
#877=ADVANCED_FACE('',(#87),#38,.T.);
#878=ADVANCED_FACE('',(#88),#21,.T.);
#879=ADVANCED_FACE('',(#89),#39,.T.);
#880=ADVANCED_FACE('',(#90),#22,.T.);
#881=ADVANCED_FACE('',(#91),#40,.T.);
#882=ADVANCED_FACE('',(#92),#23,.T.);
#883=ADVANCED_FACE('',(#93),#24,.T.);
#884=ADVANCED_FACE('',(#94),#41,.T.);
#885=ADVANCED_FACE('',(#95),#42,.T.);
#886=ADVANCED_FACE('',(#96),#25,.T.);
#887=ADVANCED_FACE('',(#97),#26,.T.);
#888=ADVANCED_FACE('',(#98),#43,.T.);
#889=ADVANCED_FACE('',(#99),#66,.T.);
#890=ADVANCED_FACE('',(#100),#44,.T.);
#891=ADVANCED_FACE('',(#101),#45,.T.);
#892=ADVANCED_FACE('',(#102),#27,.T.);
#893=ADVANCED_FACE('',(#103),#46,.T.);
#894=ADVANCED_FACE('',(#104),#47,.T.);
#895=ADVANCED_FACE('',(#105),#67,.T.);
#896=ADVANCED_FACE('',(#106),#19,.F.);
#897=ADVANCED_FACE('',(#107),#28,.T.);
#898=ADVANCED_FACE('',(#108),#48,.T.);
#899=ADVANCED_FACE('',(#109),#49,.T.);
#900=ADVANCED_FACE('',(#110),#20,.F.);
#901=ADVANCED_FACE('',(#111),#68,.T.);
#902=ADVANCED_FACE('',(#112),#50,.T.);
#903=ADVANCED_FACE('',(#113),#51,.T.);
#904=ADVANCED_FACE('',(#114),#69,.T.);
#905=ADVANCED_FACE('',(#115),#52,.T.);
#906=ADVANCED_FACE('',(#116),#53,.T.);
#907=ADVANCED_FACE('',(#117),#54,.T.);
#908=ADVANCED_FACE('',(#118),#55,.T.);
#909=ADVANCED_FACE('',(#119),#56,.T.);
#910=ADVANCED_FACE('',(#120),#57,.T.);
#911=ADVANCED_FACE('',(#121),#854,.T.);
#912=ADVANCED_FACE('',(#122),#855,.T.);
#913=ADVANCED_FACE('',(#123),#58,.F.);
#914=ADVANCED_FACE('',(#124),#856,.T.);
#915=ADVANCED_FACE('',(#125),#857,.T.);
#916=ADVANCED_FACE('',(#126),#858,.T.);
#917=ADVANCED_FACE('',(#127),#859,.T.);
#918=ADVANCED_FACE('',(#128),#59,.F.);
#919=ADVANCED_FACE('',(#129),#60,.F.);
#920=ADVANCED_FACE('',(#130),#860,.T.);
#921=ADVANCED_FACE('',(#131),#861,.T.);
#922=ADVANCED_FACE('',(#132),#61,.F.);
#923=CLOSED_SHELL('',(#862,#863,#864,#865,#866,#867,#868,#869,#870,#871,
#872,#873,#874,#875,#876,#877,#878,#879,#880,#881,#882,#883,#884,#885,#886,
#887,#888,#889,#890,#891,#892,#893,#894,#895,#896,#897,#898,#899,#900,#901,
#902,#903,#904,#905,#906,#907,#908,#909,#910,#911,#912,#913,#914,#915,#916,
#917,#918,#919,#920,#921,#922));
#924=DERIVED_UNIT_ELEMENT(#927,1.);
#925=DERIVED_UNIT_ELEMENT(#1774,-3.);
#926=DIMENSIONAL_EXPONENTS(0.,1.,0.,0.,0.,0.,0.);
#927=(
CONVERSION_BASED_UNIT('gram',#929)
MASS_UNIT()
NAMED_UNIT(#926)
);
#928=(
MASS_UNIT()
NAMED_UNIT(*)
SI_UNIT(.KILO.,.GRAM.)
);
#929=MASS_MEASURE_WITH_UNIT(MASS_MEASURE(0.001),#928);
#930=DERIVED_UNIT((#924,#925));
#931=MEASURE_REPRESENTATION_ITEM('density measure',
POSITIVE_RATIO_MEASURE(1.541),#930);
#932=PROPERTY_DEFINITION_REPRESENTATION(#937,#934);
#933=PROPERTY_DEFINITION_REPRESENTATION(#938,#935);
#934=REPRESENTATION('material name',(#936),#1771);
#935=REPRESENTATION('density',(#931),#1771);
#936=DESCRIPTIVE_REPRESENTATION_ITEM('PET Plastic','PET Plastic');
#937=PROPERTY_DEFINITION('material property','material name',#1781);
#938=PROPERTY_DEFINITION('material property','density of part',#1781);
#939=DATE_TIME_ROLE('creation_date');
#940=APPLIED_DATE_AND_TIME_ASSIGNMENT(#941,#939,(#1781));
#941=DATE_AND_TIME(#942,#943);
#942=CALENDAR_DATE(2026,25,6);
#943=LOCAL_TIME(0,0,0.,#944);
#944=COORDINATED_UNIVERSAL_TIME_OFFSET(0,0,.BEHIND.);
#945=AXIS2_PLACEMENT_3D('',#1378,#1068,#1069);
#946=AXIS2_PLACEMENT_3D('',#1379,#1070,#1071);
#947=AXIS2_PLACEMENT_3D('',#1382,#1072,#1073);
#948=AXIS2_PLACEMENT_3D('',#1386,#1075,#1076);
#949=AXIS2_PLACEMENT_3D('',#1390,#1078,#1079);
#950=AXIS2_PLACEMENT_3D('',#1396,#1082,#1083);
#951=AXIS2_PLACEMENT_3D('',#1398,#1085,#1086);
#952=AXIS2_PLACEMENT_3D('',#1400,#1087,#1088);
#953=AXIS2_PLACEMENT_3D('',#1408,#1092,#1093);
#954=AXIS2_PLACEMENT_3D('',#1420,#1099,#1100);
#955=AXIS2_PLACEMENT_3D('',#1424,#1102,#1103);
#956=AXIS2_PLACEMENT_3D('',#1426,#1105,#1106);
#957=AXIS2_PLACEMENT_3D('',#1436,#1112,#1113);
#958=AXIS2_PLACEMENT_3D('',#1438,#1114,#1115);
#959=AXIS2_PLACEMENT_3D('',#1440,#1116,#1117);
#960=AXIS2_PLACEMENT_3D('',#1441,#1118,#1119);
#961=AXIS2_PLACEMENT_3D('',#1442,#1120,#1121);
#962=AXIS2_PLACEMENT_3D('',#1444,#1122,#1123);
#963=AXIS2_PLACEMENT_3D('',#1446,#1125,#1126);
#964=AXIS2_PLACEMENT_3D('',#1448,#1127,#1128);
#965=AXIS2_PLACEMENT_3D('',#1449,#1129,#1130);
#966=AXIS2_PLACEMENT_3D('',#1450,#1131,#1132);
#967=AXIS2_PLACEMENT_3D('',#1452,#1134,#1135);
#968=AXIS2_PLACEMENT_3D('',#1458,#1139,#1140);
#969=AXIS2_PLACEMENT_3D('',#1461,#1142,#1143);
#970=AXIS2_PLACEMENT_3D('',#1462,#1144,#1145);
#971=AXIS2_PLACEMENT_3D('',#1464,#1146,#1147);
#972=AXIS2_PLACEMENT_3D('',#1466,#1148,#1149);
#973=AXIS2_PLACEMENT_3D('',#1467,#1150,#1151);
#974=AXIS2_PLACEMENT_3D('',#1468,#1152,#1153);
#975=AXIS2_PLACEMENT_3D('',#1471,#1154,#1155);
#976=AXIS2_PLACEMENT_3D('',#1474,#1158,#1159);
#977=AXIS2_PLACEMENT_3D('',#1476,#1160,#1161);
#978=AXIS2_PLACEMENT_3D('',#1477,#1162,#1163);
#979=AXIS2_PLACEMENT_3D('',#1478,#1164,#1165);
#980=AXIS2_PLACEMENT_3D('',#1479,#1166,#1167);
#981=AXIS2_PLACEMENT_3D('',#1481,#1169,#1170);
#982=AXIS2_PLACEMENT_3D('',#1483,#1172,#1173);
#983=AXIS2_PLACEMENT_3D('',#1486,#1174,#1175);
#984=AXIS2_PLACEMENT_3D('',#1490,#1177,#1178);
#985=AXIS2_PLACEMENT_3D('',#1496,#1182,#1183);
#986=AXIS2_PLACEMENT_3D('',#1500,#1185,#1186);
#987=AXIS2_PLACEMENT_3D('',#1502,#1188,#1189);
#988=AXIS2_PLACEMENT_3D('',#1505,#1190,#1191);
#989=AXIS2_PLACEMENT_3D('',#1507,#1192,#1193);
#990=AXIS2_PLACEMENT_3D('',#1508,#1194,#1195);
#991=AXIS2_PLACEMENT_3D('',#1509,#1196,#1197);
#992=AXIS2_PLACEMENT_3D('',#1512,#1199,#1200);
#993=AXIS2_PLACEMENT_3D('',#1513,#1201,#1202);
#994=AXIS2_PLACEMENT_3D('',#1516,#1203,#1204);
#995=AXIS2_PLACEMENT_3D('',#1517,#1205,#1206);
#996=AXIS2_PLACEMENT_3D('',#1518,#1207,#1208);
#997=AXIS2_PLACEMENT_3D('',#1519,#1209,#1210);
#998=AXIS2_PLACEMENT_3D('',#1522,#1212,#1213);
#999=AXIS2_PLACEMENT_3D('',#1523,#1214,#1215);
#1000=AXIS2_PLACEMENT_3D('',#1526,#1216,#1217);
#1001=AXIS2_PLACEMENT_3D('',#1528,#1218,#1219);
#1002=AXIS2_PLACEMENT_3D('',#1529,#1220,#1221);
#1003=AXIS2_PLACEMENT_3D('',#1530,#1222,#1223);
#1004=AXIS2_PLACEMENT_3D('',#1533,#1224,#1225);
#1005=AXIS2_PLACEMENT_3D('',#1534,#1226,#1227);
#1006=AXIS2_PLACEMENT_3D('',#1535,#1228,#1229);
#1007=AXIS2_PLACEMENT_3D('',#1536,#1230,#1231);
#1008=AXIS2_PLACEMENT_3D('',#1538,#1233,#1234);
#1009=AXIS2_PLACEMENT_3D('',#1540,#1236,#1237);
#1010=AXIS2_PLACEMENT_3D('',#1541,#1238,#1239);
#1011=AXIS2_PLACEMENT_3D('',#1544,#1240,#1241);
#1012=AXIS2_PLACEMENT_3D('',#1545,#1242,#1243);
#1013=AXIS2_PLACEMENT_3D('',#1546,#1244,#1245);
#1014=AXIS2_PLACEMENT_3D('',#1547,#1246,#1247);
#1015=AXIS2_PLACEMENT_3D('',#1550,#1248,#1249);
#1016=AXIS2_PLACEMENT_3D('',#1551,#1250,#1251);
#1017=AXIS2_PLACEMENT_3D('',#1552,#1252,#1253);
#1018=AXIS2_PLACEMENT_3D('',#1553,#1254,#1255);
#1019=AXIS2_PLACEMENT_3D('',#1554,#1256,#1257);
#1020=AXIS2_PLACEMENT_3D('',#1555,#1258,#1259);
#1021=AXIS2_PLACEMENT_3D('',#1557,#1260,#1261);
#1022=AXIS2_PLACEMENT_3D('',#1558,#1262,#1263);
#1023=AXIS2_PLACEMENT_3D('',#1559,#1264,#1265);
#1024=AXIS2_PLACEMENT_3D('',#1561,#1267,#1268);
#1025=AXIS2_PLACEMENT_3D('',#1563,#1270,#1271);
#1026=AXIS2_PLACEMENT_3D('',#1565,#1272,#1273);
#1027=AXIS2_PLACEMENT_3D('',#1567,#1274,#1275);
#1028=AXIS2_PLACEMENT_3D('',#1568,#1276,#1277);
#1029=AXIS2_PLACEMENT_3D('',#1569,#1278,#1279);
#1030=AXIS2_PLACEMENT_3D('',#1572,#1282,#1283);
#1031=AXIS2_PLACEMENT_3D('',#1574,#1284,#1285);
#1032=AXIS2_PLACEMENT_3D('',#1576,#1287,#1288);
#1033=AXIS2_PLACEMENT_3D('',#1578,#1289,#1290);
#1034=AXIS2_PLACEMENT_3D('',#1579,#1291,#1292);
#1035=AXIS2_PLACEMENT_3D('',#1664,#1293,#1294);
#1036=AXIS2_PLACEMENT_3D('',#1666,#1295,#1296);
#1037=AXIS2_PLACEMENT_3D('',#1668,#1297,#1298);
#1038=AXIS2_PLACEMENT_3D('',#1669,#1299,#1300);
#1039=AXIS2_PLACEMENT_3D('',#1670,#1301,#1302);
#1040=AXIS2_PLACEMENT_3D('',#1673,#1305,#1306);
#1041=AXIS2_PLACEMENT_3D('',#1708,#1308,#1309);
#1042=AXIS2_PLACEMENT_3D('',#1725,#1310,#1311);
#1043=AXIS2_PLACEMENT_3D('',#1727,#1312,#1313);
#1044=AXIS2_PLACEMENT_3D('',#1728,#1314,#1315);
#1045=AXIS2_PLACEMENT_3D('',#1729,#1316,#1317);
#1046=AXIS2_PLACEMENT_3D('',#1731,#1319,#1320);
#1047=AXIS2_PLACEMENT_3D('',#1733,#1321,#1322);
#1048=AXIS2_PLACEMENT_3D('',#1735,#1324,#1325);
#1049=AXIS2_PLACEMENT_3D('',#1736,#1326,#1327);
#1050=AXIS2_PLACEMENT_3D('',#1737,#1328,#1329);
#1051=AXIS2_PLACEMENT_3D('',#1740,#1332,#1333);
#1052=AXIS2_PLACEMENT_3D('',#1743,#1336,#1337);
#1053=AXIS2_PLACEMENT_3D('',#1746,#1340,#1341);
#1054=AXIS2_PLACEMENT_3D('',#1749,#1344,#1345);
#1055=AXIS2_PLACEMENT_3D('',#1752,#1348,#1349);
#1056=AXIS2_PLACEMENT_3D('',#1754,#1351,#1352);
#1057=AXIS2_PLACEMENT_3D('',#1755,#1353,#1354);
#1058=AXIS2_PLACEMENT_3D('',#1757,#1356,#1357);
#1059=AXIS2_PLACEMENT_3D('',#1758,#1358,#1359);
#1060=AXIS2_PLACEMENT_3D('',#1760,#1361,#1362);
#1061=AXIS2_PLACEMENT_3D('',#1761,#1363,#1364);
#1062=AXIS2_PLACEMENT_3D('',#1762,#1365,#1366);
#1063=AXIS2_PLACEMENT_3D('',#1763,#1367,#1368);
#1064=AXIS2_PLACEMENT_3D('',#1764,#1369,#1370);
#1065=AXIS2_PLACEMENT_3D('',#1766,#1372,#1373);
#1066=AXIS2_PLACEMENT_3D('',#1767,#1374,#1375);
#1067=AXIS2_PLACEMENT_3D('',#1768,#1376,#1377);
#1068=DIRECTION('axis',(0.,0.,1.));
#1069=DIRECTION('refdir',(1.,0.,0.));
#1070=DIRECTION('center_axis',(1.,0.,0.));
#1071=DIRECTION('ref_axis',(0.,0.,-1.));
#1072=DIRECTION('center_axis',(1.,0.,0.));
#1073=DIRECTION('ref_axis',(0.,-0.70710678118654,-0.707106781186555));
#1074=DIRECTION('',(0.,0.,-1.));
#1075=DIRECTION('center_axis',(1.,0.,0.));
#1076=DIRECTION('ref_axis',(0.,-0.70710678118654,0.707106781186555));
#1077=DIRECTION('',(0.,-1.,0.));
#1078=DIRECTION('center_axis',(1.,0.,0.));
#1079=DIRECTION('ref_axis',(0.,0.70710678118654,0.707106781186555));
#1080=DIRECTION('',(0.,0.,1.));
#1081=DIRECTION('',(0.,0.,1.));
#1082=DIRECTION('center_axis',(1.,0.,0.));
#1083=DIRECTION('ref_axis',(0.,0.,-1.));
#1084=DIRECTION('',(0.,1.,0.));
#1085=DIRECTION('center_axis',(0.,0.,1.));
#1086=DIRECTION('ref_axis',(1.,0.,0.));
#1087=DIRECTION('center_axis',(0.,0.,-1.));
#1088=DIRECTION('ref_axis',(0.707106781186548,-0.707106781186547,0.));
#1089=DIRECTION('',(1.83697019872103E-16,-1.,0.));
#1090=DIRECTION('',(-1.,0.,0.));
#1091=DIRECTION('',(-5.9211894646675E-17,1.,0.));
#1092=DIRECTION('center_axis',(0.,0.,-1.));
#1093=DIRECTION('ref_axis',(-0.707106781186548,-0.707106781186547,0.));
#1094=DIRECTION('',(-1.,1.53134210293125E-16,0.));
#1095=DIRECTION('',(-0.965925826289068,-0.258819045102521,0.));
#1096=DIRECTION('',(-0.25881904510252,0.965925826289068,0.));
#1097=DIRECTION('',(0.965925826289068,0.258819045102521,0.));
#1098=DIRECTION('',(1.,-1.35272909462584E-16,0.));
#1099=DIRECTION('center_axis',(0.,0.,-1.));
#1100=DIRECTION('ref_axis',(0.,1.,0.));
#1101=DIRECTION('',(3.64007549057428E-17,1.,0.));
#1102=DIRECTION('center_axis',(0.,0.,-1.));
#1103=DIRECTION('ref_axis',(4.17966315152999E-15,-1.,0.));
#1104=DIRECTION('',(-3.64007549057428E-17,-1.,0.));
#1105=DIRECTION('center_axis',(1.53134210293125E-16,1.,0.));
#1106=DIRECTION('ref_axis',(-1.,1.53134210293125E-16,0.));
#1107=DIRECTION('',(-1.,1.53134210293125E-16,0.));
#1108=DIRECTION('',(0.,0.,1.));
#1109=DIRECTION('',(1.,-1.53134210293125E-16,0.));
#1110=DIRECTION('',(0.,0.,-1.));
#1111=DIRECTION('',(1.,-1.53134210293125E-16,0.));
#1112=DIRECTION('center_axis',(0.,0.,-1.));
#1113=DIRECTION('ref_axis',(-1.,0.,0.));
#1114=DIRECTION('center_axis',(0.,1.,0.));
#1115=DIRECTION('ref_axis',(1.,0.,0.));
#1116=DIRECTION('center_axis',(0.,1.,0.));
#1117=DIRECTION('ref_axis',(0.,0.,-1.));
#1118=DIRECTION('center_axis',(0.,0.,1.));
#1119=DIRECTION('ref_axis',(0.,1.,0.));
#1120=DIRECTION('center_axis',(-3.64007549057428E-17,-1.,0.));
#1121=DIRECTION('ref_axis',(-0.707106781186548,0.,-0.707106781186547));
#1122=DIRECTION('center_axis',(-1.77635683940025E-14,1.,0.));
#1123=DIRECTION('ref_axis',(0.,0.,-1.));
#1124=DIRECTION('',(3.64007549057428E-17,1.,0.));
#1125=DIRECTION('center_axis',(0.,0.,-1.));
#1126=DIRECTION('ref_axis',(-1.,0.,0.));
#1127=DIRECTION('center_axis',(0.,-1.,0.));
#1128=DIRECTION('ref_axis',(0.,0.,-1.));
#1129=DIRECTION('center_axis',(0.,0.,1.));
#1130=DIRECTION('ref_axis',(4.17966315152999E-15,-1.,0.));
#1131=DIRECTION('center_axis',(3.64007549057428E-17,1.,0.));
#1132=DIRECTION('ref_axis',(0.707106781186548,0.,-0.707106781186547));
#1133=DIRECTION('',(-3.64007549057428E-17,-1.,0.));
#1134=DIRECTION('center_axis',(1.,-3.64007549057428E-17,0.));
#1135=DIRECTION('ref_axis',(3.64007549057428E-17,1.,0.));
#1136=DIRECTION('',(0.,0.,1.));
#1137=DIRECTION('',(3.64007549057428E-17,1.,0.));
#1138=DIRECTION('',(0.,0.,1.));
#1139=DIRECTION('center_axis',(0.,0.,1.));
#1140=DIRECTION('ref_axis',(-1.,0.,0.));
#1141=DIRECTION('',(0.,0.,1.));
#1142=DIRECTION('center_axis',(0.,0.,-1.));
#1143=DIRECTION('ref_axis',(0.,1.,0.));
#1144=DIRECTION('center_axis',(0.,0.,-1.));
#1145=DIRECTION('ref_axis',(-1.,0.,0.));
#1146=DIRECTION('center_axis',(0.,1.,0.));
#1147=DIRECTION('ref_axis',(0.,0.,1.));
#1148=DIRECTION('center_axis',(0.,1.,0.));
#1149=DIRECTION('ref_axis',(-1.,0.,0.));
#1150=DIRECTION('center_axis',(0.,0.,1.));
#1151=DIRECTION('ref_axis',(0.,1.,0.));
#1152=DIRECTION('center_axis',(-3.64007549057428E-17,-1.,0.));
#1153=DIRECTION('ref_axis',(-0.707106781186548,0.,0.707106781186547));
#1154=DIRECTION('center_axis',(-1.77635683940025E-14,1.,0.));
#1155=DIRECTION('ref_axis',(-1.,-1.77635683940025E-14,0.));
#1156=DIRECTION('',(3.64007549057428E-17,1.,0.));
#1157=DIRECTION('',(-3.64007549057428E-17,-1.,0.));
#1158=DIRECTION('center_axis',(0.,0.,-1.));
#1159=DIRECTION('ref_axis',(-1.,0.,0.));
#1160=DIRECTION('center_axis',(0.,-1.,0.));
#1161=DIRECTION('ref_axis',(1.,0.,0.));
#1162=DIRECTION('center_axis',(0.,0.,1.));
#1163=DIRECTION('ref_axis',(4.17966315152999E-15,-1.,0.));
#1164=DIRECTION('center_axis',(0.,0.,-1.));
#1165=DIRECTION('ref_axis',(4.17966315152999E-15,-1.,0.));
#1166=DIRECTION('center_axis',(3.64007549057428E-17,1.,0.));
#1167=DIRECTION('ref_axis',(0.707106781186548,0.,0.707106781186547));
#1168=DIRECTION('',(-3.64007549057428E-17,-1.,0.));
#1169=DIRECTION('center_axis',(-1.,3.64007549057428E-17,0.));
#1170=DIRECTION('ref_axis',(-3.64007549057428E-17,-1.,0.));
#1171=DIRECTION('',(0.,0.,1.));
#1172=DIRECTION('center_axis',(0.,0.,1.));
#1173=DIRECTION('ref_axis',(1.,0.,0.));
#1174=DIRECTION('center_axis',(0.,0.,1.));
#1175=DIRECTION('ref_axis',(0.865704236899028,-0.500555865228918,0.));
#1176=DIRECTION('',(-1.,1.53134210293125E-16,0.));
#1177=DIRECTION('center_axis',(0.,0.,1.));
#1178=DIRECTION('ref_axis',(-0.865704236899028,-0.500555865228918,0.));
#1179=DIRECTION('',(5.9211894646675E-17,-1.,0.));
#1180=DIRECTION('',(1.,0.,0.));
#1181=DIRECTION('',(-1.83697019872103E-16,1.,0.));
#1182=DIRECTION('center_axis',(1.,-1.35272909462584E-16,0.));
#1183=DIRECTION('ref_axis',(0.,-0.70710678118654,0.707106781186555));
#1184=DIRECTION('',(1.,-1.35272909462584E-16,0.));
#1185=DIRECTION('center_axis',(0.991444861373811,0.130526192220045,1.7611598603896E-14));
#1186=DIRECTION('ref_axis',(0.130526192220045,-0.991444861373811,1.33773372527201E-13));
#1187=DIRECTION('',(-1.,1.35272909462584E-16,0.));
#1188=DIRECTION('center_axis',(0.500000000000008,-0.288675134594802,-0.816496580927725));
#1189=DIRECTION('ref_axis',(0.707106781186546,-0.408248290463872,0.577350269189622));
#1190=DIRECTION('center_axis',(0.965925826289063,0.258819045102539,0.));
#1191=DIRECTION('ref_axis',(0.258819045102539,-0.965925826289063,0.));
#1192=DIRECTION('center_axis',(0.,0.,1.));
#1193=DIRECTION('ref_axis',(0.965925826289068,0.258819045102523,0.));
#1194=DIRECTION('center_axis',(0.258819045102523,-0.965925826289068,0.));
#1195=DIRECTION('ref_axis',(0.,0.,1.));
#1196=DIRECTION('center_axis',(-1.,1.53134210293125E-16,0.));
#1197=DIRECTION('ref_axis',(0.,0.70710678118654,0.707106781186555));
#1198=DIRECTION('',(1.,-1.53134210293125E-16,0.));
#1199=DIRECTION('center_axis',(-0.991444861373814,-0.130526192220028,0.));
#1200=DIRECTION('ref_axis',(0.130526192220028,-0.991444861373814,0.));
#1201=DIRECTION('center_axis',(-0.5,0.288675134594825,-0.816496580927722));
#1202=DIRECTION('ref_axis',(0.707106781186549,-0.408248290463857,-0.577350269189628));
#1203=DIRECTION('center_axis',(0.,0.,-1.));
#1204=DIRECTION('ref_axis',(0.258819045102535,-0.965925826289065,0.));
#1205=DIRECTION('center_axis',(0.965925826289063,0.258819045102539,0.));
#1206=DIRECTION('ref_axis',(0.,0.,-1.));
#1207=DIRECTION('center_axis',(0.258819045102514,-0.96592582628907,1.71582894788193E-14));
#1208=DIRECTION('ref_axis',(0.96592582628907,0.258819045102514,0.));
#1209=DIRECTION('center_axis',(0.965925826289068,0.258819045102521,0.));
#1210=DIRECTION('ref_axis',(0.183012701892209,-0.683012701892199,-0.70710678118657));
#1211=DIRECTION('',(-0.965925826289068,-0.258819045102521,0.));
#1212=DIRECTION('center_axis',(-0.991444861373825,-0.130526192219939,3.75418081505002E-14));
#1213=DIRECTION('ref_axis',(-0.130526192219939,0.991444861373825,-2.8515834365855E-13));
#1214=DIRECTION('center_axis',(-0.912870929175267,0.316227766016855,0.258198889747174));
#1215=DIRECTION('ref_axis',(0.408248290463887,0.707106781186552,0.577350269189604));
#1216=DIRECTION('center_axis',(-0.258819045102506,0.965925826289072,-2.63533890975169E-14));
#1217=DIRECTION('ref_axis',(0.965925826289072,0.258819045102506,0.));
#1218=DIRECTION('center_axis',(0.,0.,1.));
#1219=DIRECTION('ref_axis',(-0.258819045102535,0.965925826289065,0.));
#1220=DIRECTION('center_axis',(0.965925826289045,0.25881904510261,0.));
#1221=DIRECTION('ref_axis',(0.,0.,1.));
#1222=DIRECTION('center_axis',(-0.912870929175285,0.316227766016823,-0.258198889747149));
#1223=DIRECTION('ref_axis',(0.408248290463834,0.707106781186558,-0.577350269189633));
#1224=DIRECTION('center_axis',(0.,0.,-1.));
#1225=DIRECTION('ref_axis',(0.965925826289068,0.258819045102521,0.));
#1226=DIRECTION('center_axis',(-0.258819045102514,0.96592582628907,0.));
#1227=DIRECTION('ref_axis',(0.,0.,-1.));
#1228=DIRECTION('center_axis',(0.965925826289065,0.258819045102535,3.89141287669877E-14));
#1229=DIRECTION('ref_axis',(-0.258819045102535,0.965925826289065,0.));
#1230=DIRECTION('center_axis',(-0.25881904510252,0.965925826289069,0.));
#1231=DIRECTION('ref_axis',(0.683012701892223,0.183012701892227,-0.707106781186542));
#1232=DIRECTION('',(0.25881904510252,-0.965925826289068,0.));
#1233=DIRECTION('center_axis',(-0.965925826289068,-0.258819045102521,0.));
#1234=DIRECTION('ref_axis',(-0.183012701892203,0.683012701892226,-0.707106781186545));
#1235=DIRECTION('',(0.965925826289068,0.258819045102521,0.));
#1236=DIRECTION('center_axis',(0.991444861373816,0.130526192220008,-1.76115986038961E-14));
#1237=DIRECTION('ref_axis',(-0.130526192220008,0.991444861373816,1.33773372527163E-13));
#1238=DIRECTION('center_axis',(0.408248290463865,-0.408248290463862,-0.816496580927725));
#1239=DIRECTION('ref_axis',(-0.577350269189628,0.577350269189623,-0.577350269189627));
#1240=DIRECTION('center_axis',(0.,0.,-1.));
#1241=DIRECTION('ref_axis',(0.,1.,0.));
#1242=DIRECTION('center_axis',(-1.,0.,0.));
#1243=DIRECTION('ref_axis',(0.,0.,-1.));
#1244=DIRECTION('center_axis',(0.,1.,4.44089209850063E-15));
#1245=DIRECTION('ref_axis',(-1.,0.,0.));
#1246=DIRECTION('center_axis',(-0.408248290463863,-0.408248290463861,-0.816496580927727));
#1247=DIRECTION('ref_axis',(0.577350269189629,0.577350269189623,-0.577350269189625));
#1248=DIRECTION('center_axis',(0.,0.,-1.));
#1249=DIRECTION('ref_axis',(1.,0.,0.));
#1250=DIRECTION('center_axis',(0.,1.,0.));
#1251=DIRECTION('ref_axis',(0.,0.,-1.));
#1252=DIRECTION('center_axis',(1.,0.,0.));
#1253=DIRECTION('ref_axis',(0.,1.,0.));
#1254=DIRECTION('center_axis',(-1.,1.53134210293125E-16,0.));
#1255=DIRECTION('ref_axis',(0.,0.707106781186553,-0.707106781186543));
#1256=DIRECTION('center_axis',(1.,0.,0.));
#1257=DIRECTION('ref_axis',(0.,0.,-1.));
#1258=DIRECTION('center_axis',(0.,0.,-1.));
#1259=DIRECTION('ref_axis',(-1.,0.,0.));
#1260=DIRECTION('center_axis',(0.,-1.,0.));
#1261=DIRECTION('ref_axis',(0.,0.,-1.));
#1262=DIRECTION('center_axis',(0.,0.,1.));
#1263=DIRECTION('ref_axis',(-0.707106781186548,-0.707106781186547,0.));
#1264=DIRECTION('center_axis',(-5.9211894646675E-17,1.,0.));
#1265=DIRECTION('ref_axis',(0.707106781186549,0.,-0.707106781186546));
#1266=DIRECTION('',(5.9211894646675E-17,-1.,0.));
#1267=DIRECTION('center_axis',(-1.,0.,0.));
#1268=DIRECTION('ref_axis',(0.,0.707106781186546,-0.707106781186549));
#1269=DIRECTION('',(1.,0.,0.));
#1270=DIRECTION('center_axis',(-0.408248290463864,0.408248290463863,-0.816496580927726));
#1271=DIRECTION('ref_axis',(-0.577350269189626,0.577350269189625,0.577350269189626));
#1272=DIRECTION('center_axis',(-1.,0.,0.));
#1273=DIRECTION('ref_axis',(0.,1.,0.));
#1274=DIRECTION('center_axis',(0.,0.,1.));
#1275=DIRECTION('ref_axis',(-1.,-1.38777878078144E-16,0.));
#1276=DIRECTION('center_axis',(0.,1.,0.));
#1277=DIRECTION('ref_axis',(0.,0.,1.));
#1278=DIRECTION('center_axis',(0.,0.,1.));
#1279=DIRECTION('ref_axis',(-0.707106781186548,0.707106781186547,0.));
#1280=DIRECTION('',(0.,0.,-1.));
#1281=DIRECTION('',(0.,0.,1.));
#1282=DIRECTION('center_axis',(1.83697019872103E-16,-1.,0.));
#1283=DIRECTION('ref_axis',(-0.707106781186548,0.,0.707106781186547));
#1284=DIRECTION('center_axis',(0.,1.,0.));
#1285=DIRECTION('ref_axis',(-1.,0.,0.));
#1286=DIRECTION('',(1.83697019872103E-16,-1.,0.));
#1287=DIRECTION('center_axis',(0.,0.,1.));
#1288=DIRECTION('ref_axis',(1.,0.,0.));
#1289=DIRECTION('center_axis',(0.838709677419357,0.544578806972065,4.08673411449113E-15));
#1290=DIRECTION('ref_axis',(-0.544578806972066,0.838709677419357,0.));
#1291=DIRECTION('center_axis',(0.,0.,-1.));
#1292=DIRECTION('ref_axis',(0.865704236899028,-0.500555865228918,0.));
#1293=DIRECTION('center_axis',(0.408248290463865,0.408248290463863,-0.816496580927726));
#1294=DIRECTION('ref_axis',(0.577350269189628,0.577350269189624,0.577350269189626));
#1295=DIRECTION('center_axis',(0.,1.,0.));
#1296=DIRECTION('ref_axis',(1.,0.,0.));
#1297=DIRECTION('center_axis',(0.,0.,1.));
#1298=DIRECTION('ref_axis',(0.,1.,0.));
#1299=DIRECTION('center_axis',(1.,-4.44089209850062E-15,0.));
#1300=DIRECTION('ref_axis',(0.,0.,1.));
#1301=DIRECTION('center_axis',(0.,0.,1.));
#1302=DIRECTION('ref_axis',(0.707106781186551,0.707106781186544,0.));
#1303=DIRECTION('',(0.,0.,-1.));
#1304=DIRECTION('',(0.,0.,1.));
#1305=DIRECTION('center_axis',(-1.,0.,0.));
#1306=DIRECTION('ref_axis',(0.,0.707106781186548,0.707106781186547));
#1307=DIRECTION('',(-1.,0.,0.));
#1308=DIRECTION('center_axis',(0.838709677425176,-0.544578806963103,5.89126069599874E-11));
#1309=DIRECTION('ref_axis',(0.544578806963103,0.838709677425176,-1.11022302462515E-15));
#1310=DIRECTION('center_axis',(0.,0.,1.));
#1311=DIRECTION('ref_axis',(1.,0.,0.));
#1312=DIRECTION('center_axis',(0.,-1.,0.));
#1313=DIRECTION('ref_axis',(1.,0.,0.));
#1314=DIRECTION('center_axis',(0.,0.,-1.));
#1315=DIRECTION('ref_axis',(-0.865704236899028,-0.500555865228918,0.));
#1316=DIRECTION('center_axis',(-5.9211894646675E-17,1.,0.));
#1317=DIRECTION('ref_axis',(0.70710678118655,0.,0.707106781186545));
#1318=DIRECTION('',(-5.9211894646675E-17,1.,0.));
#1319=DIRECTION('center_axis',(1.83697019872103E-16,-1.,0.));
#1320=DIRECTION('ref_axis',(-0.707106781186548,0.,-0.707106781186547));
#1321=DIRECTION('center_axis',(0.,1.,0.));
#1322=DIRECTION('ref_axis',(0.,0.,-1.));
#1323=DIRECTION('',(-1.83697019872103E-16,1.,0.));
#1324=DIRECTION('center_axis',(0.,0.,-1.));
#1325=DIRECTION('ref_axis',(-1.,0.,0.));
#1326=DIRECTION('center_axis',(0.,0.,1.));
#1327=DIRECTION('ref_axis',(0.707106781186548,-0.707106781186547,0.));
#1328=DIRECTION('center_axis',(0.,0.,1.));
#1329=DIRECTION('ref_axis',(0.50000000000001,0.866025403784433,0.));
#1330=DIRECTION('',(0.,0.,-1.));
#1331=DIRECTION('',(0.,0.,1.));
#1332=DIRECTION('center_axis',(-0.965925826289068,-0.258819045102521,0.));
#1333=DIRECTION('ref_axis',(-0.183012701892203,0.683012701892226,0.707106781186546));
#1334=DIRECTION('',(0.965925826289068,0.258819045102521,0.));
#1335=DIRECTION('',(-0.965925826289068,-0.258819045102521,0.));
#1336=DIRECTION('center_axis',(-0.25881904510252,0.965925826289069,0.));
#1337=DIRECTION('ref_axis',(0.683012701892199,0.183012701892209,0.70710678118657));
#1338=DIRECTION('',(0.25881904510252,-0.965925826289068,0.));
#1339=DIRECTION('',(-0.25881904510252,0.965925826289068,0.));
#1340=DIRECTION('center_axis',(0.,0.,1.));
#1341=DIRECTION('ref_axis',(0.866025403784437,-0.500000000000002,0.));
#1342=DIRECTION('',(0.,0.,-1.));
#1343=DIRECTION('',(0.,0.,1.));
#1344=DIRECTION('center_axis',(0.965925826289068,0.258819045102521,0.));
#1345=DIRECTION('ref_axis',(0.183012701892203,-0.683012701892226,0.707106781186546));
#1346=DIRECTION('',(0.965925826289068,0.258819045102521,0.));
#1347=DIRECTION('',(-0.965925826289068,-0.258819045102521,0.));
#1348=DIRECTION('center_axis',(1.,-1.35272909462584E-16,0.));
#1349=DIRECTION('ref_axis',(0.,-0.70710678118654,-0.707106781186555));
#1350=DIRECTION('',(-1.,1.35272909462584E-16,0.));
#1351=DIRECTION('center_axis',(-0.258819045102521,0.965925826289068,0.));
#1352=DIRECTION('ref_axis',(-0.965925826289068,-0.258819045102521,0.));
#1353=DIRECTION('center_axis',(1.,5.9211894646675E-17,0.));
#1354=DIRECTION('ref_axis',(-5.9211894646675E-17,1.,0.));
#1355=DIRECTION('',(0.,0.,1.));
#1356=DIRECTION('center_axis',(0.,0.,1.));
#1357=DIRECTION('ref_axis',(-0.707106781186548,-0.707106781186547,0.));
#1358=DIRECTION('center_axis',(-1.35272909462584E-16,-1.,0.));
#1359=DIRECTION('ref_axis',(1.,-1.35272909462584E-16,0.));
#1360=DIRECTION('',(0.,0.,1.));
#1361=DIRECTION('center_axis',(0.965925826289069,0.25881904510252,0.));
#1362=DIRECTION('ref_axis',(-0.25881904510252,0.965925826289068,0.));
#1363=DIRECTION('center_axis',(0.,1.,0.));
#1364=DIRECTION('ref_axis',(-1.,0.,0.));
#1365=DIRECTION('center_axis',(0.,0.,1.));
#1366=DIRECTION('ref_axis',(1.,0.,0.));
#1367=DIRECTION('center_axis',(1.,-1.53134210293125E-16,0.));
#1368=DIRECTION('ref_axis',(0.,-0.707106781186546,-0.707106781186549));
#1369=DIRECTION('center_axis',(0.,0.,1.));
#1370=DIRECTION('ref_axis',(0.707106781186547,-0.707106781186548,0.));
#1371=DIRECTION('',(0.,0.,-1.));
#1372=DIRECTION('center_axis',(-1.,-1.83697019872103E-16,0.));
#1373=DIRECTION('ref_axis',(1.83697019872103E-16,-1.,0.));
#1374=DIRECTION('center_axis',(0.258819045102521,-0.965925826289068,0.));
#1375=DIRECTION('ref_axis',(0.965925826289068,0.258819045102521,0.));
#1376=DIRECTION('center_axis',(0.,0.,1.));
#1377=DIRECTION('ref_axis',(1.,8.35932630306001E-15,0.));
#1378=CARTESIAN_POINT('',(0.,0.,0.));
#1379=CARTESIAN_POINT('Origin',(-15.,-75.,36.9187555646147));
#1380=CARTESIAN_POINT('',(-15.,-80.,0.5));
#1381=CARTESIAN_POINT('',(-15.,-79.5,0.));
#1382=CARTESIAN_POINT('Origin',(-15.,-79.5,0.5));
#1383=CARTESIAN_POINT('',(-15.,-80.,9.5));
#1384=CARTESIAN_POINT('',(-15.,-80.,18.4593777823073));
#1385=CARTESIAN_POINT('',(-15.,-79.5,10.));
#1386=CARTESIAN_POINT('Origin',(-15.,-79.5,9.5));
#1387=CARTESIAN_POINT('',(-15.,-75.5,10.));
#1388=CARTESIAN_POINT('',(-15.,-75.2451905283833,10.));
#1389=CARTESIAN_POINT('',(-15.,-75.,9.5));
#1390=CARTESIAN_POINT('Origin',(-15.,-75.5,9.5));
#1391=CARTESIAN_POINT('',(-15.,-75.,7.));
#1392=CARTESIAN_POINT('',(-15.,-75.,18.4593777823073));
#1393=CARTESIAN_POINT('',(-15.,-75.,0.5));
#1394=CARTESIAN_POINT('',(-15.,-75.,0.));
#1395=CARTESIAN_POINT('',(-15.,-75.5,0.));
#1396=CARTESIAN_POINT('Origin',(-15.,-75.5,0.5));
#1397=CARTESIAN_POINT('',(-15.,-56.25,0.));
#1398=CARTESIAN_POINT('Origin',(7.,-37.5,0.));
#1399=CARTESIAN_POINT('',(0.500000000000011,-60.,0.));
#1400=CARTESIAN_POINT('Origin',(-15.,-60.,0.));
#1401=CARTESIAN_POINT('',(0.5,-0.499999999999998,0.));
#1402=CARTESIAN_POINT('',(0.500000000000004,-18.75,0.));
#1403=CARTESIAN_POINT('',(13.5,-0.499999999999998,0.));
#1404=CARTESIAN_POINT('',(10.5,-0.499999999999998,0.));
#1405=CARTESIAN_POINT('',(13.5,-60.,0.));
#1406=CARTESIAN_POINT('',(13.5,-56.25,0.));
#1407=CARTESIAN_POINT('',(29.,-75.5,0.));
#1408=CARTESIAN_POINT('Origin',(29.,-60.,0.));
#1409=CARTESIAN_POINT('',(72.0658262487937,-75.5,0.));
#1410=CARTESIAN_POINT('',(39.5,-75.5,0.));
#1411=CARTESIAN_POINT('',(86.6464466094068,-71.5931345492289,0.));
#1412=CARTESIAN_POINT('',(53.9939967110541,-80.3423321303902,0.));
#1413=CARTESIAN_POINT('',(87.6817227898168,-75.4568378543852,0.));
#1414=CARTESIAN_POINT('',(80.2994975111089,-47.905998041328,0.));
#1415=CARTESIAN_POINT('',(72.5924362391433,-79.5,0.));
#1416=CARTESIAN_POINT('',(47.2113565226764,-86.3008398130573,0.));
#1417=CARTESIAN_POINT('',(-25.8291312439685,-79.5,0.));
#1418=CARTESIAN_POINT('',(4.375,-7.,0.));
#1419=CARTESIAN_POINT('',(9.625,-7.,0.));
#1420=CARTESIAN_POINT('Origin',(7.,-7.,0.));
#1421=CARTESIAN_POINT('',(4.375,-68.,0.));
#1422=CARTESIAN_POINT('',(4.375,-52.75,0.));
#1423=CARTESIAN_POINT('',(9.625,-68.,0.));
#1424=CARTESIAN_POINT('Origin',(7.,-68.,0.));
#1425=CARTESIAN_POINT('',(9.625,-22.25,0.));
#1426=CARTESIAN_POINT('Origin',(72.,-75.,0.));
#1427=CARTESIAN_POINT('',(72.,-75.,9.5));
#1428=CARTESIAN_POINT('',(39.5,-75.,9.5));
#1429=CARTESIAN_POINT('',(72.,-75.,0.5));
#1430=CARTESIAN_POINT('',(72.,-75.,0.));
#1431=CARTESIAN_POINT('',(29.,-75.,0.5));
#1432=CARTESIAN_POINT('',(39.5,-75.,0.5));
#1433=CARTESIAN_POINT('',(29.,-75.,7.));
#1434=CARTESIAN_POINT('',(29.,-75.,0.));
#1435=CARTESIAN_POINT('',(39.5,-75.,7.));
#1436=CARTESIAN_POINT('Origin',(7.,-7.,0.5));
#1437=CARTESIAN_POINT('',(4.875,-7.,0.5));
#1438=CARTESIAN_POINT('Origin',(4.375,-7.,0.5));
#1439=CARTESIAN_POINT('',(9.125,-7.,0.5));
#1440=CARTESIAN_POINT('Origin',(9.625,-7.,0.5));
#1441=CARTESIAN_POINT('Origin',(7.,-7.,0.5));
#1442=CARTESIAN_POINT('Origin',(9.625,-22.25,0.5));
#1443=CARTESIAN_POINT('',(9.125,-68.,0.5));
#1444=CARTESIAN_POINT('Origin',(9.625,-68.,0.5));
#1445=CARTESIAN_POINT('',(9.125,-22.25,0.5));
#1446=CARTESIAN_POINT('Origin',(7.,-68.,0.5));
#1447=CARTESIAN_POINT('',(4.875,-68.,0.5));
#1448=CARTESIAN_POINT('Origin',(4.375,-68.,0.5));
#1449=CARTESIAN_POINT('Origin',(7.,-68.,0.5));
#1450=CARTESIAN_POINT('Origin',(4.375,-52.75,0.5));
#1451=CARTESIAN_POINT('',(4.875,-52.75,0.5));
#1452=CARTESIAN_POINT('Origin',(4.875,-68.,0.));
#1453=CARTESIAN_POINT('',(4.875,-7.,4.5));
#1454=CARTESIAN_POINT('',(4.875,-7.,0.));
#1455=CARTESIAN_POINT('',(4.875,-68.,4.5));
#1456=CARTESIAN_POINT('',(4.875,-52.75,4.5));
#1457=CARTESIAN_POINT('',(4.875,-68.,0.));
#1458=CARTESIAN_POINT('Origin',(7.,-7.,0.));
#1459=CARTESIAN_POINT('',(9.125,-7.,4.5));
#1460=CARTESIAN_POINT('',(9.125,-7.,0.));
#1461=CARTESIAN_POINT('Origin',(7.,-7.,4.5));
#1462=CARTESIAN_POINT('Origin',(7.,-7.,4.5));
#1463=CARTESIAN_POINT('',(4.375,-7.,5.));
#1464=CARTESIAN_POINT('Origin',(4.375,-7.,4.5));
#1465=CARTESIAN_POINT('',(9.625,-7.,5.));
#1466=CARTESIAN_POINT('Origin',(9.625,-7.,4.5));
#1467=CARTESIAN_POINT('Origin',(7.,-7.,5.));
#1468=CARTESIAN_POINT('Origin',(9.625,-22.25,4.5));
#1469=CARTESIAN_POINT('',(9.125,-68.,4.5));
#1470=CARTESIAN_POINT('',(9.625,-68.,5.));
#1471=CARTESIAN_POINT('Origin',(9.625,-68.,4.5));
#1472=CARTESIAN_POINT('',(9.625,-22.25,5.));
#1473=CARTESIAN_POINT('',(9.125,-22.25,4.5));
#1474=CARTESIAN_POINT('Origin',(7.,-68.,4.5));
#1475=CARTESIAN_POINT('',(4.375,-68.,5.));
#1476=CARTESIAN_POINT('Origin',(4.375,-68.,4.5));
#1477=CARTESIAN_POINT('Origin',(7.,-68.,5.));
#1478=CARTESIAN_POINT('Origin',(7.,-68.,4.5));
#1479=CARTESIAN_POINT('Origin',(4.375,-52.75,4.5));
#1480=CARTESIAN_POINT('',(4.375,-52.75,5.));
#1481=CARTESIAN_POINT('Origin',(9.125,-7.,0.));
#1482=CARTESIAN_POINT('',(9.125,-68.,0.));
#1483=CARTESIAN_POINT('Origin',(7.,-37.5,5.));
#1484=CARTESIAN_POINT('',(-6.55902849193292,-73.,5.));
#1485=CARTESIAN_POINT('',(0.500000000000011,-60.,5.));
#1486=CARTESIAN_POINT('Origin',(-15.,-60.,5.));
#1487=CARTESIAN_POINT('',(20.5590284920718,-73.0000000000361,5.));
#1488=CARTESIAN_POINT('',(39.5,-73.,5.));
#1489=CARTESIAN_POINT('',(13.5,-60.,5.));
#1490=CARTESIAN_POINT('Origin',(29.,-60.,5.));
#1491=CARTESIAN_POINT('',(13.5,-0.499999999999998,5.));
#1492=CARTESIAN_POINT('',(13.5,-56.25,5.));
#1493=CARTESIAN_POINT('',(0.5,-0.5,5.));
#1494=CARTESIAN_POINT('',(10.5,-0.5,5.));
#1495=CARTESIAN_POINT('',(0.500000000000003,-18.75,5.));
#1496=CARTESIAN_POINT('Origin',(-25.8291312439685,-79.5,9.5));
#1497=CARTESIAN_POINT('',(72.6582624879369,-80.,9.5));
#1498=CARTESIAN_POINT('',(-25.8291312439685,-80.,9.5));
#1499=CARTESIAN_POINT('',(72.5924362391432,-79.5,10.));
#1500=CARTESIAN_POINT('Origin',(72.5924362391432,-79.5,9.5));
#1501=CARTESIAN_POINT('',(-25.8291312439685,-79.5,10.));
#1502=CARTESIAN_POINT('Origin',(87.6817227898168,-75.4568378543852,9.5));
#1503=CARTESIAN_POINT('',(87.8111323123681,-75.9398007675298,9.5));
#1504=CARTESIAN_POINT('',(87.6817227898169,-75.4568378543852,10.));
#1505=CARTESIAN_POINT('Origin',(87.6817227898169,-75.4568378543852,9.5));
#1506=CARTESIAN_POINT('',(88.1646857029614,-75.327428331834,9.5));
#1507=CARTESIAN_POINT('Origin',(87.6817227898168,-75.4568378543852,9.5));
#1508=CARTESIAN_POINT('Origin',(87.6817227898168,-75.4568378543852,9.5));
#1509=CARTESIAN_POINT('Origin',(39.5,-75.5,9.5));
#1510=CARTESIAN_POINT('',(72.0658262487937,-75.5,10.));
#1511=CARTESIAN_POINT('',(39.5,-75.5,10.));
#1512=CARTESIAN_POINT('Origin',(72.0658262487937,-75.5,9.5));
#1513=CARTESIAN_POINT('Origin',(87.6817227898168,-75.4568378543852,0.5));
#1514=CARTESIAN_POINT('',(87.8111323123681,-75.9398007675298,0.5));
#1515=CARTESIAN_POINT('',(88.1646857029614,-75.327428331834,0.5));
#1516=CARTESIAN_POINT('Origin',(87.6817227898168,-75.4568378543852,0.5));
#1517=CARTESIAN_POINT('Origin',(87.6817227898168,-75.4568378543852,0.5));
#1518=CARTESIAN_POINT('Origin',(87.6817227898168,-75.4568378543852,0.5));
#1519=CARTESIAN_POINT('Origin',(47.2113565226764,-86.3008398130573,0.5));
#1520=CARTESIAN_POINT('',(72.6582624879369,-80.,0.5));
#1521=CARTESIAN_POINT('',(47.3407660452277,-86.7838027262018,0.5));
#1522=CARTESIAN_POINT('Origin',(72.5924362391433,-79.5,0.5));
#1523=CARTESIAN_POINT('Origin',(86.6464466094067,-71.593134549229,9.5));
#1524=CARTESIAN_POINT('',(87.1294095225513,-71.4637250266777,9.5));
#1525=CARTESIAN_POINT('',(86.6464466094068,-71.5931345492289,10.));
#1526=CARTESIAN_POINT('Origin',(86.6464466094068,-71.5931345492289,9.5));
#1527=CARTESIAN_POINT('',(86.5170370868555,-71.1101716360844,9.5));
#1528=CARTESIAN_POINT('Origin',(86.6464466094067,-71.593134549229,9.5));
#1529=CARTESIAN_POINT('Origin',(86.6464466094068,-71.5931345492289,9.5));
#1530=CARTESIAN_POINT('Origin',(86.6464466094068,-71.593134549229,0.5));
#1531=CARTESIAN_POINT('',(87.1294095225513,-71.4637250266777,0.5));
#1532=CARTESIAN_POINT('',(86.5170370868555,-71.1101716360844,0.5));
#1533=CARTESIAN_POINT('Origin',(86.6464466094067,-71.593134549229,0.5));
#1534=CARTESIAN_POINT('Origin',(86.6464466094068,-71.593134549229,0.5));
#1535=CARTESIAN_POINT('Origin',(86.6464466094067,-71.593134549229,0.5));
#1536=CARTESIAN_POINT('Origin',(80.2994975111089,-47.905998041328,0.5));
#1537=CARTESIAN_POINT('',(80.7824604242535,-47.7765885187767,0.5));
#1538=CARTESIAN_POINT('Origin',(53.9939967110541,-80.3423321303902,0.5));
#1539=CARTESIAN_POINT('',(53.8645871885029,-79.8593692172457,0.5));
#1540=CARTESIAN_POINT('Origin',(72.0658262487937,-75.5,0.5));
#1541=CARTESIAN_POINT('Origin',(0.5,-0.499999999999998,0.5));
#1542=CARTESIAN_POINT('',(0.5,0.,0.5));
#1543=CARTESIAN_POINT('',(6.93889390390723E-17,-0.5,0.5));
#1544=CARTESIAN_POINT('Origin',(0.5,-0.5,0.5));
#1545=CARTESIAN_POINT('Origin',(0.5,-0.499999999999998,0.5));
#1546=CARTESIAN_POINT('Origin',(0.5,-0.5,0.5));
#1547=CARTESIAN_POINT('Origin',(13.5,-0.499999999999998,0.5));
#1548=CARTESIAN_POINT('',(14.,-0.499999999999998,0.5));
#1549=CARTESIAN_POINT('',(13.5,0.,0.5));
#1550=CARTESIAN_POINT('Origin',(13.5,-0.499999999999998,0.5));
#1551=CARTESIAN_POINT('Origin',(13.5,-0.499999999999998,0.5));
#1552=CARTESIAN_POINT('Origin',(13.5,-0.499999999999998,0.5));
#1553=CARTESIAN_POINT('Origin',(39.5,-75.5,0.5));
#1554=CARTESIAN_POINT('Origin',(29.,-75.5,0.5));
#1555=CARTESIAN_POINT('Origin',(29.,-60.,0.5));
#1556=CARTESIAN_POINT('',(14.,-60.,0.5));
#1557=CARTESIAN_POINT('Origin',(13.5,-60.,0.5));
#1558=CARTESIAN_POINT('Origin',(29.,-60.,0.5));
#1559=CARTESIAN_POINT('Origin',(13.5,-56.25,0.5));
#1560=CARTESIAN_POINT('',(14.,-56.25,0.5));
#1561=CARTESIAN_POINT('Origin',(10.5,-0.499999999999998,0.5));
#1562=CARTESIAN_POINT('',(10.5,0.,0.5));
#1563=CARTESIAN_POINT('Origin',(0.5,-0.5,4.5));
#1564=CARTESIAN_POINT('',(0.5,0.,4.5));
#1565=CARTESIAN_POINT('Origin',(0.5,-0.5,4.5));
#1566=CARTESIAN_POINT('',(1.16976339287734E-16,-0.5,4.5));
#1567=CARTESIAN_POINT('Origin',(0.5,-0.5,4.5));
#1568=CARTESIAN_POINT('Origin',(0.5,-0.5,4.5));
#1569=CARTESIAN_POINT('Origin',(0.5,-0.5,0.));
#1570=CARTESIAN_POINT('',(0.5,0.,0.));
#1571=CARTESIAN_POINT('',(6.93889390390723E-17,-0.5,0.));
#1572=CARTESIAN_POINT('Origin',(0.500000000000003,-18.75,4.5));
#1573=CARTESIAN_POINT('',(1.11022302462516E-14,-60.,4.5));
#1574=CARTESIAN_POINT('Origin',(0.500000000000011,-60.,4.5));
#1575=CARTESIAN_POINT('',(3.46944695195361E-15,-18.75,4.5));
#1576=CARTESIAN_POINT('Origin',(-15.,-60.,4.5));
#1577=CARTESIAN_POINT('',(-6.83131789541895,-72.5806451612903,4.5));
#1578=CARTESIAN_POINT('Origin',(-6.55902849193292,-73.,4.5));
#1579=CARTESIAN_POINT('Origin',(-15.,-60.,4.5));
#1580=CARTESIAN_POINT('Ctrl Pts',(-6.83131789541896,-72.5806451612903,4.5));
#1581=CARTESIAN_POINT('Ctrl Pts',(-7.33232850960596,-72.9059541089512,4.5));
#1582=CARTESIAN_POINT('Ctrl Pts',(-8.3790875065179,-73.4988193260169,4.63352951510582));
#1583=CARTESIAN_POINT('Ctrl Pts',(-9.99524209074679,-74.1755485827286,5.06701813217597));
#1584=CARTESIAN_POINT('Ctrl Pts',(-11.3676334176692,-74.5729102908789,5.54552598275735));
#1585=CARTESIAN_POINT('Ctrl Pts',(-12.4799448696133,-74.7949259607111,5.97150621837026));
#1586=CARTESIAN_POINT('Ctrl Pts',(-13.3165612685687,-74.9131688246979,6.30569442190636));
#1587=CARTESIAN_POINT('Ctrl Pts',(-14.1537908231954,-74.9839323613782,6.64882538969342));
#1588=CARTESIAN_POINT('Ctrl Pts',(-14.7099779057287,-74.9997572883485,6.87964129585969));
#1589=CARTESIAN_POINT('Ctrl Pts',(-14.9914260611982,-74.9999981581886,6.99644185063436));
#1590=CARTESIAN_POINT('Ctrl Pts',(-14.9957130379259,-75.,6.99822092508371));
#1591=CARTESIAN_POINT('Ctrl Pts',(-15.,-75.,7.));
#1592=CARTESIAN_POINT('Ctrl Pts',(-6.83131789541896,-72.5806451612903,4.63089969389957));
#1593=CARTESIAN_POINT('Ctrl Pts',(-7.32407260138003,-72.9009588192552,4.62140959489288));
#1594=CARTESIAN_POINT('Ctrl Pts',(-8.36118216320757,-73.4901039513788,4.73462611537418));
#1595=CARTESIAN_POINT('Ctrl Pts',(-9.97440018555846,-74.1685985642598,5.14007608730196));
#1596=CARTESIAN_POINT('Ctrl Pts',(-11.3499438251806,-74.5688885260171,5.59717697048844));
#1597=CARTESIAN_POINT('Ctrl Pts',(-12.466715703199,-74.7928912465173,6.00682020827422));
#1598=CARTESIAN_POINT('Ctrl Pts',(-13.3073653385772,-74.9123089823487,6.32908155041032));
#1599=CARTESIAN_POINT('Ctrl Pts',(-14.1490599305919,-74.9837987907396,6.66052069867002));
#1600=CARTESIAN_POINT('Ctrl Pts',(-14.7083633849787,-74.9997597524809,6.88365200022399));
#1601=CARTESIAN_POINT('Ctrl Pts',(-14.9913784614055,-74.9999980856863,6.99656046833932));
#1602=CARTESIAN_POINT('Ctrl Pts',(-14.9956892214699,-75.,6.9982802275809));
#1603=CARTESIAN_POINT('Ctrl Pts',(-15.,-75.,7.));
#1604=CARTESIAN_POINT('Ctrl Pts',(-6.7722458763657,-72.6716223961926,4.89152714300118));
#1605=CARTESIAN_POINT('Ctrl Pts',(-7.26185365546331,-72.9698640096742,4.86391058378201));
#1606=CARTESIAN_POINT('Ctrl Pts',(-8.29932539859182,-73.529937286478,4.93704488681387));
#1607=CARTESIAN_POINT('Ctrl Pts',(-9.92295641118471,-74.1862549836084,5.28654471502913));
#1608=CARTESIAN_POINT('Ctrl Pts',(-11.311150060212,-74.5771041538761,5.70073897511764));
#1609=CARTESIAN_POINT('Ctrl Pts',(-12.4392696669386,-74.7965411761061,6.07761677856805));
#1610=CARTESIAN_POINT('Ctrl Pts',(-13.2888460381435,-74.9137517537584,6.37596781345252));
#1611=CARTESIAN_POINT('Ctrl Pts',(-14.1396977578834,-74.984013960963,6.68396972740916));
#1612=CARTESIAN_POINT('Ctrl Pts',(-14.7051453761682,-74.9997567037946,6.89167983167687));
#1613=CARTESIAN_POINT('Ctrl Pts',(-14.9912831505024,-74.9999981926172,6.99679763901242));
#1614=CARTESIAN_POINT('Ctrl Pts',(-14.9956415885578,-75.,6.99839883257526));
#1615=CARTESIAN_POINT('Ctrl Pts',(-15.,-75.,7.));
#1616=CARTESIAN_POINT('Ctrl Pts',(-6.63031369106976,-72.8902131599552,5.));
#1617=CARTESIAN_POINT('Ctrl Pts',(-7.13847634802532,-73.1641091553034,4.98490433347306));
#1618=CARTESIAN_POINT('Ctrl Pts',(-8.20531317433888,-73.6732099629238,5.0693313479442));
#1619=CARTESIAN_POINT('Ctrl Pts',(-9.85986197798984,-74.2663236195005,5.40571003313304));
#1620=CARTESIAN_POINT('Ctrl Pts',(-11.2680386612172,-74.6188161491096,5.79402877153034));
#1621=CARTESIAN_POINT('Ctrl Pts',(-12.4103545604431,-74.8166507833004,6.14488025337524));
#1622=CARTESIAN_POINT('Ctrl Pts',(-13.2698928368286,-74.9222989544002,6.42183936019099));
#1623=CARTESIAN_POINT('Ctrl Pts',(-14.1302778997628,-74.9856188512878,6.70730324768598));
#1624=CARTESIAN_POINT('Ctrl Pts',(-14.7019209645749,-74.999784021459,6.89969520965612));
#1625=CARTESIAN_POINT('Ctrl Pts',(-14.9911879040435,-74.9999983365808,6.99703493490727));
#1626=CARTESIAN_POINT('Ctrl Pts',(-14.9955939556457,-75.,6.99851743756963));
#1627=CARTESIAN_POINT('Ctrl Pts',(-15.,-75.,7.));
#1628=CARTESIAN_POINT('Ctrl Pts',(-6.55902849193292,-73.,5.));
#1629=CARTESIAN_POINT('Ctrl Pts',(-7.07673945992615,-73.2689220633997,5.));
#1630=CARTESIAN_POINT('Ctrl Pts',(-8.15839042340182,-73.759023976174,5.10682361208466));
#1631=CARTESIAN_POINT('Ctrl Pts',(-9.82841682710501,-74.3184534950556,5.45361450574078));
#1632=CARTESIAN_POINT('Ctrl Pts',(-11.2465545315915,-74.6469391737932,5.83642078620589));
#1633=CARTESIAN_POINT('Ctrl Pts',(-12.3959430319337,-74.8304721275211,6.17720497469621));
#1634=CARTESIAN_POINT('Ctrl Pts',(-13.2604466441877,-74.9282195617502,6.4445555375251));
#1635=CARTESIAN_POINT('Ctrl Pts',(-14.1255838506353,-74.9867174187392,6.71906031175474));
#1636=CARTESIAN_POINT('Ctrl Pts',(-14.7003105025863,-74.9997993583679,6.90371303668778));
#1637=CARTESIAN_POINT('Ctrl Pts',(-14.9911402632382,-74.9999984774359,6.99715348050749));
#1638=CARTESIAN_POINT('Ctrl Pts',(-14.9955701391897,-75.,6.99857674006681));
#1639=CARTESIAN_POINT('Ctrl Pts',(-15.,-75.,7.));
#1640=CARTESIAN_POINT('Ctrl Pts',(-6.83131789541896,-72.5806451612903,4.5));
#1641=CARTESIAN_POINT('Ctrl Pts',(-7.33232850960596,-72.9059541089512,4.5));
#1642=CARTESIAN_POINT('Ctrl Pts',(-8.3790875065179,-73.4988193260169,4.63352951510582));
#1643=CARTESIAN_POINT('Ctrl Pts',(-9.99524209074679,-74.1755485827286,5.06701813217597));
#1644=CARTESIAN_POINT('Ctrl Pts',(-11.3676334176692,-74.5729102908789,5.54552598275735));
#1645=CARTESIAN_POINT('Ctrl Pts',(-12.4799448696133,-74.7949259607111,5.97150621837026));
#1646=CARTESIAN_POINT('Ctrl Pts',(-13.3165612685687,-74.9131688246979,6.30569442190636));
#1647=CARTESIAN_POINT('Ctrl Pts',(-14.1537908231954,-74.9839323613782,6.64882538969342));
#1648=CARTESIAN_POINT('Ctrl Pts',(-14.7099779057287,-74.9997572883485,6.87964129585969));
#1649=CARTESIAN_POINT('Ctrl Pts',(-14.9914260611982,-74.9999981581886,6.99644185063436));
#1650=CARTESIAN_POINT('Ctrl Pts',(-14.9957130379259,-75.,6.99822092508371));
#1651=CARTESIAN_POINT('Ctrl Pts',(-15.,-75.,7.));
#1652=CARTESIAN_POINT('Ctrl Pts',(-15.,-75.,7.));
#1653=CARTESIAN_POINT('Ctrl Pts',(-14.9955701391897,-75.,6.99857674006681));
#1654=CARTESIAN_POINT('Ctrl Pts',(-14.9911402632382,-74.9999984774359,6.99715348050749));
#1655=CARTESIAN_POINT('Ctrl Pts',(-14.7003105025863,-74.9997993583679,6.90371303668778));
#1656=CARTESIAN_POINT('Ctrl Pts',(-14.1255838506353,-74.9867174187392,6.71906031175474));
#1657=CARTESIAN_POINT('Ctrl Pts',(-13.2604466441877,-74.9282195617502,6.4445555375251));
#1658=CARTESIAN_POINT('Ctrl Pts',(-12.3959430319337,-74.8304721275211,6.17720497469621));
#1659=CARTESIAN_POINT('Ctrl Pts',(-11.2465545315915,-74.6469391737932,5.83642078620589));
#1660=CARTESIAN_POINT('Ctrl Pts',(-9.82841682710501,-74.3184534950556,5.45361450574078));
#1661=CARTESIAN_POINT('Ctrl Pts',(-8.15839042340182,-73.759023976174,5.10682361208466));
#1662=CARTESIAN_POINT('Ctrl Pts',(-7.07673945992615,-73.2689220633997,5.));
#1663=CARTESIAN_POINT('Ctrl Pts',(-6.55902849193292,-73.,5.));
#1664=CARTESIAN_POINT('Origin',(13.5,-0.499999999999998,4.5));
#1665=CARTESIAN_POINT('',(14.,-0.499999999999998,4.5));
#1666=CARTESIAN_POINT('Origin',(13.5,-0.499999999999998,4.5));
#1667=CARTESIAN_POINT('',(13.5,0.,4.5));
#1668=CARTESIAN_POINT('Origin',(13.5,-0.499999999999998,4.5));
#1669=CARTESIAN_POINT('Origin',(13.5,-0.5,4.5));
#1670=CARTESIAN_POINT('Origin',(13.5,-0.499999999999998,0.));
#1671=CARTESIAN_POINT('',(14.,-0.499999999999998,0.));
#1672=CARTESIAN_POINT('',(13.5,0.,0.));
#1673=CARTESIAN_POINT('Origin',(10.5,-0.5,4.5));
#1674=CARTESIAN_POINT('',(10.5,0.,4.5));
#1675=CARTESIAN_POINT('Ctrl Pts',(29.,-75.,7.));
#1676=CARTESIAN_POINT('Ctrl Pts',(28.9957130379185,-75.,6.99822092508043));
#1677=CARTESIAN_POINT('Ctrl Pts',(28.9914277480175,-74.9999982421107,6.99644073054464));
#1678=CARTESIAN_POINT('Ctrl Pts',(27.323235174489,-74.9985247203318,6.30515574825237));
#1679=CARTESIAN_POINT('Ctrl Pts',(25.0690745436967,-74.6260298624885,5.35709139814167));
#1680=CARTESIAN_POINT('Ctrl Pts',(22.3807631639748,-73.499085641022,4.63294847891918));
#1681=CARTESIAN_POINT('Ctrl Pts',(21.3323285097348,-72.9059541090273,4.50000000001212));
#1682=CARTESIAN_POINT('Ctrl Pts',(20.8313178955533,-72.5806451613776,4.5));
#1683=CARTESIAN_POINT('Ctrl Pts',(29.,-75.,7.));
#1684=CARTESIAN_POINT('Ctrl Pts',(28.9956700714651,-75.000010320431,6.99834055229112));
#1685=CARTESIAN_POINT('Ctrl Pts',(28.9913279025468,-74.9999880190035,6.99667697407499));
#1686=CARTESIAN_POINT('Ctrl Pts',(27.3049903585541,-74.999391808339,6.35155584953695));
#1687=CARTESIAN_POINT('Ctrl Pts',(25.0241236290466,-74.6145983658151,5.4660014981349));
#1688=CARTESIAN_POINT('Ctrl Pts',(22.3453196291323,-73.480886916868,4.83531512324953));
#1689=CARTESIAN_POINT('Ctrl Pts',(21.3163600659635,-72.8957550748674,4.74293049073027));
#1690=CARTESIAN_POINT('Ctrl Pts',(20.831317895549,-72.5806451613748,4.76179938779411));
#1691=CARTESIAN_POINT('Ctrl Pts',(29.,-75.,7.));
#1692=CARTESIAN_POINT('Ctrl Pts',(28.995622649052,-75.00002020594,6.9984580560453));
#1693=CARTESIAN_POINT('Ctrl Pts',(28.9912325163291,-74.9999782308571,6.99691541229344));
#1694=CARTESIAN_POINT('Ctrl Pts',(27.2863172363173,-75.0005049331318,6.39780453228992));
#1695=CARTESIAN_POINT('Ctrl Pts',(24.9807409112013,-74.6324813529647,5.5764896978317));
#1696=CARTESIAN_POINT('Ctrl Pts',(22.2539436412494,-73.587320432505,5.03221866255348));
#1697=CARTESIAN_POINT('Ctrl Pts',(21.200482003747,-73.0597511824141,4.97029700208016));
#1698=CARTESIAN_POINT('Ctrl Pts',(20.7015988903404,-72.7804263199852,4.99999999999208));
#1699=CARTESIAN_POINT('Ctrl Pts',(29.,-75.,7.));
#1700=CARTESIAN_POINT('Ctrl Pts',(28.995570139182,-75.,6.99857674006417));
#1701=CARTESIAN_POINT('Ctrl Pts',(28.9911420062848,-74.9999985468115,6.99715258443572));
#1702=CARTESIAN_POINT('Ctrl Pts',(27.2673430136386,-74.998780435474,6.44412459860178));
#1703=CARTESIAN_POINT('Ctrl Pts',(24.9380436951532,-74.6908513529905,5.68567311851335));
#1704=CARTESIAN_POINT('Ctrl Pts',(22.1601219361073,-73.7592441299114,5.10635878313533));
#1705=CARTESIAN_POINT('Ctrl Pts',(21.0767394600593,-73.2689220634625,5.0000000000097));
#1706=CARTESIAN_POINT('Ctrl Pts',(20.5590284920718,-73.0000000000721,5.));
#1707=CARTESIAN_POINT('',(20.8313178955533,-72.5806451613776,4.5));
#1708=CARTESIAN_POINT('Origin',(20.5590284920718,-73.0000000000902,4.5));
#1709=CARTESIAN_POINT('Ctrl Pts',(20.5590284920718,-73.0000000000721,5.));
#1710=CARTESIAN_POINT('Ctrl Pts',(21.0767394600593,-73.2689220634625,5.0000000000097));
#1711=CARTESIAN_POINT('Ctrl Pts',(22.1601219361073,-73.7592441299114,5.10635878313533));
#1712=CARTESIAN_POINT('Ctrl Pts',(24.9380436951532,-74.6908513529905,5.68567311851335));
#1713=CARTESIAN_POINT('Ctrl Pts',(27.2673430136386,-74.998780435474,6.44412459860178));
#1714=CARTESIAN_POINT('Ctrl Pts',(28.9911420062848,-74.9999985468115,6.99715258443572));
#1715=CARTESIAN_POINT('Ctrl Pts',(28.995570139182,-75.,6.99857674006417));
#1716=CARTESIAN_POINT('Ctrl Pts',(29.,-75.,7.));
#1717=CARTESIAN_POINT('Ctrl Pts',(29.,-75.,7.));
#1718=CARTESIAN_POINT('Ctrl Pts',(28.9957130379185,-75.,6.99822092508043));
#1719=CARTESIAN_POINT('Ctrl Pts',(28.9914277480175,-74.9999982421107,6.99644073054464));
#1720=CARTESIAN_POINT('Ctrl Pts',(27.323235174489,-74.9985247203318,6.30515574825237));
#1721=CARTESIAN_POINT('Ctrl Pts',(25.0690745436967,-74.6260298624885,5.35709139814167));
#1722=CARTESIAN_POINT('Ctrl Pts',(22.3807631639748,-73.499085641022,4.63294847891918));
#1723=CARTESIAN_POINT('Ctrl Pts',(21.3323285097348,-72.9059541090273,4.50000000001212));
#1724=CARTESIAN_POINT('Ctrl Pts',(20.8313178955533,-72.5806451613776,4.5));
#1725=CARTESIAN_POINT('Origin',(29.,-60.,4.5));
#1726=CARTESIAN_POINT('',(14.,-60.,4.5));
#1727=CARTESIAN_POINT('Origin',(13.5,-60.,4.5));
#1728=CARTESIAN_POINT('Origin',(29.,-60.,4.5));
#1729=CARTESIAN_POINT('Origin',(13.5,-56.25,4.5));
#1730=CARTESIAN_POINT('',(14.,-56.25,4.5));
#1731=CARTESIAN_POINT('Origin',(0.500000000000004,-18.75,0.5));
#1732=CARTESIAN_POINT('',(1.11022302462516E-14,-60.,0.5));
#1733=CARTESIAN_POINT('Origin',(0.500000000000011,-60.,0.5));
#1734=CARTESIAN_POINT('',(3.46944695195361E-15,-18.75,0.5));
#1735=CARTESIAN_POINT('Origin',(-15.,-60.,0.5));
#1736=CARTESIAN_POINT('Origin',(-15.,-60.,0.5));
#1737=CARTESIAN_POINT('Origin',(86.6464466094067,-71.593134549229,0.));
#1738=CARTESIAN_POINT('',(87.1294095225513,-71.4637250266777,0.));
#1739=CARTESIAN_POINT('',(86.5170370868555,-71.1101716360844,0.));
#1740=CARTESIAN_POINT('Origin',(49.2451990789583,-81.6147686209291,9.5));
#1741=CARTESIAN_POINT('',(49.2451990789583,-81.6147686209291,10.));
#1742=CARTESIAN_POINT('',(49.1157895564071,-81.1318057077846,9.5));
#1743=CARTESIAN_POINT('Origin',(85.0482951432048,-65.6287520791724,9.5));
#1744=CARTESIAN_POINT('',(85.0482951432048,-65.6287520791724,10.));
#1745=CARTESIAN_POINT('',(85.5312580563493,-65.4993425566211,9.5));
#1746=CARTESIAN_POINT('Origin',(87.6817227898168,-75.4568378543852,0.));
#1747=CARTESIAN_POINT('',(87.8111323123681,-75.9398007675298,0.));
#1748=CARTESIAN_POINT('',(88.1646857029614,-75.327428331834,0.));
#1749=CARTESIAN_POINT('Origin',(42.4625588905806,-87.5732763035962,9.5));
#1750=CARTESIAN_POINT('',(42.5919684131318,-88.0562392167407,9.5));
#1751=CARTESIAN_POINT('',(42.4625588905806,-87.5732763035962,10.));
#1752=CARTESIAN_POINT('Origin',(-25.8291312439685,-79.5,0.5));
#1753=CARTESIAN_POINT('',(-25.8291312439685,-80.,0.5));
#1754=CARTESIAN_POINT('Origin',(87.,-70.9807621135332,0.));
#1755=CARTESIAN_POINT('Origin',(14.,-75.,0.));
#1756=CARTESIAN_POINT('',(14.,-60.,0.));
#1757=CARTESIAN_POINT('Origin',(29.,-60.,0.));
#1758=CARTESIAN_POINT('Origin',(-58.658262487937,-80.,0.));
#1759=CARTESIAN_POINT('',(72.6582624879369,-80.,0.));
#1760=CARTESIAN_POINT('Origin',(88.2940952255126,-75.8103912449785,0.));
#1761=CARTESIAN_POINT('Origin',(14.,0.,0.));
#1762=CARTESIAN_POINT('Origin',(7.00000000000001,-75.4903810567666,10.));
#1763=CARTESIAN_POINT('Origin',(39.5,-73.,7.));
#1764=CARTESIAN_POINT('Origin',(-15.,-60.,0.));
#1765=CARTESIAN_POINT('',(1.11022302462516E-14,-60.,0.));
#1766=CARTESIAN_POINT('Origin',(0.,0.,0.));
#1767=CARTESIAN_POINT('Origin',(72.6582624879369,-80.,0.));
#1768=CARTESIAN_POINT('Origin',(7.,-68.,0.));
#1769=UNCERTAINTY_MEASURE_WITH_UNIT(LENGTH_MEASURE(0.01),#1773,
'DISTANCE_ACCURACY_VALUE',
'Maximum model space distance between geometric entities at asserted c
onnectivities');
#1770=UNCERTAINTY_MEASURE_WITH_UNIT(LENGTH_MEASURE(0.01),#1773,
'DISTANCE_ACCURACY_VALUE',
'Maximum model space distance between geometric entities at asserted c
onnectivities');
#1771=(
GEOMETRIC_REPRESENTATION_CONTEXT(3)
GLOBAL_UNCERTAINTY_ASSIGNED_CONTEXT((#1769))
GLOBAL_UNIT_ASSIGNED_CONTEXT((#1773,#1775,#1776))
REPRESENTATION_CONTEXT('','3D')
);
#1772=(
GEOMETRIC_REPRESENTATION_CONTEXT(3)
GLOBAL_UNCERTAINTY_ASSIGNED_CONTEXT((#1770))
GLOBAL_UNIT_ASSIGNED_CONTEXT((#1773,#1775,#1776))
REPRESENTATION_CONTEXT('','3D')
);
#1773=(
LENGTH_UNIT()
NAMED_UNIT(*)
SI_UNIT(.MILLI.,.METRE.)
);
#1774=(
LENGTH_UNIT()
NAMED_UNIT(*)
SI_UNIT(.CENTI.,.METRE.)
);
#1775=(
NAMED_UNIT(*)
PLANE_ANGLE_UNIT()
SI_UNIT($,.RADIAN.)
);
#1776=(
NAMED_UNIT(*)
SI_UNIT($,.STERADIAN.)
SOLID_ANGLE_UNIT()
);
#1777=SHAPE_DEFINITION_REPRESENTATION(#1778,#1779);
#1778=PRODUCT_DEFINITION_SHAPE('',$,#1781);
#1779=SHAPE_REPRESENTATION('',(#945),#1771);
#1780=PRODUCT_DEFINITION_CONTEXT('part definition',#1785,'design');
#1781=PRODUCT_DEFINITION('BandeV2Joint3_HALF','BandeV2Joint3_HALF',#1782,
#1780);
#1782=PRODUCT_DEFINITION_FORMATION('',$,#1787);
#1783=PRODUCT_RELATED_PRODUCT_CATEGORY('BandeV2Joint3_HALF',
'BandeV2Joint3_HALF',(#1787));
#1784=APPLICATION_PROTOCOL_DEFINITION('international standard',
'automotive_design',2009,#1785);
#1785=APPLICATION_CONTEXT(
'Core Data for Automotive Mechanical Design Process');
#1786=PRODUCT_CONTEXT('part definition',#1785,'mechanical');
#1787=PRODUCT('BandeV2Joint3_HALF','BandeV2Joint3_HALF',$,(#1786));
#1788=PRESENTATION_STYLE_ASSIGNMENT((#1789));
#1789=SURFACE_STYLE_USAGE(.BOTH.,#1792);
#1790=SURFACE_STYLE_RENDERING_WITH_PROPERTIES($,#1796,(#1791));
#1791=SURFACE_STYLE_TRANSPARENT(0.);
#1792=SURFACE_SIDE_STYLE('',(#1793,#1790));
#1793=SURFACE_STYLE_FILL_AREA(#1794);
#1794=FILL_AREA_STYLE('',(#1795));
#1795=FILL_AREA_STYLE_COLOUR('',#1796);
#1796=COLOUR_RGB('',0.96078431372549,0.96078431372549,0.96078431372549);
ENDSEC;
END-ISO-10303-21;
