ISO-10303-21;
HEADER;
/* Generated by software containing ST-Developer
 * from STEP Tools, Inc. (www.steptools.com) 
 */

FILE_DESCRIPTION(
/* description */ (''),
/* implementation_level */ '2;1');

FILE_NAME(
/* name */ 'Central_spinner_cap.stp',
/* time_stamp */ '2026-05-09T20:57:26+02:00',
/* author */ ('sniel'),
/* organization */ (''),
/* preprocessor_version */ 'ST-DEVELOPER v20.1',
/* originating_system */ 'Autodesk Inventor 2026',
/* authorisation */ '');

FILE_SCHEMA (('AUTOMOTIVE_DESIGN { 1 0 10303 214 3 1 1 }'));
ENDSEC;

DATA;
#10=MECHANICAL_DESIGN_GEOMETRIC_PRESENTATION_REPRESENTATION('',(#13),#148);
#11=SHAPE_REPRESENTATION_RELATIONSHIP('SRR','None',#155,#12);
#12=ADVANCED_BREP_SHAPE_REPRESENTATION('',(#14),#147);
#13=STYLED_ITEM('',(#164),#14);
#14=MANIFOLD_SOLID_BREP('Solid1',#58);
#15=(
BOUNDED_SURFACE()
B_SPLINE_SURFACE(2,2,((#116,#117,#118,#119,#120,#121,#122,#123,#124),(#125,
#126,#127,#128,#129,#130,#131,#132,#133),(#134,#135,#136,#137,#138,#139,
#140,#141,#142)),.UNSPECIFIED.,.F.,.T.,.F.)
B_SPLINE_SURFACE_WITH_KNOTS((3,3),(3,2,2,2,3),(0.850842128028166,1.52973777133693),
(-3.14159265358979,-1.5707963267949,0.,1.5707963267949,3.14159265358979),
 .UNSPECIFIED.)
GEOMETRIC_REPRESENTATION_ITEM()
RATIONAL_B_SPLINE_SURFACE(((1.,0.707106781186548,1.,0.707106781186548,1.,
0.707106781186548,1.,0.707106781186548,1.),(0.942938666146432,0.66675832507514,
0.942938666146432,0.66675832507514,0.942938666146432,0.66675832507514,0.942938666146432,
0.66675832507514,0.942938666146432),(1.,0.707106781186548,1.,0.707106781186548,
1.,0.707106781186548,1.,0.707106781186548,1.)))
REPRESENTATION_ITEM('')
SURFACE()
);
#16=FACE_BOUND('',#27,.T.);
#17=LINE('',#111,#18);
#18=VECTOR('',#96,7.50000000000073);
#19=CYLINDRICAL_SURFACE('',#83,7.50000000000073);
#20=FACE_OUTER_BOUND('',#24,.T.);
#21=FACE_OUTER_BOUND('',#25,.T.);
#22=FACE_OUTER_BOUND('',#26,.T.);
#23=FACE_OUTER_BOUND('',#28,.T.);
#24=EDGE_LOOP('',(#42));
#25=EDGE_LOOP('',(#43,#44,#45,#46));
#26=EDGE_LOOP('',(#47));
#27=EDGE_LOOP('',(#48));
#28=EDGE_LOOP('',(#49,#50,#51));
#29=CIRCLE('',#82,7.50000000000073);
#30=CIRCLE('',#84,7.50000000000073);
#31=CIRCLE('',#86,17.5000000000007);
#32=CIRCLE('',#87,28.3032653061414);
#33=VERTEX_POINT('',#107);
#34=VERTEX_POINT('',#110);
#35=VERTEX_POINT('',#114);
#36=VERTEX_POINT('',#143);
#37=EDGE_CURVE('',#33,#33,#29,.T.);
#38=EDGE_CURVE('',#33,#34,#17,.T.);
#39=EDGE_CURVE('',#34,#34,#30,.T.);
#40=EDGE_CURVE('',#35,#35,#31,.T.);
#41=EDGE_CURVE('',#36,#35,#32,.T.);
#42=ORIENTED_EDGE('',*,*,#37,.F.);
#43=ORIENTED_EDGE('',*,*,#37,.T.);
#44=ORIENTED_EDGE('',*,*,#38,.T.);
#45=ORIENTED_EDGE('',*,*,#39,.F.);
#46=ORIENTED_EDGE('',*,*,#38,.F.);
#47=ORIENTED_EDGE('',*,*,#40,.F.);
#48=ORIENTED_EDGE('',*,*,#39,.T.);
#49=ORIENTED_EDGE('',*,*,#41,.T.);
#50=ORIENTED_EDGE('',*,*,#40,.T.);
#51=ORIENTED_EDGE('',*,*,#41,.F.);
#52=PLANE('',#81);
#53=PLANE('',#85);
#54=ADVANCED_FACE('',(#20),#52,.T.);
#55=ADVANCED_FACE('',(#21),#19,.F.);
#56=ADVANCED_FACE('',(#22,#16),#53,.T.);
#57=ADVANCED_FACE('',(#23),#15,.F.);
#58=CLOSED_SHELL('',(#54,#55,#56,#57));
#59=DERIVED_UNIT_ELEMENT(#62,1.);
#60=DERIVED_UNIT_ELEMENT(#150,-3.);
#61=DIMENSIONAL_EXPONENTS(0.,1.,0.,0.,0.,0.,0.);
#62=(
CONVERSION_BASED_UNIT('gram',#64)
MASS_UNIT()
NAMED_UNIT(#61)
);
#63=(
MASS_UNIT()
NAMED_UNIT(*)
SI_UNIT(.KILO.,.GRAM.)
);
#64=MASS_MEASURE_WITH_UNIT(MASS_MEASURE(0.001),#63);
#65=DERIVED_UNIT((#59,#60));
#66=MEASURE_REPRESENTATION_ITEM('density measure',
POSITIVE_RATIO_MEASURE(1.),#65);
#67=PROPERTY_DEFINITION_REPRESENTATION(#72,#69);
#68=PROPERTY_DEFINITION_REPRESENTATION(#73,#70);
#69=REPRESENTATION('material name',(#71),#147);
#70=REPRESENTATION('density',(#66),#147);
#71=DESCRIPTIVE_REPRESENTATION_ITEM('Generic','Generic');
#72=PROPERTY_DEFINITION('material property','material name',#157);
#73=PROPERTY_DEFINITION('material property','density of part',#157);
#74=DATE_TIME_ROLE('creation_date');
#75=APPLIED_DATE_AND_TIME_ASSIGNMENT(#76,#74,(#157));
#76=DATE_AND_TIME(#77,#78);
#77=CALENDAR_DATE(2026,9,5);
#78=LOCAL_TIME(0,0,0.,#79);
#79=COORDINATED_UNIVERSAL_TIME_OFFSET(0,0,.BEHIND.);
#80=AXIS2_PLACEMENT_3D('',#105,#88,#89);
#81=AXIS2_PLACEMENT_3D('',#106,#90,#91);
#82=AXIS2_PLACEMENT_3D('',#108,#92,#93);
#83=AXIS2_PLACEMENT_3D('',#109,#94,#95);
#84=AXIS2_PLACEMENT_3D('',#112,#97,#98);
#85=AXIS2_PLACEMENT_3D('',#113,#99,#100);
#86=AXIS2_PLACEMENT_3D('',#115,#101,#102);
#87=AXIS2_PLACEMENT_3D('',#144,#103,#104);
#88=DIRECTION('axis',(0.,0.,1.));
#89=DIRECTION('refdir',(1.,0.,0.));
#90=DIRECTION('center_axis',(0.,0.,-1.));
#91=DIRECTION('ref_axis',(-1.,0.,0.));
#92=DIRECTION('center_axis',(0.,0.,1.));
#93=DIRECTION('ref_axis',(1.,0.,0.));
#94=DIRECTION('center_axis',(0.,0.,1.));
#95=DIRECTION('ref_axis',(0.,1.,0.));
#96=DIRECTION('',(0.,0.,-1.));
#97=DIRECTION('center_axis',(0.,0.,1.));
#98=DIRECTION('ref_axis',(1.,0.,0.));
#99=DIRECTION('center_axis',(0.,0.,-1.));
#100=DIRECTION('ref_axis',(-1.,0.,0.));
#101=DIRECTION('center_axis',(0.,0.,1.));
#102=DIRECTION('ref_axis',(1.,0.,0.));
#103=DIRECTION('center_axis',(1.22464679914735E-16,-1.,0.));
#104=DIRECTION('ref_axis',(-1.,-1.22464679914735E-16,0.));
#105=CARTESIAN_POINT('',(0.,0.,0.));
#106=CARTESIAN_POINT('Origin',(0.,7.50000000000073,-1.77635683940025E-14));
#107=CARTESIAN_POINT('',(9.18485099360604E-16,-7.50000000000073,-1.77635683940025E-14));
#108=CARTESIAN_POINT('Origin',(0.,0.,-1.77635683940025E-14));
#109=CARTESIAN_POINT('Origin',(0.,0.,-2.00000000000001));
#110=CARTESIAN_POINT('',(9.18485099360604E-16,-7.50000000000073,-4.00000000000001));
#111=CARTESIAN_POINT('',(9.18485099360604E-16,-7.50000000000073,-2.00000000000001));
#112=CARTESIAN_POINT('Origin',(0.,0.,-4.00000000000001));
#113=CARTESIAN_POINT('Origin',(0.,17.5000000000007,-4.));
#114=CARTESIAN_POINT('',(-17.5000000000007,-2.14313189850796E-15,-4.));
#115=CARTESIAN_POINT('Origin',(0.,0.,-4.));
#116=CARTESIAN_POINT('Ctrl Pts',(-17.5000000000007,0.,-4.00000000000001));
#117=CARTESIAN_POINT('Ctrl Pts',(-17.5000000000007,-17.5000000000007,-4.00000000000001));
#118=CARTESIAN_POINT('Ctrl Pts',(0.,-17.5000000000007,-4.00000000000001));
#119=CARTESIAN_POINT('Ctrl Pts',(17.5000000000007,-17.5000000000007,-4.00000000000001));
#120=CARTESIAN_POINT('Ctrl Pts',(17.5000000000007,0.,-4.00000000000001));
#121=CARTESIAN_POINT('Ctrl Pts',(17.5000000000007,17.5000000000007,-4.00000000000001));
#122=CARTESIAN_POINT('Ctrl Pts',(0.,17.5000000000007,-4.00000000000001));
#123=CARTESIAN_POINT('Ctrl Pts',(-17.5000000000007,17.5000000000007,-4.00000000000001));
#124=CARTESIAN_POINT('Ctrl Pts',(-17.5000000000007,0.,-4.00000000000001));
#125=CARTESIAN_POINT('Ctrl Pts',(-9.98590504451063,0.,2.58976261127576));
#126=CARTESIAN_POINT('Ctrl Pts',(-9.98590504451063,-9.98590504451063,2.58976261127576));
#127=CARTESIAN_POINT('Ctrl Pts',(0.,-9.98590504451063,2.58976261127577));
#128=CARTESIAN_POINT('Ctrl Pts',(9.98590504451063,-9.98590504451063,2.58976261127577));
#129=CARTESIAN_POINT('Ctrl Pts',(9.98590504451063,0.,2.58976261127577));
#130=CARTESIAN_POINT('Ctrl Pts',(9.98590504451063,9.98590504451063,2.58976261127577));
#131=CARTESIAN_POINT('Ctrl Pts',(0.,9.98590504451063,2.58976261127577));
#132=CARTESIAN_POINT('Ctrl Pts',(-9.98590504451063,9.98590504451063,2.58976261127576));
#133=CARTESIAN_POINT('Ctrl Pts',(-9.98590504451063,0.,2.58976261127576));
#134=CARTESIAN_POINT('Ctrl Pts',(-1.38777878078145E-15,0.,3.));
#135=CARTESIAN_POINT('Ctrl Pts',(-1.38777878078145E-15,-1.38777878078145E-15,
3.));
#136=CARTESIAN_POINT('Ctrl Pts',(0.,-1.38777878078145E-15,3.));
#137=CARTESIAN_POINT('Ctrl Pts',(1.38777878078145E-15,-1.38777878078145E-15,
3.));
#138=CARTESIAN_POINT('Ctrl Pts',(1.38777878078145E-15,0.,3.));
#139=CARTESIAN_POINT('Ctrl Pts',(1.38777878078145E-15,1.38777878078145E-15,
3.));
#140=CARTESIAN_POINT('Ctrl Pts',(0.,1.38777878078145E-15,3.));
#141=CARTESIAN_POINT('Ctrl Pts',(-1.38777878078145E-15,1.38777878078145E-15,
3.));
#142=CARTESIAN_POINT('Ctrl Pts',(-1.38777878078145E-15,0.,3.));
#143=CARTESIAN_POINT('',(0.,0.,3.));
#144=CARTESIAN_POINT('Origin',(1.16176470588304,1.42275142842203E-16,-25.2794117647095));
#145=UNCERTAINTY_MEASURE_WITH_UNIT(LENGTH_MEASURE(0.01),#149,
'DISTANCE_ACCURACY_VALUE',
'Maximum model space distance between geometric entities at asserted c
onnectivities');
#146=UNCERTAINTY_MEASURE_WITH_UNIT(LENGTH_MEASURE(0.01),#149,
'DISTANCE_ACCURACY_VALUE',
'Maximum model space distance between geometric entities at asserted c
onnectivities');
#147=(
GEOMETRIC_REPRESENTATION_CONTEXT(3)
GLOBAL_UNCERTAINTY_ASSIGNED_CONTEXT((#145))
GLOBAL_UNIT_ASSIGNED_CONTEXT((#149,#151,#152))
REPRESENTATION_CONTEXT('','3D')
);
#148=(
GEOMETRIC_REPRESENTATION_CONTEXT(3)
GLOBAL_UNCERTAINTY_ASSIGNED_CONTEXT((#146))
GLOBAL_UNIT_ASSIGNED_CONTEXT((#149,#151,#152))
REPRESENTATION_CONTEXT('','3D')
);
#149=(
LENGTH_UNIT()
NAMED_UNIT(*)
SI_UNIT(.MILLI.,.METRE.)
);
#150=(
LENGTH_UNIT()
NAMED_UNIT(*)
SI_UNIT(.CENTI.,.METRE.)
);
#151=(
NAMED_UNIT(*)
PLANE_ANGLE_UNIT()
SI_UNIT($,.RADIAN.)
);
#152=(
NAMED_UNIT(*)
SI_UNIT($,.STERADIAN.)
SOLID_ANGLE_UNIT()
);
#153=SHAPE_DEFINITION_REPRESENTATION(#154,#155);
#154=PRODUCT_DEFINITION_SHAPE('',$,#157);
#155=SHAPE_REPRESENTATION('',(#80),#147);
#156=PRODUCT_DEFINITION_CONTEXT('part definition',#161,'design');
#157=PRODUCT_DEFINITION('Central_spinner_cap','Central_spinner_cap',#158,
#156);
#158=PRODUCT_DEFINITION_FORMATION('',$,#163);
#159=PRODUCT_RELATED_PRODUCT_CATEGORY('Central_spinner_cap',
'Central_spinner_cap',(#163));
#160=APPLICATION_PROTOCOL_DEFINITION('international standard',
'automotive_design',2009,#161);
#161=APPLICATION_CONTEXT(
'Core Data for Automotive Mechanical Design Process');
#162=PRODUCT_CONTEXT('part definition',#161,'mechanical');
#163=PRODUCT('Central_spinner_cap','Central_spinner_cap',$,(#162));
#164=PRESENTATION_STYLE_ASSIGNMENT((#165));
#165=SURFACE_STYLE_USAGE(.BOTH.,#168);
#166=SURFACE_STYLE_RENDERING_WITH_PROPERTIES($,#172,(#167));
#167=SURFACE_STYLE_TRANSPARENT(0.);
#168=SURFACE_SIDE_STYLE('',(#169,#166));
#169=SURFACE_STYLE_FILL_AREA(#170);
#170=FILL_AREA_STYLE('',(#171));
#171=FILL_AREA_STYLE_COLOUR('',#172);
#172=COLOUR_RGB('',0.749019607843137,0.749019607843137,0.749019607843137);
ENDSEC;
END-ISO-10303-21;
