ISO-10303-21;
HEADER;
/* Generated by software containing ST-Developer
 * from STEP Tools, Inc. (www.steptools.com) 
 */

FILE_DESCRIPTION(
/* description */ (''),
/* implementation_level */ '2;1');

FILE_NAME(
/* name */ 'capFlipperConnectionPoint.stp',
/* time_stamp */ '2026-05-08T13:19:51+02:00',
/* author */ ('sniel'),
/* organization */ (''),
/* preprocessor_version */ 'ST-DEVELOPER v20.1',
/* originating_system */ 'Autodesk Inventor 2026',
/* authorisation */ '');

FILE_SCHEMA (('AUTOMOTIVE_DESIGN { 1 0 10303 214 3 1 1 }'));
ENDSEC;

DATA;
#10=MECHANICAL_DESIGN_GEOMETRIC_PRESENTATION_REPRESENTATION('',(#13),#1576);
#11=SHAPE_REPRESENTATION_RELATIONSHIP('SRR','None',#1583,#12);
#12=ADVANCED_BREP_SHAPE_REPRESENTATION('',(#14),#1575);
#13=STYLED_ITEM('',(#1592),#14);
#14=MANIFOLD_SOLID_BREP('Solid1',#885);
#15=B_SPLINE_CURVE_WITH_KNOTS('',3,(#1439,#1440,#1441,#1442,#1443,#1444,
#1445,#1446,#1447,#1448),.UNSPECIFIED.,.F.,.F.,(4,2,2,2,4),(0.188402145960614,
0.192602855361445,0.385205710722891,0.573924827339127,0.762643943955363),
 .UNSPECIFIED.);
#16=B_SPLINE_CURVE_WITH_KNOTS('',3,(#1450,#1451,#1452,#1453,#1454,#1455,
#1456,#1457,#1458,#1459),.UNSPECIFIED.,.F.,.F.,(4,2,2,2,4),(-0.762643943955363,
-0.573924827339127,-0.385205710722891,-0.192602855361445,-0.188402145960614),
 .UNSPECIFIED.);
#17=B_SPLINE_CURVE_WITH_KNOTS('',3,(#1502,#1503,#1504,#1505,#1506,#1507,
#1508,#1509,#1510,#1511),.UNSPECIFIED.,.F.,.F.,(4,2,2,2,4),(0.970891389241329,
1.15961050585757,1.3483296224738,1.54093247783525,1.54513318723599),
 .UNSPECIFIED.);
#18=B_SPLINE_CURVE_WITH_KNOTS('',3,(#1519,#1520,#1521,#1522,#1523,#1524,
#1525,#1526,#1527,#1528),.UNSPECIFIED.,.F.,.F.,(4,2,2,2,4),(1.9219374791574,
1.92613818855814,2.11874104391958,2.30746016053582,2.49617927715206),
 .UNSPECIFIED.);
#19=FACE_BOUND('',#124,.T.);
#20=FACE_BOUND('',#128,.T.);
#21=FACE_BOUND('',#130,.T.);
#22=FACE_BOUND('',#134,.T.);
#23=FACE_BOUND('',#163,.T.);
#24=FACE_BOUND('',#164,.T.);
#25=FACE_BOUND('',#165,.T.);
#26=FACE_BOUND('',#166,.T.);
#27=PLANE('',#911);
#28=PLANE('',#912);
#29=PLANE('',#913);
#30=PLANE('',#915);
#31=PLANE('',#920);
#32=PLANE('',#921);
#33=PLANE('',#929);
#34=PLANE('',#930);
#35=PLANE('',#938);
#36=PLANE('',#940);
#37=PLANE('',#948);
#38=PLANE('',#952);
#39=PLANE('',#955);
#40=PLANE('',#958);
#41=PLANE('',#961);
#42=PLANE('',#962);
#43=PLANE('',#965);
#44=PLANE('',#968);
#45=PLANE('',#972);
#46=PLANE('',#981);
#47=PLANE('',#985);
#48=PLANE('',#986);
#49=PLANE('',#987);
#50=PLANE('',#991);
#51=PLANE('',#995);
#52=PLANE('',#996);
#53=PLANE('',#997);
#54=PLANE('',#1001);
#55=PLANE('',#1002);
#56=PLANE('',#1006);
#57=PLANE('',#1007);
#58=FACE_OUTER_BOUND('',#112,.T.);
#59=FACE_OUTER_BOUND('',#113,.T.);
#60=FACE_OUTER_BOUND('',#114,.T.);
#61=FACE_OUTER_BOUND('',#115,.T.);
#62=FACE_OUTER_BOUND('',#116,.T.);
#63=FACE_OUTER_BOUND('',#117,.T.);
#64=FACE_OUTER_BOUND('',#118,.T.);
#65=FACE_OUTER_BOUND('',#119,.T.);
#66=FACE_OUTER_BOUND('',#120,.T.);
#67=FACE_OUTER_BOUND('',#121,.T.);
#68=FACE_OUTER_BOUND('',#122,.T.);
#69=FACE_OUTER_BOUND('',#123,.T.);
#70=FACE_OUTER_BOUND('',#125,.T.);
#71=FACE_OUTER_BOUND('',#126,.T.);
#72=FACE_OUTER_BOUND('',#127,.T.);
#73=FACE_OUTER_BOUND('',#129,.T.);
#74=FACE_OUTER_BOUND('',#131,.T.);
#75=FACE_OUTER_BOUND('',#132,.T.);
#76=FACE_OUTER_BOUND('',#133,.T.);
#77=FACE_OUTER_BOUND('',#135,.T.);
#78=FACE_OUTER_BOUND('',#136,.T.);
#79=FACE_OUTER_BOUND('',#137,.T.);
#80=FACE_OUTER_BOUND('',#138,.T.);
#81=FACE_OUTER_BOUND('',#139,.T.);
#82=FACE_OUTER_BOUND('',#140,.T.);
#83=FACE_OUTER_BOUND('',#141,.T.);
#84=FACE_OUTER_BOUND('',#142,.T.);
#85=FACE_OUTER_BOUND('',#143,.T.);
#86=FACE_OUTER_BOUND('',#144,.T.);
#87=FACE_OUTER_BOUND('',#145,.T.);
#88=FACE_OUTER_BOUND('',#146,.T.);
#89=FACE_OUTER_BOUND('',#147,.T.);
#90=FACE_OUTER_BOUND('',#148,.T.);
#91=FACE_OUTER_BOUND('',#149,.T.);
#92=FACE_OUTER_BOUND('',#150,.T.);
#93=FACE_OUTER_BOUND('',#151,.T.);
#94=FACE_OUTER_BOUND('',#152,.T.);
#95=FACE_OUTER_BOUND('',#153,.T.);
#96=FACE_OUTER_BOUND('',#154,.T.);
#97=FACE_OUTER_BOUND('',#155,.T.);
#98=FACE_OUTER_BOUND('',#156,.T.);
#99=FACE_OUTER_BOUND('',#157,.T.);
#100=FACE_OUTER_BOUND('',#158,.T.);
#101=FACE_OUTER_BOUND('',#159,.T.);
#102=FACE_OUTER_BOUND('',#160,.T.);
#103=FACE_OUTER_BOUND('',#161,.T.);
#104=FACE_OUTER_BOUND('',#162,.T.);
#105=FACE_OUTER_BOUND('',#167,.T.);
#106=FACE_OUTER_BOUND('',#168,.T.);
#107=FACE_OUTER_BOUND('',#169,.T.);
#108=FACE_OUTER_BOUND('',#170,.T.);
#109=FACE_OUTER_BOUND('',#171,.T.);
#110=FACE_OUTER_BOUND('',#172,.T.);
#111=FACE_OUTER_BOUND('',#173,.T.);
#112=EDGE_LOOP('',(#564,#565,#566,#567));
#113=EDGE_LOOP('',(#568,#569,#570,#571));
#114=EDGE_LOOP('',(#572,#573,#574,#575));
#115=EDGE_LOOP('',(#576,#577,#578,#579,#580));
#116=EDGE_LOOP('',(#581,#582,#583,#584,#585));
#117=EDGE_LOOP('',(#586,#587,#588,#589));
#118=EDGE_LOOP('',(#590,#591,#592,#593,#594,#595,#596));
#119=EDGE_LOOP('',(#597,#598,#599,#600));
#120=EDGE_LOOP('',(#601,#602,#603,#604));
#121=EDGE_LOOP('',(#605,#606,#607,#608,#609));
#122=EDGE_LOOP('',(#610,#611,#612,#613));
#123=EDGE_LOOP('',(#614));
#124=EDGE_LOOP('',(#615));
#125=EDGE_LOOP('',(#616,#617,#618,#619));
#126=EDGE_LOOP('',(#620,#621,#622,#623));
#127=EDGE_LOOP('',(#624));
#128=EDGE_LOOP('',(#625));
#129=EDGE_LOOP('',(#626));
#130=EDGE_LOOP('',(#627));
#131=EDGE_LOOP('',(#628,#629,#630,#631));
#132=EDGE_LOOP('',(#632,#633,#634,#635));
#133=EDGE_LOOP('',(#636));
#134=EDGE_LOOP('',(#637));
#135=EDGE_LOOP('',(#638,#639,#640,#641));
#136=EDGE_LOOP('',(#642));
#137=EDGE_LOOP('',(#643,#644,#645,#646));
#138=EDGE_LOOP('',(#647));
#139=EDGE_LOOP('',(#648,#649,#650,#651));
#140=EDGE_LOOP('',(#652));
#141=EDGE_LOOP('',(#653,#654,#655,#656));
#142=EDGE_LOOP('',(#657));
#143=EDGE_LOOP('',(#658,#659,#660,#661,#662,#663));
#144=EDGE_LOOP('',(#664,#665,#666,#667));
#145=EDGE_LOOP('',(#668,#669,#670,#671,#672,#673,#674,#675));
#146=EDGE_LOOP('',(#676,#677,#678,#679));
#147=EDGE_LOOP('',(#680,#681));
#148=EDGE_LOOP('',(#682,#683,#684,#685,#686,#687));
#149=EDGE_LOOP('',(#688,#689,#690,#691));
#150=EDGE_LOOP('',(#692,#693,#694,#695,#696));
#151=EDGE_LOOP('',(#697,#698,#699,#700));
#152=EDGE_LOOP('',(#701,#702,#703,#704,#705,#706));
#153=EDGE_LOOP('',(#707,#708,#709,#710));
#154=EDGE_LOOP('',(#711,#712,#713,#714));
#155=EDGE_LOOP('',(#715,#716,#717,#718));
#156=EDGE_LOOP('',(#719,#720,#721,#722,#723,#724,#725,#726));
#157=EDGE_LOOP('',(#727,#728,#729,#730,#731,#732,#733,#734));
#158=EDGE_LOOP('',(#735,#736,#737,#738,#739,#740));
#159=EDGE_LOOP('',(#741,#742));
#160=EDGE_LOOP('',(#743,#744,#745,#746,#747,#748));
#161=EDGE_LOOP('',(#749,#750,#751,#752));
#162=EDGE_LOOP('',(#753,#754,#755,#756,#757,#758,#759,#760,#761,#762,#763,
#764));
#163=EDGE_LOOP('',(#765));
#164=EDGE_LOOP('',(#766));
#165=EDGE_LOOP('',(#767));
#166=EDGE_LOOP('',(#768));
#167=EDGE_LOOP('',(#769,#770,#771,#772,#773,#774,#775));
#168=EDGE_LOOP('',(#776,#777,#778,#779));
#169=EDGE_LOOP('',(#780,#781,#782,#783));
#170=EDGE_LOOP('',(#784,#785,#786,#787));
#171=EDGE_LOOP('',(#788,#789,#790,#791));
#172=EDGE_LOOP('',(#792,#793,#794,#795,#796,#797,#798,#799));
#173=EDGE_LOOP('',(#800,#801,#802,#803,#804,#805,#806,#807));
#174=LINE('',#1288,#246);
#175=LINE('',#1291,#247);
#176=LINE('',#1294,#248);
#177=LINE('',#1296,#249);
#178=LINE('',#1297,#250);
#179=LINE('',#1300,#251);
#180=LINE('',#1302,#252);
#181=LINE('',#1303,#253);
#182=LINE('',#1306,#254);
#183=LINE('',#1310,#255);
#184=LINE('',#1311,#256);
#185=LINE('',#1314,#257);
#186=LINE('',#1316,#258);
#187=LINE('',#1319,#259);
#188=LINE('',#1325,#260);
#189=LINE('',#1328,#261);
#190=LINE('',#1331,#262);
#191=LINE('',#1332,#263);
#192=LINE('',#1334,#264);
#193=LINE('',#1336,#265);
#194=LINE('',#1338,#266);
#195=LINE('',#1339,#267);
#196=LINE('',#1347,#268);
#197=LINE('',#1350,#269);
#198=LINE('',#1354,#270);
#199=LINE('',#1357,#271);
#200=LINE('',#1365,#272);
#201=LINE('',#1371,#273);
#202=LINE('',#1383,#274);
#203=LINE('',#1389,#275);
#204=LINE('',#1396,#276);
#205=LINE('',#1401,#277);
#206=LINE('',#1406,#278);
#207=LINE('',#1411,#279);
#208=LINE('',#1416,#280);
#209=LINE('',#1417,#281);
#210=LINE('',#1420,#282);
#211=LINE('',#1423,#283);
#212=LINE('',#1426,#284);
#213=LINE('',#1427,#285);
#214=LINE('',#1430,#286);
#215=LINE('',#1435,#287);
#216=LINE('',#1461,#288);
#217=LINE('',#1464,#289);
#218=LINE('',#1466,#290);
#219=LINE('',#1467,#291);
#220=LINE('',#1474,#292);
#221=LINE('',#1480,#293);
#222=LINE('',#1484,#294);
#223=LINE('',#1486,#295);
#224=LINE('',#1487,#296);
#225=LINE('',#1493,#297);
#226=LINE('',#1495,#298);
#227=LINE('',#1496,#299);
#228=LINE('',#1498,#300);
#229=LINE('',#1513,#301);
#230=LINE('',#1517,#302);
#231=LINE('',#1531,#303);
#232=LINE('',#1536,#304);
#233=LINE('',#1539,#305);
#234=LINE('',#1542,#306);
#235=LINE('',#1543,#307);
#236=LINE('',#1546,#308);
#237=LINE('',#1548,#309);
#238=LINE('',#1549,#310);
#239=LINE('',#1554,#311);
#240=LINE('',#1558,#312);
#241=LINE('',#1560,#313);
#242=LINE('',#1561,#314);
#243=LINE('',#1564,#315);
#244=LINE('',#1566,#316);
#245=LINE('',#1567,#317);
#246=VECTOR('',#1014,10.);
#247=VECTOR('',#1017,10.);
#248=VECTOR('',#1020,10.);
#249=VECTOR('',#1021,10.);
#250=VECTOR('',#1022,10.);
#251=VECTOR('',#1025,10.);
#252=VECTOR('',#1026,10.);
#253=VECTOR('',#1027,10.);
#254=VECTOR('',#1030,10.);
#255=VECTOR('',#1033,10.);
#256=VECTOR('',#1034,10.);
#257=VECTOR('',#1037,10.);
#258=VECTOR('',#1038,10.);
#259=VECTOR('',#1041,10.);
#260=VECTOR('',#1046,10.);
#261=VECTOR('',#1049,10.);
#262=VECTOR('',#1052,10.);
#263=VECTOR('',#1053,10.);
#264=VECTOR('',#1054,10.);
#265=VECTOR('',#1055,10.);
#266=VECTOR('',#1056,10.);
#267=VECTOR('',#1057,10.);
#268=VECTOR('',#1066,10.);
#269=VECTOR('',#1069,10.);
#270=VECTOR('',#1074,10.);
#271=VECTOR('',#1079,10.);
#272=VECTOR('',#1088,4.);
#273=VECTOR('',#1095,4.);
#274=VECTOR('',#1110,4.);
#275=VECTOR('',#1117,4.);
#276=VECTOR('',#1126,2.5);
#277=VECTOR('',#1133,2.5);
#278=VECTOR('',#1140,2.5);
#279=VECTOR('',#1147,2.5);
#280=VECTOR('',#1154,10.);
#281=VECTOR('',#1155,10.);
#282=VECTOR('',#1158,10.);
#283=VECTOR('',#1161,10.);
#284=VECTOR('',#1164,10.);
#285=VECTOR('',#1165,10.);
#286=VECTOR('',#1168,10.);
#287=VECTOR('',#1173,10.);
#288=VECTOR('',#1178,10.);
#289=VECTOR('',#1181,10.);
#290=VECTOR('',#1184,10.);
#291=VECTOR('',#1185,10.);
#292=VECTOR('',#1194,10.);
#293=VECTOR('',#1201,10.);
#294=VECTOR('',#1206,10.);
#295=VECTOR('',#1207,10.);
#296=VECTOR('',#1208,10.);
#297=VECTOR('',#1215,10.);
#298=VECTOR('',#1218,10.);
#299=VECTOR('',#1219,10.);
#300=VECTOR('',#1222,10.);
#301=VECTOR('',#1227,10.);
#302=VECTOR('',#1230,10.);
#303=VECTOR('',#1235,10.);
#304=VECTOR('',#1240,10.);
#305=VECTOR('',#1245,10.);
#306=VECTOR('',#1248,10.);
#307=VECTOR('',#1249,10.);
#308=VECTOR('',#1252,10.);
#309=VECTOR('',#1253,10.);
#310=VECTOR('',#1254,10.);
#311=VECTOR('',#1259,10.);
#312=VECTOR('',#1264,10.);
#313=VECTOR('',#1265,10.);
#314=VECTOR('',#1266,10.);
#315=VECTOR('',#1269,10.);
#316=VECTOR('',#1270,10.);
#317=VECTOR('',#1271,10.);
#318=CIRCLE('',#909,138.402881050555);
#319=CIRCLE('',#910,138.402881050555);
#320=CIRCLE('',#914,5.);
#321=CIRCLE('',#916,4.99999999999998);
#322=CIRCLE('',#918,1.);
#323=CIRCLE('',#919,1.);
#324=CIRCLE('',#922,7.49999999999997);
#325=CIRCLE('',#924,1.);
#326=CIRCLE('',#925,1.);
#327=CIRCLE('',#927,7.49999999999997);
#328=CIRCLE('',#928,7.49999999999996);
#329=CIRCLE('',#931,4.);
#330=CIRCLE('',#932,2.5);
#331=CIRCLE('',#934,4.);
#332=CIRCLE('',#936,4.);
#333=CIRCLE('',#937,4.);
#334=CIRCLE('',#939,2.5);
#335=CIRCLE('',#941,4.);
#336=CIRCLE('',#942,2.5);
#337=CIRCLE('',#944,4.);
#338=CIRCLE('',#946,4.);
#339=CIRCLE('',#947,4.);
#340=CIRCLE('',#949,2.5);
#341=CIRCLE('',#951,2.5);
#342=CIRCLE('',#954,2.5);
#343=CIRCLE('',#957,2.5);
#344=CIRCLE('',#960,2.5);
#345=CIRCLE('',#964,5.);
#346=CIRCLE('',#967,4.99999999999998);
#347=CIRCLE('',#969,5.);
#348=CIRCLE('',#971,5.);
#349=CIRCLE('',#974,7.49999999999997);
#350=CIRCLE('',#976,7.49999999999997);
#351=CIRCLE('',#977,7.49999999999997);
#352=CIRCLE('',#979,7.49999999999997);
#353=CIRCLE('',#980,7.49999999999997);
#354=CIRCLE('',#983,5.24999999999998);
#355=CIRCLE('',#984,5.24999999999998);
#356=CIRCLE('',#989,5.);
#357=CIRCLE('',#990,5.);
#358=CIRCLE('',#993,7.49999999999996);
#359=CIRCLE('',#994,7.49999999999996);
#360=CIRCLE('',#999,7.49999999999996);
#361=CIRCLE('',#1000,7.49999999999996);
#362=CIRCLE('',#1004,5.24999999999997);
#363=CIRCLE('',#1005,5.24999999999997);
#364=VERTEX_POINT('',#1284);
#365=VERTEX_POINT('',#1285);
#366=VERTEX_POINT('',#1287);
#367=VERTEX_POINT('',#1289);
#368=VERTEX_POINT('',#1293);
#369=VERTEX_POINT('',#1295);
#370=VERTEX_POINT('',#1299);
#371=VERTEX_POINT('',#1301);
#372=VERTEX_POINT('',#1305);
#373=VERTEX_POINT('',#1307);
#374=VERTEX_POINT('',#1309);
#375=VERTEX_POINT('',#1313);
#376=VERTEX_POINT('',#1315);
#377=VERTEX_POINT('',#1317);
#378=VERTEX_POINT('',#1321);
#379=VERTEX_POINT('',#1322);
#380=VERTEX_POINT('',#1324);
#381=VERTEX_POINT('',#1326);
#382=VERTEX_POINT('',#1330);
#383=VERTEX_POINT('',#1333);
#384=VERTEX_POINT('',#1335);
#385=VERTEX_POINT('',#1337);
#386=VERTEX_POINT('',#1343);
#387=VERTEX_POINT('',#1344);
#388=VERTEX_POINT('',#1346);
#389=VERTEX_POINT('',#1348);
#390=VERTEX_POINT('',#1353);
#391=VERTEX_POINT('',#1359);
#392=VERTEX_POINT('',#1361);
#393=VERTEX_POINT('',#1364);
#394=VERTEX_POINT('',#1368);
#395=VERTEX_POINT('',#1370);
#396=VERTEX_POINT('',#1374);
#397=VERTEX_POINT('',#1377);
#398=VERTEX_POINT('',#1379);
#399=VERTEX_POINT('',#1382);
#400=VERTEX_POINT('',#1386);
#401=VERTEX_POINT('',#1388);
#402=VERTEX_POINT('',#1392);
#403=VERTEX_POINT('',#1395);
#404=VERTEX_POINT('',#1400);
#405=VERTEX_POINT('',#1405);
#406=VERTEX_POINT('',#1410);
#407=VERTEX_POINT('',#1415);
#408=VERTEX_POINT('',#1419);
#409=VERTEX_POINT('',#1421);
#410=VERTEX_POINT('',#1425);
#411=VERTEX_POINT('',#1429);
#412=VERTEX_POINT('',#1433);
#413=VERTEX_POINT('',#1434);
#414=VERTEX_POINT('',#1438);
#415=VERTEX_POINT('',#1449);
#416=VERTEX_POINT('',#1460);
#417=VERTEX_POINT('',#1462);
#418=VERTEX_POINT('',#1471);
#419=VERTEX_POINT('',#1473);
#420=VERTEX_POINT('',#1477);
#421=VERTEX_POINT('',#1479);
#422=VERTEX_POINT('',#1483);
#423=VERTEX_POINT('',#1485);
#424=VERTEX_POINT('',#1489);
#425=VERTEX_POINT('',#1491);
#426=VERTEX_POINT('',#1501);
#427=VERTEX_POINT('',#1512);
#428=VERTEX_POINT('',#1514);
#429=VERTEX_POINT('',#1516);
#430=VERTEX_POINT('',#1518);
#431=VERTEX_POINT('',#1533);
#432=VERTEX_POINT('',#1535);
#433=VERTEX_POINT('',#1541);
#434=VERTEX_POINT('',#1545);
#435=VERTEX_POINT('',#1547);
#436=VERTEX_POINT('',#1551);
#437=VERTEX_POINT('',#1553);
#438=VERTEX_POINT('',#1557);
#439=VERTEX_POINT('',#1559);
#440=VERTEX_POINT('',#1563);
#441=VERTEX_POINT('',#1565);
#442=EDGE_CURVE('',#364,#365,#318,.T.);
#443=EDGE_CURVE('',#364,#366,#174,.T.);
#444=EDGE_CURVE('',#367,#366,#319,.T.);
#445=EDGE_CURVE('',#365,#367,#175,.T.);
#446=EDGE_CURVE('',#365,#368,#176,.T.);
#447=EDGE_CURVE('',#369,#367,#177,.T.);
#448=EDGE_CURVE('',#368,#369,#178,.T.);
#449=EDGE_CURVE('',#370,#364,#179,.T.);
#450=EDGE_CURVE('',#371,#370,#180,.T.);
#451=EDGE_CURVE('',#366,#371,#181,.T.);
#452=EDGE_CURVE('',#369,#372,#182,.T.);
#453=EDGE_CURVE('',#372,#373,#320,.T.);
#454=EDGE_CURVE('',#373,#374,#183,.T.);
#455=EDGE_CURVE('',#368,#374,#184,.T.);
#456=EDGE_CURVE('',#375,#370,#185,.T.);
#457=EDGE_CURVE('',#376,#375,#186,.T.);
#458=EDGE_CURVE('',#376,#377,#321,.T.);
#459=EDGE_CURVE('',#377,#371,#187,.T.);
#460=EDGE_CURVE('',#378,#379,#322,.T.);
#461=EDGE_CURVE('',#379,#380,#188,.T.);
#462=EDGE_CURVE('',#380,#381,#323,.F.);
#463=EDGE_CURVE('',#381,#378,#189,.T.);
#464=EDGE_CURVE('',#380,#382,#190,.T.);
#465=EDGE_CURVE('',#370,#379,#191,.T.);
#466=EDGE_CURVE('',#383,#370,#192,.T.);
#467=EDGE_CURVE('',#384,#383,#193,.T.);
#468=EDGE_CURVE('',#385,#384,#194,.T.);
#469=EDGE_CURVE('',#382,#385,#195,.T.);
#470=EDGE_CURVE('',#378,#375,#324,.T.);
#471=EDGE_CURVE('',#386,#387,#325,.T.);
#472=EDGE_CURVE('',#387,#388,#196,.T.);
#473=EDGE_CURVE('',#389,#388,#326,.T.);
#474=EDGE_CURVE('',#389,#386,#197,.T.);
#475=EDGE_CURVE('',#374,#387,#327,.T.);
#476=EDGE_CURVE('',#390,#373,#198,.T.);
#477=EDGE_CURVE('',#388,#390,#328,.T.);
#478=EDGE_CURVE('',#386,#368,#199,.T.);
#479=EDGE_CURVE('',#391,#391,#329,.T.);
#480=EDGE_CURVE('',#392,#392,#330,.T.);
#481=EDGE_CURVE('',#391,#393,#200,.T.);
#482=EDGE_CURVE('',#393,#393,#331,.T.);
#483=EDGE_CURVE('',#394,#394,#332,.T.);
#484=EDGE_CURVE('',#394,#395,#201,.T.);
#485=EDGE_CURVE('',#395,#395,#333,.T.);
#486=EDGE_CURVE('',#396,#396,#334,.T.);
#487=EDGE_CURVE('',#397,#397,#335,.T.);
#488=EDGE_CURVE('',#398,#398,#336,.T.);
#489=EDGE_CURVE('',#397,#399,#202,.T.);
#490=EDGE_CURVE('',#399,#399,#337,.T.);
#491=EDGE_CURVE('',#400,#400,#338,.T.);
#492=EDGE_CURVE('',#400,#401,#203,.T.);
#493=EDGE_CURVE('',#401,#401,#339,.T.);
#494=EDGE_CURVE('',#402,#402,#340,.T.);
#495=EDGE_CURVE('',#392,#403,#204,.T.);
#496=EDGE_CURVE('',#403,#403,#341,.T.);
#497=EDGE_CURVE('',#396,#404,#205,.T.);
#498=EDGE_CURVE('',#404,#404,#342,.T.);
#499=EDGE_CURVE('',#398,#405,#206,.T.);
#500=EDGE_CURVE('',#405,#405,#343,.T.);
#501=EDGE_CURVE('',#402,#406,#207,.T.);
#502=EDGE_CURVE('',#406,#406,#344,.T.);
#503=EDGE_CURVE('',#368,#407,#208,.T.);
#504=EDGE_CURVE('',#383,#407,#209,.T.);
#505=EDGE_CURVE('',#408,#372,#210,.T.);
#506=EDGE_CURVE('',#409,#408,#345,.T.);
#507=EDGE_CURVE('',#373,#409,#211,.T.);
#508=EDGE_CURVE('',#410,#377,#212,.T.);
#509=EDGE_CURVE('',#408,#410,#213,.T.);
#510=EDGE_CURVE('',#411,#376,#214,.T.);
#511=EDGE_CURVE('',#410,#411,#346,.T.);
#512=EDGE_CURVE('',#412,#413,#215,.T.);
#513=EDGE_CURVE('',#412,#413,#347,.T.);
#514=EDGE_CURVE('',#413,#414,#15,.T.);
#515=EDGE_CURVE('',#415,#412,#16,.T.);
#516=EDGE_CURVE('',#416,#415,#216,.T.);
#517=EDGE_CURVE('',#417,#416,#348,.T.);
#518=EDGE_CURVE('',#414,#417,#217,.T.);
#519=EDGE_CURVE('',#414,#376,#218,.T.);
#520=EDGE_CURVE('',#417,#411,#219,.T.);
#521=EDGE_CURVE('',#414,#381,#349,.T.);
#522=EDGE_CURVE('',#418,#385,#350,.T.);
#523=EDGE_CURVE('',#418,#419,#220,.T.);
#524=EDGE_CURVE('',#382,#419,#351,.T.);
#525=EDGE_CURVE('',#420,#414,#352,.T.);
#526=EDGE_CURVE('',#421,#420,#221,.T.);
#527=EDGE_CURVE('',#415,#421,#353,.T.);
#528=EDGE_CURVE('',#421,#422,#222,.T.);
#529=EDGE_CURVE('',#423,#420,#223,.T.);
#530=EDGE_CURVE('',#422,#423,#224,.T.);
#531=EDGE_CURVE('',#422,#424,#354,.T.);
#532=EDGE_CURVE('',#425,#423,#355,.T.);
#533=EDGE_CURVE('',#424,#425,#225,.T.);
#534=EDGE_CURVE('',#424,#418,#226,.T.);
#535=EDGE_CURVE('',#419,#425,#227,.T.);
#536=EDGE_CURVE('',#384,#416,#228,.T.);
#537=EDGE_CURVE('',#390,#426,#17,.T.);
#538=EDGE_CURVE('',#427,#390,#229,.T.);
#539=EDGE_CURVE('',#428,#427,#356,.T.);
#540=EDGE_CURVE('',#429,#428,#230,.T.);
#541=EDGE_CURVE('',#430,#429,#18,.T.);
#542=EDGE_CURVE('',#426,#430,#357,.T.);
#543=EDGE_CURVE('',#426,#430,#231,.T.);
#544=EDGE_CURVE('',#431,#429,#358,.T.);
#545=EDGE_CURVE('',#431,#432,#232,.T.);
#546=EDGE_CURVE('',#390,#432,#359,.T.);
#547=EDGE_CURVE('',#427,#409,#233,.T.);
#548=EDGE_CURVE('',#428,#433,#234,.T.);
#549=EDGE_CURVE('',#433,#407,#235,.T.);
#550=EDGE_CURVE('',#434,#389,#236,.T.);
#551=EDGE_CURVE('',#435,#434,#237,.T.);
#552=EDGE_CURVE('',#433,#435,#238,.T.);
#553=EDGE_CURVE('',#436,#434,#360,.T.);
#554=EDGE_CURVE('',#437,#436,#239,.T.);
#555=EDGE_CURVE('',#435,#437,#361,.T.);
#556=EDGE_CURVE('',#438,#431,#240,.T.);
#557=EDGE_CURVE('',#438,#439,#241,.T.);
#558=EDGE_CURVE('',#432,#439,#242,.T.);
#559=EDGE_CURVE('',#437,#440,#243,.T.);
#560=EDGE_CURVE('',#441,#436,#244,.T.);
#561=EDGE_CURVE('',#440,#441,#245,.T.);
#562=EDGE_CURVE('',#440,#438,#362,.T.);
#563=EDGE_CURVE('',#439,#441,#363,.T.);
#564=ORIENTED_EDGE('',*,*,#442,.F.);
#565=ORIENTED_EDGE('',*,*,#443,.T.);
#566=ORIENTED_EDGE('',*,*,#444,.F.);
#567=ORIENTED_EDGE('',*,*,#445,.F.);
#568=ORIENTED_EDGE('',*,*,#446,.F.);
#569=ORIENTED_EDGE('',*,*,#445,.T.);
#570=ORIENTED_EDGE('',*,*,#447,.F.);
#571=ORIENTED_EDGE('',*,*,#448,.F.);
#572=ORIENTED_EDGE('',*,*,#449,.F.);
#573=ORIENTED_EDGE('',*,*,#450,.F.);
#574=ORIENTED_EDGE('',*,*,#451,.F.);
#575=ORIENTED_EDGE('',*,*,#443,.F.);
#576=ORIENTED_EDGE('',*,*,#448,.T.);
#577=ORIENTED_EDGE('',*,*,#452,.T.);
#578=ORIENTED_EDGE('',*,*,#453,.T.);
#579=ORIENTED_EDGE('',*,*,#454,.T.);
#580=ORIENTED_EDGE('',*,*,#455,.F.);
#581=ORIENTED_EDGE('',*,*,#450,.T.);
#582=ORIENTED_EDGE('',*,*,#456,.F.);
#583=ORIENTED_EDGE('',*,*,#457,.F.);
#584=ORIENTED_EDGE('',*,*,#458,.T.);
#585=ORIENTED_EDGE('',*,*,#459,.T.);
#586=ORIENTED_EDGE('',*,*,#460,.T.);
#587=ORIENTED_EDGE('',*,*,#461,.T.);
#588=ORIENTED_EDGE('',*,*,#462,.T.);
#589=ORIENTED_EDGE('',*,*,#463,.T.);
#590=ORIENTED_EDGE('',*,*,#464,.F.);
#591=ORIENTED_EDGE('',*,*,#461,.F.);
#592=ORIENTED_EDGE('',*,*,#465,.F.);
#593=ORIENTED_EDGE('',*,*,#466,.F.);
#594=ORIENTED_EDGE('',*,*,#467,.F.);
#595=ORIENTED_EDGE('',*,*,#468,.F.);
#596=ORIENTED_EDGE('',*,*,#469,.F.);
#597=ORIENTED_EDGE('',*,*,#460,.F.);
#598=ORIENTED_EDGE('',*,*,#470,.T.);
#599=ORIENTED_EDGE('',*,*,#456,.T.);
#600=ORIENTED_EDGE('',*,*,#465,.T.);
#601=ORIENTED_EDGE('',*,*,#471,.T.);
#602=ORIENTED_EDGE('',*,*,#472,.T.);
#603=ORIENTED_EDGE('',*,*,#473,.F.);
#604=ORIENTED_EDGE('',*,*,#474,.T.);
#605=ORIENTED_EDGE('',*,*,#472,.F.);
#606=ORIENTED_EDGE('',*,*,#475,.F.);
#607=ORIENTED_EDGE('',*,*,#454,.F.);
#608=ORIENTED_EDGE('',*,*,#476,.F.);
#609=ORIENTED_EDGE('',*,*,#477,.F.);
#610=ORIENTED_EDGE('',*,*,#471,.F.);
#611=ORIENTED_EDGE('',*,*,#478,.T.);
#612=ORIENTED_EDGE('',*,*,#455,.T.);
#613=ORIENTED_EDGE('',*,*,#475,.T.);
#614=ORIENTED_EDGE('',*,*,#479,.T.);
#615=ORIENTED_EDGE('',*,*,#480,.F.);
#616=ORIENTED_EDGE('',*,*,#479,.F.);
#617=ORIENTED_EDGE('',*,*,#481,.T.);
#618=ORIENTED_EDGE('',*,*,#482,.F.);
#619=ORIENTED_EDGE('',*,*,#481,.F.);
#620=ORIENTED_EDGE('',*,*,#483,.F.);
#621=ORIENTED_EDGE('',*,*,#484,.T.);
#622=ORIENTED_EDGE('',*,*,#485,.F.);
#623=ORIENTED_EDGE('',*,*,#484,.F.);
#624=ORIENTED_EDGE('',*,*,#483,.T.);
#625=ORIENTED_EDGE('',*,*,#486,.F.);
#626=ORIENTED_EDGE('',*,*,#487,.T.);
#627=ORIENTED_EDGE('',*,*,#488,.F.);
#628=ORIENTED_EDGE('',*,*,#487,.F.);
#629=ORIENTED_EDGE('',*,*,#489,.T.);
#630=ORIENTED_EDGE('',*,*,#490,.F.);
#631=ORIENTED_EDGE('',*,*,#489,.F.);
#632=ORIENTED_EDGE('',*,*,#491,.F.);
#633=ORIENTED_EDGE('',*,*,#492,.T.);
#634=ORIENTED_EDGE('',*,*,#493,.F.);
#635=ORIENTED_EDGE('',*,*,#492,.F.);
#636=ORIENTED_EDGE('',*,*,#491,.T.);
#637=ORIENTED_EDGE('',*,*,#494,.F.);
#638=ORIENTED_EDGE('',*,*,#480,.T.);
#639=ORIENTED_EDGE('',*,*,#495,.T.);
#640=ORIENTED_EDGE('',*,*,#496,.F.);
#641=ORIENTED_EDGE('',*,*,#495,.F.);
#642=ORIENTED_EDGE('',*,*,#482,.T.);
#643=ORIENTED_EDGE('',*,*,#486,.T.);
#644=ORIENTED_EDGE('',*,*,#497,.T.);
#645=ORIENTED_EDGE('',*,*,#498,.F.);
#646=ORIENTED_EDGE('',*,*,#497,.F.);
#647=ORIENTED_EDGE('',*,*,#485,.T.);
#648=ORIENTED_EDGE('',*,*,#488,.T.);
#649=ORIENTED_EDGE('',*,*,#499,.T.);
#650=ORIENTED_EDGE('',*,*,#500,.F.);
#651=ORIENTED_EDGE('',*,*,#499,.F.);
#652=ORIENTED_EDGE('',*,*,#490,.T.);
#653=ORIENTED_EDGE('',*,*,#494,.T.);
#654=ORIENTED_EDGE('',*,*,#501,.T.);
#655=ORIENTED_EDGE('',*,*,#502,.F.);
#656=ORIENTED_EDGE('',*,*,#501,.F.);
#657=ORIENTED_EDGE('',*,*,#493,.T.);
#658=ORIENTED_EDGE('',*,*,#503,.T.);
#659=ORIENTED_EDGE('',*,*,#504,.F.);
#660=ORIENTED_EDGE('',*,*,#466,.T.);
#661=ORIENTED_EDGE('',*,*,#449,.T.);
#662=ORIENTED_EDGE('',*,*,#442,.T.);
#663=ORIENTED_EDGE('',*,*,#446,.T.);
#664=ORIENTED_EDGE('',*,*,#453,.F.);
#665=ORIENTED_EDGE('',*,*,#505,.F.);
#666=ORIENTED_EDGE('',*,*,#506,.F.);
#667=ORIENTED_EDGE('',*,*,#507,.F.);
#668=ORIENTED_EDGE('',*,*,#459,.F.);
#669=ORIENTED_EDGE('',*,*,#508,.F.);
#670=ORIENTED_EDGE('',*,*,#509,.F.);
#671=ORIENTED_EDGE('',*,*,#505,.T.);
#672=ORIENTED_EDGE('',*,*,#452,.F.);
#673=ORIENTED_EDGE('',*,*,#447,.T.);
#674=ORIENTED_EDGE('',*,*,#444,.T.);
#675=ORIENTED_EDGE('',*,*,#451,.T.);
#676=ORIENTED_EDGE('',*,*,#458,.F.);
#677=ORIENTED_EDGE('',*,*,#510,.F.);
#678=ORIENTED_EDGE('',*,*,#511,.F.);
#679=ORIENTED_EDGE('',*,*,#508,.T.);
#680=ORIENTED_EDGE('',*,*,#512,.F.);
#681=ORIENTED_EDGE('',*,*,#513,.T.);
#682=ORIENTED_EDGE('',*,*,#514,.F.);
#683=ORIENTED_EDGE('',*,*,#513,.F.);
#684=ORIENTED_EDGE('',*,*,#515,.F.);
#685=ORIENTED_EDGE('',*,*,#516,.F.);
#686=ORIENTED_EDGE('',*,*,#517,.F.);
#687=ORIENTED_EDGE('',*,*,#518,.F.);
#688=ORIENTED_EDGE('',*,*,#510,.T.);
#689=ORIENTED_EDGE('',*,*,#519,.F.);
#690=ORIENTED_EDGE('',*,*,#518,.T.);
#691=ORIENTED_EDGE('',*,*,#520,.T.);
#692=ORIENTED_EDGE('',*,*,#463,.F.);
#693=ORIENTED_EDGE('',*,*,#521,.F.);
#694=ORIENTED_EDGE('',*,*,#519,.T.);
#695=ORIENTED_EDGE('',*,*,#457,.T.);
#696=ORIENTED_EDGE('',*,*,#470,.F.);
#697=ORIENTED_EDGE('',*,*,#469,.T.);
#698=ORIENTED_EDGE('',*,*,#522,.F.);
#699=ORIENTED_EDGE('',*,*,#523,.T.);
#700=ORIENTED_EDGE('',*,*,#524,.F.);
#701=ORIENTED_EDGE('',*,*,#514,.T.);
#702=ORIENTED_EDGE('',*,*,#525,.F.);
#703=ORIENTED_EDGE('',*,*,#526,.F.);
#704=ORIENTED_EDGE('',*,*,#527,.F.);
#705=ORIENTED_EDGE('',*,*,#515,.T.);
#706=ORIENTED_EDGE('',*,*,#512,.T.);
#707=ORIENTED_EDGE('',*,*,#528,.F.);
#708=ORIENTED_EDGE('',*,*,#526,.T.);
#709=ORIENTED_EDGE('',*,*,#529,.F.);
#710=ORIENTED_EDGE('',*,*,#530,.F.);
#711=ORIENTED_EDGE('',*,*,#531,.F.);
#712=ORIENTED_EDGE('',*,*,#530,.T.);
#713=ORIENTED_EDGE('',*,*,#532,.F.);
#714=ORIENTED_EDGE('',*,*,#533,.F.);
#715=ORIENTED_EDGE('',*,*,#534,.F.);
#716=ORIENTED_EDGE('',*,*,#533,.T.);
#717=ORIENTED_EDGE('',*,*,#535,.F.);
#718=ORIENTED_EDGE('',*,*,#523,.F.);
#719=ORIENTED_EDGE('',*,*,#522,.T.);
#720=ORIENTED_EDGE('',*,*,#468,.T.);
#721=ORIENTED_EDGE('',*,*,#536,.T.);
#722=ORIENTED_EDGE('',*,*,#516,.T.);
#723=ORIENTED_EDGE('',*,*,#527,.T.);
#724=ORIENTED_EDGE('',*,*,#528,.T.);
#725=ORIENTED_EDGE('',*,*,#531,.T.);
#726=ORIENTED_EDGE('',*,*,#534,.T.);
#727=ORIENTED_EDGE('',*,*,#525,.T.);
#728=ORIENTED_EDGE('',*,*,#521,.T.);
#729=ORIENTED_EDGE('',*,*,#462,.F.);
#730=ORIENTED_EDGE('',*,*,#464,.T.);
#731=ORIENTED_EDGE('',*,*,#524,.T.);
#732=ORIENTED_EDGE('',*,*,#535,.T.);
#733=ORIENTED_EDGE('',*,*,#532,.T.);
#734=ORIENTED_EDGE('',*,*,#529,.T.);
#735=ORIENTED_EDGE('',*,*,#537,.F.);
#736=ORIENTED_EDGE('',*,*,#538,.F.);
#737=ORIENTED_EDGE('',*,*,#539,.F.);
#738=ORIENTED_EDGE('',*,*,#540,.F.);
#739=ORIENTED_EDGE('',*,*,#541,.F.);
#740=ORIENTED_EDGE('',*,*,#542,.F.);
#741=ORIENTED_EDGE('',*,*,#543,.F.);
#742=ORIENTED_EDGE('',*,*,#542,.T.);
#743=ORIENTED_EDGE('',*,*,#537,.T.);
#744=ORIENTED_EDGE('',*,*,#543,.T.);
#745=ORIENTED_EDGE('',*,*,#541,.T.);
#746=ORIENTED_EDGE('',*,*,#544,.F.);
#747=ORIENTED_EDGE('',*,*,#545,.T.);
#748=ORIENTED_EDGE('',*,*,#546,.F.);
#749=ORIENTED_EDGE('',*,*,#507,.T.);
#750=ORIENTED_EDGE('',*,*,#547,.F.);
#751=ORIENTED_EDGE('',*,*,#538,.T.);
#752=ORIENTED_EDGE('',*,*,#476,.T.);
#753=ORIENTED_EDGE('',*,*,#548,.F.);
#754=ORIENTED_EDGE('',*,*,#539,.T.);
#755=ORIENTED_EDGE('',*,*,#547,.T.);
#756=ORIENTED_EDGE('',*,*,#506,.T.);
#757=ORIENTED_EDGE('',*,*,#509,.T.);
#758=ORIENTED_EDGE('',*,*,#511,.T.);
#759=ORIENTED_EDGE('',*,*,#520,.F.);
#760=ORIENTED_EDGE('',*,*,#517,.T.);
#761=ORIENTED_EDGE('',*,*,#536,.F.);
#762=ORIENTED_EDGE('',*,*,#467,.T.);
#763=ORIENTED_EDGE('',*,*,#504,.T.);
#764=ORIENTED_EDGE('',*,*,#549,.F.);
#765=ORIENTED_EDGE('',*,*,#496,.T.);
#766=ORIENTED_EDGE('',*,*,#498,.T.);
#767=ORIENTED_EDGE('',*,*,#500,.T.);
#768=ORIENTED_EDGE('',*,*,#502,.T.);
#769=ORIENTED_EDGE('',*,*,#550,.F.);
#770=ORIENTED_EDGE('',*,*,#551,.F.);
#771=ORIENTED_EDGE('',*,*,#552,.F.);
#772=ORIENTED_EDGE('',*,*,#549,.T.);
#773=ORIENTED_EDGE('',*,*,#503,.F.);
#774=ORIENTED_EDGE('',*,*,#478,.F.);
#775=ORIENTED_EDGE('',*,*,#474,.F.);
#776=ORIENTED_EDGE('',*,*,#551,.T.);
#777=ORIENTED_EDGE('',*,*,#553,.F.);
#778=ORIENTED_EDGE('',*,*,#554,.F.);
#779=ORIENTED_EDGE('',*,*,#555,.F.);
#780=ORIENTED_EDGE('',*,*,#556,.F.);
#781=ORIENTED_EDGE('',*,*,#557,.T.);
#782=ORIENTED_EDGE('',*,*,#558,.F.);
#783=ORIENTED_EDGE('',*,*,#545,.F.);
#784=ORIENTED_EDGE('',*,*,#559,.F.);
#785=ORIENTED_EDGE('',*,*,#554,.T.);
#786=ORIENTED_EDGE('',*,*,#560,.F.);
#787=ORIENTED_EDGE('',*,*,#561,.F.);
#788=ORIENTED_EDGE('',*,*,#562,.F.);
#789=ORIENTED_EDGE('',*,*,#561,.T.);
#790=ORIENTED_EDGE('',*,*,#563,.F.);
#791=ORIENTED_EDGE('',*,*,#557,.F.);
#792=ORIENTED_EDGE('',*,*,#562,.T.);
#793=ORIENTED_EDGE('',*,*,#556,.T.);
#794=ORIENTED_EDGE('',*,*,#544,.T.);
#795=ORIENTED_EDGE('',*,*,#540,.T.);
#796=ORIENTED_EDGE('',*,*,#548,.T.);
#797=ORIENTED_EDGE('',*,*,#552,.T.);
#798=ORIENTED_EDGE('',*,*,#555,.T.);
#799=ORIENTED_EDGE('',*,*,#559,.T.);
#800=ORIENTED_EDGE('',*,*,#563,.T.);
#801=ORIENTED_EDGE('',*,*,#560,.T.);
#802=ORIENTED_EDGE('',*,*,#553,.T.);
#803=ORIENTED_EDGE('',*,*,#550,.T.);
#804=ORIENTED_EDGE('',*,*,#473,.T.);
#805=ORIENTED_EDGE('',*,*,#477,.T.);
#806=ORIENTED_EDGE('',*,*,#546,.T.);
#807=ORIENTED_EDGE('',*,*,#558,.T.);
#808=CYLINDRICAL_SURFACE('',#908,138.402881050555);
#809=CYLINDRICAL_SURFACE('',#917,1.);
#810=CYLINDRICAL_SURFACE('',#923,1.);
#811=CYLINDRICAL_SURFACE('',#926,7.49999999999997);
#812=CYLINDRICAL_SURFACE('',#933,4.);
#813=CYLINDRICAL_SURFACE('',#935,4.);
#814=CYLINDRICAL_SURFACE('',#943,4.);
#815=CYLINDRICAL_SURFACE('',#945,4.);
#816=CYLINDRICAL_SURFACE('',#950,2.5);
#817=CYLINDRICAL_SURFACE('',#953,2.5);
#818=CYLINDRICAL_SURFACE('',#956,2.5);
#819=CYLINDRICAL_SURFACE('',#959,2.5);
#820=CYLINDRICAL_SURFACE('',#963,5.);
#821=CYLINDRICAL_SURFACE('',#966,4.99999999999998);
#822=CYLINDRICAL_SURFACE('',#970,5.);
#823=CYLINDRICAL_SURFACE('',#973,7.49999999999997);
#824=CYLINDRICAL_SURFACE('',#975,7.49999999999997);
#825=CYLINDRICAL_SURFACE('',#978,7.49999999999997);
#826=CYLINDRICAL_SURFACE('',#982,5.24999999999998);
#827=CYLINDRICAL_SURFACE('',#988,5.);
#828=CYLINDRICAL_SURFACE('',#992,7.49999999999996);
#829=CYLINDRICAL_SURFACE('',#998,7.49999999999996);
#830=CYLINDRICAL_SURFACE('',#1003,5.24999999999997);
#831=ADVANCED_FACE('',(#58),#808,.F.);
#832=ADVANCED_FACE('',(#59),#27,.T.);
#833=ADVANCED_FACE('',(#60),#28,.T.);
#834=ADVANCED_FACE('',(#61),#29,.F.);
#835=ADVANCED_FACE('',(#62),#30,.F.);
#836=ADVANCED_FACE('',(#63),#809,.T.);
#837=ADVANCED_FACE('',(#64),#31,.T.);
#838=ADVANCED_FACE('',(#65),#32,.F.);
#839=ADVANCED_FACE('',(#66),#810,.T.);
#840=ADVANCED_FACE('',(#67),#811,.F.);
#841=ADVANCED_FACE('',(#68),#33,.F.);
#842=ADVANCED_FACE('',(#69,#19),#34,.F.);
#843=ADVANCED_FACE('',(#70),#812,.T.);
#844=ADVANCED_FACE('',(#71),#813,.T.);
#845=ADVANCED_FACE('',(#72,#20),#35,.F.);
#846=ADVANCED_FACE('',(#73,#21),#36,.F.);
#847=ADVANCED_FACE('',(#74),#814,.T.);
#848=ADVANCED_FACE('',(#75),#815,.T.);
#849=ADVANCED_FACE('',(#76,#22),#37,.F.);
#850=ADVANCED_FACE('',(#77),#816,.T.);
#851=ADVANCED_FACE('',(#78),#38,.T.);
#852=ADVANCED_FACE('',(#79),#817,.T.);
#853=ADVANCED_FACE('',(#80),#39,.T.);
#854=ADVANCED_FACE('',(#81),#818,.T.);
#855=ADVANCED_FACE('',(#82),#40,.T.);
#856=ADVANCED_FACE('',(#83),#819,.T.);
#857=ADVANCED_FACE('',(#84),#41,.T.);
#858=ADVANCED_FACE('',(#85),#42,.T.);
#859=ADVANCED_FACE('',(#86),#820,.T.);
#860=ADVANCED_FACE('',(#87),#43,.T.);
#861=ADVANCED_FACE('',(#88),#821,.T.);
#862=ADVANCED_FACE('',(#89),#44,.F.);
#863=ADVANCED_FACE('',(#90),#822,.T.);
#864=ADVANCED_FACE('',(#91),#45,.T.);
#865=ADVANCED_FACE('',(#92),#823,.F.);
#866=ADVANCED_FACE('',(#93),#824,.T.);
#867=ADVANCED_FACE('',(#94),#825,.T.);
#868=ADVANCED_FACE('',(#95),#46,.T.);
#869=ADVANCED_FACE('',(#96),#826,.F.);
#870=ADVANCED_FACE('',(#97),#47,.T.);
#871=ADVANCED_FACE('',(#98),#48,.T.);
#872=ADVANCED_FACE('',(#99),#49,.F.);
#873=ADVANCED_FACE('',(#100),#827,.T.);
#874=ADVANCED_FACE('',(#101),#50,.F.);
#875=ADVANCED_FACE('',(#102),#828,.T.);
#876=ADVANCED_FACE('',(#103),#51,.T.);
#877=ADVANCED_FACE('',(#104,#23,#24,#25,#26),#52,.T.);
#878=ADVANCED_FACE('',(#105),#53,.T.);
#879=ADVANCED_FACE('',(#106),#829,.T.);
#880=ADVANCED_FACE('',(#107),#54,.T.);
#881=ADVANCED_FACE('',(#108),#55,.T.);
#882=ADVANCED_FACE('',(#109),#830,.F.);
#883=ADVANCED_FACE('',(#110),#56,.T.);
#884=ADVANCED_FACE('',(#111),#57,.F.);
#885=CLOSED_SHELL('',(#831,#832,#833,#834,#835,#836,#837,#838,#839,#840,
#841,#842,#843,#844,#845,#846,#847,#848,#849,#850,#851,#852,#853,#854,#855,
#856,#857,#858,#859,#860,#861,#862,#863,#864,#865,#866,#867,#868,#869,#870,
#871,#872,#873,#874,#875,#876,#877,#878,#879,#880,#881,#882,#883,#884));
#886=DERIVED_UNIT_ELEMENT(#889,1.);
#887=DERIVED_UNIT_ELEMENT(#1578,-3.);
#888=DIMENSIONAL_EXPONENTS(0.,1.,0.,0.,0.,0.,0.);
#889=(
CONVERSION_BASED_UNIT('gram',#891)
MASS_UNIT()
NAMED_UNIT(#888)
);
#890=(
MASS_UNIT()
NAMED_UNIT(*)
SI_UNIT(.KILO.,.GRAM.)
);
#891=MASS_MEASURE_WITH_UNIT(MASS_MEASURE(0.001),#890);
#892=DERIVED_UNIT((#886,#887));
#893=MEASURE_REPRESENTATION_ITEM('density measure',
POSITIVE_RATIO_MEASURE(1.),#892);
#894=PROPERTY_DEFINITION_REPRESENTATION(#899,#896);
#895=PROPERTY_DEFINITION_REPRESENTATION(#900,#897);
#896=REPRESENTATION('material name',(#898),#1575);
#897=REPRESENTATION('density',(#893),#1575);
#898=DESCRIPTIVE_REPRESENTATION_ITEM('Generic','Generic');
#899=PROPERTY_DEFINITION('material property','material name',#1585);
#900=PROPERTY_DEFINITION('material property','density of part',#1585);
#901=DATE_TIME_ROLE('creation_date');
#902=APPLIED_DATE_AND_TIME_ASSIGNMENT(#903,#901,(#1585));
#903=DATE_AND_TIME(#904,#905);
#904=CALENDAR_DATE(2026,8,5);
#905=LOCAL_TIME(0,0,0.,#906);
#906=COORDINATED_UNIVERSAL_TIME_OFFSET(0,0,.BEHIND.);
#907=AXIS2_PLACEMENT_3D('',#1282,#1008,#1009);
#908=AXIS2_PLACEMENT_3D('',#1283,#1010,#1011);
#909=AXIS2_PLACEMENT_3D('',#1286,#1012,#1013);
#910=AXIS2_PLACEMENT_3D('',#1290,#1015,#1016);
#911=AXIS2_PLACEMENT_3D('',#1292,#1018,#1019);
#912=AXIS2_PLACEMENT_3D('',#1298,#1023,#1024);
#913=AXIS2_PLACEMENT_3D('',#1304,#1028,#1029);
#914=AXIS2_PLACEMENT_3D('',#1308,#1031,#1032);
#915=AXIS2_PLACEMENT_3D('',#1312,#1035,#1036);
#916=AXIS2_PLACEMENT_3D('',#1318,#1039,#1040);
#917=AXIS2_PLACEMENT_3D('',#1320,#1042,#1043);
#918=AXIS2_PLACEMENT_3D('',#1323,#1044,#1045);
#919=AXIS2_PLACEMENT_3D('',#1327,#1047,#1048);
#920=AXIS2_PLACEMENT_3D('',#1329,#1050,#1051);
#921=AXIS2_PLACEMENT_3D('',#1340,#1058,#1059);
#922=AXIS2_PLACEMENT_3D('',#1341,#1060,#1061);
#923=AXIS2_PLACEMENT_3D('',#1342,#1062,#1063);
#924=AXIS2_PLACEMENT_3D('',#1345,#1064,#1065);
#925=AXIS2_PLACEMENT_3D('',#1349,#1067,#1068);
#926=AXIS2_PLACEMENT_3D('',#1351,#1070,#1071);
#927=AXIS2_PLACEMENT_3D('',#1352,#1072,#1073);
#928=AXIS2_PLACEMENT_3D('',#1355,#1075,#1076);
#929=AXIS2_PLACEMENT_3D('',#1356,#1077,#1078);
#930=AXIS2_PLACEMENT_3D('',#1358,#1080,#1081);
#931=AXIS2_PLACEMENT_3D('',#1360,#1082,#1083);
#932=AXIS2_PLACEMENT_3D('',#1362,#1084,#1085);
#933=AXIS2_PLACEMENT_3D('',#1363,#1086,#1087);
#934=AXIS2_PLACEMENT_3D('',#1366,#1089,#1090);
#935=AXIS2_PLACEMENT_3D('',#1367,#1091,#1092);
#936=AXIS2_PLACEMENT_3D('',#1369,#1093,#1094);
#937=AXIS2_PLACEMENT_3D('',#1372,#1096,#1097);
#938=AXIS2_PLACEMENT_3D('',#1373,#1098,#1099);
#939=AXIS2_PLACEMENT_3D('',#1375,#1100,#1101);
#940=AXIS2_PLACEMENT_3D('',#1376,#1102,#1103);
#941=AXIS2_PLACEMENT_3D('',#1378,#1104,#1105);
#942=AXIS2_PLACEMENT_3D('',#1380,#1106,#1107);
#943=AXIS2_PLACEMENT_3D('',#1381,#1108,#1109);
#944=AXIS2_PLACEMENT_3D('',#1384,#1111,#1112);
#945=AXIS2_PLACEMENT_3D('',#1385,#1113,#1114);
#946=AXIS2_PLACEMENT_3D('',#1387,#1115,#1116);
#947=AXIS2_PLACEMENT_3D('',#1390,#1118,#1119);
#948=AXIS2_PLACEMENT_3D('',#1391,#1120,#1121);
#949=AXIS2_PLACEMENT_3D('',#1393,#1122,#1123);
#950=AXIS2_PLACEMENT_3D('',#1394,#1124,#1125);
#951=AXIS2_PLACEMENT_3D('',#1397,#1127,#1128);
#952=AXIS2_PLACEMENT_3D('',#1398,#1129,#1130);
#953=AXIS2_PLACEMENT_3D('',#1399,#1131,#1132);
#954=AXIS2_PLACEMENT_3D('',#1402,#1134,#1135);
#955=AXIS2_PLACEMENT_3D('',#1403,#1136,#1137);
#956=AXIS2_PLACEMENT_3D('',#1404,#1138,#1139);
#957=AXIS2_PLACEMENT_3D('',#1407,#1141,#1142);
#958=AXIS2_PLACEMENT_3D('',#1408,#1143,#1144);
#959=AXIS2_PLACEMENT_3D('',#1409,#1145,#1146);
#960=AXIS2_PLACEMENT_3D('',#1412,#1148,#1149);
#961=AXIS2_PLACEMENT_3D('',#1413,#1150,#1151);
#962=AXIS2_PLACEMENT_3D('',#1414,#1152,#1153);
#963=AXIS2_PLACEMENT_3D('',#1418,#1156,#1157);
#964=AXIS2_PLACEMENT_3D('',#1422,#1159,#1160);
#965=AXIS2_PLACEMENT_3D('',#1424,#1162,#1163);
#966=AXIS2_PLACEMENT_3D('',#1428,#1166,#1167);
#967=AXIS2_PLACEMENT_3D('',#1431,#1169,#1170);
#968=AXIS2_PLACEMENT_3D('',#1432,#1171,#1172);
#969=AXIS2_PLACEMENT_3D('',#1436,#1174,#1175);
#970=AXIS2_PLACEMENT_3D('',#1437,#1176,#1177);
#971=AXIS2_PLACEMENT_3D('',#1463,#1179,#1180);
#972=AXIS2_PLACEMENT_3D('',#1465,#1182,#1183);
#973=AXIS2_PLACEMENT_3D('',#1468,#1186,#1187);
#974=AXIS2_PLACEMENT_3D('',#1469,#1188,#1189);
#975=AXIS2_PLACEMENT_3D('',#1470,#1190,#1191);
#976=AXIS2_PLACEMENT_3D('',#1472,#1192,#1193);
#977=AXIS2_PLACEMENT_3D('',#1475,#1195,#1196);
#978=AXIS2_PLACEMENT_3D('',#1476,#1197,#1198);
#979=AXIS2_PLACEMENT_3D('',#1478,#1199,#1200);
#980=AXIS2_PLACEMENT_3D('',#1481,#1202,#1203);
#981=AXIS2_PLACEMENT_3D('',#1482,#1204,#1205);
#982=AXIS2_PLACEMENT_3D('',#1488,#1209,#1210);
#983=AXIS2_PLACEMENT_3D('',#1490,#1211,#1212);
#984=AXIS2_PLACEMENT_3D('',#1492,#1213,#1214);
#985=AXIS2_PLACEMENT_3D('',#1494,#1216,#1217);
#986=AXIS2_PLACEMENT_3D('',#1497,#1220,#1221);
#987=AXIS2_PLACEMENT_3D('',#1499,#1223,#1224);
#988=AXIS2_PLACEMENT_3D('',#1500,#1225,#1226);
#989=AXIS2_PLACEMENT_3D('',#1515,#1228,#1229);
#990=AXIS2_PLACEMENT_3D('',#1529,#1231,#1232);
#991=AXIS2_PLACEMENT_3D('',#1530,#1233,#1234);
#992=AXIS2_PLACEMENT_3D('',#1532,#1236,#1237);
#993=AXIS2_PLACEMENT_3D('',#1534,#1238,#1239);
#994=AXIS2_PLACEMENT_3D('',#1537,#1241,#1242);
#995=AXIS2_PLACEMENT_3D('',#1538,#1243,#1244);
#996=AXIS2_PLACEMENT_3D('',#1540,#1246,#1247);
#997=AXIS2_PLACEMENT_3D('',#1544,#1250,#1251);
#998=AXIS2_PLACEMENT_3D('',#1550,#1255,#1256);
#999=AXIS2_PLACEMENT_3D('',#1552,#1257,#1258);
#1000=AXIS2_PLACEMENT_3D('',#1555,#1260,#1261);
#1001=AXIS2_PLACEMENT_3D('',#1556,#1262,#1263);
#1002=AXIS2_PLACEMENT_3D('',#1562,#1267,#1268);
#1003=AXIS2_PLACEMENT_3D('',#1568,#1272,#1273);
#1004=AXIS2_PLACEMENT_3D('',#1569,#1274,#1275);
#1005=AXIS2_PLACEMENT_3D('',#1570,#1276,#1277);
#1006=AXIS2_PLACEMENT_3D('',#1571,#1278,#1279);
#1007=AXIS2_PLACEMENT_3D('',#1572,#1280,#1281);
#1008=DIRECTION('axis',(0.,0.,1.));
#1009=DIRECTION('refdir',(1.,0.,0.));
#1010=DIRECTION('center_axis',(0.,-1.,0.));
#1011=DIRECTION('ref_axis',(1.,0.,3.87433820873583E-15));
#1012=DIRECTION('center_axis',(0.,-1.,0.));
#1013=DIRECTION('ref_axis',(-1.,0.,0.));
#1014=DIRECTION('',(0.,-1.,0.));
#1015=DIRECTION('center_axis',(0.,1.,0.));
#1016=DIRECTION('ref_axis',(-1.,0.,0.));
#1017=DIRECTION('',(0.,-1.,0.));
#1018=DIRECTION('center_axis',(-0.262006241583937,0.,0.965066178752038));
#1019=DIRECTION('ref_axis',(-0.965066178752038,0.,-0.262006241583937));
#1020=DIRECTION('',(0.965066178752038,0.,0.262006241583937));
#1021=DIRECTION('',(-0.965066178752038,0.,-0.262006241583937));
#1022=DIRECTION('',(0.,-1.,0.));
#1023=DIRECTION('center_axis',(-0.262006241583841,0.,-0.965066178752064));
#1024=DIRECTION('ref_axis',(0.965066178752064,0.,-0.262006241583841));
#1025=DIRECTION('',(-0.965066178752064,0.,0.262006241583841));
#1026=DIRECTION('',(0.,1.,0.));
#1027=DIRECTION('',(0.965066178752064,0.,-0.262006241583841));
#1028=DIRECTION('center_axis',(1.,0.,0.));
#1029=DIRECTION('ref_axis',(0.,0.,-1.));
#1030=DIRECTION('',(0.,0.,1.));
#1031=DIRECTION('center_axis',(-1.,0.,0.));
#1032=DIRECTION('ref_axis',(0.,0.,-1.));
#1033=DIRECTION('',(0.,-1.,0.));
#1034=DIRECTION('',(0.,0.,1.));
#1035=DIRECTION('center_axis',(1.,0.,0.));
#1036=DIRECTION('ref_axis',(0.,0.,-1.));
#1037=DIRECTION('',(0.,0.,1.));
#1038=DIRECTION('',(0.,-1.,0.));
#1039=DIRECTION('center_axis',(-1.,0.,0.));
#1040=DIRECTION('ref_axis',(0.,0.,-1.));
#1041=DIRECTION('',(0.,0.,1.));
#1042=DIRECTION('center_axis',(0.,-1.,0.));
#1043=DIRECTION('ref_axis',(-0.933432295598832,0.,0.35875360560292));
#1044=DIRECTION('center_axis',(0.,1.,0.));
#1045=DIRECTION('ref_axis',(-0.933432295598832,0.,0.35875360560292));
#1046=DIRECTION('',(0.,1.,0.));
#1047=DIRECTION('center_axis',(0.,1.,0.));
#1048=DIRECTION('ref_axis',(-0.933432295598832,0.,0.35875360560292));
#1049=DIRECTION('',(0.,-1.,0.));
#1050=DIRECTION('center_axis',(0.,0.,1.));
#1051=DIRECTION('ref_axis',(-1.,0.,0.));
#1052=DIRECTION('',(-1.,0.,0.));
#1053=DIRECTION('',(-1.,0.,0.));
#1054=DIRECTION('',(-1.,0.,0.));
#1055=DIRECTION('',(0.,-1.,0.));
#1056=DIRECTION('',(1.,0.,0.));
#1057=DIRECTION('',(0.,1.,0.));
#1058=DIRECTION('center_axis',(0.,1.,0.));
#1059=DIRECTION('ref_axis',(0.,0.,1.));
#1060=DIRECTION('center_axis',(0.,1.,0.));
#1061=DIRECTION('ref_axis',(0.222479969885147,0.,-0.974937261058323));
#1062=DIRECTION('center_axis',(0.,-1.,0.));
#1063=DIRECTION('ref_axis',(-0.933432295598833,0.,-0.358753605602918));
#1064=DIRECTION('center_axis',(0.,1.,0.));
#1065=DIRECTION('ref_axis',(-0.933432295598833,0.,-0.358753605602918));
#1066=DIRECTION('',(0.,1.,0.));
#1067=DIRECTION('center_axis',(0.,1.,0.));
#1068=DIRECTION('ref_axis',(-0.933432295598833,0.,-0.358753605602918));
#1069=DIRECTION('',(0.,-1.,0.));
#1070=DIRECTION('center_axis',(0.,-1.,0.));
#1071=DIRECTION('ref_axis',(0.565728521170192,0.,-0.824591559703704));
#1072=DIRECTION('center_axis',(0.,1.,0.));
#1073=DIRECTION('ref_axis',(0.565728521170192,0.,-0.824591559703704));
#1074=DIRECTION('',(0.,-1.,0.));
#1075=DIRECTION('center_axis',(0.,-1.,0.));
#1076=DIRECTION('ref_axis',(-1.,0.,0.));
#1077=DIRECTION('center_axis',(0.,1.,0.));
#1078=DIRECTION('ref_axis',(0.,0.,1.));
#1079=DIRECTION('',(1.,0.,0.));
#1080=DIRECTION('center_axis',(1.,0.,0.));
#1081=DIRECTION('ref_axis',(0.,0.,-1.));
#1082=DIRECTION('center_axis',(-1.,0.,0.));
#1083=DIRECTION('ref_axis',(0.,0.,-1.));
#1084=DIRECTION('center_axis',(-1.,0.,0.));
#1085=DIRECTION('ref_axis',(0.,0.,-1.));
#1086=DIRECTION('center_axis',(-1.,0.,0.));
#1087=DIRECTION('ref_axis',(0.,0.,-1.));
#1088=DIRECTION('',(1.,0.,0.));
#1089=DIRECTION('center_axis',(1.,0.,0.));
#1090=DIRECTION('ref_axis',(0.,0.,-1.));
#1091=DIRECTION('center_axis',(-1.,0.,0.));
#1092=DIRECTION('ref_axis',(0.,0.,-1.));
#1093=DIRECTION('center_axis',(-1.,0.,0.));
#1094=DIRECTION('ref_axis',(0.,0.,-1.));
#1095=DIRECTION('',(1.,0.,0.));
#1096=DIRECTION('center_axis',(1.,0.,0.));
#1097=DIRECTION('ref_axis',(0.,0.,-1.));
#1098=DIRECTION('center_axis',(1.,0.,0.));
#1099=DIRECTION('ref_axis',(0.,0.,-1.));
#1100=DIRECTION('center_axis',(-1.,0.,0.));
#1101=DIRECTION('ref_axis',(0.,0.,-1.));
#1102=DIRECTION('center_axis',(1.,0.,0.));
#1103=DIRECTION('ref_axis',(0.,0.,-1.));
#1104=DIRECTION('center_axis',(-1.,0.,0.));
#1105=DIRECTION('ref_axis',(0.,0.,-1.));
#1106=DIRECTION('center_axis',(-1.,0.,0.));
#1107=DIRECTION('ref_axis',(0.,0.,-1.));
#1108=DIRECTION('center_axis',(-1.,0.,0.));
#1109=DIRECTION('ref_axis',(0.,0.,-1.));
#1110=DIRECTION('',(1.,0.,0.));
#1111=DIRECTION('center_axis',(1.,0.,0.));
#1112=DIRECTION('ref_axis',(0.,0.,-1.));
#1113=DIRECTION('center_axis',(-1.,0.,0.));
#1114=DIRECTION('ref_axis',(0.,0.,-1.));
#1115=DIRECTION('center_axis',(-1.,0.,0.));
#1116=DIRECTION('ref_axis',(0.,0.,-1.));
#1117=DIRECTION('',(1.,0.,0.));
#1118=DIRECTION('center_axis',(1.,0.,0.));
#1119=DIRECTION('ref_axis',(0.,0.,-1.));
#1120=DIRECTION('center_axis',(1.,0.,0.));
#1121=DIRECTION('ref_axis',(0.,0.,-1.));
#1122=DIRECTION('center_axis',(-1.,0.,0.));
#1123=DIRECTION('ref_axis',(0.,0.,-1.));
#1124=DIRECTION('center_axis',(1.,0.,0.));
#1125=DIRECTION('ref_axis',(0.,0.,-1.));
#1126=DIRECTION('',(-1.,0.,0.));
#1127=DIRECTION('center_axis',(-1.,0.,0.));
#1128=DIRECTION('ref_axis',(0.,0.,-1.));
#1129=DIRECTION('center_axis',(1.,0.,0.));
#1130=DIRECTION('ref_axis',(0.,0.,-1.));
#1131=DIRECTION('center_axis',(1.,0.,0.));
#1132=DIRECTION('ref_axis',(0.,0.,-1.));
#1133=DIRECTION('',(-1.,0.,0.));
#1134=DIRECTION('center_axis',(-1.,0.,0.));
#1135=DIRECTION('ref_axis',(0.,0.,-1.));
#1136=DIRECTION('center_axis',(1.,0.,0.));
#1137=DIRECTION('ref_axis',(0.,0.,-1.));
#1138=DIRECTION('center_axis',(1.,0.,0.));
#1139=DIRECTION('ref_axis',(0.,0.,-1.));
#1140=DIRECTION('',(-1.,0.,0.));
#1141=DIRECTION('center_axis',(-1.,0.,0.));
#1142=DIRECTION('ref_axis',(0.,0.,-1.));
#1143=DIRECTION('center_axis',(1.,0.,0.));
#1144=DIRECTION('ref_axis',(0.,0.,-1.));
#1145=DIRECTION('center_axis',(1.,0.,0.));
#1146=DIRECTION('ref_axis',(0.,0.,-1.));
#1147=DIRECTION('',(-1.,0.,0.));
#1148=DIRECTION('center_axis',(-1.,0.,0.));
#1149=DIRECTION('ref_axis',(0.,0.,-1.));
#1150=DIRECTION('center_axis',(1.,0.,0.));
#1151=DIRECTION('ref_axis',(0.,0.,-1.));
#1152=DIRECTION('center_axis',(0.,1.,0.));
#1153=DIRECTION('ref_axis',(0.,0.,-1.));
#1154=DIRECTION('',(1.,0.,0.));
#1155=DIRECTION('',(0.,0.,1.));
#1156=DIRECTION('center_axis',(-1.,0.,0.));
#1157=DIRECTION('ref_axis',(0.,-1.22464679914735E-16,1.));
#1158=DIRECTION('',(-1.,0.,0.));
#1159=DIRECTION('center_axis',(1.,0.,0.));
#1160=DIRECTION('ref_axis',(0.,0.,-1.));
#1161=DIRECTION('',(1.,0.,0.));
#1162=DIRECTION('center_axis',(0.,-1.,0.));
#1163=DIRECTION('ref_axis',(0.,0.,1.));
#1164=DIRECTION('',(-1.,0.,0.));
#1165=DIRECTION('',(0.,0.,-1.));
#1166=DIRECTION('center_axis',(-1.,0.,0.));
#1167=DIRECTION('ref_axis',(0.,0.,-1.));
#1168=DIRECTION('',(-1.,0.,0.));
#1169=DIRECTION('center_axis',(1.,0.,0.));
#1170=DIRECTION('ref_axis',(0.,0.,-1.));
#1171=DIRECTION('center_axis',(1.,0.,0.));
#1172=DIRECTION('ref_axis',(0.,0.,-1.));
#1173=DIRECTION('',(0.,-1.,0.));
#1174=DIRECTION('center_axis',(-1.,0.,0.));
#1175=DIRECTION('ref_axis',(0.,0.,-1.));
#1176=DIRECTION('center_axis',(-1.,0.,0.));
#1177=DIRECTION('ref_axis',(0.,0.,-1.));
#1178=DIRECTION('',(-1.,0.,0.));
#1179=DIRECTION('center_axis',(1.,0.,0.));
#1180=DIRECTION('ref_axis',(0.,0.,-1.));
#1181=DIRECTION('',(1.,0.,0.));
#1182=DIRECTION('center_axis',(0.,0.,-1.));
#1183=DIRECTION('ref_axis',(1.,0.,0.));
#1184=DIRECTION('',(0.,-1.,0.));
#1185=DIRECTION('',(0.,-1.,0.));
#1186=DIRECTION('center_axis',(0.,-1.,0.));
#1187=DIRECTION('ref_axis',(0.222479969885147,0.,-0.974937261058323));
#1188=DIRECTION('center_axis',(0.,-1.,0.));
#1189=DIRECTION('ref_axis',(-0.532217806512034,0.,0.846607468920231));
#1190=DIRECTION('center_axis',(0.,-1.,0.));
#1191=DIRECTION('ref_axis',(-0.532217806512034,0.,0.846607468920231));
#1192=DIRECTION('center_axis',(0.,1.,0.));
#1193=DIRECTION('ref_axis',(-0.532217806512034,0.,0.846607468920231));
#1194=DIRECTION('',(0.,-1.,0.));
#1195=DIRECTION('center_axis',(0.,-1.,0.));
#1196=DIRECTION('ref_axis',(-0.532217806512034,0.,0.846607468920231));
#1197=DIRECTION('center_axis',(0.,-1.,0.));
#1198=DIRECTION('ref_axis',(0.598339584332551,0.,-0.801242623567137));
#1199=DIRECTION('center_axis',(0.,-1.,0.));
#1200=DIRECTION('ref_axis',(-0.532217806512034,0.,0.846607468920231));
#1201=DIRECTION('',(0.,-1.,0.));
#1202=DIRECTION('center_axis',(0.,1.,0.));
#1203=DIRECTION('ref_axis',(-0.532217806512034,0.,0.846607468920231));
#1204=DIRECTION('center_axis',(-0.982290257780899,0.,0.187365550378759));
#1205=DIRECTION('ref_axis',(-0.187365550378759,0.,-0.982290257780899));
#1206=DIRECTION('',(0.187365550378759,0.,0.982290257780899));
#1207=DIRECTION('',(-0.187365550378759,0.,-0.982290257780899));
#1208=DIRECTION('',(0.,-1.,0.));
#1209=DIRECTION('center_axis',(0.,-1.,0.));
#1210=DIRECTION('ref_axis',(0.88110341641458,0.,-0.472923640329552));
#1211=DIRECTION('center_axis',(0.,-1.,0.));
#1212=DIRECTION('ref_axis',(0.88110341641458,0.,-0.472923640329552));
#1213=DIRECTION('center_axis',(0.,1.,0.));
#1214=DIRECTION('ref_axis',(0.88110341641458,0.,-0.472923640329552));
#1215=DIRECTION('',(0.,-1.,0.));
#1216=DIRECTION('center_axis',(-0.982290257780899,0.,0.187365550378759));
#1217=DIRECTION('ref_axis',(-0.187365550378759,0.,-0.982290257780899));
#1218=DIRECTION('',(0.187365550378759,0.,0.982290257780899));
#1219=DIRECTION('',(-0.187365550378759,0.,-0.982290257780899));
#1220=DIRECTION('center_axis',(0.,1.,0.));
#1221=DIRECTION('ref_axis',(0.,0.,1.));
#1222=DIRECTION('',(0.,0.,-1.));
#1223=DIRECTION('center_axis',(0.,1.,0.));
#1224=DIRECTION('ref_axis',(0.,0.,1.));
#1225=DIRECTION('center_axis',(-1.,0.,0.));
#1226=DIRECTION('ref_axis',(0.,-1.22464679914735E-16,1.));
#1227=DIRECTION('',(-1.,0.,0.));
#1228=DIRECTION('center_axis',(1.,0.,0.));
#1229=DIRECTION('ref_axis',(0.,0.,-1.));
#1230=DIRECTION('',(1.,0.,0.));
#1231=DIRECTION('center_axis',(-1.,0.,0.));
#1232=DIRECTION('ref_axis',(0.,0.,-1.));
#1233=DIRECTION('center_axis',(1.,0.,0.));
#1234=DIRECTION('ref_axis',(0.,0.,-1.));
#1235=DIRECTION('',(0.,1.,0.));
#1236=DIRECTION('center_axis',(0.,-1.,0.));
#1237=DIRECTION('ref_axis',(0.598339584332466,0.,0.801242623567201));
#1238=DIRECTION('center_axis',(0.,1.,0.));
#1239=DIRECTION('ref_axis',(-1.,0.,0.));
#1240=DIRECTION('',(0.,-1.,0.));
#1241=DIRECTION('center_axis',(0.,-1.,0.));
#1242=DIRECTION('ref_axis',(-1.,0.,0.));
#1243=DIRECTION('center_axis',(0.,0.,1.));
#1244=DIRECTION('ref_axis',(-1.,0.,0.));
#1245=DIRECTION('',(0.,-1.,0.));
#1246=DIRECTION('center_axis',(1.,0.,0.));
#1247=DIRECTION('ref_axis',(0.,0.,1.));
#1248=DIRECTION('',(0.,0.,-1.));
#1249=DIRECTION('',(0.,-1.,0.));
#1250=DIRECTION('center_axis',(0.,0.,-1.));
#1251=DIRECTION('ref_axis',(1.,0.,0.));
#1252=DIRECTION('',(1.,0.,0.));
#1253=DIRECTION('',(0.,-1.,0.));
#1254=DIRECTION('',(-1.,0.,0.));
#1255=DIRECTION('center_axis',(0.,-1.,0.));
#1256=DIRECTION('ref_axis',(-1.,0.,0.));
#1257=DIRECTION('center_axis',(0.,-1.,0.));
#1258=DIRECTION('ref_axis',(-1.,0.,0.));
#1259=DIRECTION('',(0.,-1.,0.));
#1260=DIRECTION('center_axis',(0.,1.,0.));
#1261=DIRECTION('ref_axis',(-1.,0.,0.));
#1262=DIRECTION('center_axis',(-0.982290257780875,0.,-0.187365550378886));
#1263=DIRECTION('ref_axis',(0.187365550378886,0.,-0.982290257780875));
#1264=DIRECTION('',(-0.187365550378886,0.,0.982290257780875));
#1265=DIRECTION('',(0.,-1.,0.));
#1266=DIRECTION('',(0.187365550378886,0.,-0.982290257780875));
#1267=DIRECTION('center_axis',(-0.982290257780875,0.,-0.187365550378886));
#1268=DIRECTION('ref_axis',(0.187365550378886,0.,-0.982290257780875));
#1269=DIRECTION('',(-0.187365550378886,0.,0.982290257780875));
#1270=DIRECTION('',(0.187365550378886,0.,-0.982290257780875));
#1271=DIRECTION('',(0.,-1.,0.));
#1272=DIRECTION('center_axis',(0.,-1.,0.));
#1273=DIRECTION('ref_axis',(0.993320338640432,0.,-0.115389361915464));
#1274=DIRECTION('center_axis',(0.,-1.,0.));
#1275=DIRECTION('ref_axis',(0.993320338640432,0.,-0.115389361915464));
#1276=DIRECTION('center_axis',(0.,1.,0.));
#1277=DIRECTION('ref_axis',(0.993320338640432,0.,-0.115389361915464));
#1278=DIRECTION('center_axis',(0.,1.,0.));
#1279=DIRECTION('ref_axis',(0.,0.,1.));
#1280=DIRECTION('center_axis',(0.,1.,0.));
#1281=DIRECTION('ref_axis',(0.,0.,1.));
#1282=CARTESIAN_POINT('',(0.,0.,0.));
#1283=CARTESIAN_POINT('Origin',(-143.734281276416,-35.,0.537327931460445));
#1284=CARTESIAN_POINT('',(-6.36024497008401,-35.,-16.3070073774969));
#1285=CARTESIAN_POINT('',(-6.36024497008416,-35.,17.3816632404189));
#1286=CARTESIAN_POINT('Origin',(-143.734281276416,-35.,0.537327931460445));
#1287=CARTESIAN_POINT('',(-6.36024497008401,-40.,-16.3070073774969));
#1288=CARTESIAN_POINT('',(-6.36024497008401,-35.,-16.3070073774969));
#1289=CARTESIAN_POINT('',(-6.36024497008416,-40.,17.3816632404189));
#1290=CARTESIAN_POINT('Origin',(-143.734281276416,-40.,0.537327931460445));
#1291=CARTESIAN_POINT('',(-6.36024497008416,-35.,17.3816632404189));
#1292=CARTESIAN_POINT('Origin',(2.13474034465377,-35.,19.6879705420626));
#1293=CARTESIAN_POINT('',(2.13474034465377,-35.,19.6879705420626));
#1294=CARTESIAN_POINT('',(-8.47383306000199,-35.,16.8078442797213));
#1295=CARTESIAN_POINT('',(2.13474034465377,-40.,19.6879705420626));
#1296=CARTESIAN_POINT('',(-8.47383306000199,-40.,16.8078442797213));
#1297=CARTESIAN_POINT('',(2.13474034465377,-27.5,19.6879705420626));
#1298=CARTESIAN_POINT('Origin',(-6.36024497008401,-35.,-16.3070073774969));
#1299=CARTESIAN_POINT('',(2.13474034465377,-35.,-18.6133146791397));
#1300=CARTESIAN_POINT('',(2.13474034465377,-35.,-18.6133146791397));
#1301=CARTESIAN_POINT('',(2.13474034465377,-40.,-18.6133146791397));
#1302=CARTESIAN_POINT('',(2.13474034465377,-27.5,-18.6133146791397));
#1303=CARTESIAN_POINT('',(2.13474034465377,-40.,-18.6133146791397));
#1304=CARTESIAN_POINT('Origin',(2.13474034465377,-20.,0.537327931461489));
#1305=CARTESIAN_POINT('',(2.13474034465377,-40.,24.6879705420626));
#1306=CARTESIAN_POINT('',(2.13474034465377,-40.,-11.5379933738391));
#1307=CARTESIAN_POINT('',(2.13474034465377,-30.,24.6879705420626));
#1308=CARTESIAN_POINT('Origin',(2.13474034465377,-35.,24.6879705420626));
#1309=CARTESIAN_POINT('',(2.13474034465377,-35.,24.6879705420626));
#1310=CARTESIAN_POINT('',(2.13474034465377,0.,24.6879705420626));
#1311=CARTESIAN_POINT('',(2.13474034465377,-35.,11.3626492367621));
#1312=CARTESIAN_POINT('Origin',(2.13474034465377,-20.,0.537327931461489));
#1313=CARTESIAN_POINT('',(2.13474034465386,-35.,-23.6133146791397));
#1314=CARTESIAN_POINT('',(2.13474034465377,-35.,-10.2879933738391));
#1315=CARTESIAN_POINT('',(2.13474034465377,-30.,-23.6133146791397));
#1316=CARTESIAN_POINT('',(2.13474034465386,0.,-23.6133146791397));
#1317=CARTESIAN_POINT('',(2.13474034465377,-40.,-23.6133146791397));
#1318=CARTESIAN_POINT('Origin',(2.13474034465377,-35.,-23.6133146791397));
#1319=CARTESIAN_POINT('',(2.13474034465377,-40.,-11.5379933738391));
#1320=CARTESIAN_POINT('Origin',(0.692827427749052,0.,-19.6133146791397));
#1321=CARTESIAN_POINT('',(0.0230830244844737,-35.,-20.3559063800735));
#1322=CARTESIAN_POINT('',(0.692827427749052,-35.,-18.6133146791397));
#1323=CARTESIAN_POINT('Origin',(0.692827427749052,-35.,-19.6133146791397));
#1324=CARTESIAN_POINT('',(0.692827427749052,-10.,-18.6133146791397));
#1325=CARTESIAN_POINT('',(0.692827427749052,0.,-18.6133146791397));
#1326=CARTESIAN_POINT('',(0.0230830244844737,-10.,-20.3559063800735));
#1327=CARTESIAN_POINT('Origin',(0.692827427749052,-10.,-19.6133146791397));
#1328=CARTESIAN_POINT('',(0.0230830244844749,0.,-20.3559063800735));
#1329=CARTESIAN_POINT('Origin',(6.66859977413874,0.,-18.6133146791397));
#1330=CARTESIAN_POINT('',(-3.33140022586126,-10.,-18.6133146791397));
#1331=CARTESIAN_POINT('',(1.64855890987566,-10.,-18.6133146791397));
#1332=CARTESIAN_POINT('',(-3.33140022586126,-35.,-18.6133146791397));
#1333=CARTESIAN_POINT('',(6.66859977413874,-35.,-18.6133146791397));
#1334=CARTESIAN_POINT('',(-3.33140022586126,-35.,-18.6133146791397));
#1335=CARTESIAN_POINT('',(6.66859977413874,0.,-18.6133146791397));
#1336=CARTESIAN_POINT('',(6.66859977413874,0.,-18.6133146791397));
#1337=CARTESIAN_POINT('',(-3.33140022586126,0.,-18.6133146791397));
#1338=CARTESIAN_POINT('',(-3.33140022586126,0.,-18.6133146791397));
#1339=CARTESIAN_POINT('',(-3.33140022586126,0.,-18.6133146791397));
#1340=CARTESIAN_POINT('Origin',(1.66859977413874,-35.,-21.1133146791397));
#1341=CARTESIAN_POINT('Origin',(-4.99999999999984,-35.,-25.9253441370771));
#1342=CARTESIAN_POINT('Origin',(0.692827427748971,0.,20.6879705420626));
#1343=CARTESIAN_POINT('',(0.692827427748971,-35.,19.6879705420626));
#1344=CARTESIAN_POINT('',(0.0230830244843899,-35.,21.4305622429965));
#1345=CARTESIAN_POINT('Origin',(0.692827427748971,-35.,20.6879705420626));
#1346=CARTESIAN_POINT('',(0.0230830244843899,-10.,21.4305622429965));
#1347=CARTESIAN_POINT('',(0.0230830244843894,0.,21.4305622429965));
#1348=CARTESIAN_POINT('',(0.692827427748971,-10.,19.6879705420626));
#1349=CARTESIAN_POINT('Origin',(0.692827427748971,-10.,20.6879705420626));
#1350=CARTESIAN_POINT('',(0.692827427748971,0.,19.6879705420626));
#1351=CARTESIAN_POINT('Origin',(-4.99999999999994,0.,27.));
#1352=CARTESIAN_POINT('Origin',(-4.99999999999994,-35.,27.));
#1353=CARTESIAN_POINT('',(2.13474034465377,-10.,24.6879705420626));
#1354=CARTESIAN_POINT('',(2.13474034465377,0.,24.6879705420626));
#1355=CARTESIAN_POINT('Origin',(-4.99999999999994,-10.,27.));
#1356=CARTESIAN_POINT('Origin',(1.66859977413874,-35.,22.1879705420626));
#1357=CARTESIAN_POINT('',(6.66859977413874,-35.,19.6879705420626));
#1358=CARTESIAN_POINT('Origin',(13.6685997741387,-35.,24.6879705420626));
#1359=CARTESIAN_POINT('',(13.6685997741387,-35.,28.6879705420626));
#1360=CARTESIAN_POINT('Origin',(13.6685997741387,-35.,24.6879705420626));
#1361=CARTESIAN_POINT('',(13.6685997741387,-35.,27.1879705420626));
#1362=CARTESIAN_POINT('Origin',(13.6685997741387,-35.,24.6879705420626));
#1363=CARTESIAN_POINT('Origin',(16.6685997741387,-35.,24.6879705420626));
#1364=CARTESIAN_POINT('',(16.6685997741387,-35.,28.6879705420626));
#1365=CARTESIAN_POINT('',(16.6685997741387,-35.,28.6879705420626));
#1366=CARTESIAN_POINT('Origin',(16.6685997741387,-35.,24.6879705420626));
#1367=CARTESIAN_POINT('Origin',(16.6685997741387,-5.,-23.6133146791397));
#1368=CARTESIAN_POINT('',(13.6685997741387,-5.,-19.6133146791397));
#1369=CARTESIAN_POINT('Origin',(13.6685997741387,-5.,-23.6133146791397));
#1370=CARTESIAN_POINT('',(16.6685997741387,-5.,-19.6133146791397));
#1371=CARTESIAN_POINT('',(16.6685997741387,-5.,-19.6133146791397));
#1372=CARTESIAN_POINT('Origin',(16.6685997741387,-5.,-23.6133146791397));
#1373=CARTESIAN_POINT('Origin',(13.6685997741387,-5.,-23.6133146791397));
#1374=CARTESIAN_POINT('',(13.6685997741387,-5.,-21.1133146791397));
#1375=CARTESIAN_POINT('Origin',(13.6685997741387,-5.,-23.6133146791397));
#1376=CARTESIAN_POINT('Origin',(13.6685997741387,-35.,-23.6133146791397));
#1377=CARTESIAN_POINT('',(13.6685997741387,-35.,-19.6133146791397));
#1378=CARTESIAN_POINT('Origin',(13.6685997741387,-35.,-23.6133146791397));
#1379=CARTESIAN_POINT('',(13.6685997741387,-35.,-21.1133146791397));
#1380=CARTESIAN_POINT('Origin',(13.6685997741387,-35.,-23.6133146791397));
#1381=CARTESIAN_POINT('Origin',(16.6685997741387,-35.,-23.6133146791397));
#1382=CARTESIAN_POINT('',(16.6685997741387,-35.,-19.6133146791397));
#1383=CARTESIAN_POINT('',(16.6685997741387,-35.,-19.6133146791397));
#1384=CARTESIAN_POINT('Origin',(16.6685997741387,-35.,-23.6133146791397));
#1385=CARTESIAN_POINT('Origin',(16.6685997741387,-5.,24.6879705420626));
#1386=CARTESIAN_POINT('',(13.6685997741387,-5.,28.6879705420626));
#1387=CARTESIAN_POINT('Origin',(13.6685997741387,-5.,24.6879705420626));
#1388=CARTESIAN_POINT('',(16.6685997741387,-5.,28.6879705420626));
#1389=CARTESIAN_POINT('',(16.6685997741387,-5.,28.6879705420626));
#1390=CARTESIAN_POINT('Origin',(16.6685997741387,-5.,24.6879705420626));
#1391=CARTESIAN_POINT('Origin',(13.6685997741387,-5.,24.6879705420626));
#1392=CARTESIAN_POINT('',(13.6685997741387,-5.,27.1879705420626));
#1393=CARTESIAN_POINT('Origin',(13.6685997741387,-5.,24.6879705420626));
#1394=CARTESIAN_POINT('Origin',(6.66859977413874,-35.,24.6879705420626));
#1395=CARTESIAN_POINT('',(6.66859977413874,-35.,27.1879705420626));
#1396=CARTESIAN_POINT('',(6.66859977413874,-35.,27.1879705420626));
#1397=CARTESIAN_POINT('Origin',(6.66859977413874,-35.,24.6879705420626));
#1398=CARTESIAN_POINT('Origin',(16.6685997741387,-35.,24.6879705420626));
#1399=CARTESIAN_POINT('Origin',(6.66859977413874,-5.,-23.6133146791397));
#1400=CARTESIAN_POINT('',(6.66859977413874,-5.,-21.1133146791397));
#1401=CARTESIAN_POINT('',(6.66859977413874,-5.,-21.1133146791397));
#1402=CARTESIAN_POINT('Origin',(6.66859977413874,-5.,-23.6133146791397));
#1403=CARTESIAN_POINT('Origin',(16.6685997741387,-5.,-23.6133146791397));
#1404=CARTESIAN_POINT('Origin',(6.66859977413874,-35.,-23.6133146791397));
#1405=CARTESIAN_POINT('',(6.66859977413874,-35.,-21.1133146791397));
#1406=CARTESIAN_POINT('',(6.66859977413874,-35.,-21.1133146791397));
#1407=CARTESIAN_POINT('Origin',(6.66859977413874,-35.,-23.6133146791397));
#1408=CARTESIAN_POINT('Origin',(16.6685997741387,-35.,-23.6133146791397));
#1409=CARTESIAN_POINT('Origin',(6.66859977413874,-5.,24.6879705420626));
#1410=CARTESIAN_POINT('',(6.66859977413874,-5.,27.1879705420626));
#1411=CARTESIAN_POINT('',(6.66859977413874,-5.,27.1879705420626));
#1412=CARTESIAN_POINT('Origin',(6.66859977413874,-5.,24.6879705420626));
#1413=CARTESIAN_POINT('Origin',(16.6685997741387,-5.,24.6879705420626));
#1414=CARTESIAN_POINT('Origin',(6.66859977413874,-35.,24.6879705420626));
#1415=CARTESIAN_POINT('',(6.66859977413874,-35.,19.6879705420626));
#1416=CARTESIAN_POINT('',(6.66859977413874,-35.,19.6879705420626));
#1417=CARTESIAN_POINT('',(6.66859977413874,-35.,-23.6133146791397));
#1418=CARTESIAN_POINT('Origin',(6.66859977413874,-35.,24.6879705420626));
#1419=CARTESIAN_POINT('',(6.66859977413874,-40.,24.6879705420626));
#1420=CARTESIAN_POINT('',(6.66859977413874,-40.,24.6879705420626));
#1421=CARTESIAN_POINT('',(6.66859977413874,-30.,24.6879705420626));
#1422=CARTESIAN_POINT('Origin',(6.66859977413874,-35.,24.6879705420626));
#1423=CARTESIAN_POINT('',(6.66859977413874,-30.,24.6879705420626));
#1424=CARTESIAN_POINT('Origin',(6.66859977413874,-40.,-23.6133146791397));
#1425=CARTESIAN_POINT('',(6.66859977413874,-40.,-23.6133146791397));
#1426=CARTESIAN_POINT('',(6.66859977413874,-40.,-23.6133146791397));
#1427=CARTESIAN_POINT('',(6.66859977413874,-40.,24.6879705420626));
#1428=CARTESIAN_POINT('Origin',(6.66859977413874,-35.,-23.6133146791397));
#1429=CARTESIAN_POINT('',(6.66859977413874,-30.,-23.6133146791397));
#1430=CARTESIAN_POINT('',(6.66859977413874,-30.,-23.6133146791397));
#1431=CARTESIAN_POINT('Origin',(6.66859977413874,-35.,-23.6133146791397));
#1432=CARTESIAN_POINT('Origin',(2.13474034465377,-20.,0.537327931461489));
#1433=CARTESIAN_POINT('',(2.13474034465377,-3.09787509807687,-28.2373735950148));
#1434=CARTESIAN_POINT('',(2.13474034465377,-6.90212490192313,-28.2373735950148));
#1435=CARTESIAN_POINT('',(2.13474034465377,0.,-28.2373735950148));
#1436=CARTESIAN_POINT('Origin',(2.13474034465377,-5.,-23.6133146791397));
#1437=CARTESIAN_POINT('Origin',(6.66859977413874,-5.,-23.6133146791397));
#1438=CARTESIAN_POINT('',(2.13474034465386,-10.,-23.6133146791397));
#1439=CARTESIAN_POINT('Ctrl Pts',(2.13474034465377,-6.90212490192313,-28.2373735950148));
#1440=CARTESIAN_POINT('Ctrl Pts',(2.13655402811671,-6.91573090704128,-28.2317767110603));
#1441=CARTESIAN_POINT('Ctrl Pts',(2.13837984246209,-6.9293117499536,-28.2261199525233));
#1442=CARTESIAN_POINT('Ctrl Pts',(2.2244600208548,-7.56435932374257,-27.9583129735739));
#1443=CARTESIAN_POINT('Ctrl Pts',(2.33309110444198,-8.12883640605901,-27.5651807260157));
#1444=CARTESIAN_POINT('Ctrl Pts',(2.47741164402067,-9.01177875458832,-26.6622900503056));
#1445=CARTESIAN_POINT('Ctrl Pts',(2.52314879503865,-9.39033697728414,-26.0955260531789));
#1446=CARTESIAN_POINT('Ctrl Pts',(2.45071717729041,-9.8843552092257,-24.8700984703145));
#1447=CARTESIAN_POINT('Ctrl Pts',(2.32866219216171,-10.,-24.211742188086));
#1448=CARTESIAN_POINT('Ctrl Pts',(2.13474034465387,-10.,-23.6133146791397));
#1449=CARTESIAN_POINT('',(2.13474034465386,0.,-23.6133146791397));
#1450=CARTESIAN_POINT('Ctrl Pts',(2.13474034465386,2.94902990916057E-16,
-23.6133146791397));
#1451=CARTESIAN_POINT('Ctrl Pts',(2.32866219216171,1.20302733870836E-16,
-24.211742188086));
#1452=CARTESIAN_POINT('Ctrl Pts',(2.45071717729041,-0.115644790774301,-24.8700984703145));
#1453=CARTESIAN_POINT('Ctrl Pts',(2.52314879503865,-0.60966302271586,-26.0955260531789));
#1454=CARTESIAN_POINT('Ctrl Pts',(2.47741164402067,-0.988221245411682,-26.6622900503056));
#1455=CARTESIAN_POINT('Ctrl Pts',(2.33309110444198,-1.87116359394099,-27.5651807260157));
#1456=CARTESIAN_POINT('Ctrl Pts',(2.2244600208548,-2.43564067625743,-27.9583129735739));
#1457=CARTESIAN_POINT('Ctrl Pts',(2.13837984246209,-3.0706882500464,-28.2261199525233));
#1458=CARTESIAN_POINT('Ctrl Pts',(2.13655402811671,-3.08426909295872,-28.2317767110603));
#1459=CARTESIAN_POINT('Ctrl Pts',(2.13474034465377,-3.09787509807687,-28.2373735950148));
#1460=CARTESIAN_POINT('',(6.66859977413874,0.,-23.6133146791397));
#1461=CARTESIAN_POINT('',(6.66859977413874,0.,-23.6133146791397));
#1462=CARTESIAN_POINT('',(6.66859977413874,-10.,-23.6133146791397));
#1463=CARTESIAN_POINT('Origin',(6.66859977413874,-5.,-23.6133146791397));
#1464=CARTESIAN_POINT('',(6.66859977413874,-10.,-23.6133146791397));
#1465=CARTESIAN_POINT('Origin',(2.13474034465386,0.,-23.6133146791397));
#1466=CARTESIAN_POINT('',(2.13474034465386,0.,-23.6133146791397));
#1467=CARTESIAN_POINT('',(6.66859977413874,0.,-23.6133146791397));
#1468=CARTESIAN_POINT('Origin',(-4.99999999999984,0.,-25.9253441370771));
#1469=CARTESIAN_POINT('Origin',(-4.99999999999984,-10.,-25.9253441370771));
#1470=CARTESIAN_POINT('Origin',(-4.99999999999984,0.,-25.9253441370771));
#1471=CARTESIAN_POINT('',(-6.66859977413843,0.,-18.6133146791397));
#1472=CARTESIAN_POINT('Origin',(-4.99999999999984,0.,-25.9253441370771));
#1473=CARTESIAN_POINT('',(-6.66859977413843,-10.,-18.6133146791397));
#1474=CARTESIAN_POINT('',(-6.66859977413843,0.,-18.6133146791397));
#1475=CARTESIAN_POINT('Origin',(-4.99999999999984,-10.,-25.9253441370771));
#1476=CARTESIAN_POINT('Origin',(-4.99999999999984,0.,-25.9253441370771));
#1477=CARTESIAN_POINT('',(-9.24296390877497,-10.,-32.1097808348557));
#1478=CARTESIAN_POINT('Origin',(-4.99999999999984,-10.,-25.9253441370771));
#1479=CARTESIAN_POINT('',(-9.24296390877497,0.,-32.1097808348557));
#1480=CARTESIAN_POINT('',(-9.24296390877497,0.,-32.1097808348557));
#1481=CARTESIAN_POINT('Origin',(-4.99999999999984,0.,-25.9253441370771));
#1482=CARTESIAN_POINT('Origin',(-8.76184549762228,0.,-29.5874498772226));
#1483=CARTESIAN_POINT('',(-8.76184549762228,0.,-29.5874498772226));
#1484=CARTESIAN_POINT('',(-9.34654420367928,0.,-32.6528151033053));
#1485=CARTESIAN_POINT('',(-8.76184549762228,-10.,-29.5874498772226));
#1486=CARTESIAN_POINT('',(-9.34654420367928,-10.,-32.6528151033053));
#1487=CARTESIAN_POINT('',(-8.76184549762228,0.,-29.5874498772226));
#1488=CARTESIAN_POINT('Origin',(-4.99999999999895,0.,-25.9253441370765));
#1489=CARTESIAN_POINT('',(-7.14971818529085,0.,-21.1356456367714));
#1490=CARTESIAN_POINT('Origin',(-4.99999999999895,0.,-25.9253441370765));
#1491=CARTESIAN_POINT('',(-7.14971818529085,-10.,-21.1356456367714));
#1492=CARTESIAN_POINT('Origin',(-4.99999999999895,-10.,-25.9253441370765));
#1493=CARTESIAN_POINT('',(-7.14971818529085,0.,-21.1356456367714));
#1494=CARTESIAN_POINT('Origin',(-6.66859977413843,0.,-18.6133146791397));
#1495=CARTESIAN_POINT('',(-9.34654420367928,0.,-32.6528151033053));
#1496=CARTESIAN_POINT('',(-9.34654420367928,-10.,-32.6528151033053));
#1497=CARTESIAN_POINT('Origin',(-3.37148195438742,0.,-25.9253441370771));
#1498=CARTESIAN_POINT('',(6.66859977413874,0.,-18.6133146791397));
#1499=CARTESIAN_POINT('Origin',(-3.37148195438742,-10.,-25.9253441370771));
#1500=CARTESIAN_POINT('Origin',(6.66859977413874,-5.,24.6879705420626));
#1501=CARTESIAN_POINT('',(2.13474034465377,-6.90212490192402,29.3120294579374));
#1502=CARTESIAN_POINT('Ctrl Pts',(2.13474034465377,-10.,24.6879705420627));
#1503=CARTESIAN_POINT('Ctrl Pts',(2.32866219216161,-10.,25.286398051009));
#1504=CARTESIAN_POINT('Ctrl Pts',(2.45071717729031,-9.8843552092257,25.9447543332375));
#1505=CARTESIAN_POINT('Ctrl Pts',(2.52314879503854,-9.39033697728414,27.1701819161018));
#1506=CARTESIAN_POINT('Ctrl Pts',(2.47741164402055,-9.01177875458832,27.7369459132286));
#1507=CARTESIAN_POINT('Ctrl Pts',(2.33309110444187,-8.12883640605901,28.6398365889387));
#1508=CARTESIAN_POINT('Ctrl Pts',(2.22446002085469,-7.56435932374257,29.0329688364969));
#1509=CARTESIAN_POINT('Ctrl Pts',(2.13837984246202,-6.92931174995389,29.3007758154462));
#1510=CARTESIAN_POINT('Ctrl Pts',(2.13655402811667,-6.91573090704187,29.306432573983));
#1511=CARTESIAN_POINT('Ctrl Pts',(2.13474034465377,-6.90212490192402,29.3120294579374));
#1512=CARTESIAN_POINT('',(6.66859977413874,-10.,24.6879705420626));
#1513=CARTESIAN_POINT('',(6.66859977413874,-10.,24.6879705420626));
#1514=CARTESIAN_POINT('',(6.66859977413874,0.,24.6879705420626));
#1515=CARTESIAN_POINT('Origin',(6.66859977413874,-5.,24.6879705420626));
#1516=CARTESIAN_POINT('',(2.13474034465377,0.,24.6879705420626));
#1517=CARTESIAN_POINT('',(2.13474034465377,0.,24.6879705420626));
#1518=CARTESIAN_POINT('',(2.13474034465377,-3.09787509807598,29.3120294579374));
#1519=CARTESIAN_POINT('Ctrl Pts',(2.13474034465377,-3.09787509807598,29.3120294579374));
#1520=CARTESIAN_POINT('Ctrl Pts',(2.13655402811667,-3.08426909295813,29.306432573983));
#1521=CARTESIAN_POINT('Ctrl Pts',(2.13837984246202,-3.07068825004611,29.3007758154462));
#1522=CARTESIAN_POINT('Ctrl Pts',(2.22446002085469,-2.43564067625743,29.0329688364969));
#1523=CARTESIAN_POINT('Ctrl Pts',(2.33309110444187,-1.87116359394099,28.6398365889387));
#1524=CARTESIAN_POINT('Ctrl Pts',(2.47741164402055,-0.988221245411682,27.7369459132286));
#1525=CARTESIAN_POINT('Ctrl Pts',(2.52314879503854,-0.609663022715865,27.1701819161018));
#1526=CARTESIAN_POINT('Ctrl Pts',(2.45071717729031,-0.115644790774302,25.9447543332375));
#1527=CARTESIAN_POINT('Ctrl Pts',(2.32866219216161,-5.23236816411893E-17,
25.286398051009));
#1528=CARTESIAN_POINT('Ctrl Pts',(2.13474034465377,-8.67361737988404E-18,
24.6879705420626));
#1529=CARTESIAN_POINT('Origin',(2.13474034465377,-5.,24.6879705420626));
#1530=CARTESIAN_POINT('Origin',(2.13474034465377,-20.,0.537327931461489));
#1531=CARTESIAN_POINT('',(2.13474034465377,0.,29.3120294579374));
#1532=CARTESIAN_POINT('Origin',(-4.99999999999994,0.,27.));
#1533=CARTESIAN_POINT('',(-9.24296390877632,0.,33.1844366977777));
#1534=CARTESIAN_POINT('Origin',(-4.99999999999994,0.,27.));
#1535=CARTESIAN_POINT('',(-9.24296390877632,-10.,33.1844366977777));
#1536=CARTESIAN_POINT('',(-9.24296390877632,0.,33.1844366977777));
#1537=CARTESIAN_POINT('Origin',(-4.99999999999994,-10.,27.));
#1538=CARTESIAN_POINT('Origin',(6.66859977413874,0.,24.6879705420626));
#1539=CARTESIAN_POINT('',(6.66859977413874,0.,24.6879705420626));
#1540=CARTESIAN_POINT('Origin',(6.66859977413874,0.,19.6879705420626));
#1541=CARTESIAN_POINT('',(6.66859977413874,0.,19.6879705420626));
#1542=CARTESIAN_POINT('',(6.66859977413874,0.,24.6879705420626));
#1543=CARTESIAN_POINT('',(6.66859977413874,0.,19.6879705420626));
#1544=CARTESIAN_POINT('Origin',(-3.33140022586126,0.,19.6879705420626));
#1545=CARTESIAN_POINT('',(-3.33140022586126,-10.,19.6879705420626));
#1546=CARTESIAN_POINT('',(-3.35144109012471,-10.,19.6879705420626));
#1547=CARTESIAN_POINT('',(-3.33140022586126,0.,19.6879705420626));
#1548=CARTESIAN_POINT('',(-3.33140022586126,0.,19.6879705420626));
#1549=CARTESIAN_POINT('',(6.66859977413874,0.,19.6879705420626));
#1550=CARTESIAN_POINT('Origin',(-4.99999999999994,0.,27.));
#1551=CARTESIAN_POINT('',(-6.66859977413813,-10.,19.6879705420625));
#1552=CARTESIAN_POINT('Origin',(-4.99999999999994,-10.,27.));
#1553=CARTESIAN_POINT('',(-6.66859977413813,0.,19.6879705420625));
#1554=CARTESIAN_POINT('',(-6.66859977413813,0.,19.6879705420625));
#1555=CARTESIAN_POINT('Origin',(-4.99999999999994,0.,27.));
#1556=CARTESIAN_POINT('Origin',(-9.24296390877632,0.,33.1844366977777));
#1557=CARTESIAN_POINT('',(-8.76184549762355,0.,30.6621057401459));
#1558=CARTESIAN_POINT('',(-6.66859977413813,0.,19.6879705420625));
#1559=CARTESIAN_POINT('',(-8.76184549762355,-10.,30.6621057401459));
#1560=CARTESIAN_POINT('',(-8.76184549762355,0.,30.6621057401459));
#1561=CARTESIAN_POINT('',(-6.66859977413813,-10.,19.6879705420625));
#1562=CARTESIAN_POINT('Origin',(-7.14971818529096,0.,22.2103014996946));
#1563=CARTESIAN_POINT('',(-7.14971818529096,0.,22.2103014996946));
#1564=CARTESIAN_POINT('',(-6.66859977413813,0.,19.6879705420625));
#1565=CARTESIAN_POINT('',(-7.14971818529096,-10.,22.2103014996946));
#1566=CARTESIAN_POINT('',(-6.66859977413813,-10.,19.6879705420625));
#1567=CARTESIAN_POINT('',(-7.14971818529096,0.,22.2103014996946));
#1568=CARTESIAN_POINT('Origin',(-4.99999999999998,0.,27.0000000000001));
#1569=CARTESIAN_POINT('Origin',(-4.99999999999998,0.,27.0000000000001));
#1570=CARTESIAN_POINT('Origin',(-4.99999999999998,-10.,27.0000000000001));
#1571=CARTESIAN_POINT('Origin',(-3.37148195438817,0.,27.));
#1572=CARTESIAN_POINT('Origin',(-3.37148195438817,-10.,27.));
#1573=UNCERTAINTY_MEASURE_WITH_UNIT(LENGTH_MEASURE(0.01),#1577,
'DISTANCE_ACCURACY_VALUE',
'Maximum model space distance between geometric entities at asserted c
onnectivities');
#1574=UNCERTAINTY_MEASURE_WITH_UNIT(LENGTH_MEASURE(0.01),#1577,
'DISTANCE_ACCURACY_VALUE',
'Maximum model space distance between geometric entities at asserted c
onnectivities');
#1575=(
GEOMETRIC_REPRESENTATION_CONTEXT(3)
GLOBAL_UNCERTAINTY_ASSIGNED_CONTEXT((#1573))
GLOBAL_UNIT_ASSIGNED_CONTEXT((#1577,#1579,#1580))
REPRESENTATION_CONTEXT('','3D')
);
#1576=(
GEOMETRIC_REPRESENTATION_CONTEXT(3)
GLOBAL_UNCERTAINTY_ASSIGNED_CONTEXT((#1574))
GLOBAL_UNIT_ASSIGNED_CONTEXT((#1577,#1579,#1580))
REPRESENTATION_CONTEXT('','3D')
);
#1577=(
LENGTH_UNIT()
NAMED_UNIT(*)
SI_UNIT(.MILLI.,.METRE.)
);
#1578=(
LENGTH_UNIT()
NAMED_UNIT(*)
SI_UNIT(.CENTI.,.METRE.)
);
#1579=(
NAMED_UNIT(*)
PLANE_ANGLE_UNIT()
SI_UNIT($,.RADIAN.)
);
#1580=(
NAMED_UNIT(*)
SI_UNIT($,.STERADIAN.)
SOLID_ANGLE_UNIT()
);
#1581=SHAPE_DEFINITION_REPRESENTATION(#1582,#1583);
#1582=PRODUCT_DEFINITION_SHAPE('',$,#1585);
#1583=SHAPE_REPRESENTATION('',(#907),#1575);
#1584=PRODUCT_DEFINITION_CONTEXT('part definition',#1589,'design');
#1585=PRODUCT_DEFINITION('capFlipperConnectionPoint',
'capFlipperConnectionPoint',#1586,#1584);
#1586=PRODUCT_DEFINITION_FORMATION('',$,#1591);
#1587=PRODUCT_RELATED_PRODUCT_CATEGORY('capFlipperConnectionPoint',
'capFlipperConnectionPoint',(#1591));
#1588=APPLICATION_PROTOCOL_DEFINITION('international standard',
'automotive_design',2009,#1589);
#1589=APPLICATION_CONTEXT(
'Core Data for Automotive Mechanical Design Process');
#1590=PRODUCT_CONTEXT('part definition',#1589,'mechanical');
#1591=PRODUCT('capFlipperConnectionPoint','capFlipperConnectionPoint',$,
(#1590));
#1592=PRESENTATION_STYLE_ASSIGNMENT((#1593));
#1593=SURFACE_STYLE_USAGE(.BOTH.,#1596);
#1594=SURFACE_STYLE_RENDERING_WITH_PROPERTIES($,#1600,(#1595));
#1595=SURFACE_STYLE_TRANSPARENT(0.);
#1596=SURFACE_SIDE_STYLE('',(#1597,#1594));
#1597=SURFACE_STYLE_FILL_AREA(#1598);
#1598=FILL_AREA_STYLE('',(#1599));
#1599=FILL_AREA_STYLE_COLOUR('',#1600);
#1600=COLOUR_RGB('',0.749019607843137,0.749019607843137,0.749019607843137);
ENDSEC;
END-ISO-10303-21;
