ISO-10303-21;
HEADER;
/* Generated by software containing ST-Developer
 * from STEP Tools, Inc. (www.steptools.com) 
 */

FILE_DESCRIPTION(
/* description */ (''),
/* implementation_level */ '2;1');

FILE_NAME(
/* name */ 'HalfFilterWall2.stp',
/* time_stamp */ '2026-05-08T10:34:38+02:00',
/* author */ ('sniel'),
/* organization */ (''),
/* preprocessor_version */ 'ST-DEVELOPER v20.1',
/* originating_system */ 'Autodesk Inventor 2026',
/* authorisation */ '');

FILE_SCHEMA (('AUTOMOTIVE_DESIGN { 1 0 10303 214 3 1 1 }'));
ENDSEC;

DATA;
#10=MECHANICAL_DESIGN_GEOMETRIC_PRESENTATION_REPRESENTATION('',(#13),#2117);
#11=SHAPE_REPRESENTATION_RELATIONSHIP('SRR','None',#2124,#12);
#12=ADVANCED_BREP_SHAPE_REPRESENTATION('',(#14),#2116);
#13=STYLED_ITEM('',(#2133),#14);
#14=MANIFOLD_SOLID_BREP('Solid1',#1219);
#15=FACE_BOUND('',#133,.T.);
#16=FACE_BOUND('',#134,.T.);
#17=FACE_BOUND('',#135,.T.);
#18=FACE_BOUND('',#136,.T.);
#19=PLANE('',#1248);
#20=PLANE('',#1258);
#21=PLANE('',#1265);
#22=PLANE('',#1266);
#23=PLANE('',#1271);
#24=PLANE('',#1277);
#25=PLANE('',#1286);
#26=PLANE('',#1287);
#27=PLANE('',#1288);
#28=PLANE('',#1289);
#29=PLANE('',#1300);
#30=PLANE('',#1307);
#31=PLANE('',#1311);
#32=PLANE('',#1321);
#33=PLANE('',#1322);
#34=PLANE('',#1332);
#35=PLANE('',#1333);
#36=PLANE('',#1334);
#37=PLANE('',#1341);
#38=PLANE('',#1342);
#39=PLANE('',#1345);
#40=PLANE('',#1346);
#41=PLANE('',#1349);
#42=PLANE('',#1350);
#43=PLANE('',#1351);
#44=PLANE('',#1355);
#45=PLANE('',#1359);
#46=PLANE('',#1363);
#47=PLANE('',#1371);
#48=PLANE('',#1374);
#49=PLANE('',#1375);
#50=FACE_OUTER_BOUND('',#107,.T.);
#51=FACE_OUTER_BOUND('',#108,.T.);
#52=FACE_OUTER_BOUND('',#109,.T.);
#53=FACE_OUTER_BOUND('',#110,.T.);
#54=FACE_OUTER_BOUND('',#111,.T.);
#55=FACE_OUTER_BOUND('',#112,.T.);
#56=FACE_OUTER_BOUND('',#113,.T.);
#57=FACE_OUTER_BOUND('',#114,.T.);
#58=FACE_OUTER_BOUND('',#115,.T.);
#59=FACE_OUTER_BOUND('',#116,.T.);
#60=FACE_OUTER_BOUND('',#117,.T.);
#61=FACE_OUTER_BOUND('',#118,.T.);
#62=FACE_OUTER_BOUND('',#119,.T.);
#63=FACE_OUTER_BOUND('',#120,.T.);
#64=FACE_OUTER_BOUND('',#121,.T.);
#65=FACE_OUTER_BOUND('',#122,.T.);
#66=FACE_OUTER_BOUND('',#123,.T.);
#67=FACE_OUTER_BOUND('',#124,.T.);
#68=FACE_OUTER_BOUND('',#125,.T.);
#69=FACE_OUTER_BOUND('',#126,.T.);
#70=FACE_OUTER_BOUND('',#127,.T.);
#71=FACE_OUTER_BOUND('',#128,.T.);
#72=FACE_OUTER_BOUND('',#129,.T.);
#73=FACE_OUTER_BOUND('',#130,.T.);
#74=FACE_OUTER_BOUND('',#131,.T.);
#75=FACE_OUTER_BOUND('',#132,.T.);
#76=FACE_OUTER_BOUND('',#137,.T.);
#77=FACE_OUTER_BOUND('',#138,.T.);
#78=FACE_OUTER_BOUND('',#139,.T.);
#79=FACE_OUTER_BOUND('',#140,.T.);
#80=FACE_OUTER_BOUND('',#141,.T.);
#81=FACE_OUTER_BOUND('',#142,.T.);
#82=FACE_OUTER_BOUND('',#143,.T.);
#83=FACE_OUTER_BOUND('',#144,.T.);
#84=FACE_OUTER_BOUND('',#145,.T.);
#85=FACE_OUTER_BOUND('',#146,.T.);
#86=FACE_OUTER_BOUND('',#147,.T.);
#87=FACE_OUTER_BOUND('',#148,.T.);
#88=FACE_OUTER_BOUND('',#149,.T.);
#89=FACE_OUTER_BOUND('',#150,.T.);
#90=FACE_OUTER_BOUND('',#151,.T.);
#91=FACE_OUTER_BOUND('',#152,.T.);
#92=FACE_OUTER_BOUND('',#153,.T.);
#93=FACE_OUTER_BOUND('',#154,.T.);
#94=FACE_OUTER_BOUND('',#155,.T.);
#95=FACE_OUTER_BOUND('',#156,.T.);
#96=FACE_OUTER_BOUND('',#157,.T.);
#97=FACE_OUTER_BOUND('',#158,.T.);
#98=FACE_OUTER_BOUND('',#159,.T.);
#99=FACE_OUTER_BOUND('',#160,.T.);
#100=FACE_OUTER_BOUND('',#161,.T.);
#101=FACE_OUTER_BOUND('',#162,.T.);
#102=FACE_OUTER_BOUND('',#163,.T.);
#103=FACE_OUTER_BOUND('',#164,.T.);
#104=FACE_OUTER_BOUND('',#165,.T.);
#105=FACE_OUTER_BOUND('',#166,.T.);
#106=FACE_OUTER_BOUND('',#167,.T.);
#107=EDGE_LOOP('',(#764,#765,#766,#767));
#108=EDGE_LOOP('',(#768,#769,#770,#771));
#109=EDGE_LOOP('',(#772,#773,#774,#775,#776,#777));
#110=EDGE_LOOP('',(#778,#779,#780,#781,#782,#783,#784,#785));
#111=EDGE_LOOP('',(#786,#787,#788,#789,#790));
#112=EDGE_LOOP('',(#791,#792,#793,#794,#795,#796,#797));
#113=EDGE_LOOP('',(#798,#799,#800,#801,#802,#803));
#114=EDGE_LOOP('',(#804,#805,#806,#807,#808,#809,#810));
#115=EDGE_LOOP('',(#811,#812,#813,#814,#815,#816,#817));
#116=EDGE_LOOP('',(#818,#819,#820,#821,#822,#823,#824));
#117=EDGE_LOOP('',(#825,#826,#827,#828,#829,#830,#831,#832));
#118=EDGE_LOOP('',(#833,#834,#835,#836));
#119=EDGE_LOOP('',(#837,#838,#839,#840));
#120=EDGE_LOOP('',(#841,#842,#843,#844));
#121=EDGE_LOOP('',(#845,#846,#847,#848));
#122=EDGE_LOOP('',(#849,#850,#851,#852,#853,#854,#855,#856,#857,#858,#859,
#860,#861,#862,#863,#864,#865,#866,#867,#868,#869,#870,#871,#872));
#123=EDGE_LOOP('',(#873,#874,#875,#876,#877,#878,#879,#880,#881,#882,#883,
#884,#885,#886,#887,#888,#889,#890,#891));
#124=EDGE_LOOP('',(#892,#893,#894,#895));
#125=EDGE_LOOP('',(#896,#897,#898,#899));
#126=EDGE_LOOP('',(#900,#901,#902,#903));
#127=EDGE_LOOP('',(#904,#905,#906,#907));
#128=EDGE_LOOP('',(#908,#909,#910,#911));
#129=EDGE_LOOP('',(#912,#913,#914,#915,#916));
#130=EDGE_LOOP('',(#917,#918,#919,#920));
#131=EDGE_LOOP('',(#921,#922,#923,#924));
#132=EDGE_LOOP('',(#925,#926,#927,#928,#929,#930,#931,#932,#933,#934,#935,
#936,#937,#938,#939,#940,#941));
#133=EDGE_LOOP('',(#942));
#134=EDGE_LOOP('',(#943));
#135=EDGE_LOOP('',(#944));
#136=EDGE_LOOP('',(#945));
#137=EDGE_LOOP('',(#946,#947,#948,#949));
#138=EDGE_LOOP('',(#950,#951,#952,#953));
#139=EDGE_LOOP('',(#954,#955,#956,#957));
#140=EDGE_LOOP('',(#958,#959,#960,#961,#962,#963,#964,#965));
#141=EDGE_LOOP('',(#966,#967,#968,#969,#970,#971,#972,#973));
#142=EDGE_LOOP('',(#974,#975,#976,#977,#978,#979,#980,#981));
#143=EDGE_LOOP('',(#982,#983,#984,#985));
#144=EDGE_LOOP('',(#986,#987,#988,#989));
#145=EDGE_LOOP('',(#990,#991,#992,#993));
#146=EDGE_LOOP('',(#994,#995,#996,#997));
#147=EDGE_LOOP('',(#998,#999,#1000,#1001));
#148=EDGE_LOOP('',(#1002,#1003,#1004,#1005));
#149=EDGE_LOOP('',(#1006,#1007,#1008,#1009));
#150=EDGE_LOOP('',(#1010,#1011,#1012,#1013,#1014,#1015,#1016));
#151=EDGE_LOOP('',(#1017,#1018,#1019,#1020));
#152=EDGE_LOOP('',(#1021,#1022,#1023,#1024,#1025,#1026));
#153=EDGE_LOOP('',(#1027,#1028,#1029,#1030));
#154=EDGE_LOOP('',(#1031,#1032,#1033,#1034));
#155=EDGE_LOOP('',(#1035,#1036,#1037,#1038,#1039,#1040,#1041,#1042));
#156=EDGE_LOOP('',(#1043,#1044,#1045,#1046));
#157=EDGE_LOOP('',(#1047,#1048,#1049,#1050));
#158=EDGE_LOOP('',(#1051,#1052,#1053,#1054,#1055,#1056,#1057,#1058));
#159=EDGE_LOOP('',(#1059,#1060,#1061,#1062));
#160=EDGE_LOOP('',(#1063,#1064,#1065,#1066));
#161=EDGE_LOOP('',(#1067,#1068,#1069,#1070));
#162=EDGE_LOOP('',(#1071,#1072,#1073,#1074));
#163=EDGE_LOOP('',(#1075,#1076,#1077,#1078,#1079,#1080,#1081,#1082));
#164=EDGE_LOOP('',(#1083,#1084,#1085,#1086));
#165=EDGE_LOOP('',(#1087,#1088,#1089,#1090));
#166=EDGE_LOOP('',(#1091,#1092,#1093,#1094,#1095,#1096,#1097,#1098,#1099,
#1100,#1101,#1102,#1103,#1104,#1105,#1106,#1107,#1108,#1109,#1110,#1111,
#1112,#1113,#1114,#1115,#1116,#1117,#1118,#1119,#1120,#1121,#1122,#1123,
#1124,#1125,#1126));
#167=EDGE_LOOP('',(#1127,#1128,#1129,#1130,#1131,#1132,#1133,#1134,#1135));
#168=LINE('',#1761,#277);
#169=LINE('',#1764,#278);
#170=LINE('',#1769,#279);
#171=LINE('',#1772,#280);
#172=LINE('',#1776,#281);
#173=LINE('',#1788,#282);
#174=LINE('',#1792,#283);
#175=LINE('',#1796,#284);
#176=LINE('',#1799,#285);
#177=LINE('',#1805,#286);
#178=LINE('',#1813,#287);
#179=LINE('',#1815,#288);
#180=LINE('',#1818,#289);
#181=LINE('',#1819,#290);
#182=LINE('',#1822,#291);
#183=LINE('',#1824,#292);
#184=LINE('',#1826,#293);
#185=LINE('',#1827,#294);
#186=LINE('',#1831,#295);
#187=LINE('',#1838,#296);
#188=LINE('',#1843,#297);
#189=LINE('',#1853,#298);
#190=LINE('',#1858,#299);
#191=LINE('',#1868,#300);
#192=LINE('',#1872,#301);
#193=LINE('',#1874,#302);
#194=LINE('',#1878,#303);
#195=LINE('',#1881,#304);
#196=LINE('',#1883,#305);
#197=LINE('',#1884,#306);
#198=LINE('',#1887,#307);
#199=LINE('',#1889,#308);
#200=LINE('',#1890,#309);
#201=LINE('',#1893,#310);
#202=LINE('',#1895,#311);
#203=LINE('',#1896,#312);
#204=LINE('',#1900,#313);
#205=LINE('',#1904,#314);
#206=LINE('',#1908,#315);
#207=LINE('',#1913,#316);
#208=LINE('',#1917,#317);
#209=LINE('',#1921,#318);
#210=LINE('',#1925,#319);
#211=LINE('',#1929,#320);
#212=LINE('',#1938,#321);
#213=LINE('',#1941,#322);
#214=LINE('',#1942,#323);
#215=LINE('',#1944,#324);
#216=LINE('',#1947,#325);
#217=LINE('',#1948,#326);
#218=LINE('',#1950,#327);
#219=LINE('',#1953,#328);
#220=LINE('',#1954,#329);
#221=LINE('',#1956,#330);
#222=LINE('',#1958,#331);
#223=LINE('',#1962,#332);
#224=LINE('',#1966,#333);
#225=LINE('',#1969,#334);
#226=LINE('',#1970,#335);
#227=LINE('',#1973,#336);
#228=LINE('',#1976,#337);
#229=LINE('',#1979,#338);
#230=LINE('',#1985,#339);
#231=LINE('',#1989,#340);
#232=LINE('',#1992,#341);
#233=LINE('',#1994,#342);
#234=LINE('',#1995,#343);
#235=LINE('',#1998,#344);
#236=LINE('',#2003,#345);
#237=LINE('',#2008,#346);
#238=LINE('',#2012,#347);
#239=LINE('',#2020,#348);
#240=LINE('',#2021,#349);
#241=LINE('',#2023,#350);
#242=LINE('',#2025,#351);
#243=LINE('',#2026,#352);
#244=LINE('',#2028,#353);
#245=LINE('',#2029,#354);
#246=LINE('',#2031,#355);
#247=LINE('',#2033,#356);
#248=LINE('',#2036,#357);
#249=LINE('',#2038,#358);
#250=LINE('',#2040,#359);
#251=LINE('',#2043,#360);
#252=LINE('',#2045,#361);
#253=LINE('',#2047,#362);
#254=LINE('',#2051,#363);
#255=LINE('',#2052,#364);
#256=LINE('',#2053,#365);
#257=LINE('',#2055,#366);
#258=LINE('',#2059,#367);
#259=LINE('',#2061,#368);
#260=LINE('',#2062,#369);
#261=LINE('',#2064,#370);
#262=LINE('',#2068,#371);
#263=LINE('',#2070,#372);
#264=LINE('',#2072,#373);
#265=LINE('',#2073,#374);
#266=LINE('',#2076,#375);
#267=LINE('',#2077,#376);
#268=LINE('',#2081,#377);
#269=LINE('',#2083,#378);
#270=LINE('',#2087,#379);
#271=LINE('',#2089,#380);
#272=LINE('',#2093,#381);
#273=LINE('',#2097,#382);
#274=LINE('',#2101,#383);
#275=LINE('',#2108,#384);
#276=LINE('',#2109,#385);
#277=VECTOR('',#1382,2.);
#278=VECTOR('',#1385,10.);
#279=VECTOR('',#1390,10.);
#280=VECTOR('',#1393,10.);
#281=VECTOR('',#1396,10.);
#282=VECTOR('',#1409,10.);
#283=VECTOR('',#1412,10.);
#284=VECTOR('',#1415,10.);
#285=VECTOR('',#1418,10.);
#286=VECTOR('',#1423,10.);
#287=VECTOR('',#1432,10.);
#288=VECTOR('',#1433,10.);
#289=VECTOR('',#1436,10.);
#290=VECTOR('',#1437,10.);
#291=VECTOR('',#1440,10.);
#292=VECTOR('',#1441,10.);
#293=VECTOR('',#1442,10.);
#294=VECTOR('',#1443,10.);
#295=VECTOR('',#1446,10.);
#296=VECTOR('',#1453,10.);
#297=VECTOR('',#1458,10.);
#298=VECTOR('',#1467,10.);
#299=VECTOR('',#1472,10.);
#300=VECTOR('',#1481,10.);
#301=VECTOR('',#1486,10.);
#302=VECTOR('',#1487,5.24999999999998);
#303=VECTOR('',#1494,10.);
#304=VECTOR('',#1497,10.);
#305=VECTOR('',#1498,10.);
#306=VECTOR('',#1499,10.);
#307=VECTOR('',#1502,10.);
#308=VECTOR('',#1503,10.);
#309=VECTOR('',#1504,10.);
#310=VECTOR('',#1507,10.);
#311=VECTOR('',#1508,10.);
#312=VECTOR('',#1509,10.);
#313=VECTOR('',#1512,10.);
#314=VECTOR('',#1515,10.);
#315=VECTOR('',#1518,10.);
#316=VECTOR('',#1523,10.);
#317=VECTOR('',#1526,10.);
#318=VECTOR('',#1529,10.);
#319=VECTOR('',#1532,10.);
#320=VECTOR('',#1535,10.);
#321=VECTOR('',#1544,10.);
#322=VECTOR('',#1547,10.);
#323=VECTOR('',#1548,10.);
#324=VECTOR('',#1549,10.);
#325=VECTOR('',#1552,10.);
#326=VECTOR('',#1553,10.);
#327=VECTOR('',#1554,10.);
#328=VECTOR('',#1557,10.);
#329=VECTOR('',#1558,10.);
#330=VECTOR('',#1559,10.);
#331=VECTOR('',#1562,10.);
#332=VECTOR('',#1567,10.);
#333=VECTOR('',#1572,10.);
#334=VECTOR('',#1575,10.);
#335=VECTOR('',#1576,10.);
#336=VECTOR('',#1579,10.);
#337=VECTOR('',#1582,10.);
#338=VECTOR('',#1585,10.);
#339=VECTOR('',#1592,10.);
#340=VECTOR('',#1597,10.);
#341=VECTOR('',#1602,10.);
#342=VECTOR('',#1603,10.);
#343=VECTOR('',#1604,10.);
#344=VECTOR('',#1607,10.);
#345=VECTOR('',#1612,10.);
#346=VECTOR('',#1617,10.);
#347=VECTOR('',#1622,10.);
#348=VECTOR('',#1631,10.);
#349=VECTOR('',#1632,10.);
#350=VECTOR('',#1635,10.);
#351=VECTOR('',#1636,10.);
#352=VECTOR('',#1637,10.);
#353=VECTOR('',#1640,10.);
#354=VECTOR('',#1641,10.);
#355=VECTOR('',#1644,5.24999999999998);
#356=VECTOR('',#1645,10.);
#357=VECTOR('',#1648,10.);
#358=VECTOR('',#1651,5.24999999999998);
#359=VECTOR('',#1652,10.);
#360=VECTOR('',#1655,10.);
#361=VECTOR('',#1658,5.24999999999998);
#362=VECTOR('',#1659,10.);
#363=VECTOR('',#1664,10.);
#364=VECTOR('',#1665,10.);
#365=VECTOR('',#1666,10.);
#366=VECTOR('',#1669,10.);
#367=VECTOR('',#1674,10.);
#368=VECTOR('',#1677,10.);
#369=VECTOR('',#1678,10.);
#370=VECTOR('',#1681,10.);
#371=VECTOR('',#1686,10.);
#372=VECTOR('',#1689,10.);
#373=VECTOR('',#1692,10.);
#374=VECTOR('',#1693,10.);
#375=VECTOR('',#1696,10.);
#376=VECTOR('',#1697,10.);
#377=VECTOR('',#1704,10.);
#378=VECTOR('',#1707,10.);
#379=VECTOR('',#1714,10.);
#380=VECTOR('',#1717,10.);
#381=VECTOR('',#1724,10.);
#382=VECTOR('',#1729,10.);
#383=VECTOR('',#1734,10.);
#384=VECTOR('',#1745,10.);
#385=VECTOR('',#1746,10.);
#386=CIRCLE('',#1243,2.);
#387=CIRCLE('',#1244,2.);
#388=CIRCLE('',#1246,32.);
#389=CIRCLE('',#1247,32.);
#390=CIRCLE('',#1249,136.235526034674);
#391=CIRCLE('',#1250,5.24999999999998);
#392=CIRCLE('',#1251,5.24999999999998);
#393=CIRCLE('',#1252,136.235526034673);
#394=CIRCLE('',#1253,7.49999999999997);
#395=CIRCLE('',#1255,136.235526034674);
#396=CIRCLE('',#1256,136.235526034674);
#397=CIRCLE('',#1257,136.235526034674);
#398=CIRCLE('',#1259,40.6942076051068);
#399=CIRCLE('',#1260,7.49999999999997);
#400=CIRCLE('',#1261,136.235526034673);
#401=CIRCLE('',#1262,16.);
#402=CIRCLE('',#1264,7.49999999999997);
#403=CIRCLE('',#1267,136.235526034674);
#404=CIRCLE('',#1268,5.24999999999998);
#405=CIRCLE('',#1269,5.24999999999998);
#406=CIRCLE('',#1270,7.49999999999997);
#407=CIRCLE('',#1272,136.235526034674);
#408=CIRCLE('',#1273,5.24999999999998);
#409=CIRCLE('',#1274,5.24999999999998);
#410=CIRCLE('',#1275,136.235526034674);
#411=CIRCLE('',#1276,7.49999999999997);
#412=CIRCLE('',#1278,136.235526034674);
#413=CIRCLE('',#1279,5.24999999999998);
#414=CIRCLE('',#1280,5.24999999999998);
#415=CIRCLE('',#1281,136.235526034674);
#416=CIRCLE('',#1282,7.49999999999997);
#417=CIRCLE('',#1284,5.24999999999998);
#418=CIRCLE('',#1285,5.24999999999998);
#419=CIRCLE('',#1291,134.235526034674);
#420=CIRCLE('',#1292,134.235526034674);
#421=CIRCLE('',#1293,134.235526034674);
#422=CIRCLE('',#1294,134.235526034674);
#423=CIRCLE('',#1295,134.235526034674);
#424=CIRCLE('',#1296,134.235526034674);
#425=CIRCLE('',#1297,134.235526034674);
#426=CIRCLE('',#1298,134.235526034674);
#427=CIRCLE('',#1299,134.235526034674);
#428=CIRCLE('',#1301,103.388559445285);
#429=CIRCLE('',#1302,120.615241289411);
#430=CIRCLE('',#1303,121.319855917714);
#431=CIRCLE('',#1304,121.319855917714);
#432=CIRCLE('',#1305,121.319855917714);
#433=CIRCLE('',#1306,96.2210282207398);
#434=CIRCLE('',#1308,40.4601246755971);
#435=CIRCLE('',#1310,40.4601246755971);
#436=CIRCLE('',#1313,120.615241289411);
#437=CIRCLE('',#1315,103.388559445285);
#438=CIRCLE('',#1317,38.8809364505176);
#439=CIRCLE('',#1318,38.8809364505176);
#440=CIRCLE('',#1320,96.2210282207398);
#441=CIRCLE('',#1323,136.235526034674);
#442=CIRCLE('',#1324,7.49999999999997);
#443=CIRCLE('',#1325,136.235526034674);
#444=CIRCLE('',#1326,7.49999999999997);
#445=CIRCLE('',#1327,136.235526034674);
#446=CIRCLE('',#1328,7.49999999999997);
#447=CIRCLE('',#1329,5.24999999999998);
#448=CIRCLE('',#1330,5.24999999999998);
#449=CIRCLE('',#1331,5.24999999999998);
#450=CIRCLE('',#1336,5.24999999999998);
#451=CIRCLE('',#1338,5.24999999999998);
#452=CIRCLE('',#1340,5.24999999999998);
#453=CIRCLE('',#1344,121.319855917714);
#454=CIRCLE('',#1348,121.319855917714);
#455=CIRCLE('',#1353,136.235526034674);
#456=CIRCLE('',#1357,136.235526034674);
#457=CIRCLE('',#1361,136.235526034674);
#458=CIRCLE('',#1365,40.6942076051068);
#459=CIRCLE('',#1367,16.);
#460=CIRCLE('',#1369,136.235526034673);
#461=CIRCLE('',#1370,136.235526034673);
#462=CIRCLE('',#1373,121.319855917714);
#463=VERTEX_POINT('',#1757);
#464=VERTEX_POINT('',#1758);
#465=VERTEX_POINT('',#1760);
#466=VERTEX_POINT('',#1762);
#467=VERTEX_POINT('',#1766);
#468=VERTEX_POINT('',#1768);
#469=VERTEX_POINT('',#1770);
#470=VERTEX_POINT('',#1774);
#471=VERTEX_POINT('',#1775);
#472=VERTEX_POINT('',#1777);
#473=VERTEX_POINT('',#1779);
#474=VERTEX_POINT('',#1781);
#475=VERTEX_POINT('',#1783);
#476=VERTEX_POINT('',#1787);
#477=VERTEX_POINT('',#1789);
#478=VERTEX_POINT('',#1791);
#479=VERTEX_POINT('',#1793);
#480=VERTEX_POINT('',#1795);
#481=VERTEX_POINT('',#1797);
#482=VERTEX_POINT('',#1801);
#483=VERTEX_POINT('',#1802);
#484=VERTEX_POINT('',#1804);
#485=VERTEX_POINT('',#1806);
#486=VERTEX_POINT('',#1808);
#487=VERTEX_POINT('',#1812);
#488=VERTEX_POINT('',#1814);
#489=VERTEX_POINT('',#1816);
#490=VERTEX_POINT('',#1821);
#491=VERTEX_POINT('',#1823);
#492=VERTEX_POINT('',#1825);
#493=VERTEX_POINT('',#1829);
#494=VERTEX_POINT('',#1830);
#495=VERTEX_POINT('',#1832);
#496=VERTEX_POINT('',#1834);
#497=VERTEX_POINT('',#1837);
#498=VERTEX_POINT('',#1841);
#499=VERTEX_POINT('',#1842);
#500=VERTEX_POINT('',#1844);
#501=VERTEX_POINT('',#1846);
#502=VERTEX_POINT('',#1848);
#503=VERTEX_POINT('',#1850);
#504=VERTEX_POINT('',#1852);
#505=VERTEX_POINT('',#1856);
#506=VERTEX_POINT('',#1857);
#507=VERTEX_POINT('',#1859);
#508=VERTEX_POINT('',#1861);
#509=VERTEX_POINT('',#1863);
#510=VERTEX_POINT('',#1865);
#511=VERTEX_POINT('',#1867);
#512=VERTEX_POINT('',#1871);
#513=VERTEX_POINT('',#1873);
#514=VERTEX_POINT('',#1880);
#515=VERTEX_POINT('',#1882);
#516=VERTEX_POINT('',#1886);
#517=VERTEX_POINT('',#1888);
#518=VERTEX_POINT('',#1892);
#519=VERTEX_POINT('',#1894);
#520=VERTEX_POINT('',#1898);
#521=VERTEX_POINT('',#1899);
#522=VERTEX_POINT('',#1901);
#523=VERTEX_POINT('',#1903);
#524=VERTEX_POINT('',#1905);
#525=VERTEX_POINT('',#1907);
#526=VERTEX_POINT('',#1910);
#527=VERTEX_POINT('',#1912);
#528=VERTEX_POINT('',#1914);
#529=VERTEX_POINT('',#1916);
#530=VERTEX_POINT('',#1918);
#531=VERTEX_POINT('',#1920);
#532=VERTEX_POINT('',#1922);
#533=VERTEX_POINT('',#1924);
#534=VERTEX_POINT('',#1926);
#535=VERTEX_POINT('',#1928);
#536=VERTEX_POINT('',#1932);
#537=VERTEX_POINT('',#1933);
#538=VERTEX_POINT('',#1935);
#539=VERTEX_POINT('',#1937);
#540=VERTEX_POINT('',#1939);
#541=VERTEX_POINT('',#1943);
#542=VERTEX_POINT('',#1945);
#543=VERTEX_POINT('',#1949);
#544=VERTEX_POINT('',#1951);
#545=VERTEX_POINT('',#1955);
#546=VERTEX_POINT('',#1960);
#547=VERTEX_POINT('',#1964);
#548=VERTEX_POINT('',#1968);
#549=VERTEX_POINT('',#1972);
#550=VERTEX_POINT('',#1974);
#551=VERTEX_POINT('',#1978);
#552=VERTEX_POINT('',#1982);
#553=VERTEX_POINT('',#1984);
#554=VERTEX_POINT('',#1988);
#555=VERTEX_POINT('',#1993);
#556=VERTEX_POINT('',#1997);
#557=VERTEX_POINT('',#2000);
#558=VERTEX_POINT('',#2002);
#559=VERTEX_POINT('',#2005);
#560=VERTEX_POINT('',#2007);
#561=VERTEX_POINT('',#2010);
#562=VERTEX_POINT('',#2013);
#563=VERTEX_POINT('',#2015);
#564=VERTEX_POINT('',#2017);
#565=VERTEX_POINT('',#2024);
#566=VERTEX_POINT('',#2032);
#567=VERTEX_POINT('',#2034);
#568=VERTEX_POINT('',#2039);
#569=VERTEX_POINT('',#2041);
#570=VERTEX_POINT('',#2046);
#571=VERTEX_POINT('',#2050);
#572=VERTEX_POINT('',#2057);
#573=VERTEX_POINT('',#2066);
#574=VERTEX_POINT('',#2075);
#575=VERTEX_POINT('',#2096);
#576=VERTEX_POINT('',#2100);
#577=VERTEX_POINT('',#2107);
#578=EDGE_CURVE('',#463,#464,#386,.T.);
#579=EDGE_CURVE('',#464,#465,#168,.T.);
#580=EDGE_CURVE('',#466,#465,#387,.T.);
#581=EDGE_CURVE('',#463,#466,#169,.T.);
#582=EDGE_CURVE('',#467,#466,#388,.T.);
#583=EDGE_CURVE('',#467,#468,#170,.T.);
#584=EDGE_CURVE('',#469,#468,#389,.T.);
#585=EDGE_CURVE('',#466,#469,#171,.T.);
#586=EDGE_CURVE('',#470,#471,#172,.T.);
#587=EDGE_CURVE('',#472,#471,#390,.T.);
#588=EDGE_CURVE('',#472,#473,#391,.T.);
#589=EDGE_CURVE('',#473,#474,#392,.T.);
#590=EDGE_CURVE('',#475,#474,#393,.T.);
#591=EDGE_CURVE('',#475,#470,#394,.T.);
#592=EDGE_CURVE('',#476,#471,#173,.T.);
#593=EDGE_CURVE('',#476,#477,#395,.T.);
#594=EDGE_CURVE('',#477,#478,#174,.T.);
#595=EDGE_CURVE('',#478,#479,#396,.T.);
#596=EDGE_CURVE('',#480,#479,#175,.T.);
#597=EDGE_CURVE('',#481,#480,#397,.T.);
#598=EDGE_CURVE('',#472,#481,#176,.T.);
#599=EDGE_CURVE('',#482,#483,#398,.T.);
#600=EDGE_CURVE('',#484,#482,#177,.T.);
#601=EDGE_CURVE('',#485,#484,#399,.T.);
#602=EDGE_CURVE('',#485,#486,#400,.T.);
#603=EDGE_CURVE('',#483,#486,#401,.T.);
#604=EDGE_CURVE('',#487,#484,#178,.T.);
#605=EDGE_CURVE('',#488,#487,#179,.T.);
#606=EDGE_CURVE('',#488,#489,#402,.T.);
#607=EDGE_CURVE('',#489,#470,#180,.T.);
#608=EDGE_CURVE('',#475,#485,#181,.T.);
#609=EDGE_CURVE('',#490,#482,#182,.T.);
#610=EDGE_CURVE('',#490,#491,#183,.T.);
#611=EDGE_CURVE('',#491,#492,#184,.T.);
#612=EDGE_CURVE('',#492,#487,#185,.T.);
#613=EDGE_CURVE('',#493,#494,#186,.T.);
#614=EDGE_CURVE('',#495,#493,#403,.T.);
#615=EDGE_CURVE('',#496,#495,#404,.T.);
#616=EDGE_CURVE('',#479,#496,#405,.T.);
#617=EDGE_CURVE('',#497,#478,#187,.T.);
#618=EDGE_CURVE('',#494,#497,#406,.T.);
#619=EDGE_CURVE('',#498,#499,#188,.T.);
#620=EDGE_CURVE('',#500,#498,#407,.T.);
#621=EDGE_CURVE('',#501,#500,#408,.T.);
#622=EDGE_CURVE('',#502,#501,#409,.T.);
#623=EDGE_CURVE('',#503,#502,#410,.T.);
#624=EDGE_CURVE('',#504,#503,#189,.T.);
#625=EDGE_CURVE('',#499,#504,#411,.T.);
#626=EDGE_CURVE('',#505,#506,#190,.T.);
#627=EDGE_CURVE('',#507,#505,#412,.T.);
#628=EDGE_CURVE('',#508,#507,#413,.T.);
#629=EDGE_CURVE('',#509,#508,#414,.T.);
#630=EDGE_CURVE('',#510,#509,#415,.T.);
#631=EDGE_CURVE('',#511,#510,#191,.T.);
#632=EDGE_CURVE('',#506,#511,#416,.T.);
#633=EDGE_CURVE('',#512,#474,#192,.T.);
#634=EDGE_CURVE('',#473,#513,#193,.T.);
#635=EDGE_CURVE('',#513,#513,#417,.T.);
#636=EDGE_CURVE('',#512,#481,#418,.T.);
#637=EDGE_CURVE('',#489,#476,#194,.T.);
#638=EDGE_CURVE('',#514,#494,#195,.T.);
#639=EDGE_CURVE('',#514,#515,#196,.T.);
#640=EDGE_CURVE('',#515,#493,#197,.T.);
#641=EDGE_CURVE('',#516,#499,#198,.T.);
#642=EDGE_CURVE('',#516,#517,#199,.T.);
#643=EDGE_CURVE('',#517,#498,#200,.T.);
#644=EDGE_CURVE('',#518,#506,#201,.T.);
#645=EDGE_CURVE('',#518,#519,#202,.T.);
#646=EDGE_CURVE('',#519,#505,#203,.T.);
#647=EDGE_CURVE('',#520,#521,#204,.T.);
#648=EDGE_CURVE('',#522,#521,#419,.T.);
#649=EDGE_CURVE('',#523,#522,#205,.T.);
#650=EDGE_CURVE('',#524,#522,#420,.T.);
#651=EDGE_CURVE('',#525,#524,#206,.T.);
#652=EDGE_CURVE('',#525,#488,#421,.T.);
#653=EDGE_CURVE('',#487,#526,#422,.T.);
#654=EDGE_CURVE('',#526,#527,#207,.T.);
#655=EDGE_CURVE('',#528,#527,#423,.T.);
#656=EDGE_CURVE('',#529,#528,#208,.T.);
#657=EDGE_CURVE('',#530,#528,#424,.T.);
#658=EDGE_CURVE('',#531,#530,#209,.T.);
#659=EDGE_CURVE('',#532,#530,#425,.T.);
#660=EDGE_CURVE('',#533,#532,#210,.T.);
#661=EDGE_CURVE('',#534,#532,#426,.T.);
#662=EDGE_CURVE('',#535,#534,#211,.T.);
#663=EDGE_CURVE('',#521,#534,#427,.T.);
#664=EDGE_CURVE('',#536,#537,#428,.T.);
#665=EDGE_CURVE('',#538,#536,#429,.T.);
#666=EDGE_CURVE('',#539,#538,#212,.T.);
#667=EDGE_CURVE('',#540,#539,#430,.T.);
#668=EDGE_CURVE('',#523,#540,#213,.T.);
#669=EDGE_CURVE('',#520,#523,#214,.T.);
#670=EDGE_CURVE('',#541,#520,#215,.T.);
#671=EDGE_CURVE('',#542,#541,#431,.T.);
#672=EDGE_CURVE('',#535,#542,#216,.T.);
#673=EDGE_CURVE('',#533,#535,#217,.T.);
#674=EDGE_CURVE('',#543,#533,#218,.T.);
#675=EDGE_CURVE('',#544,#543,#432,.T.);
#676=EDGE_CURVE('',#531,#544,#219,.T.);
#677=EDGE_CURVE('',#529,#531,#220,.T.);
#678=EDGE_CURVE('',#545,#529,#221,.T.);
#679=EDGE_CURVE('',#467,#545,#433,.T.);
#680=EDGE_CURVE('',#537,#465,#222,.T.);
#681=EDGE_CURVE('',#546,#492,#434,.T.);
#682=EDGE_CURVE('',#526,#546,#223,.T.);
#683=EDGE_CURVE('',#547,#491,#435,.T.);
#684=EDGE_CURVE('',#546,#547,#224,.T.);
#685=EDGE_CURVE('',#548,#464,#225,.T.);
#686=EDGE_CURVE('',#548,#537,#226,.T.);
#687=EDGE_CURVE('',#536,#549,#227,.T.);
#688=EDGE_CURVE('',#550,#549,#436,.T.);
#689=EDGE_CURVE('',#538,#550,#228,.T.);
#690=EDGE_CURVE('',#537,#551,#229,.T.);
#691=EDGE_CURVE('',#549,#551,#437,.T.);
#692=EDGE_CURVE('',#548,#552,#438,.T.);
#693=EDGE_CURVE('',#552,#553,#230,.T.);
#694=EDGE_CURVE('',#551,#553,#439,.T.);
#695=EDGE_CURVE('',#545,#554,#231,.T.);
#696=EDGE_CURVE('',#468,#554,#440,.T.);
#697=EDGE_CURVE('',#520,#521,#232,.T.);
#698=EDGE_CURVE('',#555,#521,#233,.T.);
#699=EDGE_CURVE('',#541,#555,#234,.T.);
#700=EDGE_CURVE('',#556,#525,#235,.T.);
#701=EDGE_CURVE('',#517,#556,#441,.T.);
#702=EDGE_CURVE('',#557,#516,#442,.T.);
#703=EDGE_CURVE('',#558,#557,#236,.T.);
#704=EDGE_CURVE('',#519,#558,#443,.T.);
#705=EDGE_CURVE('',#559,#518,#444,.T.);
#706=EDGE_CURVE('',#560,#559,#237,.T.);
#707=EDGE_CURVE('',#515,#560,#445,.T.);
#708=EDGE_CURVE('',#561,#514,#446,.T.);
#709=EDGE_CURVE('',#477,#561,#238,.T.);
#710=EDGE_CURVE('',#562,#562,#447,.T.);
#711=EDGE_CURVE('',#563,#563,#448,.T.);
#712=EDGE_CURVE('',#564,#564,#449,.T.);
#713=EDGE_CURVE('',#529,#528,#239,.T.);
#714=EDGE_CURVE('',#554,#528,#240,.T.);
#715=EDGE_CURVE('',#533,#532,#241,.T.);
#716=EDGE_CURVE('',#565,#532,#242,.T.);
#717=EDGE_CURVE('',#543,#565,#243,.T.);
#718=EDGE_CURVE('',#531,#530,#244,.T.);
#719=EDGE_CURVE('',#528,#530,#245,.T.);
#720=EDGE_CURVE('',#508,#562,#246,.T.);
#721=EDGE_CURVE('',#507,#566,#247,.T.);
#722=EDGE_CURVE('',#567,#566,#450,.T.);
#723=EDGE_CURVE('',#567,#509,#248,.T.);
#724=EDGE_CURVE('',#501,#563,#249,.T.);
#725=EDGE_CURVE('',#500,#568,#250,.T.);
#726=EDGE_CURVE('',#569,#568,#451,.T.);
#727=EDGE_CURVE('',#569,#502,#251,.T.);
#728=EDGE_CURVE('',#496,#564,#252,.T.);
#729=EDGE_CURVE('',#495,#570,#253,.T.);
#730=EDGE_CURVE('',#480,#570,#452,.T.);
#731=EDGE_CURVE('',#540,#571,#254,.T.);
#732=EDGE_CURVE('',#522,#571,#255,.T.);
#733=EDGE_CURVE('',#523,#522,#256,.T.);
#734=EDGE_CURVE('',#521,#522,#257,.T.);
#735=EDGE_CURVE('',#572,#555,#453,.T.);
#736=EDGE_CURVE('',#542,#572,#258,.T.);
#737=EDGE_CURVE('',#534,#572,#259,.T.);
#738=EDGE_CURVE('',#535,#534,#260,.T.);
#739=EDGE_CURVE('',#532,#534,#261,.T.);
#740=EDGE_CURVE('',#573,#565,#454,.T.);
#741=EDGE_CURVE('',#544,#573,#262,.T.);
#742=EDGE_CURVE('',#530,#573,#263,.T.);
#743=EDGE_CURVE('',#527,#469,#264,.T.);
#744=EDGE_CURVE('',#547,#463,#265,.T.);
#745=EDGE_CURVE('',#574,#524,#266,.T.);
#746=EDGE_CURVE('',#556,#574,#267,.T.);
#747=EDGE_CURVE('',#568,#574,#455,.T.);
#748=EDGE_CURVE('',#557,#504,#268,.T.);
#749=EDGE_CURVE('',#558,#503,#269,.T.);
#750=EDGE_CURVE('',#566,#569,#456,.T.);
#751=EDGE_CURVE('',#559,#511,#270,.T.);
#752=EDGE_CURVE('',#560,#510,#271,.T.);
#753=EDGE_CURVE('',#570,#567,#457,.T.);
#754=EDGE_CURVE('',#561,#497,#272,.T.);
#755=EDGE_CURVE('',#575,#483,#273,.T.);
#756=EDGE_CURVE('',#575,#490,#458,.T.);
#757=EDGE_CURVE('',#576,#486,#274,.T.);
#758=EDGE_CURVE('',#576,#575,#459,.T.);
#759=EDGE_CURVE('',#553,#512,#460,.T.);
#760=EDGE_CURVE('',#552,#576,#461,.T.);
#761=EDGE_CURVE('',#577,#550,#275,.T.);
#762=EDGE_CURVE('',#539,#577,#276,.T.);
#763=EDGE_CURVE('',#571,#577,#462,.T.);
#764=ORIENTED_EDGE('',*,*,#578,.T.);
#765=ORIENTED_EDGE('',*,*,#579,.T.);
#766=ORIENTED_EDGE('',*,*,#580,.F.);
#767=ORIENTED_EDGE('',*,*,#581,.F.);
#768=ORIENTED_EDGE('',*,*,#582,.F.);
#769=ORIENTED_EDGE('',*,*,#583,.T.);
#770=ORIENTED_EDGE('',*,*,#584,.F.);
#771=ORIENTED_EDGE('',*,*,#585,.F.);
#772=ORIENTED_EDGE('',*,*,#586,.T.);
#773=ORIENTED_EDGE('',*,*,#587,.F.);
#774=ORIENTED_EDGE('',*,*,#588,.T.);
#775=ORIENTED_EDGE('',*,*,#589,.T.);
#776=ORIENTED_EDGE('',*,*,#590,.F.);
#777=ORIENTED_EDGE('',*,*,#591,.T.);
#778=ORIENTED_EDGE('',*,*,#587,.T.);
#779=ORIENTED_EDGE('',*,*,#592,.F.);
#780=ORIENTED_EDGE('',*,*,#593,.T.);
#781=ORIENTED_EDGE('',*,*,#594,.T.);
#782=ORIENTED_EDGE('',*,*,#595,.T.);
#783=ORIENTED_EDGE('',*,*,#596,.F.);
#784=ORIENTED_EDGE('',*,*,#597,.F.);
#785=ORIENTED_EDGE('',*,*,#598,.F.);
#786=ORIENTED_EDGE('',*,*,#599,.F.);
#787=ORIENTED_EDGE('',*,*,#600,.F.);
#788=ORIENTED_EDGE('',*,*,#601,.F.);
#789=ORIENTED_EDGE('',*,*,#602,.T.);
#790=ORIENTED_EDGE('',*,*,#603,.F.);
#791=ORIENTED_EDGE('',*,*,#601,.T.);
#792=ORIENTED_EDGE('',*,*,#604,.F.);
#793=ORIENTED_EDGE('',*,*,#605,.F.);
#794=ORIENTED_EDGE('',*,*,#606,.T.);
#795=ORIENTED_EDGE('',*,*,#607,.T.);
#796=ORIENTED_EDGE('',*,*,#591,.F.);
#797=ORIENTED_EDGE('',*,*,#608,.T.);
#798=ORIENTED_EDGE('',*,*,#600,.T.);
#799=ORIENTED_EDGE('',*,*,#609,.F.);
#800=ORIENTED_EDGE('',*,*,#610,.T.);
#801=ORIENTED_EDGE('',*,*,#611,.T.);
#802=ORIENTED_EDGE('',*,*,#612,.T.);
#803=ORIENTED_EDGE('',*,*,#604,.T.);
#804=ORIENTED_EDGE('',*,*,#613,.F.);
#805=ORIENTED_EDGE('',*,*,#614,.F.);
#806=ORIENTED_EDGE('',*,*,#615,.F.);
#807=ORIENTED_EDGE('',*,*,#616,.F.);
#808=ORIENTED_EDGE('',*,*,#595,.F.);
#809=ORIENTED_EDGE('',*,*,#617,.F.);
#810=ORIENTED_EDGE('',*,*,#618,.F.);
#811=ORIENTED_EDGE('',*,*,#619,.F.);
#812=ORIENTED_EDGE('',*,*,#620,.F.);
#813=ORIENTED_EDGE('',*,*,#621,.F.);
#814=ORIENTED_EDGE('',*,*,#622,.F.);
#815=ORIENTED_EDGE('',*,*,#623,.F.);
#816=ORIENTED_EDGE('',*,*,#624,.F.);
#817=ORIENTED_EDGE('',*,*,#625,.F.);
#818=ORIENTED_EDGE('',*,*,#626,.F.);
#819=ORIENTED_EDGE('',*,*,#627,.F.);
#820=ORIENTED_EDGE('',*,*,#628,.F.);
#821=ORIENTED_EDGE('',*,*,#629,.F.);
#822=ORIENTED_EDGE('',*,*,#630,.F.);
#823=ORIENTED_EDGE('',*,*,#631,.F.);
#824=ORIENTED_EDGE('',*,*,#632,.F.);
#825=ORIENTED_EDGE('',*,*,#633,.T.);
#826=ORIENTED_EDGE('',*,*,#589,.F.);
#827=ORIENTED_EDGE('',*,*,#634,.T.);
#828=ORIENTED_EDGE('',*,*,#635,.T.);
#829=ORIENTED_EDGE('',*,*,#634,.F.);
#830=ORIENTED_EDGE('',*,*,#588,.F.);
#831=ORIENTED_EDGE('',*,*,#598,.T.);
#832=ORIENTED_EDGE('',*,*,#636,.F.);
#833=ORIENTED_EDGE('',*,*,#607,.F.);
#834=ORIENTED_EDGE('',*,*,#637,.T.);
#835=ORIENTED_EDGE('',*,*,#592,.T.);
#836=ORIENTED_EDGE('',*,*,#586,.F.);
#837=ORIENTED_EDGE('',*,*,#613,.T.);
#838=ORIENTED_EDGE('',*,*,#638,.F.);
#839=ORIENTED_EDGE('',*,*,#639,.T.);
#840=ORIENTED_EDGE('',*,*,#640,.T.);
#841=ORIENTED_EDGE('',*,*,#619,.T.);
#842=ORIENTED_EDGE('',*,*,#641,.F.);
#843=ORIENTED_EDGE('',*,*,#642,.T.);
#844=ORIENTED_EDGE('',*,*,#643,.T.);
#845=ORIENTED_EDGE('',*,*,#626,.T.);
#846=ORIENTED_EDGE('',*,*,#644,.F.);
#847=ORIENTED_EDGE('',*,*,#645,.T.);
#848=ORIENTED_EDGE('',*,*,#646,.T.);
#849=ORIENTED_EDGE('',*,*,#647,.T.);
#850=ORIENTED_EDGE('',*,*,#648,.F.);
#851=ORIENTED_EDGE('',*,*,#649,.F.);
#852=ORIENTED_EDGE('',*,*,#649,.T.);
#853=ORIENTED_EDGE('',*,*,#650,.F.);
#854=ORIENTED_EDGE('',*,*,#651,.F.);
#855=ORIENTED_EDGE('',*,*,#652,.T.);
#856=ORIENTED_EDGE('',*,*,#605,.T.);
#857=ORIENTED_EDGE('',*,*,#653,.T.);
#858=ORIENTED_EDGE('',*,*,#654,.T.);
#859=ORIENTED_EDGE('',*,*,#655,.F.);
#860=ORIENTED_EDGE('',*,*,#656,.F.);
#861=ORIENTED_EDGE('',*,*,#656,.T.);
#862=ORIENTED_EDGE('',*,*,#657,.F.);
#863=ORIENTED_EDGE('',*,*,#658,.F.);
#864=ORIENTED_EDGE('',*,*,#658,.T.);
#865=ORIENTED_EDGE('',*,*,#659,.F.);
#866=ORIENTED_EDGE('',*,*,#660,.F.);
#867=ORIENTED_EDGE('',*,*,#660,.T.);
#868=ORIENTED_EDGE('',*,*,#661,.F.);
#869=ORIENTED_EDGE('',*,*,#662,.F.);
#870=ORIENTED_EDGE('',*,*,#662,.T.);
#871=ORIENTED_EDGE('',*,*,#663,.F.);
#872=ORIENTED_EDGE('',*,*,#647,.F.);
#873=ORIENTED_EDGE('',*,*,#664,.F.);
#874=ORIENTED_EDGE('',*,*,#665,.F.);
#875=ORIENTED_EDGE('',*,*,#666,.F.);
#876=ORIENTED_EDGE('',*,*,#667,.F.);
#877=ORIENTED_EDGE('',*,*,#668,.F.);
#878=ORIENTED_EDGE('',*,*,#669,.F.);
#879=ORIENTED_EDGE('',*,*,#670,.F.);
#880=ORIENTED_EDGE('',*,*,#671,.F.);
#881=ORIENTED_EDGE('',*,*,#672,.F.);
#882=ORIENTED_EDGE('',*,*,#673,.F.);
#883=ORIENTED_EDGE('',*,*,#674,.F.);
#884=ORIENTED_EDGE('',*,*,#675,.F.);
#885=ORIENTED_EDGE('',*,*,#676,.F.);
#886=ORIENTED_EDGE('',*,*,#677,.F.);
#887=ORIENTED_EDGE('',*,*,#678,.F.);
#888=ORIENTED_EDGE('',*,*,#679,.F.);
#889=ORIENTED_EDGE('',*,*,#582,.T.);
#890=ORIENTED_EDGE('',*,*,#580,.T.);
#891=ORIENTED_EDGE('',*,*,#680,.F.);
#892=ORIENTED_EDGE('',*,*,#612,.F.);
#893=ORIENTED_EDGE('',*,*,#681,.F.);
#894=ORIENTED_EDGE('',*,*,#682,.F.);
#895=ORIENTED_EDGE('',*,*,#653,.F.);
#896=ORIENTED_EDGE('',*,*,#611,.F.);
#897=ORIENTED_EDGE('',*,*,#683,.F.);
#898=ORIENTED_EDGE('',*,*,#684,.F.);
#899=ORIENTED_EDGE('',*,*,#681,.T.);
#900=ORIENTED_EDGE('',*,*,#579,.F.);
#901=ORIENTED_EDGE('',*,*,#685,.F.);
#902=ORIENTED_EDGE('',*,*,#686,.T.);
#903=ORIENTED_EDGE('',*,*,#680,.T.);
#904=ORIENTED_EDGE('',*,*,#665,.T.);
#905=ORIENTED_EDGE('',*,*,#687,.T.);
#906=ORIENTED_EDGE('',*,*,#688,.F.);
#907=ORIENTED_EDGE('',*,*,#689,.F.);
#908=ORIENTED_EDGE('',*,*,#664,.T.);
#909=ORIENTED_EDGE('',*,*,#690,.T.);
#910=ORIENTED_EDGE('',*,*,#691,.F.);
#911=ORIENTED_EDGE('',*,*,#687,.F.);
#912=ORIENTED_EDGE('',*,*,#686,.F.);
#913=ORIENTED_EDGE('',*,*,#692,.T.);
#914=ORIENTED_EDGE('',*,*,#693,.T.);
#915=ORIENTED_EDGE('',*,*,#694,.F.);
#916=ORIENTED_EDGE('',*,*,#690,.F.);
#917=ORIENTED_EDGE('',*,*,#679,.T.);
#918=ORIENTED_EDGE('',*,*,#695,.T.);
#919=ORIENTED_EDGE('',*,*,#696,.F.);
#920=ORIENTED_EDGE('',*,*,#583,.F.);
#921=ORIENTED_EDGE('',*,*,#670,.T.);
#922=ORIENTED_EDGE('',*,*,#697,.T.);
#923=ORIENTED_EDGE('',*,*,#698,.F.);
#924=ORIENTED_EDGE('',*,*,#699,.F.);
#925=ORIENTED_EDGE('',*,*,#652,.F.);
#926=ORIENTED_EDGE('',*,*,#700,.F.);
#927=ORIENTED_EDGE('',*,*,#701,.F.);
#928=ORIENTED_EDGE('',*,*,#642,.F.);
#929=ORIENTED_EDGE('',*,*,#702,.F.);
#930=ORIENTED_EDGE('',*,*,#703,.F.);
#931=ORIENTED_EDGE('',*,*,#704,.F.);
#932=ORIENTED_EDGE('',*,*,#645,.F.);
#933=ORIENTED_EDGE('',*,*,#705,.F.);
#934=ORIENTED_EDGE('',*,*,#706,.F.);
#935=ORIENTED_EDGE('',*,*,#707,.F.);
#936=ORIENTED_EDGE('',*,*,#639,.F.);
#937=ORIENTED_EDGE('',*,*,#708,.F.);
#938=ORIENTED_EDGE('',*,*,#709,.F.);
#939=ORIENTED_EDGE('',*,*,#593,.F.);
#940=ORIENTED_EDGE('',*,*,#637,.F.);
#941=ORIENTED_EDGE('',*,*,#606,.F.);
#942=ORIENTED_EDGE('',*,*,#710,.F.);
#943=ORIENTED_EDGE('',*,*,#711,.F.);
#944=ORIENTED_EDGE('',*,*,#712,.F.);
#945=ORIENTED_EDGE('',*,*,#635,.F.);
#946=ORIENTED_EDGE('',*,*,#678,.T.);
#947=ORIENTED_EDGE('',*,*,#713,.T.);
#948=ORIENTED_EDGE('',*,*,#714,.F.);
#949=ORIENTED_EDGE('',*,*,#695,.F.);
#950=ORIENTED_EDGE('',*,*,#674,.T.);
#951=ORIENTED_EDGE('',*,*,#715,.T.);
#952=ORIENTED_EDGE('',*,*,#716,.F.);
#953=ORIENTED_EDGE('',*,*,#717,.F.);
#954=ORIENTED_EDGE('',*,*,#677,.T.);
#955=ORIENTED_EDGE('',*,*,#718,.T.);
#956=ORIENTED_EDGE('',*,*,#719,.F.);
#957=ORIENTED_EDGE('',*,*,#713,.F.);
#958=ORIENTED_EDGE('',*,*,#629,.T.);
#959=ORIENTED_EDGE('',*,*,#720,.T.);
#960=ORIENTED_EDGE('',*,*,#710,.T.);
#961=ORIENTED_EDGE('',*,*,#720,.F.);
#962=ORIENTED_EDGE('',*,*,#628,.T.);
#963=ORIENTED_EDGE('',*,*,#721,.T.);
#964=ORIENTED_EDGE('',*,*,#722,.F.);
#965=ORIENTED_EDGE('',*,*,#723,.T.);
#966=ORIENTED_EDGE('',*,*,#622,.T.);
#967=ORIENTED_EDGE('',*,*,#724,.T.);
#968=ORIENTED_EDGE('',*,*,#711,.T.);
#969=ORIENTED_EDGE('',*,*,#724,.F.);
#970=ORIENTED_EDGE('',*,*,#621,.T.);
#971=ORIENTED_EDGE('',*,*,#725,.T.);
#972=ORIENTED_EDGE('',*,*,#726,.F.);
#973=ORIENTED_EDGE('',*,*,#727,.T.);
#974=ORIENTED_EDGE('',*,*,#616,.T.);
#975=ORIENTED_EDGE('',*,*,#728,.T.);
#976=ORIENTED_EDGE('',*,*,#712,.T.);
#977=ORIENTED_EDGE('',*,*,#728,.F.);
#978=ORIENTED_EDGE('',*,*,#615,.T.);
#979=ORIENTED_EDGE('',*,*,#729,.T.);
#980=ORIENTED_EDGE('',*,*,#730,.F.);
#981=ORIENTED_EDGE('',*,*,#596,.T.);
#982=ORIENTED_EDGE('',*,*,#668,.T.);
#983=ORIENTED_EDGE('',*,*,#731,.T.);
#984=ORIENTED_EDGE('',*,*,#732,.F.);
#985=ORIENTED_EDGE('',*,*,#733,.F.);
#986=ORIENTED_EDGE('',*,*,#669,.T.);
#987=ORIENTED_EDGE('',*,*,#733,.T.);
#988=ORIENTED_EDGE('',*,*,#734,.F.);
#989=ORIENTED_EDGE('',*,*,#697,.F.);
#990=ORIENTED_EDGE('',*,*,#671,.T.);
#991=ORIENTED_EDGE('',*,*,#699,.T.);
#992=ORIENTED_EDGE('',*,*,#735,.F.);
#993=ORIENTED_EDGE('',*,*,#736,.F.);
#994=ORIENTED_EDGE('',*,*,#672,.T.);
#995=ORIENTED_EDGE('',*,*,#736,.T.);
#996=ORIENTED_EDGE('',*,*,#737,.F.);
#997=ORIENTED_EDGE('',*,*,#738,.F.);
#998=ORIENTED_EDGE('',*,*,#673,.T.);
#999=ORIENTED_EDGE('',*,*,#738,.T.);
#1000=ORIENTED_EDGE('',*,*,#739,.F.);
#1001=ORIENTED_EDGE('',*,*,#715,.F.);
#1002=ORIENTED_EDGE('',*,*,#675,.T.);
#1003=ORIENTED_EDGE('',*,*,#717,.T.);
#1004=ORIENTED_EDGE('',*,*,#740,.F.);
#1005=ORIENTED_EDGE('',*,*,#741,.F.);
#1006=ORIENTED_EDGE('',*,*,#676,.T.);
#1007=ORIENTED_EDGE('',*,*,#741,.T.);
#1008=ORIENTED_EDGE('',*,*,#742,.F.);
#1009=ORIENTED_EDGE('',*,*,#718,.F.);
#1010=ORIENTED_EDGE('',*,*,#581,.T.);
#1011=ORIENTED_EDGE('',*,*,#585,.T.);
#1012=ORIENTED_EDGE('',*,*,#743,.F.);
#1013=ORIENTED_EDGE('',*,*,#654,.F.);
#1014=ORIENTED_EDGE('',*,*,#682,.T.);
#1015=ORIENTED_EDGE('',*,*,#684,.T.);
#1016=ORIENTED_EDGE('',*,*,#744,.T.);
#1017=ORIENTED_EDGE('',*,*,#700,.T.);
#1018=ORIENTED_EDGE('',*,*,#651,.T.);
#1019=ORIENTED_EDGE('',*,*,#745,.F.);
#1020=ORIENTED_EDGE('',*,*,#746,.F.);
#1021=ORIENTED_EDGE('',*,*,#701,.T.);
#1022=ORIENTED_EDGE('',*,*,#746,.T.);
#1023=ORIENTED_EDGE('',*,*,#747,.F.);
#1024=ORIENTED_EDGE('',*,*,#725,.F.);
#1025=ORIENTED_EDGE('',*,*,#620,.T.);
#1026=ORIENTED_EDGE('',*,*,#643,.F.);
#1027=ORIENTED_EDGE('',*,*,#625,.T.);
#1028=ORIENTED_EDGE('',*,*,#748,.F.);
#1029=ORIENTED_EDGE('',*,*,#702,.T.);
#1030=ORIENTED_EDGE('',*,*,#641,.T.);
#1031=ORIENTED_EDGE('',*,*,#624,.T.);
#1032=ORIENTED_EDGE('',*,*,#749,.F.);
#1033=ORIENTED_EDGE('',*,*,#703,.T.);
#1034=ORIENTED_EDGE('',*,*,#748,.T.);
#1035=ORIENTED_EDGE('',*,*,#704,.T.);
#1036=ORIENTED_EDGE('',*,*,#749,.T.);
#1037=ORIENTED_EDGE('',*,*,#623,.T.);
#1038=ORIENTED_EDGE('',*,*,#727,.F.);
#1039=ORIENTED_EDGE('',*,*,#750,.F.);
#1040=ORIENTED_EDGE('',*,*,#721,.F.);
#1041=ORIENTED_EDGE('',*,*,#627,.T.);
#1042=ORIENTED_EDGE('',*,*,#646,.F.);
#1043=ORIENTED_EDGE('',*,*,#632,.T.);
#1044=ORIENTED_EDGE('',*,*,#751,.F.);
#1045=ORIENTED_EDGE('',*,*,#705,.T.);
#1046=ORIENTED_EDGE('',*,*,#644,.T.);
#1047=ORIENTED_EDGE('',*,*,#631,.T.);
#1048=ORIENTED_EDGE('',*,*,#752,.F.);
#1049=ORIENTED_EDGE('',*,*,#706,.T.);
#1050=ORIENTED_EDGE('',*,*,#751,.T.);
#1051=ORIENTED_EDGE('',*,*,#707,.T.);
#1052=ORIENTED_EDGE('',*,*,#752,.T.);
#1053=ORIENTED_EDGE('',*,*,#630,.T.);
#1054=ORIENTED_EDGE('',*,*,#723,.F.);
#1055=ORIENTED_EDGE('',*,*,#753,.F.);
#1056=ORIENTED_EDGE('',*,*,#729,.F.);
#1057=ORIENTED_EDGE('',*,*,#614,.T.);
#1058=ORIENTED_EDGE('',*,*,#640,.F.);
#1059=ORIENTED_EDGE('',*,*,#618,.T.);
#1060=ORIENTED_EDGE('',*,*,#754,.F.);
#1061=ORIENTED_EDGE('',*,*,#708,.T.);
#1062=ORIENTED_EDGE('',*,*,#638,.T.);
#1063=ORIENTED_EDGE('',*,*,#617,.T.);
#1064=ORIENTED_EDGE('',*,*,#594,.F.);
#1065=ORIENTED_EDGE('',*,*,#709,.T.);
#1066=ORIENTED_EDGE('',*,*,#754,.T.);
#1067=ORIENTED_EDGE('',*,*,#599,.T.);
#1068=ORIENTED_EDGE('',*,*,#755,.F.);
#1069=ORIENTED_EDGE('',*,*,#756,.T.);
#1070=ORIENTED_EDGE('',*,*,#609,.T.);
#1071=ORIENTED_EDGE('',*,*,#603,.T.);
#1072=ORIENTED_EDGE('',*,*,#757,.F.);
#1073=ORIENTED_EDGE('',*,*,#758,.T.);
#1074=ORIENTED_EDGE('',*,*,#755,.T.);
#1075=ORIENTED_EDGE('',*,*,#590,.T.);
#1076=ORIENTED_EDGE('',*,*,#633,.F.);
#1077=ORIENTED_EDGE('',*,*,#759,.F.);
#1078=ORIENTED_EDGE('',*,*,#693,.F.);
#1079=ORIENTED_EDGE('',*,*,#760,.T.);
#1080=ORIENTED_EDGE('',*,*,#757,.T.);
#1081=ORIENTED_EDGE('',*,*,#602,.F.);
#1082=ORIENTED_EDGE('',*,*,#608,.F.);
#1083=ORIENTED_EDGE('',*,*,#666,.T.);
#1084=ORIENTED_EDGE('',*,*,#689,.T.);
#1085=ORIENTED_EDGE('',*,*,#761,.F.);
#1086=ORIENTED_EDGE('',*,*,#762,.F.);
#1087=ORIENTED_EDGE('',*,*,#667,.T.);
#1088=ORIENTED_EDGE('',*,*,#762,.T.);
#1089=ORIENTED_EDGE('',*,*,#763,.F.);
#1090=ORIENTED_EDGE('',*,*,#731,.F.);
#1091=ORIENTED_EDGE('',*,*,#759,.T.);
#1092=ORIENTED_EDGE('',*,*,#636,.T.);
#1093=ORIENTED_EDGE('',*,*,#597,.T.);
#1094=ORIENTED_EDGE('',*,*,#730,.T.);
#1095=ORIENTED_EDGE('',*,*,#753,.T.);
#1096=ORIENTED_EDGE('',*,*,#722,.T.);
#1097=ORIENTED_EDGE('',*,*,#750,.T.);
#1098=ORIENTED_EDGE('',*,*,#726,.T.);
#1099=ORIENTED_EDGE('',*,*,#747,.T.);
#1100=ORIENTED_EDGE('',*,*,#745,.T.);
#1101=ORIENTED_EDGE('',*,*,#650,.T.);
#1102=ORIENTED_EDGE('',*,*,#648,.T.);
#1103=ORIENTED_EDGE('',*,*,#663,.T.);
#1104=ORIENTED_EDGE('',*,*,#661,.T.);
#1105=ORIENTED_EDGE('',*,*,#659,.T.);
#1106=ORIENTED_EDGE('',*,*,#657,.T.);
#1107=ORIENTED_EDGE('',*,*,#655,.T.);
#1108=ORIENTED_EDGE('',*,*,#743,.T.);
#1109=ORIENTED_EDGE('',*,*,#584,.T.);
#1110=ORIENTED_EDGE('',*,*,#696,.T.);
#1111=ORIENTED_EDGE('',*,*,#714,.T.);
#1112=ORIENTED_EDGE('',*,*,#719,.T.);
#1113=ORIENTED_EDGE('',*,*,#742,.T.);
#1114=ORIENTED_EDGE('',*,*,#740,.T.);
#1115=ORIENTED_EDGE('',*,*,#716,.T.);
#1116=ORIENTED_EDGE('',*,*,#739,.T.);
#1117=ORIENTED_EDGE('',*,*,#737,.T.);
#1118=ORIENTED_EDGE('',*,*,#735,.T.);
#1119=ORIENTED_EDGE('',*,*,#698,.T.);
#1120=ORIENTED_EDGE('',*,*,#734,.T.);
#1121=ORIENTED_EDGE('',*,*,#732,.T.);
#1122=ORIENTED_EDGE('',*,*,#763,.T.);
#1123=ORIENTED_EDGE('',*,*,#761,.T.);
#1124=ORIENTED_EDGE('',*,*,#688,.T.);
#1125=ORIENTED_EDGE('',*,*,#691,.T.);
#1126=ORIENTED_EDGE('',*,*,#694,.T.);
#1127=ORIENTED_EDGE('',*,*,#578,.F.);
#1128=ORIENTED_EDGE('',*,*,#744,.F.);
#1129=ORIENTED_EDGE('',*,*,#683,.T.);
#1130=ORIENTED_EDGE('',*,*,#610,.F.);
#1131=ORIENTED_EDGE('',*,*,#756,.F.);
#1132=ORIENTED_EDGE('',*,*,#758,.F.);
#1133=ORIENTED_EDGE('',*,*,#760,.F.);
#1134=ORIENTED_EDGE('',*,*,#692,.F.);
#1135=ORIENTED_EDGE('',*,*,#685,.T.);
#1136=CYLINDRICAL_SURFACE('',#1242,2.);
#1137=CYLINDRICAL_SURFACE('',#1245,32.);
#1138=CYLINDRICAL_SURFACE('',#1254,136.235526034674);
#1139=CYLINDRICAL_SURFACE('',#1263,7.49999999999997);
#1140=CYLINDRICAL_SURFACE('',#1283,5.24999999999998);
#1141=CYLINDRICAL_SURFACE('',#1290,134.235526034674);
#1142=CYLINDRICAL_SURFACE('',#1309,40.4601246755971);
#1143=CYLINDRICAL_SURFACE('',#1312,120.615241289411);
#1144=CYLINDRICAL_SURFACE('',#1314,103.388559445285);
#1145=CYLINDRICAL_SURFACE('',#1316,38.8809364505176);
#1146=CYLINDRICAL_SURFACE('',#1319,96.2210282207398);
#1147=CYLINDRICAL_SURFACE('',#1335,5.24999999999998);
#1148=CYLINDRICAL_SURFACE('',#1337,5.24999999999998);
#1149=CYLINDRICAL_SURFACE('',#1339,5.24999999999998);
#1150=CYLINDRICAL_SURFACE('',#1343,121.319855917714);
#1151=CYLINDRICAL_SURFACE('',#1347,121.319855917714);
#1152=CYLINDRICAL_SURFACE('',#1352,136.235526034674);
#1153=CYLINDRICAL_SURFACE('',#1354,7.49999999999997);
#1154=CYLINDRICAL_SURFACE('',#1356,136.235526034674);
#1155=CYLINDRICAL_SURFACE('',#1358,7.49999999999997);
#1156=CYLINDRICAL_SURFACE('',#1360,136.235526034674);
#1157=CYLINDRICAL_SURFACE('',#1362,7.49999999999997);
#1158=CYLINDRICAL_SURFACE('',#1364,40.6942076051068);
#1159=CYLINDRICAL_SURFACE('',#1366,16.);
#1160=CYLINDRICAL_SURFACE('',#1368,136.235526034673);
#1161=CYLINDRICAL_SURFACE('',#1372,121.319855917714);
#1162=ADVANCED_FACE('',(#50),#1136,.T.);
#1163=ADVANCED_FACE('',(#51),#1137,.F.);
#1164=ADVANCED_FACE('',(#52),#19,.T.);
#1165=ADVANCED_FACE('',(#53),#1138,.T.);
#1166=ADVANCED_FACE('',(#54),#20,.F.);
#1167=ADVANCED_FACE('',(#55),#1139,.T.);
#1168=ADVANCED_FACE('',(#56),#21,.T.);
#1169=ADVANCED_FACE('',(#57),#22,.T.);
#1170=ADVANCED_FACE('',(#58),#23,.T.);
#1171=ADVANCED_FACE('',(#59),#24,.T.);
#1172=ADVANCED_FACE('',(#60),#1140,.F.);
#1173=ADVANCED_FACE('',(#61),#25,.T.);
#1174=ADVANCED_FACE('',(#62),#26,.T.);
#1175=ADVANCED_FACE('',(#63),#27,.T.);
#1176=ADVANCED_FACE('',(#64),#28,.T.);
#1177=ADVANCED_FACE('',(#65),#1141,.F.);
#1178=ADVANCED_FACE('',(#66),#29,.T.);
#1179=ADVANCED_FACE('',(#67),#30,.T.);
#1180=ADVANCED_FACE('',(#68),#1142,.F.);
#1181=ADVANCED_FACE('',(#69),#31,.F.);
#1182=ADVANCED_FACE('',(#70),#1143,.F.);
#1183=ADVANCED_FACE('',(#71),#1144,.F.);
#1184=ADVANCED_FACE('',(#72),#1145,.T.);
#1185=ADVANCED_FACE('',(#73),#1146,.T.);
#1186=ADVANCED_FACE('',(#74),#32,.T.);
#1187=ADVANCED_FACE('',(#75,#15,#16,#17,#18),#33,.F.);
#1188=ADVANCED_FACE('',(#76),#34,.T.);
#1189=ADVANCED_FACE('',(#77),#35,.T.);
#1190=ADVANCED_FACE('',(#78),#36,.T.);
#1191=ADVANCED_FACE('',(#79),#1147,.F.);
#1192=ADVANCED_FACE('',(#80),#1148,.F.);
#1193=ADVANCED_FACE('',(#81),#1149,.F.);
#1194=ADVANCED_FACE('',(#82),#37,.T.);
#1195=ADVANCED_FACE('',(#83),#38,.T.);
#1196=ADVANCED_FACE('',(#84),#1150,.T.);
#1197=ADVANCED_FACE('',(#85),#39,.T.);
#1198=ADVANCED_FACE('',(#86),#40,.T.);
#1199=ADVANCED_FACE('',(#87),#1151,.T.);
#1200=ADVANCED_FACE('',(#88),#41,.T.);
#1201=ADVANCED_FACE('',(#89),#42,.T.);
#1202=ADVANCED_FACE('',(#90),#43,.T.);
#1203=ADVANCED_FACE('',(#91),#1152,.T.);
#1204=ADVANCED_FACE('',(#92),#1153,.T.);
#1205=ADVANCED_FACE('',(#93),#44,.T.);
#1206=ADVANCED_FACE('',(#94),#1154,.T.);
#1207=ADVANCED_FACE('',(#95),#1155,.T.);
#1208=ADVANCED_FACE('',(#96),#45,.T.);
#1209=ADVANCED_FACE('',(#97),#1156,.T.);
#1210=ADVANCED_FACE('',(#98),#1157,.T.);
#1211=ADVANCED_FACE('',(#99),#46,.T.);
#1212=ADVANCED_FACE('',(#100),#1158,.F.);
#1213=ADVANCED_FACE('',(#101),#1159,.F.);
#1214=ADVANCED_FACE('',(#102),#1160,.T.);
#1215=ADVANCED_FACE('',(#103),#47,.T.);
#1216=ADVANCED_FACE('',(#104),#1161,.T.);
#1217=ADVANCED_FACE('',(#105),#48,.T.);
#1218=ADVANCED_FACE('',(#106),#49,.F.);
#1219=CLOSED_SHELL('',(#1162,#1163,#1164,#1165,#1166,#1167,#1168,#1169,
#1170,#1171,#1172,#1173,#1174,#1175,#1176,#1177,#1178,#1179,#1180,#1181,
#1182,#1183,#1184,#1185,#1186,#1187,#1188,#1189,#1190,#1191,#1192,#1193,
#1194,#1195,#1196,#1197,#1198,#1199,#1200,#1201,#1202,#1203,#1204,#1205,
#1206,#1207,#1208,#1209,#1210,#1211,#1212,#1213,#1214,#1215,#1216,#1217,
#1218));
#1220=DERIVED_UNIT_ELEMENT(#1223,1.);
#1221=DERIVED_UNIT_ELEMENT(#2119,-3.);
#1222=DIMENSIONAL_EXPONENTS(0.,1.,0.,0.,0.,0.,0.);
#1223=(
CONVERSION_BASED_UNIT('gram',#1225)
MASS_UNIT()
NAMED_UNIT(#1222)
);
#1224=(
MASS_UNIT()
NAMED_UNIT(*)
SI_UNIT(.KILO.,.GRAM.)
);
#1225=MASS_MEASURE_WITH_UNIT(MASS_MEASURE(0.001),#1224);
#1226=DERIVED_UNIT((#1220,#1221));
#1227=MEASURE_REPRESENTATION_ITEM('density measure',
POSITIVE_RATIO_MEASURE(1.),#1226);
#1228=PROPERTY_DEFINITION_REPRESENTATION(#1233,#1230);
#1229=PROPERTY_DEFINITION_REPRESENTATION(#1234,#1231);
#1230=REPRESENTATION('material name',(#1232),#2116);
#1231=REPRESENTATION('density',(#1227),#2116);
#1232=DESCRIPTIVE_REPRESENTATION_ITEM('Generic','Generic');
#1233=PROPERTY_DEFINITION('material property','material name',#2126);
#1234=PROPERTY_DEFINITION('material property','density of part',#2126);
#1235=DATE_TIME_ROLE('creation_date');
#1236=APPLIED_DATE_AND_TIME_ASSIGNMENT(#1237,#1235,(#2126));
#1237=DATE_AND_TIME(#1238,#1239);
#1238=CALENDAR_DATE(2026,5,5);
#1239=LOCAL_TIME(0,0,0.,#1240);
#1240=COORDINATED_UNIVERSAL_TIME_OFFSET(0,0,.BEHIND.);
#1241=AXIS2_PLACEMENT_3D('',#1755,#1376,#1377);
#1242=AXIS2_PLACEMENT_3D('',#1756,#1378,#1379);
#1243=AXIS2_PLACEMENT_3D('',#1759,#1380,#1381);
#1244=AXIS2_PLACEMENT_3D('',#1763,#1383,#1384);
#1245=AXIS2_PLACEMENT_3D('',#1765,#1386,#1387);
#1246=AXIS2_PLACEMENT_3D('',#1767,#1388,#1389);
#1247=AXIS2_PLACEMENT_3D('',#1771,#1391,#1392);
#1248=AXIS2_PLACEMENT_3D('',#1773,#1394,#1395);
#1249=AXIS2_PLACEMENT_3D('',#1778,#1397,#1398);
#1250=AXIS2_PLACEMENT_3D('',#1780,#1399,#1400);
#1251=AXIS2_PLACEMENT_3D('',#1782,#1401,#1402);
#1252=AXIS2_PLACEMENT_3D('',#1784,#1403,#1404);
#1253=AXIS2_PLACEMENT_3D('',#1785,#1405,#1406);
#1254=AXIS2_PLACEMENT_3D('',#1786,#1407,#1408);
#1255=AXIS2_PLACEMENT_3D('',#1790,#1410,#1411);
#1256=AXIS2_PLACEMENT_3D('',#1794,#1413,#1414);
#1257=AXIS2_PLACEMENT_3D('',#1798,#1416,#1417);
#1258=AXIS2_PLACEMENT_3D('',#1800,#1419,#1420);
#1259=AXIS2_PLACEMENT_3D('',#1803,#1421,#1422);
#1260=AXIS2_PLACEMENT_3D('',#1807,#1424,#1425);
#1261=AXIS2_PLACEMENT_3D('',#1809,#1426,#1427);
#1262=AXIS2_PLACEMENT_3D('',#1810,#1428,#1429);
#1263=AXIS2_PLACEMENT_3D('',#1811,#1430,#1431);
#1264=AXIS2_PLACEMENT_3D('',#1817,#1434,#1435);
#1265=AXIS2_PLACEMENT_3D('',#1820,#1438,#1439);
#1266=AXIS2_PLACEMENT_3D('',#1828,#1444,#1445);
#1267=AXIS2_PLACEMENT_3D('',#1833,#1447,#1448);
#1268=AXIS2_PLACEMENT_3D('',#1835,#1449,#1450);
#1269=AXIS2_PLACEMENT_3D('',#1836,#1451,#1452);
#1270=AXIS2_PLACEMENT_3D('',#1839,#1454,#1455);
#1271=AXIS2_PLACEMENT_3D('',#1840,#1456,#1457);
#1272=AXIS2_PLACEMENT_3D('',#1845,#1459,#1460);
#1273=AXIS2_PLACEMENT_3D('',#1847,#1461,#1462);
#1274=AXIS2_PLACEMENT_3D('',#1849,#1463,#1464);
#1275=AXIS2_PLACEMENT_3D('',#1851,#1465,#1466);
#1276=AXIS2_PLACEMENT_3D('',#1854,#1468,#1469);
#1277=AXIS2_PLACEMENT_3D('',#1855,#1470,#1471);
#1278=AXIS2_PLACEMENT_3D('',#1860,#1473,#1474);
#1279=AXIS2_PLACEMENT_3D('',#1862,#1475,#1476);
#1280=AXIS2_PLACEMENT_3D('',#1864,#1477,#1478);
#1281=AXIS2_PLACEMENT_3D('',#1866,#1479,#1480);
#1282=AXIS2_PLACEMENT_3D('',#1869,#1482,#1483);
#1283=AXIS2_PLACEMENT_3D('',#1870,#1484,#1485);
#1284=AXIS2_PLACEMENT_3D('',#1875,#1488,#1489);
#1285=AXIS2_PLACEMENT_3D('',#1876,#1490,#1491);
#1286=AXIS2_PLACEMENT_3D('',#1877,#1492,#1493);
#1287=AXIS2_PLACEMENT_3D('',#1879,#1495,#1496);
#1288=AXIS2_PLACEMENT_3D('',#1885,#1500,#1501);
#1289=AXIS2_PLACEMENT_3D('',#1891,#1505,#1506);
#1290=AXIS2_PLACEMENT_3D('',#1897,#1510,#1511);
#1291=AXIS2_PLACEMENT_3D('',#1902,#1513,#1514);
#1292=AXIS2_PLACEMENT_3D('',#1906,#1516,#1517);
#1293=AXIS2_PLACEMENT_3D('',#1909,#1519,#1520);
#1294=AXIS2_PLACEMENT_3D('',#1911,#1521,#1522);
#1295=AXIS2_PLACEMENT_3D('',#1915,#1524,#1525);
#1296=AXIS2_PLACEMENT_3D('',#1919,#1527,#1528);
#1297=AXIS2_PLACEMENT_3D('',#1923,#1530,#1531);
#1298=AXIS2_PLACEMENT_3D('',#1927,#1533,#1534);
#1299=AXIS2_PLACEMENT_3D('',#1930,#1536,#1537);
#1300=AXIS2_PLACEMENT_3D('',#1931,#1538,#1539);
#1301=AXIS2_PLACEMENT_3D('',#1934,#1540,#1541);
#1302=AXIS2_PLACEMENT_3D('',#1936,#1542,#1543);
#1303=AXIS2_PLACEMENT_3D('',#1940,#1545,#1546);
#1304=AXIS2_PLACEMENT_3D('',#1946,#1550,#1551);
#1305=AXIS2_PLACEMENT_3D('',#1952,#1555,#1556);
#1306=AXIS2_PLACEMENT_3D('',#1957,#1560,#1561);
#1307=AXIS2_PLACEMENT_3D('',#1959,#1563,#1564);
#1308=AXIS2_PLACEMENT_3D('',#1961,#1565,#1566);
#1309=AXIS2_PLACEMENT_3D('',#1963,#1568,#1569);
#1310=AXIS2_PLACEMENT_3D('',#1965,#1570,#1571);
#1311=AXIS2_PLACEMENT_3D('',#1967,#1573,#1574);
#1312=AXIS2_PLACEMENT_3D('',#1971,#1577,#1578);
#1313=AXIS2_PLACEMENT_3D('',#1975,#1580,#1581);
#1314=AXIS2_PLACEMENT_3D('',#1977,#1583,#1584);
#1315=AXIS2_PLACEMENT_3D('',#1980,#1586,#1587);
#1316=AXIS2_PLACEMENT_3D('',#1981,#1588,#1589);
#1317=AXIS2_PLACEMENT_3D('',#1983,#1590,#1591);
#1318=AXIS2_PLACEMENT_3D('',#1986,#1593,#1594);
#1319=AXIS2_PLACEMENT_3D('',#1987,#1595,#1596);
#1320=AXIS2_PLACEMENT_3D('',#1990,#1598,#1599);
#1321=AXIS2_PLACEMENT_3D('',#1991,#1600,#1601);
#1322=AXIS2_PLACEMENT_3D('',#1996,#1605,#1606);
#1323=AXIS2_PLACEMENT_3D('',#1999,#1608,#1609);
#1324=AXIS2_PLACEMENT_3D('',#2001,#1610,#1611);
#1325=AXIS2_PLACEMENT_3D('',#2004,#1613,#1614);
#1326=AXIS2_PLACEMENT_3D('',#2006,#1615,#1616);
#1327=AXIS2_PLACEMENT_3D('',#2009,#1618,#1619);
#1328=AXIS2_PLACEMENT_3D('',#2011,#1620,#1621);
#1329=AXIS2_PLACEMENT_3D('',#2014,#1623,#1624);
#1330=AXIS2_PLACEMENT_3D('',#2016,#1625,#1626);
#1331=AXIS2_PLACEMENT_3D('',#2018,#1627,#1628);
#1332=AXIS2_PLACEMENT_3D('',#2019,#1629,#1630);
#1333=AXIS2_PLACEMENT_3D('',#2022,#1633,#1634);
#1334=AXIS2_PLACEMENT_3D('',#2027,#1638,#1639);
#1335=AXIS2_PLACEMENT_3D('',#2030,#1642,#1643);
#1336=AXIS2_PLACEMENT_3D('',#2035,#1646,#1647);
#1337=AXIS2_PLACEMENT_3D('',#2037,#1649,#1650);
#1338=AXIS2_PLACEMENT_3D('',#2042,#1653,#1654);
#1339=AXIS2_PLACEMENT_3D('',#2044,#1656,#1657);
#1340=AXIS2_PLACEMENT_3D('',#2048,#1660,#1661);
#1341=AXIS2_PLACEMENT_3D('',#2049,#1662,#1663);
#1342=AXIS2_PLACEMENT_3D('',#2054,#1667,#1668);
#1343=AXIS2_PLACEMENT_3D('',#2056,#1670,#1671);
#1344=AXIS2_PLACEMENT_3D('',#2058,#1672,#1673);
#1345=AXIS2_PLACEMENT_3D('',#2060,#1675,#1676);
#1346=AXIS2_PLACEMENT_3D('',#2063,#1679,#1680);
#1347=AXIS2_PLACEMENT_3D('',#2065,#1682,#1683);
#1348=AXIS2_PLACEMENT_3D('',#2067,#1684,#1685);
#1349=AXIS2_PLACEMENT_3D('',#2069,#1687,#1688);
#1350=AXIS2_PLACEMENT_3D('',#2071,#1690,#1691);
#1351=AXIS2_PLACEMENT_3D('',#2074,#1694,#1695);
#1352=AXIS2_PLACEMENT_3D('',#2078,#1698,#1699);
#1353=AXIS2_PLACEMENT_3D('',#2079,#1700,#1701);
#1354=AXIS2_PLACEMENT_3D('',#2080,#1702,#1703);
#1355=AXIS2_PLACEMENT_3D('',#2082,#1705,#1706);
#1356=AXIS2_PLACEMENT_3D('',#2084,#1708,#1709);
#1357=AXIS2_PLACEMENT_3D('',#2085,#1710,#1711);
#1358=AXIS2_PLACEMENT_3D('',#2086,#1712,#1713);
#1359=AXIS2_PLACEMENT_3D('',#2088,#1715,#1716);
#1360=AXIS2_PLACEMENT_3D('',#2090,#1718,#1719);
#1361=AXIS2_PLACEMENT_3D('',#2091,#1720,#1721);
#1362=AXIS2_PLACEMENT_3D('',#2092,#1722,#1723);
#1363=AXIS2_PLACEMENT_3D('',#2094,#1725,#1726);
#1364=AXIS2_PLACEMENT_3D('',#2095,#1727,#1728);
#1365=AXIS2_PLACEMENT_3D('',#2098,#1730,#1731);
#1366=AXIS2_PLACEMENT_3D('',#2099,#1732,#1733);
#1367=AXIS2_PLACEMENT_3D('',#2102,#1735,#1736);
#1368=AXIS2_PLACEMENT_3D('',#2103,#1737,#1738);
#1369=AXIS2_PLACEMENT_3D('',#2104,#1739,#1740);
#1370=AXIS2_PLACEMENT_3D('',#2105,#1741,#1742);
#1371=AXIS2_PLACEMENT_3D('',#2106,#1743,#1744);
#1372=AXIS2_PLACEMENT_3D('',#2110,#1747,#1748);
#1373=AXIS2_PLACEMENT_3D('',#2111,#1749,#1750);
#1374=AXIS2_PLACEMENT_3D('',#2112,#1751,#1752);
#1375=AXIS2_PLACEMENT_3D('',#2113,#1753,#1754);
#1376=DIRECTION('axis',(0.,0.,1.));
#1377=DIRECTION('refdir',(1.,0.,0.));
#1378=DIRECTION('center_axis',(0.,0.,1.));
#1379=DIRECTION('ref_axis',(0.971412787039915,0.237396708434101,0.));
#1380=DIRECTION('center_axis',(0.,0.,1.));
#1381=DIRECTION('ref_axis',(0.971412787039915,0.237396708434101,0.));
#1382=DIRECTION('',(0.,0.,1.));
#1383=DIRECTION('center_axis',(0.,0.,1.));
#1384=DIRECTION('ref_axis',(0.971412787039915,0.237396708434101,0.));
#1385=DIRECTION('',(0.,0.,1.));
#1386=DIRECTION('center_axis',(0.,0.,1.));
#1387=DIRECTION('ref_axis',(-1.,0.,0.));
#1388=DIRECTION('center_axis',(0.,0.,1.));
#1389=DIRECTION('ref_axis',(-1.,0.,0.));
#1390=DIRECTION('',(0.,0.,1.));
#1391=DIRECTION('center_axis',(0.,0.,-1.));
#1392=DIRECTION('ref_axis',(-1.,0.,0.));
#1393=DIRECTION('',(0.,0.,1.));
#1394=DIRECTION('center_axis',(0.,0.,1.));
#1395=DIRECTION('ref_axis',(1.,0.,0.));
#1396=DIRECTION('',(-0.213380669552546,0.976969134548941,0.));
#1397=DIRECTION('center_axis',(0.,0.,1.));
#1398=DIRECTION('ref_axis',(0.240191733355353,-0.970725466456789,0.));
#1399=DIRECTION('center_axis',(0.,0.,-1.));
#1400=DIRECTION('ref_axis',(0.472923640329674,-0.881103416414515,0.));
#1401=DIRECTION('center_axis',(0.,0.,-1.));
#1402=DIRECTION('ref_axis',(0.472923640329674,-0.881103416414515,0.));
#1403=DIRECTION('center_axis',(0.,0.,1.));
#1404=DIRECTION('ref_axis',(-0.133991444954009,-0.990982488583495,0.));
#1405=DIRECTION('center_axis',(0.,0.,1.));
#1406=DIRECTION('ref_axis',(-0.846607468920221,0.532217806512049,0.));
#1407=DIRECTION('center_axis',(0.,0.,1.));
#1408=DIRECTION('ref_axis',(0.240191733355353,-0.970725466456789,0.));
#1409=DIRECTION('',(0.,0.,1.));
#1410=DIRECTION('center_axis',(0.,0.,1.));
#1411=DIRECTION('ref_axis',(0.240191733355353,-0.970725466456789,0.));
#1412=DIRECTION('',(0.,0.,1.));
#1413=DIRECTION('center_axis',(0.,0.,1.));
#1414=DIRECTION('ref_axis',(-1.,0.,0.));
#1415=DIRECTION('',(0.,0.,-1.));
#1416=DIRECTION('center_axis',(0.,0.,1.));
#1417=DIRECTION('ref_axis',(-1.,0.,0.));
#1418=DIRECTION('',(0.,0.,1.));
#1419=DIRECTION('center_axis',(0.,0.,1.));
#1420=DIRECTION('ref_axis',(1.,0.,0.));
#1421=DIRECTION('center_axis',(0.,0.,1.));
#1422=DIRECTION('ref_axis',(0.204165051387647,-0.978936479957652,0.));
#1423=DIRECTION('',(-0.204165051387639,0.978936479957654,0.));
#1424=DIRECTION('center_axis',(0.,0.,-1.));
#1425=DIRECTION('ref_axis',(-0.519302019132404,0.854590786824319,0.));
#1426=DIRECTION('center_axis',(0.,0.,-1.));
#1427=DIRECTION('ref_axis',(1.,0.,0.));
#1428=DIRECTION('center_axis',(0.,0.,1.));
#1429=DIRECTION('ref_axis',(-1.,0.,0.));
#1430=DIRECTION('center_axis',(0.,0.,1.));
#1431=DIRECTION('ref_axis',(-0.393893895302226,-0.919155916721227,0.));
#1432=DIRECTION('',(0.,0.,1.));
#1433=DIRECTION('',(0.,0.,1.));
#1434=DIRECTION('center_axis',(0.,0.,1.));
#1435=DIRECTION('ref_axis',(-0.519302019132404,0.854590786824319,0.));
#1436=DIRECTION('',(0.,0.,1.));
#1437=DIRECTION('',(0.,0.,1.));
#1438=DIRECTION('center_axis',(-0.978936479957654,-0.204165051387639,0.));
#1439=DIRECTION('ref_axis',(0.204165051387639,-0.978936479957654,0.));
#1440=DIRECTION('',(0.,0.,1.));
#1441=DIRECTION('',(0.204165051387639,-0.978936479957654,0.));
#1442=DIRECTION('',(0.,0.,1.));
#1443=DIRECTION('',(0.204165051387639,-0.978936479957654,0.));
#1444=DIRECTION('center_axis',(0.,0.,1.));
#1445=DIRECTION('ref_axis',(1.,0.,0.));
#1446=DIRECTION('',(0.583858385852502,-0.811855519947798,0.));
#1447=DIRECTION('center_axis',(0.,0.,1.));
#1448=DIRECTION('ref_axis',(-1.,0.,0.));
#1449=DIRECTION('center_axis',(0.,0.,1.));
#1450=DIRECTION('ref_axis',(-1.,0.,0.));
#1451=DIRECTION('center_axis',(0.,0.,1.));
#1452=DIRECTION('ref_axis',(-1.,0.,0.));
#1453=DIRECTION('',(-0.539938581634778,0.84170441846424,0.));
#1454=DIRECTION('center_axis',(0.,0.,-1.));
#1455=DIRECTION('ref_axis',(-0.84170441846424,-0.539938581634777,0.));
#1456=DIRECTION('center_axis',(0.,0.,1.));
#1457=DIRECTION('ref_axis',(1.,0.,0.));
#1458=DIRECTION('',(0.986918767387755,-0.161218319609882,0.));
#1459=DIRECTION('center_axis',(0.,0.,1.));
#1460=DIRECTION('ref_axis',(-1.,0.,0.));
#1461=DIRECTION('center_axis',(0.,0.,1.));
#1462=DIRECTION('ref_axis',(-1.,0.,0.));
#1463=DIRECTION('center_axis',(0.,0.,1.));
#1464=DIRECTION('ref_axis',(-1.,0.,0.));
#1465=DIRECTION('center_axis',(0.,0.,1.));
#1466=DIRECTION('ref_axis',(-1.,0.,0.));
#1467=DIRECTION('',(-0.976969134548943,0.213380669552539,0.));
#1468=DIRECTION('center_axis',(0.,0.,-1.));
#1469=DIRECTION('ref_axis',(-0.2133806695525,-0.976969134548951,0.));
#1470=DIRECTION('center_axis',(0.,0.,1.));
#1471=DIRECTION('ref_axis',(1.,0.,0.));
#1472=DIRECTION('',(0.841704418464235,-0.539938581634785,0.));
#1473=DIRECTION('center_axis',(0.,0.,1.));
#1474=DIRECTION('ref_axis',(-1.,0.,0.));
#1475=DIRECTION('center_axis',(0.,0.,1.));
#1476=DIRECTION('ref_axis',(-1.,0.,0.));
#1477=DIRECTION('center_axis',(0.,0.,1.));
#1478=DIRECTION('ref_axis',(-1.,0.,0.));
#1479=DIRECTION('center_axis',(0.,0.,1.));
#1480=DIRECTION('ref_axis',(-1.,0.,0.));
#1481=DIRECTION('',(-0.8118555199478,0.5838583858525,0.));
#1482=DIRECTION('center_axis',(0.,0.,-1.));
#1483=DIRECTION('ref_axis',(-0.583858385852504,-0.811855519947797,0.));
#1484=DIRECTION('center_axis',(0.,0.,1.));
#1485=DIRECTION('ref_axis',(-1.,0.,0.));
#1486=DIRECTION('',(0.,0.,-1.));
#1487=DIRECTION('',(0.,0.,-1.));
#1488=DIRECTION('center_axis',(0.,0.,-1.));
#1489=DIRECTION('ref_axis',(-1.,0.,0.));
#1490=DIRECTION('center_axis',(0.,0.,-1.));
#1491=DIRECTION('ref_axis',(-1.,0.,0.));
#1492=DIRECTION('center_axis',(0.976969134548942,0.213380669552542,0.));
#1493=DIRECTION('ref_axis',(-0.213380669552542,0.976969134548942,0.));
#1494=DIRECTION('',(-0.213380669552542,0.976969134548942,0.));
#1495=DIRECTION('center_axis',(0.811855519947799,0.583858385852502,0.));
#1496=DIRECTION('ref_axis',(-0.583858385852502,0.811855519947798,0.));
#1497=DIRECTION('',(0.,0.,1.));
#1498=DIRECTION('',(-0.583858385852502,0.811855519947798,0.));
#1499=DIRECTION('',(0.,0.,1.));
#1500=DIRECTION('center_axis',(0.161218319609882,0.986918767387755,0.));
#1501=DIRECTION('ref_axis',(-0.986918767387755,0.161218319609882,0.));
#1502=DIRECTION('',(0.,0.,1.));
#1503=DIRECTION('',(-0.986918767387755,0.161218319609882,0.));
#1504=DIRECTION('',(0.,0.,1.));
#1505=DIRECTION('center_axis',(0.539938581634785,0.841704418464235,0.));
#1506=DIRECTION('ref_axis',(-0.841704418464235,0.539938581634785,0.));
#1507=DIRECTION('',(0.,0.,1.));
#1508=DIRECTION('',(-0.841704418464235,0.539938581634785,0.));
#1509=DIRECTION('',(0.,0.,1.));
#1510=DIRECTION('center_axis',(0.,0.,1.));
#1511=DIRECTION('ref_axis',(-0.168121715552529,0.985766244481761,0.));
#1512=DIRECTION('',(0.,0.,1.));
#1513=DIRECTION('center_axis',(0.,0.,-1.));
#1514=DIRECTION('ref_axis',(-0.168121715552529,0.985766244481761,0.));
#1515=DIRECTION('',(0.,0.,1.));
#1516=DIRECTION('center_axis',(0.,0.,-1.));
#1517=DIRECTION('ref_axis',(-0.168121715552529,0.985766244481761,0.));
#1518=DIRECTION('',(0.,0.,1.));
#1519=DIRECTION('center_axis',(0.,0.,-1.));
#1520=DIRECTION('ref_axis',(-0.168121715552529,0.985766244481761,0.));
#1521=DIRECTION('center_axis',(0.,0.,1.));
#1522=DIRECTION('ref_axis',(-1.,0.,0.));
#1523=DIRECTION('',(0.,0.,1.));
#1524=DIRECTION('center_axis',(0.,0.,-1.));
#1525=DIRECTION('ref_axis',(-0.168121715552529,0.985766244481761,0.));
#1526=DIRECTION('',(0.,0.,1.));
#1527=DIRECTION('center_axis',(0.,0.,-1.));
#1528=DIRECTION('ref_axis',(-0.168121715552529,0.985766244481761,0.));
#1529=DIRECTION('',(0.,0.,1.));
#1530=DIRECTION('center_axis',(0.,0.,-1.));
#1531=DIRECTION('ref_axis',(-0.168121715552529,0.985766244481761,0.));
#1532=DIRECTION('',(0.,0.,1.));
#1533=DIRECTION('center_axis',(0.,0.,-1.));
#1534=DIRECTION('ref_axis',(-0.168121715552529,0.985766244481761,0.));
#1535=DIRECTION('',(0.,0.,1.));
#1536=DIRECTION('center_axis',(0.,0.,-1.));
#1537=DIRECTION('ref_axis',(-0.168121715552529,0.985766244481761,0.));
#1538=DIRECTION('center_axis',(0.,0.,-1.));
#1539=DIRECTION('ref_axis',(-1.,0.,0.));
#1540=DIRECTION('center_axis',(0.,0.,-1.));
#1541=DIRECTION('ref_axis',(-0.0742072604397658,0.997242840284163,0.));
#1542=DIRECTION('center_axis',(0.,0.,-1.));
#1543=DIRECTION('ref_axis',(-0.61460540071215,0.788834711086839,0.));
#1544=DIRECTION('',(-1.,5.90115001103449E-15,0.));
#1545=DIRECTION('center_axis',(0.,0.,1.));
#1546=DIRECTION('ref_axis',(0.610042752006134,-0.792368500588446,0.));
#1547=DIRECTION('',(-0.994403532504023,0.105648542552747,0.));
#1548=DIRECTION('',(0.113053512288404,0.993588900581753,0.));
#1549=DIRECTION('',(0.994303810174886,-0.106582986783555,0.));
#1550=DIRECTION('center_axis',(0.,0.,1.));
#1551=DIRECTION('ref_axis',(0.610042752006134,-0.792368500588446,0.));
#1552=DIRECTION('',(-0.92356503958765,0.383441804778069,0.));
#1553=DIRECTION('',(0.383441804778069,0.92356503958765,0.));
#1554=DIRECTION('',(0.92356503958765,-0.383441804778069,0.));
#1555=DIRECTION('center_axis',(0.,0.,1.));
#1556=DIRECTION('ref_axis',(0.610042752006134,-0.792368500588446,0.));
#1557=DIRECTION('',(-0.622656721437151,0.782495116437885,0.));
#1558=DIRECTION('',(0.742221894471848,0.670154205662116,0.));
#1559=DIRECTION('',(0.672449444826218,-0.740143056545767,0.));
#1560=DIRECTION('center_axis',(0.,0.,1.));
#1561=DIRECTION('ref_axis',(0.0311129092234584,-0.999515876251925,0.));
#1562=DIRECTION('',(0.988555655959152,-0.150856604333954,0.));
#1563=DIRECTION('center_axis',(0.,0.,-1.));
#1564=DIRECTION('ref_axis',(-1.,0.,0.));
#1565=DIRECTION('center_axis',(0.,0.,1.));
#1566=DIRECTION('ref_axis',(-1.,0.,0.));
#1567=DIRECTION('',(-0.204568261808233,0.978852300534027,0.));
#1568=DIRECTION('center_axis',(0.,0.,1.));
#1569=DIRECTION('ref_axis',(-1.,0.,0.));
#1570=DIRECTION('center_axis',(0.,0.,1.));
#1571=DIRECTION('ref_axis',(-1.,0.,0.));
#1572=DIRECTION('',(0.,0.,-1.));
#1573=DIRECTION('center_axis',(-0.150856604333954,-0.988555655959152,0.));
#1574=DIRECTION('ref_axis',(0.988555655959152,-0.150856604333954,0.));
#1575=DIRECTION('',(0.988555655959152,-0.150856604333954,0.));
#1576=DIRECTION('',(0.,0.,1.));
#1577=DIRECTION('center_axis',(0.,0.,1.));
#1578=DIRECTION('ref_axis',(-0.61460540071215,0.788834711086839,0.));
#1579=DIRECTION('',(0.,0.,1.));
#1580=DIRECTION('center_axis',(0.,0.,-1.));
#1581=DIRECTION('ref_axis',(-0.61460540071215,0.788834711086839,0.));
#1582=DIRECTION('',(0.,0.,1.));
#1583=DIRECTION('center_axis',(0.,0.,1.));
#1584=DIRECTION('ref_axis',(-0.0742072604397658,0.997242840284163,0.));
#1585=DIRECTION('',(0.,0.,1.));
#1586=DIRECTION('center_axis',(0.,0.,-1.));
#1587=DIRECTION('ref_axis',(-0.0742072604397658,0.997242840284163,0.));
#1588=DIRECTION('center_axis',(0.,0.,1.));
#1589=DIRECTION('ref_axis',(-0.126360055469242,0.991984443618855,0.));
#1590=DIRECTION('center_axis',(0.,0.,1.));
#1591=DIRECTION('ref_axis',(-0.126360055469242,0.991984443618855,0.));
#1592=DIRECTION('',(0.,0.,1.));
#1593=DIRECTION('center_axis',(0.,0.,1.));
#1594=DIRECTION('ref_axis',(-0.126360055469242,0.991984443618855,0.));
#1595=DIRECTION('center_axis',(0.,0.,1.));
#1596=DIRECTION('ref_axis',(0.0311129092234584,-0.999515876251925,0.));
#1597=DIRECTION('',(0.,0.,1.));
#1598=DIRECTION('center_axis',(0.,0.,1.));
#1599=DIRECTION('ref_axis',(0.0311129092234584,-0.999515876251925,0.));
#1600=DIRECTION('center_axis',(-0.106582986783555,-0.994303810174887,0.));
#1601=DIRECTION('ref_axis',(0.994303810174886,-0.106582986783555,0.));
#1602=DIRECTION('',(0.,0.,1.));
#1603=DIRECTION('',(0.994303810174886,-0.106582986783555,0.));
#1604=DIRECTION('',(0.,0.,1.));
#1605=DIRECTION('center_axis',(0.,0.,1.));
#1606=DIRECTION('ref_axis',(1.,0.,0.));
#1607=DIRECTION('',(-1.,0.,0.));
#1608=DIRECTION('center_axis',(0.,0.,1.));
#1609=DIRECTION('ref_axis',(0.990982488583495,-0.13399144495401,0.));
#1610=DIRECTION('center_axis',(0.,0.,1.));
#1611=DIRECTION('ref_axis',(-0.2133806695525,-0.976969134548951,0.));
#1612=DIRECTION('',(0.976969134548943,-0.213380669552539,0.));
#1613=DIRECTION('center_axis',(0.,0.,1.));
#1614=DIRECTION('ref_axis',(0.856247763442591,-0.51656535656155,0.));
#1615=DIRECTION('center_axis',(0.,0.,1.));
#1616=DIRECTION('ref_axis',(-0.583858385852504,-0.811855519947797,0.));
#1617=DIRECTION('',(0.8118555199478,-0.5838583858525,0.));
#1618=DIRECTION('center_axis',(0.,0.,1.));
#1619=DIRECTION('ref_axis',(0.605984178366543,-0.795476697062476,0.));
#1620=DIRECTION('center_axis',(0.,0.,1.));
#1621=DIRECTION('ref_axis',(-0.84170441846424,-0.539938581634777,0.));
#1622=DIRECTION('',(0.539938581634778,-0.84170441846424,0.));
#1623=DIRECTION('center_axis',(0.,0.,-1.));
#1624=DIRECTION('ref_axis',(-1.,0.,0.));
#1625=DIRECTION('center_axis',(0.,0.,-1.));
#1626=DIRECTION('ref_axis',(-1.,0.,0.));
#1627=DIRECTION('center_axis',(0.,0.,-1.));
#1628=DIRECTION('ref_axis',(-1.,0.,0.));
#1629=DIRECTION('center_axis',(-0.740143056545767,-0.672449444826218,0.));
#1630=DIRECTION('ref_axis',(0.672449444826218,-0.740143056545767,0.));
#1631=DIRECTION('',(0.,0.,1.));
#1632=DIRECTION('',(0.672449444826218,-0.740143056545767,0.));
#1633=DIRECTION('center_axis',(-0.383441804778069,-0.92356503958765,0.));
#1634=DIRECTION('ref_axis',(0.92356503958765,-0.383441804778069,0.));
#1635=DIRECTION('',(0.,0.,1.));
#1636=DIRECTION('',(0.92356503958765,-0.383441804778069,0.));
#1637=DIRECTION('',(0.,0.,1.));
#1638=DIRECTION('center_axis',(0.670154205662116,-0.742221894471848,0.));
#1639=DIRECTION('ref_axis',(0.742221894471848,0.670154205662116,0.));
#1640=DIRECTION('',(0.,0.,1.));
#1641=DIRECTION('',(0.742221894471848,0.670154205662116,0.));
#1642=DIRECTION('center_axis',(0.,0.,1.));
#1643=DIRECTION('ref_axis',(-1.,0.,0.));
#1644=DIRECTION('',(0.,0.,-1.));
#1645=DIRECTION('',(0.,0.,1.));
#1646=DIRECTION('center_axis',(0.,0.,-1.));
#1647=DIRECTION('ref_axis',(-1.,0.,0.));
#1648=DIRECTION('',(0.,0.,-1.));
#1649=DIRECTION('center_axis',(0.,0.,1.));
#1650=DIRECTION('ref_axis',(-1.,0.,0.));
#1651=DIRECTION('',(0.,0.,-1.));
#1652=DIRECTION('',(0.,0.,1.));
#1653=DIRECTION('center_axis',(0.,0.,-1.));
#1654=DIRECTION('ref_axis',(-1.,0.,0.));
#1655=DIRECTION('',(0.,0.,-1.));
#1656=DIRECTION('center_axis',(0.,0.,1.));
#1657=DIRECTION('ref_axis',(-1.,0.,0.));
#1658=DIRECTION('',(0.,0.,-1.));
#1659=DIRECTION('',(0.,0.,1.));
#1660=DIRECTION('center_axis',(0.,0.,-1.));
#1661=DIRECTION('ref_axis',(-1.,0.,0.));
#1662=DIRECTION('center_axis',(0.105648542552747,0.994403532504023,0.));
#1663=DIRECTION('ref_axis',(-0.994403532504023,0.105648542552747,0.));
#1664=DIRECTION('',(0.,0.,1.));
#1665=DIRECTION('',(-0.994403532504023,0.105648542552747,0.));
#1666=DIRECTION('',(0.,0.,1.));
#1667=DIRECTION('center_axis',(0.993588900581753,-0.113053512288404,0.));
#1668=DIRECTION('ref_axis',(0.113053512288404,0.993588900581753,0.));
#1669=DIRECTION('',(0.113053512288404,0.993588900581753,0.));
#1670=DIRECTION('center_axis',(0.,0.,1.));
#1671=DIRECTION('ref_axis',(0.610042752006134,-0.792368500588446,0.));
#1672=DIRECTION('center_axis',(0.,0.,1.));
#1673=DIRECTION('ref_axis',(0.610042752006134,-0.792368500588446,0.));
#1674=DIRECTION('',(0.,0.,1.));
#1675=DIRECTION('center_axis',(0.383441804778069,0.92356503958765,0.));
#1676=DIRECTION('ref_axis',(-0.92356503958765,0.383441804778069,0.));
#1677=DIRECTION('',(-0.92356503958765,0.383441804778069,0.));
#1678=DIRECTION('',(0.,0.,1.));
#1679=DIRECTION('center_axis',(0.92356503958765,-0.383441804778069,0.));
#1680=DIRECTION('ref_axis',(0.383441804778069,0.92356503958765,0.));
#1681=DIRECTION('',(0.383441804778069,0.92356503958765,0.));
#1682=DIRECTION('center_axis',(0.,0.,1.));
#1683=DIRECTION('ref_axis',(0.610042752006134,-0.792368500588446,0.));
#1684=DIRECTION('center_axis',(0.,0.,1.));
#1685=DIRECTION('ref_axis',(0.610042752006134,-0.792368500588446,0.));
#1686=DIRECTION('',(0.,0.,1.));
#1687=DIRECTION('center_axis',(0.782495116437885,0.622656721437151,0.));
#1688=DIRECTION('ref_axis',(-0.622656721437151,0.782495116437884,0.));
#1689=DIRECTION('',(-0.622656721437151,0.782495116437885,0.));
#1690=DIRECTION('center_axis',(0.978852300534027,0.204568261808233,0.));
#1691=DIRECTION('ref_axis',(-0.204568261808233,0.978852300534027,0.));
#1692=DIRECTION('',(-0.204568261808233,0.978852300534027,0.));
#1693=DIRECTION('',(-0.204568261808233,0.978852300534027,0.));
#1694=DIRECTION('center_axis',(0.,1.,0.));
#1695=DIRECTION('ref_axis',(-1.,0.,0.));
#1696=DIRECTION('',(-1.,0.,0.));
#1697=DIRECTION('',(0.,0.,1.));
#1698=DIRECTION('center_axis',(0.,0.,1.));
#1699=DIRECTION('ref_axis',(0.990982488583495,-0.13399144495401,0.));
#1700=DIRECTION('center_axis',(0.,0.,1.));
#1701=DIRECTION('ref_axis',(-1.,0.,0.));
#1702=DIRECTION('center_axis',(0.,0.,1.));
#1703=DIRECTION('ref_axis',(0.982290257780874,-0.187365550378892,0.));
#1704=DIRECTION('',(0.,0.,1.));
#1705=DIRECTION('center_axis',(-0.213380669552539,-0.976969134548943,0.));
#1706=DIRECTION('ref_axis',(0.976969134548943,-0.213380669552539,0.));
#1707=DIRECTION('',(0.,0.,1.));
#1708=DIRECTION('center_axis',(0.,0.,1.));
#1709=DIRECTION('ref_axis',(0.856247763442591,-0.51656535656155,0.));
#1710=DIRECTION('center_axis',(0.,0.,1.));
#1711=DIRECTION('ref_axis',(-1.,0.,0.));
#1712=DIRECTION('center_axis',(0.,0.,1.));
#1713=DIRECTION('ref_axis',(0.827071553603999,-0.562096651136677,0.));
#1714=DIRECTION('',(0.,0.,1.));
#1715=DIRECTION('center_axis',(-0.5838583858525,-0.8118555199478,0.));
#1716=DIRECTION('ref_axis',(0.8118555199478,-0.5838583858525,0.));
#1717=DIRECTION('',(0.,0.,1.));
#1718=DIRECTION('center_axis',(0.,0.,1.));
#1719=DIRECTION('ref_axis',(0.605984178366543,-0.795476697062476,0.));
#1720=DIRECTION('center_axis',(0.,0.,1.));
#1721=DIRECTION('ref_axis',(-1.,0.,0.));
#1722=DIRECTION('center_axis',(0.,0.,1.));
#1723=DIRECTION('ref_axis',(0.562096651136672,-0.827071553604003,0.));
#1724=DIRECTION('',(0.,0.,1.));
#1725=DIRECTION('center_axis',(-0.84170441846424,-0.539938581634778,0.));
#1726=DIRECTION('ref_axis',(0.539938581634778,-0.84170441846424,0.));
#1727=DIRECTION('center_axis',(0.,0.,1.));
#1728=DIRECTION('ref_axis',(0.204165051387647,-0.978936479957652,0.));
#1729=DIRECTION('',(0.,0.,1.));
#1730=DIRECTION('center_axis',(0.,0.,-1.));
#1731=DIRECTION('ref_axis',(0.204165051387647,-0.978936479957652,0.));
#1732=DIRECTION('center_axis',(0.,0.,1.));
#1733=DIRECTION('ref_axis',(-1.,0.,0.));
#1734=DIRECTION('',(0.,0.,1.));
#1735=DIRECTION('center_axis',(0.,0.,-1.));
#1736=DIRECTION('ref_axis',(-1.,0.,0.));
#1737=DIRECTION('center_axis',(0.,0.,1.));
#1738=DIRECTION('ref_axis',(-0.133991444954009,-0.990982488583495,0.));
#1739=DIRECTION('center_axis',(0.,0.,1.));
#1740=DIRECTION('ref_axis',(-0.133991444954009,-0.990982488583495,0.));
#1741=DIRECTION('center_axis',(0.,0.,1.));
#1742=DIRECTION('ref_axis',(-0.133991444954009,-0.990982488583495,0.));
#1743=DIRECTION('center_axis',(5.90115001103449E-15,1.,0.));
#1744=DIRECTION('ref_axis',(-1.,5.90115001103449E-15,0.));
#1745=DIRECTION('',(-1.,5.90115001103449E-15,0.));
#1746=DIRECTION('',(0.,0.,1.));
#1747=DIRECTION('center_axis',(0.,0.,1.));
#1748=DIRECTION('ref_axis',(0.610042752006134,-0.792368500588446,0.));
#1749=DIRECTION('center_axis',(0.,0.,1.));
#1750=DIRECTION('ref_axis',(0.610042752006134,-0.792368500588446,0.));
#1751=DIRECTION('center_axis',(0.,0.,1.));
#1752=DIRECTION('ref_axis',(1.,0.,0.));
#1753=DIRECTION('center_axis',(0.,0.,1.));
#1754=DIRECTION('ref_axis',(1.,0.,0.));
#1755=CARTESIAN_POINT('',(0.,0.,0.));
#1756=CARTESIAN_POINT('Origin',(16.0485279324474,-215.364123762469,0.));
#1757=CARTESIAN_POINT('',(17.9913535065272,-214.889330345601,0.));
#1758=CARTESIAN_POINT('',(16.3502411411153,-213.387012450551,0.));
#1759=CARTESIAN_POINT('Origin',(16.0485279324474,-215.364123762469,0.));
#1760=CARTESIAN_POINT('',(16.3502411411153,-213.387012450551,15.));
#1761=CARTESIAN_POINT('',(16.3502411411153,-213.387012450551,0.));
#1762=CARTESIAN_POINT('',(17.9913535065272,-214.889330345601,15.));
#1763=CARTESIAN_POINT('Origin',(16.0485279324474,-215.364123762469,15.));
#1764=CARTESIAN_POINT('',(17.9913535065272,-214.889330345601,0.));
#1765=CARTESIAN_POINT('Origin',(22.5679069250436,-246.560376409908,0.));
#1766=CARTESIAN_POINT('',(24.3731974495073,-214.6113400219,15.));
#1767=CARTESIAN_POINT('Origin',(22.5679069250436,-246.560376409908,15.));
#1768=CARTESIAN_POINT('',(24.3731974495073,-214.6113400219,30.));
#1769=CARTESIAN_POINT('',(24.3731974495073,-214.6113400219,0.));
#1770=CARTESIAN_POINT('',(17.9913535065272,-214.889330345601,30.));
#1771=CARTESIAN_POINT('Origin',(22.5679069250436,-246.560376409908,30.));
#1772=CARTESIAN_POINT('',(17.9913535065272,-214.889330345601,0.));
#1773=CARTESIAN_POINT('Origin',(26.4626720685385,-253.476313951879,18.));
#1774=CARTESIAN_POINT('',(33.7899405776556,-251.369452289446,18.));
#1775=CARTESIAN_POINT('',(32.7226471428466,-246.482820592668,18.));
#1776=CARTESIAN_POINT('',(33.7899405776556,-251.369452289446,18.));
#1777=CARTESIAN_POINT('',(27.0684662185939,-247.754875533228,18.));
#1778=CARTESIAN_POINT('Origin',(-5.71764857681956E-14,-114.235526034673,
18.));
#1779=CARTESIAN_POINT('',(31.7126720685385,-252.96980731109,18.));
#1780=CARTESIAN_POINT('Origin',(26.4626720685385,-252.96980731109,18.));
#1781=CARTESIAN_POINT('',(23.9798229568079,-248.344014374914,18.));
#1782=CARTESIAN_POINT('Origin',(26.4626720685385,-252.96980731109,18.));
#1783=CARTESIAN_POINT('',(20.1131160516369,-248.97817376225,18.));
#1784=CARTESIAN_POINT('Origin',(-6.66133814775094E-14,-114.235526034673,
18.));
#1785=CARTESIAN_POINT('Origin',(26.4626720685385,-252.96980731109,18.));
#1786=CARTESIAN_POINT('Origin',(-5.71764857681956E-14,-114.235526034673,
0.));
#1787=CARTESIAN_POINT('',(32.7226471428466,-246.482820592668,0.));
#1788=CARTESIAN_POINT('',(32.7226471428466,-246.482820592668,0.));
#1789=CARTESIAN_POINT('',(70.3745530824507,-230.886890503288,0.));
#1790=CARTESIAN_POINT('Origin',(-5.71764857681956E-14,-114.235526034673,
0.));
#1791=CARTESIAN_POINT('',(70.3745530824509,-230.886890503288,10.));
#1792=CARTESIAN_POINT('',(70.3745530824507,-230.886890503288,0.));
#1793=CARTESIAN_POINT('',(75.2721414305563,-227.788259504206,10.));
#1794=CARTESIAN_POINT('Origin',(-5.71764857681956E-14,-114.235526034673,
10.));
#1795=CARTESIAN_POINT('',(75.2721414305563,-227.788259504206,30.));
#1796=CARTESIAN_POINT('',(75.2721414305571,-227.788259504205,30.));
#1797=CARTESIAN_POINT('',(27.0684662185939,-247.754875533228,30.));
#1798=CARTESIAN_POINT('Origin',(-5.71764857681956E-14,-114.235526034673,
30.));
#1799=CARTESIAN_POINT('',(27.0684662185939,-247.754875533228,30.));
#1800=CARTESIAN_POINT('Origin',(3.29775838886615,-232.852730560306,28.));
#1801=CARTESIAN_POINT('',(16.0346252806397,-215.234409051266,28.));
#1802=CARTESIAN_POINT('',(-15.2137112834922,-245.516963961275,28.));
#1803=CARTESIAN_POINT('Origin',(24.3429602675159,-255.071453398875,28.));
#1804=CARTESIAN_POINT('',(22.5679069250455,-246.560376409908,28.));
#1805=CARTESIAN_POINT('',(17.529807062372,-222.403549804581,28.));
#1806=CARTESIAN_POINT('',(20.1131160516369,-248.97817376225,28.));
#1807=CARTESIAN_POINT('Origin',(26.4626720685385,-252.96980731109,28.));
#1808=CARTESIAN_POINT('',(-15.9723901473131,-249.531502718853,28.));
#1809=CARTESIAN_POINT('Origin',(-6.66133814775094E-14,-114.235526034673,
28.));
#1810=CARTESIAN_POINT('Origin',(-5.71764857681956E-14,-250.471052069347,
28.));
#1811=CARTESIAN_POINT('Origin',(26.4626720685385,-252.96980731109,0.));
#1812=CARTESIAN_POINT('',(22.5679069250454,-246.560376409908,15.));
#1813=CARTESIAN_POINT('',(22.5679069250455,-246.560376409908,0.));
#1814=CARTESIAN_POINT('',(22.5679069250455,-246.560376409908,0.));
#1815=CARTESIAN_POINT('',(22.5679069250455,-246.560376409908,0.));
#1816=CARTESIAN_POINT('',(33.7899405776556,-251.369452289446,0.));
#1817=CARTESIAN_POINT('Origin',(26.4626720685385,-252.96980731109,0.));
#1818=CARTESIAN_POINT('',(33.7899405776556,-251.369452289446,0.));
#1819=CARTESIAN_POINT('',(20.1131160516369,-248.97817376225,30.));
#1820=CARTESIAN_POINT('Origin',(16.0346252806397,-215.234409051266,0.));
#1821=CARTESIAN_POINT('',(16.0346252806397,-215.234409051266,0.));
#1822=CARTESIAN_POINT('',(16.0346252806397,-215.234409051266,0.));
#1823=CARTESIAN_POINT('',(16.082416833972,-215.463561370298,0.));
#1824=CARTESIAN_POINT('',(16.0346252806397,-215.234409051266,0.));
#1825=CARTESIAN_POINT('',(16.082416833972,-215.463561370298,15.));
#1826=CARTESIAN_POINT('',(16.082416833972,-215.463561370298,0.));
#1827=CARTESIAN_POINT('',(5.60738516338664,-165.237577239556,15.));
#1828=CARTESIAN_POINT('Origin',(78.6312846440333,-230.577562141777,10.));
#1829=CARTESIAN_POINT('',(82.5565733084553,-222.607712307305,10.));
#1830=CARTESIAN_POINT('',(85.4769326052243,-226.668474082356,10.));
#1831=CARTESIAN_POINT('',(85.2365948179431,-226.334284210318,10.));
#1832=CARTESIAN_POINT('',(77.8727260956495,-226.020842979146,10.));
#1833=CARTESIAN_POINT('Origin',(-5.71764857681956E-14,-114.235526034673,
10.));
#1834=CARTESIAN_POINT('',(84.6380162056158,-231.047411976249,10.));
#1835=CARTESIAN_POINT('Origin',(79.3880162056159,-231.047411976249,10.));
#1836=CARTESIAN_POINT('Origin',(79.3880162056159,-231.047411976249,10.));
#1837=CARTESIAN_POINT('',(73.0752330671341,-235.09695133851,10.));
#1838=CARTESIAN_POINT('',(71.5078206900307,-232.65352912673,10.));
#1839=CARTESIAN_POINT('Origin',(79.3880162056159,-231.047411976249,10.));
#1840=CARTESIAN_POINT('Origin',(139.240787917205,-140.344059562671,10.));
#1841=CARTESIAN_POINT('',(135.007020623322,-132.489921022129,10.));
#1842=CARTESIAN_POINT('',(139.94341867349,-133.296307347804,10.));
#1843=CARTESIAN_POINT('',(140.161916216319,-133.332000059158,10.));
#1844=CARTESIAN_POINT('',(134.108488340241,-138.215348991478,10.));
#1845=CARTESIAN_POINT('Origin',(-5.71764857681956E-14,-114.235526034673,
10.));
#1846=CARTESIAN_POINT('',(143.984281276415,-140.698198103212,10.));
#1847=CARTESIAN_POINT('Origin',(138.734281276415,-140.698198103212,10.));
#1848=CARTESIAN_POINT('',(133.519349498554,-141.303992253272,10.));
#1849=CARTESIAN_POINT('Origin',(138.734281276415,-140.698198103212,10.));
#1850=CARTESIAN_POINT('',(132.247294557995,-146.958173177521,10.));
#1851=CARTESIAN_POINT('Origin',(-5.71764857681956E-14,-114.235526034673,
10.));
#1852=CARTESIAN_POINT('',(137.133926254772,-148.025466612329,10.));
#1853=CARTESIAN_POINT('',(134.895419790717,-147.536552488836,10.));
#1854=CARTESIAN_POINT('Origin',(138.734281276415,-140.698198103212,10.));
#1855=CARTESIAN_POINT('Origin',(116.342036107103,-192.866810678707,10.));
#1856=CARTESIAN_POINT('',(116.651364468614,-184.610079117125,10.));
#1857=CARTESIAN_POINT('',(120.861425303836,-187.310759101808,10.));
#1858=CARTESIAN_POINT('',(120.523033509667,-187.093686717046,10.));
#1859=CARTESIAN_POINT('',(113.552733469532,-189.50766746523,10.));
#1860=CARTESIAN_POINT('Origin',(-5.71764857681956E-14,-114.235526034673,
10.));
#1861=CARTESIAN_POINT('',(122.061885941575,-193.62354224029,10.));
#1862=CARTESIAN_POINT('Origin',(116.811885941575,-193.62354224029,10.));
#1863=CARTESIAN_POINT('',(111.785316944472,-192.108252130325,10.));
#1864=CARTESIAN_POINT('Origin',(116.811885941575,-193.62354224029,10.));
#1865=CARTESIAN_POINT('',(108.372186272631,-196.79209934313,10.));
#1866=CARTESIAN_POINT('Origin',(-5.71764857681956E-14,-114.235526034673,
10.));
#1867=CARTESIAN_POINT('',(112.432948047681,-199.712458639898,10.));
#1868=CARTESIAN_POINT('',(110.068377288118,-198.011941204233,10.));
#1869=CARTESIAN_POINT('Origin',(116.811885941575,-193.62354224029,10.));
#1870=CARTESIAN_POINT('Origin',(26.4626720685385,-252.96980731109,0.));
#1871=CARTESIAN_POINT('',(23.9798229568079,-248.344014374914,30.));
#1872=CARTESIAN_POINT('',(23.9798229568079,-248.344014374914,30.));
#1873=CARTESIAN_POINT('',(31.7126720685385,-252.96980731109,0.));
#1874=CARTESIAN_POINT('',(31.7126720685385,-252.96980731109,0.));
#1875=CARTESIAN_POINT('Origin',(26.4626720685385,-252.96980731109,0.));
#1876=CARTESIAN_POINT('Origin',(26.4626720685385,-252.96980731109,30.));
#1877=CARTESIAN_POINT('Origin',(33.7899405776556,-251.369452289446,0.));
#1878=CARTESIAN_POINT('',(33.7899405776556,-251.369452289446,0.));
#1879=CARTESIAN_POINT('Origin',(85.4769326052243,-226.668474082356,0.));
#1880=CARTESIAN_POINT('',(85.4769326052243,-226.668474082356,0.));
#1881=CARTESIAN_POINT('',(85.4769326052243,-226.668474082356,0.));
#1882=CARTESIAN_POINT('',(82.5565733084553,-222.607712307305,0.));
#1883=CARTESIAN_POINT('',(85.4769326052243,-226.668474082356,0.));
#1884=CARTESIAN_POINT('',(82.5565733084553,-222.607712307305,0.));
#1885=CARTESIAN_POINT('Origin',(139.94341867349,-133.296307347804,0.));
#1886=CARTESIAN_POINT('',(139.94341867349,-133.296307347804,0.));
#1887=CARTESIAN_POINT('',(139.94341867349,-133.296307347804,0.));
#1888=CARTESIAN_POINT('',(135.007020623322,-132.489921022129,0.));
#1889=CARTESIAN_POINT('',(139.94341867349,-133.296307347804,0.));
#1890=CARTESIAN_POINT('',(135.007020623322,-132.489921022129,0.));
#1891=CARTESIAN_POINT('Origin',(120.861425303836,-187.310759101808,0.));
#1892=CARTESIAN_POINT('',(120.861425303836,-187.310759101808,0.));
#1893=CARTESIAN_POINT('',(120.861425303836,-187.310759101808,0.));
#1894=CARTESIAN_POINT('',(116.651364468614,-184.610079117125,0.));
#1895=CARTESIAN_POINT('',(120.861425303836,-187.310759101808,0.));
#1896=CARTESIAN_POINT('',(116.651364468614,-184.610079117125,0.));
#1897=CARTESIAN_POINT('Origin',(-5.71764857681956E-14,-114.235526034673,
0.));
#1898=CARTESIAN_POINT('',(133.258174251839,-130.404491520202,15.));
#1899=CARTESIAN_POINT('',(133.258174251839,-130.404491520202,30.));
#1900=CARTESIAN_POINT('',(133.258174251839,-130.404491520202,0.));
#1901=CARTESIAN_POINT('',(133.484281276415,-128.417313719038,30.));
#1902=CARTESIAN_POINT('Origin',(-5.71764857681956E-14,-114.235526034673,
30.));
#1903=CARTESIAN_POINT('',(133.484281276415,-128.417313719038,15.));
#1904=CARTESIAN_POINT('',(133.484281276415,-128.417313719038,0.));
#1905=CARTESIAN_POINT('',(134.235526034673,-114.235526034673,30.));
#1906=CARTESIAN_POINT('Origin',(-5.71764857681956E-14,-114.235526034673,
30.));
#1907=CARTESIAN_POINT('',(134.235526034673,-114.235526034673,0.));
#1908=CARTESIAN_POINT('',(134.235526034673,-114.235526034673,0.));
#1909=CARTESIAN_POINT('Origin',(-5.71764857681956E-14,-114.235526034673,
0.));
#1910=CARTESIAN_POINT('',(24.5368798301182,-246.209455194974,15.));
#1911=CARTESIAN_POINT('Origin',(-5.71764857681956E-14,-114.235526034673,
15.));
#1912=CARTESIAN_POINT('',(24.5368798301182,-246.209455194974,30.));
#1913=CARTESIAN_POINT('',(24.5368798301182,-246.209455194974,0.));
#1914=CARTESIAN_POINT('',(89.2137842043459,-214.535462015441,30.));
#1915=CARTESIAN_POINT('Origin',(-5.71764857681956E-14,-114.235526034673,
30.));
#1916=CARTESIAN_POINT('',(89.2137842043459,-214.535462015441,15.));
#1917=CARTESIAN_POINT('',(89.2137842043459,-214.535462015441,0.));
#1918=CARTESIAN_POINT('',(90.6982279932898,-213.195153604116,30.));
#1919=CARTESIAN_POINT('Origin',(-5.71764857681956E-14,-114.235526034673,
30.));
#1920=CARTESIAN_POINT('',(90.6982279932898,-213.195153604116,15.));
#1921=CARTESIAN_POINT('',(90.6982279932898,-213.195153604116,0.));
#1922=CARTESIAN_POINT('',(123.588356972068,-166.629175179872,30.));
#1923=CARTESIAN_POINT('Origin',(-5.71764857681956E-14,-114.235526034673,
30.));
#1924=CARTESIAN_POINT('',(123.588356972071,-166.629175179867,15.));
#1925=CARTESIAN_POINT('',(123.588356972068,-166.629175179872,0.));
#1926=CARTESIAN_POINT('',(124.355240581624,-164.782045100698,30.));
#1927=CARTESIAN_POINT('Origin',(-5.71764857681956E-14,-114.235526034673,
30.));
#1928=CARTESIAN_POINT('',(124.355240581624,-164.782045100698,15.));
#1929=CARTESIAN_POINT('',(124.355240581624,-164.782045100698,0.));
#1930=CARTESIAN_POINT('Origin',(-5.71764857681956E-14,-114.235526034673,
30.));
#1931=CARTESIAN_POINT('Origin',(-2.66453525910038E-14,-114.235526034673,
15.));
#1932=CARTESIAN_POINT('',(69.7223590047981,-193.08188935712,15.));
#1933=CARTESIAN_POINT('',(15.6262951778644,-213.27653609135,15.));
#1934=CARTESIAN_POINT('Origin',(7.95411342061589,-110.173035417246,15.));
#1935=CARTESIAN_POINT('',(115.100470902268,-114.235526034673,15.));
#1936=CARTESIAN_POINT('Origin',(-4.4084196998732,-97.9364003419181,15.));
#1937=CARTESIAN_POINT('',(118.110658469232,-114.235526034673,15.));
#1938=CARTESIAN_POINT('',(59.0553292346159,-114.235526034673,15.));
#1939=CARTESIAN_POINT('',(115.919699935082,-126.551197641807,15.));
#1940=CARTESIAN_POINT('Origin',(-2.27044875617021,-99.1724432465725,15.));
#1941=CARTESIAN_POINT('',(66.7421406382077,-121.326419876856,15.));
#1942=CARTESIAN_POINT('',(133.314701007983,-129.907697069911,15.));
#1943=CARTESIAN_POINT('',(115.45230691141,-128.4958168234,15.));
#1944=CARTESIAN_POINT('',(57.6262953350619,-122.297239522863,15.));
#1945=CARTESIAN_POINT('',(104.606005810191,-156.582641811109,15.));
#1946=CARTESIAN_POINT('Origin',(-2.27044875617021,-99.1724432465725,15.));
#1947=CARTESIAN_POINT('',(62.3693411932009,-139.047003047892,15.));
#1948=CARTESIAN_POINT('',(123.780077874458,-166.167392660078,15.));
#1949=CARTESIAN_POINT('',(103.639402743629,-158.346853215625,15.));
#1950=CARTESIAN_POINT('',(51.6279804694252,-136.752972144943,15.));
#1951=CARTESIAN_POINT('',(74.6320909288912,-193.004776852225,15.));
#1952=CARTESIAN_POINT('Origin',(-2.27044875617021,-99.1724432465725,15.));
#1953=CARTESIAN_POINT('',(49.0084693173252,-160.803472206827,15.));
#1954=CARTESIAN_POINT('',(89.5848951515818,-214.20038491261,15.));
#1955=CARTESIAN_POINT('',(71.7398500208597,-195.302475571698,15.));
#1956=CARTESIAN_POINT('',(35.3460246142003,-155.244985178737,15.));
#1957=CARTESIAN_POINT('Origin',(13.04090916422,-119.059963715352,15.));
#1958=CARTESIAN_POINT('',(24.3731974495073,-214.6113400219,15.));
#1959=CARTESIAN_POINT('Origin',(-2.66453525910038E-14,-114.235526034673,
15.));
#1960=CARTESIAN_POINT('',(18.0365981788285,-215.10582459147,15.));
#1961=CARTESIAN_POINT('Origin',(24.3429602675159,-255.071453398875,15.));
#1962=CARTESIAN_POINT('',(10.8100987617093,-180.527266232863,15.));
#1963=CARTESIAN_POINT('Origin',(24.3429602675159,-255.071453398875,0.));
#1964=CARTESIAN_POINT('',(18.0365981788285,-215.10582459147,0.));
#1965=CARTESIAN_POINT('Origin',(24.3429602675159,-255.071453398875,0.));
#1966=CARTESIAN_POINT('',(18.0365981788285,-215.10582459147,0.));
#1967=CARTESIAN_POINT('Origin',(15.6262951778644,-213.27653609135,0.));
#1968=CARTESIAN_POINT('',(15.6262951778644,-213.27653609135,0.));
#1969=CARTESIAN_POINT('',(49.5179300300906,-218.448502806945,0.));
#1970=CARTESIAN_POINT('',(15.6262951778644,-213.27653609135,0.));
#1971=CARTESIAN_POINT('Origin',(-4.4084196998732,-97.9364003419181,0.));
#1972=CARTESIAN_POINT('',(69.7223590047981,-193.08188935712,30.));
#1973=CARTESIAN_POINT('',(69.7223590047981,-193.08188935712,0.));
#1974=CARTESIAN_POINT('',(115.100470902268,-114.235526034673,30.));
#1975=CARTESIAN_POINT('Origin',(-4.4084196998732,-97.9364003419181,30.));
#1976=CARTESIAN_POINT('',(115.100470902268,-114.235526034673,0.));
#1977=CARTESIAN_POINT('Origin',(7.95411342061589,-110.173035417246,0.));
#1978=CARTESIAN_POINT('',(15.6262951778644,-213.27653609135,30.));
#1979=CARTESIAN_POINT('',(15.6262951778644,-213.27653609135,0.));
#1980=CARTESIAN_POINT('Origin',(7.95411342061589,-110.173035417246,30.));
#1981=CARTESIAN_POINT('Origin',(20.5392924644479,-251.845820203597,0.));
#1982=CARTESIAN_POINT('',(-18.2543949874555,-249.242546657996,0.));
#1983=CARTESIAN_POINT('Origin',(20.5392924644479,-251.845820203597,0.));
#1984=CARTESIAN_POINT('',(-18.2543949874555,-249.242546657996,30.));
#1985=CARTESIAN_POINT('',(-18.2543949874555,-249.242546657996,0.));
#1986=CARTESIAN_POINT('Origin',(20.5392924644479,-251.845820203597,30.));
#1987=CARTESIAN_POINT('Origin',(13.04090916422,-119.059963715352,0.));
#1988=CARTESIAN_POINT('',(71.7398500208597,-195.302475571698,30.));
#1989=CARTESIAN_POINT('',(71.7398500208597,-195.302475571698,0.));
#1990=CARTESIAN_POINT('Origin',(13.04090916422,-119.059963715352,30.));
#1991=CARTESIAN_POINT('Origin',(115.45230691141,-128.4958168234,0.));
#1992=CARTESIAN_POINT('',(133.258174251839,-130.404491520202,0.));
#1993=CARTESIAN_POINT('',(115.45230691141,-128.4958168234,30.));
#1994=CARTESIAN_POINT('',(115.45230691141,-128.4958168234,30.));
#1995=CARTESIAN_POINT('',(115.45230691141,-128.4958168234,0.));
#1996=CARTESIAN_POINT('Origin',(93.916508737015,-154.769000803186,0.));
#1997=CARTESIAN_POINT('',(136.235526034673,-114.235526034673,0.));
#1998=CARTESIAN_POINT('',(136.235526034673,-114.235526034673,0.));
#1999=CARTESIAN_POINT('Origin',(-5.71764857681956E-14,-114.235526034673,
0.));
#2000=CARTESIAN_POINT('',(137.133926254772,-148.025466612329,0.));
#2001=CARTESIAN_POINT('Origin',(138.734281276415,-140.698198103212,0.));
#2002=CARTESIAN_POINT('',(132.247294557994,-146.95817317752,0.));
#2003=CARTESIAN_POINT('',(132.247294557994,-146.95817317752,0.));
#2004=CARTESIAN_POINT('Origin',(-5.71764857681956E-14,-114.235526034673,
0.));
#2005=CARTESIAN_POINT('',(112.432948047681,-199.712458639898,0.));
#2006=CARTESIAN_POINT('Origin',(116.811885941575,-193.62354224029,0.));
#2007=CARTESIAN_POINT('',(108.37218627263,-196.792099343129,0.));
#2008=CARTESIAN_POINT('',(108.37218627263,-196.792099343129,0.));
#2009=CARTESIAN_POINT('Origin',(-5.71764857681956E-14,-114.235526034673,
0.));
#2010=CARTESIAN_POINT('',(73.0752330671341,-235.09695133851,0.));
#2011=CARTESIAN_POINT('Origin',(79.3880162056159,-231.047411976249,0.));
#2012=CARTESIAN_POINT('',(70.3745530824507,-230.886890503288,0.));
#2013=CARTESIAN_POINT('',(122.061885941575,-193.62354224029,0.));
#2014=CARTESIAN_POINT('Origin',(116.811885941575,-193.62354224029,0.));
#2015=CARTESIAN_POINT('',(143.984281276415,-140.698198103212,0.));
#2016=CARTESIAN_POINT('Origin',(138.734281276415,-140.698198103212,0.));
#2017=CARTESIAN_POINT('',(84.6380162056158,-231.047411976249,0.));
#2018=CARTESIAN_POINT('Origin',(79.3880162056159,-231.047411976249,0.));
#2019=CARTESIAN_POINT('Origin',(71.7398500208597,-195.302475571698,0.));
#2020=CARTESIAN_POINT('',(89.2137842043459,-214.535462015441,0.));
#2021=CARTESIAN_POINT('',(69.7223590047981,-193.08188935712,30.));
#2022=CARTESIAN_POINT('Origin',(103.639402743629,-158.346853215625,0.));
#2023=CARTESIAN_POINT('',(123.588356972068,-166.629175179872,0.));
#2024=CARTESIAN_POINT('',(103.639402743629,-158.346853215625,30.));
#2025=CARTESIAN_POINT('',(103.639402743629,-158.346853215625,30.));
#2026=CARTESIAN_POINT('',(103.639402743629,-158.346853215625,0.));
#2027=CARTESIAN_POINT('Origin',(89.2137842043459,-214.535462015441,0.));
#2028=CARTESIAN_POINT('',(90.6982279932898,-213.195153604116,0.));
#2029=CARTESIAN_POINT('',(89.2137842043459,-214.535462015441,30.));
#2030=CARTESIAN_POINT('Origin',(116.811885941575,-193.62354224029,0.));
#2031=CARTESIAN_POINT('',(122.061885941575,-193.62354224029,0.));
#2032=CARTESIAN_POINT('',(113.552733469532,-189.50766746523,30.));
#2033=CARTESIAN_POINT('',(113.552733469532,-189.50766746523,30.));
#2034=CARTESIAN_POINT('',(111.785316944472,-192.108252130325,30.));
#2035=CARTESIAN_POINT('Origin',(116.811885941575,-193.62354224029,30.));
#2036=CARTESIAN_POINT('',(111.785316944472,-192.108252130325,30.));
#2037=CARTESIAN_POINT('Origin',(138.734281276415,-140.698198103212,0.));
#2038=CARTESIAN_POINT('',(143.984281276415,-140.698198103212,0.));
#2039=CARTESIAN_POINT('',(134.108488340241,-138.215348991478,30.));
#2040=CARTESIAN_POINT('',(134.108488340241,-138.215348991478,30.));
#2041=CARTESIAN_POINT('',(133.519349498554,-141.303992253272,30.));
#2042=CARTESIAN_POINT('Origin',(138.734281276415,-140.698198103212,30.));
#2043=CARTESIAN_POINT('',(133.519349498554,-141.303992253271,30.));
#2044=CARTESIAN_POINT('Origin',(79.3880162056159,-231.047411976249,0.));
#2045=CARTESIAN_POINT('',(84.6380162056158,-231.047411976249,0.));
#2046=CARTESIAN_POINT('',(77.8727260956495,-226.020842979146,30.));
#2047=CARTESIAN_POINT('',(77.8727260956488,-226.020842979147,30.));
#2048=CARTESIAN_POINT('Origin',(79.3880162056159,-231.047411976249,30.));
#2049=CARTESIAN_POINT('Origin',(133.484281276415,-128.417313719038,0.));
#2050=CARTESIAN_POINT('',(115.919699935082,-126.551197641807,30.));
#2051=CARTESIAN_POINT('',(115.919699935082,-126.551197641807,0.));
#2052=CARTESIAN_POINT('',(133.484281276415,-128.417313719038,30.));
#2053=CARTESIAN_POINT('',(133.484281276415,-128.417313719038,0.));
#2054=CARTESIAN_POINT('Origin',(133.258174251839,-130.404491520202,0.));
#2055=CARTESIAN_POINT('',(133.258174251839,-130.404491520202,30.));
#2056=CARTESIAN_POINT('Origin',(-2.27044875617021,-99.1724432465725,0.));
#2057=CARTESIAN_POINT('',(104.606005810191,-156.582641811109,30.));
#2058=CARTESIAN_POINT('Origin',(-2.27044875617021,-99.1724432465725,30.));
#2059=CARTESIAN_POINT('',(104.606005810191,-156.582641811109,0.));
#2060=CARTESIAN_POINT('Origin',(124.355240581624,-164.782045100698,0.));
#2061=CARTESIAN_POINT('',(124.355240581624,-164.782045100698,30.));
#2062=CARTESIAN_POINT('',(124.355240581624,-164.782045100698,0.));
#2063=CARTESIAN_POINT('Origin',(123.588356972068,-166.629175179872,0.));
#2064=CARTESIAN_POINT('',(123.588356972068,-166.629175179872,30.));
#2065=CARTESIAN_POINT('Origin',(-2.27044875617021,-99.1724432465725,0.));
#2066=CARTESIAN_POINT('',(74.6320909288912,-193.004776852225,30.));
#2067=CARTESIAN_POINT('Origin',(-2.27044875617021,-99.1724432465725,30.));
#2068=CARTESIAN_POINT('',(74.6320909288912,-193.004776852225,0.));
#2069=CARTESIAN_POINT('Origin',(90.6982279932898,-213.195153604116,0.));
#2070=CARTESIAN_POINT('',(90.6982279932898,-213.195153604116,30.));
#2071=CARTESIAN_POINT('Origin',(24.5368798301182,-246.209455194974,0.));
#2072=CARTESIAN_POINT('',(24.5368798301182,-246.209455194974,30.));
#2073=CARTESIAN_POINT('',(24.5368798301182,-246.209455194974,0.));
#2074=CARTESIAN_POINT('Origin',(136.235526034673,-114.235526034673,0.));
#2075=CARTESIAN_POINT('',(136.235526034673,-114.235526034673,30.));
#2076=CARTESIAN_POINT('',(136.235526034673,-114.235526034673,30.));
#2077=CARTESIAN_POINT('',(136.235526034673,-114.235526034673,0.));
#2078=CARTESIAN_POINT('Origin',(-5.71764857681956E-14,-114.235526034673,
0.));
#2079=CARTESIAN_POINT('Origin',(-5.71764857681956E-14,-114.235526034673,
30.));
#2080=CARTESIAN_POINT('Origin',(138.734281276415,-140.698198103212,0.));
#2081=CARTESIAN_POINT('',(137.133926254772,-148.025466612329,0.));
#2082=CARTESIAN_POINT('Origin',(132.247294557994,-146.95817317752,0.));
#2083=CARTESIAN_POINT('',(132.247294557994,-146.95817317752,0.));
#2084=CARTESIAN_POINT('Origin',(-5.71764857681956E-14,-114.235526034673,
0.));
#2085=CARTESIAN_POINT('Origin',(-5.71764857681956E-14,-114.235526034673,
30.));
#2086=CARTESIAN_POINT('Origin',(116.811885941575,-193.62354224029,0.));
#2087=CARTESIAN_POINT('',(112.432948047681,-199.712458639898,0.));
#2088=CARTESIAN_POINT('Origin',(108.37218627263,-196.792099343129,0.));
#2089=CARTESIAN_POINT('',(108.37218627263,-196.792099343129,0.));
#2090=CARTESIAN_POINT('Origin',(-5.71764857681956E-14,-114.235526034673,
0.));
#2091=CARTESIAN_POINT('Origin',(-5.71764857681956E-14,-114.235526034673,
30.));
#2092=CARTESIAN_POINT('Origin',(79.3880162056159,-231.047411976249,0.));
#2093=CARTESIAN_POINT('',(73.0752330671341,-235.09695133851,0.));
#2094=CARTESIAN_POINT('Origin',(70.3745530824507,-230.886890503288,0.));
#2095=CARTESIAN_POINT('Origin',(24.3429602675159,-255.071453398875,0.));
#2096=CARTESIAN_POINT('',(-15.2137112834922,-245.516963961275,0.));
#2097=CARTESIAN_POINT('',(-15.2137112834922,-245.516963961275,0.));
#2098=CARTESIAN_POINT('Origin',(24.3429602675159,-255.071453398875,0.));
#2099=CARTESIAN_POINT('Origin',(-5.71764857681956E-14,-250.471052069347,
0.));
#2100=CARTESIAN_POINT('',(-15.9723901473131,-249.531502718853,0.));
#2101=CARTESIAN_POINT('',(-15.9723901473131,-249.531502718853,0.));
#2102=CARTESIAN_POINT('Origin',(-5.71764857681956E-14,-250.471052069347,
0.));
#2103=CARTESIAN_POINT('Origin',(-6.66133814775094E-14,-114.235526034673,
0.));
#2104=CARTESIAN_POINT('Origin',(-6.66133814775094E-14,-114.235526034673,
30.));
#2105=CARTESIAN_POINT('Origin',(-6.66133814775094E-14,-114.235526034673,
0.));
#2106=CARTESIAN_POINT('Origin',(118.110658469232,-114.235526034673,0.));
#2107=CARTESIAN_POINT('',(118.110658469232,-114.235526034673,30.));
#2108=CARTESIAN_POINT('',(118.110658469232,-114.235526034673,30.));
#2109=CARTESIAN_POINT('',(118.110658469232,-114.235526034673,0.));
#2110=CARTESIAN_POINT('Origin',(-2.27044875617021,-99.1724432465725,0.));
#2111=CARTESIAN_POINT('Origin',(-2.27044875617021,-99.1724432465725,30.));
#2112=CARTESIAN_POINT('Origin',(93.916508737015,-154.769000803186,30.));
#2113=CARTESIAN_POINT('Origin',(93.916508737015,-154.769000803186,0.));
#2114=UNCERTAINTY_MEASURE_WITH_UNIT(LENGTH_MEASURE(0.01),#2118,
'DISTANCE_ACCURACY_VALUE',
'Maximum model space distance between geometric entities at asserted c
onnectivities');
#2115=UNCERTAINTY_MEASURE_WITH_UNIT(LENGTH_MEASURE(0.01),#2118,
'DISTANCE_ACCURACY_VALUE',
'Maximum model space distance between geometric entities at asserted c
onnectivities');
#2116=(
GEOMETRIC_REPRESENTATION_CONTEXT(3)
GLOBAL_UNCERTAINTY_ASSIGNED_CONTEXT((#2114))
GLOBAL_UNIT_ASSIGNED_CONTEXT((#2118,#2120,#2121))
REPRESENTATION_CONTEXT('','3D')
);
#2117=(
GEOMETRIC_REPRESENTATION_CONTEXT(3)
GLOBAL_UNCERTAINTY_ASSIGNED_CONTEXT((#2115))
GLOBAL_UNIT_ASSIGNED_CONTEXT((#2118,#2120,#2121))
REPRESENTATION_CONTEXT('','3D')
);
#2118=(
LENGTH_UNIT()
NAMED_UNIT(*)
SI_UNIT(.MILLI.,.METRE.)
);
#2119=(
LENGTH_UNIT()
NAMED_UNIT(*)
SI_UNIT(.CENTI.,.METRE.)
);
#2120=(
NAMED_UNIT(*)
PLANE_ANGLE_UNIT()
SI_UNIT($,.RADIAN.)
);
#2121=(
NAMED_UNIT(*)
SI_UNIT($,.STERADIAN.)
SOLID_ANGLE_UNIT()
);
#2122=SHAPE_DEFINITION_REPRESENTATION(#2123,#2124);
#2123=PRODUCT_DEFINITION_SHAPE('',$,#2126);
#2124=SHAPE_REPRESENTATION('',(#1241),#2116);
#2125=PRODUCT_DEFINITION_CONTEXT('part definition',#2130,'design');
#2126=PRODUCT_DEFINITION('HalfFilterWall2','HalfFilterWall2',#2127,#2125);
#2127=PRODUCT_DEFINITION_FORMATION('',$,#2132);
#2128=PRODUCT_RELATED_PRODUCT_CATEGORY('HalfFilterWall2',
'HalfFilterWall2',(#2132));
#2129=APPLICATION_PROTOCOL_DEFINITION('international standard',
'automotive_design',2009,#2130);
#2130=APPLICATION_CONTEXT(
'Core Data for Automotive Mechanical Design Process');
#2131=PRODUCT_CONTEXT('part definition',#2130,'mechanical');
#2132=PRODUCT('HalfFilterWall2','HalfFilterWall2',$,(#2131));
#2133=PRESENTATION_STYLE_ASSIGNMENT((#2134));
#2134=SURFACE_STYLE_USAGE(.BOTH.,#2137);
#2135=SURFACE_STYLE_RENDERING_WITH_PROPERTIES($,#2141,(#2136));
#2136=SURFACE_STYLE_TRANSPARENT(0.);
#2137=SURFACE_SIDE_STYLE('',(#2138,#2135));
#2138=SURFACE_STYLE_FILL_AREA(#2139);
#2139=FILL_AREA_STYLE('',(#2140));
#2140=FILL_AREA_STYLE_COLOUR('',#2141);
#2141=COLOUR_RGB('',0.749019607843137,0.749019607843137,0.749019607843137);
ENDSEC;
END-ISO-10303-21;
