ISO-10303-21;
HEADER;
/* Generated by software containing ST-Developer
 * from STEP Tools, Inc. (www.steptools.com) 
 */

FILE_DESCRIPTION(
/* description */ (''),
/* implementation_level */ '2;1');

FILE_NAME(
/* name */ 'HalfFilterwall3.stp',
/* time_stamp */ '2026-05-08T10:35:00+02:00',
/* author */ ('sniel'),
/* organization */ (''),
/* preprocessor_version */ 'ST-DEVELOPER v20.1',
/* originating_system */ 'Autodesk Inventor 2026',
/* authorisation */ '');

FILE_SCHEMA (('AUTOMOTIVE_DESIGN { 1 0 10303 214 3 1 1 }'));
ENDSEC;

DATA;
#10=MECHANICAL_DESIGN_GEOMETRIC_PRESENTATION_REPRESENTATION('',(#13),#1070);
#11=SHAPE_REPRESENTATION_RELATIONSHIP('SRR','None',#1077,#12);
#12=ADVANCED_BREP_SHAPE_REPRESENTATION('',(#14),#1069);
#13=STYLED_ITEM('',(#1086),#14);
#14=MANIFOLD_SOLID_BREP('Solid2',#601);
#15=FACE_BOUND('',#89,.T.);
#16=FACE_BOUND('',#90,.T.);
#17=FACE_BOUND('',#91,.T.);
#18=FACE_BOUND('',#92,.T.);
#19=CYLINDRICAL_SURFACE('',#636,136.235526034673);
#20=CYLINDRICAL_SURFACE('',#650,5.24999999999997);
#21=CYLINDRICAL_SURFACE('',#654,7.49999999999996);
#22=CYLINDRICAL_SURFACE('',#658,5.24999999999997);
#23=CYLINDRICAL_SURFACE('',#662,5.24999999999997);
#24=CYLINDRICAL_SURFACE('',#666,5.24999999999997);
#25=CYLINDRICAL_SURFACE('',#669,136.235526034673);
#26=CYLINDRICAL_SURFACE('',#672,7.49999999999995);
#27=CYLINDRICAL_SURFACE('',#675,136.235526034673);
#28=CYLINDRICAL_SURFACE('',#678,7.49999999999996);
#29=CYLINDRICAL_SURFACE('',#681,136.235526034673);
#30=CYLINDRICAL_SURFACE('',#684,7.49999999999996);
#31=CYLINDRICAL_SURFACE('',#687,136.235526034673);
#32=CYLINDRICAL_SURFACE('',#691,134.235526034673);
#33=FACE_OUTER_BOUND('',#61,.T.);
#34=FACE_OUTER_BOUND('',#62,.T.);
#35=FACE_OUTER_BOUND('',#63,.T.);
#36=FACE_OUTER_BOUND('',#64,.T.);
#37=FACE_OUTER_BOUND('',#65,.T.);
#38=FACE_OUTER_BOUND('',#66,.T.);
#39=FACE_OUTER_BOUND('',#67,.T.);
#40=FACE_OUTER_BOUND('',#68,.T.);
#41=FACE_OUTER_BOUND('',#69,.T.);
#42=FACE_OUTER_BOUND('',#70,.T.);
#43=FACE_OUTER_BOUND('',#71,.T.);
#44=FACE_OUTER_BOUND('',#72,.T.);
#45=FACE_OUTER_BOUND('',#73,.T.);
#46=FACE_OUTER_BOUND('',#74,.T.);
#47=FACE_OUTER_BOUND('',#75,.T.);
#48=FACE_OUTER_BOUND('',#76,.T.);
#49=FACE_OUTER_BOUND('',#77,.T.);
#50=FACE_OUTER_BOUND('',#78,.T.);
#51=FACE_OUTER_BOUND('',#79,.T.);
#52=FACE_OUTER_BOUND('',#80,.T.);
#53=FACE_OUTER_BOUND('',#81,.T.);
#54=FACE_OUTER_BOUND('',#82,.T.);
#55=FACE_OUTER_BOUND('',#83,.T.);
#56=FACE_OUTER_BOUND('',#84,.T.);
#57=FACE_OUTER_BOUND('',#85,.T.);
#58=FACE_OUTER_BOUND('',#86,.T.);
#59=FACE_OUTER_BOUND('',#87,.T.);
#60=FACE_OUTER_BOUND('',#88,.T.);
#61=EDGE_LOOP('',(#379,#380,#381,#382,#383,#384));
#62=EDGE_LOOP('',(#385,#386,#387,#388,#389,#390,#391));
#63=EDGE_LOOP('',(#392,#393,#394,#395));
#64=EDGE_LOOP('',(#396,#397,#398,#399,#400,#401,#402));
#65=EDGE_LOOP('',(#403,#404,#405,#406,#407,#408,#409));
#66=EDGE_LOOP('',(#410,#411,#412,#413,#414,#415,#416,#417));
#67=EDGE_LOOP('',(#418,#419,#420,#421));
#68=EDGE_LOOP('',(#422,#423,#424,#425,#426,#427));
#69=EDGE_LOOP('',(#428,#429,#430,#431));
#70=EDGE_LOOP('',(#432,#433,#434,#435,#436,#437,#438,#439));
#71=EDGE_LOOP('',(#440,#441,#442,#443));
#72=EDGE_LOOP('',(#444,#445,#446,#447,#448,#449,#450,#451));
#73=EDGE_LOOP('',(#452,#453,#454,#455));
#74=EDGE_LOOP('',(#456,#457,#458,#459,#460,#461,#462,#463));
#75=EDGE_LOOP('',(#464,#465,#466,#467,#468,#469,#470,#471));
#76=EDGE_LOOP('',(#472,#473,#474,#475));
#77=EDGE_LOOP('',(#476,#477,#478,#479));
#78=EDGE_LOOP('',(#480,#481,#482,#483,#484,#485,#486,#487));
#79=EDGE_LOOP('',(#488,#489,#490,#491));
#80=EDGE_LOOP('',(#492,#493,#494,#495));
#81=EDGE_LOOP('',(#496,#497,#498,#499,#500,#501,#502,#503));
#82=EDGE_LOOP('',(#504,#505,#506,#507));
#83=EDGE_LOOP('',(#508,#509,#510,#511));
#84=EDGE_LOOP('',(#512,#513,#514,#515,#516,#517));
#85=EDGE_LOOP('',(#518,#519,#520,#521));
#86=EDGE_LOOP('',(#522,#523,#524,#525));
#87=EDGE_LOOP('',(#526,#527,#528,#529,#530,#531,#532,#533,#534,#535,#536,
#537));
#88=EDGE_LOOP('',(#538,#539,#540,#541,#542,#543,#544,#545,#546,#547,#548,
#549,#550,#551,#552,#553,#554));
#89=EDGE_LOOP('',(#555));
#90=EDGE_LOOP('',(#556));
#91=EDGE_LOOP('',(#557));
#92=EDGE_LOOP('',(#558));
#93=LINE('',#900,#139);
#94=LINE('',#905,#140);
#95=LINE('',#915,#141);
#96=LINE('',#919,#142);
#97=LINE('',#922,#143);
#98=LINE('',#926,#144);
#99=LINE('',#936,#145);
#100=LINE('',#941,#146);
#101=LINE('',#951,#147);
#102=LINE('',#955,#148);
#103=LINE('',#957,#149);
#104=LINE('',#960,#150);
#105=LINE('',#964,#151);
#106=LINE('',#966,#152);
#107=LINE('',#967,#153);
#108=LINE('',#970,#154);
#109=LINE('',#974,#155);
#110=LINE('',#978,#156);
#111=LINE('',#979,#157);
#112=LINE('',#982,#158);
#113=LINE('',#984,#159);
#114=LINE('',#987,#160);
#115=LINE('',#991,#161);
#116=LINE('',#993,#162);
#117=LINE('',#994,#163);
#118=LINE('',#997,#164);
#119=LINE('',#999,#165);
#120=LINE('',#1002,#166);
#121=LINE('',#1006,#167);
#122=LINE('',#1008,#168);
#123=LINE('',#1009,#169);
#124=LINE('',#1013,#170);
#125=LINE('',#1015,#171);
#126=LINE('',#1022,#172);
#127=LINE('',#1026,#173);
#128=LINE('',#1027,#174);
#129=LINE('',#1033,#175);
#130=LINE('',#1037,#176);
#131=LINE('',#1038,#177);
#132=LINE('',#1044,#178);
#133=LINE('',#1048,#179);
#134=LINE('',#1049,#180);
#135=LINE('',#1055,#181);
#136=LINE('',#1058,#182);
#137=LINE('',#1060,#183);
#138=LINE('',#1061,#184);
#139=VECTOR('',#708,10.);
#140=VECTOR('',#713,10.);
#141=VECTOR('',#722,10.);
#142=VECTOR('',#727,10.);
#143=VECTOR('',#730,10.);
#144=VECTOR('',#733,10.);
#145=VECTOR('',#742,10.);
#146=VECTOR('',#747,10.);
#147=VECTOR('',#756,10.);
#148=VECTOR('',#761,10.);
#149=VECTOR('',#762,5.24999999999997);
#150=VECTOR('',#765,10.);
#151=VECTOR('',#770,10.);
#152=VECTOR('',#771,10.);
#153=VECTOR('',#772,10.);
#154=VECTOR('',#775,10.);
#155=VECTOR('',#778,10.);
#156=VECTOR('',#783,10.);
#157=VECTOR('',#784,10.);
#158=VECTOR('',#787,10.);
#159=VECTOR('',#788,5.24999999999997);
#160=VECTOR('',#791,10.);
#161=VECTOR('',#796,10.);
#162=VECTOR('',#797,10.);
#163=VECTOR('',#798,10.);
#164=VECTOR('',#801,10.);
#165=VECTOR('',#802,5.24999999999997);
#166=VECTOR('',#805,10.);
#167=VECTOR('',#810,10.);
#168=VECTOR('',#811,10.);
#169=VECTOR('',#812,10.);
#170=VECTOR('',#817,10.);
#171=VECTOR('',#818,5.24999999999997);
#172=VECTOR('',#829,10.);
#173=VECTOR('',#834,10.);
#174=VECTOR('',#835,10.);
#175=VECTOR('',#844,10.);
#176=VECTOR('',#849,10.);
#177=VECTOR('',#850,10.);
#178=VECTOR('',#859,10.);
#179=VECTOR('',#864,10.);
#180=VECTOR('',#865,10.);
#181=VECTOR('',#872,10.);
#182=VECTOR('',#875,10.);
#183=VECTOR('',#876,10.);
#184=VECTOR('',#877,10.);
#185=CIRCLE('',#625,136.235526034673);
#186=CIRCLE('',#626,5.24999999999997);
#187=CIRCLE('',#627,5.24999999999997);
#188=CIRCLE('',#628,136.235526034673);
#189=CIRCLE('',#629,7.49999999999996);
#190=CIRCLE('',#631,136.235526034673);
#191=CIRCLE('',#632,5.24999999999997);
#192=CIRCLE('',#633,5.24999999999997);
#193=CIRCLE('',#634,136.235526034673);
#194=CIRCLE('',#635,7.49999999999996);
#195=CIRCLE('',#637,136.235526034673);
#196=CIRCLE('',#639,136.235526034673);
#197=CIRCLE('',#640,5.24999999999997);
#198=CIRCLE('',#641,5.24999999999997);
#199=CIRCLE('',#642,136.235526034673);
#200=CIRCLE('',#643,7.49999999999996);
#201=CIRCLE('',#645,136.235526034673);
#202=CIRCLE('',#646,5.24999999999997);
#203=CIRCLE('',#647,5.24999999999997);
#204=CIRCLE('',#648,136.235526034673);
#205=CIRCLE('',#649,7.49999999999995);
#206=CIRCLE('',#651,5.24999999999997);
#207=CIRCLE('',#652,5.24999999999997);
#208=CIRCLE('',#655,7.49999999999996);
#209=CIRCLE('',#656,7.49999999999996);
#210=CIRCLE('',#659,5.24999999999997);
#211=CIRCLE('',#660,5.24999999999997);
#212=CIRCLE('',#663,5.24999999999997);
#213=CIRCLE('',#664,5.24999999999997);
#214=CIRCLE('',#667,5.24999999999997);
#215=CIRCLE('',#668,5.24999999999997);
#216=CIRCLE('',#670,136.235526034673);
#217=CIRCLE('',#671,136.235526034673);
#218=CIRCLE('',#673,7.49999999999995);
#219=CIRCLE('',#676,136.235526034673);
#220=CIRCLE('',#677,136.235526034673);
#221=CIRCLE('',#679,7.49999999999996);
#222=CIRCLE('',#682,136.235526034673);
#223=CIRCLE('',#683,136.235526034673);
#224=CIRCLE('',#685,7.49999999999996);
#225=CIRCLE('',#688,136.235526034673);
#226=CIRCLE('',#689,136.235526034673);
#227=CIRCLE('',#692,134.235526034673);
#228=CIRCLE('',#693,134.235526034673);
#229=VERTEX_POINT('',#890);
#230=VERTEX_POINT('',#891);
#231=VERTEX_POINT('',#893);
#232=VERTEX_POINT('',#895);
#233=VERTEX_POINT('',#897);
#234=VERTEX_POINT('',#899);
#235=VERTEX_POINT('',#903);
#236=VERTEX_POINT('',#904);
#237=VERTEX_POINT('',#906);
#238=VERTEX_POINT('',#908);
#239=VERTEX_POINT('',#910);
#240=VERTEX_POINT('',#912);
#241=VERTEX_POINT('',#914);
#242=VERTEX_POINT('',#918);
#243=VERTEX_POINT('',#920);
#244=VERTEX_POINT('',#924);
#245=VERTEX_POINT('',#925);
#246=VERTEX_POINT('',#927);
#247=VERTEX_POINT('',#929);
#248=VERTEX_POINT('',#931);
#249=VERTEX_POINT('',#933);
#250=VERTEX_POINT('',#935);
#251=VERTEX_POINT('',#939);
#252=VERTEX_POINT('',#940);
#253=VERTEX_POINT('',#942);
#254=VERTEX_POINT('',#944);
#255=VERTEX_POINT('',#946);
#256=VERTEX_POINT('',#948);
#257=VERTEX_POINT('',#950);
#258=VERTEX_POINT('',#954);
#259=VERTEX_POINT('',#956);
#260=VERTEX_POINT('',#959);
#261=VERTEX_POINT('',#963);
#262=VERTEX_POINT('',#965);
#263=VERTEX_POINT('',#969);
#264=VERTEX_POINT('',#971);
#265=VERTEX_POINT('',#973);
#266=VERTEX_POINT('',#977);
#267=VERTEX_POINT('',#981);
#268=VERTEX_POINT('',#983);
#269=VERTEX_POINT('',#986);
#270=VERTEX_POINT('',#990);
#271=VERTEX_POINT('',#992);
#272=VERTEX_POINT('',#996);
#273=VERTEX_POINT('',#998);
#274=VERTEX_POINT('',#1001);
#275=VERTEX_POINT('',#1005);
#276=VERTEX_POINT('',#1007);
#277=VERTEX_POINT('',#1011);
#278=VERTEX_POINT('',#1014);
#279=VERTEX_POINT('',#1021);
#280=VERTEX_POINT('',#1025);
#281=VERTEX_POINT('',#1032);
#282=VERTEX_POINT('',#1036);
#283=VERTEX_POINT('',#1043);
#284=VERTEX_POINT('',#1047);
#285=VERTEX_POINT('',#1051);
#286=VERTEX_POINT('',#1053);
#287=VERTEX_POINT('',#1057);
#288=VERTEX_POINT('',#1059);
#289=EDGE_CURVE('',#229,#230,#185,.T.);
#290=EDGE_CURVE('',#229,#231,#186,.T.);
#291=EDGE_CURVE('',#231,#232,#187,.T.);
#292=EDGE_CURVE('',#233,#232,#188,.T.);
#293=EDGE_CURVE('',#233,#234,#93,.T.);
#294=EDGE_CURVE('',#234,#230,#189,.T.);
#295=EDGE_CURVE('',#235,#236,#94,.T.);
#296=EDGE_CURVE('',#237,#235,#190,.T.);
#297=EDGE_CURVE('',#238,#237,#191,.T.);
#298=EDGE_CURVE('',#239,#238,#192,.T.);
#299=EDGE_CURVE('',#240,#239,#193,.T.);
#300=EDGE_CURVE('',#241,#240,#95,.T.);
#301=EDGE_CURVE('',#236,#241,#194,.T.);
#302=EDGE_CURVE('',#242,#230,#96,.T.);
#303=EDGE_CURVE('',#243,#242,#195,.T.);
#304=EDGE_CURVE('',#229,#243,#97,.T.);
#305=EDGE_CURVE('',#244,#245,#98,.T.);
#306=EDGE_CURVE('',#246,#244,#196,.T.);
#307=EDGE_CURVE('',#247,#246,#197,.T.);
#308=EDGE_CURVE('',#248,#247,#198,.T.);
#309=EDGE_CURVE('',#249,#248,#199,.T.);
#310=EDGE_CURVE('',#250,#249,#99,.T.);
#311=EDGE_CURVE('',#245,#250,#200,.T.);
#312=EDGE_CURVE('',#251,#252,#100,.T.);
#313=EDGE_CURVE('',#253,#251,#201,.T.);
#314=EDGE_CURVE('',#254,#253,#202,.T.);
#315=EDGE_CURVE('',#255,#254,#203,.T.);
#316=EDGE_CURVE('',#256,#255,#204,.T.);
#317=EDGE_CURVE('',#257,#256,#101,.T.);
#318=EDGE_CURVE('',#252,#257,#205,.T.);
#319=EDGE_CURVE('',#258,#239,#102,.T.);
#320=EDGE_CURVE('',#238,#259,#103,.T.);
#321=EDGE_CURVE('',#259,#259,#206,.T.);
#322=EDGE_CURVE('',#237,#260,#104,.T.);
#323=EDGE_CURVE('',#258,#260,#207,.T.);
#324=EDGE_CURVE('',#261,#236,#105,.T.);
#325=EDGE_CURVE('',#261,#262,#106,.T.);
#326=EDGE_CURVE('',#262,#235,#107,.T.);
#327=EDGE_CURVE('',#263,#234,#108,.T.);
#328=EDGE_CURVE('',#263,#264,#208,.T.);
#329=EDGE_CURVE('',#264,#265,#109,.T.);
#330=EDGE_CURVE('',#242,#265,#209,.T.);
#331=EDGE_CURVE('',#266,#233,#110,.T.);
#332=EDGE_CURVE('',#266,#263,#111,.T.);
#333=EDGE_CURVE('',#267,#248,#112,.T.);
#334=EDGE_CURVE('',#247,#268,#113,.T.);
#335=EDGE_CURVE('',#268,#268,#210,.T.);
#336=EDGE_CURVE('',#246,#269,#114,.T.);
#337=EDGE_CURVE('',#267,#269,#211,.T.);
#338=EDGE_CURVE('',#270,#245,#115,.T.);
#339=EDGE_CURVE('',#270,#271,#116,.T.);
#340=EDGE_CURVE('',#271,#244,#117,.T.);
#341=EDGE_CURVE('',#272,#255,#118,.T.);
#342=EDGE_CURVE('',#254,#273,#119,.T.);
#343=EDGE_CURVE('',#273,#273,#212,.T.);
#344=EDGE_CURVE('',#253,#274,#120,.T.);
#345=EDGE_CURVE('',#272,#274,#213,.T.);
#346=EDGE_CURVE('',#275,#252,#121,.T.);
#347=EDGE_CURVE('',#275,#276,#122,.T.);
#348=EDGE_CURVE('',#276,#251,#123,.T.);
#349=EDGE_CURVE('',#277,#243,#214,.T.);
#350=EDGE_CURVE('',#277,#232,#124,.T.);
#351=EDGE_CURVE('',#231,#278,#125,.T.);
#352=EDGE_CURVE('',#278,#278,#215,.T.);
#353=EDGE_CURVE('',#274,#277,#216,.T.);
#354=EDGE_CURVE('',#276,#266,#217,.T.);
#355=EDGE_CURVE('',#279,#257,#126,.T.);
#356=EDGE_CURVE('',#279,#275,#218,.T.);
#357=EDGE_CURVE('',#280,#256,#127,.T.);
#358=EDGE_CURVE('',#280,#279,#128,.T.);
#359=EDGE_CURVE('',#262,#280,#219,.T.);
#360=EDGE_CURVE('',#260,#272,#220,.T.);
#361=EDGE_CURVE('',#281,#241,#129,.T.);
#362=EDGE_CURVE('',#281,#261,#221,.T.);
#363=EDGE_CURVE('',#282,#240,#130,.T.);
#364=EDGE_CURVE('',#282,#281,#131,.T.);
#365=EDGE_CURVE('',#271,#282,#222,.T.);
#366=EDGE_CURVE('',#269,#258,#223,.T.);
#367=EDGE_CURVE('',#283,#250,#132,.T.);
#368=EDGE_CURVE('',#283,#270,#224,.T.);
#369=EDGE_CURVE('',#284,#249,#133,.T.);
#370=EDGE_CURVE('',#284,#283,#134,.T.);
#371=EDGE_CURVE('',#285,#284,#225,.T.);
#372=EDGE_CURVE('',#286,#267,#226,.T.);
#373=EDGE_CURVE('',#285,#286,#135,.T.);
#374=EDGE_CURVE('',#287,#285,#136,.T.);
#375=EDGE_CURVE('',#288,#286,#137,.T.);
#376=EDGE_CURVE('',#287,#288,#138,.T.);
#377=EDGE_CURVE('',#264,#287,#227,.T.);
#378=EDGE_CURVE('',#265,#288,#228,.T.);
#379=ORIENTED_EDGE('',*,*,#289,.F.);
#380=ORIENTED_EDGE('',*,*,#290,.T.);
#381=ORIENTED_EDGE('',*,*,#291,.T.);
#382=ORIENTED_EDGE('',*,*,#292,.F.);
#383=ORIENTED_EDGE('',*,*,#293,.T.);
#384=ORIENTED_EDGE('',*,*,#294,.T.);
#385=ORIENTED_EDGE('',*,*,#295,.F.);
#386=ORIENTED_EDGE('',*,*,#296,.F.);
#387=ORIENTED_EDGE('',*,*,#297,.F.);
#388=ORIENTED_EDGE('',*,*,#298,.F.);
#389=ORIENTED_EDGE('',*,*,#299,.F.);
#390=ORIENTED_EDGE('',*,*,#300,.F.);
#391=ORIENTED_EDGE('',*,*,#301,.F.);
#392=ORIENTED_EDGE('',*,*,#289,.T.);
#393=ORIENTED_EDGE('',*,*,#302,.F.);
#394=ORIENTED_EDGE('',*,*,#303,.F.);
#395=ORIENTED_EDGE('',*,*,#304,.F.);
#396=ORIENTED_EDGE('',*,*,#305,.F.);
#397=ORIENTED_EDGE('',*,*,#306,.F.);
#398=ORIENTED_EDGE('',*,*,#307,.F.);
#399=ORIENTED_EDGE('',*,*,#308,.F.);
#400=ORIENTED_EDGE('',*,*,#309,.F.);
#401=ORIENTED_EDGE('',*,*,#310,.F.);
#402=ORIENTED_EDGE('',*,*,#311,.F.);
#403=ORIENTED_EDGE('',*,*,#312,.F.);
#404=ORIENTED_EDGE('',*,*,#313,.F.);
#405=ORIENTED_EDGE('',*,*,#314,.F.);
#406=ORIENTED_EDGE('',*,*,#315,.F.);
#407=ORIENTED_EDGE('',*,*,#316,.F.);
#408=ORIENTED_EDGE('',*,*,#317,.F.);
#409=ORIENTED_EDGE('',*,*,#318,.F.);
#410=ORIENTED_EDGE('',*,*,#319,.T.);
#411=ORIENTED_EDGE('',*,*,#298,.T.);
#412=ORIENTED_EDGE('',*,*,#320,.T.);
#413=ORIENTED_EDGE('',*,*,#321,.T.);
#414=ORIENTED_EDGE('',*,*,#320,.F.);
#415=ORIENTED_EDGE('',*,*,#297,.T.);
#416=ORIENTED_EDGE('',*,*,#322,.T.);
#417=ORIENTED_EDGE('',*,*,#323,.F.);
#418=ORIENTED_EDGE('',*,*,#295,.T.);
#419=ORIENTED_EDGE('',*,*,#324,.F.);
#420=ORIENTED_EDGE('',*,*,#325,.T.);
#421=ORIENTED_EDGE('',*,*,#326,.T.);
#422=ORIENTED_EDGE('',*,*,#302,.T.);
#423=ORIENTED_EDGE('',*,*,#294,.F.);
#424=ORIENTED_EDGE('',*,*,#327,.F.);
#425=ORIENTED_EDGE('',*,*,#328,.T.);
#426=ORIENTED_EDGE('',*,*,#329,.T.);
#427=ORIENTED_EDGE('',*,*,#330,.F.);
#428=ORIENTED_EDGE('',*,*,#331,.F.);
#429=ORIENTED_EDGE('',*,*,#332,.T.);
#430=ORIENTED_EDGE('',*,*,#327,.T.);
#431=ORIENTED_EDGE('',*,*,#293,.F.);
#432=ORIENTED_EDGE('',*,*,#333,.T.);
#433=ORIENTED_EDGE('',*,*,#308,.T.);
#434=ORIENTED_EDGE('',*,*,#334,.T.);
#435=ORIENTED_EDGE('',*,*,#335,.T.);
#436=ORIENTED_EDGE('',*,*,#334,.F.);
#437=ORIENTED_EDGE('',*,*,#307,.T.);
#438=ORIENTED_EDGE('',*,*,#336,.T.);
#439=ORIENTED_EDGE('',*,*,#337,.F.);
#440=ORIENTED_EDGE('',*,*,#305,.T.);
#441=ORIENTED_EDGE('',*,*,#338,.F.);
#442=ORIENTED_EDGE('',*,*,#339,.T.);
#443=ORIENTED_EDGE('',*,*,#340,.T.);
#444=ORIENTED_EDGE('',*,*,#341,.T.);
#445=ORIENTED_EDGE('',*,*,#315,.T.);
#446=ORIENTED_EDGE('',*,*,#342,.T.);
#447=ORIENTED_EDGE('',*,*,#343,.T.);
#448=ORIENTED_EDGE('',*,*,#342,.F.);
#449=ORIENTED_EDGE('',*,*,#314,.T.);
#450=ORIENTED_EDGE('',*,*,#344,.T.);
#451=ORIENTED_EDGE('',*,*,#345,.F.);
#452=ORIENTED_EDGE('',*,*,#312,.T.);
#453=ORIENTED_EDGE('',*,*,#346,.F.);
#454=ORIENTED_EDGE('',*,*,#347,.T.);
#455=ORIENTED_EDGE('',*,*,#348,.T.);
#456=ORIENTED_EDGE('',*,*,#304,.T.);
#457=ORIENTED_EDGE('',*,*,#349,.F.);
#458=ORIENTED_EDGE('',*,*,#350,.T.);
#459=ORIENTED_EDGE('',*,*,#291,.F.);
#460=ORIENTED_EDGE('',*,*,#351,.T.);
#461=ORIENTED_EDGE('',*,*,#352,.T.);
#462=ORIENTED_EDGE('',*,*,#351,.F.);
#463=ORIENTED_EDGE('',*,*,#290,.F.);
#464=ORIENTED_EDGE('',*,*,#292,.T.);
#465=ORIENTED_EDGE('',*,*,#350,.F.);
#466=ORIENTED_EDGE('',*,*,#353,.F.);
#467=ORIENTED_EDGE('',*,*,#344,.F.);
#468=ORIENTED_EDGE('',*,*,#313,.T.);
#469=ORIENTED_EDGE('',*,*,#348,.F.);
#470=ORIENTED_EDGE('',*,*,#354,.T.);
#471=ORIENTED_EDGE('',*,*,#331,.T.);
#472=ORIENTED_EDGE('',*,*,#318,.T.);
#473=ORIENTED_EDGE('',*,*,#355,.F.);
#474=ORIENTED_EDGE('',*,*,#356,.T.);
#475=ORIENTED_EDGE('',*,*,#346,.T.);
#476=ORIENTED_EDGE('',*,*,#317,.T.);
#477=ORIENTED_EDGE('',*,*,#357,.F.);
#478=ORIENTED_EDGE('',*,*,#358,.T.);
#479=ORIENTED_EDGE('',*,*,#355,.T.);
#480=ORIENTED_EDGE('',*,*,#359,.T.);
#481=ORIENTED_EDGE('',*,*,#357,.T.);
#482=ORIENTED_EDGE('',*,*,#316,.T.);
#483=ORIENTED_EDGE('',*,*,#341,.F.);
#484=ORIENTED_EDGE('',*,*,#360,.F.);
#485=ORIENTED_EDGE('',*,*,#322,.F.);
#486=ORIENTED_EDGE('',*,*,#296,.T.);
#487=ORIENTED_EDGE('',*,*,#326,.F.);
#488=ORIENTED_EDGE('',*,*,#301,.T.);
#489=ORIENTED_EDGE('',*,*,#361,.F.);
#490=ORIENTED_EDGE('',*,*,#362,.T.);
#491=ORIENTED_EDGE('',*,*,#324,.T.);
#492=ORIENTED_EDGE('',*,*,#300,.T.);
#493=ORIENTED_EDGE('',*,*,#363,.F.);
#494=ORIENTED_EDGE('',*,*,#364,.T.);
#495=ORIENTED_EDGE('',*,*,#361,.T.);
#496=ORIENTED_EDGE('',*,*,#365,.T.);
#497=ORIENTED_EDGE('',*,*,#363,.T.);
#498=ORIENTED_EDGE('',*,*,#299,.T.);
#499=ORIENTED_EDGE('',*,*,#319,.F.);
#500=ORIENTED_EDGE('',*,*,#366,.F.);
#501=ORIENTED_EDGE('',*,*,#336,.F.);
#502=ORIENTED_EDGE('',*,*,#306,.T.);
#503=ORIENTED_EDGE('',*,*,#340,.F.);
#504=ORIENTED_EDGE('',*,*,#311,.T.);
#505=ORIENTED_EDGE('',*,*,#367,.F.);
#506=ORIENTED_EDGE('',*,*,#368,.T.);
#507=ORIENTED_EDGE('',*,*,#338,.T.);
#508=ORIENTED_EDGE('',*,*,#310,.T.);
#509=ORIENTED_EDGE('',*,*,#369,.F.);
#510=ORIENTED_EDGE('',*,*,#370,.T.);
#511=ORIENTED_EDGE('',*,*,#367,.T.);
#512=ORIENTED_EDGE('',*,*,#371,.T.);
#513=ORIENTED_EDGE('',*,*,#369,.T.);
#514=ORIENTED_EDGE('',*,*,#309,.T.);
#515=ORIENTED_EDGE('',*,*,#333,.F.);
#516=ORIENTED_EDGE('',*,*,#372,.F.);
#517=ORIENTED_EDGE('',*,*,#373,.F.);
#518=ORIENTED_EDGE('',*,*,#374,.T.);
#519=ORIENTED_EDGE('',*,*,#373,.T.);
#520=ORIENTED_EDGE('',*,*,#375,.F.);
#521=ORIENTED_EDGE('',*,*,#376,.F.);
#522=ORIENTED_EDGE('',*,*,#377,.T.);
#523=ORIENTED_EDGE('',*,*,#376,.T.);
#524=ORIENTED_EDGE('',*,*,#378,.F.);
#525=ORIENTED_EDGE('',*,*,#329,.F.);
#526=ORIENTED_EDGE('',*,*,#366,.T.);
#527=ORIENTED_EDGE('',*,*,#323,.T.);
#528=ORIENTED_EDGE('',*,*,#360,.T.);
#529=ORIENTED_EDGE('',*,*,#345,.T.);
#530=ORIENTED_EDGE('',*,*,#353,.T.);
#531=ORIENTED_EDGE('',*,*,#349,.T.);
#532=ORIENTED_EDGE('',*,*,#303,.T.);
#533=ORIENTED_EDGE('',*,*,#330,.T.);
#534=ORIENTED_EDGE('',*,*,#378,.T.);
#535=ORIENTED_EDGE('',*,*,#375,.T.);
#536=ORIENTED_EDGE('',*,*,#372,.T.);
#537=ORIENTED_EDGE('',*,*,#337,.T.);
#538=ORIENTED_EDGE('',*,*,#332,.F.);
#539=ORIENTED_EDGE('',*,*,#354,.F.);
#540=ORIENTED_EDGE('',*,*,#347,.F.);
#541=ORIENTED_EDGE('',*,*,#356,.F.);
#542=ORIENTED_EDGE('',*,*,#358,.F.);
#543=ORIENTED_EDGE('',*,*,#359,.F.);
#544=ORIENTED_EDGE('',*,*,#325,.F.);
#545=ORIENTED_EDGE('',*,*,#362,.F.);
#546=ORIENTED_EDGE('',*,*,#364,.F.);
#547=ORIENTED_EDGE('',*,*,#365,.F.);
#548=ORIENTED_EDGE('',*,*,#339,.F.);
#549=ORIENTED_EDGE('',*,*,#368,.F.);
#550=ORIENTED_EDGE('',*,*,#370,.F.);
#551=ORIENTED_EDGE('',*,*,#371,.F.);
#552=ORIENTED_EDGE('',*,*,#374,.F.);
#553=ORIENTED_EDGE('',*,*,#377,.F.);
#554=ORIENTED_EDGE('',*,*,#328,.F.);
#555=ORIENTED_EDGE('',*,*,#352,.F.);
#556=ORIENTED_EDGE('',*,*,#343,.F.);
#557=ORIENTED_EDGE('',*,*,#321,.F.);
#558=ORIENTED_EDGE('',*,*,#335,.F.);
#559=PLANE('',#624);
#560=PLANE('',#630);
#561=PLANE('',#638);
#562=PLANE('',#644);
#563=PLANE('',#653);
#564=PLANE('',#657);
#565=PLANE('',#661);
#566=PLANE('',#665);
#567=PLANE('',#674);
#568=PLANE('',#680);
#569=PLANE('',#686);
#570=PLANE('',#690);
#571=PLANE('',#694);
#572=PLANE('',#695);
#573=ADVANCED_FACE('',(#33),#559,.T.);
#574=ADVANCED_FACE('',(#34),#560,.T.);
#575=ADVANCED_FACE('',(#35),#19,.T.);
#576=ADVANCED_FACE('',(#36),#561,.T.);
#577=ADVANCED_FACE('',(#37),#562,.T.);
#578=ADVANCED_FACE('',(#38),#20,.F.);
#579=ADVANCED_FACE('',(#39),#563,.T.);
#580=ADVANCED_FACE('',(#40),#21,.T.);
#581=ADVANCED_FACE('',(#41),#564,.T.);
#582=ADVANCED_FACE('',(#42),#22,.F.);
#583=ADVANCED_FACE('',(#43),#565,.T.);
#584=ADVANCED_FACE('',(#44),#23,.F.);
#585=ADVANCED_FACE('',(#45),#566,.T.);
#586=ADVANCED_FACE('',(#46),#24,.F.);
#587=ADVANCED_FACE('',(#47),#25,.T.);
#588=ADVANCED_FACE('',(#48),#26,.T.);
#589=ADVANCED_FACE('',(#49),#567,.T.);
#590=ADVANCED_FACE('',(#50),#27,.T.);
#591=ADVANCED_FACE('',(#51),#28,.T.);
#592=ADVANCED_FACE('',(#52),#568,.T.);
#593=ADVANCED_FACE('',(#53),#29,.T.);
#594=ADVANCED_FACE('',(#54),#30,.T.);
#595=ADVANCED_FACE('',(#55),#569,.T.);
#596=ADVANCED_FACE('',(#56),#31,.T.);
#597=ADVANCED_FACE('',(#57),#570,.T.);
#598=ADVANCED_FACE('',(#58),#32,.F.);
#599=ADVANCED_FACE('',(#59),#571,.T.);
#600=ADVANCED_FACE('',(#60,#15,#16,#17,#18),#572,.F.);
#601=CLOSED_SHELL('',(#573,#574,#575,#576,#577,#578,#579,#580,#581,#582,
#583,#584,#585,#586,#587,#588,#589,#590,#591,#592,#593,#594,#595,#596,#597,
#598,#599,#600));
#602=DERIVED_UNIT_ELEMENT(#605,1.);
#603=DERIVED_UNIT_ELEMENT(#1072,-3.);
#604=DIMENSIONAL_EXPONENTS(0.,1.,0.,0.,0.,0.,0.);
#605=(
CONVERSION_BASED_UNIT('gram',#607)
MASS_UNIT()
NAMED_UNIT(#604)
);
#606=(
MASS_UNIT()
NAMED_UNIT(*)
SI_UNIT(.KILO.,.GRAM.)
);
#607=MASS_MEASURE_WITH_UNIT(MASS_MEASURE(0.001),#606);
#608=DERIVED_UNIT((#602,#603));
#609=MEASURE_REPRESENTATION_ITEM('density measure',
POSITIVE_RATIO_MEASURE(1.),#608);
#610=PROPERTY_DEFINITION_REPRESENTATION(#615,#612);
#611=PROPERTY_DEFINITION_REPRESENTATION(#616,#613);
#612=REPRESENTATION('material name',(#614),#1069);
#613=REPRESENTATION('density',(#609),#1069);
#614=DESCRIPTIVE_REPRESENTATION_ITEM('Generic','Generic');
#615=PROPERTY_DEFINITION('material property','material name',#1079);
#616=PROPERTY_DEFINITION('material property','density of part',#1079);
#617=DATE_TIME_ROLE('creation_date');
#618=APPLIED_DATE_AND_TIME_ASSIGNMENT(#619,#617,(#1079));
#619=DATE_AND_TIME(#620,#621);
#620=CALENDAR_DATE(2026,8,5);
#621=LOCAL_TIME(0,0,0.,#622);
#622=COORDINATED_UNIVERSAL_TIME_OFFSET(0,0,.BEHIND.);
#623=AXIS2_PLACEMENT_3D('',#888,#696,#697);
#624=AXIS2_PLACEMENT_3D('',#889,#698,#699);
#625=AXIS2_PLACEMENT_3D('',#892,#700,#701);
#626=AXIS2_PLACEMENT_3D('',#894,#702,#703);
#627=AXIS2_PLACEMENT_3D('',#896,#704,#705);
#628=AXIS2_PLACEMENT_3D('',#898,#706,#707);
#629=AXIS2_PLACEMENT_3D('',#901,#709,#710);
#630=AXIS2_PLACEMENT_3D('',#902,#711,#712);
#631=AXIS2_PLACEMENT_3D('',#907,#714,#715);
#632=AXIS2_PLACEMENT_3D('',#909,#716,#717);
#633=AXIS2_PLACEMENT_3D('',#911,#718,#719);
#634=AXIS2_PLACEMENT_3D('',#913,#720,#721);
#635=AXIS2_PLACEMENT_3D('',#916,#723,#724);
#636=AXIS2_PLACEMENT_3D('',#917,#725,#726);
#637=AXIS2_PLACEMENT_3D('',#921,#728,#729);
#638=AXIS2_PLACEMENT_3D('',#923,#731,#732);
#639=AXIS2_PLACEMENT_3D('',#928,#734,#735);
#640=AXIS2_PLACEMENT_3D('',#930,#736,#737);
#641=AXIS2_PLACEMENT_3D('',#932,#738,#739);
#642=AXIS2_PLACEMENT_3D('',#934,#740,#741);
#643=AXIS2_PLACEMENT_3D('',#937,#743,#744);
#644=AXIS2_PLACEMENT_3D('',#938,#745,#746);
#645=AXIS2_PLACEMENT_3D('',#943,#748,#749);
#646=AXIS2_PLACEMENT_3D('',#945,#750,#751);
#647=AXIS2_PLACEMENT_3D('',#947,#752,#753);
#648=AXIS2_PLACEMENT_3D('',#949,#754,#755);
#649=AXIS2_PLACEMENT_3D('',#952,#757,#758);
#650=AXIS2_PLACEMENT_3D('',#953,#759,#760);
#651=AXIS2_PLACEMENT_3D('',#958,#763,#764);
#652=AXIS2_PLACEMENT_3D('',#961,#766,#767);
#653=AXIS2_PLACEMENT_3D('',#962,#768,#769);
#654=AXIS2_PLACEMENT_3D('',#968,#773,#774);
#655=AXIS2_PLACEMENT_3D('',#972,#776,#777);
#656=AXIS2_PLACEMENT_3D('',#975,#779,#780);
#657=AXIS2_PLACEMENT_3D('',#976,#781,#782);
#658=AXIS2_PLACEMENT_3D('',#980,#785,#786);
#659=AXIS2_PLACEMENT_3D('',#985,#789,#790);
#660=AXIS2_PLACEMENT_3D('',#988,#792,#793);
#661=AXIS2_PLACEMENT_3D('',#989,#794,#795);
#662=AXIS2_PLACEMENT_3D('',#995,#799,#800);
#663=AXIS2_PLACEMENT_3D('',#1000,#803,#804);
#664=AXIS2_PLACEMENT_3D('',#1003,#806,#807);
#665=AXIS2_PLACEMENT_3D('',#1004,#808,#809);
#666=AXIS2_PLACEMENT_3D('',#1010,#813,#814);
#667=AXIS2_PLACEMENT_3D('',#1012,#815,#816);
#668=AXIS2_PLACEMENT_3D('',#1016,#819,#820);
#669=AXIS2_PLACEMENT_3D('',#1017,#821,#822);
#670=AXIS2_PLACEMENT_3D('',#1018,#823,#824);
#671=AXIS2_PLACEMENT_3D('',#1019,#825,#826);
#672=AXIS2_PLACEMENT_3D('',#1020,#827,#828);
#673=AXIS2_PLACEMENT_3D('',#1023,#830,#831);
#674=AXIS2_PLACEMENT_3D('',#1024,#832,#833);
#675=AXIS2_PLACEMENT_3D('',#1028,#836,#837);
#676=AXIS2_PLACEMENT_3D('',#1029,#838,#839);
#677=AXIS2_PLACEMENT_3D('',#1030,#840,#841);
#678=AXIS2_PLACEMENT_3D('',#1031,#842,#843);
#679=AXIS2_PLACEMENT_3D('',#1034,#845,#846);
#680=AXIS2_PLACEMENT_3D('',#1035,#847,#848);
#681=AXIS2_PLACEMENT_3D('',#1039,#851,#852);
#682=AXIS2_PLACEMENT_3D('',#1040,#853,#854);
#683=AXIS2_PLACEMENT_3D('',#1041,#855,#856);
#684=AXIS2_PLACEMENT_3D('',#1042,#857,#858);
#685=AXIS2_PLACEMENT_3D('',#1045,#860,#861);
#686=AXIS2_PLACEMENT_3D('',#1046,#862,#863);
#687=AXIS2_PLACEMENT_3D('',#1050,#866,#867);
#688=AXIS2_PLACEMENT_3D('',#1052,#868,#869);
#689=AXIS2_PLACEMENT_3D('',#1054,#870,#871);
#690=AXIS2_PLACEMENT_3D('',#1056,#873,#874);
#691=AXIS2_PLACEMENT_3D('',#1062,#878,#879);
#692=AXIS2_PLACEMENT_3D('',#1063,#880,#881);
#693=AXIS2_PLACEMENT_3D('',#1064,#882,#883);
#694=AXIS2_PLACEMENT_3D('',#1065,#884,#885);
#695=AXIS2_PLACEMENT_3D('',#1066,#886,#887);
#696=DIRECTION('axis',(0.,0.,1.));
#697=DIRECTION('refdir',(1.,0.,0.));
#698=DIRECTION('center_axis',(0.,0.,1.));
#699=DIRECTION('ref_axis',(1.,0.,0.));
#700=DIRECTION('center_axis',(0.,0.,1.));
#701=DIRECTION('ref_axis',(-1.,0.,0.));
#702=DIRECTION('center_axis',(0.,0.,-1.));
#703=DIRECTION('ref_axis',(-0.115389361915487,0.993320338640429,0.));
#704=DIRECTION('center_axis',(0.,0.,-1.));
#705=DIRECTION('ref_axis',(-0.115389361915487,0.993320338640429,0.));
#706=DIRECTION('center_axis',(0.,0.,1.));
#707=DIRECTION('ref_axis',(0.516565356561546,0.856247763442593,0.));
#708=DIRECTION('',(0.213380669552541,0.976969134548942,0.));
#709=DIRECTION('center_axis',(0.,0.,1.));
#710=DIRECTION('ref_axis',(0.976969134548951,-0.213380669552503,0.));
#711=DIRECTION('center_axis',(0.,0.,1.));
#712=DIRECTION('ref_axis',(1.,0.,0.));
#713=DIRECTION('',(0.811855519947796,0.583858385852506,0.));
#714=DIRECTION('center_axis',(0.,0.,1.));
#715=DIRECTION('ref_axis',(-1.,0.,0.));
#716=DIRECTION('center_axis',(0.,0.,1.));
#717=DIRECTION('ref_axis',(-1.,0.,0.));
#718=DIRECTION('center_axis',(0.,0.,1.));
#719=DIRECTION('ref_axis',(-1.,0.,0.));
#720=DIRECTION('center_axis',(0.,0.,1.));
#721=DIRECTION('ref_axis',(-1.,0.,0.));
#722=DIRECTION('',(-0.841704418464238,-0.539938581634781,0.));
#723=DIRECTION('center_axis',(0.,0.,-1.));
#724=DIRECTION('ref_axis',(0.539938581634777,-0.84170441846424,0.));
#725=DIRECTION('center_axis',(0.,0.,-1.));
#726=DIRECTION('ref_axis',(-1.,0.,0.));
#727=DIRECTION('',(0.,0.,-1.));
#728=DIRECTION('center_axis',(0.,0.,1.));
#729=DIRECTION('ref_axis',(-1.,0.,0.));
#730=DIRECTION('',(0.,0.,1.));
#731=DIRECTION('center_axis',(0.,0.,1.));
#732=DIRECTION('ref_axis',(1.,0.,0.));
#733=DIRECTION('',(0.976969134548942,0.213380669552543,0.));
#734=DIRECTION('center_axis',(0.,0.,1.));
#735=DIRECTION('ref_axis',(-1.,0.,0.));
#736=DIRECTION('center_axis',(0.,0.,1.));
#737=DIRECTION('ref_axis',(-1.,0.,0.));
#738=DIRECTION('center_axis',(0.,0.,1.));
#739=DIRECTION('ref_axis',(-1.,0.,0.));
#740=DIRECTION('center_axis',(0.,0.,1.));
#741=DIRECTION('ref_axis',(-1.,0.,0.));
#742=DIRECTION('',(-0.986918767387754,-0.161218319609887,0.));
#743=DIRECTION('center_axis',(0.,0.,-1.));
#744=DIRECTION('ref_axis',(0.161218319609926,-0.986918767387748,0.));
#745=DIRECTION('center_axis',(0.,0.,1.));
#746=DIRECTION('ref_axis',(1.,0.,0.));
#747=DIRECTION('',(0.53993858163478,0.841704418464239,0.));
#748=DIRECTION('center_axis',(0.,0.,1.));
#749=DIRECTION('ref_axis',(-1.,0.,0.));
#750=DIRECTION('center_axis',(0.,0.,1.));
#751=DIRECTION('ref_axis',(-1.,0.,0.));
#752=DIRECTION('center_axis',(0.,0.,1.));
#753=DIRECTION('ref_axis',(-1.,0.,0.));
#754=DIRECTION('center_axis',(0.,0.,1.));
#755=DIRECTION('ref_axis',(-1.,0.,0.));
#756=DIRECTION('',(-0.5838583858525,-0.811855519947801,0.));
#757=DIRECTION('center_axis',(0.,0.,-1.));
#758=DIRECTION('ref_axis',(0.811855519947797,-0.583858385852504,0.));
#759=DIRECTION('center_axis',(0.,0.,1.));
#760=DIRECTION('ref_axis',(-1.,0.,0.));
#761=DIRECTION('',(0.,0.,-1.));
#762=DIRECTION('',(0.,0.,-1.));
#763=DIRECTION('center_axis',(0.,0.,-1.));
#764=DIRECTION('ref_axis',(-1.,0.,0.));
#765=DIRECTION('',(0.,0.,1.));
#766=DIRECTION('center_axis',(0.,0.,-1.));
#767=DIRECTION('ref_axis',(-1.,0.,0.));
#768=DIRECTION('center_axis',(-0.583858385852506,0.811855519947796,0.));
#769=DIRECTION('ref_axis',(-0.811855519947796,-0.583858385852506,0.));
#770=DIRECTION('',(0.,0.,1.));
#771=DIRECTION('',(-0.811855519947796,-0.583858385852506,0.));
#772=DIRECTION('',(0.,0.,1.));
#773=DIRECTION('center_axis',(0.,0.,1.));
#774=DIRECTION('ref_axis',(-0.393893895302219,0.91915591672123,0.));
#775=DIRECTION('',(0.,0.,1.));
#776=DIRECTION('center_axis',(0.,0.,1.));
#777=DIRECTION('ref_axis',(0.976969134548951,-0.213380669552503,0.));
#778=DIRECTION('',(0.,0.,1.));
#779=DIRECTION('center_axis',(0.,0.,1.));
#780=DIRECTION('ref_axis',(0.976969134548951,-0.213380669552503,0.));
#781=DIRECTION('center_axis',(0.976969134548942,-0.213380669552541,0.));
#782=DIRECTION('ref_axis',(0.213380669552541,0.976969134548942,0.));
#783=DIRECTION('',(0.,0.,1.));
#784=DIRECTION('',(0.213380669552541,0.976969134548942,0.));
#785=DIRECTION('center_axis',(0.,0.,1.));
#786=DIRECTION('ref_axis',(-1.,0.,0.));
#787=DIRECTION('',(0.,0.,-1.));
#788=DIRECTION('',(0.,0.,-1.));
#789=DIRECTION('center_axis',(0.,0.,-1.));
#790=DIRECTION('ref_axis',(-1.,0.,0.));
#791=DIRECTION('',(0.,0.,1.));
#792=DIRECTION('center_axis',(0.,0.,-1.));
#793=DIRECTION('ref_axis',(-1.,0.,0.));
#794=DIRECTION('center_axis',(-0.213380669552543,0.976969134548942,0.));
#795=DIRECTION('ref_axis',(-0.976969134548942,-0.213380669552543,0.));
#796=DIRECTION('',(0.,0.,1.));
#797=DIRECTION('',(-0.976969134548942,-0.213380669552543,0.));
#798=DIRECTION('',(0.,0.,1.));
#799=DIRECTION('center_axis',(0.,0.,1.));
#800=DIRECTION('ref_axis',(-1.,0.,0.));
#801=DIRECTION('',(0.,0.,-1.));
#802=DIRECTION('',(0.,0.,-1.));
#803=DIRECTION('center_axis',(0.,0.,-1.));
#804=DIRECTION('ref_axis',(-1.,0.,0.));
#805=DIRECTION('',(0.,0.,1.));
#806=DIRECTION('center_axis',(0.,0.,-1.));
#807=DIRECTION('ref_axis',(-1.,0.,0.));
#808=DIRECTION('center_axis',(-0.841704418464239,0.53993858163478,0.));
#809=DIRECTION('ref_axis',(-0.53993858163478,-0.841704418464239,0.));
#810=DIRECTION('',(0.,0.,1.));
#811=DIRECTION('',(-0.53993858163478,-0.841704418464239,0.));
#812=DIRECTION('',(0.,0.,1.));
#813=DIRECTION('center_axis',(0.,0.,1.));
#814=DIRECTION('ref_axis',(-1.,0.,0.));
#815=DIRECTION('center_axis',(0.,0.,-1.));
#816=DIRECTION('ref_axis',(-1.,0.,0.));
#817=DIRECTION('',(0.,0.,-1.));
#818=DIRECTION('',(0.,0.,-1.));
#819=DIRECTION('center_axis',(0.,0.,-1.));
#820=DIRECTION('ref_axis',(-1.,0.,0.));
#821=DIRECTION('center_axis',(0.,0.,1.));
#822=DIRECTION('ref_axis',(0.516565356561546,0.856247763442593,0.));
#823=DIRECTION('center_axis',(0.,0.,1.));
#824=DIRECTION('ref_axis',(-1.,0.,0.));
#825=DIRECTION('center_axis',(0.,0.,1.));
#826=DIRECTION('ref_axis',(0.516565356561546,0.856247763442593,0.));
#827=DIRECTION('center_axis',(0.,0.,1.));
#828=DIRECTION('ref_axis',(0.562096651136675,0.827071553604001,0.));
#829=DIRECTION('',(0.,0.,1.));
#830=DIRECTION('center_axis',(0.,0.,1.));
#831=DIRECTION('ref_axis',(0.811855519947797,-0.583858385852504,0.));
#832=DIRECTION('center_axis',(0.811855519947801,-0.5838583858525,0.));
#833=DIRECTION('ref_axis',(0.5838583858525,0.811855519947801,0.));
#834=DIRECTION('',(0.,0.,1.));
#835=DIRECTION('',(0.5838583858525,0.811855519947801,0.));
#836=DIRECTION('center_axis',(0.,0.,1.));
#837=DIRECTION('ref_axis',(0.795476697062473,0.605984178366546,0.));
#838=DIRECTION('center_axis',(0.,0.,1.));
#839=DIRECTION('ref_axis',(0.795476697062473,0.605984178366546,0.));
#840=DIRECTION('center_axis',(0.,0.,1.));
#841=DIRECTION('ref_axis',(-1.,0.,0.));
#842=DIRECTION('center_axis',(0.,0.,1.));
#843=DIRECTION('ref_axis',(0.827071553604001,0.562096651136674,0.));
#844=DIRECTION('',(0.,0.,1.));
#845=DIRECTION('center_axis',(0.,0.,1.));
#846=DIRECTION('ref_axis',(0.539938581634777,-0.84170441846424,0.));
#847=DIRECTION('center_axis',(0.539938581634781,-0.841704418464238,0.));
#848=DIRECTION('ref_axis',(0.841704418464238,0.539938581634781,0.));
#849=DIRECTION('',(0.,0.,1.));
#850=DIRECTION('',(0.841704418464238,0.539938581634781,0.));
#851=DIRECTION('center_axis',(0.,0.,1.));
#852=DIRECTION('ref_axis',(0.970725466456789,0.240191733355355,0.));
#853=DIRECTION('center_axis',(0.,0.,1.));
#854=DIRECTION('ref_axis',(0.970725466456789,0.240191733355355,0.));
#855=DIRECTION('center_axis',(0.,0.,1.));
#856=DIRECTION('ref_axis',(-1.,0.,0.));
#857=DIRECTION('center_axis',(0.,0.,1.));
#858=DIRECTION('ref_axis',(0.982290257780874,0.187365550378892,0.));
#859=DIRECTION('',(0.,0.,1.));
#860=DIRECTION('center_axis',(0.,0.,1.));
#861=DIRECTION('ref_axis',(0.161218319609926,-0.986918767387748,0.));
#862=DIRECTION('center_axis',(0.161218319609887,-0.986918767387754,0.));
#863=DIRECTION('ref_axis',(0.986918767387754,0.161218319609887,0.));
#864=DIRECTION('',(0.,0.,1.));
#865=DIRECTION('',(0.986918767387754,0.161218319609887,0.));
#866=DIRECTION('center_axis',(0.,0.,1.));
#867=DIRECTION('ref_axis',(1.,-1.30388665211169E-16,0.));
#868=DIRECTION('center_axis',(0.,0.,1.));
#869=DIRECTION('ref_axis',(1.,-1.30388665211169E-16,0.));
#870=DIRECTION('center_axis',(0.,0.,1.));
#871=DIRECTION('ref_axis',(1.,-1.30388665211169E-16,0.));
#872=DIRECTION('',(0.,0.,1.));
#873=DIRECTION('center_axis',(0.,-1.,0.));
#874=DIRECTION('ref_axis',(1.,0.,0.));
#875=DIRECTION('',(1.,0.,0.));
#876=DIRECTION('',(1.,0.,0.));
#877=DIRECTION('',(0.,0.,1.));
#878=DIRECTION('center_axis',(0.,0.,1.));
#879=DIRECTION('ref_axis',(-1.,1.32331350118255E-16,0.));
#880=DIRECTION('center_axis',(0.,0.,-1.));
#881=DIRECTION('ref_axis',(-1.,1.32331350118255E-16,0.));
#882=DIRECTION('center_axis',(0.,0.,-1.));
#883=DIRECTION('ref_axis',(-1.,1.32331350118255E-16,0.));
#884=DIRECTION('center_axis',(0.,0.,1.));
#885=DIRECTION('ref_axis',(1.,0.,0.));
#886=DIRECTION('center_axis',(0.,0.,1.));
#887=DIRECTION('ref_axis',(1.,0.,0.));
#888=CARTESIAN_POINT('',(0.,0.,0.));
#889=CARTESIAN_POINT('Origin',(26.4626720685386,3.00526188253166,18.));
#890=CARTESIAN_POINT('',(23.9798229568072,-2.12703769443331,18.));
#891=CARTESIAN_POINT('',(20.113116051637,-1.49287830709782,18.));
#892=CARTESIAN_POINT('Origin',(0.,-136.235526034673,18.));
#893=CARTESIAN_POINT('',(31.7126720685385,2.49875524174254,18.));
#894=CARTESIAN_POINT('Origin',(26.4626720685386,2.49875524174254,18.));
#895=CARTESIAN_POINT('',(27.0684662185949,-2.71617653611968,18.));
#896=CARTESIAN_POINT('Origin',(26.4626720685386,2.49875524174254,18.));
#897=CARTESIAN_POINT('',(32.7226471428467,-3.98823147667909,18.));
#898=CARTESIAN_POINT('Origin',(0.,-136.235526034673,18.));
#899=CARTESIAN_POINT('',(33.7899405776557,0.89840022009877,18.));
#900=CARTESIAN_POINT('',(32.7226471428467,-3.98823147667909,18.));
#901=CARTESIAN_POINT('Origin',(26.4626720685386,2.49875524174254,18.));
#902=CARTESIAN_POINT('Origin',(116.342036107103,-57.6042413906397,10.));
#903=CARTESIAN_POINT('',(108.37218627263,-53.6789527262178,10.));
#904=CARTESIAN_POINT('',(112.432948047681,-50.7585934294488,10.));
#905=CARTESIAN_POINT('',(112.098758175643,-50.9989312167301,10.));
#906=CARTESIAN_POINT('',(111.785316944472,-58.3627999390238,10.));
#907=CARTESIAN_POINT('Origin',(0.,-136.235526034673,10.));
#908=CARTESIAN_POINT('',(122.061885941575,-56.8475098290572,10.));
#909=CARTESIAN_POINT('Origin',(116.811885941575,-56.8475098290572,10.));
#910=CARTESIAN_POINT('',(113.552733469531,-60.9633846041166,10.));
#911=CARTESIAN_POINT('Origin',(116.811885941575,-56.8475098290572,10.));
#912=CARTESIAN_POINT('',(116.651364468614,-65.8609729522222,10.));
#913=CARTESIAN_POINT('Origin',(0.,-136.235526034673,10.));
#914=CARTESIAN_POINT('',(120.861425303836,-63.160292967539,10.));
#915=CARTESIAN_POINT('',(118.418003092056,-64.7277053446425,10.));
#916=CARTESIAN_POINT('Origin',(116.811885941575,-56.8475098290572,10.));
#917=CARTESIAN_POINT('Origin',(0.,-136.235526034673,30.));
#918=CARTESIAN_POINT('',(20.113116051637,-1.49287830709782,30.));
#919=CARTESIAN_POINT('',(20.1131160516369,-1.49287830709784,30.));
#920=CARTESIAN_POINT('',(23.9798229568072,-2.12703769443331,30.));
#921=CARTESIAN_POINT('Origin',(0.,-136.235526034673,30.));
#922=CARTESIAN_POINT('',(23.9798229568079,-2.12703769443342,30.));
#923=CARTESIAN_POINT('Origin',(139.240787917205,-110.126992506676,10.));
#924=CARTESIAN_POINT('',(132.247294557994,-103.512878891827,10.));
#925=CARTESIAN_POINT('',(137.133926254772,-102.445585457018,10.));
#926=CARTESIAN_POINT('',(137.338735639106,-102.400852863106,10.));
#927=CARTESIAN_POINT('',(133.519349498553,-109.167059816077,10.));
#928=CARTESIAN_POINT('Origin',(0.,-136.235526034673,10.));
#929=CARTESIAN_POINT('',(143.984281276415,-109.772853966135,10.));
#930=CARTESIAN_POINT('Origin',(138.734281276415,-109.772853966135,10.));
#931=CARTESIAN_POINT('',(134.10848834024,-112.255703077867,10.));
#932=CARTESIAN_POINT('Origin',(138.734281276415,-109.772853966135,10.));
#933=CARTESIAN_POINT('',(135.007020623322,-117.981131047218,10.));
#934=CARTESIAN_POINT('Origin',(0.,-136.235526034673,10.));
#935=CARTESIAN_POINT('',(139.94341867349,-117.174744721543,10.));
#936=CARTESIAN_POINT('',(137.693717191235,-117.542245173027,10.));
#937=CARTESIAN_POINT('Origin',(138.734281276415,-109.772853966135,10.));
#938=CARTESIAN_POINT('Origin',(78.6312846440333,-19.8934899275704,10.));
#939=CARTESIAN_POINT('',(70.3745530824508,-19.5841615660593,10.));
#940=CARTESIAN_POINT('',(73.0752330671342,-15.3741007308372,10.));
#941=CARTESIAN_POINT('',(72.8581606823724,-15.7124925250064,10.));
#942=CARTESIAN_POINT('',(75.2721414305569,-22.6827925651423,10.));
#943=CARTESIAN_POINT('Origin',(0.,-136.235526034673,10.));
#944=CARTESIAN_POINT('',(84.6380162056159,-19.423640093098,10.));
#945=CARTESIAN_POINT('Origin',(79.3880162056159,-19.423640093098,10.));
#946=CARTESIAN_POINT('',(77.8727260956488,-24.4502090902009,10.));
#947=CARTESIAN_POINT('Origin',(79.3880162056159,-19.423640093098,10.));
#948=CARTESIAN_POINT('',(82.5565733084555,-27.8633397620426,10.));
#949=CARTESIAN_POINT('Origin',(0.,-136.235526034673,10.));
#950=CARTESIAN_POINT('',(85.4769326052244,-23.8025779869918,10.));
#951=CARTESIAN_POINT('',(83.7764151695586,-26.1671487465552,10.));
#952=CARTESIAN_POINT('Origin',(79.3880162056159,-19.423640093098,10.));
#953=CARTESIAN_POINT('Origin',(116.811885941575,-56.8475098290572,0.));
#954=CARTESIAN_POINT('',(113.552733469531,-60.9633846041166,30.));
#955=CARTESIAN_POINT('',(113.552733469531,-60.963384604116,30.));
#956=CARTESIAN_POINT('',(122.061885941575,-56.8475098290572,0.));
#957=CARTESIAN_POINT('',(122.061885941575,-56.8475098290572,0.));
#958=CARTESIAN_POINT('Origin',(116.811885941575,-56.8475098290572,0.));
#959=CARTESIAN_POINT('',(111.785316944472,-58.3627999390238,30.));
#960=CARTESIAN_POINT('',(111.785316944472,-58.3627999390244,30.));
#961=CARTESIAN_POINT('Origin',(116.811885941575,-56.8475098290572,30.));
#962=CARTESIAN_POINT('Origin',(112.432948047681,-50.7585934294488,0.));
#963=CARTESIAN_POINT('',(112.432948047681,-50.7585934294488,0.));
#964=CARTESIAN_POINT('',(112.432948047681,-50.7585934294488,0.));
#965=CARTESIAN_POINT('',(108.37218627263,-53.6789527262178,0.));
#966=CARTESIAN_POINT('',(112.432948047681,-50.7585934294488,0.));
#967=CARTESIAN_POINT('',(108.37218627263,-53.6789527262178,0.));
#968=CARTESIAN_POINT('Origin',(26.4626720685386,2.49875524174254,0.));
#969=CARTESIAN_POINT('',(33.7899405776557,0.89840022009877,0.));
#970=CARTESIAN_POINT('',(33.7899405776557,0.89840022009877,10.));
#971=CARTESIAN_POINT('',(22.5679069250455,-3.91067565943978,0.));
#972=CARTESIAN_POINT('Origin',(26.4626720685386,2.49875524174254,0.));
#973=CARTESIAN_POINT('',(22.5679069250455,-3.91067565943978,30.));
#974=CARTESIAN_POINT('',(22.5679069250455,-3.91067565943978,0.));
#975=CARTESIAN_POINT('Origin',(26.4626720685386,2.49875524174254,30.));
#976=CARTESIAN_POINT('Origin',(32.7226471428467,-3.98823147667909,0.));
#977=CARTESIAN_POINT('',(32.7226471428467,-3.98823147667909,0.));
#978=CARTESIAN_POINT('',(32.7226471428467,-3.98823147667906,0.));
#979=CARTESIAN_POINT('',(32.7226471428467,-3.98823147667909,0.));
#980=CARTESIAN_POINT('Origin',(138.734281276415,-109.772853966135,0.));
#981=CARTESIAN_POINT('',(134.10848834024,-112.255703077867,30.));
#982=CARTESIAN_POINT('',(134.10848834024,-112.255703077867,30.));
#983=CARTESIAN_POINT('',(143.984281276415,-109.772853966135,0.));
#984=CARTESIAN_POINT('',(143.984281276415,-109.772853966135,0.));
#985=CARTESIAN_POINT('Origin',(138.734281276415,-109.772853966135,0.));
#986=CARTESIAN_POINT('',(133.519349498553,-109.167059816077,30.));
#987=CARTESIAN_POINT('',(133.519349498553,-109.167059816078,30.));
#988=CARTESIAN_POINT('Origin',(138.734281276415,-109.772853966135,30.));
#989=CARTESIAN_POINT('Origin',(137.133926254772,-102.445585457018,0.));
#990=CARTESIAN_POINT('',(137.133926254772,-102.445585457018,0.));
#991=CARTESIAN_POINT('',(137.133926254772,-102.445585457018,0.));
#992=CARTESIAN_POINT('',(132.247294557994,-103.512878891827,0.));
#993=CARTESIAN_POINT('',(137.133926254772,-102.445585457018,0.));
#994=CARTESIAN_POINT('',(132.247294557994,-103.512878891827,0.));
#995=CARTESIAN_POINT('Origin',(79.3880162056159,-19.423640093098,0.));
#996=CARTESIAN_POINT('',(77.8727260956488,-24.4502090902009,30.));
#997=CARTESIAN_POINT('',(77.8727260956487,-24.4502090902008,30.));
#998=CARTESIAN_POINT('',(84.6380162056159,-19.423640093098,0.));
#999=CARTESIAN_POINT('',(84.6380162056159,-19.423640093098,0.));
#1000=CARTESIAN_POINT('Origin',(79.3880162056159,-19.423640093098,0.));
#1001=CARTESIAN_POINT('',(75.2721414305569,-22.6827925651423,30.));
#1002=CARTESIAN_POINT('',(75.2721414305571,-22.6827925651424,30.));
#1003=CARTESIAN_POINT('Origin',(79.3880162056159,-19.423640093098,30.));
#1004=CARTESIAN_POINT('Origin',(73.0752330671342,-15.3741007308372,0.));
#1005=CARTESIAN_POINT('',(73.0752330671342,-15.3741007308372,0.));
#1006=CARTESIAN_POINT('',(73.0752330671342,-15.3741007308372,0.));
#1007=CARTESIAN_POINT('',(70.3745530824508,-19.5841615660593,0.));
#1008=CARTESIAN_POINT('',(73.0752330671342,-15.3741007308372,0.));
#1009=CARTESIAN_POINT('',(70.3745530824508,-19.5841615660593,0.));
#1010=CARTESIAN_POINT('Origin',(26.4626720685386,2.49875524174254,0.));
#1011=CARTESIAN_POINT('',(27.0684662185949,-2.71617653611968,30.));
#1012=CARTESIAN_POINT('Origin',(26.4626720685386,2.49875524174254,30.));
#1013=CARTESIAN_POINT('',(27.0684662185939,-2.71617653611954,30.));
#1014=CARTESIAN_POINT('',(31.7126720685385,2.49875524174254,0.));
#1015=CARTESIAN_POINT('',(31.7126720685385,2.49875524174254,0.));
#1016=CARTESIAN_POINT('Origin',(26.4626720685386,2.49875524174254,0.));
#1017=CARTESIAN_POINT('Origin',(0.,-136.235526034673,0.));
#1018=CARTESIAN_POINT('Origin',(0.,-136.235526034673,30.));
#1019=CARTESIAN_POINT('Origin',(0.,-136.235526034673,0.));
#1020=CARTESIAN_POINT('Origin',(79.3880162056159,-19.423640093098,0.));
#1021=CARTESIAN_POINT('',(85.4769326052244,-23.8025779869918,0.));
#1022=CARTESIAN_POINT('',(85.4769326052244,-23.8025779869918,0.));
#1023=CARTESIAN_POINT('Origin',(79.3880162056159,-19.423640093098,0.));
#1024=CARTESIAN_POINT('Origin',(82.5565733084554,-27.8633397620427,0.));
#1025=CARTESIAN_POINT('',(82.5565733084554,-27.8633397620427,0.));
#1026=CARTESIAN_POINT('',(82.5565733084554,-27.8633397620427,0.));
#1027=CARTESIAN_POINT('',(82.5565733084554,-27.8633397620427,0.));
#1028=CARTESIAN_POINT('Origin',(0.,-136.235526034673,0.));
#1029=CARTESIAN_POINT('Origin',(0.,-136.235526034673,0.));
#1030=CARTESIAN_POINT('Origin',(0.,-136.235526034673,30.));
#1031=CARTESIAN_POINT('Origin',(116.811885941575,-56.8475098290572,0.));
#1032=CARTESIAN_POINT('',(120.861425303836,-63.160292967539,0.));
#1033=CARTESIAN_POINT('',(120.861425303836,-63.160292967539,0.));
#1034=CARTESIAN_POINT('Origin',(116.811885941575,-56.8475098290572,0.));
#1035=CARTESIAN_POINT('Origin',(116.651364468614,-65.8609729522224,0.));
#1036=CARTESIAN_POINT('',(116.651364468614,-65.8609729522224,0.));
#1037=CARTESIAN_POINT('',(116.651364468614,-65.8609729522224,0.));
#1038=CARTESIAN_POINT('',(116.651364468614,-65.8609729522224,0.));
#1039=CARTESIAN_POINT('Origin',(0.,-136.235526034673,0.));
#1040=CARTESIAN_POINT('Origin',(0.,-136.235526034673,0.));
#1041=CARTESIAN_POINT('Origin',(0.,-136.235526034673,30.));
#1042=CARTESIAN_POINT('Origin',(138.734281276415,-109.772853966135,0.));
#1043=CARTESIAN_POINT('',(139.94341867349,-117.174744721543,0.));
#1044=CARTESIAN_POINT('',(139.94341867349,-117.174744721543,0.));
#1045=CARTESIAN_POINT('Origin',(138.734281276415,-109.772853966135,0.));
#1046=CARTESIAN_POINT('Origin',(135.007020623322,-117.981131047218,0.));
#1047=CARTESIAN_POINT('',(135.007020623322,-117.981131047218,0.));
#1048=CARTESIAN_POINT('',(135.007020623322,-117.981131047218,0.));
#1049=CARTESIAN_POINT('',(135.007020623322,-117.981131047218,0.));
#1050=CARTESIAN_POINT('Origin',(0.,-136.235526034673,0.));
#1051=CARTESIAN_POINT('',(136.235526034673,-136.235526034673,0.));
#1052=CARTESIAN_POINT('Origin',(0.,-136.235526034673,0.));
#1053=CARTESIAN_POINT('',(136.235526034673,-136.235526034673,30.));
#1054=CARTESIAN_POINT('Origin',(0.,-136.235526034673,30.));
#1055=CARTESIAN_POINT('',(136.235526034673,-136.235526034673,0.));
#1056=CARTESIAN_POINT('Origin',(134.235526034673,-136.235526034673,0.));
#1057=CARTESIAN_POINT('',(134.235526034673,-136.235526034673,0.));
#1058=CARTESIAN_POINT('',(134.235526034673,-136.235526034673,0.));
#1059=CARTESIAN_POINT('',(134.235526034673,-136.235526034673,30.));
#1060=CARTESIAN_POINT('',(134.235526034673,-136.235526034673,30.));
#1061=CARTESIAN_POINT('',(134.235526034673,-136.235526034673,0.));
#1062=CARTESIAN_POINT('Origin',(0.,-136.235526034673,0.));
#1063=CARTESIAN_POINT('Origin',(0.,-136.235526034673,0.));
#1064=CARTESIAN_POINT('Origin',(0.,-136.235526034673,30.));
#1065=CARTESIAN_POINT('Origin',(82.598476672477,-63.1183853964654,30.));
#1066=CARTESIAN_POINT('Origin',(82.598476672477,-63.1183853964654,0.));
#1067=UNCERTAINTY_MEASURE_WITH_UNIT(LENGTH_MEASURE(0.01),#1071,
'DISTANCE_ACCURACY_VALUE',
'Maximum model space distance between geometric entities at asserted c
onnectivities');
#1068=UNCERTAINTY_MEASURE_WITH_UNIT(LENGTH_MEASURE(0.01),#1071,
'DISTANCE_ACCURACY_VALUE',
'Maximum model space distance between geometric entities at asserted c
onnectivities');
#1069=(
GEOMETRIC_REPRESENTATION_CONTEXT(3)
GLOBAL_UNCERTAINTY_ASSIGNED_CONTEXT((#1067))
GLOBAL_UNIT_ASSIGNED_CONTEXT((#1071,#1073,#1074))
REPRESENTATION_CONTEXT('','3D')
);
#1070=(
GEOMETRIC_REPRESENTATION_CONTEXT(3)
GLOBAL_UNCERTAINTY_ASSIGNED_CONTEXT((#1068))
GLOBAL_UNIT_ASSIGNED_CONTEXT((#1071,#1073,#1074))
REPRESENTATION_CONTEXT('','3D')
);
#1071=(
LENGTH_UNIT()
NAMED_UNIT(*)
SI_UNIT(.MILLI.,.METRE.)
);
#1072=(
LENGTH_UNIT()
NAMED_UNIT(*)
SI_UNIT(.CENTI.,.METRE.)
);
#1073=(
NAMED_UNIT(*)
PLANE_ANGLE_UNIT()
SI_UNIT($,.RADIAN.)
);
#1074=(
NAMED_UNIT(*)
SI_UNIT($,.STERADIAN.)
SOLID_ANGLE_UNIT()
);
#1075=SHAPE_DEFINITION_REPRESENTATION(#1076,#1077);
#1076=PRODUCT_DEFINITION_SHAPE('',$,#1079);
#1077=SHAPE_REPRESENTATION('',(#623),#1069);
#1078=PRODUCT_DEFINITION_CONTEXT('part definition',#1083,'design');
#1079=PRODUCT_DEFINITION('HalfFilterwall3','HalfFilterwall3',#1080,#1078);
#1080=PRODUCT_DEFINITION_FORMATION('',$,#1085);
#1081=PRODUCT_RELATED_PRODUCT_CATEGORY('HalfFilterwall3',
'HalfFilterwall3',(#1085));
#1082=APPLICATION_PROTOCOL_DEFINITION('international standard',
'automotive_design',2009,#1083);
#1083=APPLICATION_CONTEXT(
'Core Data for Automotive Mechanical Design Process');
#1084=PRODUCT_CONTEXT('part definition',#1083,'mechanical');
#1085=PRODUCT('HalfFilterwall3','HalfFilterwall3',$,(#1084));
#1086=PRESENTATION_STYLE_ASSIGNMENT((#1087));
#1087=SURFACE_STYLE_USAGE(.BOTH.,#1090);
#1088=SURFACE_STYLE_RENDERING_WITH_PROPERTIES($,#1094,(#1089));
#1089=SURFACE_STYLE_TRANSPARENT(0.);
#1090=SURFACE_SIDE_STYLE('',(#1091,#1088));
#1091=SURFACE_STYLE_FILL_AREA(#1092);
#1092=FILL_AREA_STYLE('',(#1093));
#1093=FILL_AREA_STYLE_COLOUR('',#1094);
#1094=COLOUR_RGB('',0.749019607843137,0.749019607843137,0.749019607843137);
ENDSEC;
END-ISO-10303-21;
