ISO-10303-21;
HEADER;
/* Generated by software containing ST-Developer
 * from STEP Tools, Inc. (www.steptools.com) 
 */

FILE_DESCRIPTION(
/* description */ (''),
/* implementation_level */ '2;1');

FILE_NAME(
/* name */ 'HalfFilterwall.stp',
/* time_stamp */ '2026-05-09T15:38:50+02:00',
/* author */ ('sniel'),
/* organization */ (''),
/* preprocessor_version */ 'ST-DEVELOPER v20.1',
/* originating_system */ 'Autodesk Inventor 2026',
/* authorisation */ '');

FILE_SCHEMA (('AUTOMOTIVE_DESIGN { 1 0 10303 214 3 1 1 }'));
ENDSEC;

DATA;
#10=MECHANICAL_DESIGN_GEOMETRIC_PRESENTATION_REPRESENTATION('',(#13),#1938);
#11=SHAPE_REPRESENTATION_RELATIONSHIP('SRR','None',#1945,#12);
#12=ADVANCED_BREP_SHAPE_REPRESENTATION('',(#14),#1937);
#13=STYLED_ITEM('',(#1954),#14);
#14=MANIFOLD_SOLID_BREP('Solid1',#1117);
#15=FACE_BOUND('',#108,.T.);
#16=FACE_BOUND('',#109,.T.);
#17=FACE_BOUND('',#110,.T.);
#18=FACE_BOUND('',#111,.T.);
#19=FACE_BOUND('',#131,.T.);
#20=CYLINDRICAL_SURFACE('',#1153,127.235572027802);
#21=CYLINDRICAL_SURFACE('',#1155,1.);
#22=CYLINDRICAL_SURFACE('',#1158,1.);
#23=CYLINDRICAL_SURFACE('',#1179,1.);
#24=CYLINDRICAL_SURFACE('',#1206,5.25);
#25=CYLINDRICAL_SURFACE('',#1208,5.25);
#26=CYLINDRICAL_SURFACE('',#1210,5.25);
#27=CYLINDRICAL_SURFACE('',#1212,5.24999999999999);
#28=CYLINDRICAL_SURFACE('',#1231,1.);
#29=CYLINDRICAL_SURFACE('',#1232,127.235572027802);
#30=CYLINDRICAL_SURFACE('',#1233,134.235526034674);
#31=CYLINDRICAL_SURFACE('',#1234,1.);
#32=CYLINDRICAL_SURFACE('',#1236,1.);
#33=CYLINDRICAL_SURFACE('',#1237,1.);
#34=CYLINDRICAL_SURFACE('',#1239,1.);
#35=CYLINDRICAL_SURFACE('',#1240,1.);
#36=CYLINDRICAL_SURFACE('',#1241,124.735526034674);
#37=CYLINDRICAL_SURFACE('',#1242,1.);
#38=CYLINDRICAL_SURFACE('',#1243,136.235526034674);
#39=CYLINDRICAL_SURFACE('',#1246,7.5);
#40=CYLINDRICAL_SURFACE('',#1248,136.235526034674);
#41=CYLINDRICAL_SURFACE('',#1250,7.49999999999999);
#42=CYLINDRICAL_SURFACE('',#1252,136.235526034674);
#43=CYLINDRICAL_SURFACE('',#1254,7.49999999999999);
#44=CYLINDRICAL_SURFACE('',#1256,136.235526034674);
#45=CYLINDRICAL_SURFACE('',#1258,7.5);
#46=CYLINDRICAL_SURFACE('',#1260,136.235891911711);
#47=FACE_OUTER_BOUND('',#102,.T.);
#48=FACE_OUTER_BOUND('',#103,.T.);
#49=FACE_OUTER_BOUND('',#104,.T.);
#50=FACE_OUTER_BOUND('',#105,.T.);
#51=FACE_OUTER_BOUND('',#106,.T.);
#52=FACE_OUTER_BOUND('',#107,.T.);
#53=FACE_OUTER_BOUND('',#112,.T.);
#54=FACE_OUTER_BOUND('',#113,.T.);
#55=FACE_OUTER_BOUND('',#114,.T.);
#56=FACE_OUTER_BOUND('',#115,.T.);
#57=FACE_OUTER_BOUND('',#116,.T.);
#58=FACE_OUTER_BOUND('',#117,.T.);
#59=FACE_OUTER_BOUND('',#118,.T.);
#60=FACE_OUTER_BOUND('',#119,.T.);
#61=FACE_OUTER_BOUND('',#120,.T.);
#62=FACE_OUTER_BOUND('',#121,.T.);
#63=FACE_OUTER_BOUND('',#122,.T.);
#64=FACE_OUTER_BOUND('',#123,.T.);
#65=FACE_OUTER_BOUND('',#124,.T.);
#66=FACE_OUTER_BOUND('',#125,.T.);
#67=FACE_OUTER_BOUND('',#126,.T.);
#68=FACE_OUTER_BOUND('',#127,.T.);
#69=FACE_OUTER_BOUND('',#128,.T.);
#70=FACE_OUTER_BOUND('',#129,.T.);
#71=FACE_OUTER_BOUND('',#130,.T.);
#72=FACE_OUTER_BOUND('',#132,.T.);
#73=FACE_OUTER_BOUND('',#133,.T.);
#74=FACE_OUTER_BOUND('',#134,.T.);
#75=FACE_OUTER_BOUND('',#135,.T.);
#76=FACE_OUTER_BOUND('',#136,.T.);
#77=FACE_OUTER_BOUND('',#137,.T.);
#78=FACE_OUTER_BOUND('',#138,.T.);
#79=FACE_OUTER_BOUND('',#139,.T.);
#80=FACE_OUTER_BOUND('',#140,.T.);
#81=FACE_OUTER_BOUND('',#141,.T.);
#82=FACE_OUTER_BOUND('',#142,.T.);
#83=FACE_OUTER_BOUND('',#143,.T.);
#84=FACE_OUTER_BOUND('',#144,.T.);
#85=FACE_OUTER_BOUND('',#145,.T.);
#86=FACE_OUTER_BOUND('',#146,.T.);
#87=FACE_OUTER_BOUND('',#147,.T.);
#88=FACE_OUTER_BOUND('',#148,.T.);
#89=FACE_OUTER_BOUND('',#149,.T.);
#90=FACE_OUTER_BOUND('',#150,.T.);
#91=FACE_OUTER_BOUND('',#151,.T.);
#92=FACE_OUTER_BOUND('',#152,.T.);
#93=FACE_OUTER_BOUND('',#153,.T.);
#94=FACE_OUTER_BOUND('',#154,.T.);
#95=FACE_OUTER_BOUND('',#155,.T.);
#96=FACE_OUTER_BOUND('',#156,.T.);
#97=FACE_OUTER_BOUND('',#157,.T.);
#98=FACE_OUTER_BOUND('',#158,.T.);
#99=FACE_OUTER_BOUND('',#159,.T.);
#100=FACE_OUTER_BOUND('',#160,.T.);
#101=FACE_OUTER_BOUND('',#161,.T.);
#102=EDGE_LOOP('',(#702,#703,#704,#705,#706,#707,#708,#709,#710,#711,#712,
#713,#714,#715,#716));
#103=EDGE_LOOP('',(#717,#718,#719,#720));
#104=EDGE_LOOP('',(#721,#722,#723,#724));
#105=EDGE_LOOP('',(#725,#726,#727,#728));
#106=EDGE_LOOP('',(#729,#730,#731,#732));
#107=EDGE_LOOP('',(#733,#734,#735,#736,#737,#738,#739,#740,#741,#742,#743,
#744,#745,#746,#747,#748,#749,#750,#751,#752,#753,#754,#755,#756));
#108=EDGE_LOOP('',(#757));
#109=EDGE_LOOP('',(#758));
#110=EDGE_LOOP('',(#759));
#111=EDGE_LOOP('',(#760));
#112=EDGE_LOOP('',(#761,#762,#763,#764));
#113=EDGE_LOOP('',(#765,#766,#767,#768));
#114=EDGE_LOOP('',(#769,#770,#771,#772));
#115=EDGE_LOOP('',(#773,#774,#775,#776));
#116=EDGE_LOOP('',(#777,#778,#779,#780,#781,#782,#783));
#117=EDGE_LOOP('',(#784,#785,#786,#787));
#118=EDGE_LOOP('',(#788,#789,#790,#791));
#119=EDGE_LOOP('',(#792,#793,#794,#795,#796,#797,#798));
#120=EDGE_LOOP('',(#799,#800,#801,#802));
#121=EDGE_LOOP('',(#803,#804,#805,#806));
#122=EDGE_LOOP('',(#807,#808,#809,#810,#811,#812,#813));
#123=EDGE_LOOP('',(#814,#815,#816,#817));
#124=EDGE_LOOP('',(#818,#819,#820,#821));
#125=EDGE_LOOP('',(#822,#823,#824,#825,#826,#827,#828));
#126=EDGE_LOOP('',(#829,#830,#831,#832,#833,#834,#835,#836));
#127=EDGE_LOOP('',(#837,#838,#839,#840,#841,#842,#843,#844));
#128=EDGE_LOOP('',(#845,#846,#847,#848,#849,#850,#851,#852));
#129=EDGE_LOOP('',(#853,#854,#855,#856,#857,#858,#859,#860));
#130=EDGE_LOOP('',(#861,#862,#863,#864,#865,#866,#867,#868,#869,#870,#871,
#872,#873,#874,#875,#876,#877,#878,#879,#880,#881,#882,#883,#884,#885,#886,
#887,#888,#889,#890,#891,#892));
#131=EDGE_LOOP('',(#893,#894,#895,#896,#897));
#132=EDGE_LOOP('',(#898,#899,#900,#901));
#133=EDGE_LOOP('',(#902,#903,#904,#905));
#134=EDGE_LOOP('',(#906,#907,#908,#909,#910,#911,#912,#913,#914,#915));
#135=EDGE_LOOP('',(#916,#917,#918,#919));
#136=EDGE_LOOP('',(#920,#921,#922,#923));
#137=EDGE_LOOP('',(#924,#925,#926,#927));
#138=EDGE_LOOP('',(#928,#929,#930,#931));
#139=EDGE_LOOP('',(#932,#933,#934,#935));
#140=EDGE_LOOP('',(#936,#937,#938,#939));
#141=EDGE_LOOP('',(#940,#941,#942,#943,#944,#945));
#142=EDGE_LOOP('',(#946,#947,#948,#949));
#143=EDGE_LOOP('',(#950,#951,#952,#953));
#144=EDGE_LOOP('',(#954,#955,#956,#957,#958));
#145=EDGE_LOOP('',(#959,#960,#961,#962));
#146=EDGE_LOOP('',(#963,#964,#965,#966));
#147=EDGE_LOOP('',(#967,#968,#969,#970));
#148=EDGE_LOOP('',(#971,#972,#973,#974));
#149=EDGE_LOOP('',(#975,#976,#977,#978,#979,#980));
#150=EDGE_LOOP('',(#981,#982,#983,#984));
#151=EDGE_LOOP('',(#985,#986,#987,#988));
#152=EDGE_LOOP('',(#989,#990,#991,#992));
#153=EDGE_LOOP('',(#993,#994,#995,#996,#997,#998));
#154=EDGE_LOOP('',(#999,#1000,#1001,#1002));
#155=EDGE_LOOP('',(#1003,#1004,#1005,#1006));
#156=EDGE_LOOP('',(#1007,#1008,#1009,#1010));
#157=EDGE_LOOP('',(#1011,#1012,#1013,#1014,#1015,#1016));
#158=EDGE_LOOP('',(#1017,#1018,#1019,#1020));
#159=EDGE_LOOP('',(#1021,#1022,#1023,#1024));
#160=EDGE_LOOP('',(#1025,#1026,#1027,#1028));
#161=EDGE_LOOP('',(#1029,#1030,#1031,#1032,#1033));
#162=CIRCLE('',#1141,1.);
#163=CIRCLE('',#1142,134.235526034674);
#164=CIRCLE('',#1143,1.);
#165=CIRCLE('',#1144,1.);
#166=CIRCLE('',#1145,127.235572027802);
#167=CIRCLE('',#1146,1.);
#168=CIRCLE('',#1147,1.);
#169=CIRCLE('',#1148,124.735526034674);
#170=CIRCLE('',#1149,1.);
#171=CIRCLE('',#1150,134.235526034674);
#172=CIRCLE('',#1151,127.235572027802);
#173=CIRCLE('',#1152,1.);
#174=CIRCLE('',#1154,127.235572027802);
#175=CIRCLE('',#1156,1.);
#176=CIRCLE('',#1159,1.);
#177=CIRCLE('',#1161,134.235526034674);
#178=CIRCLE('',#1162,1.);
#179=CIRCLE('',#1163,1.);
#180=CIRCLE('',#1164,136.235526034674);
#181=CIRCLE('',#1165,7.5);
#182=CIRCLE('',#1166,136.235526034674);
#183=CIRCLE('',#1167,7.49999999999999);
#184=CIRCLE('',#1168,136.235526034674);
#185=CIRCLE('',#1169,7.49999999999999);
#186=CIRCLE('',#1170,136.235526034674);
#187=CIRCLE('',#1171,7.5);
#188=CIRCLE('',#1172,136.235891911711);
#189=CIRCLE('',#1173,1.);
#190=CIRCLE('',#1174,1.);
#191=CIRCLE('',#1175,5.24999999999999);
#192=CIRCLE('',#1176,5.25);
#193=CIRCLE('',#1177,5.25);
#194=CIRCLE('',#1178,5.25);
#195=CIRCLE('',#1180,1.);
#196=CIRCLE('',#1185,5.25);
#197=CIRCLE('',#1186,5.25);
#198=CIRCLE('',#1187,7.5);
#199=CIRCLE('',#1191,5.25);
#200=CIRCLE('',#1192,5.25);
#201=CIRCLE('',#1193,7.49999999999999);
#202=CIRCLE('',#1197,5.25);
#203=CIRCLE('',#1198,5.25);
#204=CIRCLE('',#1199,7.49999999999999);
#205=CIRCLE('',#1203,5.24999999999999);
#206=CIRCLE('',#1204,5.24999999999999);
#207=CIRCLE('',#1205,7.5);
#208=CIRCLE('',#1207,5.25);
#209=CIRCLE('',#1209,5.25);
#210=CIRCLE('',#1211,5.25);
#211=CIRCLE('',#1213,5.24999999999999);
#212=CIRCLE('',#1215,136.235526034674);
#213=CIRCLE('',#1216,136.235526034674);
#214=CIRCLE('',#1217,136.235526034674);
#215=CIRCLE('',#1218,136.235526034674);
#216=CIRCLE('',#1219,1.);
#217=CIRCLE('',#1220,1.);
#218=CIRCLE('',#1221,124.735526034674);
#219=CIRCLE('',#1222,1.);
#220=CIRCLE('',#1223,1.);
#221=CIRCLE('',#1224,134.235526034674);
#222=CIRCLE('',#1225,1.);
#223=CIRCLE('',#1226,1.);
#224=CIRCLE('',#1227,136.235891911711);
#225=CIRCLE('',#1228,1.);
#226=CIRCLE('',#1229,127.235572027802);
#227=CIRCLE('',#1230,134.235526034674);
#228=LINE('',#1609,#328);
#229=LINE('',#1617,#329);
#230=LINE('',#1625,#330);
#231=LINE('',#1639,#331);
#232=LINE('',#1642,#332);
#233=LINE('',#1645,#333);
#234=LINE('',#1649,#334);
#235=LINE('',#1650,#335);
#236=LINE('',#1653,#336);
#237=LINE('',#1662,#337);
#238=LINE('',#1668,#338);
#239=LINE('',#1672,#339);
#240=LINE('',#1676,#340);
#241=LINE('',#1680,#341);
#242=LINE('',#1684,#342);
#243=LINE('',#1688,#343);
#244=LINE('',#1692,#344);
#245=LINE('',#1696,#345);
#246=LINE('',#1702,#346);
#247=LINE('',#1714,#347);
#248=LINE('',#1717,#348);
#249=LINE('',#1720,#349);
#250=LINE('',#1721,#350);
#251=LINE('',#1725,#351);
#252=LINE('',#1727,#352);
#253=LINE('',#1729,#353);
#254=LINE('',#1730,#354);
#255=LINE('',#1734,#355);
#256=LINE('',#1736,#356);
#257=LINE('',#1738,#357);
#258=LINE('',#1739,#358);
#259=LINE('',#1745,#359);
#260=LINE('',#1748,#360);
#261=LINE('',#1752,#361);
#262=LINE('',#1754,#362);
#263=LINE('',#1756,#363);
#264=LINE('',#1757,#364);
#265=LINE('',#1761,#365);
#266=LINE('',#1763,#366);
#267=LINE('',#1765,#367);
#268=LINE('',#1766,#368);
#269=LINE('',#1772,#369);
#270=LINE('',#1775,#370);
#271=LINE('',#1779,#371);
#272=LINE('',#1781,#372);
#273=LINE('',#1783,#373);
#274=LINE('',#1784,#374);
#275=LINE('',#1788,#375);
#276=LINE('',#1790,#376);
#277=LINE('',#1792,#377);
#278=LINE('',#1793,#378);
#279=LINE('',#1799,#379);
#280=LINE('',#1802,#380);
#281=LINE('',#1806,#381);
#282=LINE('',#1808,#382);
#283=LINE('',#1810,#383);
#284=LINE('',#1811,#384);
#285=LINE('',#1815,#385);
#286=LINE('',#1817,#386);
#287=LINE('',#1819,#387);
#288=LINE('',#1820,#388);
#289=LINE('',#1826,#389);
#290=LINE('',#1829,#390);
#291=LINE('',#1831,#391);
#292=LINE('',#1834,#392);
#293=LINE('',#1837,#393);
#294=LINE('',#1840,#394);
#295=LINE('',#1851,#395);
#296=LINE('',#1859,#396);
#297=LINE('',#1866,#397);
#298=LINE('',#1876,#398);
#299=LINE('',#1878,#399);
#300=LINE('',#1880,#400);
#301=LINE('',#1881,#401);
#302=LINE('',#1883,#402);
#303=LINE('',#1884,#403);
#304=LINE('',#1886,#404);
#305=LINE('',#1889,#405);
#306=LINE('',#1890,#406);
#307=LINE('',#1892,#407);
#308=LINE('',#1895,#408);
#309=LINE('',#1896,#409);
#310=LINE('',#1899,#410);
#311=LINE('',#1900,#411);
#312=LINE('',#1902,#412);
#313=LINE('',#1905,#413);
#314=LINE('',#1907,#414);
#315=LINE('',#1909,#415);
#316=LINE('',#1911,#416);
#317=LINE('',#1913,#417);
#318=LINE('',#1915,#418);
#319=LINE('',#1917,#419);
#320=LINE('',#1919,#420);
#321=LINE('',#1921,#421);
#322=LINE('',#1923,#422);
#323=LINE('',#1925,#423);
#324=LINE('',#1927,#424);
#325=LINE('',#1929,#425);
#326=LINE('',#1931,#426);
#327=LINE('',#1933,#427);
#328=VECTOR('',#1265,10.);
#329=VECTOR('',#1272,10.);
#330=VECTOR('',#1279,10.);
#331=VECTOR('',#1294,10.);
#332=VECTOR('',#1297,10.);
#333=VECTOR('',#1300,10.);
#334=VECTOR('',#1305,10.);
#335=VECTOR('',#1306,10.);
#336=VECTOR('',#1309,10.);
#337=VECTOR('',#1318,10.);
#338=VECTOR('',#1323,10.);
#339=VECTOR('',#1326,10.);
#340=VECTOR('',#1329,10.);
#341=VECTOR('',#1332,10.);
#342=VECTOR('',#1335,10.);
#343=VECTOR('',#1338,10.);
#344=VECTOR('',#1341,10.);
#345=VECTOR('',#1344,10.);
#346=VECTOR('',#1349,10.);
#347=VECTOR('',#1362,10.);
#348=VECTOR('',#1365,10.);
#349=VECTOR('',#1368,10.);
#350=VECTOR('',#1369,10.);
#351=VECTOR('',#1372,10.);
#352=VECTOR('',#1373,10.);
#353=VECTOR('',#1374,10.);
#354=VECTOR('',#1375,10.);
#355=VECTOR('',#1378,10.);
#356=VECTOR('',#1379,10.);
#357=VECTOR('',#1380,10.);
#358=VECTOR('',#1381,10.);
#359=VECTOR('',#1388,10.);
#360=VECTOR('',#1391,10.);
#361=VECTOR('',#1394,10.);
#362=VECTOR('',#1395,10.);
#363=VECTOR('',#1396,10.);
#364=VECTOR('',#1397,10.);
#365=VECTOR('',#1400,10.);
#366=VECTOR('',#1401,10.);
#367=VECTOR('',#1402,10.);
#368=VECTOR('',#1403,10.);
#369=VECTOR('',#1410,10.);
#370=VECTOR('',#1413,10.);
#371=VECTOR('',#1416,10.);
#372=VECTOR('',#1417,10.);
#373=VECTOR('',#1418,10.);
#374=VECTOR('',#1419,10.);
#375=VECTOR('',#1422,10.);
#376=VECTOR('',#1423,10.);
#377=VECTOR('',#1424,10.);
#378=VECTOR('',#1425,10.);
#379=VECTOR('',#1432,10.);
#380=VECTOR('',#1435,10.);
#381=VECTOR('',#1438,10.);
#382=VECTOR('',#1439,10.);
#383=VECTOR('',#1440,10.);
#384=VECTOR('',#1441,10.);
#385=VECTOR('',#1444,10.);
#386=VECTOR('',#1445,10.);
#387=VECTOR('',#1446,10.);
#388=VECTOR('',#1447,10.);
#389=VECTOR('',#1454,10.);
#390=VECTOR('',#1457,10.);
#391=VECTOR('',#1460,5.25);
#392=VECTOR('',#1465,5.25);
#393=VECTOR('',#1470,5.25);
#394=VECTOR('',#1475,5.25);
#395=VECTOR('',#1490,10.);
#396=VECTOR('',#1497,10.);
#397=VECTOR('',#1504,10.);
#398=VECTOR('',#1517,10.);
#399=VECTOR('',#1520,10.);
#400=VECTOR('',#1523,10.);
#401=VECTOR('',#1524,10.);
#402=VECTOR('',#1527,10.);
#403=VECTOR('',#1528,10.);
#404=VECTOR('',#1531,10.);
#405=VECTOR('',#1536,10.);
#406=VECTOR('',#1537,10.);
#407=VECTOR('',#1540,10.);
#408=VECTOR('',#1545,10.);
#409=VECTOR('',#1546,10.);
#410=VECTOR('',#1551,10.);
#411=VECTOR('',#1552,10.);
#412=VECTOR('',#1555,10.);
#413=VECTOR('',#1560,10.);
#414=VECTOR('',#1563,10.);
#415=VECTOR('',#1566,10.);
#416=VECTOR('',#1569,10.);
#417=VECTOR('',#1572,10.);
#418=VECTOR('',#1575,10.);
#419=VECTOR('',#1578,10.);
#420=VECTOR('',#1581,10.);
#421=VECTOR('',#1584,10.);
#422=VECTOR('',#1587,10.);
#423=VECTOR('',#1590,10.);
#424=VECTOR('',#1593,10.);
#425=VECTOR('',#1596,10.);
#426=VECTOR('',#1599,10.);
#427=VECTOR('',#1602,10.);
#428=VERTEX_POINT('',#1607);
#429=VERTEX_POINT('',#1608);
#430=VERTEX_POINT('',#1610);
#431=VERTEX_POINT('',#1612);
#432=VERTEX_POINT('',#1614);
#433=VERTEX_POINT('',#1616);
#434=VERTEX_POINT('',#1618);
#435=VERTEX_POINT('',#1620);
#436=VERTEX_POINT('',#1622);
#437=VERTEX_POINT('',#1624);
#438=VERTEX_POINT('',#1626);
#439=VERTEX_POINT('',#1628);
#440=VERTEX_POINT('',#1630);
#441=VERTEX_POINT('',#1632);
#442=VERTEX_POINT('',#1634);
#443=VERTEX_POINT('',#1638);
#444=VERTEX_POINT('',#1640);
#445=VERTEX_POINT('',#1644);
#446=VERTEX_POINT('',#1648);
#447=VERTEX_POINT('',#1652);
#448=VERTEX_POINT('',#1656);
#449=VERTEX_POINT('',#1657);
#450=VERTEX_POINT('',#1659);
#451=VERTEX_POINT('',#1661);
#452=VERTEX_POINT('',#1663);
#453=VERTEX_POINT('',#1665);
#454=VERTEX_POINT('',#1667);
#455=VERTEX_POINT('',#1669);
#456=VERTEX_POINT('',#1671);
#457=VERTEX_POINT('',#1673);
#458=VERTEX_POINT('',#1675);
#459=VERTEX_POINT('',#1677);
#460=VERTEX_POINT('',#1679);
#461=VERTEX_POINT('',#1681);
#462=VERTEX_POINT('',#1683);
#463=VERTEX_POINT('',#1685);
#464=VERTEX_POINT('',#1687);
#465=VERTEX_POINT('',#1689);
#466=VERTEX_POINT('',#1691);
#467=VERTEX_POINT('',#1693);
#468=VERTEX_POINT('',#1695);
#469=VERTEX_POINT('',#1697);
#470=VERTEX_POINT('',#1699);
#471=VERTEX_POINT('',#1701);
#472=VERTEX_POINT('',#1704);
#473=VERTEX_POINT('',#1706);
#474=VERTEX_POINT('',#1708);
#475=VERTEX_POINT('',#1710);
#476=VERTEX_POINT('',#1713);
#477=VERTEX_POINT('',#1715);
#478=VERTEX_POINT('',#1719);
#479=VERTEX_POINT('',#1723);
#480=VERTEX_POINT('',#1724);
#481=VERTEX_POINT('',#1726);
#482=VERTEX_POINT('',#1728);
#483=VERTEX_POINT('',#1732);
#484=VERTEX_POINT('',#1733);
#485=VERTEX_POINT('',#1735);
#486=VERTEX_POINT('',#1737);
#487=VERTEX_POINT('',#1741);
#488=VERTEX_POINT('',#1744);
#489=VERTEX_POINT('',#1746);
#490=VERTEX_POINT('',#1750);
#491=VERTEX_POINT('',#1751);
#492=VERTEX_POINT('',#1753);
#493=VERTEX_POINT('',#1755);
#494=VERTEX_POINT('',#1759);
#495=VERTEX_POINT('',#1760);
#496=VERTEX_POINT('',#1762);
#497=VERTEX_POINT('',#1764);
#498=VERTEX_POINT('',#1768);
#499=VERTEX_POINT('',#1771);
#500=VERTEX_POINT('',#1773);
#501=VERTEX_POINT('',#1777);
#502=VERTEX_POINT('',#1778);
#503=VERTEX_POINT('',#1780);
#504=VERTEX_POINT('',#1782);
#505=VERTEX_POINT('',#1786);
#506=VERTEX_POINT('',#1787);
#507=VERTEX_POINT('',#1789);
#508=VERTEX_POINT('',#1791);
#509=VERTEX_POINT('',#1795);
#510=VERTEX_POINT('',#1798);
#511=VERTEX_POINT('',#1800);
#512=VERTEX_POINT('',#1804);
#513=VERTEX_POINT('',#1805);
#514=VERTEX_POINT('',#1807);
#515=VERTEX_POINT('',#1809);
#516=VERTEX_POINT('',#1813);
#517=VERTEX_POINT('',#1814);
#518=VERTEX_POINT('',#1816);
#519=VERTEX_POINT('',#1818);
#520=VERTEX_POINT('',#1822);
#521=VERTEX_POINT('',#1825);
#522=VERTEX_POINT('',#1827);
#523=VERTEX_POINT('',#1846);
#524=VERTEX_POINT('',#1848);
#525=VERTEX_POINT('',#1850);
#526=VERTEX_POINT('',#1852);
#527=VERTEX_POINT('',#1854);
#528=VERTEX_POINT('',#1856);
#529=VERTEX_POINT('',#1858);
#530=VERTEX_POINT('',#1861);
#531=VERTEX_POINT('',#1863);
#532=VERTEX_POINT('',#1865);
#533=VERTEX_POINT('',#1867);
#534=VERTEX_POINT('',#1870);
#535=VERTEX_POINT('',#1872);
#536=EDGE_CURVE('',#428,#429,#228,.T.);
#537=EDGE_CURVE('',#430,#428,#162,.T.);
#538=EDGE_CURVE('',#431,#430,#163,.T.);
#539=EDGE_CURVE('',#432,#431,#164,.T.);
#540=EDGE_CURVE('',#433,#432,#229,.T.);
#541=EDGE_CURVE('',#434,#433,#165,.T.);
#542=EDGE_CURVE('',#435,#434,#166,.T.);
#543=EDGE_CURVE('',#436,#435,#167,.T.);
#544=EDGE_CURVE('',#437,#436,#230,.T.);
#545=EDGE_CURVE('',#438,#437,#168,.T.);
#546=EDGE_CURVE('',#439,#438,#169,.T.);
#547=EDGE_CURVE('',#440,#439,#170,.T.);
#548=EDGE_CURVE('',#441,#440,#171,.T.);
#549=EDGE_CURVE('',#442,#441,#172,.T.);
#550=EDGE_CURVE('',#429,#442,#173,.T.);
#551=EDGE_CURVE('',#443,#434,#231,.T.);
#552=EDGE_CURVE('',#444,#443,#174,.T.);
#553=EDGE_CURVE('',#435,#444,#232,.T.);
#554=EDGE_CURVE('',#433,#445,#233,.T.);
#555=EDGE_CURVE('',#445,#443,#175,.T.);
#556=EDGE_CURVE('',#446,#432,#234,.T.);
#557=EDGE_CURVE('',#445,#446,#235,.T.);
#558=EDGE_CURVE('',#431,#447,#236,.T.);
#559=EDGE_CURVE('',#447,#446,#176,.T.);
#560=EDGE_CURVE('',#448,#449,#177,.T.);
#561=EDGE_CURVE('',#450,#448,#178,.T.);
#562=EDGE_CURVE('',#451,#450,#237,.T.);
#563=EDGE_CURVE('',#452,#451,#179,.T.);
#564=EDGE_CURVE('',#453,#452,#180,.T.);
#565=EDGE_CURVE('',#454,#453,#238,.T.);
#566=EDGE_CURVE('',#455,#454,#181,.T.);
#567=EDGE_CURVE('',#456,#455,#239,.T.);
#568=EDGE_CURVE('',#457,#456,#182,.T.);
#569=EDGE_CURVE('',#458,#457,#240,.T.);
#570=EDGE_CURVE('',#459,#458,#183,.T.);
#571=EDGE_CURVE('',#460,#459,#241,.T.);
#572=EDGE_CURVE('',#461,#460,#184,.T.);
#573=EDGE_CURVE('',#462,#461,#242,.T.);
#574=EDGE_CURVE('',#463,#462,#185,.T.);
#575=EDGE_CURVE('',#464,#463,#243,.T.);
#576=EDGE_CURVE('',#465,#464,#186,.T.);
#577=EDGE_CURVE('',#466,#465,#244,.T.);
#578=EDGE_CURVE('',#467,#466,#187,.T.);
#579=EDGE_CURVE('',#468,#467,#245,.T.);
#580=EDGE_CURVE('',#469,#468,#188,.T.);
#581=EDGE_CURVE('',#470,#469,#189,.T.);
#582=EDGE_CURVE('',#471,#470,#246,.T.);
#583=EDGE_CURVE('',#449,#471,#190,.T.);
#584=EDGE_CURVE('',#472,#472,#191,.T.);
#585=EDGE_CURVE('',#473,#473,#192,.T.);
#586=EDGE_CURVE('',#474,#474,#193,.T.);
#587=EDGE_CURVE('',#475,#475,#194,.T.);
#588=EDGE_CURVE('',#428,#476,#247,.T.);
#589=EDGE_CURVE('',#476,#477,#195,.T.);
#590=EDGE_CURVE('',#477,#430,#248,.T.);
#591=EDGE_CURVE('',#478,#429,#249,.T.);
#592=EDGE_CURVE('',#476,#478,#250,.T.);
#593=EDGE_CURVE('',#479,#480,#251,.T.);
#594=EDGE_CURVE('',#481,#479,#252,.T.);
#595=EDGE_CURVE('',#481,#482,#253,.T.);
#596=EDGE_CURVE('',#480,#482,#254,.T.);
#597=EDGE_CURVE('',#483,#484,#255,.T.);
#598=EDGE_CURVE('',#485,#483,#256,.T.);
#599=EDGE_CURVE('',#485,#486,#257,.T.);
#600=EDGE_CURVE('',#486,#484,#258,.T.);
#601=EDGE_CURVE('',#487,#485,#196,.T.);
#602=EDGE_CURVE('',#482,#487,#197,.T.);
#603=EDGE_CURVE('',#488,#481,#259,.T.);
#604=EDGE_CURVE('',#489,#488,#198,.T.);
#605=EDGE_CURVE('',#486,#489,#260,.T.);
#606=EDGE_CURVE('',#490,#491,#261,.T.);
#607=EDGE_CURVE('',#492,#490,#262,.T.);
#608=EDGE_CURVE('',#492,#493,#263,.T.);
#609=EDGE_CURVE('',#491,#493,#264,.T.);
#610=EDGE_CURVE('',#494,#495,#265,.T.);
#611=EDGE_CURVE('',#496,#494,#266,.T.);
#612=EDGE_CURVE('',#496,#497,#267,.T.);
#613=EDGE_CURVE('',#497,#495,#268,.T.);
#614=EDGE_CURVE('',#498,#496,#199,.T.);
#615=EDGE_CURVE('',#493,#498,#200,.T.);
#616=EDGE_CURVE('',#499,#492,#269,.T.);
#617=EDGE_CURVE('',#500,#499,#201,.T.);
#618=EDGE_CURVE('',#497,#500,#270,.T.);
#619=EDGE_CURVE('',#501,#502,#271,.T.);
#620=EDGE_CURVE('',#503,#501,#272,.T.);
#621=EDGE_CURVE('',#503,#504,#273,.T.);
#622=EDGE_CURVE('',#502,#504,#274,.T.);
#623=EDGE_CURVE('',#505,#506,#275,.T.);
#624=EDGE_CURVE('',#507,#505,#276,.T.);
#625=EDGE_CURVE('',#507,#508,#277,.T.);
#626=EDGE_CURVE('',#508,#506,#278,.T.);
#627=EDGE_CURVE('',#509,#507,#202,.T.);
#628=EDGE_CURVE('',#504,#509,#203,.T.);
#629=EDGE_CURVE('',#510,#503,#279,.T.);
#630=EDGE_CURVE('',#511,#510,#204,.T.);
#631=EDGE_CURVE('',#508,#511,#280,.T.);
#632=EDGE_CURVE('',#512,#513,#281,.T.);
#633=EDGE_CURVE('',#514,#512,#282,.T.);
#634=EDGE_CURVE('',#514,#515,#283,.T.);
#635=EDGE_CURVE('',#513,#515,#284,.T.);
#636=EDGE_CURVE('',#516,#517,#285,.T.);
#637=EDGE_CURVE('',#518,#516,#286,.T.);
#638=EDGE_CURVE('',#518,#519,#287,.T.);
#639=EDGE_CURVE('',#519,#517,#288,.T.);
#640=EDGE_CURVE('',#520,#518,#205,.T.);
#641=EDGE_CURVE('',#515,#520,#206,.T.);
#642=EDGE_CURVE('',#521,#514,#289,.T.);
#643=EDGE_CURVE('',#522,#521,#207,.T.);
#644=EDGE_CURVE('',#519,#522,#290,.T.);
#645=EDGE_CURVE('',#487,#475,#291,.T.);
#646=EDGE_CURVE('',#480,#483,#208,.T.);
#647=EDGE_CURVE('',#498,#473,#292,.T.);
#648=EDGE_CURVE('',#491,#494,#209,.T.);
#649=EDGE_CURVE('',#509,#474,#293,.T.);
#650=EDGE_CURVE('',#502,#505,#210,.T.);
#651=EDGE_CURVE('',#520,#472,#294,.T.);
#652=EDGE_CURVE('',#513,#516,#211,.T.);
#653=EDGE_CURVE('',#484,#501,#212,.T.);
#654=EDGE_CURVE('',#506,#490,#213,.T.);
#655=EDGE_CURVE('',#495,#512,#214,.T.);
#656=EDGE_CURVE('',#517,#523,#215,.T.);
#657=EDGE_CURVE('',#524,#523,#216,.T.);
#658=EDGE_CURVE('',#524,#525,#295,.T.);
#659=EDGE_CURVE('',#526,#525,#217,.T.);
#660=EDGE_CURVE('',#526,#527,#218,.T.);
#661=EDGE_CURVE('',#528,#527,#219,.T.);
#662=EDGE_CURVE('',#528,#529,#296,.T.);
#663=EDGE_CURVE('',#444,#529,#220,.T.);
#664=EDGE_CURVE('',#447,#530,#221,.T.);
#665=EDGE_CURVE('',#531,#530,#222,.T.);
#666=EDGE_CURVE('',#531,#532,#297,.T.);
#667=EDGE_CURVE('',#533,#532,#223,.T.);
#668=EDGE_CURVE('',#533,#479,#224,.T.);
#669=EDGE_CURVE('',#534,#478,#225,.T.);
#670=EDGE_CURVE('',#534,#535,#226,.T.);
#671=EDGE_CURVE('',#535,#477,#227,.T.);
#672=EDGE_CURVE('',#442,#534,#298,.T.);
#673=EDGE_CURVE('',#441,#535,#299,.T.);
#674=EDGE_CURVE('',#530,#449,#300,.T.);
#675=EDGE_CURVE('',#448,#440,#301,.T.);
#676=EDGE_CURVE('',#437,#528,#302,.T.);
#677=EDGE_CURVE('',#527,#438,#303,.T.);
#678=EDGE_CURVE('',#529,#436,#304,.T.);
#679=EDGE_CURVE('',#532,#470,#305,.T.);
#680=EDGE_CURVE('',#469,#533,#306,.T.);
#681=EDGE_CURVE('',#471,#531,#307,.T.);
#682=EDGE_CURVE('',#439,#526,#308,.T.);
#683=EDGE_CURVE('',#525,#450,#309,.T.);
#684=EDGE_CURVE('',#523,#452,#310,.T.);
#685=EDGE_CURVE('',#451,#524,#311,.T.);
#686=EDGE_CURVE('',#453,#519,#312,.T.);
#687=EDGE_CURVE('',#454,#522,#313,.T.);
#688=EDGE_CURVE('',#455,#521,#314,.T.);
#689=EDGE_CURVE('',#456,#514,#315,.T.);
#690=EDGE_CURVE('',#457,#497,#316,.T.);
#691=EDGE_CURVE('',#458,#500,#317,.T.);
#692=EDGE_CURVE('',#459,#499,#318,.T.);
#693=EDGE_CURVE('',#460,#492,#319,.T.);
#694=EDGE_CURVE('',#461,#508,#320,.T.);
#695=EDGE_CURVE('',#462,#511,#321,.T.);
#696=EDGE_CURVE('',#463,#510,#322,.T.);
#697=EDGE_CURVE('',#464,#503,#323,.T.);
#698=EDGE_CURVE('',#465,#486,#324,.T.);
#699=EDGE_CURVE('',#466,#489,#325,.T.);
#700=EDGE_CURVE('',#467,#488,#326,.T.);
#701=EDGE_CURVE('',#468,#481,#327,.T.);
#702=ORIENTED_EDGE('',*,*,#536,.F.);
#703=ORIENTED_EDGE('',*,*,#537,.F.);
#704=ORIENTED_EDGE('',*,*,#538,.F.);
#705=ORIENTED_EDGE('',*,*,#539,.F.);
#706=ORIENTED_EDGE('',*,*,#540,.F.);
#707=ORIENTED_EDGE('',*,*,#541,.F.);
#708=ORIENTED_EDGE('',*,*,#542,.F.);
#709=ORIENTED_EDGE('',*,*,#543,.F.);
#710=ORIENTED_EDGE('',*,*,#544,.F.);
#711=ORIENTED_EDGE('',*,*,#545,.F.);
#712=ORIENTED_EDGE('',*,*,#546,.F.);
#713=ORIENTED_EDGE('',*,*,#547,.F.);
#714=ORIENTED_EDGE('',*,*,#548,.F.);
#715=ORIENTED_EDGE('',*,*,#549,.F.);
#716=ORIENTED_EDGE('',*,*,#550,.F.);
#717=ORIENTED_EDGE('',*,*,#542,.T.);
#718=ORIENTED_EDGE('',*,*,#551,.F.);
#719=ORIENTED_EDGE('',*,*,#552,.F.);
#720=ORIENTED_EDGE('',*,*,#553,.F.);
#721=ORIENTED_EDGE('',*,*,#541,.T.);
#722=ORIENTED_EDGE('',*,*,#554,.T.);
#723=ORIENTED_EDGE('',*,*,#555,.T.);
#724=ORIENTED_EDGE('',*,*,#551,.T.);
#725=ORIENTED_EDGE('',*,*,#540,.T.);
#726=ORIENTED_EDGE('',*,*,#556,.F.);
#727=ORIENTED_EDGE('',*,*,#557,.F.);
#728=ORIENTED_EDGE('',*,*,#554,.F.);
#729=ORIENTED_EDGE('',*,*,#539,.T.);
#730=ORIENTED_EDGE('',*,*,#558,.T.);
#731=ORIENTED_EDGE('',*,*,#559,.T.);
#732=ORIENTED_EDGE('',*,*,#556,.T.);
#733=ORIENTED_EDGE('',*,*,#560,.F.);
#734=ORIENTED_EDGE('',*,*,#561,.F.);
#735=ORIENTED_EDGE('',*,*,#562,.F.);
#736=ORIENTED_EDGE('',*,*,#563,.F.);
#737=ORIENTED_EDGE('',*,*,#564,.F.);
#738=ORIENTED_EDGE('',*,*,#565,.F.);
#739=ORIENTED_EDGE('',*,*,#566,.F.);
#740=ORIENTED_EDGE('',*,*,#567,.F.);
#741=ORIENTED_EDGE('',*,*,#568,.F.);
#742=ORIENTED_EDGE('',*,*,#569,.F.);
#743=ORIENTED_EDGE('',*,*,#570,.F.);
#744=ORIENTED_EDGE('',*,*,#571,.F.);
#745=ORIENTED_EDGE('',*,*,#572,.F.);
#746=ORIENTED_EDGE('',*,*,#573,.F.);
#747=ORIENTED_EDGE('',*,*,#574,.F.);
#748=ORIENTED_EDGE('',*,*,#575,.F.);
#749=ORIENTED_EDGE('',*,*,#576,.F.);
#750=ORIENTED_EDGE('',*,*,#577,.F.);
#751=ORIENTED_EDGE('',*,*,#578,.F.);
#752=ORIENTED_EDGE('',*,*,#579,.F.);
#753=ORIENTED_EDGE('',*,*,#580,.F.);
#754=ORIENTED_EDGE('',*,*,#581,.F.);
#755=ORIENTED_EDGE('',*,*,#582,.F.);
#756=ORIENTED_EDGE('',*,*,#583,.F.);
#757=ORIENTED_EDGE('',*,*,#584,.F.);
#758=ORIENTED_EDGE('',*,*,#585,.F.);
#759=ORIENTED_EDGE('',*,*,#586,.F.);
#760=ORIENTED_EDGE('',*,*,#587,.F.);
#761=ORIENTED_EDGE('',*,*,#537,.T.);
#762=ORIENTED_EDGE('',*,*,#588,.T.);
#763=ORIENTED_EDGE('',*,*,#589,.T.);
#764=ORIENTED_EDGE('',*,*,#590,.T.);
#765=ORIENTED_EDGE('',*,*,#536,.T.);
#766=ORIENTED_EDGE('',*,*,#591,.F.);
#767=ORIENTED_EDGE('',*,*,#592,.F.);
#768=ORIENTED_EDGE('',*,*,#588,.F.);
#769=ORIENTED_EDGE('',*,*,#593,.F.);
#770=ORIENTED_EDGE('',*,*,#594,.F.);
#771=ORIENTED_EDGE('',*,*,#595,.T.);
#772=ORIENTED_EDGE('',*,*,#596,.F.);
#773=ORIENTED_EDGE('',*,*,#597,.F.);
#774=ORIENTED_EDGE('',*,*,#598,.F.);
#775=ORIENTED_EDGE('',*,*,#599,.T.);
#776=ORIENTED_EDGE('',*,*,#600,.T.);
#777=ORIENTED_EDGE('',*,*,#599,.F.);
#778=ORIENTED_EDGE('',*,*,#601,.F.);
#779=ORIENTED_EDGE('',*,*,#602,.F.);
#780=ORIENTED_EDGE('',*,*,#595,.F.);
#781=ORIENTED_EDGE('',*,*,#603,.F.);
#782=ORIENTED_EDGE('',*,*,#604,.F.);
#783=ORIENTED_EDGE('',*,*,#605,.F.);
#784=ORIENTED_EDGE('',*,*,#606,.F.);
#785=ORIENTED_EDGE('',*,*,#607,.F.);
#786=ORIENTED_EDGE('',*,*,#608,.T.);
#787=ORIENTED_EDGE('',*,*,#609,.F.);
#788=ORIENTED_EDGE('',*,*,#610,.F.);
#789=ORIENTED_EDGE('',*,*,#611,.F.);
#790=ORIENTED_EDGE('',*,*,#612,.T.);
#791=ORIENTED_EDGE('',*,*,#613,.T.);
#792=ORIENTED_EDGE('',*,*,#612,.F.);
#793=ORIENTED_EDGE('',*,*,#614,.F.);
#794=ORIENTED_EDGE('',*,*,#615,.F.);
#795=ORIENTED_EDGE('',*,*,#608,.F.);
#796=ORIENTED_EDGE('',*,*,#616,.F.);
#797=ORIENTED_EDGE('',*,*,#617,.F.);
#798=ORIENTED_EDGE('',*,*,#618,.F.);
#799=ORIENTED_EDGE('',*,*,#619,.F.);
#800=ORIENTED_EDGE('',*,*,#620,.F.);
#801=ORIENTED_EDGE('',*,*,#621,.T.);
#802=ORIENTED_EDGE('',*,*,#622,.F.);
#803=ORIENTED_EDGE('',*,*,#623,.F.);
#804=ORIENTED_EDGE('',*,*,#624,.F.);
#805=ORIENTED_EDGE('',*,*,#625,.T.);
#806=ORIENTED_EDGE('',*,*,#626,.T.);
#807=ORIENTED_EDGE('',*,*,#625,.F.);
#808=ORIENTED_EDGE('',*,*,#627,.F.);
#809=ORIENTED_EDGE('',*,*,#628,.F.);
#810=ORIENTED_EDGE('',*,*,#621,.F.);
#811=ORIENTED_EDGE('',*,*,#629,.F.);
#812=ORIENTED_EDGE('',*,*,#630,.F.);
#813=ORIENTED_EDGE('',*,*,#631,.F.);
#814=ORIENTED_EDGE('',*,*,#632,.F.);
#815=ORIENTED_EDGE('',*,*,#633,.F.);
#816=ORIENTED_EDGE('',*,*,#634,.T.);
#817=ORIENTED_EDGE('',*,*,#635,.F.);
#818=ORIENTED_EDGE('',*,*,#636,.F.);
#819=ORIENTED_EDGE('',*,*,#637,.F.);
#820=ORIENTED_EDGE('',*,*,#638,.T.);
#821=ORIENTED_EDGE('',*,*,#639,.T.);
#822=ORIENTED_EDGE('',*,*,#638,.F.);
#823=ORIENTED_EDGE('',*,*,#640,.F.);
#824=ORIENTED_EDGE('',*,*,#641,.F.);
#825=ORIENTED_EDGE('',*,*,#634,.F.);
#826=ORIENTED_EDGE('',*,*,#642,.F.);
#827=ORIENTED_EDGE('',*,*,#643,.F.);
#828=ORIENTED_EDGE('',*,*,#644,.F.);
#829=ORIENTED_EDGE('',*,*,#596,.T.);
#830=ORIENTED_EDGE('',*,*,#602,.T.);
#831=ORIENTED_EDGE('',*,*,#645,.T.);
#832=ORIENTED_EDGE('',*,*,#587,.T.);
#833=ORIENTED_EDGE('',*,*,#645,.F.);
#834=ORIENTED_EDGE('',*,*,#601,.T.);
#835=ORIENTED_EDGE('',*,*,#598,.T.);
#836=ORIENTED_EDGE('',*,*,#646,.F.);
#837=ORIENTED_EDGE('',*,*,#609,.T.);
#838=ORIENTED_EDGE('',*,*,#615,.T.);
#839=ORIENTED_EDGE('',*,*,#647,.T.);
#840=ORIENTED_EDGE('',*,*,#585,.T.);
#841=ORIENTED_EDGE('',*,*,#647,.F.);
#842=ORIENTED_EDGE('',*,*,#614,.T.);
#843=ORIENTED_EDGE('',*,*,#611,.T.);
#844=ORIENTED_EDGE('',*,*,#648,.F.);
#845=ORIENTED_EDGE('',*,*,#622,.T.);
#846=ORIENTED_EDGE('',*,*,#628,.T.);
#847=ORIENTED_EDGE('',*,*,#649,.T.);
#848=ORIENTED_EDGE('',*,*,#586,.T.);
#849=ORIENTED_EDGE('',*,*,#649,.F.);
#850=ORIENTED_EDGE('',*,*,#627,.T.);
#851=ORIENTED_EDGE('',*,*,#624,.T.);
#852=ORIENTED_EDGE('',*,*,#650,.F.);
#853=ORIENTED_EDGE('',*,*,#635,.T.);
#854=ORIENTED_EDGE('',*,*,#641,.T.);
#855=ORIENTED_EDGE('',*,*,#651,.T.);
#856=ORIENTED_EDGE('',*,*,#584,.T.);
#857=ORIENTED_EDGE('',*,*,#651,.F.);
#858=ORIENTED_EDGE('',*,*,#640,.T.);
#859=ORIENTED_EDGE('',*,*,#637,.T.);
#860=ORIENTED_EDGE('',*,*,#652,.F.);
#861=ORIENTED_EDGE('',*,*,#593,.T.);
#862=ORIENTED_EDGE('',*,*,#646,.T.);
#863=ORIENTED_EDGE('',*,*,#597,.T.);
#864=ORIENTED_EDGE('',*,*,#653,.T.);
#865=ORIENTED_EDGE('',*,*,#619,.T.);
#866=ORIENTED_EDGE('',*,*,#650,.T.);
#867=ORIENTED_EDGE('',*,*,#623,.T.);
#868=ORIENTED_EDGE('',*,*,#654,.T.);
#869=ORIENTED_EDGE('',*,*,#606,.T.);
#870=ORIENTED_EDGE('',*,*,#648,.T.);
#871=ORIENTED_EDGE('',*,*,#610,.T.);
#872=ORIENTED_EDGE('',*,*,#655,.T.);
#873=ORIENTED_EDGE('',*,*,#632,.T.);
#874=ORIENTED_EDGE('',*,*,#652,.T.);
#875=ORIENTED_EDGE('',*,*,#636,.T.);
#876=ORIENTED_EDGE('',*,*,#656,.T.);
#877=ORIENTED_EDGE('',*,*,#657,.F.);
#878=ORIENTED_EDGE('',*,*,#658,.T.);
#879=ORIENTED_EDGE('',*,*,#659,.F.);
#880=ORIENTED_EDGE('',*,*,#660,.T.);
#881=ORIENTED_EDGE('',*,*,#661,.F.);
#882=ORIENTED_EDGE('',*,*,#662,.T.);
#883=ORIENTED_EDGE('',*,*,#663,.F.);
#884=ORIENTED_EDGE('',*,*,#552,.T.);
#885=ORIENTED_EDGE('',*,*,#555,.F.);
#886=ORIENTED_EDGE('',*,*,#557,.T.);
#887=ORIENTED_EDGE('',*,*,#559,.F.);
#888=ORIENTED_EDGE('',*,*,#664,.T.);
#889=ORIENTED_EDGE('',*,*,#665,.F.);
#890=ORIENTED_EDGE('',*,*,#666,.T.);
#891=ORIENTED_EDGE('',*,*,#667,.F.);
#892=ORIENTED_EDGE('',*,*,#668,.T.);
#893=ORIENTED_EDGE('',*,*,#592,.T.);
#894=ORIENTED_EDGE('',*,*,#669,.F.);
#895=ORIENTED_EDGE('',*,*,#670,.T.);
#896=ORIENTED_EDGE('',*,*,#671,.T.);
#897=ORIENTED_EDGE('',*,*,#589,.F.);
#898=ORIENTED_EDGE('',*,*,#550,.T.);
#899=ORIENTED_EDGE('',*,*,#672,.T.);
#900=ORIENTED_EDGE('',*,*,#669,.T.);
#901=ORIENTED_EDGE('',*,*,#591,.T.);
#902=ORIENTED_EDGE('',*,*,#549,.T.);
#903=ORIENTED_EDGE('',*,*,#673,.T.);
#904=ORIENTED_EDGE('',*,*,#670,.F.);
#905=ORIENTED_EDGE('',*,*,#672,.F.);
#906=ORIENTED_EDGE('',*,*,#560,.T.);
#907=ORIENTED_EDGE('',*,*,#674,.F.);
#908=ORIENTED_EDGE('',*,*,#664,.F.);
#909=ORIENTED_EDGE('',*,*,#558,.F.);
#910=ORIENTED_EDGE('',*,*,#538,.T.);
#911=ORIENTED_EDGE('',*,*,#590,.F.);
#912=ORIENTED_EDGE('',*,*,#671,.F.);
#913=ORIENTED_EDGE('',*,*,#673,.F.);
#914=ORIENTED_EDGE('',*,*,#548,.T.);
#915=ORIENTED_EDGE('',*,*,#675,.F.);
#916=ORIENTED_EDGE('',*,*,#545,.T.);
#917=ORIENTED_EDGE('',*,*,#676,.T.);
#918=ORIENTED_EDGE('',*,*,#661,.T.);
#919=ORIENTED_EDGE('',*,*,#677,.T.);
#920=ORIENTED_EDGE('',*,*,#544,.T.);
#921=ORIENTED_EDGE('',*,*,#678,.F.);
#922=ORIENTED_EDGE('',*,*,#662,.F.);
#923=ORIENTED_EDGE('',*,*,#676,.F.);
#924=ORIENTED_EDGE('',*,*,#543,.T.);
#925=ORIENTED_EDGE('',*,*,#553,.T.);
#926=ORIENTED_EDGE('',*,*,#663,.T.);
#927=ORIENTED_EDGE('',*,*,#678,.T.);
#928=ORIENTED_EDGE('',*,*,#667,.T.);
#929=ORIENTED_EDGE('',*,*,#679,.T.);
#930=ORIENTED_EDGE('',*,*,#581,.T.);
#931=ORIENTED_EDGE('',*,*,#680,.T.);
#932=ORIENTED_EDGE('',*,*,#679,.F.);
#933=ORIENTED_EDGE('',*,*,#666,.F.);
#934=ORIENTED_EDGE('',*,*,#681,.F.);
#935=ORIENTED_EDGE('',*,*,#582,.T.);
#936=ORIENTED_EDGE('',*,*,#665,.T.);
#937=ORIENTED_EDGE('',*,*,#674,.T.);
#938=ORIENTED_EDGE('',*,*,#583,.T.);
#939=ORIENTED_EDGE('',*,*,#681,.T.);
#940=ORIENTED_EDGE('',*,*,#547,.T.);
#941=ORIENTED_EDGE('',*,*,#682,.T.);
#942=ORIENTED_EDGE('',*,*,#659,.T.);
#943=ORIENTED_EDGE('',*,*,#683,.T.);
#944=ORIENTED_EDGE('',*,*,#561,.T.);
#945=ORIENTED_EDGE('',*,*,#675,.T.);
#946=ORIENTED_EDGE('',*,*,#546,.T.);
#947=ORIENTED_EDGE('',*,*,#677,.F.);
#948=ORIENTED_EDGE('',*,*,#660,.F.);
#949=ORIENTED_EDGE('',*,*,#682,.F.);
#950=ORIENTED_EDGE('',*,*,#657,.T.);
#951=ORIENTED_EDGE('',*,*,#684,.T.);
#952=ORIENTED_EDGE('',*,*,#563,.T.);
#953=ORIENTED_EDGE('',*,*,#685,.T.);
#954=ORIENTED_EDGE('',*,*,#684,.F.);
#955=ORIENTED_EDGE('',*,*,#656,.F.);
#956=ORIENTED_EDGE('',*,*,#639,.F.);
#957=ORIENTED_EDGE('',*,*,#686,.F.);
#958=ORIENTED_EDGE('',*,*,#564,.T.);
#959=ORIENTED_EDGE('',*,*,#683,.F.);
#960=ORIENTED_EDGE('',*,*,#658,.F.);
#961=ORIENTED_EDGE('',*,*,#685,.F.);
#962=ORIENTED_EDGE('',*,*,#562,.T.);
#963=ORIENTED_EDGE('',*,*,#644,.T.);
#964=ORIENTED_EDGE('',*,*,#687,.F.);
#965=ORIENTED_EDGE('',*,*,#565,.T.);
#966=ORIENTED_EDGE('',*,*,#686,.T.);
#967=ORIENTED_EDGE('',*,*,#643,.T.);
#968=ORIENTED_EDGE('',*,*,#688,.F.);
#969=ORIENTED_EDGE('',*,*,#566,.T.);
#970=ORIENTED_EDGE('',*,*,#687,.T.);
#971=ORIENTED_EDGE('',*,*,#642,.T.);
#972=ORIENTED_EDGE('',*,*,#689,.F.);
#973=ORIENTED_EDGE('',*,*,#567,.T.);
#974=ORIENTED_EDGE('',*,*,#688,.T.);
#975=ORIENTED_EDGE('',*,*,#568,.T.);
#976=ORIENTED_EDGE('',*,*,#689,.T.);
#977=ORIENTED_EDGE('',*,*,#633,.T.);
#978=ORIENTED_EDGE('',*,*,#655,.F.);
#979=ORIENTED_EDGE('',*,*,#613,.F.);
#980=ORIENTED_EDGE('',*,*,#690,.F.);
#981=ORIENTED_EDGE('',*,*,#618,.T.);
#982=ORIENTED_EDGE('',*,*,#691,.F.);
#983=ORIENTED_EDGE('',*,*,#569,.T.);
#984=ORIENTED_EDGE('',*,*,#690,.T.);
#985=ORIENTED_EDGE('',*,*,#617,.T.);
#986=ORIENTED_EDGE('',*,*,#692,.F.);
#987=ORIENTED_EDGE('',*,*,#570,.T.);
#988=ORIENTED_EDGE('',*,*,#691,.T.);
#989=ORIENTED_EDGE('',*,*,#616,.T.);
#990=ORIENTED_EDGE('',*,*,#693,.F.);
#991=ORIENTED_EDGE('',*,*,#571,.T.);
#992=ORIENTED_EDGE('',*,*,#692,.T.);
#993=ORIENTED_EDGE('',*,*,#572,.T.);
#994=ORIENTED_EDGE('',*,*,#693,.T.);
#995=ORIENTED_EDGE('',*,*,#607,.T.);
#996=ORIENTED_EDGE('',*,*,#654,.F.);
#997=ORIENTED_EDGE('',*,*,#626,.F.);
#998=ORIENTED_EDGE('',*,*,#694,.F.);
#999=ORIENTED_EDGE('',*,*,#631,.T.);
#1000=ORIENTED_EDGE('',*,*,#695,.F.);
#1001=ORIENTED_EDGE('',*,*,#573,.T.);
#1002=ORIENTED_EDGE('',*,*,#694,.T.);
#1003=ORIENTED_EDGE('',*,*,#630,.T.);
#1004=ORIENTED_EDGE('',*,*,#696,.F.);
#1005=ORIENTED_EDGE('',*,*,#574,.T.);
#1006=ORIENTED_EDGE('',*,*,#695,.T.);
#1007=ORIENTED_EDGE('',*,*,#629,.T.);
#1008=ORIENTED_EDGE('',*,*,#697,.F.);
#1009=ORIENTED_EDGE('',*,*,#575,.T.);
#1010=ORIENTED_EDGE('',*,*,#696,.T.);
#1011=ORIENTED_EDGE('',*,*,#576,.T.);
#1012=ORIENTED_EDGE('',*,*,#697,.T.);
#1013=ORIENTED_EDGE('',*,*,#620,.T.);
#1014=ORIENTED_EDGE('',*,*,#653,.F.);
#1015=ORIENTED_EDGE('',*,*,#600,.F.);
#1016=ORIENTED_EDGE('',*,*,#698,.F.);
#1017=ORIENTED_EDGE('',*,*,#605,.T.);
#1018=ORIENTED_EDGE('',*,*,#699,.F.);
#1019=ORIENTED_EDGE('',*,*,#577,.T.);
#1020=ORIENTED_EDGE('',*,*,#698,.T.);
#1021=ORIENTED_EDGE('',*,*,#604,.T.);
#1022=ORIENTED_EDGE('',*,*,#700,.F.);
#1023=ORIENTED_EDGE('',*,*,#578,.T.);
#1024=ORIENTED_EDGE('',*,*,#699,.T.);
#1025=ORIENTED_EDGE('',*,*,#603,.T.);
#1026=ORIENTED_EDGE('',*,*,#701,.F.);
#1027=ORIENTED_EDGE('',*,*,#579,.T.);
#1028=ORIENTED_EDGE('',*,*,#700,.T.);
#1029=ORIENTED_EDGE('',*,*,#680,.F.);
#1030=ORIENTED_EDGE('',*,*,#580,.T.);
#1031=ORIENTED_EDGE('',*,*,#701,.T.);
#1032=ORIENTED_EDGE('',*,*,#594,.T.);
#1033=ORIENTED_EDGE('',*,*,#668,.F.);
#1034=PLANE('',#1140);
#1035=PLANE('',#1157);
#1036=PLANE('',#1160);
#1037=PLANE('',#1181);
#1038=PLANE('',#1182);
#1039=PLANE('',#1183);
#1040=PLANE('',#1184);
#1041=PLANE('',#1188);
#1042=PLANE('',#1189);
#1043=PLANE('',#1190);
#1044=PLANE('',#1194);
#1045=PLANE('',#1195);
#1046=PLANE('',#1196);
#1047=PLANE('',#1200);
#1048=PLANE('',#1201);
#1049=PLANE('',#1202);
#1050=PLANE('',#1214);
#1051=PLANE('',#1235);
#1052=PLANE('',#1238);
#1053=PLANE('',#1244);
#1054=PLANE('',#1245);
#1055=PLANE('',#1247);
#1056=PLANE('',#1249);
#1057=PLANE('',#1251);
#1058=PLANE('',#1253);
#1059=PLANE('',#1255);
#1060=PLANE('',#1257);
#1061=PLANE('',#1259);
#1062=ADVANCED_FACE('',(#47),#1034,.T.);
#1063=ADVANCED_FACE('',(#48),#20,.T.);
#1064=ADVANCED_FACE('',(#49),#21,.F.);
#1065=ADVANCED_FACE('',(#50),#1035,.T.);
#1066=ADVANCED_FACE('',(#51),#22,.F.);
#1067=ADVANCED_FACE('',(#52,#15,#16,#17,#18),#1036,.F.);
#1068=ADVANCED_FACE('',(#53),#23,.F.);
#1069=ADVANCED_FACE('',(#54),#1037,.T.);
#1070=ADVANCED_FACE('',(#55),#1038,.F.);
#1071=ADVANCED_FACE('',(#56),#1039,.F.);
#1072=ADVANCED_FACE('',(#57),#1040,.T.);
#1073=ADVANCED_FACE('',(#58),#1041,.F.);
#1074=ADVANCED_FACE('',(#59),#1042,.F.);
#1075=ADVANCED_FACE('',(#60),#1043,.T.);
#1076=ADVANCED_FACE('',(#61),#1044,.F.);
#1077=ADVANCED_FACE('',(#62),#1045,.F.);
#1078=ADVANCED_FACE('',(#63),#1046,.T.);
#1079=ADVANCED_FACE('',(#64),#1047,.F.);
#1080=ADVANCED_FACE('',(#65),#1048,.F.);
#1081=ADVANCED_FACE('',(#66),#1049,.T.);
#1082=ADVANCED_FACE('',(#67),#24,.F.);
#1083=ADVANCED_FACE('',(#68),#25,.F.);
#1084=ADVANCED_FACE('',(#69),#26,.F.);
#1085=ADVANCED_FACE('',(#70),#27,.F.);
#1086=ADVANCED_FACE('',(#71,#19),#1050,.T.);
#1087=ADVANCED_FACE('',(#72),#28,.F.);
#1088=ADVANCED_FACE('',(#73),#29,.T.);
#1089=ADVANCED_FACE('',(#74),#30,.F.);
#1090=ADVANCED_FACE('',(#75),#31,.T.);
#1091=ADVANCED_FACE('',(#76),#1051,.T.);
#1092=ADVANCED_FACE('',(#77),#32,.T.);
#1093=ADVANCED_FACE('',(#78),#33,.T.);
#1094=ADVANCED_FACE('',(#79),#1052,.T.);
#1095=ADVANCED_FACE('',(#80),#34,.T.);
#1096=ADVANCED_FACE('',(#81),#35,.T.);
#1097=ADVANCED_FACE('',(#82),#36,.F.);
#1098=ADVANCED_FACE('',(#83),#37,.T.);
#1099=ADVANCED_FACE('',(#84),#38,.T.);
#1100=ADVANCED_FACE('',(#85),#1053,.T.);
#1101=ADVANCED_FACE('',(#86),#1054,.T.);
#1102=ADVANCED_FACE('',(#87),#39,.T.);
#1103=ADVANCED_FACE('',(#88),#1055,.T.);
#1104=ADVANCED_FACE('',(#89),#40,.T.);
#1105=ADVANCED_FACE('',(#90),#1056,.T.);
#1106=ADVANCED_FACE('',(#91),#41,.T.);
#1107=ADVANCED_FACE('',(#92),#1057,.T.);
#1108=ADVANCED_FACE('',(#93),#42,.T.);
#1109=ADVANCED_FACE('',(#94),#1058,.T.);
#1110=ADVANCED_FACE('',(#95),#43,.T.);
#1111=ADVANCED_FACE('',(#96),#1059,.T.);
#1112=ADVANCED_FACE('',(#97),#44,.T.);
#1113=ADVANCED_FACE('',(#98),#1060,.T.);
#1114=ADVANCED_FACE('',(#99),#45,.T.);
#1115=ADVANCED_FACE('',(#100),#1061,.T.);
#1116=ADVANCED_FACE('',(#101),#46,.T.);
#1117=CLOSED_SHELL('',(#1062,#1063,#1064,#1065,#1066,#1067,#1068,#1069,
#1070,#1071,#1072,#1073,#1074,#1075,#1076,#1077,#1078,#1079,#1080,#1081,
#1082,#1083,#1084,#1085,#1086,#1087,#1088,#1089,#1090,#1091,#1092,#1093,
#1094,#1095,#1096,#1097,#1098,#1099,#1100,#1101,#1102,#1103,#1104,#1105,
#1106,#1107,#1108,#1109,#1110,#1111,#1112,#1113,#1114,#1115,#1116));
#1118=DERIVED_UNIT_ELEMENT(#1121,1.);
#1119=DERIVED_UNIT_ELEMENT(#1940,-3.);
#1120=DIMENSIONAL_EXPONENTS(0.,1.,0.,0.,0.,0.,0.);
#1121=(
CONVERSION_BASED_UNIT('gram',#1123)
MASS_UNIT()
NAMED_UNIT(#1120)
);
#1122=(
MASS_UNIT()
NAMED_UNIT(*)
SI_UNIT(.KILO.,.GRAM.)
);
#1123=MASS_MEASURE_WITH_UNIT(MASS_MEASURE(0.001),#1122);
#1124=DERIVED_UNIT((#1118,#1119));
#1125=MEASURE_REPRESENTATION_ITEM('density measure',
POSITIVE_RATIO_MEASURE(1.),#1124);
#1126=PROPERTY_DEFINITION_REPRESENTATION(#1131,#1128);
#1127=PROPERTY_DEFINITION_REPRESENTATION(#1132,#1129);
#1128=REPRESENTATION('material name',(#1130),#1937);
#1129=REPRESENTATION('density',(#1125),#1937);
#1130=DESCRIPTIVE_REPRESENTATION_ITEM('Generic','Generic');
#1131=PROPERTY_DEFINITION('material property','material name',#1947);
#1132=PROPERTY_DEFINITION('material property','density of part',#1947);
#1133=DATE_TIME_ROLE('creation_date');
#1134=APPLIED_DATE_AND_TIME_ASSIGNMENT(#1135,#1133,(#1947));
#1135=DATE_AND_TIME(#1136,#1137);
#1136=CALENDAR_DATE(2026,5,5);
#1137=LOCAL_TIME(0,0,0.,#1138);
#1138=COORDINATED_UNIVERSAL_TIME_OFFSET(0,0,.BEHIND.);
#1139=AXIS2_PLACEMENT_3D('',#1605,#1261,#1262);
#1140=AXIS2_PLACEMENT_3D('',#1606,#1263,#1264);
#1141=AXIS2_PLACEMENT_3D('',#1611,#1266,#1267);
#1142=AXIS2_PLACEMENT_3D('',#1613,#1268,#1269);
#1143=AXIS2_PLACEMENT_3D('',#1615,#1270,#1271);
#1144=AXIS2_PLACEMENT_3D('',#1619,#1273,#1274);
#1145=AXIS2_PLACEMENT_3D('',#1621,#1275,#1276);
#1146=AXIS2_PLACEMENT_3D('',#1623,#1277,#1278);
#1147=AXIS2_PLACEMENT_3D('',#1627,#1280,#1281);
#1148=AXIS2_PLACEMENT_3D('',#1629,#1282,#1283);
#1149=AXIS2_PLACEMENT_3D('',#1631,#1284,#1285);
#1150=AXIS2_PLACEMENT_3D('',#1633,#1286,#1287);
#1151=AXIS2_PLACEMENT_3D('',#1635,#1288,#1289);
#1152=AXIS2_PLACEMENT_3D('',#1636,#1290,#1291);
#1153=AXIS2_PLACEMENT_3D('',#1637,#1292,#1293);
#1154=AXIS2_PLACEMENT_3D('',#1641,#1295,#1296);
#1155=AXIS2_PLACEMENT_3D('',#1643,#1298,#1299);
#1156=AXIS2_PLACEMENT_3D('',#1646,#1301,#1302);
#1157=AXIS2_PLACEMENT_3D('',#1647,#1303,#1304);
#1158=AXIS2_PLACEMENT_3D('',#1651,#1307,#1308);
#1159=AXIS2_PLACEMENT_3D('',#1654,#1310,#1311);
#1160=AXIS2_PLACEMENT_3D('',#1655,#1312,#1313);
#1161=AXIS2_PLACEMENT_3D('',#1658,#1314,#1315);
#1162=AXIS2_PLACEMENT_3D('',#1660,#1316,#1317);
#1163=AXIS2_PLACEMENT_3D('',#1664,#1319,#1320);
#1164=AXIS2_PLACEMENT_3D('',#1666,#1321,#1322);
#1165=AXIS2_PLACEMENT_3D('',#1670,#1324,#1325);
#1166=AXIS2_PLACEMENT_3D('',#1674,#1327,#1328);
#1167=AXIS2_PLACEMENT_3D('',#1678,#1330,#1331);
#1168=AXIS2_PLACEMENT_3D('',#1682,#1333,#1334);
#1169=AXIS2_PLACEMENT_3D('',#1686,#1336,#1337);
#1170=AXIS2_PLACEMENT_3D('',#1690,#1339,#1340);
#1171=AXIS2_PLACEMENT_3D('',#1694,#1342,#1343);
#1172=AXIS2_PLACEMENT_3D('',#1698,#1345,#1346);
#1173=AXIS2_PLACEMENT_3D('',#1700,#1347,#1348);
#1174=AXIS2_PLACEMENT_3D('',#1703,#1350,#1351);
#1175=AXIS2_PLACEMENT_3D('',#1705,#1352,#1353);
#1176=AXIS2_PLACEMENT_3D('',#1707,#1354,#1355);
#1177=AXIS2_PLACEMENT_3D('',#1709,#1356,#1357);
#1178=AXIS2_PLACEMENT_3D('',#1711,#1358,#1359);
#1179=AXIS2_PLACEMENT_3D('',#1712,#1360,#1361);
#1180=AXIS2_PLACEMENT_3D('',#1716,#1363,#1364);
#1181=AXIS2_PLACEMENT_3D('',#1718,#1366,#1367);
#1182=AXIS2_PLACEMENT_3D('',#1722,#1370,#1371);
#1183=AXIS2_PLACEMENT_3D('',#1731,#1376,#1377);
#1184=AXIS2_PLACEMENT_3D('',#1740,#1382,#1383);
#1185=AXIS2_PLACEMENT_3D('',#1742,#1384,#1385);
#1186=AXIS2_PLACEMENT_3D('',#1743,#1386,#1387);
#1187=AXIS2_PLACEMENT_3D('',#1747,#1389,#1390);
#1188=AXIS2_PLACEMENT_3D('',#1749,#1392,#1393);
#1189=AXIS2_PLACEMENT_3D('',#1758,#1398,#1399);
#1190=AXIS2_PLACEMENT_3D('',#1767,#1404,#1405);
#1191=AXIS2_PLACEMENT_3D('',#1769,#1406,#1407);
#1192=AXIS2_PLACEMENT_3D('',#1770,#1408,#1409);
#1193=AXIS2_PLACEMENT_3D('',#1774,#1411,#1412);
#1194=AXIS2_PLACEMENT_3D('',#1776,#1414,#1415);
#1195=AXIS2_PLACEMENT_3D('',#1785,#1420,#1421);
#1196=AXIS2_PLACEMENT_3D('',#1794,#1426,#1427);
#1197=AXIS2_PLACEMENT_3D('',#1796,#1428,#1429);
#1198=AXIS2_PLACEMENT_3D('',#1797,#1430,#1431);
#1199=AXIS2_PLACEMENT_3D('',#1801,#1433,#1434);
#1200=AXIS2_PLACEMENT_3D('',#1803,#1436,#1437);
#1201=AXIS2_PLACEMENT_3D('',#1812,#1442,#1443);
#1202=AXIS2_PLACEMENT_3D('',#1821,#1448,#1449);
#1203=AXIS2_PLACEMENT_3D('',#1823,#1450,#1451);
#1204=AXIS2_PLACEMENT_3D('',#1824,#1452,#1453);
#1205=AXIS2_PLACEMENT_3D('',#1828,#1455,#1456);
#1206=AXIS2_PLACEMENT_3D('',#1830,#1458,#1459);
#1207=AXIS2_PLACEMENT_3D('',#1832,#1461,#1462);
#1208=AXIS2_PLACEMENT_3D('',#1833,#1463,#1464);
#1209=AXIS2_PLACEMENT_3D('',#1835,#1466,#1467);
#1210=AXIS2_PLACEMENT_3D('',#1836,#1468,#1469);
#1211=AXIS2_PLACEMENT_3D('',#1838,#1471,#1472);
#1212=AXIS2_PLACEMENT_3D('',#1839,#1473,#1474);
#1213=AXIS2_PLACEMENT_3D('',#1841,#1476,#1477);
#1214=AXIS2_PLACEMENT_3D('',#1842,#1478,#1479);
#1215=AXIS2_PLACEMENT_3D('',#1843,#1480,#1481);
#1216=AXIS2_PLACEMENT_3D('',#1844,#1482,#1483);
#1217=AXIS2_PLACEMENT_3D('',#1845,#1484,#1485);
#1218=AXIS2_PLACEMENT_3D('',#1847,#1486,#1487);
#1219=AXIS2_PLACEMENT_3D('',#1849,#1488,#1489);
#1220=AXIS2_PLACEMENT_3D('',#1853,#1491,#1492);
#1221=AXIS2_PLACEMENT_3D('',#1855,#1493,#1494);
#1222=AXIS2_PLACEMENT_3D('',#1857,#1495,#1496);
#1223=AXIS2_PLACEMENT_3D('',#1860,#1498,#1499);
#1224=AXIS2_PLACEMENT_3D('',#1862,#1500,#1501);
#1225=AXIS2_PLACEMENT_3D('',#1864,#1502,#1503);
#1226=AXIS2_PLACEMENT_3D('',#1868,#1505,#1506);
#1227=AXIS2_PLACEMENT_3D('',#1869,#1507,#1508);
#1228=AXIS2_PLACEMENT_3D('',#1871,#1509,#1510);
#1229=AXIS2_PLACEMENT_3D('',#1873,#1511,#1512);
#1230=AXIS2_PLACEMENT_3D('',#1874,#1513,#1514);
#1231=AXIS2_PLACEMENT_3D('',#1875,#1515,#1516);
#1232=AXIS2_PLACEMENT_3D('',#1877,#1518,#1519);
#1233=AXIS2_PLACEMENT_3D('',#1879,#1521,#1522);
#1234=AXIS2_PLACEMENT_3D('',#1882,#1525,#1526);
#1235=AXIS2_PLACEMENT_3D('',#1885,#1529,#1530);
#1236=AXIS2_PLACEMENT_3D('',#1887,#1532,#1533);
#1237=AXIS2_PLACEMENT_3D('',#1888,#1534,#1535);
#1238=AXIS2_PLACEMENT_3D('',#1891,#1538,#1539);
#1239=AXIS2_PLACEMENT_3D('',#1893,#1541,#1542);
#1240=AXIS2_PLACEMENT_3D('',#1894,#1543,#1544);
#1241=AXIS2_PLACEMENT_3D('',#1897,#1547,#1548);
#1242=AXIS2_PLACEMENT_3D('',#1898,#1549,#1550);
#1243=AXIS2_PLACEMENT_3D('',#1901,#1553,#1554);
#1244=AXIS2_PLACEMENT_3D('',#1903,#1556,#1557);
#1245=AXIS2_PLACEMENT_3D('',#1904,#1558,#1559);
#1246=AXIS2_PLACEMENT_3D('',#1906,#1561,#1562);
#1247=AXIS2_PLACEMENT_3D('',#1908,#1564,#1565);
#1248=AXIS2_PLACEMENT_3D('',#1910,#1567,#1568);
#1249=AXIS2_PLACEMENT_3D('',#1912,#1570,#1571);
#1250=AXIS2_PLACEMENT_3D('',#1914,#1573,#1574);
#1251=AXIS2_PLACEMENT_3D('',#1916,#1576,#1577);
#1252=AXIS2_PLACEMENT_3D('',#1918,#1579,#1580);
#1253=AXIS2_PLACEMENT_3D('',#1920,#1582,#1583);
#1254=AXIS2_PLACEMENT_3D('',#1922,#1585,#1586);
#1255=AXIS2_PLACEMENT_3D('',#1924,#1588,#1589);
#1256=AXIS2_PLACEMENT_3D('',#1926,#1591,#1592);
#1257=AXIS2_PLACEMENT_3D('',#1928,#1594,#1595);
#1258=AXIS2_PLACEMENT_3D('',#1930,#1597,#1598);
#1259=AXIS2_PLACEMENT_3D('',#1932,#1600,#1601);
#1260=AXIS2_PLACEMENT_3D('',#1934,#1603,#1604);
#1261=DIRECTION('axis',(0.,0.,1.));
#1262=DIRECTION('refdir',(1.,0.,0.));
#1263=DIRECTION('center_axis',(0.,0.,-1.));
#1264=DIRECTION('ref_axis',(-1.,0.,0.));
#1265=DIRECTION('',(0.181792916542634,-0.983336837251063,0.));
#1266=DIRECTION('center_axis',(0.,0.,-1.));
#1267=DIRECTION('ref_axis',(0.616758085412505,0.787152757778502,0.));
#1268=DIRECTION('center_axis',(0.,0.,1.));
#1269=DIRECTION('ref_axis',(-1.,0.,0.));
#1270=DIRECTION('center_axis',(0.,0.,-1.));
#1271=DIRECTION('ref_axis',(-0.776536183292469,0.630072659331894,0.));
#1272=DIRECTION('',(-0.177935631145062,0.984042128757203,0.));
#1273=DIRECTION('center_axis',(0.,0.,-1.));
#1274=DIRECTION('ref_axis',(-0.659162066717476,-0.752000910771221,0.));
#1275=DIRECTION('center_axis',(0.,0.,1.));
#1276=DIRECTION('ref_axis',(0.990613888526496,0.136689882063069,0.));
#1277=DIRECTION('center_axis',(0.,0.,1.));
#1278=DIRECTION('ref_axis',(0.729168493549314,0.684334207836364,0.));
#1279=DIRECTION('',(3.38233267023845E-17,1.,0.));
#1280=DIRECTION('center_axis',(0.,0.,1.));
#1281=DIRECTION('ref_axis',(0.682787661481769,-0.730616869041673,0.));
#1282=DIRECTION('center_axis',(0.,0.,-1.));
#1283=DIRECTION('ref_axis',(-0.99010948737872,-0.140296838890431,0.));
#1284=DIRECTION('center_axis',(0.,0.,1.));
#1285=DIRECTION('ref_axis',(0.704289286548966,-0.709913093873009,0.));
#1286=DIRECTION('center_axis',(0.,0.,1.));
#1287=DIRECTION('ref_axis',(-1.,0.,0.));
#1288=DIRECTION('center_axis',(0.,0.,1.));
#1289=DIRECTION('ref_axis',(0.990613888526496,0.136689882063069,0.));
#1290=DIRECTION('center_axis',(0.,0.,-1.));
#1291=DIRECTION('ref_axis',(0.76358203098526,-0.645710834628339,0.));
#1292=DIRECTION('center_axis',(0.,0.,1.));
#1293=DIRECTION('ref_axis',(0.990613888526496,0.136689882063069,0.));
#1294=DIRECTION('',(0.,0.,-1.));
#1295=DIRECTION('center_axis',(0.,0.,1.));
#1296=DIRECTION('ref_axis',(0.990613888526496,0.136689882063069,0.));
#1297=DIRECTION('',(0.,0.,1.));
#1298=DIRECTION('center_axis',(0.,0.,1.));
#1299=DIRECTION('ref_axis',(-0.659162066717476,-0.752000910771221,0.));
#1300=DIRECTION('',(0.,0.,1.));
#1301=DIRECTION('center_axis',(0.,0.,1.));
#1302=DIRECTION('ref_axis',(-0.659162066717476,-0.752000910771221,0.));
#1303=DIRECTION('center_axis',(0.984042128757203,0.177935631145062,0.));
#1304=DIRECTION('ref_axis',(-0.177935631145062,0.984042128757203,0.));
#1305=DIRECTION('',(0.,0.,-1.));
#1306=DIRECTION('',(-0.177935631145062,0.984042128757203,0.));
#1307=DIRECTION('center_axis',(0.,0.,1.));
#1308=DIRECTION('ref_axis',(-0.776536183292469,0.630072659331894,0.));
#1309=DIRECTION('',(0.,0.,1.));
#1310=DIRECTION('center_axis',(0.,0.,1.));
#1311=DIRECTION('ref_axis',(-0.776536183292469,0.630072659331894,0.));
#1312=DIRECTION('center_axis',(0.,0.,1.));
#1313=DIRECTION('ref_axis',(1.,0.,0.));
#1314=DIRECTION('center_axis',(0.,0.,-1.));
#1315=DIRECTION('ref_axis',(-1.,-1.32331350118255E-16,0.));
#1316=DIRECTION('center_axis',(0.,0.,1.));
#1317=DIRECTION('ref_axis',(0.704289286548966,-0.709913093873009,0.));
#1318=DIRECTION('',(1.,-8.88178419700113E-15,0.));
#1319=DIRECTION('center_axis',(0.,0.,1.));
#1320=DIRECTION('ref_axis',(-0.709414529295333,-0.704791476696959,0.));
#1321=DIRECTION('center_axis',(0.,0.,1.));
#1322=DIRECTION('ref_axis',(-0.990982488583495,0.133991444954009,0.));
#1323=DIRECTION('',(0.986918767387755,-0.161218319609882,0.));
#1324=DIRECTION('center_axis',(0.,0.,1.));
#1325=DIRECTION('ref_axis',(0.213380669552502,0.976969134548951,0.));
#1326=DIRECTION('',(-0.976969134548942,0.213380669552545,0.));
#1327=DIRECTION('center_axis',(0.,0.,1.));
#1328=DIRECTION('ref_axis',(-0.856247763442592,0.516565356561547,0.));
#1329=DIRECTION('',(0.841704418464239,-0.539938581634779,0.));
#1330=DIRECTION('center_axis',(0.,0.,1.));
#1331=DIRECTION('ref_axis',(0.583858385852503,0.811855519947798,0.));
#1332=DIRECTION('',(-0.811855519947805,0.583858385852493,0.));
#1333=DIRECTION('center_axis',(0.,0.,1.));
#1334=DIRECTION('ref_axis',(-0.605984178366545,0.795476697062474,0.));
#1335=DIRECTION('',(0.583858385852505,-0.811855519947796,0.));
#1336=DIRECTION('center_axis',(0.,0.,1.));
#1337=DIRECTION('ref_axis',(0.841704418464239,0.53993858163478,0.));
#1338=DIRECTION('',(-0.539938581634781,0.841704418464238,0.));
#1339=DIRECTION('center_axis',(0.,0.,1.));
#1340=DIRECTION('ref_axis',(-0.240191733355355,0.970725466456789,0.));
#1341=DIRECTION('',(0.213380669552545,-0.976969134548941,0.));
#1342=DIRECTION('center_axis',(0.,0.,1.));
#1343=DIRECTION('ref_axis',(0.986918767387749,0.161218319609922,0.));
#1344=DIRECTION('',(-0.161218319609888,0.986918767387754,0.));
#1345=DIRECTION('center_axis',(0.,0.,1.));
#1346=DIRECTION('ref_axis',(0.133991265844505,0.990982512801002,0.));
#1347=DIRECTION('center_axis',(0.,0.,1.));
#1348=DIRECTION('ref_axis',(0.704487584464975,0.709716311870246,0.));
#1349=DIRECTION('',(3.38233267023845E-17,1.,0.));
#1350=DIRECTION('center_axis',(0.,0.,1.));
#1351=DIRECTION('ref_axis',(0.709716383054477,-0.704487512752405,0.));
#1352=DIRECTION('center_axis',(0.,0.,-1.));
#1353=DIRECTION('ref_axis',(-1.,0.,0.));
#1354=DIRECTION('center_axis',(0.,0.,-1.));
#1355=DIRECTION('ref_axis',(-1.,0.,0.));
#1356=DIRECTION('center_axis',(0.,0.,-1.));
#1357=DIRECTION('ref_axis',(-1.,0.,0.));
#1358=DIRECTION('center_axis',(0.,0.,-1.));
#1359=DIRECTION('ref_axis',(-1.,0.,0.));
#1360=DIRECTION('center_axis',(0.,0.,1.));
#1361=DIRECTION('ref_axis',(0.616758085412505,0.787152757778502,0.));
#1362=DIRECTION('',(0.,0.,1.));
#1363=DIRECTION('center_axis',(0.,0.,1.));
#1364=DIRECTION('ref_axis',(0.616758085412505,0.787152757778502,0.));
#1365=DIRECTION('',(0.,0.,-1.));
#1366=DIRECTION('center_axis',(-0.983336837251063,-0.181792916542634,0.));
#1367=DIRECTION('ref_axis',(0.181792916542634,-0.983336837251063,0.));
#1368=DIRECTION('',(0.,0.,-1.));
#1369=DIRECTION('',(0.181792916542634,-0.983336837251063,0.));
#1370=DIRECTION('center_axis',(0.209203030068741,-0.977872226934612,0.));
#1371=DIRECTION('ref_axis',(-0.977872226934612,-0.209203030068741,0.));
#1372=DIRECTION('',(-0.977872226934612,-0.209203030068741,0.));
#1373=DIRECTION('',(0.,0.,1.));
#1374=DIRECTION('',(-0.977872226934612,-0.209203030068741,0.));
#1375=DIRECTION('',(0.,0.,-1.));
#1376=DIRECTION('center_axis',(0.165305498587765,-0.986242410432978,0.));
#1377=DIRECTION('ref_axis',(-0.986242410432978,-0.165305498587765,0.));
#1378=DIRECTION('',(-0.986242410432978,-0.165305498587765,0.));
#1379=DIRECTION('',(0.,0.,1.));
#1380=DIRECTION('',(-0.986242410432978,-0.165305498587765,0.));
#1381=DIRECTION('',(0.,0.,1.));
#1382=DIRECTION('center_axis',(0.,0.,1.));
#1383=DIRECTION('ref_axis',(1.,0.,0.));
#1384=DIRECTION('center_axis',(0.,0.,1.));
#1385=DIRECTION('ref_axis',(-1.,0.,0.));
#1386=DIRECTION('center_axis',(0.,0.,1.));
#1387=DIRECTION('ref_axis',(-1.,0.,0.));
#1388=DIRECTION('',(0.161218319609888,-0.986918767387754,0.));
#1389=DIRECTION('center_axis',(0.,0.,-1.));
#1390=DIRECTION('ref_axis',(0.986918767387749,0.161218319609922,0.));
#1391=DIRECTION('',(-0.213380669552545,0.976969134548941,0.));
#1392=DIRECTION('center_axis',(0.835707007979539,-0.549175561012949,0.));
#1393=DIRECTION('ref_axis',(-0.549175561012949,-0.835707007979539,0.));
#1394=DIRECTION('',(-0.549175561012949,-0.835707007979539,0.));
#1395=DIRECTION('',(0.,0.,1.));
#1396=DIRECTION('',(-0.549175561012949,-0.835707007979539,0.));
#1397=DIRECTION('',(0.,0.,-1.));
#1398=DIRECTION('center_axis',(0.818000861049479,-0.57521699498738,0.));
#1399=DIRECTION('ref_axis',(-0.57521699498738,-0.818000861049479,0.));
#1400=DIRECTION('',(-0.57521699498738,-0.818000861049479,0.));
#1401=DIRECTION('',(0.,0.,1.));
#1402=DIRECTION('',(-0.57521699498738,-0.818000861049479,0.));
#1403=DIRECTION('',(0.,0.,1.));
#1404=DIRECTION('center_axis',(0.,0.,1.));
#1405=DIRECTION('ref_axis',(1.,0.,0.));
#1406=DIRECTION('center_axis',(0.,0.,1.));
#1407=DIRECTION('ref_axis',(-1.,0.,0.));
#1408=DIRECTION('center_axis',(0.,0.,1.));
#1409=DIRECTION('ref_axis',(-1.,0.,0.));
#1410=DIRECTION('',(0.811855519947805,-0.583858385852493,0.));
#1411=DIRECTION('center_axis',(0.,0.,-1.));
#1412=DIRECTION('ref_axis',(0.583858385852503,0.811855519947798,0.));
#1413=DIRECTION('',(-0.841704418464239,0.539938581634779,0.));
#1414=DIRECTION('center_axis',(0.578307341405796,-0.815818986587196,0.));
#1415=DIRECTION('ref_axis',(-0.815818986587196,-0.578307341405796,0.));
#1416=DIRECTION('',(-0.815818986587196,-0.578307341405796,0.));
#1417=DIRECTION('',(0.,0.,1.));
#1418=DIRECTION('',(-0.815818986587196,-0.578307341405796,0.));
#1419=DIRECTION('',(0.,0.,-1.));
#1420=DIRECTION('center_axis',(0.545372286688905,-0.838193932757638,0.));
#1421=DIRECTION('ref_axis',(-0.838193932757637,-0.545372286688905,0.));
#1422=DIRECTION('',(-0.838193932757637,-0.545372286688905,0.));
#1423=DIRECTION('',(0.,0.,1.));
#1424=DIRECTION('',(-0.838193932757637,-0.545372286688905,0.));
#1425=DIRECTION('',(0.,0.,1.));
#1426=DIRECTION('center_axis',(0.,0.,1.));
#1427=DIRECTION('ref_axis',(1.,0.,0.));
#1428=DIRECTION('center_axis',(0.,0.,1.));
#1429=DIRECTION('ref_axis',(-1.,0.,0.));
#1430=DIRECTION('center_axis',(0.,0.,1.));
#1431=DIRECTION('ref_axis',(-1.,0.,0.));
#1432=DIRECTION('',(0.539938581634781,-0.841704418464238,0.));
#1433=DIRECTION('center_axis',(0.,0.,-1.));
#1434=DIRECTION('ref_axis',(0.841704418464239,0.53993858163478,0.));
#1435=DIRECTION('',(-0.583858385852505,0.811855519947796,0.));
#1436=DIRECTION('center_axis',(0.984061701967726,-0.177827350878265,0.));
#1437=DIRECTION('ref_axis',(-0.177827350878265,-0.984061701967726,0.));
#1438=DIRECTION('',(-0.177827350878265,-0.984061701967726,0.));
#1439=DIRECTION('',(0.,0.,1.));
#1440=DIRECTION('',(-0.177827350878265,-0.984061701967726,0.));
#1441=DIRECTION('',(0.,0.,-1.));
#1442=DIRECTION('center_axis',(0.980366379746876,-0.197184587283097,0.));
#1443=DIRECTION('ref_axis',(-0.197184587283097,-0.980366379746875,0.));
#1444=DIRECTION('',(-0.197184587283097,-0.980366379746875,0.));
#1445=DIRECTION('',(0.,0.,1.));
#1446=DIRECTION('',(-0.197184587283097,-0.980366379746875,0.));
#1447=DIRECTION('',(0.,0.,1.));
#1448=DIRECTION('center_axis',(0.,0.,1.));
#1449=DIRECTION('ref_axis',(1.,0.,0.));
#1450=DIRECTION('center_axis',(0.,0.,1.));
#1451=DIRECTION('ref_axis',(-1.,0.,0.));
#1452=DIRECTION('center_axis',(0.,0.,1.));
#1453=DIRECTION('ref_axis',(-1.,0.,0.));
#1454=DIRECTION('',(0.976969134548942,-0.213380669552545,0.));
#1455=DIRECTION('center_axis',(0.,0.,-1.));
#1456=DIRECTION('ref_axis',(0.213380669552502,0.976969134548951,0.));
#1457=DIRECTION('',(-0.986918767387755,0.161218319609882,0.));
#1458=DIRECTION('center_axis',(0.,0.,1.));
#1459=DIRECTION('ref_axis',(-1.,0.,0.));
#1460=DIRECTION('',(0.,0.,-1.));
#1461=DIRECTION('center_axis',(0.,0.,-1.));
#1462=DIRECTION('ref_axis',(-1.,0.,0.));
#1463=DIRECTION('center_axis',(0.,0.,1.));
#1464=DIRECTION('ref_axis',(-1.,0.,0.));
#1465=DIRECTION('',(0.,0.,-1.));
#1466=DIRECTION('center_axis',(0.,0.,-1.));
#1467=DIRECTION('ref_axis',(-1.,0.,0.));
#1468=DIRECTION('center_axis',(0.,0.,1.));
#1469=DIRECTION('ref_axis',(-1.,0.,0.));
#1470=DIRECTION('',(0.,0.,-1.));
#1471=DIRECTION('center_axis',(0.,0.,-1.));
#1472=DIRECTION('ref_axis',(-1.,0.,0.));
#1473=DIRECTION('center_axis',(0.,0.,1.));
#1474=DIRECTION('ref_axis',(-1.,0.,0.));
#1475=DIRECTION('',(0.,0.,-1.));
#1476=DIRECTION('center_axis',(0.,0.,-1.));
#1477=DIRECTION('ref_axis',(-1.,0.,0.));
#1478=DIRECTION('center_axis',(0.,0.,1.));
#1479=DIRECTION('ref_axis',(1.,0.,0.));
#1480=DIRECTION('center_axis',(0.,0.,1.));
#1481=DIRECTION('ref_axis',(-0.240191733355355,0.970725466456789,0.));
#1482=DIRECTION('center_axis',(0.,0.,1.));
#1483=DIRECTION('ref_axis',(-0.605984178366545,0.795476697062474,0.));
#1484=DIRECTION('center_axis',(0.,0.,1.));
#1485=DIRECTION('ref_axis',(-0.856247763442592,0.516565356561547,0.));
#1486=DIRECTION('center_axis',(0.,0.,1.));
#1487=DIRECTION('ref_axis',(-0.990982488583495,0.133991444954009,0.));
#1488=DIRECTION('center_axis',(0.,0.,-1.));
#1489=DIRECTION('ref_axis',(-0.709414529295333,-0.704791476696959,0.));
#1490=DIRECTION('',(1.,-8.88178419700113E-15,0.));
#1491=DIRECTION('center_axis',(0.,0.,-1.));
#1492=DIRECTION('ref_axis',(0.704289286548966,-0.709913093873009,0.));
#1493=DIRECTION('center_axis',(0.,0.,-1.));
#1494=DIRECTION('ref_axis',(-0.99010948737872,-0.140296838890431,0.));
#1495=DIRECTION('center_axis',(0.,0.,-1.));
#1496=DIRECTION('ref_axis',(0.682787661481769,-0.730616869041673,0.));
#1497=DIRECTION('',(3.38233267023845E-17,1.,0.));
#1498=DIRECTION('center_axis',(0.,0.,-1.));
#1499=DIRECTION('ref_axis',(0.729168493549314,0.684334207836364,0.));
#1500=DIRECTION('center_axis',(0.,0.,-1.));
#1501=DIRECTION('ref_axis',(-1.,-1.32331350118255E-16,0.));
#1502=DIRECTION('center_axis',(0.,0.,-1.));
#1503=DIRECTION('ref_axis',(0.709716383054477,-0.704487512752405,0.));
#1504=DIRECTION('',(3.38233267023845E-17,1.,0.));
#1505=DIRECTION('center_axis',(0.,0.,-1.));
#1506=DIRECTION('ref_axis',(0.704487584464975,0.709716311870246,0.));
#1507=DIRECTION('center_axis',(0.,0.,1.));
#1508=DIRECTION('ref_axis',(0.133991265844505,0.990982512801002,0.));
#1509=DIRECTION('center_axis',(0.,0.,1.));
#1510=DIRECTION('ref_axis',(0.76358203098526,-0.645710834628339,0.));
#1511=DIRECTION('center_axis',(0.,0.,1.));
#1512=DIRECTION('ref_axis',(0.990613888526496,0.136689882063069,0.));
#1513=DIRECTION('center_axis',(0.,0.,-1.));
#1514=DIRECTION('ref_axis',(-1.,-1.32331350118255E-16,0.));
#1515=DIRECTION('center_axis',(0.,0.,1.));
#1516=DIRECTION('ref_axis',(0.76358203098526,-0.645710834628339,0.));
#1517=DIRECTION('',(0.,0.,1.));
#1518=DIRECTION('center_axis',(0.,0.,1.));
#1519=DIRECTION('ref_axis',(0.990613888526496,0.136689882063069,0.));
#1520=DIRECTION('',(0.,0.,1.));
#1521=DIRECTION('center_axis',(0.,0.,1.));
#1522=DIRECTION('ref_axis',(-1.,-1.32331350118255E-16,0.));
#1523=DIRECTION('',(0.,0.,-1.));
#1524=DIRECTION('',(0.,0.,1.));
#1525=DIRECTION('center_axis',(0.,0.,1.));
#1526=DIRECTION('ref_axis',(0.682787661481769,-0.730616869041673,0.));
#1527=DIRECTION('',(0.,0.,1.));
#1528=DIRECTION('',(0.,0.,-1.));
#1529=DIRECTION('center_axis',(1.,-3.38233267023845E-17,0.));
#1530=DIRECTION('ref_axis',(3.38233267023845E-17,1.,0.));
#1531=DIRECTION('',(0.,0.,-1.));
#1532=DIRECTION('center_axis',(0.,0.,1.));
#1533=DIRECTION('ref_axis',(0.729168493549314,0.684334207836364,0.));
#1534=DIRECTION('center_axis',(0.,0.,1.));
#1535=DIRECTION('ref_axis',(0.704487584464975,0.709716311870246,0.));
#1536=DIRECTION('',(0.,0.,-1.));
#1537=DIRECTION('',(0.,0.,1.));
#1538=DIRECTION('center_axis',(1.,-3.38233267023845E-17,0.));
#1539=DIRECTION('ref_axis',(3.38233267023845E-17,1.,0.));
#1540=DIRECTION('',(0.,0.,1.));
#1541=DIRECTION('center_axis',(0.,0.,1.));
#1542=DIRECTION('ref_axis',(0.709716383054477,-0.704487512752405,0.));
#1543=DIRECTION('center_axis',(0.,0.,1.));
#1544=DIRECTION('ref_axis',(0.704289286548966,-0.709913093873009,0.));
#1545=DIRECTION('',(0.,0.,1.));
#1546=DIRECTION('',(0.,0.,-1.));
#1547=DIRECTION('center_axis',(0.,0.,1.));
#1548=DIRECTION('ref_axis',(-0.99010948737872,-0.140296838890431,0.));
#1549=DIRECTION('center_axis',(0.,0.,1.));
#1550=DIRECTION('ref_axis',(-0.709414529295333,-0.704791476696959,0.));
#1551=DIRECTION('',(0.,0.,-1.));
#1552=DIRECTION('',(0.,0.,1.));
#1553=DIRECTION('center_axis',(0.,0.,1.));
#1554=DIRECTION('ref_axis',(-0.990982488583495,0.133991444954009,0.));
#1555=DIRECTION('',(0.,0.,1.));
#1556=DIRECTION('center_axis',(-8.88178419700113E-15,-1.,0.));
#1557=DIRECTION('ref_axis',(1.,-8.88178419700113E-15,0.));
#1558=DIRECTION('center_axis',(-0.161218319609882,-0.986918767387755,0.));
#1559=DIRECTION('ref_axis',(0.986918767387755,-0.161218319609882,0.));
#1560=DIRECTION('',(0.,0.,1.));
#1561=DIRECTION('center_axis',(0.,0.,1.));
#1562=DIRECTION('ref_axis',(-0.982290257780874,0.187365550378891,0.));
#1563=DIRECTION('',(0.,0.,1.));
#1564=DIRECTION('center_axis',(0.213380669552545,0.976969134548941,0.));
#1565=DIRECTION('ref_axis',(-0.976969134548942,0.213380669552545,0.));
#1566=DIRECTION('',(0.,0.,1.));
#1567=DIRECTION('center_axis',(0.,0.,1.));
#1568=DIRECTION('ref_axis',(-0.856247763442592,0.516565356561547,0.));
#1569=DIRECTION('',(0.,0.,1.));
#1570=DIRECTION('center_axis',(-0.539938581634779,-0.841704418464239,0.));
#1571=DIRECTION('ref_axis',(0.841704418464239,-0.539938581634779,0.));
#1572=DIRECTION('',(0.,0.,1.));
#1573=DIRECTION('center_axis',(0.,0.,1.));
#1574=DIRECTION('ref_axis',(-0.827071553604001,0.562096651136675,0.));
#1575=DIRECTION('',(0.,0.,1.));
#1576=DIRECTION('center_axis',(0.583858385852493,0.811855519947805,0.));
#1577=DIRECTION('ref_axis',(-0.811855519947805,0.583858385852493,0.));
#1578=DIRECTION('',(0.,0.,1.));
#1579=DIRECTION('center_axis',(0.,0.,1.));
#1580=DIRECTION('ref_axis',(-0.605984178366545,0.795476697062474,0.));
#1581=DIRECTION('',(0.,0.,1.));
#1582=DIRECTION('center_axis',(-0.811855519947796,-0.583858385852505,0.));
#1583=DIRECTION('ref_axis',(0.583858385852505,-0.811855519947796,0.));
#1584=DIRECTION('',(0.,0.,1.));
#1585=DIRECTION('center_axis',(0.,0.,1.));
#1586=DIRECTION('ref_axis',(-0.562096651136674,0.827071553604001,0.));
#1587=DIRECTION('',(0.,0.,1.));
#1588=DIRECTION('center_axis',(0.841704418464238,0.539938581634781,0.));
#1589=DIRECTION('ref_axis',(-0.539938581634781,0.841704418464238,0.));
#1590=DIRECTION('',(0.,0.,1.));
#1591=DIRECTION('center_axis',(0.,0.,1.));
#1592=DIRECTION('ref_axis',(-0.240191733355355,0.970725466456789,0.));
#1593=DIRECTION('',(0.,0.,1.));
#1594=DIRECTION('center_axis',(-0.976969134548941,-0.213380669552545,0.));
#1595=DIRECTION('ref_axis',(0.213380669552545,-0.976969134548941,0.));
#1596=DIRECTION('',(0.,0.,1.));
#1597=DIRECTION('center_axis',(0.,0.,1.));
#1598=DIRECTION('ref_axis',(-0.187365550378889,0.982290257780874,0.));
#1599=DIRECTION('',(0.,0.,1.));
#1600=DIRECTION('center_axis',(0.986918767387754,0.161218319609888,0.));
#1601=DIRECTION('ref_axis',(-0.161218319609888,0.986918767387754,0.));
#1602=DIRECTION('',(0.,0.,1.));
#1603=DIRECTION('center_axis',(0.,0.,1.));
#1604=DIRECTION('ref_axis',(0.133991265844505,0.990982512801002,0.));
#1605=CARTESIAN_POINT('',(0.,0.,0.));
#1606=CARTESIAN_POINT('Origin',(-67.1160263688243,-46.6607087283232,15.));
#1607=CARTESIAN_POINT('',(-6.84000088004154,18.9519088099372,15.));
#1608=CARTESIAN_POINT('',(-5.97513736134594,14.2737718764308,15.));
#1609=CARTESIAN_POINT('',(-2.05144530525108,-6.94988749471199,15.));
#1610=CARTESIAN_POINT('',(-7.88205582311714,19.7683904969223,15.));
#1611=CARTESIAN_POINT('Origin',(-7.8233377172926,18.7701158933946,15.));
#1612=CARTESIAN_POINT('',(-3.84056744651119,19.9450481610513,15.));
#1613=CARTESIAN_POINT('Origin',(0.,-114.235526034673,15.));
#1614=CARTESIAN_POINT('',(-4.79599891190705,18.7675218987267,15.));
#1615=CARTESIAN_POINT('Origin',(-3.81195678314985,18.9454575298718,15.));
#1616=CARTESIAN_POINT('',(-3.89517252308084,13.7856578864619,15.));
#1617=CARTESIAN_POINT('',(0.467001981205257,-10.3385911893658,15.));
#1618=CARTESIAN_POINT('',(-2.95861230210782,12.9647214194717,15.));
#1619=CARTESIAN_POINT('Origin',(-2.91113039432363,13.963593517607,15.));
#1620=CARTESIAN_POINT('',(-0.936651239245954,12.8524727587093,15.));
#1621=CARTESIAN_POINT('Origin',(-9.00000000000029,-114.127341369381,15.));
#1622=CARTESIAN_POINT('',(-2.46232159117898E-5,11.8544828718847,15.));
#1623=CARTESIAN_POINT('Origin',(-1.0000246232159,11.8544828718847,15.));
#1624=CARTESIAN_POINT('',(-2.46232159117898E-5,11.2123632493243,15.));
#1625=CARTESIAN_POINT('',(-2.46232159106796E-5,-18.2614992008414,15.));
#1626=CARTESIAN_POINT('',(-1.06762664187243,10.2146508824201,15.));
#1627=CARTESIAN_POINT('Origin',(-1.0000246232159,11.2123632493243,15.));
#1628=CARTESIAN_POINT('',(-134.231580998145,-113.243479236378,15.));
#1629=CARTESIAN_POINT('Origin',(-9.50000000000023,-114.235526034673,15.));
#1630=CARTESIAN_POINT('',(-134.232028114433,-113.266465617698,15.));
#1631=CARTESIAN_POINT('Origin',(-135.231549370936,-113.235526034673,15.));
#1632=CARTESIAN_POINT('',(-105.180628713473,-30.8316184928548,15.));
#1633=CARTESIAN_POINT('Origin',(0.,-114.235526034673,15.));
#1634=CARTESIAN_POINT('',(-6.97439431942714,13.0921056930424,15.));
#1635=CARTESIAN_POINT('Origin',(-9.00000000000029,-114.127341369381,15.));
#1636=CARTESIAN_POINT('Origin',(-6.95847419859702,14.0919789598881,15.));
#1637=CARTESIAN_POINT('Origin',(-9.00000000000029,-114.127341369381,0.));
#1638=CARTESIAN_POINT('',(-2.95861230210782,12.9647214194717,30.));
#1639=CARTESIAN_POINT('',(-2.95861230210782,12.9647214194717,0.));
#1640=CARTESIAN_POINT('',(-0.936651239245954,12.8524727587093,30.));
#1641=CARTESIAN_POINT('Origin',(-9.00000000000029,-114.127341369381,30.));
#1642=CARTESIAN_POINT('',(-0.936651239245954,12.8524727587093,0.));
#1643=CARTESIAN_POINT('Origin',(-2.91113039432363,13.963593517607,0.));
#1644=CARTESIAN_POINT('',(-3.89517252308084,13.7856578864619,30.));
#1645=CARTESIAN_POINT('',(-3.89517252308084,13.7856578864619,0.));
#1646=CARTESIAN_POINT('Origin',(-2.91113039432363,13.963593517607,30.));
#1647=CARTESIAN_POINT('Origin',(-3.75310895912728,13.,0.));
#1648=CARTESIAN_POINT('',(-4.79599891190705,18.7675218987267,30.));
#1649=CARTESIAN_POINT('',(-4.79599891190705,18.7675218987267,0.));
#1650=CARTESIAN_POINT('',(-3.75310895912728,13.,30.));
#1651=CARTESIAN_POINT('Origin',(-3.81195678314985,18.9454575298718,0.));
#1652=CARTESIAN_POINT('',(-3.8405674465112,19.9450481610514,30.));
#1653=CARTESIAN_POINT('',(-3.8405674465112,19.9450481610514,0.));
#1654=CARTESIAN_POINT('Origin',(-3.81195678314985,18.9454575298718,30.));
#1655=CARTESIAN_POINT('Origin',(-73.1171775730324,-41.0604668657033,0.));
#1656=CARTESIAN_POINT('',(-134.232028114433,-113.266465617698,0.));
#1657=CARTESIAN_POINT('',(-0.992629934464083,19.996329855122,0.));
#1658=CARTESIAN_POINT('Origin',(0.,-114.235526034673,0.));
#1659=CARTESIAN_POINT('',(-135.231549370936,-114.235526034673,0.));
#1660=CARTESIAN_POINT('Origin',(-135.231549370936,-113.235526034673,0.));
#1661=CARTESIAN_POINT('',(-135.23268494423,-114.235526034673,0.));
#1662=CARTESIAN_POINT('',(-136.235526034674,-114.235526034673,0.));
#1663=CARTESIAN_POINT('',(-136.232663571614,-113.228988085923,0.));
#1664=CARTESIAN_POINT('Origin',(-135.23268494423,-113.235526034673,0.));
#1665=CARTESIAN_POINT('',(-135.007069869755,-95.865293985694,0.));
#1666=CARTESIAN_POINT('Origin',(-4.92464324153286E-5,-114.11968897315,0.));
#1667=CARTESIAN_POINT('',(-139.943467919923,-95.0589076600189,0.));
#1668=CARTESIAN_POINT('',(-139.943467919923,-95.0589076600189,0.));
#1669=CARTESIAN_POINT('',(-137.133975501205,-80.3297483954937,0.));
#1670=CARTESIAN_POINT('Origin',(-138.734330522849,-87.6570169046108,0.));
#1671=CARTESIAN_POINT('',(-132.247343804427,-81.3970418303027,0.));
#1672=CARTESIAN_POINT('',(-132.247343804427,-81.3970418303027,0.));
#1673=CARTESIAN_POINT('',(-116.651413715047,-43.7451358906983,0.));
#1674=CARTESIAN_POINT('Origin',(-4.92464324391984E-5,-114.11968897315,0.));
#1675=CARTESIAN_POINT('',(-120.861474550269,-41.0444559060149,0.));
#1676=CARTESIAN_POINT('',(-120.861474550269,-41.0444559060149,0.));
#1677=CARTESIAN_POINT('',(-112.432997294115,-28.6427563679246,0.));
#1678=CARTESIAN_POINT('Origin',(-116.811935188008,-34.7316727675331,0.));
#1679=CARTESIAN_POINT('',(-108.372235519064,-31.5631156646936,0.));
#1680=CARTESIAN_POINT('',(-108.372235519064,-31.5631156646936,0.));
#1681=CARTESIAN_POINT('',(-82.5566225548884,-5.74750270051851,0.));
#1682=CARTESIAN_POINT('Origin',(-4.92464324980402E-5,-114.11968897315,0.));
#1683=CARTESIAN_POINT('',(-85.4769818516575,-1.68674092546751,0.));
#1684=CARTESIAN_POINT('',(-85.4769818516575,-1.68674092546751,0.));
#1685=CARTESIAN_POINT('',(-73.0752823135672,6.7417363306871,0.));
#1686=CARTESIAN_POINT('Origin',(-79.388065452049,2.69219696842626,0.));
#1687=CARTESIAN_POINT('',(-70.3746023288838,2.53167549546506,0.));
#1688=CARTESIAN_POINT('',(-70.3746023288838,2.53167549546506,0.));
#1689=CARTESIAN_POINT('',(-32.7226963892794,18.1276055848452,0.));
#1690=CARTESIAN_POINT('Origin',(-4.92464325280162E-5,-114.11968897315,0.));
#1691=CARTESIAN_POINT('',(-33.7899898240884,23.0142372816231,0.));
#1692=CARTESIAN_POINT('',(-33.7899898240884,23.0142372816231,0.));
#1693=CARTESIAN_POINT('',(-19.0608305595632,25.8237297003413,0.));
#1694=CARTESIAN_POINT('Origin',(-26.4627213149713,24.6145923032669,0.));
#1695=CARTESIAN_POINT('',(-18.254444233888,20.8873316501731,0.));
#1696=CARTESIAN_POINT('',(-18.254444233888,20.8873316501731,0.));
#1697=CARTESIAN_POINT('',(-1.00741910988532,22.112112428056,0.));
#1698=CARTESIAN_POINT('Origin',(-2.46232496792231E-5,-114.120054850189,
0.));
#1699=CARTESIAN_POINT('',(-2.46232159114187E-5,21.1121397676462,0.));
#1700=CARTESIAN_POINT('Origin',(-1.00002462321591,21.1121397676462,0.));
#1701=CARTESIAN_POINT('',(-2.46232159114226E-5,20.9963025140374,0.));
#1702=CARTESIAN_POINT('',(-2.46232159117898E-5,10.1377103266404,0.));
#1703=CARTESIAN_POINT('Origin',(-1.00002462321591,20.9963025140374,0.));
#1704=CARTESIAN_POINT('',(-133.484281276416,-87.7728539661347,0.));
#1705=CARTESIAN_POINT('Origin',(-138.734281276416,-87.7728539661347,0.));
#1706=CARTESIAN_POINT('',(-111.561885941576,-34.847509829057,0.));
#1707=CARTESIAN_POINT('Origin',(-116.811885941576,-34.847509829057,0.));
#1708=CARTESIAN_POINT('',(-74.1380162056165,2.57635990690236,0.));
#1709=CARTESIAN_POINT('Origin',(-79.3880162056165,2.57635990690236,0.));
#1710=CARTESIAN_POINT('',(-21.2126720685387,24.498755241743,0.));
#1711=CARTESIAN_POINT('Origin',(-26.4626720685387,24.498755241743,0.));
#1712=CARTESIAN_POINT('Origin',(-7.8233377172926,18.7701158933946,0.));
#1713=CARTESIAN_POINT('',(-6.84000088004154,18.9519088099372,30.));
#1714=CARTESIAN_POINT('',(-6.84000088004154,18.9519088099372,0.));
#1715=CARTESIAN_POINT('',(-7.88205582311714,19.7683904969223,30.));
#1716=CARTESIAN_POINT('Origin',(-7.8233377172926,18.7701158933946,30.));
#1717=CARTESIAN_POINT('',(-7.88205582311714,19.7683904969223,0.));
#1718=CARTESIAN_POINT('Origin',(-7.,19.8173607294899,0.));
#1719=CARTESIAN_POINT('',(-5.97513736134594,14.2737718764308,30.));
#1720=CARTESIAN_POINT('',(-5.97513736134594,14.2737718764308,0.));
#1721=CARTESIAN_POINT('',(-7.,19.8173607294899,30.));
#1722=CARTESIAN_POINT('Origin',(-18.254444233888,20.8873316501731,30.));
#1723=CARTESIAN_POINT('',(-18.254444233888,20.8873316501731,30.));
#1724=CARTESIAN_POINT('',(-25.2502545903019,19.390669116934,30.));
#1725=CARTESIAN_POINT('',(-50.8217015301411,13.9199910102185,30.));
#1726=CARTESIAN_POINT('',(-18.254444233888,20.8873316501731,10.));
#1727=CARTESIAN_POINT('',(-18.254444233888,20.8873316501731,0.));
#1728=CARTESIAN_POINT('',(-25.2502545903019,19.390669116934,10.));
#1729=CARTESIAN_POINT('',(-25.4790029290496,19.3417313883934,10.));
#1730=CARTESIAN_POINT('',(-25.2502545902994,19.3906691169346,0.));
#1731=CARTESIAN_POINT('Origin',(-25.711069365821,19.3028344015774,30.));
#1732=CARTESIAN_POINT('',(-25.711069365821,19.3028344015774,30.));
#1733=CARTESIAN_POINT('',(-32.7226963892794,18.1276055848452,30.));
#1734=CARTESIAN_POINT('',(-53.6869695362088,14.6137538295127,30.));
#1735=CARTESIAN_POINT('',(-25.711069365821,19.3028344015774,10.));
#1736=CARTESIAN_POINT('',(-25.7110693658226,19.3028344015771,0.));
#1737=CARTESIAN_POINT('',(-32.7226963892794,18.1276055848452,10.));
#1738=CARTESIAN_POINT('',(-32.7226963892794,18.1276055848452,10.));
#1739=CARTESIAN_POINT('',(-32.7226963892794,18.1276055848452,0.));
#1740=CARTESIAN_POINT('Origin',(-26.1085827744297,25.1210989440561,10.));
#1741=CARTESIAN_POINT('',(-21.2126720685387,24.498755241743,10.));
#1742=CARTESIAN_POINT('Origin',(-26.4626720685387,24.498755241743,10.));
#1743=CARTESIAN_POINT('Origin',(-26.4626720685387,24.498755241743,10.));
#1744=CARTESIAN_POINT('',(-19.0608305595632,25.8237297003413,10.));
#1745=CARTESIAN_POINT('',(-18.6933301080792,23.5740282180864,10.));
#1746=CARTESIAN_POINT('',(-33.7899898240884,23.0142372816231,10.));
#1747=CARTESIAN_POINT('Origin',(-26.4627213149713,24.6145923032669,10.));
#1748=CARTESIAN_POINT('',(-33.8347224179999,23.219046665957,10.));
#1749=CARTESIAN_POINT('Origin',(-108.372235519064,-31.5631156646936,30.));
#1750=CARTESIAN_POINT('',(-108.372235519064,-31.5631156646936,30.));
#1751=CARTESIAN_POINT('',(-112.380147698735,-37.6621494413246,30.));
#1752=CARTESIAN_POINT('',(-105.235286153186,-26.7894681194438,30.));
#1753=CARTESIAN_POINT('',(-108.372235519064,-31.5631156646936,10.));
#1754=CARTESIAN_POINT('',(-108.372235519064,-31.5631156646936,0.));
#1755=CARTESIAN_POINT('',(-112.380147698735,-37.6621494413246,10.));
#1756=CARTESIAN_POINT('',(-112.469760285155,-37.7985172475245,10.));
#1757=CARTESIAN_POINT('',(-112.380147698739,-37.6621494413297,0.));
#1758=CARTESIAN_POINT('Origin',(-112.566095168637,-37.9355125350849,30.));
#1759=CARTESIAN_POINT('',(-112.566095168638,-37.9355125350847,30.));
#1760=CARTESIAN_POINT('',(-116.651413715047,-43.7451358906983,30.));
#1761=CARTESIAN_POINT('',(-106.774962176109,-29.7000956130858,30.));
#1762=CARTESIAN_POINT('',(-112.566095168638,-37.9355125350847,10.));
#1763=CARTESIAN_POINT('',(-112.566095168623,-37.9355125350647,0.));
#1764=CARTESIAN_POINT('',(-116.651413715047,-43.7451358906983,10.));
#1765=CARTESIAN_POINT('',(-116.651413715047,-43.7451358906983,10.));
#1766=CARTESIAN_POINT('',(-116.651413715047,-43.7451358906983,0.));
#1767=CARTESIAN_POINT('Origin',(-116.342085353536,-35.4884043291157,10.));
#1768=CARTESIAN_POINT('',(-111.561885941576,-34.847509829057,10.));
#1769=CARTESIAN_POINT('Origin',(-116.811885941576,-34.847509829057,10.));
#1770=CARTESIAN_POINT('Origin',(-116.811885941576,-34.847509829057,10.));
#1771=CARTESIAN_POINT('',(-112.432997294115,-28.6427563679246,10.));
#1772=CARTESIAN_POINT('',(-110.068426534551,-30.3432738035903,10.));
#1773=CARTESIAN_POINT('',(-120.861474550269,-41.0444559060149,10.));
#1774=CARTESIAN_POINT('Origin',(-116.811935188008,-34.7316727675331,10.));
#1775=CARTESIAN_POINT('',(-120.5230827561,-41.2615282907767,10.));
#1776=CARTESIAN_POINT('Origin',(-70.3746023288838,2.53167549546506,30.));
#1777=CARTESIAN_POINT('',(-70.3746023288838,2.53167549546506,30.));
#1778=CARTESIAN_POINT('',(-76.2679788224125,-1.64594594741581,30.));
#1779=CARTESIAN_POINT('',(-81.5705353540275,-5.4047544832164,30.));
#1780=CARTESIAN_POINT('',(-70.3746023288838,2.53167549546506,10.));
#1781=CARTESIAN_POINT('',(-70.3746023288838,2.53167549546506,0.));
#1782=CARTESIAN_POINT('',(-76.2679788224125,-1.64594594741581,10.));
#1783=CARTESIAN_POINT('',(-76.4370087871489,-1.76576574951865,10.));
#1784=CARTESIAN_POINT('',(-76.2679788224104,-1.64594594741429,0.));
#1785=CARTESIAN_POINT('Origin',(-76.6137696639944,-1.88077551018964,30.));
#1786=CARTESIAN_POINT('',(-76.6137696639943,-1.8807755101898,30.));
#1787=CARTESIAN_POINT('',(-82.5566225548884,-5.74750270051851,30.));
#1788=CARTESIAN_POINT('',(-84.3405328559595,-6.90820692673766,30.));
#1789=CARTESIAN_POINT('',(-76.6137696639943,-1.8807755101898,10.));
#1790=CARTESIAN_POINT('',(-76.6137696640022,-1.88077551019475,0.));
#1791=CARTESIAN_POINT('',(-82.5566225548884,-5.74750270051851,10.));
#1792=CARTESIAN_POINT('',(-82.5566225548884,-5.74750270051851,10.));
#1793=CARTESIAN_POINT('',(-82.5566225548884,-5.74750270051851,0.));
#1794=CARTESIAN_POINT('Origin',(-78.6313338904664,2.22234713395387,10.));
#1795=CARTESIAN_POINT('',(-74.1380162056165,2.57635990690236,10.));
#1796=CARTESIAN_POINT('Origin',(-79.3880162056165,2.57635990690236,10.));
#1797=CARTESIAN_POINT('Origin',(-79.3880162056165,2.57635990690236,10.));
#1798=CARTESIAN_POINT('',(-73.0752823135672,6.7417363306871,10.));
#1799=CARTESIAN_POINT('',(-71.5078699364637,4.29831411890687,10.));
#1800=CARTESIAN_POINT('',(-85.4769818516575,-1.68674092546751,10.));
#1801=CARTESIAN_POINT('Origin',(-79.388065452049,2.69219696842626,10.));
#1802=CARTESIAN_POINT('',(-85.2366440643762,-2.02093079750552,10.));
#1803=CARTESIAN_POINT('Origin',(-132.247343804427,-81.3970418303027,30.));
#1804=CARTESIAN_POINT('',(-132.247343804427,-81.3970418303027,30.));
#1805=CARTESIAN_POINT('',(-133.559143489048,-88.6562841454642,30.));
#1806=CARTESIAN_POINT('',(-127.783109133985,-56.6928422452445,30.));
#1807=CARTESIAN_POINT('',(-132.247343804427,-81.3970418303027,10.));
#1808=CARTESIAN_POINT('',(-132.247343804427,-81.3970418303027,0.));
#1809=CARTESIAN_POINT('',(-133.559143489048,-88.6562841454642,10.));
#1810=CARTESIAN_POINT('',(-133.577257423067,-88.7565231056239,10.));
#1811=CARTESIAN_POINT('',(-133.559143489047,-88.6562841454591,0.));
#1812=CARTESIAN_POINT('Origin',(-133.597973425613,-88.859519352435,30.));
#1813=CARTESIAN_POINT('',(-133.597973425614,-88.8595193524349,30.));
#1814=CARTESIAN_POINT('',(-135.007069869755,-95.865293985694,30.));
#1815=CARTESIAN_POINT('',(-127.802081024869,-60.0433825102452,30.));
#1816=CARTESIAN_POINT('',(-133.597973425614,-88.8595193524349,10.));
#1817=CARTESIAN_POINT('',(-133.597973425601,-88.8595193523749,0.));
#1818=CARTESIAN_POINT('',(-135.007069869755,-95.865293985694,10.));
#1819=CARTESIAN_POINT('',(-135.007069869755,-95.865293985694,10.));
#1820=CARTESIAN_POINT('',(-135.007069869755,-95.865293985694,0.));
#1821=CARTESIAN_POINT('Origin',(-139.240837163638,-88.0111554451524,10.));
#1822=CARTESIAN_POINT('',(-133.484281276416,-87.7728539661347,10.));
#1823=CARTESIAN_POINT('Origin',(-138.734281276416,-87.7728539661347,10.));
#1824=CARTESIAN_POINT('Origin',(-138.734281276416,-87.7728539661347,10.));
#1825=CARTESIAN_POINT('',(-137.133975501205,-80.3297483954937,10.));
#1826=CARTESIAN_POINT('',(-134.89546903715,-80.8186625189867,10.));
#1827=CARTESIAN_POINT('',(-139.943467919923,-95.0589076600189,10.));
#1828=CARTESIAN_POINT('Origin',(-138.734330522849,-87.6570169046108,10.));
#1829=CARTESIAN_POINT('',(-140.161965462752,-95.0232149486653,10.));
#1830=CARTESIAN_POINT('Origin',(-26.4626720685387,24.498755241743,0.));
#1831=CARTESIAN_POINT('',(-21.2126720685387,24.498755241743,0.));
#1832=CARTESIAN_POINT('Origin',(-26.4626720685387,24.498755241743,30.));
#1833=CARTESIAN_POINT('Origin',(-116.811885941576,-34.847509829057,0.));
#1834=CARTESIAN_POINT('',(-111.561885941576,-34.847509829057,0.));
#1835=CARTESIAN_POINT('Origin',(-116.811885941576,-34.847509829057,30.));
#1836=CARTESIAN_POINT('Origin',(-79.3880162056165,2.57635990690236,0.));
#1837=CARTESIAN_POINT('',(-74.1380162056165,2.57635990690236,0.));
#1838=CARTESIAN_POINT('Origin',(-79.3880162056165,2.57635990690236,30.));
#1839=CARTESIAN_POINT('Origin',(-138.734281276416,-87.7728539661347,0.));
#1840=CARTESIAN_POINT('',(-133.484281276416,-87.7728539661347,0.));
#1841=CARTESIAN_POINT('Origin',(-138.734281276416,-87.7728539661347,30.));
#1842=CARTESIAN_POINT('Origin',(-73.1171775730324,-41.0604668657033,30.));
#1843=CARTESIAN_POINT('Origin',(-4.92464325280162E-5,-114.11968897315,30.));
#1844=CARTESIAN_POINT('Origin',(-4.92464324980402E-5,-114.11968897315,30.));
#1845=CARTESIAN_POINT('Origin',(-4.92464324391984E-5,-114.11968897315,30.));
#1846=CARTESIAN_POINT('',(-136.232663571614,-113.228988085923,30.));
#1847=CARTESIAN_POINT('Origin',(-4.92464324153286E-5,-114.11968897315,30.));
#1848=CARTESIAN_POINT('',(-135.23268494423,-114.235526034673,30.));
#1849=CARTESIAN_POINT('Origin',(-135.23268494423,-113.235526034673,30.));
#1850=CARTESIAN_POINT('',(-135.231549370936,-114.235526034673,30.));
#1851=CARTESIAN_POINT('',(-136.235526034674,-114.235526034673,30.));
#1852=CARTESIAN_POINT('',(-134.231580998145,-113.243479236378,30.));
#1853=CARTESIAN_POINT('Origin',(-135.231549370936,-113.235526034673,30.));
#1854=CARTESIAN_POINT('',(-1.06762664187243,10.2146508824201,30.));
#1855=CARTESIAN_POINT('Origin',(-9.50000000000023,-114.235526034673,30.));
#1856=CARTESIAN_POINT('',(-2.46232159117535E-5,11.2123632493243,30.));
#1857=CARTESIAN_POINT('Origin',(-1.0000246232159,11.2123632493243,30.));
#1858=CARTESIAN_POINT('',(-2.46232159117318E-5,11.8544828718847,30.));
#1859=CARTESIAN_POINT('',(-2.46232159117898E-5,10.1377103266404,30.));
#1860=CARTESIAN_POINT('Origin',(-1.0000246232159,11.8544828718847,30.));
#1861=CARTESIAN_POINT('',(-0.992629934464083,19.996329855122,30.));
#1862=CARTESIAN_POINT('Origin',(0.,-114.235526034673,30.));
#1863=CARTESIAN_POINT('',(-2.46232159114226E-5,20.9963025140374,30.));
#1864=CARTESIAN_POINT('Origin',(-1.00002462321591,20.9963025140374,30.));
#1865=CARTESIAN_POINT('',(-2.46232159114187E-5,21.1121397676462,30.));
#1866=CARTESIAN_POINT('',(-2.46232159117898E-5,10.1377103266404,30.));
#1867=CARTESIAN_POINT('',(-1.00741910988532,22.112112428056,30.));
#1868=CARTESIAN_POINT('Origin',(-1.00002462321591,21.1121397676462,30.));
#1869=CARTESIAN_POINT('Origin',(-2.46232496792231E-5,-114.120054850189,
30.));
#1870=CARTESIAN_POINT('',(-6.97439431942714,13.0921056930424,30.));
#1871=CARTESIAN_POINT('Origin',(-6.95847419859702,14.0919789598881,30.));
#1872=CARTESIAN_POINT('',(-105.180628713473,-30.8316184928547,30.));
#1873=CARTESIAN_POINT('Origin',(-9.00000000000029,-114.127341369381,30.));
#1874=CARTESIAN_POINT('Origin',(0.,-114.235526034673,30.));
#1875=CARTESIAN_POINT('Origin',(-6.95847419859702,14.0919789598881,0.));
#1876=CARTESIAN_POINT('',(-6.97439431942714,13.0921056930424,0.));
#1877=CARTESIAN_POINT('Origin',(-9.00000000000029,-114.127341369381,0.));
#1878=CARTESIAN_POINT('',(-105.180628713473,-30.8316184928547,0.));
#1879=CARTESIAN_POINT('Origin',(0.,-114.235526034673,0.));
#1880=CARTESIAN_POINT('',(-0.992629934464084,19.996329855122,0.));
#1881=CARTESIAN_POINT('',(-134.232028114432,-113.266465617657,0.));
#1882=CARTESIAN_POINT('Origin',(-1.0000246232159,11.2123632493243,0.));
#1883=CARTESIAN_POINT('',(-2.46232159117898E-5,11.2123632493243,0.));
#1884=CARTESIAN_POINT('',(-1.06762664187243,10.2146508824202,0.));
#1885=CARTESIAN_POINT('Origin',(-2.46232159117898E-5,10.1377103266404,0.));
#1886=CARTESIAN_POINT('',(-2.46232159117898E-5,11.8544828718847,0.));
#1887=CARTESIAN_POINT('Origin',(-1.0000246232159,11.8544828718847,0.));
#1888=CARTESIAN_POINT('Origin',(-1.00002462321591,21.1121397676462,0.));
#1889=CARTESIAN_POINT('',(-2.46232159115123E-5,21.1121397676462,0.));
#1890=CARTESIAN_POINT('',(-1.00741910988532,22.1121124280559,0.));
#1891=CARTESIAN_POINT('Origin',(-2.46232159114563E-5,19.9999999999982,0.));
#1892=CARTESIAN_POINT('',(-2.46232159115123E-5,20.9963025140374,0.));
#1893=CARTESIAN_POINT('Origin',(-1.00002462321591,20.9963025140374,0.));
#1894=CARTESIAN_POINT('Origin',(-135.231549370936,-113.235526034673,0.));
#1895=CARTESIAN_POINT('',(-134.231580998145,-113.243479236378,0.));
#1896=CARTESIAN_POINT('',(-135.231549370936,-114.235526034673,0.));
#1897=CARTESIAN_POINT('Origin',(-9.50000000000023,-114.235526034673,0.));
#1898=CARTESIAN_POINT('Origin',(-135.23268494423,-113.235526034673,0.));
#1899=CARTESIAN_POINT('',(-136.232663571614,-113.228988085923,0.));
#1900=CARTESIAN_POINT('',(-135.23268494423,-114.235526034673,0.));
#1901=CARTESIAN_POINT('Origin',(-4.92464324153286E-5,-114.11968897315,0.));
#1902=CARTESIAN_POINT('',(-135.007069869755,-95.865293985694,0.));
#1903=CARTESIAN_POINT('Origin',(-136.235526034674,-114.235526034673,0.));
#1904=CARTESIAN_POINT('Origin',(-139.943467919923,-95.0589076600189,0.));
#1905=CARTESIAN_POINT('',(-139.943467919923,-95.0589076600189,0.));
#1906=CARTESIAN_POINT('Origin',(-138.734330522849,-87.6570169046108,0.));
#1907=CARTESIAN_POINT('',(-137.133975501205,-80.3297483954937,0.));
#1908=CARTESIAN_POINT('Origin',(-132.247343804427,-81.3970418303027,0.));
#1909=CARTESIAN_POINT('',(-132.247343804427,-81.3970418303027,0.));
#1910=CARTESIAN_POINT('Origin',(-4.92464324391984E-5,-114.11968897315,0.));
#1911=CARTESIAN_POINT('',(-116.651413715047,-43.7451358906983,0.));
#1912=CARTESIAN_POINT('Origin',(-120.861474550269,-41.0444559060149,0.));
#1913=CARTESIAN_POINT('',(-120.861474550269,-41.0444559060149,0.));
#1914=CARTESIAN_POINT('Origin',(-116.811935188008,-34.7316727675331,0.));
#1915=CARTESIAN_POINT('',(-112.432997294115,-28.6427563679246,0.));
#1916=CARTESIAN_POINT('Origin',(-108.372235519064,-31.5631156646936,0.));
#1917=CARTESIAN_POINT('',(-108.372235519064,-31.5631156646936,0.));
#1918=CARTESIAN_POINT('Origin',(-4.92464324980402E-5,-114.11968897315,0.));
#1919=CARTESIAN_POINT('',(-82.5566225548884,-5.74750270051851,0.));
#1920=CARTESIAN_POINT('Origin',(-85.4769818516575,-1.68674092546751,0.));
#1921=CARTESIAN_POINT('',(-85.4769818516575,-1.68674092546751,0.));
#1922=CARTESIAN_POINT('Origin',(-79.388065452049,2.69219696842626,0.));
#1923=CARTESIAN_POINT('',(-73.0752823135672,6.7417363306871,0.));
#1924=CARTESIAN_POINT('Origin',(-70.3746023288838,2.53167549546506,0.));
#1925=CARTESIAN_POINT('',(-70.3746023288838,2.53167549546506,0.));
#1926=CARTESIAN_POINT('Origin',(-4.92464325280162E-5,-114.11968897315,0.));
#1927=CARTESIAN_POINT('',(-32.7226963892794,18.1276055848452,0.));
#1928=CARTESIAN_POINT('Origin',(-33.7899898240884,23.0142372816231,0.));
#1929=CARTESIAN_POINT('',(-33.7899898240884,23.0142372816231,0.));
#1930=CARTESIAN_POINT('Origin',(-26.4627213149713,24.6145923032669,0.));
#1931=CARTESIAN_POINT('',(-19.0608305595632,25.8237297003413,0.));
#1932=CARTESIAN_POINT('Origin',(-18.254444233888,20.8873316501731,0.));
#1933=CARTESIAN_POINT('',(-18.254444233888,20.8873316501731,0.));
#1934=CARTESIAN_POINT('Origin',(-2.46232496792231E-5,-114.120054850189,
0.));
#1935=UNCERTAINTY_MEASURE_WITH_UNIT(LENGTH_MEASURE(0.01),#1939,
'DISTANCE_ACCURACY_VALUE',
'Maximum model space distance between geometric entities at asserted c
onnectivities');
#1936=UNCERTAINTY_MEASURE_WITH_UNIT(LENGTH_MEASURE(0.01),#1939,
'DISTANCE_ACCURACY_VALUE',
'Maximum model space distance between geometric entities at asserted c
onnectivities');
#1937=(
GEOMETRIC_REPRESENTATION_CONTEXT(3)
GLOBAL_UNCERTAINTY_ASSIGNED_CONTEXT((#1935))
GLOBAL_UNIT_ASSIGNED_CONTEXT((#1939,#1941,#1942))
REPRESENTATION_CONTEXT('','3D')
);
#1938=(
GEOMETRIC_REPRESENTATION_CONTEXT(3)
GLOBAL_UNCERTAINTY_ASSIGNED_CONTEXT((#1936))
GLOBAL_UNIT_ASSIGNED_CONTEXT((#1939,#1941,#1942))
REPRESENTATION_CONTEXT('','3D')
);
#1939=(
LENGTH_UNIT()
NAMED_UNIT(*)
SI_UNIT(.MILLI.,.METRE.)
);
#1940=(
LENGTH_UNIT()
NAMED_UNIT(*)
SI_UNIT(.CENTI.,.METRE.)
);
#1941=(
NAMED_UNIT(*)
PLANE_ANGLE_UNIT()
SI_UNIT($,.RADIAN.)
);
#1942=(
NAMED_UNIT(*)
SI_UNIT($,.STERADIAN.)
SOLID_ANGLE_UNIT()
);
#1943=SHAPE_DEFINITION_REPRESENTATION(#1944,#1945);
#1944=PRODUCT_DEFINITION_SHAPE('',$,#1947);
#1945=SHAPE_REPRESENTATION('',(#1139),#1937);
#1946=PRODUCT_DEFINITION_CONTEXT('part definition',#1951,'design');
#1947=PRODUCT_DEFINITION('HalfFilterwall','HalfFilterwall',#1948,#1946);
#1948=PRODUCT_DEFINITION_FORMATION('',$,#1953);
#1949=PRODUCT_RELATED_PRODUCT_CATEGORY('HalfFilterwall',
'HalfFilterwall',(#1953));
#1950=APPLICATION_PROTOCOL_DEFINITION('international standard',
'automotive_design',2009,#1951);
#1951=APPLICATION_CONTEXT(
'Core Data for Automotive Mechanical Design Process');
#1952=PRODUCT_CONTEXT('part definition',#1951,'mechanical');
#1953=PRODUCT('HalfFilterwall','HalfFilterwall',$,(#1952));
#1954=PRESENTATION_STYLE_ASSIGNMENT((#1955));
#1955=SURFACE_STYLE_USAGE(.BOTH.,#1958);
#1956=SURFACE_STYLE_RENDERING_WITH_PROPERTIES($,#1962,(#1957));
#1957=SURFACE_STYLE_TRANSPARENT(0.);
#1958=SURFACE_SIDE_STYLE('',(#1959,#1956));
#1959=SURFACE_STYLE_FILL_AREA(#1960);
#1960=FILL_AREA_STYLE('',(#1961));
#1961=FILL_AREA_STYLE_COLOUR('',#1962);
#1962=COLOUR_RGB('',0.749019607843137,0.749019607843137,0.749019607843137);
ENDSEC;
END-ISO-10303-21;
