ISO-10303-21;
HEADER;
/* Generated by software containing ST-Developer
 * from STEP Tools, Inc. (www.steptools.com) 
 */

FILE_DESCRIPTION(
/* description */ (''),
/* implementation_level */ '2;1');

FILE_NAME(
/* name */ 'HalfFilterwall2.5.stp',
/* time_stamp */ '2026-05-09T15:38:37+02:00',
/* author */ ('sniel'),
/* organization */ (''),
/* preprocessor_version */ 'ST-DEVELOPER v20.1',
/* originating_system */ 'Autodesk Inventor 2026',
/* authorisation */ '');

FILE_SCHEMA (('AUTOMOTIVE_DESIGN { 1 0 10303 214 3 1 1 }'));
ENDSEC;

DATA;
#10=MECHANICAL_DESIGN_GEOMETRIC_PRESENTATION_REPRESENTATION('',(#13),#1942);
#11=SHAPE_REPRESENTATION_RELATIONSHIP('SRR','None',#1949,#12);
#12=ADVANCED_BREP_SHAPE_REPRESENTATION('',(#14),#1941);
#13=STYLED_ITEM('',(#1958),#14);
#14=MANIFOLD_SOLID_BREP('Solid1',#1109);
#15=FACE_BOUND('',#123,.T.);
#16=FACE_BOUND('',#124,.T.);
#17=FACE_BOUND('',#125,.T.);
#18=FACE_BOUND('',#126,.T.);
#19=FACE_BOUND('',#154,.T.);
#20=FACE_BOUND('',#155,.T.);
#21=FACE_BOUND('',#156,.T.);
#22=CYLINDRICAL_SURFACE('',#1156,5.24999999999999);
#23=CYLINDRICAL_SURFACE('',#1160,5.24999999999999);
#24=CYLINDRICAL_SURFACE('',#1164,5.24999999999999);
#25=CYLINDRICAL_SURFACE('',#1168,5.24999999999999);
#26=CYLINDRICAL_SURFACE('',#1188,127.235572027801);
#27=CYLINDRICAL_SURFACE('',#1192,127.235572027801);
#28=CYLINDRICAL_SURFACE('',#1194,1.);
#29=CYLINDRICAL_SURFACE('',#1197,1.);
#30=CYLINDRICAL_SURFACE('',#1199,124.735526034673);
#31=CYLINDRICAL_SURFACE('',#1201,1.);
#32=CYLINDRICAL_SURFACE('',#1216,1.);
#33=CYLINDRICAL_SURFACE('',#1218,1.);
#34=CYLINDRICAL_SURFACE('',#1221,1.);
#35=CYLINDRICAL_SURFACE('',#1223,136.235526034674);
#36=CYLINDRICAL_SURFACE('',#1230,127.235572027801);
#37=CYLINDRICAL_SURFACE('',#1232,127.235572027801);
#38=CYLINDRICAL_SURFACE('',#1234,127.235572027801);
#39=CYLINDRICAL_SURFACE('',#1236,134.235526034674);
#40=CYLINDRICAL_SURFACE('',#1242,7.49999999999999);
#41=CYLINDRICAL_SURFACE('',#1244,136.235526034674);
#42=CYLINDRICAL_SURFACE('',#1246,7.49999999999998);
#43=CYLINDRICAL_SURFACE('',#1248,136.235526034674);
#44=CYLINDRICAL_SURFACE('',#1250,7.49999999999998);
#45=CYLINDRICAL_SURFACE('',#1252,136.235526034674);
#46=CYLINDRICAL_SURFACE('',#1254,7.49999999999999);
#47=CYLINDRICAL_SURFACE('',#1256,136.235526034674);
#48=FACE_OUTER_BOUND('',#99,.T.);
#49=FACE_OUTER_BOUND('',#100,.T.);
#50=FACE_OUTER_BOUND('',#101,.T.);
#51=FACE_OUTER_BOUND('',#102,.T.);
#52=FACE_OUTER_BOUND('',#103,.T.);
#53=FACE_OUTER_BOUND('',#104,.T.);
#54=FACE_OUTER_BOUND('',#105,.T.);
#55=FACE_OUTER_BOUND('',#106,.T.);
#56=FACE_OUTER_BOUND('',#107,.T.);
#57=FACE_OUTER_BOUND('',#108,.T.);
#58=FACE_OUTER_BOUND('',#109,.T.);
#59=FACE_OUTER_BOUND('',#110,.T.);
#60=FACE_OUTER_BOUND('',#111,.T.);
#61=FACE_OUTER_BOUND('',#112,.T.);
#62=FACE_OUTER_BOUND('',#113,.T.);
#63=FACE_OUTER_BOUND('',#114,.T.);
#64=FACE_OUTER_BOUND('',#115,.T.);
#65=FACE_OUTER_BOUND('',#116,.T.);
#66=FACE_OUTER_BOUND('',#117,.T.);
#67=FACE_OUTER_BOUND('',#118,.T.);
#68=FACE_OUTER_BOUND('',#119,.T.);
#69=FACE_OUTER_BOUND('',#120,.T.);
#70=FACE_OUTER_BOUND('',#121,.T.);
#71=FACE_OUTER_BOUND('',#122,.T.);
#72=FACE_OUTER_BOUND('',#127,.T.);
#73=FACE_OUTER_BOUND('',#128,.T.);
#74=FACE_OUTER_BOUND('',#129,.T.);
#75=FACE_OUTER_BOUND('',#130,.T.);
#76=FACE_OUTER_BOUND('',#131,.T.);
#77=FACE_OUTER_BOUND('',#132,.T.);
#78=FACE_OUTER_BOUND('',#133,.T.);
#79=FACE_OUTER_BOUND('',#134,.T.);
#80=FACE_OUTER_BOUND('',#135,.T.);
#81=FACE_OUTER_BOUND('',#136,.T.);
#82=FACE_OUTER_BOUND('',#137,.T.);
#83=FACE_OUTER_BOUND('',#138,.T.);
#84=FACE_OUTER_BOUND('',#139,.T.);
#85=FACE_OUTER_BOUND('',#140,.T.);
#86=FACE_OUTER_BOUND('',#141,.T.);
#87=FACE_OUTER_BOUND('',#142,.T.);
#88=FACE_OUTER_BOUND('',#143,.T.);
#89=FACE_OUTER_BOUND('',#144,.T.);
#90=FACE_OUTER_BOUND('',#145,.T.);
#91=FACE_OUTER_BOUND('',#146,.T.);
#92=FACE_OUTER_BOUND('',#147,.T.);
#93=FACE_OUTER_BOUND('',#148,.T.);
#94=FACE_OUTER_BOUND('',#149,.T.);
#95=FACE_OUTER_BOUND('',#150,.T.);
#96=FACE_OUTER_BOUND('',#151,.T.);
#97=FACE_OUTER_BOUND('',#152,.T.);
#98=FACE_OUTER_BOUND('',#153,.T.);
#99=EDGE_LOOP('',(#697,#698,#699,#700,#701,#702,#703));
#100=EDGE_LOOP('',(#704,#705,#706,#707,#708,#709,#710));
#101=EDGE_LOOP('',(#711,#712,#713,#714,#715,#716,#717));
#102=EDGE_LOOP('',(#718,#719,#720,#721,#722,#723,#724));
#103=EDGE_LOOP('',(#725,#726,#727,#728,#729,#730,#731,#732));
#104=EDGE_LOOP('',(#733,#734,#735,#736));
#105=EDGE_LOOP('',(#737,#738,#739,#740,#741,#742,#743,#744));
#106=EDGE_LOOP('',(#745,#746,#747,#748));
#107=EDGE_LOOP('',(#749,#750,#751,#752,#753,#754,#755,#756));
#108=EDGE_LOOP('',(#757,#758,#759,#760));
#109=EDGE_LOOP('',(#761,#762,#763,#764,#765,#766,#767,#768));
#110=EDGE_LOOP('',(#769,#770,#771,#772));
#111=EDGE_LOOP('',(#773,#774,#775,#776,#777,#778,#779,#780,#781,#782,#783,
#784,#785,#786,#787,#788,#789,#790,#791,#792,#793,#794,#795,#796));
#112=EDGE_LOOP('',(#797,#798,#799,#800));
#113=EDGE_LOOP('',(#801,#802,#803,#804));
#114=EDGE_LOOP('',(#805,#806,#807,#808));
#115=EDGE_LOOP('',(#809,#810,#811,#812));
#116=EDGE_LOOP('',(#813,#814,#815,#816));
#117=EDGE_LOOP('',(#817,#818,#819,#820));
#118=EDGE_LOOP('',(#821,#822,#823,#824));
#119=EDGE_LOOP('',(#825,#826,#827,#828));
#120=EDGE_LOOP('',(#829,#830,#831,#832));
#121=EDGE_LOOP('',(#833,#834,#835,#836));
#122=EDGE_LOOP('',(#837,#838,#839,#840,#841,#842,#843,#844,#845,#846,#847,
#848,#849,#850,#851,#852,#853,#854,#855,#856));
#123=EDGE_LOOP('',(#857));
#124=EDGE_LOOP('',(#858));
#125=EDGE_LOOP('',(#859));
#126=EDGE_LOOP('',(#860));
#127=EDGE_LOOP('',(#861,#862,#863,#864));
#128=EDGE_LOOP('',(#865,#866,#867,#868));
#129=EDGE_LOOP('',(#869,#870,#871,#872));
#130=EDGE_LOOP('',(#873,#874,#875,#876));
#131=EDGE_LOOP('',(#877,#878,#879,#880,#881,#882));
#132=EDGE_LOOP('',(#883,#884,#885,#886));
#133=EDGE_LOOP('',(#887,#888,#889,#890));
#134=EDGE_LOOP('',(#891,#892,#893,#894));
#135=EDGE_LOOP('',(#895,#896,#897,#898));
#136=EDGE_LOOP('',(#899,#900,#901,#902));
#137=EDGE_LOOP('',(#903,#904,#905,#906));
#138=EDGE_LOOP('',(#907,#908,#909,#910));
#139=EDGE_LOOP('',(#911,#912,#913,#914));
#140=EDGE_LOOP('',(#915,#916,#917,#918,#919,#920,#921,#922,#923,#924,#925,
#926,#927,#928,#929,#930,#931,#932,#933,#934));
#141=EDGE_LOOP('',(#935,#936,#937,#938));
#142=EDGE_LOOP('',(#939,#940,#941,#942));
#143=EDGE_LOOP('',(#943,#944,#945,#946,#947,#948,#949,#950));
#144=EDGE_LOOP('',(#951,#952,#953,#954));
#145=EDGE_LOOP('',(#955,#956,#957,#958));
#146=EDGE_LOOP('',(#959,#960,#961,#962,#963,#964,#965,#966));
#147=EDGE_LOOP('',(#967,#968,#969,#970));
#148=EDGE_LOOP('',(#971,#972,#973,#974));
#149=EDGE_LOOP('',(#975,#976,#977,#978,#979,#980,#981,#982));
#150=EDGE_LOOP('',(#983,#984,#985,#986));
#151=EDGE_LOOP('',(#987,#988,#989,#990));
#152=EDGE_LOOP('',(#991,#992,#993,#994,#995,#996));
#153=EDGE_LOOP('',(#997,#998,#999,#1000,#1001,#1002,#1003,#1004,#1005,#1006,
#1007,#1008,#1009,#1010,#1011,#1012,#1013,#1014,#1015,#1016,#1017,#1018,
#1019,#1020));
#154=EDGE_LOOP('',(#1021,#1022,#1023,#1024));
#155=EDGE_LOOP('',(#1025,#1026,#1027,#1028));
#156=EDGE_LOOP('',(#1029,#1030,#1031,#1032));
#157=CIRCLE('',#1133,136.235526034674);
#158=CIRCLE('',#1134,5.24999999999999);
#159=CIRCLE('',#1135,5.24999999999999);
#160=CIRCLE('',#1136,136.235526034674);
#161=CIRCLE('',#1137,7.49999999999998);
#162=CIRCLE('',#1139,136.235526034674);
#163=CIRCLE('',#1140,5.24999999999999);
#164=CIRCLE('',#1141,5.24999999999999);
#165=CIRCLE('',#1142,136.235526034674);
#166=CIRCLE('',#1143,7.49999999999998);
#167=CIRCLE('',#1145,136.235526034674);
#168=CIRCLE('',#1146,5.24999999999999);
#169=CIRCLE('',#1147,5.24999999999999);
#170=CIRCLE('',#1148,136.235526034674);
#171=CIRCLE('',#1149,7.49999999999999);
#172=CIRCLE('',#1151,136.235526034674);
#173=CIRCLE('',#1152,5.24999999999999);
#174=CIRCLE('',#1153,5.24999999999999);
#175=CIRCLE('',#1154,136.235526034674);
#176=CIRCLE('',#1155,7.49999999999999);
#177=CIRCLE('',#1157,5.24999999999999);
#178=CIRCLE('',#1158,5.24999999999999);
#179=CIRCLE('',#1161,5.24999999999999);
#180=CIRCLE('',#1162,5.24999999999999);
#181=CIRCLE('',#1165,5.24999999999999);
#182=CIRCLE('',#1166,5.24999999999999);
#183=CIRCLE('',#1169,5.24999999999999);
#184=CIRCLE('',#1170,5.24999999999999);
#185=CIRCLE('',#1173,1.);
#186=CIRCLE('',#1174,1.);
#187=CIRCLE('',#1175,124.735526034673);
#188=CIRCLE('',#1176,1.);
#189=CIRCLE('',#1177,1.);
#190=CIRCLE('',#1178,127.235572027801);
#191=CIRCLE('',#1179,134.235526034674);
#192=CIRCLE('',#1180,127.235572027801);
#193=CIRCLE('',#1181,134.235526034674);
#194=CIRCLE('',#1182,127.235572027801);
#195=CIRCLE('',#1183,134.235526034674);
#196=CIRCLE('',#1184,127.235572027801);
#197=CIRCLE('',#1185,134.235526034674);
#198=CIRCLE('',#1186,127.235572027801);
#199=CIRCLE('',#1189,127.235572027801);
#200=CIRCLE('',#1193,127.235572027801);
#201=CIRCLE('',#1195,1.);
#202=CIRCLE('',#1198,1.);
#203=CIRCLE('',#1200,124.735526034673);
#204=CIRCLE('',#1202,1.);
#205=CIRCLE('',#1204,134.235526034674);
#206=CIRCLE('',#1205,1.);
#207=CIRCLE('',#1206,136.235526034674);
#208=CIRCLE('',#1207,7.49999999999999);
#209=CIRCLE('',#1208,136.235526034674);
#210=CIRCLE('',#1209,7.49999999999998);
#211=CIRCLE('',#1210,136.235526034674);
#212=CIRCLE('',#1211,7.49999999999998);
#213=CIRCLE('',#1212,136.235526034674);
#214=CIRCLE('',#1213,7.49999999999999);
#215=CIRCLE('',#1214,136.235526034674);
#216=CIRCLE('',#1215,1.);
#217=CIRCLE('',#1217,1.);
#218=CIRCLE('',#1219,1.);
#219=CIRCLE('',#1222,1.);
#220=CIRCLE('',#1224,136.235526034674);
#221=CIRCLE('',#1231,127.235572027801);
#222=CIRCLE('',#1233,127.235572027801);
#223=CIRCLE('',#1235,127.235572027801);
#224=CIRCLE('',#1237,134.235526034674);
#225=CIRCLE('',#1238,134.235526034674);
#226=CIRCLE('',#1239,134.235526034674);
#227=CIRCLE('',#1240,134.235526034674);
#228=CIRCLE('',#1241,134.235526034674);
#229=CIRCLE('',#1245,136.235526034674);
#230=CIRCLE('',#1249,136.235526034674);
#231=CIRCLE('',#1253,136.235526034674);
#232=CIRCLE('',#1257,136.235526034674);
#233=LINE('',#1611,#325);
#234=LINE('',#1621,#326);
#235=LINE('',#1626,#327);
#236=LINE('',#1636,#328);
#237=LINE('',#1641,#329);
#238=LINE('',#1651,#330);
#239=LINE('',#1656,#331);
#240=LINE('',#1666,#332);
#241=LINE('',#1670,#333);
#242=LINE('',#1672,#334);
#243=LINE('',#1675,#335);
#244=LINE('',#1679,#336);
#245=LINE('',#1681,#337);
#246=LINE('',#1682,#338);
#247=LINE('',#1685,#339);
#248=LINE('',#1687,#340);
#249=LINE('',#1690,#341);
#250=LINE('',#1694,#342);
#251=LINE('',#1696,#343);
#252=LINE('',#1697,#344);
#253=LINE('',#1700,#345);
#254=LINE('',#1702,#346);
#255=LINE('',#1705,#347);
#256=LINE('',#1709,#348);
#257=LINE('',#1711,#349);
#258=LINE('',#1712,#350);
#259=LINE('',#1715,#351);
#260=LINE('',#1717,#352);
#261=LINE('',#1720,#353);
#262=LINE('',#1724,#354);
#263=LINE('',#1726,#355);
#264=LINE('',#1727,#356);
#265=LINE('',#1733,#357);
#266=LINE('',#1741,#358);
#267=LINE('',#1747,#359);
#268=LINE('',#1751,#360);
#269=LINE('',#1755,#361);
#270=LINE('',#1759,#362);
#271=LINE('',#1763,#363);
#272=LINE('',#1767,#364);
#273=LINE('',#1771,#365);
#274=LINE('',#1775,#366);
#275=LINE('',#1779,#367);
#276=LINE('',#1781,#368);
#277=LINE('',#1782,#369);
#278=LINE('',#1785,#370);
#279=LINE('',#1789,#371);
#280=LINE('',#1790,#372);
#281=LINE('',#1793,#373);
#282=LINE('',#1795,#374);
#283=LINE('',#1796,#375);
#284=LINE('',#1799,#376);
#285=LINE('',#1803,#377);
#286=LINE('',#1807,#378);
#287=LINE('',#1808,#379);
#288=LINE('',#1811,#380);
#289=LINE('',#1815,#381);
#290=LINE('',#1819,#382);
#291=LINE('',#1831,#383);
#292=LINE('',#1836,#384);
#293=LINE('',#1841,#385);
#294=LINE('',#1846,#386);
#295=LINE('',#1854,#387);
#296=LINE('',#1855,#388);
#297=LINE('',#1858,#389);
#298=LINE('',#1861,#390);
#299=LINE('',#1863,#391);
#300=LINE('',#1868,#392);
#301=LINE('',#1869,#393);
#302=LINE('',#1874,#394);
#303=LINE('',#1876,#395);
#304=LINE('',#1877,#396);
#305=LINE('',#1880,#397);
#306=LINE('',#1882,#398);
#307=LINE('',#1883,#399);
#308=LINE('',#1886,#400);
#309=LINE('',#1888,#401);
#310=LINE('',#1889,#402);
#311=LINE('',#1892,#403);
#312=LINE('',#1894,#404);
#313=LINE('',#1895,#405);
#314=LINE('',#1898,#406);
#315=LINE('',#1900,#407);
#316=LINE('',#1901,#408);
#317=LINE('',#1915,#409);
#318=LINE('',#1917,#410);
#319=LINE('',#1921,#411);
#320=LINE('',#1923,#412);
#321=LINE('',#1927,#413);
#322=LINE('',#1929,#414);
#323=LINE('',#1933,#415);
#324=LINE('',#1935,#416);
#325=VECTOR('',#1263,10.);
#326=VECTOR('',#1272,10.);
#327=VECTOR('',#1277,10.);
#328=VECTOR('',#1286,10.);
#329=VECTOR('',#1291,10.);
#330=VECTOR('',#1300,10.);
#331=VECTOR('',#1305,10.);
#332=VECTOR('',#1314,10.);
#333=VECTOR('',#1319,10.);
#334=VECTOR('',#1320,5.24999999999999);
#335=VECTOR('',#1323,10.);
#336=VECTOR('',#1328,10.);
#337=VECTOR('',#1329,10.);
#338=VECTOR('',#1330,10.);
#339=VECTOR('',#1333,10.);
#340=VECTOR('',#1334,5.24999999999999);
#341=VECTOR('',#1337,10.);
#342=VECTOR('',#1342,10.);
#343=VECTOR('',#1343,10.);
#344=VECTOR('',#1344,10.);
#345=VECTOR('',#1347,10.);
#346=VECTOR('',#1348,5.24999999999999);
#347=VECTOR('',#1351,10.);
#348=VECTOR('',#1356,10.);
#349=VECTOR('',#1357,10.);
#350=VECTOR('',#1358,10.);
#351=VECTOR('',#1361,10.);
#352=VECTOR('',#1362,5.24999999999999);
#353=VECTOR('',#1365,10.);
#354=VECTOR('',#1370,10.);
#355=VECTOR('',#1371,10.);
#356=VECTOR('',#1372,10.);
#357=VECTOR('',#1377,10.);
#358=VECTOR('',#1384,10.);
#359=VECTOR('',#1389,10.);
#360=VECTOR('',#1392,10.);
#361=VECTOR('',#1395,10.);
#362=VECTOR('',#1398,10.);
#363=VECTOR('',#1401,10.);
#364=VECTOR('',#1404,10.);
#365=VECTOR('',#1407,10.);
#366=VECTOR('',#1410,10.);
#367=VECTOR('',#1415,10.);
#368=VECTOR('',#1416,10.);
#369=VECTOR('',#1417,10.);
#370=VECTOR('',#1420,10.);
#371=VECTOR('',#1425,10.);
#372=VECTOR('',#1426,10.);
#373=VECTOR('',#1429,10.);
#374=VECTOR('',#1430,10.);
#375=VECTOR('',#1431,10.);
#376=VECTOR('',#1434,10.);
#377=VECTOR('',#1439,10.);
#378=VECTOR('',#1444,10.);
#379=VECTOR('',#1445,10.);
#380=VECTOR('',#1448,10.);
#381=VECTOR('',#1453,10.);
#382=VECTOR('',#1458,10.);
#383=VECTOR('',#1471,10.);
#384=VECTOR('',#1476,10.);
#385=VECTOR('',#1481,10.);
#386=VECTOR('',#1486,10.);
#387=VECTOR('',#1495,10.);
#388=VECTOR('',#1496,10.);
#389=VECTOR('',#1499,10.);
#390=VECTOR('',#1502,10.);
#391=VECTOR('',#1505,10.);
#392=VECTOR('',#1510,10.);
#393=VECTOR('',#1511,10.);
#394=VECTOR('',#1518,10.);
#395=VECTOR('',#1519,10.);
#396=VECTOR('',#1520,10.);
#397=VECTOR('',#1523,10.);
#398=VECTOR('',#1524,10.);
#399=VECTOR('',#1525,10.);
#400=VECTOR('',#1528,10.);
#401=VECTOR('',#1529,10.);
#402=VECTOR('',#1530,10.);
#403=VECTOR('',#1533,10.);
#404=VECTOR('',#1534,10.);
#405=VECTOR('',#1535,10.);
#406=VECTOR('',#1538,10.);
#407=VECTOR('',#1539,10.);
#408=VECTOR('',#1540,10.);
#409=VECTOR('',#1567,10.);
#410=VECTOR('',#1570,10.);
#411=VECTOR('',#1577,10.);
#412=VECTOR('',#1580,10.);
#413=VECTOR('',#1587,10.);
#414=VECTOR('',#1590,10.);
#415=VECTOR('',#1597,10.);
#416=VECTOR('',#1600,10.);
#417=VERTEX_POINT('',#1609);
#418=VERTEX_POINT('',#1610);
#419=VERTEX_POINT('',#1612);
#420=VERTEX_POINT('',#1614);
#421=VERTEX_POINT('',#1616);
#422=VERTEX_POINT('',#1618);
#423=VERTEX_POINT('',#1620);
#424=VERTEX_POINT('',#1624);
#425=VERTEX_POINT('',#1625);
#426=VERTEX_POINT('',#1627);
#427=VERTEX_POINT('',#1629);
#428=VERTEX_POINT('',#1631);
#429=VERTEX_POINT('',#1633);
#430=VERTEX_POINT('',#1635);
#431=VERTEX_POINT('',#1639);
#432=VERTEX_POINT('',#1640);
#433=VERTEX_POINT('',#1642);
#434=VERTEX_POINT('',#1644);
#435=VERTEX_POINT('',#1646);
#436=VERTEX_POINT('',#1648);
#437=VERTEX_POINT('',#1650);
#438=VERTEX_POINT('',#1654);
#439=VERTEX_POINT('',#1655);
#440=VERTEX_POINT('',#1657);
#441=VERTEX_POINT('',#1659);
#442=VERTEX_POINT('',#1661);
#443=VERTEX_POINT('',#1663);
#444=VERTEX_POINT('',#1665);
#445=VERTEX_POINT('',#1669);
#446=VERTEX_POINT('',#1671);
#447=VERTEX_POINT('',#1674);
#448=VERTEX_POINT('',#1678);
#449=VERTEX_POINT('',#1680);
#450=VERTEX_POINT('',#1684);
#451=VERTEX_POINT('',#1686);
#452=VERTEX_POINT('',#1689);
#453=VERTEX_POINT('',#1693);
#454=VERTEX_POINT('',#1695);
#455=VERTEX_POINT('',#1699);
#456=VERTEX_POINT('',#1701);
#457=VERTEX_POINT('',#1704);
#458=VERTEX_POINT('',#1708);
#459=VERTEX_POINT('',#1710);
#460=VERTEX_POINT('',#1714);
#461=VERTEX_POINT('',#1716);
#462=VERTEX_POINT('',#1719);
#463=VERTEX_POINT('',#1723);
#464=VERTEX_POINT('',#1725);
#465=VERTEX_POINT('',#1729);
#466=VERTEX_POINT('',#1730);
#467=VERTEX_POINT('',#1732);
#468=VERTEX_POINT('',#1734);
#469=VERTEX_POINT('',#1736);
#470=VERTEX_POINT('',#1738);
#471=VERTEX_POINT('',#1740);
#472=VERTEX_POINT('',#1742);
#473=VERTEX_POINT('',#1744);
#474=VERTEX_POINT('',#1746);
#475=VERTEX_POINT('',#1748);
#476=VERTEX_POINT('',#1750);
#477=VERTEX_POINT('',#1752);
#478=VERTEX_POINT('',#1754);
#479=VERTEX_POINT('',#1756);
#480=VERTEX_POINT('',#1758);
#481=VERTEX_POINT('',#1760);
#482=VERTEX_POINT('',#1762);
#483=VERTEX_POINT('',#1764);
#484=VERTEX_POINT('',#1766);
#485=VERTEX_POINT('',#1768);
#486=VERTEX_POINT('',#1770);
#487=VERTEX_POINT('',#1772);
#488=VERTEX_POINT('',#1774);
#489=VERTEX_POINT('',#1778);
#490=VERTEX_POINT('',#1780);
#491=VERTEX_POINT('',#1784);
#492=VERTEX_POINT('',#1788);
#493=VERTEX_POINT('',#1792);
#494=VERTEX_POINT('',#1794);
#495=VERTEX_POINT('',#1798);
#496=VERTEX_POINT('',#1802);
#497=VERTEX_POINT('',#1806);
#498=VERTEX_POINT('',#1810);
#499=VERTEX_POINT('',#1814);
#500=VERTEX_POINT('',#1818);
#501=VERTEX_POINT('',#1822);
#502=VERTEX_POINT('',#1823);
#503=VERTEX_POINT('',#1825);
#504=VERTEX_POINT('',#1828);
#505=VERTEX_POINT('',#1830);
#506=VERTEX_POINT('',#1833);
#507=VERTEX_POINT('',#1835);
#508=VERTEX_POINT('',#1838);
#509=VERTEX_POINT('',#1840);
#510=VERTEX_POINT('',#1843);
#511=VERTEX_POINT('',#1845);
#512=VERTEX_POINT('',#1847);
#513=VERTEX_POINT('',#1851);
#514=VERTEX_POINT('',#1852);
#515=VERTEX_POINT('',#1857);
#516=VERTEX_POINT('',#1859);
#517=VERTEX_POINT('',#1865);
#518=VERTEX_POINT('',#1866);
#519=VERTEX_POINT('',#1873);
#520=VERTEX_POINT('',#1875);
#521=VERTEX_POINT('',#1879);
#522=VERTEX_POINT('',#1881);
#523=VERTEX_POINT('',#1885);
#524=VERTEX_POINT('',#1887);
#525=VERTEX_POINT('',#1891);
#526=VERTEX_POINT('',#1893);
#527=VERTEX_POINT('',#1897);
#528=VERTEX_POINT('',#1899);
#529=EDGE_CURVE('',#417,#418,#233,.T.);
#530=EDGE_CURVE('',#419,#417,#157,.T.);
#531=EDGE_CURVE('',#420,#419,#158,.T.);
#532=EDGE_CURVE('',#421,#420,#159,.T.);
#533=EDGE_CURVE('',#422,#421,#160,.T.);
#534=EDGE_CURVE('',#423,#422,#234,.T.);
#535=EDGE_CURVE('',#418,#423,#161,.T.);
#536=EDGE_CURVE('',#424,#425,#235,.T.);
#537=EDGE_CURVE('',#426,#424,#162,.T.);
#538=EDGE_CURVE('',#427,#426,#163,.T.);
#539=EDGE_CURVE('',#428,#427,#164,.T.);
#540=EDGE_CURVE('',#429,#428,#165,.T.);
#541=EDGE_CURVE('',#430,#429,#236,.T.);
#542=EDGE_CURVE('',#425,#430,#166,.T.);
#543=EDGE_CURVE('',#431,#432,#237,.T.);
#544=EDGE_CURVE('',#433,#431,#167,.T.);
#545=EDGE_CURVE('',#434,#433,#168,.T.);
#546=EDGE_CURVE('',#435,#434,#169,.T.);
#547=EDGE_CURVE('',#436,#435,#170,.T.);
#548=EDGE_CURVE('',#437,#436,#238,.T.);
#549=EDGE_CURVE('',#432,#437,#171,.T.);
#550=EDGE_CURVE('',#438,#439,#239,.T.);
#551=EDGE_CURVE('',#440,#438,#172,.T.);
#552=EDGE_CURVE('',#441,#440,#173,.T.);
#553=EDGE_CURVE('',#442,#441,#174,.T.);
#554=EDGE_CURVE('',#443,#442,#175,.T.);
#555=EDGE_CURVE('',#444,#443,#240,.T.);
#556=EDGE_CURVE('',#439,#444,#176,.T.);
#557=EDGE_CURVE('',#445,#421,#241,.T.);
#558=EDGE_CURVE('',#420,#446,#242,.T.);
#559=EDGE_CURVE('',#446,#446,#177,.T.);
#560=EDGE_CURVE('',#419,#447,#243,.T.);
#561=EDGE_CURVE('',#445,#447,#178,.T.);
#562=EDGE_CURVE('',#448,#418,#244,.T.);
#563=EDGE_CURVE('',#448,#449,#245,.T.);
#564=EDGE_CURVE('',#449,#417,#246,.T.);
#565=EDGE_CURVE('',#450,#428,#247,.T.);
#566=EDGE_CURVE('',#427,#451,#248,.T.);
#567=EDGE_CURVE('',#451,#451,#179,.T.);
#568=EDGE_CURVE('',#426,#452,#249,.T.);
#569=EDGE_CURVE('',#450,#452,#180,.T.);
#570=EDGE_CURVE('',#453,#425,#250,.T.);
#571=EDGE_CURVE('',#453,#454,#251,.T.);
#572=EDGE_CURVE('',#454,#424,#252,.T.);
#573=EDGE_CURVE('',#455,#435,#253,.T.);
#574=EDGE_CURVE('',#434,#456,#254,.T.);
#575=EDGE_CURVE('',#456,#456,#181,.T.);
#576=EDGE_CURVE('',#433,#457,#255,.T.);
#577=EDGE_CURVE('',#455,#457,#182,.T.);
#578=EDGE_CURVE('',#458,#432,#256,.T.);
#579=EDGE_CURVE('',#458,#459,#257,.T.);
#580=EDGE_CURVE('',#459,#431,#258,.T.);
#581=EDGE_CURVE('',#460,#442,#259,.T.);
#582=EDGE_CURVE('',#441,#461,#260,.T.);
#583=EDGE_CURVE('',#461,#461,#183,.T.);
#584=EDGE_CURVE('',#440,#462,#261,.T.);
#585=EDGE_CURVE('',#460,#462,#184,.T.);
#586=EDGE_CURVE('',#463,#439,#262,.T.);
#587=EDGE_CURVE('',#463,#464,#263,.T.);
#588=EDGE_CURVE('',#464,#438,#264,.T.);
#589=EDGE_CURVE('',#465,#466,#185,.T.);
#590=EDGE_CURVE('',#467,#465,#265,.T.);
#591=EDGE_CURVE('',#468,#467,#186,.T.);
#592=EDGE_CURVE('',#469,#468,#187,.T.);
#593=EDGE_CURVE('',#470,#469,#188,.T.);
#594=EDGE_CURVE('',#471,#470,#266,.T.);
#595=EDGE_CURVE('',#472,#471,#189,.T.);
#596=EDGE_CURVE('',#473,#472,#190,.T.);
#597=EDGE_CURVE('',#474,#473,#267,.T.);
#598=EDGE_CURVE('',#475,#474,#191,.T.);
#599=EDGE_CURVE('',#476,#475,#268,.T.);
#600=EDGE_CURVE('',#477,#476,#192,.T.);
#601=EDGE_CURVE('',#478,#477,#269,.T.);
#602=EDGE_CURVE('',#479,#478,#193,.T.);
#603=EDGE_CURVE('',#480,#479,#270,.T.);
#604=EDGE_CURVE('',#481,#480,#194,.T.);
#605=EDGE_CURVE('',#482,#481,#271,.T.);
#606=EDGE_CURVE('',#483,#482,#195,.T.);
#607=EDGE_CURVE('',#484,#483,#272,.T.);
#608=EDGE_CURVE('',#485,#484,#196,.T.);
#609=EDGE_CURVE('',#486,#485,#273,.T.);
#610=EDGE_CURVE('',#487,#486,#197,.T.);
#611=EDGE_CURVE('',#488,#487,#274,.T.);
#612=EDGE_CURVE('',#466,#488,#198,.T.);
#613=EDGE_CURVE('',#489,#477,#275,.T.);
#614=EDGE_CURVE('',#490,#489,#276,.T.);
#615=EDGE_CURVE('',#478,#490,#277,.T.);
#616=EDGE_CURVE('',#476,#491,#278,.T.);
#617=EDGE_CURVE('',#489,#491,#199,.T.);
#618=EDGE_CURVE('',#475,#492,#279,.T.);
#619=EDGE_CURVE('',#491,#492,#280,.T.);
#620=EDGE_CURVE('',#473,#493,#281,.T.);
#621=EDGE_CURVE('',#494,#493,#282,.T.);
#622=EDGE_CURVE('',#474,#494,#283,.T.);
#623=EDGE_CURVE('',#495,#472,#284,.T.);
#624=EDGE_CURVE('',#493,#495,#200,.T.);
#625=EDGE_CURVE('',#471,#496,#285,.T.);
#626=EDGE_CURVE('',#496,#495,#201,.T.);
#627=EDGE_CURVE('',#497,#470,#286,.T.);
#628=EDGE_CURVE('',#496,#497,#287,.T.);
#629=EDGE_CURVE('',#469,#498,#288,.T.);
#630=EDGE_CURVE('',#498,#497,#202,.T.);
#631=EDGE_CURVE('',#499,#468,#289,.T.);
#632=EDGE_CURVE('',#498,#499,#203,.T.);
#633=EDGE_CURVE('',#467,#500,#290,.T.);
#634=EDGE_CURVE('',#500,#499,#204,.T.);
#635=EDGE_CURVE('',#501,#502,#205,.T.);
#636=EDGE_CURVE('',#503,#501,#206,.T.);
#637=EDGE_CURVE('',#459,#503,#207,.T.);
#638=EDGE_CURVE('',#504,#458,#208,.T.);
#639=EDGE_CURVE('',#505,#504,#291,.T.);
#640=EDGE_CURVE('',#449,#505,#209,.T.);
#641=EDGE_CURVE('',#506,#448,#210,.T.);
#642=EDGE_CURVE('',#507,#506,#292,.T.);
#643=EDGE_CURVE('',#454,#507,#211,.T.);
#644=EDGE_CURVE('',#508,#453,#212,.T.);
#645=EDGE_CURVE('',#509,#508,#293,.T.);
#646=EDGE_CURVE('',#464,#509,#213,.T.);
#647=EDGE_CURVE('',#510,#463,#214,.T.);
#648=EDGE_CURVE('',#511,#510,#294,.T.);
#649=EDGE_CURVE('',#512,#511,#215,.T.);
#650=EDGE_CURVE('',#502,#512,#216,.T.);
#651=EDGE_CURVE('',#513,#514,#217,.T.);
#652=EDGE_CURVE('',#514,#502,#295,.T.);
#653=EDGE_CURVE('',#512,#513,#296,.T.);
#654=EDGE_CURVE('',#466,#515,#297,.T.);
#655=EDGE_CURVE('',#515,#516,#218,.T.);
#656=EDGE_CURVE('',#516,#465,#298,.T.);
#657=EDGE_CURVE('',#500,#516,#299,.T.);
#658=EDGE_CURVE('',#517,#518,#219,.T.);
#659=EDGE_CURVE('',#518,#503,#300,.T.);
#660=EDGE_CURVE('',#501,#517,#301,.T.);
#661=EDGE_CURVE('',#457,#518,#220,.T.);
#662=EDGE_CURVE('',#519,#485,#302,.T.);
#663=EDGE_CURVE('',#520,#519,#303,.T.);
#664=EDGE_CURVE('',#486,#520,#304,.T.);
#665=EDGE_CURVE('',#521,#487,#305,.T.);
#666=EDGE_CURVE('',#522,#521,#306,.T.);
#667=EDGE_CURVE('',#488,#522,#307,.T.);
#668=EDGE_CURVE('',#523,#479,#308,.T.);
#669=EDGE_CURVE('',#524,#523,#309,.T.);
#670=EDGE_CURVE('',#480,#524,#310,.T.);
#671=EDGE_CURVE('',#525,#481,#311,.T.);
#672=EDGE_CURVE('',#526,#525,#312,.T.);
#673=EDGE_CURVE('',#482,#526,#313,.T.);
#674=EDGE_CURVE('',#527,#483,#314,.T.);
#675=EDGE_CURVE('',#528,#527,#315,.T.);
#676=EDGE_CURVE('',#484,#528,#316,.T.);
#677=EDGE_CURVE('',#525,#524,#221,.T.);
#678=EDGE_CURVE('',#519,#528,#222,.T.);
#679=EDGE_CURVE('',#515,#522,#223,.T.);
#680=EDGE_CURVE('',#492,#490,#224,.T.);
#681=EDGE_CURVE('',#517,#494,#225,.T.);
#682=EDGE_CURVE('',#521,#514,#226,.T.);
#683=EDGE_CURVE('',#527,#520,#227,.T.);
#684=EDGE_CURVE('',#523,#526,#228,.T.);
#685=EDGE_CURVE('',#504,#437,#317,.T.);
#686=EDGE_CURVE('',#505,#436,#318,.T.);
#687=EDGE_CURVE('',#447,#455,#229,.T.);
#688=EDGE_CURVE('',#506,#423,#319,.T.);
#689=EDGE_CURVE('',#507,#422,#320,.T.);
#690=EDGE_CURVE('',#452,#445,#230,.T.);
#691=EDGE_CURVE('',#508,#430,#321,.T.);
#692=EDGE_CURVE('',#509,#429,#322,.T.);
#693=EDGE_CURVE('',#462,#450,#231,.T.);
#694=EDGE_CURVE('',#510,#444,#323,.T.);
#695=EDGE_CURVE('',#511,#443,#324,.T.);
#696=EDGE_CURVE('',#513,#460,#232,.T.);
#697=ORIENTED_EDGE('',*,*,#529,.F.);
#698=ORIENTED_EDGE('',*,*,#530,.F.);
#699=ORIENTED_EDGE('',*,*,#531,.F.);
#700=ORIENTED_EDGE('',*,*,#532,.F.);
#701=ORIENTED_EDGE('',*,*,#533,.F.);
#702=ORIENTED_EDGE('',*,*,#534,.F.);
#703=ORIENTED_EDGE('',*,*,#535,.F.);
#704=ORIENTED_EDGE('',*,*,#536,.F.);
#705=ORIENTED_EDGE('',*,*,#537,.F.);
#706=ORIENTED_EDGE('',*,*,#538,.F.);
#707=ORIENTED_EDGE('',*,*,#539,.F.);
#708=ORIENTED_EDGE('',*,*,#540,.F.);
#709=ORIENTED_EDGE('',*,*,#541,.F.);
#710=ORIENTED_EDGE('',*,*,#542,.F.);
#711=ORIENTED_EDGE('',*,*,#543,.F.);
#712=ORIENTED_EDGE('',*,*,#544,.F.);
#713=ORIENTED_EDGE('',*,*,#545,.F.);
#714=ORIENTED_EDGE('',*,*,#546,.F.);
#715=ORIENTED_EDGE('',*,*,#547,.F.);
#716=ORIENTED_EDGE('',*,*,#548,.F.);
#717=ORIENTED_EDGE('',*,*,#549,.F.);
#718=ORIENTED_EDGE('',*,*,#550,.F.);
#719=ORIENTED_EDGE('',*,*,#551,.F.);
#720=ORIENTED_EDGE('',*,*,#552,.F.);
#721=ORIENTED_EDGE('',*,*,#553,.F.);
#722=ORIENTED_EDGE('',*,*,#554,.F.);
#723=ORIENTED_EDGE('',*,*,#555,.F.);
#724=ORIENTED_EDGE('',*,*,#556,.F.);
#725=ORIENTED_EDGE('',*,*,#557,.T.);
#726=ORIENTED_EDGE('',*,*,#532,.T.);
#727=ORIENTED_EDGE('',*,*,#558,.T.);
#728=ORIENTED_EDGE('',*,*,#559,.T.);
#729=ORIENTED_EDGE('',*,*,#558,.F.);
#730=ORIENTED_EDGE('',*,*,#531,.T.);
#731=ORIENTED_EDGE('',*,*,#560,.T.);
#732=ORIENTED_EDGE('',*,*,#561,.F.);
#733=ORIENTED_EDGE('',*,*,#529,.T.);
#734=ORIENTED_EDGE('',*,*,#562,.F.);
#735=ORIENTED_EDGE('',*,*,#563,.T.);
#736=ORIENTED_EDGE('',*,*,#564,.T.);
#737=ORIENTED_EDGE('',*,*,#565,.T.);
#738=ORIENTED_EDGE('',*,*,#539,.T.);
#739=ORIENTED_EDGE('',*,*,#566,.T.);
#740=ORIENTED_EDGE('',*,*,#567,.T.);
#741=ORIENTED_EDGE('',*,*,#566,.F.);
#742=ORIENTED_EDGE('',*,*,#538,.T.);
#743=ORIENTED_EDGE('',*,*,#568,.T.);
#744=ORIENTED_EDGE('',*,*,#569,.F.);
#745=ORIENTED_EDGE('',*,*,#536,.T.);
#746=ORIENTED_EDGE('',*,*,#570,.F.);
#747=ORIENTED_EDGE('',*,*,#571,.T.);
#748=ORIENTED_EDGE('',*,*,#572,.T.);
#749=ORIENTED_EDGE('',*,*,#573,.T.);
#750=ORIENTED_EDGE('',*,*,#546,.T.);
#751=ORIENTED_EDGE('',*,*,#574,.T.);
#752=ORIENTED_EDGE('',*,*,#575,.T.);
#753=ORIENTED_EDGE('',*,*,#574,.F.);
#754=ORIENTED_EDGE('',*,*,#545,.T.);
#755=ORIENTED_EDGE('',*,*,#576,.T.);
#756=ORIENTED_EDGE('',*,*,#577,.F.);
#757=ORIENTED_EDGE('',*,*,#543,.T.);
#758=ORIENTED_EDGE('',*,*,#578,.F.);
#759=ORIENTED_EDGE('',*,*,#579,.T.);
#760=ORIENTED_EDGE('',*,*,#580,.T.);
#761=ORIENTED_EDGE('',*,*,#581,.T.);
#762=ORIENTED_EDGE('',*,*,#553,.T.);
#763=ORIENTED_EDGE('',*,*,#582,.T.);
#764=ORIENTED_EDGE('',*,*,#583,.T.);
#765=ORIENTED_EDGE('',*,*,#582,.F.);
#766=ORIENTED_EDGE('',*,*,#552,.T.);
#767=ORIENTED_EDGE('',*,*,#584,.T.);
#768=ORIENTED_EDGE('',*,*,#585,.F.);
#769=ORIENTED_EDGE('',*,*,#550,.T.);
#770=ORIENTED_EDGE('',*,*,#586,.F.);
#771=ORIENTED_EDGE('',*,*,#587,.T.);
#772=ORIENTED_EDGE('',*,*,#588,.T.);
#773=ORIENTED_EDGE('',*,*,#589,.F.);
#774=ORIENTED_EDGE('',*,*,#590,.F.);
#775=ORIENTED_EDGE('',*,*,#591,.F.);
#776=ORIENTED_EDGE('',*,*,#592,.F.);
#777=ORIENTED_EDGE('',*,*,#593,.F.);
#778=ORIENTED_EDGE('',*,*,#594,.F.);
#779=ORIENTED_EDGE('',*,*,#595,.F.);
#780=ORIENTED_EDGE('',*,*,#596,.F.);
#781=ORIENTED_EDGE('',*,*,#597,.F.);
#782=ORIENTED_EDGE('',*,*,#598,.F.);
#783=ORIENTED_EDGE('',*,*,#599,.F.);
#784=ORIENTED_EDGE('',*,*,#600,.F.);
#785=ORIENTED_EDGE('',*,*,#601,.F.);
#786=ORIENTED_EDGE('',*,*,#602,.F.);
#787=ORIENTED_EDGE('',*,*,#603,.F.);
#788=ORIENTED_EDGE('',*,*,#604,.F.);
#789=ORIENTED_EDGE('',*,*,#605,.F.);
#790=ORIENTED_EDGE('',*,*,#606,.F.);
#791=ORIENTED_EDGE('',*,*,#607,.F.);
#792=ORIENTED_EDGE('',*,*,#608,.F.);
#793=ORIENTED_EDGE('',*,*,#609,.F.);
#794=ORIENTED_EDGE('',*,*,#610,.F.);
#795=ORIENTED_EDGE('',*,*,#611,.F.);
#796=ORIENTED_EDGE('',*,*,#612,.F.);
#797=ORIENTED_EDGE('',*,*,#601,.T.);
#798=ORIENTED_EDGE('',*,*,#613,.F.);
#799=ORIENTED_EDGE('',*,*,#614,.F.);
#800=ORIENTED_EDGE('',*,*,#615,.F.);
#801=ORIENTED_EDGE('',*,*,#600,.T.);
#802=ORIENTED_EDGE('',*,*,#616,.T.);
#803=ORIENTED_EDGE('',*,*,#617,.F.);
#804=ORIENTED_EDGE('',*,*,#613,.T.);
#805=ORIENTED_EDGE('',*,*,#599,.T.);
#806=ORIENTED_EDGE('',*,*,#618,.T.);
#807=ORIENTED_EDGE('',*,*,#619,.F.);
#808=ORIENTED_EDGE('',*,*,#616,.F.);
#809=ORIENTED_EDGE('',*,*,#597,.T.);
#810=ORIENTED_EDGE('',*,*,#620,.T.);
#811=ORIENTED_EDGE('',*,*,#621,.F.);
#812=ORIENTED_EDGE('',*,*,#622,.F.);
#813=ORIENTED_EDGE('',*,*,#596,.T.);
#814=ORIENTED_EDGE('',*,*,#623,.F.);
#815=ORIENTED_EDGE('',*,*,#624,.F.);
#816=ORIENTED_EDGE('',*,*,#620,.F.);
#817=ORIENTED_EDGE('',*,*,#595,.T.);
#818=ORIENTED_EDGE('',*,*,#625,.T.);
#819=ORIENTED_EDGE('',*,*,#626,.T.);
#820=ORIENTED_EDGE('',*,*,#623,.T.);
#821=ORIENTED_EDGE('',*,*,#594,.T.);
#822=ORIENTED_EDGE('',*,*,#627,.F.);
#823=ORIENTED_EDGE('',*,*,#628,.F.);
#824=ORIENTED_EDGE('',*,*,#625,.F.);
#825=ORIENTED_EDGE('',*,*,#593,.T.);
#826=ORIENTED_EDGE('',*,*,#629,.T.);
#827=ORIENTED_EDGE('',*,*,#630,.T.);
#828=ORIENTED_EDGE('',*,*,#627,.T.);
#829=ORIENTED_EDGE('',*,*,#592,.T.);
#830=ORIENTED_EDGE('',*,*,#631,.F.);
#831=ORIENTED_EDGE('',*,*,#632,.F.);
#832=ORIENTED_EDGE('',*,*,#629,.F.);
#833=ORIENTED_EDGE('',*,*,#591,.T.);
#834=ORIENTED_EDGE('',*,*,#633,.T.);
#835=ORIENTED_EDGE('',*,*,#634,.T.);
#836=ORIENTED_EDGE('',*,*,#631,.T.);
#837=ORIENTED_EDGE('',*,*,#635,.F.);
#838=ORIENTED_EDGE('',*,*,#636,.F.);
#839=ORIENTED_EDGE('',*,*,#637,.F.);
#840=ORIENTED_EDGE('',*,*,#579,.F.);
#841=ORIENTED_EDGE('',*,*,#638,.F.);
#842=ORIENTED_EDGE('',*,*,#639,.F.);
#843=ORIENTED_EDGE('',*,*,#640,.F.);
#844=ORIENTED_EDGE('',*,*,#563,.F.);
#845=ORIENTED_EDGE('',*,*,#641,.F.);
#846=ORIENTED_EDGE('',*,*,#642,.F.);
#847=ORIENTED_EDGE('',*,*,#643,.F.);
#848=ORIENTED_EDGE('',*,*,#571,.F.);
#849=ORIENTED_EDGE('',*,*,#644,.F.);
#850=ORIENTED_EDGE('',*,*,#645,.F.);
#851=ORIENTED_EDGE('',*,*,#646,.F.);
#852=ORIENTED_EDGE('',*,*,#587,.F.);
#853=ORIENTED_EDGE('',*,*,#647,.F.);
#854=ORIENTED_EDGE('',*,*,#648,.F.);
#855=ORIENTED_EDGE('',*,*,#649,.F.);
#856=ORIENTED_EDGE('',*,*,#650,.F.);
#857=ORIENTED_EDGE('',*,*,#559,.F.);
#858=ORIENTED_EDGE('',*,*,#575,.F.);
#859=ORIENTED_EDGE('',*,*,#567,.F.);
#860=ORIENTED_EDGE('',*,*,#583,.F.);
#861=ORIENTED_EDGE('',*,*,#651,.T.);
#862=ORIENTED_EDGE('',*,*,#652,.T.);
#863=ORIENTED_EDGE('',*,*,#650,.T.);
#864=ORIENTED_EDGE('',*,*,#653,.T.);
#865=ORIENTED_EDGE('',*,*,#589,.T.);
#866=ORIENTED_EDGE('',*,*,#654,.T.);
#867=ORIENTED_EDGE('',*,*,#655,.T.);
#868=ORIENTED_EDGE('',*,*,#656,.T.);
#869=ORIENTED_EDGE('',*,*,#590,.T.);
#870=ORIENTED_EDGE('',*,*,#656,.F.);
#871=ORIENTED_EDGE('',*,*,#657,.F.);
#872=ORIENTED_EDGE('',*,*,#633,.F.);
#873=ORIENTED_EDGE('',*,*,#658,.T.);
#874=ORIENTED_EDGE('',*,*,#659,.T.);
#875=ORIENTED_EDGE('',*,*,#636,.T.);
#876=ORIENTED_EDGE('',*,*,#660,.T.);
#877=ORIENTED_EDGE('',*,*,#659,.F.);
#878=ORIENTED_EDGE('',*,*,#661,.F.);
#879=ORIENTED_EDGE('',*,*,#576,.F.);
#880=ORIENTED_EDGE('',*,*,#544,.T.);
#881=ORIENTED_EDGE('',*,*,#580,.F.);
#882=ORIENTED_EDGE('',*,*,#637,.T.);
#883=ORIENTED_EDGE('',*,*,#609,.T.);
#884=ORIENTED_EDGE('',*,*,#662,.F.);
#885=ORIENTED_EDGE('',*,*,#663,.F.);
#886=ORIENTED_EDGE('',*,*,#664,.F.);
#887=ORIENTED_EDGE('',*,*,#611,.T.);
#888=ORIENTED_EDGE('',*,*,#665,.F.);
#889=ORIENTED_EDGE('',*,*,#666,.F.);
#890=ORIENTED_EDGE('',*,*,#667,.F.);
#891=ORIENTED_EDGE('',*,*,#603,.T.);
#892=ORIENTED_EDGE('',*,*,#668,.F.);
#893=ORIENTED_EDGE('',*,*,#669,.F.);
#894=ORIENTED_EDGE('',*,*,#670,.F.);
#895=ORIENTED_EDGE('',*,*,#605,.T.);
#896=ORIENTED_EDGE('',*,*,#671,.F.);
#897=ORIENTED_EDGE('',*,*,#672,.F.);
#898=ORIENTED_EDGE('',*,*,#673,.F.);
#899=ORIENTED_EDGE('',*,*,#607,.T.);
#900=ORIENTED_EDGE('',*,*,#674,.F.);
#901=ORIENTED_EDGE('',*,*,#675,.F.);
#902=ORIENTED_EDGE('',*,*,#676,.F.);
#903=ORIENTED_EDGE('',*,*,#604,.T.);
#904=ORIENTED_EDGE('',*,*,#670,.T.);
#905=ORIENTED_EDGE('',*,*,#677,.F.);
#906=ORIENTED_EDGE('',*,*,#671,.T.);
#907=ORIENTED_EDGE('',*,*,#608,.T.);
#908=ORIENTED_EDGE('',*,*,#676,.T.);
#909=ORIENTED_EDGE('',*,*,#678,.F.);
#910=ORIENTED_EDGE('',*,*,#662,.T.);
#911=ORIENTED_EDGE('',*,*,#612,.T.);
#912=ORIENTED_EDGE('',*,*,#667,.T.);
#913=ORIENTED_EDGE('',*,*,#679,.F.);
#914=ORIENTED_EDGE('',*,*,#654,.F.);
#915=ORIENTED_EDGE('',*,*,#615,.T.);
#916=ORIENTED_EDGE('',*,*,#680,.F.);
#917=ORIENTED_EDGE('',*,*,#618,.F.);
#918=ORIENTED_EDGE('',*,*,#598,.T.);
#919=ORIENTED_EDGE('',*,*,#622,.T.);
#920=ORIENTED_EDGE('',*,*,#681,.F.);
#921=ORIENTED_EDGE('',*,*,#660,.F.);
#922=ORIENTED_EDGE('',*,*,#635,.T.);
#923=ORIENTED_EDGE('',*,*,#652,.F.);
#924=ORIENTED_EDGE('',*,*,#682,.F.);
#925=ORIENTED_EDGE('',*,*,#665,.T.);
#926=ORIENTED_EDGE('',*,*,#610,.T.);
#927=ORIENTED_EDGE('',*,*,#664,.T.);
#928=ORIENTED_EDGE('',*,*,#683,.F.);
#929=ORIENTED_EDGE('',*,*,#674,.T.);
#930=ORIENTED_EDGE('',*,*,#606,.T.);
#931=ORIENTED_EDGE('',*,*,#673,.T.);
#932=ORIENTED_EDGE('',*,*,#684,.F.);
#933=ORIENTED_EDGE('',*,*,#668,.T.);
#934=ORIENTED_EDGE('',*,*,#602,.T.);
#935=ORIENTED_EDGE('',*,*,#549,.T.);
#936=ORIENTED_EDGE('',*,*,#685,.F.);
#937=ORIENTED_EDGE('',*,*,#638,.T.);
#938=ORIENTED_EDGE('',*,*,#578,.T.);
#939=ORIENTED_EDGE('',*,*,#548,.T.);
#940=ORIENTED_EDGE('',*,*,#686,.F.);
#941=ORIENTED_EDGE('',*,*,#639,.T.);
#942=ORIENTED_EDGE('',*,*,#685,.T.);
#943=ORIENTED_EDGE('',*,*,#640,.T.);
#944=ORIENTED_EDGE('',*,*,#686,.T.);
#945=ORIENTED_EDGE('',*,*,#547,.T.);
#946=ORIENTED_EDGE('',*,*,#573,.F.);
#947=ORIENTED_EDGE('',*,*,#687,.F.);
#948=ORIENTED_EDGE('',*,*,#560,.F.);
#949=ORIENTED_EDGE('',*,*,#530,.T.);
#950=ORIENTED_EDGE('',*,*,#564,.F.);
#951=ORIENTED_EDGE('',*,*,#535,.T.);
#952=ORIENTED_EDGE('',*,*,#688,.F.);
#953=ORIENTED_EDGE('',*,*,#641,.T.);
#954=ORIENTED_EDGE('',*,*,#562,.T.);
#955=ORIENTED_EDGE('',*,*,#534,.T.);
#956=ORIENTED_EDGE('',*,*,#689,.F.);
#957=ORIENTED_EDGE('',*,*,#642,.T.);
#958=ORIENTED_EDGE('',*,*,#688,.T.);
#959=ORIENTED_EDGE('',*,*,#643,.T.);
#960=ORIENTED_EDGE('',*,*,#689,.T.);
#961=ORIENTED_EDGE('',*,*,#533,.T.);
#962=ORIENTED_EDGE('',*,*,#557,.F.);
#963=ORIENTED_EDGE('',*,*,#690,.F.);
#964=ORIENTED_EDGE('',*,*,#568,.F.);
#965=ORIENTED_EDGE('',*,*,#537,.T.);
#966=ORIENTED_EDGE('',*,*,#572,.F.);
#967=ORIENTED_EDGE('',*,*,#542,.T.);
#968=ORIENTED_EDGE('',*,*,#691,.F.);
#969=ORIENTED_EDGE('',*,*,#644,.T.);
#970=ORIENTED_EDGE('',*,*,#570,.T.);
#971=ORIENTED_EDGE('',*,*,#541,.T.);
#972=ORIENTED_EDGE('',*,*,#692,.F.);
#973=ORIENTED_EDGE('',*,*,#645,.T.);
#974=ORIENTED_EDGE('',*,*,#691,.T.);
#975=ORIENTED_EDGE('',*,*,#646,.T.);
#976=ORIENTED_EDGE('',*,*,#692,.T.);
#977=ORIENTED_EDGE('',*,*,#540,.T.);
#978=ORIENTED_EDGE('',*,*,#565,.F.);
#979=ORIENTED_EDGE('',*,*,#693,.F.);
#980=ORIENTED_EDGE('',*,*,#584,.F.);
#981=ORIENTED_EDGE('',*,*,#551,.T.);
#982=ORIENTED_EDGE('',*,*,#588,.F.);
#983=ORIENTED_EDGE('',*,*,#556,.T.);
#984=ORIENTED_EDGE('',*,*,#694,.F.);
#985=ORIENTED_EDGE('',*,*,#647,.T.);
#986=ORIENTED_EDGE('',*,*,#586,.T.);
#987=ORIENTED_EDGE('',*,*,#555,.T.);
#988=ORIENTED_EDGE('',*,*,#695,.F.);
#989=ORIENTED_EDGE('',*,*,#648,.T.);
#990=ORIENTED_EDGE('',*,*,#694,.T.);
#991=ORIENTED_EDGE('',*,*,#653,.F.);
#992=ORIENTED_EDGE('',*,*,#649,.T.);
#993=ORIENTED_EDGE('',*,*,#695,.T.);
#994=ORIENTED_EDGE('',*,*,#554,.T.);
#995=ORIENTED_EDGE('',*,*,#581,.F.);
#996=ORIENTED_EDGE('',*,*,#696,.F.);
#997=ORIENTED_EDGE('',*,*,#690,.T.);
#998=ORIENTED_EDGE('',*,*,#561,.T.);
#999=ORIENTED_EDGE('',*,*,#687,.T.);
#1000=ORIENTED_EDGE('',*,*,#577,.T.);
#1001=ORIENTED_EDGE('',*,*,#661,.T.);
#1002=ORIENTED_EDGE('',*,*,#658,.F.);
#1003=ORIENTED_EDGE('',*,*,#681,.T.);
#1004=ORIENTED_EDGE('',*,*,#621,.T.);
#1005=ORIENTED_EDGE('',*,*,#624,.T.);
#1006=ORIENTED_EDGE('',*,*,#626,.F.);
#1007=ORIENTED_EDGE('',*,*,#628,.T.);
#1008=ORIENTED_EDGE('',*,*,#630,.F.);
#1009=ORIENTED_EDGE('',*,*,#632,.T.);
#1010=ORIENTED_EDGE('',*,*,#634,.F.);
#1011=ORIENTED_EDGE('',*,*,#657,.T.);
#1012=ORIENTED_EDGE('',*,*,#655,.F.);
#1013=ORIENTED_EDGE('',*,*,#679,.T.);
#1014=ORIENTED_EDGE('',*,*,#666,.T.);
#1015=ORIENTED_EDGE('',*,*,#682,.T.);
#1016=ORIENTED_EDGE('',*,*,#651,.F.);
#1017=ORIENTED_EDGE('',*,*,#696,.T.);
#1018=ORIENTED_EDGE('',*,*,#585,.T.);
#1019=ORIENTED_EDGE('',*,*,#693,.T.);
#1020=ORIENTED_EDGE('',*,*,#569,.T.);
#1021=ORIENTED_EDGE('',*,*,#678,.T.);
#1022=ORIENTED_EDGE('',*,*,#675,.T.);
#1023=ORIENTED_EDGE('',*,*,#683,.T.);
#1024=ORIENTED_EDGE('',*,*,#663,.T.);
#1025=ORIENTED_EDGE('',*,*,#617,.T.);
#1026=ORIENTED_EDGE('',*,*,#619,.T.);
#1027=ORIENTED_EDGE('',*,*,#680,.T.);
#1028=ORIENTED_EDGE('',*,*,#614,.T.);
#1029=ORIENTED_EDGE('',*,*,#669,.T.);
#1030=ORIENTED_EDGE('',*,*,#684,.T.);
#1031=ORIENTED_EDGE('',*,*,#672,.T.);
#1032=ORIENTED_EDGE('',*,*,#677,.T.);
#1033=PLANE('',#1132);
#1034=PLANE('',#1138);
#1035=PLANE('',#1144);
#1036=PLANE('',#1150);
#1037=PLANE('',#1159);
#1038=PLANE('',#1163);
#1039=PLANE('',#1167);
#1040=PLANE('',#1171);
#1041=PLANE('',#1172);
#1042=PLANE('',#1187);
#1043=PLANE('',#1190);
#1044=PLANE('',#1191);
#1045=PLANE('',#1196);
#1046=PLANE('',#1203);
#1047=PLANE('',#1220);
#1048=PLANE('',#1225);
#1049=PLANE('',#1226);
#1050=PLANE('',#1227);
#1051=PLANE('',#1228);
#1052=PLANE('',#1229);
#1053=PLANE('',#1243);
#1054=PLANE('',#1247);
#1055=PLANE('',#1251);
#1056=PLANE('',#1255);
#1057=PLANE('',#1258);
#1058=ADVANCED_FACE('',(#48),#1033,.T.);
#1059=ADVANCED_FACE('',(#49),#1034,.T.);
#1060=ADVANCED_FACE('',(#50),#1035,.T.);
#1061=ADVANCED_FACE('',(#51),#1036,.T.);
#1062=ADVANCED_FACE('',(#52),#22,.F.);
#1063=ADVANCED_FACE('',(#53),#1037,.T.);
#1064=ADVANCED_FACE('',(#54),#23,.F.);
#1065=ADVANCED_FACE('',(#55),#1038,.T.);
#1066=ADVANCED_FACE('',(#56),#24,.F.);
#1067=ADVANCED_FACE('',(#57),#1039,.T.);
#1068=ADVANCED_FACE('',(#58),#25,.F.);
#1069=ADVANCED_FACE('',(#59),#1040,.T.);
#1070=ADVANCED_FACE('',(#60),#1041,.T.);
#1071=ADVANCED_FACE('',(#61),#1042,.T.);
#1072=ADVANCED_FACE('',(#62),#26,.T.);
#1073=ADVANCED_FACE('',(#63),#1043,.T.);
#1074=ADVANCED_FACE('',(#64),#1044,.T.);
#1075=ADVANCED_FACE('',(#65),#27,.T.);
#1076=ADVANCED_FACE('',(#66),#28,.T.);
#1077=ADVANCED_FACE('',(#67),#1045,.T.);
#1078=ADVANCED_FACE('',(#68),#29,.T.);
#1079=ADVANCED_FACE('',(#69),#30,.F.);
#1080=ADVANCED_FACE('',(#70),#31,.T.);
#1081=ADVANCED_FACE('',(#71,#15,#16,#17,#18),#1046,.F.);
#1082=ADVANCED_FACE('',(#72),#32,.T.);
#1083=ADVANCED_FACE('',(#73),#33,.T.);
#1084=ADVANCED_FACE('',(#74),#1047,.T.);
#1085=ADVANCED_FACE('',(#75),#34,.T.);
#1086=ADVANCED_FACE('',(#76),#35,.T.);
#1087=ADVANCED_FACE('',(#77),#1048,.T.);
#1088=ADVANCED_FACE('',(#78),#1049,.T.);
#1089=ADVANCED_FACE('',(#79),#1050,.T.);
#1090=ADVANCED_FACE('',(#80),#1051,.T.);
#1091=ADVANCED_FACE('',(#81),#1052,.T.);
#1092=ADVANCED_FACE('',(#82),#36,.T.);
#1093=ADVANCED_FACE('',(#83),#37,.T.);
#1094=ADVANCED_FACE('',(#84),#38,.T.);
#1095=ADVANCED_FACE('',(#85),#39,.F.);
#1096=ADVANCED_FACE('',(#86),#40,.T.);
#1097=ADVANCED_FACE('',(#87),#1053,.T.);
#1098=ADVANCED_FACE('',(#88),#41,.T.);
#1099=ADVANCED_FACE('',(#89),#42,.T.);
#1100=ADVANCED_FACE('',(#90),#1054,.T.);
#1101=ADVANCED_FACE('',(#91),#43,.T.);
#1102=ADVANCED_FACE('',(#92),#44,.T.);
#1103=ADVANCED_FACE('',(#93),#1055,.T.);
#1104=ADVANCED_FACE('',(#94),#45,.T.);
#1105=ADVANCED_FACE('',(#95),#46,.T.);
#1106=ADVANCED_FACE('',(#96),#1056,.T.);
#1107=ADVANCED_FACE('',(#97),#47,.T.);
#1108=ADVANCED_FACE('',(#98,#19,#20,#21),#1057,.T.);
#1109=CLOSED_SHELL('',(#1058,#1059,#1060,#1061,#1062,#1063,#1064,#1065,
#1066,#1067,#1068,#1069,#1070,#1071,#1072,#1073,#1074,#1075,#1076,#1077,
#1078,#1079,#1080,#1081,#1082,#1083,#1084,#1085,#1086,#1087,#1088,#1089,
#1090,#1091,#1092,#1093,#1094,#1095,#1096,#1097,#1098,#1099,#1100,#1101,
#1102,#1103,#1104,#1105,#1106,#1107,#1108));
#1110=DERIVED_UNIT_ELEMENT(#1113,1.);
#1111=DERIVED_UNIT_ELEMENT(#1944,-3.);
#1112=DIMENSIONAL_EXPONENTS(0.,1.,0.,0.,0.,0.,0.);
#1113=(
CONVERSION_BASED_UNIT('gram',#1115)
MASS_UNIT()
NAMED_UNIT(#1112)
);
#1114=(
MASS_UNIT()
NAMED_UNIT(*)
SI_UNIT(.KILO.,.GRAM.)
);
#1115=MASS_MEASURE_WITH_UNIT(MASS_MEASURE(0.001),#1114);
#1116=DERIVED_UNIT((#1110,#1111));
#1117=MEASURE_REPRESENTATION_ITEM('density measure',
POSITIVE_RATIO_MEASURE(1.),#1116);
#1118=PROPERTY_DEFINITION_REPRESENTATION(#1123,#1120);
#1119=PROPERTY_DEFINITION_REPRESENTATION(#1124,#1121);
#1120=REPRESENTATION('material name',(#1122),#1941);
#1121=REPRESENTATION('density',(#1117),#1941);
#1122=DESCRIPTIVE_REPRESENTATION_ITEM('Generic','Generic');
#1123=PROPERTY_DEFINITION('material property','material name',#1951);
#1124=PROPERTY_DEFINITION('material property','density of part',#1951);
#1125=DATE_TIME_ROLE('creation_date');
#1126=APPLIED_DATE_AND_TIME_ASSIGNMENT(#1127,#1125,(#1951));
#1127=DATE_AND_TIME(#1128,#1129);
#1128=CALENDAR_DATE(2026,9,5);
#1129=LOCAL_TIME(0,0,0.,#1130);
#1130=COORDINATED_UNIVERSAL_TIME_OFFSET(0,0,.BEHIND.);
#1131=AXIS2_PLACEMENT_3D('',#1607,#1259,#1260);
#1132=AXIS2_PLACEMENT_3D('',#1608,#1261,#1262);
#1133=AXIS2_PLACEMENT_3D('',#1613,#1264,#1265);
#1134=AXIS2_PLACEMENT_3D('',#1615,#1266,#1267);
#1135=AXIS2_PLACEMENT_3D('',#1617,#1268,#1269);
#1136=AXIS2_PLACEMENT_3D('',#1619,#1270,#1271);
#1137=AXIS2_PLACEMENT_3D('',#1622,#1273,#1274);
#1138=AXIS2_PLACEMENT_3D('',#1623,#1275,#1276);
#1139=AXIS2_PLACEMENT_3D('',#1628,#1278,#1279);
#1140=AXIS2_PLACEMENT_3D('',#1630,#1280,#1281);
#1141=AXIS2_PLACEMENT_3D('',#1632,#1282,#1283);
#1142=AXIS2_PLACEMENT_3D('',#1634,#1284,#1285);
#1143=AXIS2_PLACEMENT_3D('',#1637,#1287,#1288);
#1144=AXIS2_PLACEMENT_3D('',#1638,#1289,#1290);
#1145=AXIS2_PLACEMENT_3D('',#1643,#1292,#1293);
#1146=AXIS2_PLACEMENT_3D('',#1645,#1294,#1295);
#1147=AXIS2_PLACEMENT_3D('',#1647,#1296,#1297);
#1148=AXIS2_PLACEMENT_3D('',#1649,#1298,#1299);
#1149=AXIS2_PLACEMENT_3D('',#1652,#1301,#1302);
#1150=AXIS2_PLACEMENT_3D('',#1653,#1303,#1304);
#1151=AXIS2_PLACEMENT_3D('',#1658,#1306,#1307);
#1152=AXIS2_PLACEMENT_3D('',#1660,#1308,#1309);
#1153=AXIS2_PLACEMENT_3D('',#1662,#1310,#1311);
#1154=AXIS2_PLACEMENT_3D('',#1664,#1312,#1313);
#1155=AXIS2_PLACEMENT_3D('',#1667,#1315,#1316);
#1156=AXIS2_PLACEMENT_3D('',#1668,#1317,#1318);
#1157=AXIS2_PLACEMENT_3D('',#1673,#1321,#1322);
#1158=AXIS2_PLACEMENT_3D('',#1676,#1324,#1325);
#1159=AXIS2_PLACEMENT_3D('',#1677,#1326,#1327);
#1160=AXIS2_PLACEMENT_3D('',#1683,#1331,#1332);
#1161=AXIS2_PLACEMENT_3D('',#1688,#1335,#1336);
#1162=AXIS2_PLACEMENT_3D('',#1691,#1338,#1339);
#1163=AXIS2_PLACEMENT_3D('',#1692,#1340,#1341);
#1164=AXIS2_PLACEMENT_3D('',#1698,#1345,#1346);
#1165=AXIS2_PLACEMENT_3D('',#1703,#1349,#1350);
#1166=AXIS2_PLACEMENT_3D('',#1706,#1352,#1353);
#1167=AXIS2_PLACEMENT_3D('',#1707,#1354,#1355);
#1168=AXIS2_PLACEMENT_3D('',#1713,#1359,#1360);
#1169=AXIS2_PLACEMENT_3D('',#1718,#1363,#1364);
#1170=AXIS2_PLACEMENT_3D('',#1721,#1366,#1367);
#1171=AXIS2_PLACEMENT_3D('',#1722,#1368,#1369);
#1172=AXIS2_PLACEMENT_3D('',#1728,#1373,#1374);
#1173=AXIS2_PLACEMENT_3D('',#1731,#1375,#1376);
#1174=AXIS2_PLACEMENT_3D('',#1735,#1378,#1379);
#1175=AXIS2_PLACEMENT_3D('',#1737,#1380,#1381);
#1176=AXIS2_PLACEMENT_3D('',#1739,#1382,#1383);
#1177=AXIS2_PLACEMENT_3D('',#1743,#1385,#1386);
#1178=AXIS2_PLACEMENT_3D('',#1745,#1387,#1388);
#1179=AXIS2_PLACEMENT_3D('',#1749,#1390,#1391);
#1180=AXIS2_PLACEMENT_3D('',#1753,#1393,#1394);
#1181=AXIS2_PLACEMENT_3D('',#1757,#1396,#1397);
#1182=AXIS2_PLACEMENT_3D('',#1761,#1399,#1400);
#1183=AXIS2_PLACEMENT_3D('',#1765,#1402,#1403);
#1184=AXIS2_PLACEMENT_3D('',#1769,#1405,#1406);
#1185=AXIS2_PLACEMENT_3D('',#1773,#1408,#1409);
#1186=AXIS2_PLACEMENT_3D('',#1776,#1411,#1412);
#1187=AXIS2_PLACEMENT_3D('',#1777,#1413,#1414);
#1188=AXIS2_PLACEMENT_3D('',#1783,#1418,#1419);
#1189=AXIS2_PLACEMENT_3D('',#1786,#1421,#1422);
#1190=AXIS2_PLACEMENT_3D('',#1787,#1423,#1424);
#1191=AXIS2_PLACEMENT_3D('',#1791,#1427,#1428);
#1192=AXIS2_PLACEMENT_3D('',#1797,#1432,#1433);
#1193=AXIS2_PLACEMENT_3D('',#1800,#1435,#1436);
#1194=AXIS2_PLACEMENT_3D('',#1801,#1437,#1438);
#1195=AXIS2_PLACEMENT_3D('',#1804,#1440,#1441);
#1196=AXIS2_PLACEMENT_3D('',#1805,#1442,#1443);
#1197=AXIS2_PLACEMENT_3D('',#1809,#1446,#1447);
#1198=AXIS2_PLACEMENT_3D('',#1812,#1449,#1450);
#1199=AXIS2_PLACEMENT_3D('',#1813,#1451,#1452);
#1200=AXIS2_PLACEMENT_3D('',#1816,#1454,#1455);
#1201=AXIS2_PLACEMENT_3D('',#1817,#1456,#1457);
#1202=AXIS2_PLACEMENT_3D('',#1820,#1459,#1460);
#1203=AXIS2_PLACEMENT_3D('',#1821,#1461,#1462);
#1204=AXIS2_PLACEMENT_3D('',#1824,#1463,#1464);
#1205=AXIS2_PLACEMENT_3D('',#1826,#1465,#1466);
#1206=AXIS2_PLACEMENT_3D('',#1827,#1467,#1468);
#1207=AXIS2_PLACEMENT_3D('',#1829,#1469,#1470);
#1208=AXIS2_PLACEMENT_3D('',#1832,#1472,#1473);
#1209=AXIS2_PLACEMENT_3D('',#1834,#1474,#1475);
#1210=AXIS2_PLACEMENT_3D('',#1837,#1477,#1478);
#1211=AXIS2_PLACEMENT_3D('',#1839,#1479,#1480);
#1212=AXIS2_PLACEMENT_3D('',#1842,#1482,#1483);
#1213=AXIS2_PLACEMENT_3D('',#1844,#1484,#1485);
#1214=AXIS2_PLACEMENT_3D('',#1848,#1487,#1488);
#1215=AXIS2_PLACEMENT_3D('',#1849,#1489,#1490);
#1216=AXIS2_PLACEMENT_3D('',#1850,#1491,#1492);
#1217=AXIS2_PLACEMENT_3D('',#1853,#1493,#1494);
#1218=AXIS2_PLACEMENT_3D('',#1856,#1497,#1498);
#1219=AXIS2_PLACEMENT_3D('',#1860,#1500,#1501);
#1220=AXIS2_PLACEMENT_3D('',#1862,#1503,#1504);
#1221=AXIS2_PLACEMENT_3D('',#1864,#1506,#1507);
#1222=AXIS2_PLACEMENT_3D('',#1867,#1508,#1509);
#1223=AXIS2_PLACEMENT_3D('',#1870,#1512,#1513);
#1224=AXIS2_PLACEMENT_3D('',#1871,#1514,#1515);
#1225=AXIS2_PLACEMENT_3D('',#1872,#1516,#1517);
#1226=AXIS2_PLACEMENT_3D('',#1878,#1521,#1522);
#1227=AXIS2_PLACEMENT_3D('',#1884,#1526,#1527);
#1228=AXIS2_PLACEMENT_3D('',#1890,#1531,#1532);
#1229=AXIS2_PLACEMENT_3D('',#1896,#1536,#1537);
#1230=AXIS2_PLACEMENT_3D('',#1902,#1541,#1542);
#1231=AXIS2_PLACEMENT_3D('',#1903,#1543,#1544);
#1232=AXIS2_PLACEMENT_3D('',#1904,#1545,#1546);
#1233=AXIS2_PLACEMENT_3D('',#1905,#1547,#1548);
#1234=AXIS2_PLACEMENT_3D('',#1906,#1549,#1550);
#1235=AXIS2_PLACEMENT_3D('',#1907,#1551,#1552);
#1236=AXIS2_PLACEMENT_3D('',#1908,#1553,#1554);
#1237=AXIS2_PLACEMENT_3D('',#1909,#1555,#1556);
#1238=AXIS2_PLACEMENT_3D('',#1910,#1557,#1558);
#1239=AXIS2_PLACEMENT_3D('',#1911,#1559,#1560);
#1240=AXIS2_PLACEMENT_3D('',#1912,#1561,#1562);
#1241=AXIS2_PLACEMENT_3D('',#1913,#1563,#1564);
#1242=AXIS2_PLACEMENT_3D('',#1914,#1565,#1566);
#1243=AXIS2_PLACEMENT_3D('',#1916,#1568,#1569);
#1244=AXIS2_PLACEMENT_3D('',#1918,#1571,#1572);
#1245=AXIS2_PLACEMENT_3D('',#1919,#1573,#1574);
#1246=AXIS2_PLACEMENT_3D('',#1920,#1575,#1576);
#1247=AXIS2_PLACEMENT_3D('',#1922,#1578,#1579);
#1248=AXIS2_PLACEMENT_3D('',#1924,#1581,#1582);
#1249=AXIS2_PLACEMENT_3D('',#1925,#1583,#1584);
#1250=AXIS2_PLACEMENT_3D('',#1926,#1585,#1586);
#1251=AXIS2_PLACEMENT_3D('',#1928,#1588,#1589);
#1252=AXIS2_PLACEMENT_3D('',#1930,#1591,#1592);
#1253=AXIS2_PLACEMENT_3D('',#1931,#1593,#1594);
#1254=AXIS2_PLACEMENT_3D('',#1932,#1595,#1596);
#1255=AXIS2_PLACEMENT_3D('',#1934,#1598,#1599);
#1256=AXIS2_PLACEMENT_3D('',#1936,#1601,#1602);
#1257=AXIS2_PLACEMENT_3D('',#1937,#1603,#1604);
#1258=AXIS2_PLACEMENT_3D('',#1938,#1605,#1606);
#1259=DIRECTION('axis',(0.,0.,1.));
#1260=DIRECTION('refdir',(1.,0.,0.));
#1261=DIRECTION('center_axis',(0.,1.,0.));
#1262=DIRECTION('ref_axis',(0.,0.,1.));
#1263=DIRECTION('',(-0.841704418464235,0.,-0.539938581634785));
#1264=DIRECTION('center_axis',(0.,1.,0.));
#1265=DIRECTION('ref_axis',(-1.,0.,0.));
#1266=DIRECTION('center_axis',(0.,1.,0.));
#1267=DIRECTION('ref_axis',(1.,0.,0.));
#1268=DIRECTION('center_axis',(0.,1.,0.));
#1269=DIRECTION('ref_axis',(1.,0.,0.));
#1270=DIRECTION('center_axis',(0.,1.,0.));
#1271=DIRECTION('ref_axis',(-1.,0.,0.));
#1272=DIRECTION('',(0.811855519947801,0.,0.5838583858525));
#1273=DIRECTION('center_axis',(0.,-1.,0.));
#1274=DIRECTION('ref_axis',(0.583858385852503,0.,-0.811855519947798));
#1275=DIRECTION('center_axis',(0.,1.,0.));
#1276=DIRECTION('ref_axis',(0.,0.,1.));
#1277=DIRECTION('',(-0.5838583858525,0.,-0.811855519947801));
#1278=DIRECTION('center_axis',(0.,1.,0.));
#1279=DIRECTION('ref_axis',(-1.,0.,0.));
#1280=DIRECTION('center_axis',(0.,1.,0.));
#1281=DIRECTION('ref_axis',(1.,0.,0.));
#1282=DIRECTION('center_axis',(0.,1.,0.));
#1283=DIRECTION('ref_axis',(1.,0.,0.));
#1284=DIRECTION('center_axis',(0.,1.,0.));
#1285=DIRECTION('ref_axis',(-1.,0.,0.));
#1286=DIRECTION('',(0.539938581634776,0.,0.841704418464241));
#1287=DIRECTION('center_axis',(0.,-1.,0.));
#1288=DIRECTION('ref_axis',(0.841704418464239,0.,-0.539938581634778));
#1289=DIRECTION('center_axis',(0.,1.,0.));
#1290=DIRECTION('ref_axis',(0.,0.,1.));
#1291=DIRECTION('',(-0.986918767387755,0.,-0.161218319609884));
#1292=DIRECTION('center_axis',(0.,1.,0.));
#1293=DIRECTION('ref_axis',(-1.,0.,0.));
#1294=DIRECTION('center_axis',(0.,1.,0.));
#1295=DIRECTION('ref_axis',(1.,0.,0.));
#1296=DIRECTION('center_axis',(0.,1.,0.));
#1297=DIRECTION('ref_axis',(1.,0.,0.));
#1298=DIRECTION('center_axis',(0.,1.,0.));
#1299=DIRECTION('ref_axis',(-1.,0.,0.));
#1300=DIRECTION('',(0.976969134548942,0.,0.213380669552545));
#1301=DIRECTION('center_axis',(0.,-1.,0.));
#1302=DIRECTION('ref_axis',(0.213380669552502,0.,-0.976969134548951));
#1303=DIRECTION('center_axis',(0.,1.,0.));
#1304=DIRECTION('ref_axis',(0.,0.,1.));
#1305=DIRECTION('',(-0.21338066955254,0.,-0.976969134548943));
#1306=DIRECTION('center_axis',(0.,1.,0.));
#1307=DIRECTION('ref_axis',(-1.,0.,0.));
#1308=DIRECTION('center_axis',(0.,1.,0.));
#1309=DIRECTION('ref_axis',(1.,0.,0.));
#1310=DIRECTION('center_axis',(0.,1.,0.));
#1311=DIRECTION('ref_axis',(1.,0.,0.));
#1312=DIRECTION('center_axis',(0.,1.,0.));
#1313=DIRECTION('ref_axis',(-1.,0.,0.));
#1314=DIRECTION('',(0.161218319609883,0.,0.986918767387755));
#1315=DIRECTION('center_axis',(0.,-1.,0.));
#1316=DIRECTION('ref_axis',(0.986918767387748,0.,-0.161218319609923));
#1317=DIRECTION('center_axis',(0.,1.,0.));
#1318=DIRECTION('ref_axis',(1.,0.,0.));
#1319=DIRECTION('',(0.,-1.,0.));
#1320=DIRECTION('',(0.,-1.,0.));
#1321=DIRECTION('center_axis',(0.,-1.,0.));
#1322=DIRECTION('ref_axis',(1.,0.,0.));
#1323=DIRECTION('',(0.,1.,0.));
#1324=DIRECTION('center_axis',(0.,-1.,0.));
#1325=DIRECTION('ref_axis',(1.,0.,0.));
#1326=DIRECTION('center_axis',(-0.539938581634785,0.,0.841704418464235));
#1327=DIRECTION('ref_axis',(0.841704418464235,0.,0.539938581634785));
#1328=DIRECTION('',(0.,1.,0.));
#1329=DIRECTION('',(0.841704418464235,0.,0.539938581634785));
#1330=DIRECTION('',(0.,1.,0.));
#1331=DIRECTION('center_axis',(0.,1.,0.));
#1332=DIRECTION('ref_axis',(1.,0.,0.));
#1333=DIRECTION('',(0.,-1.,0.));
#1334=DIRECTION('',(0.,-1.,0.));
#1335=DIRECTION('center_axis',(0.,-1.,0.));
#1336=DIRECTION('ref_axis',(1.,0.,0.));
#1337=DIRECTION('',(0.,1.,0.));
#1338=DIRECTION('center_axis',(0.,-1.,0.));
#1339=DIRECTION('ref_axis',(1.,0.,0.));
#1340=DIRECTION('center_axis',(-0.811855519947801,0.,0.5838583858525));
#1341=DIRECTION('ref_axis',(0.5838583858525,0.,0.811855519947801));
#1342=DIRECTION('',(0.,1.,0.));
#1343=DIRECTION('',(0.5838583858525,0.,0.811855519947801));
#1344=DIRECTION('',(0.,1.,0.));
#1345=DIRECTION('center_axis',(0.,1.,0.));
#1346=DIRECTION('ref_axis',(1.,0.,0.));
#1347=DIRECTION('',(0.,-1.,0.));
#1348=DIRECTION('',(0.,-1.,0.));
#1349=DIRECTION('center_axis',(0.,-1.,0.));
#1350=DIRECTION('ref_axis',(1.,0.,0.));
#1351=DIRECTION('',(0.,1.,0.));
#1352=DIRECTION('center_axis',(0.,-1.,0.));
#1353=DIRECTION('ref_axis',(1.,0.,0.));
#1354=DIRECTION('center_axis',(-0.161218319609884,0.,0.986918767387755));
#1355=DIRECTION('ref_axis',(0.986918767387755,0.,0.161218319609884));
#1356=DIRECTION('',(0.,1.,0.));
#1357=DIRECTION('',(0.986918767387755,0.,0.161218319609884));
#1358=DIRECTION('',(0.,1.,0.));
#1359=DIRECTION('center_axis',(0.,1.,0.));
#1360=DIRECTION('ref_axis',(1.,0.,0.));
#1361=DIRECTION('',(0.,-1.,0.));
#1362=DIRECTION('',(0.,-1.,0.));
#1363=DIRECTION('center_axis',(0.,-1.,0.));
#1364=DIRECTION('ref_axis',(1.,0.,0.));
#1365=DIRECTION('',(0.,1.,0.));
#1366=DIRECTION('center_axis',(0.,-1.,0.));
#1367=DIRECTION('ref_axis',(1.,0.,0.));
#1368=DIRECTION('center_axis',(-0.976969134548943,0.,0.21338066955254));
#1369=DIRECTION('ref_axis',(0.21338066955254,0.,0.976969134548943));
#1370=DIRECTION('',(0.,1.,0.));
#1371=DIRECTION('',(0.21338066955254,0.,0.976969134548943));
#1372=DIRECTION('',(0.,1.,0.));
#1373=DIRECTION('center_axis',(0.,-1.,0.));
#1374=DIRECTION('ref_axis',(0.,0.,-1.));
#1375=DIRECTION('center_axis',(0.,1.,0.));
#1376=DIRECTION('ref_axis',(0.704604608557517,0.,-0.709600130777545));
#1377=DIRECTION('',(1.77034500331035E-14,0.,-1.));
#1378=DIRECTION('center_axis',(0.,1.,0.));
#1379=DIRECTION('ref_axis',(0.709913093872997,0.,0.704289286548979));
#1380=DIRECTION('center_axis',(0.,-1.,0.));
#1381=DIRECTION('ref_axis',(-3.7026562754518E-15,0.,1.));
#1382=DIRECTION('center_axis',(0.,1.,0.));
#1383=DIRECTION('ref_axis',(0.676938469176003,0.,0.736039610992269));
#1384=DIRECTION('',(1.,0.,0.));
#1385=DIRECTION('center_axis',(0.,1.,0.));
#1386=DIRECTION('ref_axis',(-0.734580483604247,0.,0.678521564217196));
#1387=DIRECTION('center_axis',(0.,1.,0.));
#1388=DIRECTION('ref_axis',(0.0990557822480839,0.,-0.995081882059572));
#1389=DIRECTION('',(0.998851808507984,0.,0.0479068329189971));
#1390=DIRECTION('center_axis',(0.,1.,0.));
#1391=DIRECTION('ref_axis',(1.,0.,0.));
#1392=DIRECTION('',(-0.998851808507984,0.,-0.0479068329189971));
#1393=DIRECTION('center_axis',(0.,1.,0.));
#1394=DIRECTION('ref_axis',(0.0990557822480839,0.,-0.995081882059572));
#1395=DIRECTION('',(0.841704418464234,0.,0.539938581634787));
#1396=DIRECTION('center_axis',(0.,1.,0.));
#1397=DIRECTION('ref_axis',(1.,0.,0.));
#1398=DIRECTION('',(-0.841704418464234,0.,-0.539938581634787));
#1399=DIRECTION('center_axis',(0.,1.,0.));
#1400=DIRECTION('ref_axis',(0.0990557822480839,0.,-0.995081882059572));
#1401=DIRECTION('',(0.539938581634775,0.,0.841704418464242));
#1402=DIRECTION('center_axis',(0.,1.,0.));
#1403=DIRECTION('ref_axis',(1.,0.,0.));
#1404=DIRECTION('',(-0.539938581634775,0.,-0.841704418464242));
#1405=DIRECTION('center_axis',(0.,1.,0.));
#1406=DIRECTION('ref_axis',(0.0990557822480839,0.,-0.995081882059572));
#1407=DIRECTION('',(0.246697460334192,0.,0.96909254618156));
#1408=DIRECTION('center_axis',(0.,1.,0.));
#1409=DIRECTION('ref_axis',(1.,0.,0.));
#1410=DIRECTION('',(-0.296202370408852,0.,-0.955125204234595));
#1411=DIRECTION('center_axis',(0.,1.,0.));
#1412=DIRECTION('ref_axis',(0.0990557822480839,0.,-0.995081882059572));
#1413=DIRECTION('center_axis',(-0.539938581634787,0.,0.841704418464234));
#1414=DIRECTION('ref_axis',(-0.841704418464234,0.,-0.539938581634787));
#1415=DIRECTION('',(0.,-1.,0.));
#1416=DIRECTION('',(0.841704418464234,0.,0.539938581634787));
#1417=DIRECTION('',(0.,1.,0.));
#1418=DIRECTION('center_axis',(0.,1.,0.));
#1419=DIRECTION('ref_axis',(0.0990557822480839,0.,-0.995081882059572));
#1420=DIRECTION('',(0.,1.,0.));
#1421=DIRECTION('center_axis',(0.,1.,0.));
#1422=DIRECTION('ref_axis',(0.0990557822480839,0.,-0.995081882059572));
#1423=DIRECTION('center_axis',(0.0479068329189971,0.,-0.998851808507984));
#1424=DIRECTION('ref_axis',(-0.998851808507984,0.,-0.0479068329189971));
#1425=DIRECTION('',(0.,1.,0.));
#1426=DIRECTION('',(-0.998851808507984,0.,-0.0479068329189971));
#1427=DIRECTION('center_axis',(-0.0479068329189971,0.,0.998851808507984));
#1428=DIRECTION('ref_axis',(0.998851808507984,0.,0.0479068329189971));
#1429=DIRECTION('',(0.,1.,0.));
#1430=DIRECTION('',(0.998851808507984,0.,0.0479068329189971));
#1431=DIRECTION('',(0.,1.,0.));
#1432=DIRECTION('center_axis',(0.,1.,0.));
#1433=DIRECTION('ref_axis',(0.0990557822480839,0.,-0.995081882059572));
#1434=DIRECTION('',(0.,-1.,0.));
#1435=DIRECTION('center_axis',(0.,1.,0.));
#1436=DIRECTION('ref_axis',(0.0990557822480839,0.,-0.995081882059572));
#1437=DIRECTION('center_axis',(0.,1.,0.));
#1438=DIRECTION('ref_axis',(-0.734580483604247,0.,0.678521564217196));
#1439=DIRECTION('',(0.,1.,0.));
#1440=DIRECTION('center_axis',(0.,-1.,0.));
#1441=DIRECTION('ref_axis',(-0.734580483604247,0.,0.678521564217196));
#1442=DIRECTION('center_axis',(0.,0.,1.));
#1443=DIRECTION('ref_axis',(1.,0.,0.));
#1444=DIRECTION('',(0.,-1.,0.));
#1445=DIRECTION('',(1.,0.,0.));
#1446=DIRECTION('center_axis',(0.,1.,0.));
#1447=DIRECTION('ref_axis',(0.676938469176003,0.,0.736039610992269));
#1448=DIRECTION('',(0.,1.,0.));
#1449=DIRECTION('center_axis',(0.,-1.,0.));
#1450=DIRECTION('ref_axis',(0.676938469176003,0.,0.736039610992269));
#1451=DIRECTION('center_axis',(0.,1.,0.));
#1452=DIRECTION('ref_axis',(-3.7026562754518E-15,0.,1.));
#1453=DIRECTION('',(0.,-1.,0.));
#1454=DIRECTION('center_axis',(0.,-1.,0.));
#1455=DIRECTION('ref_axis',(-3.7026562754518E-15,0.,1.));
#1456=DIRECTION('center_axis',(0.,1.,0.));
#1457=DIRECTION('ref_axis',(0.709913093872997,0.,0.704289286548979));
#1458=DIRECTION('',(0.,1.,0.));
#1459=DIRECTION('center_axis',(0.,-1.,0.));
#1460=DIRECTION('ref_axis',(0.709913093872997,0.,0.704289286548979));
#1461=DIRECTION('center_axis',(0.,1.,0.));
#1462=DIRECTION('ref_axis',(0.,0.,1.));
#1463=DIRECTION('center_axis',(0.,-1.,0.));
#1464=DIRECTION('ref_axis',(-1.58797620141905E-15,0.,1.));
#1465=DIRECTION('center_axis',(0.,1.,0.));
#1466=DIRECTION('ref_axis',(0.704487577365524,0.,0.709716318917394));
#1467=DIRECTION('center_axis',(0.,1.,0.));
#1468=DIRECTION('ref_axis',(-0.990982488583495,0.,-0.133991444954012));
#1469=DIRECTION('center_axis',(0.,1.,0.));
#1470=DIRECTION('ref_axis',(0.213380669552502,0.,-0.976969134548951));
#1471=DIRECTION('',(-0.976969134548942,0.,-0.213380669552545));
#1472=DIRECTION('center_axis',(0.,1.,0.));
#1473=DIRECTION('ref_axis',(-0.85624776344259,0.,-0.51656535656155));
#1474=DIRECTION('center_axis',(0.,1.,0.));
#1475=DIRECTION('ref_axis',(0.583858385852503,0.,-0.811855519947798));
#1476=DIRECTION('',(-0.811855519947801,0.,-0.5838583858525));
#1477=DIRECTION('center_axis',(0.,1.,0.));
#1478=DIRECTION('ref_axis',(-0.605984178366542,0.,-0.795476697062476));
#1479=DIRECTION('center_axis',(0.,1.,0.));
#1480=DIRECTION('ref_axis',(0.841704418464239,0.,-0.539938581634778));
#1481=DIRECTION('',(-0.539938581634776,0.,-0.841704418464241));
#1482=DIRECTION('center_axis',(0.,1.,0.));
#1483=DIRECTION('ref_axis',(-0.240191733355352,0.,-0.970725466456789));
#1484=DIRECTION('center_axis',(0.,1.,0.));
#1485=DIRECTION('ref_axis',(0.986918767387748,0.,-0.161218319609923));
#1486=DIRECTION('',(-0.161218319609883,0.,-0.986918767387755));
#1487=DIRECTION('center_axis',(0.,1.,0.));
#1488=DIRECTION('ref_axis',(1.69505264774519E-15,0.,-1.));
#1489=DIRECTION('center_axis',(0.,1.,0.));
#1490=DIRECTION('ref_axis',(0.704487577365526,0.,-0.709716318917391));
#1491=DIRECTION('center_axis',(0.,1.,0.));
#1492=DIRECTION('ref_axis',(0.709716318917409,0.,0.704487577365508));
#1493=DIRECTION('center_axis',(0.,-1.,0.));
#1494=DIRECTION('ref_axis',(0.704487577365526,0.,-0.709716318917391));
#1495=DIRECTION('',(0.,-1.,0.));
#1496=DIRECTION('',(0.,1.,0.));
#1497=DIRECTION('center_axis',(0.,1.,0.));
#1498=DIRECTION('ref_axis',(0.704604608557517,0.,-0.709600130777545));
#1499=DIRECTION('',(0.,1.,0.));
#1500=DIRECTION('center_axis',(0.,-1.,0.));
#1501=DIRECTION('ref_axis',(0.704604608557517,0.,-0.709600130777545));
#1502=DIRECTION('',(0.,-1.,0.));
#1503=DIRECTION('center_axis',(1.,0.,1.77034500331035E-14));
#1504=DIRECTION('ref_axis',(1.77034500331035E-14,0.,-1.));
#1505=DIRECTION('',(1.77034500331035E-14,0.,-1.));
#1506=DIRECTION('center_axis',(0.,1.,0.));
#1507=DIRECTION('ref_axis',(-0.709716318917391,0.,0.704487577365526));
#1508=DIRECTION('center_axis',(0.,-1.,0.));
#1509=DIRECTION('ref_axis',(0.704487577365524,0.,0.709716318917394));
#1510=DIRECTION('',(0.,-1.,0.));
#1511=DIRECTION('',(0.,1.,0.));
#1512=DIRECTION('center_axis',(0.,1.,0.));
#1513=DIRECTION('ref_axis',(-0.990982488583495,0.,-0.133991444954012));
#1514=DIRECTION('center_axis',(0.,1.,0.));
#1515=DIRECTION('ref_axis',(-1.,0.,0.));
#1516=DIRECTION('center_axis',(-0.969092546181561,0.,0.246697460334192));
#1517=DIRECTION('ref_axis',(-0.246697460334192,0.,-0.96909254618156));
#1518=DIRECTION('',(0.,-1.,0.));
#1519=DIRECTION('',(0.246697460334192,0.,0.96909254618156));
#1520=DIRECTION('',(0.,1.,0.));
#1521=DIRECTION('center_axis',(0.955125204234595,0.,-0.296202370408852));
#1522=DIRECTION('ref_axis',(0.296202370408852,0.,0.955125204234595));
#1523=DIRECTION('',(0.,-1.,0.));
#1524=DIRECTION('',(-0.296202370408852,0.,-0.955125204234595));
#1525=DIRECTION('',(0.,1.,0.));
#1526=DIRECTION('center_axis',(0.539938581634787,0.,-0.841704418464234));
#1527=DIRECTION('ref_axis',(0.841704418464234,0.,0.539938581634787));
#1528=DIRECTION('',(0.,-1.,0.));
#1529=DIRECTION('',(-0.841704418464234,0.,-0.539938581634787));
#1530=DIRECTION('',(0.,1.,0.));
#1531=DIRECTION('center_axis',(-0.841704418464242,0.,0.539938581634775));
#1532=DIRECTION('ref_axis',(-0.539938581634775,0.,-0.841704418464242));
#1533=DIRECTION('',(0.,-1.,0.));
#1534=DIRECTION('',(0.539938581634775,0.,0.841704418464242));
#1535=DIRECTION('',(0.,1.,0.));
#1536=DIRECTION('center_axis',(0.841704418464242,0.,-0.539938581634775));
#1537=DIRECTION('ref_axis',(0.539938581634775,0.,0.841704418464242));
#1538=DIRECTION('',(0.,-1.,0.));
#1539=DIRECTION('',(-0.539938581634775,0.,-0.841704418464242));
#1540=DIRECTION('',(0.,1.,0.));
#1541=DIRECTION('center_axis',(0.,1.,0.));
#1542=DIRECTION('ref_axis',(0.0990557822480839,0.,-0.995081882059572));
#1543=DIRECTION('center_axis',(0.,1.,0.));
#1544=DIRECTION('ref_axis',(0.0990557822480839,0.,-0.995081882059572));
#1545=DIRECTION('center_axis',(0.,1.,0.));
#1546=DIRECTION('ref_axis',(0.0990557822480839,0.,-0.995081882059572));
#1547=DIRECTION('center_axis',(0.,1.,0.));
#1548=DIRECTION('ref_axis',(0.0990557822480839,0.,-0.995081882059572));
#1549=DIRECTION('center_axis',(0.,1.,0.));
#1550=DIRECTION('ref_axis',(0.0990557822480839,0.,-0.995081882059572));
#1551=DIRECTION('center_axis',(0.,1.,0.));
#1552=DIRECTION('ref_axis',(0.0990557822480839,0.,-0.995081882059572));
#1553=DIRECTION('center_axis',(0.,1.,0.));
#1554=DIRECTION('ref_axis',(-1.58797620141905E-15,0.,1.));
#1555=DIRECTION('center_axis',(0.,-1.,0.));
#1556=DIRECTION('ref_axis',(-1.58797620141905E-15,0.,1.));
#1557=DIRECTION('center_axis',(0.,-1.,0.));
#1558=DIRECTION('ref_axis',(-1.58797620141905E-15,0.,1.));
#1559=DIRECTION('center_axis',(0.,-1.,0.));
#1560=DIRECTION('ref_axis',(-1.58797620141905E-15,0.,1.));
#1561=DIRECTION('center_axis',(0.,-1.,0.));
#1562=DIRECTION('ref_axis',(-1.58797620141905E-15,0.,1.));
#1563=DIRECTION('center_axis',(0.,-1.,0.));
#1564=DIRECTION('ref_axis',(-1.58797620141905E-15,0.,1.));
#1565=DIRECTION('center_axis',(0.,1.,0.));
#1566=DIRECTION('ref_axis',(-0.982290257780873,0.,-0.187365550378894));
#1567=DIRECTION('',(0.,1.,0.));
#1568=DIRECTION('center_axis',(0.213380669552545,0.,-0.976969134548941));
#1569=DIRECTION('ref_axis',(-0.976969134548942,0.,-0.213380669552545));
#1570=DIRECTION('',(0.,1.,0.));
#1571=DIRECTION('center_axis',(0.,1.,0.));
#1572=DIRECTION('ref_axis',(-0.85624776344259,0.,-0.51656535656155));
#1573=DIRECTION('center_axis',(0.,1.,0.));
#1574=DIRECTION('ref_axis',(-1.,0.,0.));
#1575=DIRECTION('center_axis',(0.,1.,0.));
#1576=DIRECTION('ref_axis',(-0.827071553603999,0.,-0.562096651136677));
#1577=DIRECTION('',(0.,1.,0.));
#1578=DIRECTION('center_axis',(0.5838583858525,0.,-0.811855519947801));
#1579=DIRECTION('ref_axis',(-0.811855519947801,0.,-0.5838583858525));
#1580=DIRECTION('',(0.,1.,0.));
#1581=DIRECTION('center_axis',(0.,1.,0.));
#1582=DIRECTION('ref_axis',(-0.605984178366542,0.,-0.795476697062476));
#1583=DIRECTION('center_axis',(0.,1.,0.));
#1584=DIRECTION('ref_axis',(-1.,0.,0.));
#1585=DIRECTION('center_axis',(0.,1.,0.));
#1586=DIRECTION('ref_axis',(-0.562096651136672,0.,-0.827071553604002));
#1587=DIRECTION('',(0.,1.,0.));
#1588=DIRECTION('center_axis',(0.841704418464241,0.,-0.539938581634776));
#1589=DIRECTION('ref_axis',(-0.539938581634776,0.,-0.841704418464241));
#1590=DIRECTION('',(0.,1.,0.));
#1591=DIRECTION('center_axis',(0.,1.,0.));
#1592=DIRECTION('ref_axis',(-0.240191733355352,0.,-0.970725466456789));
#1593=DIRECTION('center_axis',(0.,1.,0.));
#1594=DIRECTION('ref_axis',(-1.,0.,0.));
#1595=DIRECTION('center_axis',(0.,1.,0.));
#1596=DIRECTION('ref_axis',(-0.187365550378888,0.,-0.982290257780874));
#1597=DIRECTION('',(0.,1.,0.));
#1598=DIRECTION('center_axis',(0.986918767387755,0.,-0.161218319609883));
#1599=DIRECTION('ref_axis',(-0.161218319609883,0.,-0.986918767387755));
#1600=DIRECTION('',(0.,1.,0.));
#1601=DIRECTION('center_axis',(0.,1.,0.));
#1602=DIRECTION('ref_axis',(1.69505264774519E-15,0.,-1.));
#1603=DIRECTION('center_axis',(0.,1.,0.));
#1604=DIRECTION('ref_axis',(1.69505264774519E-15,0.,-1.));
#1605=DIRECTION('center_axis',(0.,1.,0.));
#1606=DIRECTION('ref_axis',(0.,0.,1.));
#1607=CARTESIAN_POINT('',(0.,0.,0.));
#1608=CARTESIAN_POINT('Origin',(-9.06595962571532,10.,-51.2221526804133));
#1609=CARTESIAN_POINT('',(-9.37528798722646,10.,-42.9654211188307));
#1610=CARTESIAN_POINT('',(-13.5853488224486,10.,-45.6661011035141));
#1611=CARTESIAN_POINT('',(-13.2469570282793,10.,-45.4490287187523));
#1612=CARTESIAN_POINT('',(-6.27665698814336,10.,-47.8630094669369));
#1613=CARTESIAN_POINT('Origin',(107.276076481388,10.,27.4091319636208));
#1614=CARTESIAN_POINT('',(-14.7858094601877,10.,-51.9788842419959));
#1615=CARTESIAN_POINT('Origin',(-9.5358094601877,10.,-51.9788842419959));
#1616=CARTESIAN_POINT('',(-4.50924046308483,10.,-50.4635941320288));
#1617=CARTESIAN_POINT('Origin',(-9.5358094601877,10.,-51.9788842419959));
#1618=CARTESIAN_POINT('',(-1.09610979124296,10.,-55.1474413448354));
#1619=CARTESIAN_POINT('Origin',(107.276076481388,10.,27.4091319636208));
#1620=CARTESIAN_POINT('',(-5.15687156629393,10.,-58.0678006416044));
#1621=CARTESIAN_POINT('',(-2.79230080673047,10.,-56.3672832059386));
#1622=CARTESIAN_POINT('Origin',(-9.5358094601877,10.,-51.9788842419959));
#1623=CARTESIAN_POINT('Origin',(28.6447918373542,10.,-88.9329041434827));
#1624=CARTESIAN_POINT('',(24.7195031729321,10.,-80.9630543090104));
#1625=CARTESIAN_POINT('',(21.7991438761631,10.,-85.0238160840614));
#1626=CARTESIAN_POINT('',(22.0394816634444,10.,-84.6896262120234));
#1627=CARTESIAN_POINT('',(29.4033503857393,10.,-84.3761849808525));
#1628=CARTESIAN_POINT('Origin',(107.276076481388,10.,27.4091319636208));
#1629=CARTESIAN_POINT('',(22.6380602757716,10.,-89.4027539779552));
#1630=CARTESIAN_POINT('Origin',(27.8880602757716,10.,-89.4027539779552));
#1631=CARTESIAN_POINT('',(32.0039350508303,10.,-86.1436015059105));
#1632=CARTESIAN_POINT('Origin',(27.8880602757716,10.,-89.4027539779552));
#1633=CARTESIAN_POINT('',(36.9015233989367,10.,-89.2422325049941));
#1634=CARTESIAN_POINT('Origin',(107.276076481388,10.,27.4091319636208));
#1635=CARTESIAN_POINT('',(34.2008434142533,10.,-93.452293340216));
#1636=CARTESIAN_POINT('',(35.7682557913569,10.,-91.0088711284357));
#1637=CARTESIAN_POINT('Origin',(27.8880602757716,10.,-89.4027539779552));
#1638=CARTESIAN_POINT('Origin',(-31.9647114358176,10.,1.30059843562343));
#1639=CARTESIAN_POINT('',(-27.7309441419345,10.,9.15473697616503));
#1640=CARTESIAN_POINT('',(-32.6673421921028,10.,8.34835065048991));
#1641=CARTESIAN_POINT('',(-32.8858397349319,10.,8.31265793913633));
#1642=CARTESIAN_POINT('',(-26.8324118588531,10.,3.4293090068144));
#1643=CARTESIAN_POINT('Origin',(107.276076481388,10.,27.4091319636208));
#1644=CARTESIAN_POINT('',(-36.7082047950283,10.,0.946459895081807));
#1645=CARTESIAN_POINT('Origin',(-31.4582047950283,10.,0.946459895081806));
#1646=CARTESIAN_POINT('',(-26.2432730171662,10.,0.340665745024632));
#1647=CARTESIAN_POINT('Origin',(-31.4582047950283,10.,0.946459895081806));
#1648=CARTESIAN_POINT('',(-24.9712180766072,10.,-5.31351517922644));
#1649=CARTESIAN_POINT('Origin',(107.276076481388,10.,27.4091319636208));
#1650=CARTESIAN_POINT('',(-29.8578497733846,10.,-6.38080861403533));
#1651=CARTESIAN_POINT('',(-27.6193433093296,10.,-5.89189449054228));
#1652=CARTESIAN_POINT('Origin',(-31.4582047950283,10.,0.946459895081806));
#1653=CARTESIAN_POINT('Origin',(81.1675429533908,10.,-111.831655953585));
#1654=CARTESIAN_POINT('',(74.553429338541,10.,-104.838162594374));
#1655=CARTESIAN_POINT('',(73.486135903732,10.,-109.724794291152));
#1656=CARTESIAN_POINT('',(73.4414033098206,10.,-109.929603675486));
#1657=CARTESIAN_POINT('',(80.2076102627935,10.,-106.110217534933));
#1658=CARTESIAN_POINT('Origin',(107.276076481388,10.,27.4091319636208));
#1659=CARTESIAN_POINT('',(75.5634044128492,10.,-111.325149312796));
#1660=CARTESIAN_POINT('Origin',(80.8134044128491,10.,-111.325149312796));
#1661=CARTESIAN_POINT('',(83.29625352458,10.,-106.69935637662));
#1662=CARTESIAN_POINT('Origin',(80.8134044128491,10.,-111.325149312796));
#1663=CARTESIAN_POINT('',(89.0216814939323,10.,-107.597888659702));
#1664=CARTESIAN_POINT('Origin',(107.276076481388,10.,27.4091319636208));
#1665=CARTESIAN_POINT('',(88.2152951682572,10.,-112.53428670987));
#1666=CARTESIAN_POINT('',(88.5827956197412,10.,-110.284585227615));
#1667=CARTESIAN_POINT('Origin',(80.8134044128491,10.,-111.325149312796));
#1668=CARTESIAN_POINT('Origin',(-9.5358094601877,0.,-51.9788842419959));
#1669=CARTESIAN_POINT('',(-4.50924046308483,30.,-50.4635941320288));
#1670=CARTESIAN_POINT('',(-4.50924046308447,30.,-50.4635941320294));
#1671=CARTESIAN_POINT('',(-14.7858094601877,0.,-51.9788842419959));
#1672=CARTESIAN_POINT('',(-14.7858094601877,0.,-51.9788842419959));
#1673=CARTESIAN_POINT('Origin',(-9.5358094601877,0.,-51.9788842419959));
#1674=CARTESIAN_POINT('',(-6.27665698814336,30.,-47.8630094669369));
#1675=CARTESIAN_POINT('',(-6.27665698814388,30.,-47.8630094669363));
#1676=CARTESIAN_POINT('Origin',(-9.5358094601877,30.,-51.9788842419959));
#1677=CARTESIAN_POINT('Origin',(-13.5853488224486,0.,-45.6661011035141));
#1678=CARTESIAN_POINT('',(-13.5853488224486,0.,-45.6661011035141));
#1679=CARTESIAN_POINT('',(-13.5853488224486,0.,-45.6661011035141));
#1680=CARTESIAN_POINT('',(-9.37528798722646,0.,-42.9654211188307));
#1681=CARTESIAN_POINT('',(-13.5853488224486,0.,-45.6661011035141));
#1682=CARTESIAN_POINT('',(-9.37528798722646,0.,-42.9654211188307));
#1683=CARTESIAN_POINT('Origin',(27.8880602757716,0.,-89.4027539779552));
#1684=CARTESIAN_POINT('',(32.0039350508303,30.,-86.1436015059105));
#1685=CARTESIAN_POINT('',(32.0039350508313,30.,-86.1436015059112));
#1686=CARTESIAN_POINT('',(22.6380602757716,0.,-89.4027539779552));
#1687=CARTESIAN_POINT('',(22.6380602757716,0.,-89.4027539779552));
#1688=CARTESIAN_POINT('Origin',(27.8880602757716,0.,-89.4027539779552));
#1689=CARTESIAN_POINT('',(29.4033503857393,30.,-84.3761849808525));
#1690=CARTESIAN_POINT('',(29.4033503857381,30.,-84.3761849808518));
#1691=CARTESIAN_POINT('Origin',(27.8880602757716,30.,-89.4027539779552));
#1692=CARTESIAN_POINT('Origin',(21.7991438761631,0.,-85.0238160840614));
#1693=CARTESIAN_POINT('',(21.7991438761631,0.,-85.0238160840614));
#1694=CARTESIAN_POINT('',(21.7991438761631,0.,-85.0238160840614));
#1695=CARTESIAN_POINT('',(24.7195031729321,0.,-80.9630543090104));
#1696=CARTESIAN_POINT('',(21.7991438761631,0.,-85.0238160840614));
#1697=CARTESIAN_POINT('',(24.7195031729321,0.,-80.9630543090104));
#1698=CARTESIAN_POINT('Origin',(-31.4582047950283,0.,0.946459895081806));
#1699=CARTESIAN_POINT('',(-26.2432730171662,30.,0.340665745024632));
#1700=CARTESIAN_POINT('',(-26.2432730171664,30.,0.340665745025516));
#1701=CARTESIAN_POINT('',(-36.7082047950283,0.,0.946459895081807));
#1702=CARTESIAN_POINT('',(-36.7082047950283,0.,0.946459895081807));
#1703=CARTESIAN_POINT('Origin',(-31.4582047950283,0.,0.946459895081806));
#1704=CARTESIAN_POINT('',(-26.8324118588531,30.,3.4293090068144));
#1705=CARTESIAN_POINT('',(-26.8324118588529,30.,3.4293090068133));
#1706=CARTESIAN_POINT('Origin',(-31.4582047950283,30.,0.946459895081806));
#1707=CARTESIAN_POINT('Origin',(-32.6673421921028,0.,8.34835065048991));
#1708=CARTESIAN_POINT('',(-32.6673421921028,0.,8.34835065048991));
#1709=CARTESIAN_POINT('',(-32.6673421921028,0.,8.34835065048991));
#1710=CARTESIAN_POINT('',(-27.7309441419345,0.,9.15473697616503));
#1711=CARTESIAN_POINT('',(-32.6673421921028,0.,8.34835065048991));
#1712=CARTESIAN_POINT('',(-27.7309441419345,0.,9.15473697616503));
#1713=CARTESIAN_POINT('Origin',(80.8134044128491,0.,-111.325149312796));
#1714=CARTESIAN_POINT('',(83.29625352458,30.,-106.69935637662));
#1715=CARTESIAN_POINT('',(83.2962535245807,30.,-106.69935637662));
#1716=CARTESIAN_POINT('',(75.5634044128492,0.,-111.325149312796));
#1717=CARTESIAN_POINT('',(75.5634044128492,0.,-111.325149312796));
#1718=CARTESIAN_POINT('Origin',(80.8134044128491,0.,-111.325149312796));
#1719=CARTESIAN_POINT('',(80.2076102627935,30.,-106.110217534933));
#1720=CARTESIAN_POINT('',(80.2076102627929,30.,-106.110217534933));
#1721=CARTESIAN_POINT('Origin',(80.8134044128491,30.,-111.325149312796));
#1722=CARTESIAN_POINT('Origin',(73.486135903732,0.,-109.724794291152));
#1723=CARTESIAN_POINT('',(73.486135903732,0.,-109.724794291152));
#1724=CARTESIAN_POINT('',(73.486135903732,0.,-109.724794291152));
#1725=CARTESIAN_POINT('',(74.553429338541,0.,-104.838162594374));
#1726=CARTESIAN_POINT('',(73.486135903732,0.,-109.724794291152));
#1727=CARTESIAN_POINT('',(74.553429338541,0.,-104.838162594374));
#1728=CARTESIAN_POINT('Origin',(40.3018666169405,15.,-39.0259181662607));
#1729=CARTESIAN_POINT('',(107.276076481388,15.,-89.8232898248997));
#1730=CARTESIAN_POINT('',(106.269011790189,15.,-90.8232648696575));
#1731=CARTESIAN_POINT('Origin',(106.276076481388,15.,-89.8232898248997));
#1732=CARTESIAN_POINT('',(107.276076481388,15.,-88.8224174073147));
#1733=CARTESIAN_POINT('',(107.276076481387,15.,-63.426156118656));
#1734=CARTESIAN_POINT('',(106.284029683092,15.,-87.8224490345235));
#1735=CARTESIAN_POINT('Origin',(106.276076481388,15.,-88.8224174073147));
#1736=CARTESIAN_POINT('',(-17.0237552257929,15.,26.4926405815199));
#1737=CARTESIAN_POINT('Origin',(107.276076481387,15.,36.909131963621));
#1738=CARTESIAN_POINT('',(-18.0202622808289,15.,27.4091319636206));
#1739=CARTESIAN_POINT('Origin',(-18.0202622808289,15.,26.4091319636205));
#1740=CARTESIAN_POINT('',(-18.6709719946781,15.,27.4091319636206));
#1741=CARTESIAN_POINT('',(10.2764463859595,15.,27.4091319636206));
#1742=CARTESIAN_POINT('',(-19.6678293922352,15.,26.329914989836));
#1743=CARTESIAN_POINT('Origin',(-18.6709719946781,15.,26.4091319636206));
#1744=CARTESIAN_POINT('',(-18.8722065064275,15.,19.0084307107761));
#1745=CARTESIAN_POINT('Origin',(107.167891816095,15.,36.4091319636211));
#1746=CARTESIAN_POINT('',(-26.6723432475067,15.,18.6343213139494));
#1747=CARTESIAN_POINT('',(5.35833272070654,15.,20.1705734674934));
#1748=CARTESIAN_POINT('',(-26.4440314410011,15.,15.6571454494029));
#1749=CARTESIAN_POINT('Origin',(107.276076481388,15.,27.4091319636208));
#1750=CARTESIAN_POINT('',(-18.426920693522,15.,16.0416613323408));
#1751=CARTESIAN_POINT('',(9.55253764464033,15.,17.3836093814439));
#1752=CARTESIAN_POINT('',(4.80856946241598,15.,-39.1650694316799));
#1753=CARTESIAN_POINT('Origin',(107.167891816095,15.,36.4091319636211));
#1754=CARTESIAN_POINT('',(-5.32581853814367,15.,-45.6661011035142));
#1755=CARTESIAN_POINT('',(17.4130923620033,15.,-31.0794896636612));
#1756=CARTESIAN_POINT('',(-4.2300221356745,15.,-47.3275151447935));
#1757=CARTESIAN_POINT('Origin',(107.276076481388,15.,27.4091319636208));
#1758=CARTESIAN_POINT('',(6.00636877761877,15.,-40.7610503983361));
#1759=CARTESIAN_POINT('',(13.4310576687408,15.,-35.9982430505186));
#1760=CARTESIAN_POINT('',(32.3668337387861,15.,-66.5165329589673));
#1761=CARTESIAN_POINT('Origin',(107.167891816095,15.,36.4091319636211));
#1762=CARTESIAN_POINT('',(24.719503172932,15.,-78.4378739145392));
#1763=CARTESIAN_POINT('',(39.7703102189053,15.,-54.9753335017157));
#1764=CARTESIAN_POINT('',(26.786511381555,15.,-80.0180822786067));
#1765=CARTESIAN_POINT('Origin',(107.276076481388,15.,27.4091319636208));
#1766=CARTESIAN_POINT('',(34.4822975059409,15.,-68.0212044766182));
#1767=CARTESIAN_POINT('',(38.0714295105715,15.,-62.4261453911898));
#1768=CARTESIAN_POINT('',(88.1873716687002,15.,-89.4027539779552));
#1769=CARTESIAN_POINT('Origin',(107.167891816095,15.,36.4091319636211));
#1770=CARTESIAN_POINT('',(84.2580502433163,15.,-104.838162594374));
#1771=CARTESIAN_POINT('',(92.7520867638585,15.,-71.4713518136692));
#1772=CARTESIAN_POINT('',(88.1786183582184,15.,-105.460968296142));
#1773=CARTESIAN_POINT('Origin',(107.276076481388,15.,27.4091319636208));
#1774=CARTESIAN_POINT('',(92.9637122527156,15.,-90.0310992611482));
#1775=CARTESIAN_POINT('',(95.4759463682681,15.,-81.930225120978));
#1776=CARTESIAN_POINT('Origin',(107.167891816095,15.,36.4091319636211));
#1777=CARTESIAN_POINT('Origin',(4.80856946241598,30.,-39.1650694316799));
#1778=CARTESIAN_POINT('',(4.80856946241598,30.,-39.1650694316799));
#1779=CARTESIAN_POINT('',(4.80856946241598,0.,-39.1650694316799));
#1780=CARTESIAN_POINT('',(-5.32581853814367,30.,-45.6661011035142));
#1781=CARTESIAN_POINT('',(-5.32581853814367,30.,-45.6661011035142));
#1782=CARTESIAN_POINT('',(-5.32581853814365,0.,-45.6661011035142));
#1783=CARTESIAN_POINT('Origin',(107.167891816095,0.,36.4091319636211));
#1784=CARTESIAN_POINT('',(-18.426920693522,30.,16.0416613323408));
#1785=CARTESIAN_POINT('',(-18.426920693522,0.,16.0416613323408));
#1786=CARTESIAN_POINT('Origin',(107.167891816095,30.,36.4091319636211));
#1787=CARTESIAN_POINT('Origin',(-18.426920693522,0.,16.0416613323408));
#1788=CARTESIAN_POINT('',(-26.4440314410011,30.,15.6571454494029));
#1789=CARTESIAN_POINT('',(-26.4440314410011,0.,15.6571454494029));
#1790=CARTESIAN_POINT('',(-18.426920693522,30.,16.0416613323408));
#1791=CARTESIAN_POINT('Origin',(-26.6723432475067,0.,18.6343213139494));
#1792=CARTESIAN_POINT('',(-18.8722065064275,30.,19.0084307107761));
#1793=CARTESIAN_POINT('',(-18.8722065064275,0.,19.0084307107761));
#1794=CARTESIAN_POINT('',(-26.6723432475067,30.,18.6343213139494));
#1795=CARTESIAN_POINT('',(-26.6723432475067,30.,18.6343213139494));
#1796=CARTESIAN_POINT('',(-26.6723432475067,0.,18.6343213139494));
#1797=CARTESIAN_POINT('Origin',(107.167891816095,0.,36.4091319636211));
#1798=CARTESIAN_POINT('',(-19.6678293922352,30.,26.329914989836));
#1799=CARTESIAN_POINT('',(-19.6678293922352,0.,26.329914989836));
#1800=CARTESIAN_POINT('Origin',(107.167891816095,30.,36.4091319636211));
#1801=CARTESIAN_POINT('Origin',(-18.6709719946781,0.,26.4091319636206));
#1802=CARTESIAN_POINT('',(-18.6709719946781,30.,27.4091319636206));
#1803=CARTESIAN_POINT('',(-18.6709719946781,0.,27.4091319636206));
#1804=CARTESIAN_POINT('Origin',(-18.6709719946781,30.,26.4091319636206));
#1805=CARTESIAN_POINT('Origin',(-19.7489738450215,0.,27.4091319636206));
#1806=CARTESIAN_POINT('',(-18.0202622808289,30.,27.4091319636206));
#1807=CARTESIAN_POINT('',(-18.0202622808289,0.,27.4091319636206));
#1808=CARTESIAN_POINT('',(-26.9594495532858,30.,27.4091319636206));
#1809=CARTESIAN_POINT('Origin',(-18.0202622808289,0.,26.4091319636205));
#1810=CARTESIAN_POINT('',(-17.0237552257929,30.,26.4926405815199));
#1811=CARTESIAN_POINT('',(-17.0237552257929,0.,26.4926405815199));
#1812=CARTESIAN_POINT('Origin',(-18.0202622808289,30.,26.4091319636205));
#1813=CARTESIAN_POINT('Origin',(107.276076481387,0.,36.909131963621));
#1814=CARTESIAN_POINT('',(106.284029683092,30.,-87.8224490345235));
#1815=CARTESIAN_POINT('',(106.284029683092,0.,-87.8224490345235));
#1816=CARTESIAN_POINT('Origin',(107.276076481387,30.,36.909131963621));
#1817=CARTESIAN_POINT('Origin',(106.276076481388,0.,-88.8224174073147));
#1818=CARTESIAN_POINT('',(107.276076481388,30.,-88.8224174073147));
#1819=CARTESIAN_POINT('',(107.276076481388,0.,-88.8224174073147));
#1820=CARTESIAN_POINT('Origin',(106.276076481388,30.,-88.8224174073147));
#1821=CARTESIAN_POINT('Origin',(34.1589358431798,0.,-45.7080086745876));
#1822=CARTESIAN_POINT('',(-26.9557795891453,0.,26.4165264702959));
#1823=CARTESIAN_POINT('',(106.283470988063,0.,-106.822724106912));
#1824=CARTESIAN_POINT('Origin',(107.276076481388,0.,27.4091319636208));
#1825=CARTESIAN_POINT('',(-28.9557249096688,0.,26.4017374569453));
#1826=CARTESIAN_POINT('Origin',(-27.9557522494071,0.,26.4091319636206));
#1827=CARTESIAN_POINT('Origin',(107.276076481388,0.,27.4091319636208));
#1828=CARTESIAN_POINT('',(-29.8578497733846,0.,-6.38080861403533));
#1829=CARTESIAN_POINT('Origin',(-31.4582047950283,0.,0.946459895081806));
#1830=CARTESIAN_POINT('',(-24.9712180766067,0.,-5.3135151792263));
#1831=CARTESIAN_POINT('',(-24.9712180766067,0.,-5.3135151792263));
#1832=CARTESIAN_POINT('Origin',(107.276076481388,0.,27.4091319636208));
#1833=CARTESIAN_POINT('',(-5.15687156629393,0.,-58.0678006416044));
#1834=CARTESIAN_POINT('Origin',(-9.5358094601877,0.,-51.9788842419959));
#1835=CARTESIAN_POINT('',(-1.09610979124296,0.,-55.1474413448354));
#1836=CARTESIAN_POINT('',(-1.09610979124296,0.,-55.1474413448354));
#1837=CARTESIAN_POINT('Origin',(107.276076481388,0.,27.4091319636208));
#1838=CARTESIAN_POINT('',(34.2008434142533,0.,-93.452293340216));
#1839=CARTESIAN_POINT('Origin',(27.8880602757716,0.,-89.4027539779552));
#1840=CARTESIAN_POINT('',(36.9015233989367,0.,-89.2422325049939));
#1841=CARTESIAN_POINT('',(36.9015233989367,0.,-89.2422325049939));
#1842=CARTESIAN_POINT('Origin',(107.276076481388,0.,27.4091319636208));
#1843=CARTESIAN_POINT('',(88.2152951682572,0.,-112.53428670987));
#1844=CARTESIAN_POINT('Origin',(80.8134044128491,0.,-111.325149312796));
#1845=CARTESIAN_POINT('',(89.0216814939323,0.,-107.597888659702));
#1846=CARTESIAN_POINT('',(89.0216814939323,0.,-107.597888659702));
#1847=CARTESIAN_POINT('',(106.268681974712,0.,-108.822669427436));
#1848=CARTESIAN_POINT('Origin',(107.276076481388,0.,27.4091319636208));
#1849=CARTESIAN_POINT('Origin',(106.276076481388,0.,-107.822696767174));
#1850=CARTESIAN_POINT('Origin',(106.276076481388,0.,-107.822696767174));
#1851=CARTESIAN_POINT('',(106.268681974712,30.,-108.822669427436));
#1852=CARTESIAN_POINT('',(106.283470988063,30.,-106.822724106912));
#1853=CARTESIAN_POINT('Origin',(106.276076481388,30.,-107.822696767174));
#1854=CARTESIAN_POINT('',(106.283470988063,0.,-106.822724106912));
#1855=CARTESIAN_POINT('',(106.268681974712,0.,-108.822669427436));
#1856=CARTESIAN_POINT('Origin',(106.276076481388,0.,-89.8232898248997));
#1857=CARTESIAN_POINT('',(106.269011790189,30.,-90.8232648696575));
#1858=CARTESIAN_POINT('',(106.269011790189,0.,-90.8232648696574));
#1859=CARTESIAN_POINT('',(107.276076481388,30.,-89.8232898248997));
#1860=CARTESIAN_POINT('Origin',(106.276076481388,30.,-89.8232898248997));
#1861=CARTESIAN_POINT('',(107.276076481388,0.,-89.8232898248997));
#1862=CARTESIAN_POINT('Origin',(107.276076481388,0.,-87.8263940710524));
#1863=CARTESIAN_POINT('',(107.276076481388,30.,-87.6913389386476));
#1864=CARTESIAN_POINT('Origin',(-27.9557522494071,0.,26.4091319636206));
#1865=CARTESIAN_POINT('',(-26.9557795891453,30.,26.4165264702959));
#1866=CARTESIAN_POINT('',(-28.9557249096688,30.,26.4017374569453));
#1867=CARTESIAN_POINT('Origin',(-27.9557522494071,30.,26.4091319636206));
#1868=CARTESIAN_POINT('',(-28.9557249096689,0.,26.4017374569453));
#1869=CARTESIAN_POINT('',(-26.9557795891453,0.,26.4165264702959));
#1870=CARTESIAN_POINT('Origin',(107.276076481388,0.,27.4091319636208));
#1871=CARTESIAN_POINT('Origin',(107.276076481388,30.,27.4091319636208));
#1872=CARTESIAN_POINT('Origin',(88.1873716687002,30.,-89.4027539779552));
#1873=CARTESIAN_POINT('',(88.1873716687002,30.,-89.4027539779552));
#1874=CARTESIAN_POINT('',(88.1873716687002,0.,-89.4027539779552));
#1875=CARTESIAN_POINT('',(84.2580502433163,30.,-104.838162594374));
#1876=CARTESIAN_POINT('',(84.2580502433163,30.,-104.838162594374));
#1877=CARTESIAN_POINT('',(84.2580502433163,0.,-104.838162594374));
#1878=CARTESIAN_POINT('Origin',(88.1786183582184,30.,-105.460968296142));
#1879=CARTESIAN_POINT('',(88.1786183582184,30.,-105.460968296142));
#1880=CARTESIAN_POINT('',(88.1786183582184,0.,-105.460968296142));
#1881=CARTESIAN_POINT('',(92.9637122527156,30.,-90.0310992611482));
#1882=CARTESIAN_POINT('',(92.9637122527156,30.,-90.0310992611482));
#1883=CARTESIAN_POINT('',(92.9637122527156,0.,-90.0310992611482));
#1884=CARTESIAN_POINT('Origin',(-4.2300221356745,30.,-47.3275151447935));
#1885=CARTESIAN_POINT('',(-4.2300221356745,30.,-47.3275151447935));
#1886=CARTESIAN_POINT('',(-4.2300221356745,0.,-47.3275151447935));
#1887=CARTESIAN_POINT('',(6.00636877761877,30.,-40.7610503983361));
#1888=CARTESIAN_POINT('',(6.00636877761877,30.,-40.7610503983361));
#1889=CARTESIAN_POINT('',(6.00636877761879,0.,-40.7610503983361));
#1890=CARTESIAN_POINT('Origin',(32.3668337387861,30.,-66.5165329589673));
#1891=CARTESIAN_POINT('',(32.3668337387861,30.,-66.5165329589673));
#1892=CARTESIAN_POINT('',(32.3668337387861,0.,-66.5165329589673));
#1893=CARTESIAN_POINT('',(24.719503172932,30.,-78.4378739145392));
#1894=CARTESIAN_POINT('',(24.719503172932,30.,-78.4378739145392));
#1895=CARTESIAN_POINT('',(24.719503172932,0.,-78.4378739145392));
#1896=CARTESIAN_POINT('Origin',(26.786511381555,30.,-80.0180822786067));
#1897=CARTESIAN_POINT('',(26.786511381555,30.,-80.0180822786067));
#1898=CARTESIAN_POINT('',(26.786511381555,0.,-80.0180822786067));
#1899=CARTESIAN_POINT('',(34.4822975059409,30.,-68.0212044766182));
#1900=CARTESIAN_POINT('',(34.4822975059409,30.,-68.0212044766182));
#1901=CARTESIAN_POINT('',(34.4822975059409,0.,-68.0212044766182));
#1902=CARTESIAN_POINT('Origin',(107.167891816095,0.,36.4091319636211));
#1903=CARTESIAN_POINT('Origin',(107.167891816095,30.,36.4091319636211));
#1904=CARTESIAN_POINT('Origin',(107.167891816095,0.,36.4091319636211));
#1905=CARTESIAN_POINT('Origin',(107.167891816095,30.,36.4091319636211));
#1906=CARTESIAN_POINT('Origin',(107.167891816095,0.,36.4091319636211));
#1907=CARTESIAN_POINT('Origin',(107.167891816095,30.,36.4091319636211));
#1908=CARTESIAN_POINT('Origin',(107.276076481388,0.,27.4091319636208));
#1909=CARTESIAN_POINT('Origin',(107.276076481388,30.,27.4091319636208));
#1910=CARTESIAN_POINT('Origin',(107.276076481388,30.,27.4091319636208));
#1911=CARTESIAN_POINT('Origin',(107.276076481388,30.,27.4091319636208));
#1912=CARTESIAN_POINT('Origin',(107.276076481388,30.,27.4091319636208));
#1913=CARTESIAN_POINT('Origin',(107.276076481388,30.,27.4091319636208));
#1914=CARTESIAN_POINT('Origin',(-31.4582047950283,0.,0.946459895081806));
#1915=CARTESIAN_POINT('',(-29.8578497733846,0.,-6.38080861403533));
#1916=CARTESIAN_POINT('Origin',(-24.9712180766067,0.,-5.3135151792263));
#1917=CARTESIAN_POINT('',(-24.9712180766067,0.,-5.3135151792263));
#1918=CARTESIAN_POINT('Origin',(107.276076481388,0.,27.4091319636208));
#1919=CARTESIAN_POINT('Origin',(107.276076481388,30.,27.4091319636208));
#1920=CARTESIAN_POINT('Origin',(-9.5358094601877,0.,-51.9788842419959));
#1921=CARTESIAN_POINT('',(-5.15687156629393,0.,-58.0678006416044));
#1922=CARTESIAN_POINT('Origin',(-1.09610979124296,0.,-55.1474413448354));
#1923=CARTESIAN_POINT('',(-1.09610979124296,0.,-55.1474413448354));
#1924=CARTESIAN_POINT('Origin',(107.276076481388,0.,27.4091319636208));
#1925=CARTESIAN_POINT('Origin',(107.276076481388,30.,27.4091319636208));
#1926=CARTESIAN_POINT('Origin',(27.8880602757716,0.,-89.4027539779552));
#1927=CARTESIAN_POINT('',(34.2008434142533,0.,-93.452293340216));
#1928=CARTESIAN_POINT('Origin',(36.9015233989367,0.,-89.2422325049939));
#1929=CARTESIAN_POINT('',(36.9015233989367,0.,-89.2422325049939));
#1930=CARTESIAN_POINT('Origin',(107.276076481388,0.,27.4091319636208));
#1931=CARTESIAN_POINT('Origin',(107.276076481388,30.,27.4091319636208));
#1932=CARTESIAN_POINT('Origin',(80.8134044128491,0.,-111.325149312796));
#1933=CARTESIAN_POINT('',(88.2152951682572,0.,-112.53428670987));
#1934=CARTESIAN_POINT('Origin',(89.0216814939323,0.,-107.597888659702));
#1935=CARTESIAN_POINT('',(89.0216814939323,0.,-107.597888659702));
#1936=CARTESIAN_POINT('Origin',(107.276076481388,0.,27.4091319636208));
#1937=CARTESIAN_POINT('Origin',(107.276076481388,30.,27.4091319636208));
#1938=CARTESIAN_POINT('Origin',(34.1589358431798,30.,-45.7080086745876));
#1939=UNCERTAINTY_MEASURE_WITH_UNIT(LENGTH_MEASURE(0.01),#1943,
'DISTANCE_ACCURACY_VALUE',
'Maximum model space distance between geometric entities at asserted c
onnectivities');
#1940=UNCERTAINTY_MEASURE_WITH_UNIT(LENGTH_MEASURE(0.01),#1943,
'DISTANCE_ACCURACY_VALUE',
'Maximum model space distance between geometric entities at asserted c
onnectivities');
#1941=(
GEOMETRIC_REPRESENTATION_CONTEXT(3)
GLOBAL_UNCERTAINTY_ASSIGNED_CONTEXT((#1939))
GLOBAL_UNIT_ASSIGNED_CONTEXT((#1943,#1945,#1946))
REPRESENTATION_CONTEXT('','3D')
);
#1942=(
GEOMETRIC_REPRESENTATION_CONTEXT(3)
GLOBAL_UNCERTAINTY_ASSIGNED_CONTEXT((#1940))
GLOBAL_UNIT_ASSIGNED_CONTEXT((#1943,#1945,#1946))
REPRESENTATION_CONTEXT('','3D')
);
#1943=(
LENGTH_UNIT()
NAMED_UNIT(*)
SI_UNIT(.MILLI.,.METRE.)
);
#1944=(
LENGTH_UNIT()
NAMED_UNIT(*)
SI_UNIT(.CENTI.,.METRE.)
);
#1945=(
NAMED_UNIT(*)
PLANE_ANGLE_UNIT()
SI_UNIT($,.RADIAN.)
);
#1946=(
NAMED_UNIT(*)
SI_UNIT($,.STERADIAN.)
SOLID_ANGLE_UNIT()
);
#1947=SHAPE_DEFINITION_REPRESENTATION(#1948,#1949);
#1948=PRODUCT_DEFINITION_SHAPE('',$,#1951);
#1949=SHAPE_REPRESENTATION('',(#1131),#1941);
#1950=PRODUCT_DEFINITION_CONTEXT('part definition',#1955,'design');
#1951=PRODUCT_DEFINITION('HalfFilterwall2.5','HalfFilterwall2.5',#1952,
#1950);
#1952=PRODUCT_DEFINITION_FORMATION('',$,#1957);
#1953=PRODUCT_RELATED_PRODUCT_CATEGORY('HalfFilterwall2.5',
'HalfFilterwall2.5',(#1957));
#1954=APPLICATION_PROTOCOL_DEFINITION('international standard',
'automotive_design',2009,#1955);
#1955=APPLICATION_CONTEXT(
'Core Data for Automotive Mechanical Design Process');
#1956=PRODUCT_CONTEXT('part definition',#1955,'mechanical');
#1957=PRODUCT('HalfFilterwall2.5','HalfFilterwall2.5',$,(#1956));
#1958=PRESENTATION_STYLE_ASSIGNMENT((#1959));
#1959=SURFACE_STYLE_USAGE(.BOTH.,#1962);
#1960=SURFACE_STYLE_RENDERING_WITH_PROPERTIES($,#1966,(#1961));
#1961=SURFACE_STYLE_TRANSPARENT(0.);
#1962=SURFACE_SIDE_STYLE('',(#1963,#1960));
#1963=SURFACE_STYLE_FILL_AREA(#1964);
#1964=FILL_AREA_STYLE('',(#1965));
#1965=FILL_AREA_STYLE_COLOUR('',#1966);
#1966=COLOUR_RGB('',0.749019607843137,0.749019607843137,0.749019607843137);
ENDSEC;
END-ISO-10303-21;
