ISO-10303-21;
HEADER;
/* Generated by software containing ST-Developer
 * from STEP Tools, Inc. (www.steptools.com) 
 */

FILE_DESCRIPTION(
/* description */ (''),
/* implementation_level */ '2;1');

FILE_NAME(
/* name */ 'TableStandMiddle.stp',
/* time_stamp */ '2026-06-26T11:23:11+02:00',
/* author */ ('frede'),
/* organization */ (''),
/* preprocessor_version */ 'ST-DEVELOPER v20.1',
/* originating_system */ 'Autodesk Inventor 2026',
/* authorisation */ '');

FILE_SCHEMA (('AUTOMOTIVE_DESIGN { 1 0 10303 214 3 1 1 }'));
ENDSEC;

DATA;
#10=MECHANICAL_DESIGN_GEOMETRIC_PRESENTATION_REPRESENTATION('',(#13),#2033);
#11=SHAPE_REPRESENTATION_RELATIONSHIP('SRR','None',#2040,#12);
#12=ADVANCED_BREP_SHAPE_REPRESENTATION('',(#14),#2032);
#13=STYLED_ITEM('',(#2049),#14);
#14=MANIFOLD_SOLID_BREP('Solid1',#1150);
#15=TOROIDAL_SURFACE('',#1190,2.45,0.25);
#16=TOROIDAL_SURFACE('',#1203,2.45,0.25);
#17=TOROIDAL_SURFACE('',#1225,2.45,0.25);
#18=TOROIDAL_SURFACE('',#1247,2.45,0.25);
#19=TOROIDAL_SURFACE('',#1265,2.45,0.25);
#20=TOROIDAL_SURFACE('',#1271,2.45,0.25);
#21=TOROIDAL_SURFACE('',#1278,2.45,0.25);
#22=TOROIDAL_SURFACE('',#1283,2.45,0.25);
#23=TOROIDAL_SURFACE('',#1288,2.45,0.25);
#24=TOROIDAL_SURFACE('',#1294,2.45,0.25);
#25=TOROIDAL_SURFACE('',#1301,2.45,0.25);
#26=TOROIDAL_SURFACE('',#1307,2.45,0.25);
#27=TOROIDAL_SURFACE('',#1311,99.75,0.25);
#28=TOROIDAL_SURFACE('',#1316,99.75,0.25);
#29=FACE_BOUND('',#192,.T.);
#30=FACE_BOUND('',#196,.T.);
#31=FACE_BOUND('',#197,.T.);
#32=FACE_BOUND('',#198,.T.);
#33=FACE_BOUND('',#199,.T.);
#34=FACE_BOUND('',#210,.T.);
#35=FACE_BOUND('',#211,.T.);
#36=FACE_BOUND('',#212,.T.);
#37=FACE_BOUND('',#213,.T.);
#38=FACE_BOUND('',#226,.T.);
#39=CIRCLE('',#1189,2.45);
#40=CIRCLE('',#1191,2.45);
#41=CIRCLE('',#1192,0.25);
#42=CIRCLE('',#1193,2.2);
#43=CIRCLE('',#1195,2.2);
#44=CIRCLE('',#1197,99.75);
#45=CIRCLE('',#1198,2.45);
#46=CIRCLE('',#1199,2.45);
#47=CIRCLE('',#1200,2.45);
#48=CIRCLE('',#1201,2.45);
#49=CIRCLE('',#1202,2.45);
#50=CIRCLE('',#1204,0.25);
#51=CIRCLE('',#1220,99.75);
#52=CIRCLE('',#1221,2.45);
#53=CIRCLE('',#1222,2.45);
#54=CIRCLE('',#1223,2.45);
#55=CIRCLE('',#1224,2.45);
#56=CIRCLE('',#1226,0.25);
#57=CIRCLE('',#1227,2.2);
#58=CIRCLE('',#1229,2.2);
#59=CIRCLE('',#1246,2.45);
#60=CIRCLE('',#1248,0.25);
#61=CIRCLE('',#1266,0.249999999999999);
#62=CIRCLE('',#1267,0.25);
#63=CIRCLE('',#1268,2.2);
#64=CIRCLE('',#1270,0.25);
#65=CIRCLE('',#1272,0.25);
#66=CIRCLE('',#1273,2.2);
#67=CIRCLE('',#1277,2.2);
#68=CIRCLE('',#1279,0.25);
#69=CIRCLE('',#1280,0.249999999999999);
#70=CIRCLE('',#1282,0.249999999999999);
#71=CIRCLE('',#1284,0.249999999999999);
#72=CIRCLE('',#1285,2.2);
#73=CIRCLE('',#1289,0.249999999999999);
#74=CIRCLE('',#1290,0.25);
#75=CIRCLE('',#1291,2.2);
#76=CIRCLE('',#1293,0.25);
#77=CIRCLE('',#1295,0.25);
#78=CIRCLE('',#1296,2.2);
#79=CIRCLE('',#1300,2.2);
#80=CIRCLE('',#1302,0.25);
#81=CIRCLE('',#1303,2.2);
#82=CIRCLE('',#1304,0.249999999999999);
#83=CIRCLE('',#1306,0.249999999999995);
#84=CIRCLE('',#1308,0.249999999999999);
#85=CIRCLE('',#1312,100.);
#86=CIRCLE('',#1313,0.25);
#87=CIRCLE('',#1315,100.);
#88=CIRCLE('',#1317,0.25);
#89=PLANE('',#1185);
#90=PLANE('',#1186);
#91=PLANE('',#1187);
#92=PLANE('',#1188);
#93=PLANE('',#1196);
#94=PLANE('',#1217);
#95=PLANE('',#1218);
#96=PLANE('',#1219);
#97=PLANE('',#1242);
#98=PLANE('',#1243);
#99=PLANE('',#1244);
#100=PLANE('',#1245);
#101=PLANE('',#1261);
#102=PLANE('',#1262);
#103=PLANE('',#1263);
#104=PLANE('',#1264);
#105=PLANE('',#1275);
#106=PLANE('',#1287);
#107=PLANE('',#1298);
#108=PLANE('',#1319);
#109=FACE_OUTER_BOUND('',#182,.T.);
#110=FACE_OUTER_BOUND('',#183,.T.);
#111=FACE_OUTER_BOUND('',#184,.T.);
#112=FACE_OUTER_BOUND('',#185,.T.);
#113=FACE_OUTER_BOUND('',#186,.T.);
#114=FACE_OUTER_BOUND('',#187,.T.);
#115=FACE_OUTER_BOUND('',#188,.T.);
#116=FACE_OUTER_BOUND('',#189,.T.);
#117=FACE_OUTER_BOUND('',#190,.T.);
#118=FACE_OUTER_BOUND('',#191,.T.);
#119=FACE_OUTER_BOUND('',#193,.T.);
#120=FACE_OUTER_BOUND('',#194,.T.);
#121=FACE_OUTER_BOUND('',#195,.T.);
#122=FACE_OUTER_BOUND('',#200,.T.);
#123=FACE_OUTER_BOUND('',#201,.T.);
#124=FACE_OUTER_BOUND('',#202,.T.);
#125=FACE_OUTER_BOUND('',#203,.T.);
#126=FACE_OUTER_BOUND('',#204,.T.);
#127=FACE_OUTER_BOUND('',#205,.T.);
#128=FACE_OUTER_BOUND('',#206,.T.);
#129=FACE_OUTER_BOUND('',#207,.T.);
#130=FACE_OUTER_BOUND('',#208,.T.);
#131=FACE_OUTER_BOUND('',#209,.T.);
#132=FACE_OUTER_BOUND('',#214,.T.);
#133=FACE_OUTER_BOUND('',#215,.T.);
#134=FACE_OUTER_BOUND('',#216,.T.);
#135=FACE_OUTER_BOUND('',#217,.T.);
#136=FACE_OUTER_BOUND('',#218,.T.);
#137=FACE_OUTER_BOUND('',#219,.T.);
#138=FACE_OUTER_BOUND('',#220,.T.);
#139=FACE_OUTER_BOUND('',#221,.T.);
#140=FACE_OUTER_BOUND('',#222,.T.);
#141=FACE_OUTER_BOUND('',#223,.T.);
#142=FACE_OUTER_BOUND('',#224,.T.);
#143=FACE_OUTER_BOUND('',#225,.T.);
#144=FACE_OUTER_BOUND('',#227,.T.);
#145=FACE_OUTER_BOUND('',#228,.T.);
#146=FACE_OUTER_BOUND('',#229,.T.);
#147=FACE_OUTER_BOUND('',#230,.T.);
#148=FACE_OUTER_BOUND('',#231,.T.);
#149=FACE_OUTER_BOUND('',#232,.T.);
#150=FACE_OUTER_BOUND('',#233,.T.);
#151=FACE_OUTER_BOUND('',#234,.T.);
#152=FACE_OUTER_BOUND('',#235,.T.);
#153=FACE_OUTER_BOUND('',#236,.T.);
#154=FACE_OUTER_BOUND('',#237,.T.);
#155=FACE_OUTER_BOUND('',#238,.T.);
#156=FACE_OUTER_BOUND('',#239,.T.);
#157=FACE_OUTER_BOUND('',#240,.T.);
#158=FACE_OUTER_BOUND('',#241,.T.);
#159=FACE_OUTER_BOUND('',#242,.T.);
#160=FACE_OUTER_BOUND('',#243,.T.);
#161=FACE_OUTER_BOUND('',#244,.T.);
#162=FACE_OUTER_BOUND('',#245,.T.);
#163=FACE_OUTER_BOUND('',#246,.T.);
#164=FACE_OUTER_BOUND('',#247,.T.);
#165=FACE_OUTER_BOUND('',#248,.T.);
#166=FACE_OUTER_BOUND('',#249,.T.);
#167=FACE_OUTER_BOUND('',#250,.T.);
#168=FACE_OUTER_BOUND('',#251,.T.);
#169=FACE_OUTER_BOUND('',#252,.T.);
#170=FACE_OUTER_BOUND('',#253,.T.);
#171=FACE_OUTER_BOUND('',#254,.T.);
#172=FACE_OUTER_BOUND('',#255,.T.);
#173=FACE_OUTER_BOUND('',#256,.T.);
#174=FACE_OUTER_BOUND('',#257,.T.);
#175=FACE_OUTER_BOUND('',#258,.T.);
#176=FACE_OUTER_BOUND('',#259,.T.);
#177=FACE_OUTER_BOUND('',#260,.T.);
#178=FACE_OUTER_BOUND('',#261,.T.);
#179=FACE_OUTER_BOUND('',#262,.T.);
#180=FACE_OUTER_BOUND('',#263,.T.);
#181=FACE_OUTER_BOUND('',#264,.T.);
#182=EDGE_LOOP('',(#716,#717,#718,#719));
#183=EDGE_LOOP('',(#720,#721,#722,#723));
#184=EDGE_LOOP('',(#724,#725,#726,#727));
#185=EDGE_LOOP('',(#728,#729,#730,#731));
#186=EDGE_LOOP('',(#732,#733,#734,#735));
#187=EDGE_LOOP('',(#736,#737,#738,#739));
#188=EDGE_LOOP('',(#740,#741,#742,#743));
#189=EDGE_LOOP('',(#744,#745,#746,#747));
#190=EDGE_LOOP('',(#748,#749,#750,#751));
#191=EDGE_LOOP('',(#752,#753,#754,#755,#756,#757));
#192=EDGE_LOOP('',(#758));
#193=EDGE_LOOP('',(#759,#760,#761,#762));
#194=EDGE_LOOP('',(#763,#764,#765,#766));
#195=EDGE_LOOP('',(#767));
#196=EDGE_LOOP('',(#768));
#197=EDGE_LOOP('',(#769,#770,#771,#772));
#198=EDGE_LOOP('',(#773,#774,#775,#776));
#199=EDGE_LOOP('',(#777));
#200=EDGE_LOOP('',(#778,#779,#780,#781));
#201=EDGE_LOOP('',(#782,#783,#784,#785));
#202=EDGE_LOOP('',(#786,#787,#788,#789));
#203=EDGE_LOOP('',(#790,#791,#792,#793));
#204=EDGE_LOOP('',(#794,#795,#796,#797));
#205=EDGE_LOOP('',(#798,#799,#800,#801));
#206=EDGE_LOOP('',(#802,#803,#804,#805));
#207=EDGE_LOOP('',(#806,#807,#808,#809));
#208=EDGE_LOOP('',(#810,#811,#812,#813));
#209=EDGE_LOOP('',(#814));
#210=EDGE_LOOP('',(#815,#816,#817,#818,#819,#820));
#211=EDGE_LOOP('',(#821,#822,#823,#824));
#212=EDGE_LOOP('',(#825,#826,#827,#828));
#213=EDGE_LOOP('',(#829,#830,#831,#832,#833,#834));
#214=EDGE_LOOP('',(#835,#836,#837,#838));
#215=EDGE_LOOP('',(#839,#840,#841,#842));
#216=EDGE_LOOP('',(#843,#844,#845,#846));
#217=EDGE_LOOP('',(#847,#848,#849,#850));
#218=EDGE_LOOP('',(#851,#852,#853,#854));
#219=EDGE_LOOP('',(#855,#856,#857,#858));
#220=EDGE_LOOP('',(#859,#860,#861,#862));
#221=EDGE_LOOP('',(#863,#864,#865,#866));
#222=EDGE_LOOP('',(#867,#868,#869,#870));
#223=EDGE_LOOP('',(#871,#872,#873,#874));
#224=EDGE_LOOP('',(#875,#876,#877,#878));
#225=EDGE_LOOP('',(#879,#880,#881,#882,#883,#884));
#226=EDGE_LOOP('',(#885));
#227=EDGE_LOOP('',(#886,#887,#888,#889));
#228=EDGE_LOOP('',(#890,#891,#892,#893));
#229=EDGE_LOOP('',(#894,#895,#896,#897));
#230=EDGE_LOOP('',(#898,#899,#900,#901));
#231=EDGE_LOOP('',(#902,#903,#904,#905));
#232=EDGE_LOOP('',(#906,#907,#908,#909));
#233=EDGE_LOOP('',(#910,#911,#912,#913));
#234=EDGE_LOOP('',(#914,#915,#916,#917));
#235=EDGE_LOOP('',(#918,#919,#920,#921));
#236=EDGE_LOOP('',(#922,#923,#924,#925));
#237=EDGE_LOOP('',(#926,#927,#928,#929));
#238=EDGE_LOOP('',(#930,#931,#932,#933));
#239=EDGE_LOOP('',(#934,#935,#936,#937));
#240=EDGE_LOOP('',(#938,#939,#940,#941));
#241=EDGE_LOOP('',(#942,#943,#944,#945));
#242=EDGE_LOOP('',(#946,#947,#948,#949));
#243=EDGE_LOOP('',(#950,#951,#952,#953));
#244=EDGE_LOOP('',(#954,#955,#956,#957));
#245=EDGE_LOOP('',(#958,#959,#960,#961));
#246=EDGE_LOOP('',(#962,#963,#964,#965));
#247=EDGE_LOOP('',(#966,#967,#968,#969));
#248=EDGE_LOOP('',(#970,#971,#972,#973));
#249=EDGE_LOOP('',(#974,#975,#976,#977));
#250=EDGE_LOOP('',(#978,#979,#980,#981));
#251=EDGE_LOOP('',(#982,#983,#984,#985));
#252=EDGE_LOOP('',(#986,#987,#988,#989));
#253=EDGE_LOOP('',(#990,#991,#992,#993));
#254=EDGE_LOOP('',(#994,#995,#996,#997));
#255=EDGE_LOOP('',(#998,#999,#1000,#1001));
#256=EDGE_LOOP('',(#1002,#1003,#1004,#1005));
#257=EDGE_LOOP('',(#1006,#1007,#1008,#1009));
#258=EDGE_LOOP('',(#1010,#1011,#1012,#1013));
#259=EDGE_LOOP('',(#1014,#1015,#1016,#1017));
#260=EDGE_LOOP('',(#1018,#1019,#1020,#1021));
#261=EDGE_LOOP('',(#1022,#1023,#1024,#1025));
#262=EDGE_LOOP('',(#1026,#1027,#1028,#1029));
#263=EDGE_LOOP('',(#1030,#1031,#1032,#1033));
#264=EDGE_LOOP('',(#1034,#1035,#1036,#1037));
#265=ELLIPSE('',#1174,0.288675134594814,0.25);
#266=ELLIPSE('',#1175,0.288675134594813,0.25);
#267=ELLIPSE('',#1177,0.288675134594809,0.25);
#268=ELLIPSE('',#1179,0.288675134594813,0.25);
#269=ELLIPSE('',#1181,0.288675134594813,0.25);
#270=ELLIPSE('',#1183,0.288675134594814,0.25);
#271=ELLIPSE('',#1206,0.288675134594811,0.25);
#272=ELLIPSE('',#1207,0.288675134594813,0.25);
#273=ELLIPSE('',#1209,0.288675134594814,0.25);
#274=ELLIPSE('',#1211,0.288675134594814,0.25);
#275=ELLIPSE('',#1212,0.288675134594813,0.25);
#276=ELLIPSE('',#1214,0.288675134594812,0.25);
#277=ELLIPSE('',#1231,0.288675134594812,0.25);
#278=ELLIPSE('',#1232,0.288675134594813,0.25);
#279=ELLIPSE('',#1234,0.288675134594813,0.25);
#280=ELLIPSE('',#1236,0.288675134594808,0.25);
#281=ELLIPSE('',#1238,0.288675134594816,0.25);
#282=ELLIPSE('',#1240,0.288675134594813,0.25);
#283=ELLIPSE('',#1250,0.288675134594814,0.25);
#284=ELLIPSE('',#1251,0.288675134594813,0.25);
#285=ELLIPSE('',#1253,0.28867513459481,0.25);
#286=ELLIPSE('',#1255,0.288675134594813,0.25);
#287=ELLIPSE('',#1257,0.288675134594812,0.25);
#288=ELLIPSE('',#1259,0.288675134594815,0.25);
#289=LINE('',#1707,#376);
#290=LINE('',#1711,#377);
#291=LINE('',#1715,#378);
#292=LINE('',#1718,#379);
#293=LINE('',#1721,#380);
#294=LINE('',#1723,#381);
#295=LINE('',#1727,#382);
#296=LINE('',#1729,#383);
#297=LINE('',#1733,#384);
#298=LINE('',#1735,#385);
#299=LINE('',#1738,#386);
#300=LINE('',#1739,#387);
#301=LINE('',#1742,#388);
#302=LINE('',#1744,#389);
#303=LINE('',#1745,#390);
#304=LINE('',#1748,#391);
#305=LINE('',#1749,#392);
#306=LINE('',#1752,#393);
#307=LINE('',#1753,#394);
#308=LINE('',#1766,#395);
#309=LINE('',#1776,#396);
#310=LINE('',#1779,#397);
#311=LINE('',#1784,#398);
#312=LINE('',#1787,#399);
#313=LINE('',#1793,#400);
#314=LINE('',#1798,#401);
#315=LINE('',#1803,#402);
#316=LINE('',#1807,#403);
#317=LINE('',#1810,#404);
#318=LINE('',#1812,#405);
#319=LINE('',#1815,#406);
#320=LINE('',#1816,#407);
#321=LINE('',#1818,#408);
#322=LINE('',#1820,#409);
#323=LINE('',#1822,#410);
#324=LINE('',#1828,#411);
#325=LINE('',#1830,#412);
#326=LINE('',#1832,#413);
#327=LINE('',#1834,#414);
#328=LINE('',#1836,#415);
#329=LINE('',#1837,#416);
#330=LINE('',#1842,#417);
#331=LINE('',#1845,#418);
#332=LINE('',#1850,#419);
#333=LINE('',#1853,#420);
#334=LINE('',#1861,#421);
#335=LINE('',#1865,#422);
#336=LINE('',#1869,#423);
#337=LINE('',#1873,#424);
#338=LINE('',#1876,#425);
#339=LINE('',#1879,#426);
#340=LINE('',#1881,#427);
#341=LINE('',#1885,#428);
#342=LINE('',#1887,#429);
#343=LINE('',#1891,#430);
#344=LINE('',#1893,#431);
#345=LINE('',#1896,#432);
#346=LINE('',#1897,#433);
#347=LINE('',#1900,#434);
#348=LINE('',#1902,#435);
#349=LINE('',#1903,#436);
#350=LINE('',#1906,#437);
#351=LINE('',#1907,#438);
#352=LINE('',#1910,#439);
#353=LINE('',#1911,#440);
#354=LINE('',#1925,#441);
#355=LINE('',#1929,#442);
#356=LINE('',#1931,#443);
#357=LINE('',#1935,#444);
#358=LINE('',#1937,#445);
#359=LINE('',#1949,#446);
#360=LINE('',#1955,#447);
#361=LINE('',#1958,#448);
#362=LINE('',#1960,#449);
#363=LINE('',#1961,#450);
#364=LINE('',#1964,#451);
#365=LINE('',#1972,#452);
#366=LINE('',#1978,#453);
#367=LINE('',#1988,#454);
#368=LINE('',#1994,#455);
#369=LINE('',#1997,#456);
#370=LINE('',#1999,#457);
#371=LINE('',#2000,#458);
#372=LINE('',#2003,#459);
#373=LINE('',#2015,#460);
#374=LINE('',#2017,#461);
#375=LINE('',#2025,#462);
#376=VECTOR('',#1324,10.);
#377=VECTOR('',#1327,10.);
#378=VECTOR('',#1332,10.);
#379=VECTOR('',#1335,10.);
#380=VECTOR('',#1338,10.);
#381=VECTOR('',#1339,10.);
#382=VECTOR('',#1344,10.);
#383=VECTOR('',#1345,10.);
#384=VECTOR('',#1350,10.);
#385=VECTOR('',#1351,10.);
#386=VECTOR('',#1356,10.);
#387=VECTOR('',#1357,10.);
#388=VECTOR('',#1360,10.);
#389=VECTOR('',#1361,10.);
#390=VECTOR('',#1362,10.);
#391=VECTOR('',#1365,10.);
#392=VECTOR('',#1366,10.);
#393=VECTOR('',#1369,10.);
#394=VECTOR('',#1370,10.);
#395=VECTOR('',#1387,2.2);
#396=VECTOR('',#1396,10.);
#397=VECTOR('',#1399,10.);
#398=VECTOR('',#1402,10.);
#399=VECTOR('',#1405,10.);
#400=VECTOR('',#1412,10.);
#401=VECTOR('',#1419,10.);
#402=VECTOR('',#1424,10.);
#403=VECTOR('',#1427,10.);
#404=VECTOR('',#1432,10.);
#405=VECTOR('',#1433,10.);
#406=VECTOR('',#1438,10.);
#407=VECTOR('',#1439,10.);
#408=VECTOR('',#1442,10.);
#409=VECTOR('',#1445,10.);
#410=VECTOR('',#1448,10.);
#411=VECTOR('',#1453,10.);
#412=VECTOR('',#1454,10.);
#413=VECTOR('',#1455,10.);
#414=VECTOR('',#1456,10.);
#415=VECTOR('',#1457,10.);
#416=VECTOR('',#1458,10.);
#417=VECTOR('',#1461,10.);
#418=VECTOR('',#1464,10.);
#419=VECTOR('',#1467,10.);
#420=VECTOR('',#1470,10.);
#421=VECTOR('',#1481,2.2);
#422=VECTOR('',#1484,10.);
#423=VECTOR('',#1487,10.);
#424=VECTOR('',#1492,10.);
#425=VECTOR('',#1495,10.);
#426=VECTOR('',#1498,10.);
#427=VECTOR('',#1499,10.);
#428=VECTOR('',#1504,10.);
#429=VECTOR('',#1505,10.);
#430=VECTOR('',#1510,10.);
#431=VECTOR('',#1511,10.);
#432=VECTOR('',#1516,10.);
#433=VECTOR('',#1517,10.);
#434=VECTOR('',#1520,10.);
#435=VECTOR('',#1521,10.);
#436=VECTOR('',#1522,10.);
#437=VECTOR('',#1525,10.);
#438=VECTOR('',#1526,10.);
#439=VECTOR('',#1529,10.);
#440=VECTOR('',#1530,10.);
#441=VECTOR('',#1553,10.);
#442=VECTOR('',#1558,10.);
#443=VECTOR('',#1561,10.);
#444=VECTOR('',#1568,10.);
#445=VECTOR('',#1571,10.);
#446=VECTOR('',#1588,10.);
#447=VECTOR('',#1597,10.);
#448=VECTOR('',#1600,10.);
#449=VECTOR('',#1601,10.);
#450=VECTOR('',#1602,10.);
#451=VECTOR('',#1605,10.);
#452=VECTOR('',#1618,10.);
#453=VECTOR('',#1629,10.);
#454=VECTOR('',#1642,10.);
#455=VECTOR('',#1651,10.);
#456=VECTOR('',#1654,10.);
#457=VECTOR('',#1655,10.);
#458=VECTOR('',#1656,10.);
#459=VECTOR('',#1659,10.);
#460=VECTOR('',#1680,10.);
#461=VECTOR('',#1683,10.);
#462=VECTOR('',#1694,100.);
#463=VERTEX_POINT('',#1705);
#464=VERTEX_POINT('',#1706);
#465=VERTEX_POINT('',#1708);
#466=VERTEX_POINT('',#1710);
#467=VERTEX_POINT('',#1714);
#468=VERTEX_POINT('',#1716);
#469=VERTEX_POINT('',#1720);
#470=VERTEX_POINT('',#1722);
#471=VERTEX_POINT('',#1726);
#472=VERTEX_POINT('',#1728);
#473=VERTEX_POINT('',#1732);
#474=VERTEX_POINT('',#1734);
#475=VERTEX_POINT('',#1741);
#476=VERTEX_POINT('',#1743);
#477=VERTEX_POINT('',#1747);
#478=VERTEX_POINT('',#1751);
#479=VERTEX_POINT('',#1755);
#480=VERTEX_POINT('',#1758);
#481=VERTEX_POINT('',#1760);
#482=VERTEX_POINT('',#1764);
#483=VERTEX_POINT('',#1768);
#484=VERTEX_POINT('',#1770);
#485=VERTEX_POINT('',#1772);
#486=VERTEX_POINT('',#1773);
#487=VERTEX_POINT('',#1775);
#488=VERTEX_POINT('',#1777);
#489=VERTEX_POINT('',#1780);
#490=VERTEX_POINT('',#1781);
#491=VERTEX_POINT('',#1783);
#492=VERTEX_POINT('',#1785);
#493=VERTEX_POINT('',#1791);
#494=VERTEX_POINT('',#1792);
#495=VERTEX_POINT('',#1797);
#496=VERTEX_POINT('',#1801);
#497=VERTEX_POINT('',#1802);
#498=VERTEX_POINT('',#1804);
#499=VERTEX_POINT('',#1806);
#500=VERTEX_POINT('',#1811);
#501=VERTEX_POINT('',#1824);
#502=VERTEX_POINT('',#1826);
#503=VERTEX_POINT('',#1827);
#504=VERTEX_POINT('',#1829);
#505=VERTEX_POINT('',#1831);
#506=VERTEX_POINT('',#1833);
#507=VERTEX_POINT('',#1835);
#508=VERTEX_POINT('',#1838);
#509=VERTEX_POINT('',#1839);
#510=VERTEX_POINT('',#1841);
#511=VERTEX_POINT('',#1843);
#512=VERTEX_POINT('',#1846);
#513=VERTEX_POINT('',#1847);
#514=VERTEX_POINT('',#1849);
#515=VERTEX_POINT('',#1851);
#516=VERTEX_POINT('',#1855);
#517=VERTEX_POINT('',#1859);
#518=VERTEX_POINT('',#1863);
#519=VERTEX_POINT('',#1864);
#520=VERTEX_POINT('',#1866);
#521=VERTEX_POINT('',#1868);
#522=VERTEX_POINT('',#1872);
#523=VERTEX_POINT('',#1874);
#524=VERTEX_POINT('',#1878);
#525=VERTEX_POINT('',#1880);
#526=VERTEX_POINT('',#1884);
#527=VERTEX_POINT('',#1886);
#528=VERTEX_POINT('',#1890);
#529=VERTEX_POINT('',#1892);
#530=VERTEX_POINT('',#1899);
#531=VERTEX_POINT('',#1901);
#532=VERTEX_POINT('',#1905);
#533=VERTEX_POINT('',#1909);
#534=VERTEX_POINT('',#1913);
#535=VERTEX_POINT('',#1923);
#536=VERTEX_POINT('',#1927);
#537=VERTEX_POINT('',#1941);
#538=VERTEX_POINT('',#1943);
#539=VERTEX_POINT('',#1947);
#540=VERTEX_POINT('',#1951);
#541=VERTEX_POINT('',#1957);
#542=VERTEX_POINT('',#1959);
#543=VERTEX_POINT('',#1963);
#544=VERTEX_POINT('',#1970);
#545=VERTEX_POINT('',#1980);
#546=VERTEX_POINT('',#1982);
#547=VERTEX_POINT('',#1986);
#548=VERTEX_POINT('',#1990);
#549=VERTEX_POINT('',#1996);
#550=VERTEX_POINT('',#1998);
#551=VERTEX_POINT('',#2002);
#552=VERTEX_POINT('',#2006);
#553=VERTEX_POINT('',#2019);
#554=VERTEX_POINT('',#2023);
#555=EDGE_CURVE('',#463,#464,#289,.T.);
#556=EDGE_CURVE('',#464,#465,#265,.T.);
#557=EDGE_CURVE('',#465,#466,#290,.T.);
#558=EDGE_CURVE('',#463,#466,#266,.T.);
#559=EDGE_CURVE('',#464,#467,#291,.T.);
#560=EDGE_CURVE('',#467,#468,#267,.T.);
#561=EDGE_CURVE('',#468,#465,#292,.T.);
#562=EDGE_CURVE('',#469,#468,#293,.T.);
#563=EDGE_CURVE('',#467,#470,#294,.T.);
#564=EDGE_CURVE('',#470,#469,#268,.T.);
#565=EDGE_CURVE('',#471,#469,#295,.T.);
#566=EDGE_CURVE('',#470,#472,#296,.T.);
#567=EDGE_CURVE('',#472,#471,#269,.T.);
#568=EDGE_CURVE('',#473,#471,#297,.T.);
#569=EDGE_CURVE('',#472,#474,#298,.T.);
#570=EDGE_CURVE('',#474,#473,#270,.T.);
#571=EDGE_CURVE('',#466,#473,#299,.T.);
#572=EDGE_CURVE('',#474,#463,#300,.T.);
#573=EDGE_CURVE('',#475,#473,#301,.T.);
#574=EDGE_CURVE('',#476,#475,#302,.T.);
#575=EDGE_CURVE('',#476,#471,#303,.T.);
#576=EDGE_CURVE('',#477,#466,#304,.T.);
#577=EDGE_CURVE('',#475,#477,#305,.T.);
#578=EDGE_CURVE('',#478,#465,#306,.T.);
#579=EDGE_CURVE('',#477,#478,#307,.T.);
#580=EDGE_CURVE('',#479,#479,#39,.T.);
#581=EDGE_CURVE('',#480,#480,#40,.T.);
#582=EDGE_CURVE('',#480,#481,#41,.T.);
#583=EDGE_CURVE('',#481,#481,#42,.T.);
#584=EDGE_CURVE('',#482,#482,#43,.T.);
#585=EDGE_CURVE('',#482,#481,#308,.T.);
#586=EDGE_CURVE('',#483,#483,#44,.T.);
#587=EDGE_CURVE('',#484,#484,#45,.T.);
#588=EDGE_CURVE('',#485,#486,#46,.T.);
#589=EDGE_CURVE('',#487,#485,#309,.T.);
#590=EDGE_CURVE('',#488,#487,#47,.T.);
#591=EDGE_CURVE('',#486,#488,#310,.T.);
#592=EDGE_CURVE('',#489,#490,#48,.T.);
#593=EDGE_CURVE('',#491,#489,#311,.T.);
#594=EDGE_CURVE('',#492,#491,#49,.T.);
#595=EDGE_CURVE('',#490,#492,#312,.T.);
#596=EDGE_CURVE('',#482,#479,#50,.T.);
#597=EDGE_CURVE('',#493,#494,#313,.T.);
#598=EDGE_CURVE('',#494,#475,#271,.T.);
#599=EDGE_CURVE('',#493,#477,#272,.T.);
#600=EDGE_CURVE('',#494,#495,#314,.T.);
#601=EDGE_CURVE('',#495,#476,#273,.T.);
#602=EDGE_CURVE('',#496,#497,#315,.T.);
#603=EDGE_CURVE('',#497,#498,#274,.T.);
#604=EDGE_CURVE('',#498,#499,#316,.T.);
#605=EDGE_CURVE('',#499,#496,#275,.T.);
#606=EDGE_CURVE('',#478,#498,#317,.T.);
#607=EDGE_CURVE('',#497,#500,#318,.T.);
#608=EDGE_CURVE('',#500,#478,#276,.T.);
#609=EDGE_CURVE('',#495,#496,#319,.T.);
#610=EDGE_CURVE('',#499,#476,#320,.T.);
#611=EDGE_CURVE('',#500,#493,#321,.T.);
#612=EDGE_CURVE('',#499,#469,#322,.T.);
#613=EDGE_CURVE('',#498,#468,#323,.T.);
#614=EDGE_CURVE('',#501,#501,#51,.T.);
#615=EDGE_CURVE('',#502,#503,#324,.T.);
#616=EDGE_CURVE('',#504,#502,#325,.T.);
#617=EDGE_CURVE('',#505,#504,#326,.T.);
#618=EDGE_CURVE('',#506,#505,#327,.T.);
#619=EDGE_CURVE('',#507,#506,#328,.T.);
#620=EDGE_CURVE('',#503,#507,#329,.T.);
#621=EDGE_CURVE('',#508,#509,#52,.T.);
#622=EDGE_CURVE('',#510,#508,#330,.T.);
#623=EDGE_CURVE('',#511,#510,#53,.T.);
#624=EDGE_CURVE('',#509,#511,#331,.T.);
#625=EDGE_CURVE('',#512,#513,#54,.T.);
#626=EDGE_CURVE('',#514,#512,#332,.T.);
#627=EDGE_CURVE('',#515,#514,#55,.T.);
#628=EDGE_CURVE('',#513,#515,#333,.T.);
#629=EDGE_CURVE('',#484,#516,#56,.T.);
#630=EDGE_CURVE('',#516,#516,#57,.T.);
#631=EDGE_CURVE('',#517,#517,#58,.T.);
#632=EDGE_CURVE('',#517,#516,#334,.T.);
#633=EDGE_CURVE('',#518,#519,#335,.T.);
#634=EDGE_CURVE('',#519,#520,#277,.T.);
#635=EDGE_CURVE('',#520,#521,#336,.T.);
#636=EDGE_CURVE('',#518,#521,#278,.T.);
#637=EDGE_CURVE('',#519,#522,#337,.T.);
#638=EDGE_CURVE('',#522,#523,#279,.T.);
#639=EDGE_CURVE('',#523,#520,#338,.T.);
#640=EDGE_CURVE('',#524,#523,#339,.T.);
#641=EDGE_CURVE('',#522,#525,#340,.T.);
#642=EDGE_CURVE('',#525,#524,#280,.T.);
#643=EDGE_CURVE('',#526,#524,#341,.T.);
#644=EDGE_CURVE('',#525,#527,#342,.T.);
#645=EDGE_CURVE('',#527,#526,#281,.T.);
#646=EDGE_CURVE('',#528,#526,#343,.T.);
#647=EDGE_CURVE('',#527,#529,#344,.T.);
#648=EDGE_CURVE('',#529,#528,#282,.T.);
#649=EDGE_CURVE('',#521,#528,#345,.T.);
#650=EDGE_CURVE('',#529,#518,#346,.T.);
#651=EDGE_CURVE('',#530,#528,#347,.T.);
#652=EDGE_CURVE('',#531,#530,#348,.T.);
#653=EDGE_CURVE('',#531,#526,#349,.T.);
#654=EDGE_CURVE('',#532,#521,#350,.T.);
#655=EDGE_CURVE('',#530,#532,#351,.T.);
#656=EDGE_CURVE('',#533,#520,#352,.T.);
#657=EDGE_CURVE('',#532,#533,#353,.T.);
#658=EDGE_CURVE('',#534,#534,#59,.T.);
#659=EDGE_CURVE('',#517,#534,#60,.T.);
#660=EDGE_CURVE('',#503,#530,#283,.T.);
#661=EDGE_CURVE('',#532,#502,#284,.T.);
#662=EDGE_CURVE('',#507,#531,#285,.T.);
#663=EDGE_CURVE('',#506,#535,#286,.T.);
#664=EDGE_CURVE('',#535,#531,#354,.T.);
#665=EDGE_CURVE('',#505,#536,#287,.T.);
#666=EDGE_CURVE('',#536,#535,#355,.T.);
#667=EDGE_CURVE('',#533,#536,#356,.T.);
#668=EDGE_CURVE('',#504,#533,#288,.T.);
#669=EDGE_CURVE('',#536,#523,#357,.T.);
#670=EDGE_CURVE('',#535,#524,#358,.T.);
#671=EDGE_CURVE('',#537,#512,#61,.T.);
#672=EDGE_CURVE('',#513,#538,#62,.T.);
#673=EDGE_CURVE('',#538,#537,#63,.T.);
#674=EDGE_CURVE('',#515,#539,#64,.T.);
#675=EDGE_CURVE('',#539,#538,#359,.T.);
#676=EDGE_CURVE('',#514,#540,#65,.T.);
#677=EDGE_CURVE('',#540,#539,#66,.T.);
#678=EDGE_CURVE('',#537,#540,#360,.T.);
#679=EDGE_CURVE('',#537,#541,#361,.T.);
#680=EDGE_CURVE('',#542,#541,#362,.T.);
#681=EDGE_CURVE('',#540,#542,#363,.T.);
#682=EDGE_CURVE('',#538,#543,#364,.T.);
#683=EDGE_CURVE('',#541,#543,#67,.T.);
#684=EDGE_CURVE('',#490,#541,#68,.T.);
#685=EDGE_CURVE('',#543,#489,#69,.T.);
#686=EDGE_CURVE('',#544,#491,#70,.T.);
#687=EDGE_CURVE('',#543,#544,#365,.T.);
#688=EDGE_CURVE('',#542,#492,#71,.T.);
#689=EDGE_CURVE('',#544,#542,#72,.T.);
#690=EDGE_CURVE('',#539,#544,#366,.T.);
#691=EDGE_CURVE('',#545,#508,#73,.T.);
#692=EDGE_CURVE('',#509,#546,#74,.T.);
#693=EDGE_CURVE('',#546,#545,#75,.T.);
#694=EDGE_CURVE('',#511,#547,#76,.T.);
#695=EDGE_CURVE('',#547,#546,#367,.T.);
#696=EDGE_CURVE('',#510,#548,#77,.T.);
#697=EDGE_CURVE('',#548,#547,#78,.T.);
#698=EDGE_CURVE('',#545,#548,#368,.T.);
#699=EDGE_CURVE('',#545,#549,#369,.T.);
#700=EDGE_CURVE('',#550,#549,#370,.T.);
#701=EDGE_CURVE('',#548,#550,#371,.T.);
#702=EDGE_CURVE('',#546,#551,#372,.T.);
#703=EDGE_CURVE('',#549,#551,#79,.T.);
#704=EDGE_CURVE('',#486,#552,#80,.T.);
#705=EDGE_CURVE('',#552,#550,#81,.T.);
#706=EDGE_CURVE('',#550,#485,#82,.T.);
#707=EDGE_CURVE('',#549,#487,#83,.T.);
#708=EDGE_CURVE('',#551,#488,#84,.T.);
#709=EDGE_CURVE('',#551,#552,#373,.T.);
#710=EDGE_CURVE('',#547,#552,#374,.T.);
#711=EDGE_CURVE('',#553,#553,#85,.T.);
#712=EDGE_CURVE('',#553,#501,#86,.T.);
#713=EDGE_CURVE('',#554,#554,#87,.T.);
#714=EDGE_CURVE('',#554,#553,#375,.T.);
#715=EDGE_CURVE('',#483,#554,#88,.T.);
#716=ORIENTED_EDGE('',*,*,#555,.T.);
#717=ORIENTED_EDGE('',*,*,#556,.T.);
#718=ORIENTED_EDGE('',*,*,#557,.T.);
#719=ORIENTED_EDGE('',*,*,#558,.F.);
#720=ORIENTED_EDGE('',*,*,#559,.T.);
#721=ORIENTED_EDGE('',*,*,#560,.T.);
#722=ORIENTED_EDGE('',*,*,#561,.T.);
#723=ORIENTED_EDGE('',*,*,#556,.F.);
#724=ORIENTED_EDGE('',*,*,#562,.T.);
#725=ORIENTED_EDGE('',*,*,#560,.F.);
#726=ORIENTED_EDGE('',*,*,#563,.T.);
#727=ORIENTED_EDGE('',*,*,#564,.T.);
#728=ORIENTED_EDGE('',*,*,#565,.T.);
#729=ORIENTED_EDGE('',*,*,#564,.F.);
#730=ORIENTED_EDGE('',*,*,#566,.T.);
#731=ORIENTED_EDGE('',*,*,#567,.T.);
#732=ORIENTED_EDGE('',*,*,#568,.T.);
#733=ORIENTED_EDGE('',*,*,#567,.F.);
#734=ORIENTED_EDGE('',*,*,#569,.T.);
#735=ORIENTED_EDGE('',*,*,#570,.T.);
#736=ORIENTED_EDGE('',*,*,#571,.T.);
#737=ORIENTED_EDGE('',*,*,#570,.F.);
#738=ORIENTED_EDGE('',*,*,#572,.T.);
#739=ORIENTED_EDGE('',*,*,#558,.T.);
#740=ORIENTED_EDGE('',*,*,#568,.F.);
#741=ORIENTED_EDGE('',*,*,#573,.F.);
#742=ORIENTED_EDGE('',*,*,#574,.F.);
#743=ORIENTED_EDGE('',*,*,#575,.T.);
#744=ORIENTED_EDGE('',*,*,#571,.F.);
#745=ORIENTED_EDGE('',*,*,#576,.F.);
#746=ORIENTED_EDGE('',*,*,#577,.F.);
#747=ORIENTED_EDGE('',*,*,#573,.T.);
#748=ORIENTED_EDGE('',*,*,#557,.F.);
#749=ORIENTED_EDGE('',*,*,#578,.F.);
#750=ORIENTED_EDGE('',*,*,#579,.F.);
#751=ORIENTED_EDGE('',*,*,#576,.T.);
#752=ORIENTED_EDGE('',*,*,#555,.F.);
#753=ORIENTED_EDGE('',*,*,#572,.F.);
#754=ORIENTED_EDGE('',*,*,#569,.F.);
#755=ORIENTED_EDGE('',*,*,#566,.F.);
#756=ORIENTED_EDGE('',*,*,#563,.F.);
#757=ORIENTED_EDGE('',*,*,#559,.F.);
#758=ORIENTED_EDGE('',*,*,#580,.F.);
#759=ORIENTED_EDGE('',*,*,#581,.T.);
#760=ORIENTED_EDGE('',*,*,#582,.T.);
#761=ORIENTED_EDGE('',*,*,#583,.T.);
#762=ORIENTED_EDGE('',*,*,#582,.F.);
#763=ORIENTED_EDGE('',*,*,#584,.F.);
#764=ORIENTED_EDGE('',*,*,#585,.T.);
#765=ORIENTED_EDGE('',*,*,#583,.F.);
#766=ORIENTED_EDGE('',*,*,#585,.F.);
#767=ORIENTED_EDGE('',*,*,#586,.F.);
#768=ORIENTED_EDGE('',*,*,#587,.F.);
#769=ORIENTED_EDGE('',*,*,#588,.F.);
#770=ORIENTED_EDGE('',*,*,#589,.F.);
#771=ORIENTED_EDGE('',*,*,#590,.F.);
#772=ORIENTED_EDGE('',*,*,#591,.F.);
#773=ORIENTED_EDGE('',*,*,#592,.F.);
#774=ORIENTED_EDGE('',*,*,#593,.F.);
#775=ORIENTED_EDGE('',*,*,#594,.F.);
#776=ORIENTED_EDGE('',*,*,#595,.F.);
#777=ORIENTED_EDGE('',*,*,#581,.F.);
#778=ORIENTED_EDGE('',*,*,#584,.T.);
#779=ORIENTED_EDGE('',*,*,#596,.T.);
#780=ORIENTED_EDGE('',*,*,#580,.T.);
#781=ORIENTED_EDGE('',*,*,#596,.F.);
#782=ORIENTED_EDGE('',*,*,#597,.T.);
#783=ORIENTED_EDGE('',*,*,#598,.T.);
#784=ORIENTED_EDGE('',*,*,#577,.T.);
#785=ORIENTED_EDGE('',*,*,#599,.F.);
#786=ORIENTED_EDGE('',*,*,#600,.T.);
#787=ORIENTED_EDGE('',*,*,#601,.T.);
#788=ORIENTED_EDGE('',*,*,#574,.T.);
#789=ORIENTED_EDGE('',*,*,#598,.F.);
#790=ORIENTED_EDGE('',*,*,#602,.T.);
#791=ORIENTED_EDGE('',*,*,#603,.T.);
#792=ORIENTED_EDGE('',*,*,#604,.T.);
#793=ORIENTED_EDGE('',*,*,#605,.T.);
#794=ORIENTED_EDGE('',*,*,#606,.T.);
#795=ORIENTED_EDGE('',*,*,#603,.F.);
#796=ORIENTED_EDGE('',*,*,#607,.T.);
#797=ORIENTED_EDGE('',*,*,#608,.T.);
#798=ORIENTED_EDGE('',*,*,#609,.T.);
#799=ORIENTED_EDGE('',*,*,#605,.F.);
#800=ORIENTED_EDGE('',*,*,#610,.T.);
#801=ORIENTED_EDGE('',*,*,#601,.F.);
#802=ORIENTED_EDGE('',*,*,#579,.T.);
#803=ORIENTED_EDGE('',*,*,#608,.F.);
#804=ORIENTED_EDGE('',*,*,#611,.T.);
#805=ORIENTED_EDGE('',*,*,#599,.T.);
#806=ORIENTED_EDGE('',*,*,#565,.F.);
#807=ORIENTED_EDGE('',*,*,#575,.F.);
#808=ORIENTED_EDGE('',*,*,#610,.F.);
#809=ORIENTED_EDGE('',*,*,#612,.T.);
#810=ORIENTED_EDGE('',*,*,#562,.F.);
#811=ORIENTED_EDGE('',*,*,#612,.F.);
#812=ORIENTED_EDGE('',*,*,#604,.F.);
#813=ORIENTED_EDGE('',*,*,#613,.T.);
#814=ORIENTED_EDGE('',*,*,#614,.F.);
#815=ORIENTED_EDGE('',*,*,#615,.F.);
#816=ORIENTED_EDGE('',*,*,#616,.F.);
#817=ORIENTED_EDGE('',*,*,#617,.F.);
#818=ORIENTED_EDGE('',*,*,#618,.F.);
#819=ORIENTED_EDGE('',*,*,#619,.F.);
#820=ORIENTED_EDGE('',*,*,#620,.F.);
#821=ORIENTED_EDGE('',*,*,#621,.F.);
#822=ORIENTED_EDGE('',*,*,#622,.F.);
#823=ORIENTED_EDGE('',*,*,#623,.F.);
#824=ORIENTED_EDGE('',*,*,#624,.F.);
#825=ORIENTED_EDGE('',*,*,#625,.F.);
#826=ORIENTED_EDGE('',*,*,#626,.F.);
#827=ORIENTED_EDGE('',*,*,#627,.F.);
#828=ORIENTED_EDGE('',*,*,#628,.F.);
#829=ORIENTED_EDGE('',*,*,#602,.F.);
#830=ORIENTED_EDGE('',*,*,#609,.F.);
#831=ORIENTED_EDGE('',*,*,#600,.F.);
#832=ORIENTED_EDGE('',*,*,#597,.F.);
#833=ORIENTED_EDGE('',*,*,#611,.F.);
#834=ORIENTED_EDGE('',*,*,#607,.F.);
#835=ORIENTED_EDGE('',*,*,#587,.T.);
#836=ORIENTED_EDGE('',*,*,#629,.T.);
#837=ORIENTED_EDGE('',*,*,#630,.T.);
#838=ORIENTED_EDGE('',*,*,#629,.F.);
#839=ORIENTED_EDGE('',*,*,#631,.F.);
#840=ORIENTED_EDGE('',*,*,#632,.T.);
#841=ORIENTED_EDGE('',*,*,#630,.F.);
#842=ORIENTED_EDGE('',*,*,#632,.F.);
#843=ORIENTED_EDGE('',*,*,#633,.T.);
#844=ORIENTED_EDGE('',*,*,#634,.T.);
#845=ORIENTED_EDGE('',*,*,#635,.T.);
#846=ORIENTED_EDGE('',*,*,#636,.F.);
#847=ORIENTED_EDGE('',*,*,#637,.T.);
#848=ORIENTED_EDGE('',*,*,#638,.T.);
#849=ORIENTED_EDGE('',*,*,#639,.T.);
#850=ORIENTED_EDGE('',*,*,#634,.F.);
#851=ORIENTED_EDGE('',*,*,#640,.T.);
#852=ORIENTED_EDGE('',*,*,#638,.F.);
#853=ORIENTED_EDGE('',*,*,#641,.T.);
#854=ORIENTED_EDGE('',*,*,#642,.T.);
#855=ORIENTED_EDGE('',*,*,#643,.T.);
#856=ORIENTED_EDGE('',*,*,#642,.F.);
#857=ORIENTED_EDGE('',*,*,#644,.T.);
#858=ORIENTED_EDGE('',*,*,#645,.T.);
#859=ORIENTED_EDGE('',*,*,#646,.T.);
#860=ORIENTED_EDGE('',*,*,#645,.F.);
#861=ORIENTED_EDGE('',*,*,#647,.T.);
#862=ORIENTED_EDGE('',*,*,#648,.T.);
#863=ORIENTED_EDGE('',*,*,#649,.T.);
#864=ORIENTED_EDGE('',*,*,#648,.F.);
#865=ORIENTED_EDGE('',*,*,#650,.T.);
#866=ORIENTED_EDGE('',*,*,#636,.T.);
#867=ORIENTED_EDGE('',*,*,#646,.F.);
#868=ORIENTED_EDGE('',*,*,#651,.F.);
#869=ORIENTED_EDGE('',*,*,#652,.F.);
#870=ORIENTED_EDGE('',*,*,#653,.T.);
#871=ORIENTED_EDGE('',*,*,#649,.F.);
#872=ORIENTED_EDGE('',*,*,#654,.F.);
#873=ORIENTED_EDGE('',*,*,#655,.F.);
#874=ORIENTED_EDGE('',*,*,#651,.T.);
#875=ORIENTED_EDGE('',*,*,#635,.F.);
#876=ORIENTED_EDGE('',*,*,#656,.F.);
#877=ORIENTED_EDGE('',*,*,#657,.F.);
#878=ORIENTED_EDGE('',*,*,#654,.T.);
#879=ORIENTED_EDGE('',*,*,#633,.F.);
#880=ORIENTED_EDGE('',*,*,#650,.F.);
#881=ORIENTED_EDGE('',*,*,#647,.F.);
#882=ORIENTED_EDGE('',*,*,#644,.F.);
#883=ORIENTED_EDGE('',*,*,#641,.F.);
#884=ORIENTED_EDGE('',*,*,#637,.F.);
#885=ORIENTED_EDGE('',*,*,#658,.F.);
#886=ORIENTED_EDGE('',*,*,#631,.T.);
#887=ORIENTED_EDGE('',*,*,#659,.T.);
#888=ORIENTED_EDGE('',*,*,#658,.T.);
#889=ORIENTED_EDGE('',*,*,#659,.F.);
#890=ORIENTED_EDGE('',*,*,#615,.T.);
#891=ORIENTED_EDGE('',*,*,#660,.T.);
#892=ORIENTED_EDGE('',*,*,#655,.T.);
#893=ORIENTED_EDGE('',*,*,#661,.T.);
#894=ORIENTED_EDGE('',*,*,#620,.T.);
#895=ORIENTED_EDGE('',*,*,#662,.T.);
#896=ORIENTED_EDGE('',*,*,#652,.T.);
#897=ORIENTED_EDGE('',*,*,#660,.F.);
#898=ORIENTED_EDGE('',*,*,#619,.T.);
#899=ORIENTED_EDGE('',*,*,#663,.T.);
#900=ORIENTED_EDGE('',*,*,#664,.T.);
#901=ORIENTED_EDGE('',*,*,#662,.F.);
#902=ORIENTED_EDGE('',*,*,#618,.T.);
#903=ORIENTED_EDGE('',*,*,#665,.T.);
#904=ORIENTED_EDGE('',*,*,#666,.T.);
#905=ORIENTED_EDGE('',*,*,#663,.F.);
#906=ORIENTED_EDGE('',*,*,#667,.T.);
#907=ORIENTED_EDGE('',*,*,#665,.F.);
#908=ORIENTED_EDGE('',*,*,#617,.T.);
#909=ORIENTED_EDGE('',*,*,#668,.T.);
#910=ORIENTED_EDGE('',*,*,#657,.T.);
#911=ORIENTED_EDGE('',*,*,#668,.F.);
#912=ORIENTED_EDGE('',*,*,#616,.T.);
#913=ORIENTED_EDGE('',*,*,#661,.F.);
#914=ORIENTED_EDGE('',*,*,#639,.F.);
#915=ORIENTED_EDGE('',*,*,#669,.F.);
#916=ORIENTED_EDGE('',*,*,#667,.F.);
#917=ORIENTED_EDGE('',*,*,#656,.T.);
#918=ORIENTED_EDGE('',*,*,#643,.F.);
#919=ORIENTED_EDGE('',*,*,#653,.F.);
#920=ORIENTED_EDGE('',*,*,#664,.F.);
#921=ORIENTED_EDGE('',*,*,#670,.T.);
#922=ORIENTED_EDGE('',*,*,#640,.F.);
#923=ORIENTED_EDGE('',*,*,#670,.F.);
#924=ORIENTED_EDGE('',*,*,#666,.F.);
#925=ORIENTED_EDGE('',*,*,#669,.T.);
#926=ORIENTED_EDGE('',*,*,#561,.F.);
#927=ORIENTED_EDGE('',*,*,#613,.F.);
#928=ORIENTED_EDGE('',*,*,#606,.F.);
#929=ORIENTED_EDGE('',*,*,#578,.T.);
#930=ORIENTED_EDGE('',*,*,#671,.T.);
#931=ORIENTED_EDGE('',*,*,#625,.T.);
#932=ORIENTED_EDGE('',*,*,#672,.T.);
#933=ORIENTED_EDGE('',*,*,#673,.T.);
#934=ORIENTED_EDGE('',*,*,#674,.T.);
#935=ORIENTED_EDGE('',*,*,#675,.T.);
#936=ORIENTED_EDGE('',*,*,#672,.F.);
#937=ORIENTED_EDGE('',*,*,#628,.T.);
#938=ORIENTED_EDGE('',*,*,#676,.T.);
#939=ORIENTED_EDGE('',*,*,#677,.T.);
#940=ORIENTED_EDGE('',*,*,#674,.F.);
#941=ORIENTED_EDGE('',*,*,#627,.T.);
#942=ORIENTED_EDGE('',*,*,#671,.F.);
#943=ORIENTED_EDGE('',*,*,#678,.T.);
#944=ORIENTED_EDGE('',*,*,#676,.F.);
#945=ORIENTED_EDGE('',*,*,#626,.T.);
#946=ORIENTED_EDGE('',*,*,#678,.F.);
#947=ORIENTED_EDGE('',*,*,#679,.T.);
#948=ORIENTED_EDGE('',*,*,#680,.F.);
#949=ORIENTED_EDGE('',*,*,#681,.F.);
#950=ORIENTED_EDGE('',*,*,#673,.F.);
#951=ORIENTED_EDGE('',*,*,#682,.T.);
#952=ORIENTED_EDGE('',*,*,#683,.F.);
#953=ORIENTED_EDGE('',*,*,#679,.F.);
#954=ORIENTED_EDGE('',*,*,#684,.T.);
#955=ORIENTED_EDGE('',*,*,#683,.T.);
#956=ORIENTED_EDGE('',*,*,#685,.T.);
#957=ORIENTED_EDGE('',*,*,#592,.T.);
#958=ORIENTED_EDGE('',*,*,#686,.T.);
#959=ORIENTED_EDGE('',*,*,#593,.T.);
#960=ORIENTED_EDGE('',*,*,#685,.F.);
#961=ORIENTED_EDGE('',*,*,#687,.T.);
#962=ORIENTED_EDGE('',*,*,#688,.T.);
#963=ORIENTED_EDGE('',*,*,#594,.T.);
#964=ORIENTED_EDGE('',*,*,#686,.F.);
#965=ORIENTED_EDGE('',*,*,#689,.T.);
#966=ORIENTED_EDGE('',*,*,#684,.F.);
#967=ORIENTED_EDGE('',*,*,#595,.T.);
#968=ORIENTED_EDGE('',*,*,#688,.F.);
#969=ORIENTED_EDGE('',*,*,#680,.T.);
#970=ORIENTED_EDGE('',*,*,#675,.F.);
#971=ORIENTED_EDGE('',*,*,#690,.T.);
#972=ORIENTED_EDGE('',*,*,#687,.F.);
#973=ORIENTED_EDGE('',*,*,#682,.F.);
#974=ORIENTED_EDGE('',*,*,#691,.T.);
#975=ORIENTED_EDGE('',*,*,#621,.T.);
#976=ORIENTED_EDGE('',*,*,#692,.T.);
#977=ORIENTED_EDGE('',*,*,#693,.T.);
#978=ORIENTED_EDGE('',*,*,#694,.T.);
#979=ORIENTED_EDGE('',*,*,#695,.T.);
#980=ORIENTED_EDGE('',*,*,#692,.F.);
#981=ORIENTED_EDGE('',*,*,#624,.T.);
#982=ORIENTED_EDGE('',*,*,#696,.T.);
#983=ORIENTED_EDGE('',*,*,#697,.T.);
#984=ORIENTED_EDGE('',*,*,#694,.F.);
#985=ORIENTED_EDGE('',*,*,#623,.T.);
#986=ORIENTED_EDGE('',*,*,#691,.F.);
#987=ORIENTED_EDGE('',*,*,#698,.T.);
#988=ORIENTED_EDGE('',*,*,#696,.F.);
#989=ORIENTED_EDGE('',*,*,#622,.T.);
#990=ORIENTED_EDGE('',*,*,#698,.F.);
#991=ORIENTED_EDGE('',*,*,#699,.T.);
#992=ORIENTED_EDGE('',*,*,#700,.F.);
#993=ORIENTED_EDGE('',*,*,#701,.F.);
#994=ORIENTED_EDGE('',*,*,#693,.F.);
#995=ORIENTED_EDGE('',*,*,#702,.T.);
#996=ORIENTED_EDGE('',*,*,#703,.F.);
#997=ORIENTED_EDGE('',*,*,#699,.F.);
#998=ORIENTED_EDGE('',*,*,#704,.T.);
#999=ORIENTED_EDGE('',*,*,#705,.T.);
#1000=ORIENTED_EDGE('',*,*,#706,.T.);
#1001=ORIENTED_EDGE('',*,*,#588,.T.);
#1002=ORIENTED_EDGE('',*,*,#707,.T.);
#1003=ORIENTED_EDGE('',*,*,#589,.T.);
#1004=ORIENTED_EDGE('',*,*,#706,.F.);
#1005=ORIENTED_EDGE('',*,*,#700,.T.);
#1006=ORIENTED_EDGE('',*,*,#708,.T.);
#1007=ORIENTED_EDGE('',*,*,#590,.T.);
#1008=ORIENTED_EDGE('',*,*,#707,.F.);
#1009=ORIENTED_EDGE('',*,*,#703,.T.);
#1010=ORIENTED_EDGE('',*,*,#704,.F.);
#1011=ORIENTED_EDGE('',*,*,#591,.T.);
#1012=ORIENTED_EDGE('',*,*,#708,.F.);
#1013=ORIENTED_EDGE('',*,*,#709,.T.);
#1014=ORIENTED_EDGE('',*,*,#697,.F.);
#1015=ORIENTED_EDGE('',*,*,#701,.T.);
#1016=ORIENTED_EDGE('',*,*,#705,.F.);
#1017=ORIENTED_EDGE('',*,*,#710,.F.);
#1018=ORIENTED_EDGE('',*,*,#711,.T.);
#1019=ORIENTED_EDGE('',*,*,#712,.T.);
#1020=ORIENTED_EDGE('',*,*,#614,.T.);
#1021=ORIENTED_EDGE('',*,*,#712,.F.);
#1022=ORIENTED_EDGE('',*,*,#713,.F.);
#1023=ORIENTED_EDGE('',*,*,#714,.T.);
#1024=ORIENTED_EDGE('',*,*,#711,.F.);
#1025=ORIENTED_EDGE('',*,*,#714,.F.);
#1026=ORIENTED_EDGE('',*,*,#586,.T.);
#1027=ORIENTED_EDGE('',*,*,#715,.T.);
#1028=ORIENTED_EDGE('',*,*,#713,.T.);
#1029=ORIENTED_EDGE('',*,*,#715,.F.);
#1030=ORIENTED_EDGE('',*,*,#677,.F.);
#1031=ORIENTED_EDGE('',*,*,#681,.T.);
#1032=ORIENTED_EDGE('',*,*,#689,.F.);
#1033=ORIENTED_EDGE('',*,*,#690,.F.);
#1034=ORIENTED_EDGE('',*,*,#695,.F.);
#1035=ORIENTED_EDGE('',*,*,#710,.T.);
#1036=ORIENTED_EDGE('',*,*,#709,.F.);
#1037=ORIENTED_EDGE('',*,*,#702,.F.);
#1038=CYLINDRICAL_SURFACE('',#1173,0.25);
#1039=CYLINDRICAL_SURFACE('',#1176,0.25);
#1040=CYLINDRICAL_SURFACE('',#1178,0.25);
#1041=CYLINDRICAL_SURFACE('',#1180,0.25);
#1042=CYLINDRICAL_SURFACE('',#1182,0.25);
#1043=CYLINDRICAL_SURFACE('',#1184,0.25);
#1044=CYLINDRICAL_SURFACE('',#1194,2.2);
#1045=CYLINDRICAL_SURFACE('',#1205,0.25);
#1046=CYLINDRICAL_SURFACE('',#1208,0.25);
#1047=CYLINDRICAL_SURFACE('',#1210,0.25);
#1048=CYLINDRICAL_SURFACE('',#1213,0.25);
#1049=CYLINDRICAL_SURFACE('',#1215,0.25);
#1050=CYLINDRICAL_SURFACE('',#1216,0.25);
#1051=CYLINDRICAL_SURFACE('',#1228,2.2);
#1052=CYLINDRICAL_SURFACE('',#1230,0.25);
#1053=CYLINDRICAL_SURFACE('',#1233,0.25);
#1054=CYLINDRICAL_SURFACE('',#1235,0.25);
#1055=CYLINDRICAL_SURFACE('',#1237,0.25);
#1056=CYLINDRICAL_SURFACE('',#1239,0.25);
#1057=CYLINDRICAL_SURFACE('',#1241,0.25);
#1058=CYLINDRICAL_SURFACE('',#1249,0.25);
#1059=CYLINDRICAL_SURFACE('',#1252,0.25);
#1060=CYLINDRICAL_SURFACE('',#1254,0.25);
#1061=CYLINDRICAL_SURFACE('',#1256,0.25);
#1062=CYLINDRICAL_SURFACE('',#1258,0.25);
#1063=CYLINDRICAL_SURFACE('',#1260,0.25);
#1064=CYLINDRICAL_SURFACE('',#1269,0.25);
#1065=CYLINDRICAL_SURFACE('',#1274,0.25);
#1066=CYLINDRICAL_SURFACE('',#1276,2.2);
#1067=CYLINDRICAL_SURFACE('',#1281,0.25);
#1068=CYLINDRICAL_SURFACE('',#1286,0.25);
#1069=CYLINDRICAL_SURFACE('',#1292,0.25);
#1070=CYLINDRICAL_SURFACE('',#1297,0.25);
#1071=CYLINDRICAL_SURFACE('',#1299,2.2);
#1072=CYLINDRICAL_SURFACE('',#1305,0.25);
#1073=CYLINDRICAL_SURFACE('',#1309,0.25);
#1074=CYLINDRICAL_SURFACE('',#1310,2.2);
#1075=CYLINDRICAL_SURFACE('',#1314,100.);
#1076=CYLINDRICAL_SURFACE('',#1318,2.2);
#1077=ADVANCED_FACE('',(#109),#1038,.F.);
#1078=ADVANCED_FACE('',(#110),#1039,.F.);
#1079=ADVANCED_FACE('',(#111),#1040,.F.);
#1080=ADVANCED_FACE('',(#112),#1041,.F.);
#1081=ADVANCED_FACE('',(#113),#1042,.F.);
#1082=ADVANCED_FACE('',(#114),#1043,.F.);
#1083=ADVANCED_FACE('',(#115),#89,.F.);
#1084=ADVANCED_FACE('',(#116),#90,.F.);
#1085=ADVANCED_FACE('',(#117),#91,.F.);
#1086=ADVANCED_FACE('',(#118,#29),#92,.T.);
#1087=ADVANCED_FACE('',(#119),#15,.T.);
#1088=ADVANCED_FACE('',(#120),#1044,.F.);
#1089=ADVANCED_FACE('',(#121,#30,#31,#32,#33),#93,.T.);
#1090=ADVANCED_FACE('',(#122),#16,.T.);
#1091=ADVANCED_FACE('',(#123),#1045,.T.);
#1092=ADVANCED_FACE('',(#124),#1046,.T.);
#1093=ADVANCED_FACE('',(#125),#1047,.T.);
#1094=ADVANCED_FACE('',(#126),#1048,.T.);
#1095=ADVANCED_FACE('',(#127),#1049,.T.);
#1096=ADVANCED_FACE('',(#128),#1050,.T.);
#1097=ADVANCED_FACE('',(#129),#94,.F.);
#1098=ADVANCED_FACE('',(#130),#95,.F.);
#1099=ADVANCED_FACE('',(#131,#34,#35,#36,#37),#96,.F.);
#1100=ADVANCED_FACE('',(#132),#17,.T.);
#1101=ADVANCED_FACE('',(#133),#1051,.F.);
#1102=ADVANCED_FACE('',(#134),#1052,.F.);
#1103=ADVANCED_FACE('',(#135),#1053,.F.);
#1104=ADVANCED_FACE('',(#136),#1054,.F.);
#1105=ADVANCED_FACE('',(#137),#1055,.F.);
#1106=ADVANCED_FACE('',(#138),#1056,.F.);
#1107=ADVANCED_FACE('',(#139),#1057,.F.);
#1108=ADVANCED_FACE('',(#140),#97,.F.);
#1109=ADVANCED_FACE('',(#141),#98,.F.);
#1110=ADVANCED_FACE('',(#142),#99,.F.);
#1111=ADVANCED_FACE('',(#143,#38),#100,.T.);
#1112=ADVANCED_FACE('',(#144),#18,.T.);
#1113=ADVANCED_FACE('',(#145),#1058,.T.);
#1114=ADVANCED_FACE('',(#146),#1059,.T.);
#1115=ADVANCED_FACE('',(#147),#1060,.T.);
#1116=ADVANCED_FACE('',(#148),#1061,.T.);
#1117=ADVANCED_FACE('',(#149),#1062,.T.);
#1118=ADVANCED_FACE('',(#150),#1063,.T.);
#1119=ADVANCED_FACE('',(#151),#101,.F.);
#1120=ADVANCED_FACE('',(#152),#102,.F.);
#1121=ADVANCED_FACE('',(#153),#103,.F.);
#1122=ADVANCED_FACE('',(#154),#104,.F.);
#1123=ADVANCED_FACE('',(#155),#19,.T.);
#1124=ADVANCED_FACE('',(#156),#1064,.T.);
#1125=ADVANCED_FACE('',(#157),#20,.T.);
#1126=ADVANCED_FACE('',(#158),#1065,.T.);
#1127=ADVANCED_FACE('',(#159),#105,.T.);
#1128=ADVANCED_FACE('',(#160),#1066,.F.);
#1129=ADVANCED_FACE('',(#161),#21,.T.);
#1130=ADVANCED_FACE('',(#162),#1067,.T.);
#1131=ADVANCED_FACE('',(#163),#22,.T.);
#1132=ADVANCED_FACE('',(#164),#1068,.T.);
#1133=ADVANCED_FACE('',(#165),#106,.T.);
#1134=ADVANCED_FACE('',(#166),#23,.T.);
#1135=ADVANCED_FACE('',(#167),#1069,.T.);
#1136=ADVANCED_FACE('',(#168),#24,.T.);
#1137=ADVANCED_FACE('',(#169),#1070,.T.);
#1138=ADVANCED_FACE('',(#170),#107,.T.);
#1139=ADVANCED_FACE('',(#171),#1071,.F.);
#1140=ADVANCED_FACE('',(#172),#25,.T.);
#1141=ADVANCED_FACE('',(#173),#1072,.T.);
#1142=ADVANCED_FACE('',(#174),#26,.T.);
#1143=ADVANCED_FACE('',(#175),#1073,.T.);
#1144=ADVANCED_FACE('',(#176),#1074,.F.);
#1145=ADVANCED_FACE('',(#177),#27,.T.);
#1146=ADVANCED_FACE('',(#178),#1075,.T.);
#1147=ADVANCED_FACE('',(#179),#28,.T.);
#1148=ADVANCED_FACE('',(#180),#1076,.F.);
#1149=ADVANCED_FACE('',(#181),#108,.T.);
#1150=CLOSED_SHELL('',(#1077,#1078,#1079,#1080,#1081,#1082,#1083,#1084,
#1085,#1086,#1087,#1088,#1089,#1090,#1091,#1092,#1093,#1094,#1095,#1096,
#1097,#1098,#1099,#1100,#1101,#1102,#1103,#1104,#1105,#1106,#1107,#1108,
#1109,#1110,#1111,#1112,#1113,#1114,#1115,#1116,#1117,#1118,#1119,#1120,
#1121,#1122,#1123,#1124,#1125,#1126,#1127,#1128,#1129,#1130,#1131,#1132,
#1133,#1134,#1135,#1136,#1137,#1138,#1139,#1140,#1141,#1142,#1143,#1144,
#1145,#1146,#1147,#1148,#1149));
#1151=DERIVED_UNIT_ELEMENT(#1154,1.);
#1152=DERIVED_UNIT_ELEMENT(#2035,-3.);
#1153=DIMENSIONAL_EXPONENTS(0.,1.,0.,0.,0.,0.,0.);
#1154=(
CONVERSION_BASED_UNIT('gram',#1156)
MASS_UNIT()
NAMED_UNIT(#1153)
);
#1155=(
MASS_UNIT()
NAMED_UNIT(*)
SI_UNIT(.KILO.,.GRAM.)
);
#1156=MASS_MEASURE_WITH_UNIT(MASS_MEASURE(0.001),#1155);
#1157=DERIVED_UNIT((#1151,#1152));
#1158=MEASURE_REPRESENTATION_ITEM('density measure',
POSITIVE_RATIO_MEASURE(1.),#1157);
#1159=PROPERTY_DEFINITION_REPRESENTATION(#1164,#1161);
#1160=PROPERTY_DEFINITION_REPRESENTATION(#1165,#1162);
#1161=REPRESENTATION('material name',(#1163),#2032);
#1162=REPRESENTATION('density',(#1158),#2032);
#1163=DESCRIPTIVE_REPRESENTATION_ITEM('Generic','Generic');
#1164=PROPERTY_DEFINITION('material property','material name',#2042);
#1165=PROPERTY_DEFINITION('material property','density of part',#2042);
#1166=DATE_TIME_ROLE('creation_date');
#1167=APPLIED_DATE_AND_TIME_ASSIGNMENT(#1168,#1166,(#2042));
#1168=DATE_AND_TIME(#1169,#1170);
#1169=CALENDAR_DATE(2026,26,6);
#1170=LOCAL_TIME(0,0,0.,#1171);
#1171=COORDINATED_UNIVERSAL_TIME_OFFSET(0,0,.BEHIND.);
#1172=AXIS2_PLACEMENT_3D('',#1703,#1320,#1321);
#1173=AXIS2_PLACEMENT_3D('',#1704,#1322,#1323);
#1174=AXIS2_PLACEMENT_3D('',#1709,#1325,#1326);
#1175=AXIS2_PLACEMENT_3D('',#1712,#1328,#1329);
#1176=AXIS2_PLACEMENT_3D('',#1713,#1330,#1331);
#1177=AXIS2_PLACEMENT_3D('',#1717,#1333,#1334);
#1178=AXIS2_PLACEMENT_3D('',#1719,#1336,#1337);
#1179=AXIS2_PLACEMENT_3D('',#1724,#1340,#1341);
#1180=AXIS2_PLACEMENT_3D('',#1725,#1342,#1343);
#1181=AXIS2_PLACEMENT_3D('',#1730,#1346,#1347);
#1182=AXIS2_PLACEMENT_3D('',#1731,#1348,#1349);
#1183=AXIS2_PLACEMENT_3D('',#1736,#1352,#1353);
#1184=AXIS2_PLACEMENT_3D('',#1737,#1354,#1355);
#1185=AXIS2_PLACEMENT_3D('',#1740,#1358,#1359);
#1186=AXIS2_PLACEMENT_3D('',#1746,#1363,#1364);
#1187=AXIS2_PLACEMENT_3D('',#1750,#1367,#1368);
#1188=AXIS2_PLACEMENT_3D('',#1754,#1371,#1372);
#1189=AXIS2_PLACEMENT_3D('',#1756,#1373,#1374);
#1190=AXIS2_PLACEMENT_3D('',#1757,#1375,#1376);
#1191=AXIS2_PLACEMENT_3D('',#1759,#1377,#1378);
#1192=AXIS2_PLACEMENT_3D('',#1761,#1379,#1380);
#1193=AXIS2_PLACEMENT_3D('',#1762,#1381,#1382);
#1194=AXIS2_PLACEMENT_3D('',#1763,#1383,#1384);
#1195=AXIS2_PLACEMENT_3D('',#1765,#1385,#1386);
#1196=AXIS2_PLACEMENT_3D('',#1767,#1388,#1389);
#1197=AXIS2_PLACEMENT_3D('',#1769,#1390,#1391);
#1198=AXIS2_PLACEMENT_3D('',#1771,#1392,#1393);
#1199=AXIS2_PLACEMENT_3D('',#1774,#1394,#1395);
#1200=AXIS2_PLACEMENT_3D('',#1778,#1397,#1398);
#1201=AXIS2_PLACEMENT_3D('',#1782,#1400,#1401);
#1202=AXIS2_PLACEMENT_3D('',#1786,#1403,#1404);
#1203=AXIS2_PLACEMENT_3D('',#1788,#1406,#1407);
#1204=AXIS2_PLACEMENT_3D('',#1789,#1408,#1409);
#1205=AXIS2_PLACEMENT_3D('',#1790,#1410,#1411);
#1206=AXIS2_PLACEMENT_3D('',#1794,#1413,#1414);
#1207=AXIS2_PLACEMENT_3D('',#1795,#1415,#1416);
#1208=AXIS2_PLACEMENT_3D('',#1796,#1417,#1418);
#1209=AXIS2_PLACEMENT_3D('',#1799,#1420,#1421);
#1210=AXIS2_PLACEMENT_3D('',#1800,#1422,#1423);
#1211=AXIS2_PLACEMENT_3D('',#1805,#1425,#1426);
#1212=AXIS2_PLACEMENT_3D('',#1808,#1428,#1429);
#1213=AXIS2_PLACEMENT_3D('',#1809,#1430,#1431);
#1214=AXIS2_PLACEMENT_3D('',#1813,#1434,#1435);
#1215=AXIS2_PLACEMENT_3D('',#1814,#1436,#1437);
#1216=AXIS2_PLACEMENT_3D('',#1817,#1440,#1441);
#1217=AXIS2_PLACEMENT_3D('',#1819,#1443,#1444);
#1218=AXIS2_PLACEMENT_3D('',#1821,#1446,#1447);
#1219=AXIS2_PLACEMENT_3D('',#1823,#1449,#1450);
#1220=AXIS2_PLACEMENT_3D('',#1825,#1451,#1452);
#1221=AXIS2_PLACEMENT_3D('',#1840,#1459,#1460);
#1222=AXIS2_PLACEMENT_3D('',#1844,#1462,#1463);
#1223=AXIS2_PLACEMENT_3D('',#1848,#1465,#1466);
#1224=AXIS2_PLACEMENT_3D('',#1852,#1468,#1469);
#1225=AXIS2_PLACEMENT_3D('',#1854,#1471,#1472);
#1226=AXIS2_PLACEMENT_3D('',#1856,#1473,#1474);
#1227=AXIS2_PLACEMENT_3D('',#1857,#1475,#1476);
#1228=AXIS2_PLACEMENT_3D('',#1858,#1477,#1478);
#1229=AXIS2_PLACEMENT_3D('',#1860,#1479,#1480);
#1230=AXIS2_PLACEMENT_3D('',#1862,#1482,#1483);
#1231=AXIS2_PLACEMENT_3D('',#1867,#1485,#1486);
#1232=AXIS2_PLACEMENT_3D('',#1870,#1488,#1489);
#1233=AXIS2_PLACEMENT_3D('',#1871,#1490,#1491);
#1234=AXIS2_PLACEMENT_3D('',#1875,#1493,#1494);
#1235=AXIS2_PLACEMENT_3D('',#1877,#1496,#1497);
#1236=AXIS2_PLACEMENT_3D('',#1882,#1500,#1501);
#1237=AXIS2_PLACEMENT_3D('',#1883,#1502,#1503);
#1238=AXIS2_PLACEMENT_3D('',#1888,#1506,#1507);
#1239=AXIS2_PLACEMENT_3D('',#1889,#1508,#1509);
#1240=AXIS2_PLACEMENT_3D('',#1894,#1512,#1513);
#1241=AXIS2_PLACEMENT_3D('',#1895,#1514,#1515);
#1242=AXIS2_PLACEMENT_3D('',#1898,#1518,#1519);
#1243=AXIS2_PLACEMENT_3D('',#1904,#1523,#1524);
#1244=AXIS2_PLACEMENT_3D('',#1908,#1527,#1528);
#1245=AXIS2_PLACEMENT_3D('',#1912,#1531,#1532);
#1246=AXIS2_PLACEMENT_3D('',#1914,#1533,#1534);
#1247=AXIS2_PLACEMENT_3D('',#1915,#1535,#1536);
#1248=AXIS2_PLACEMENT_3D('',#1916,#1537,#1538);
#1249=AXIS2_PLACEMENT_3D('',#1917,#1539,#1540);
#1250=AXIS2_PLACEMENT_3D('',#1918,#1541,#1542);
#1251=AXIS2_PLACEMENT_3D('',#1919,#1543,#1544);
#1252=AXIS2_PLACEMENT_3D('',#1920,#1545,#1546);
#1253=AXIS2_PLACEMENT_3D('',#1921,#1547,#1548);
#1254=AXIS2_PLACEMENT_3D('',#1922,#1549,#1550);
#1255=AXIS2_PLACEMENT_3D('',#1924,#1551,#1552);
#1256=AXIS2_PLACEMENT_3D('',#1926,#1554,#1555);
#1257=AXIS2_PLACEMENT_3D('',#1928,#1556,#1557);
#1258=AXIS2_PLACEMENT_3D('',#1930,#1559,#1560);
#1259=AXIS2_PLACEMENT_3D('',#1932,#1562,#1563);
#1260=AXIS2_PLACEMENT_3D('',#1933,#1564,#1565);
#1261=AXIS2_PLACEMENT_3D('',#1934,#1566,#1567);
#1262=AXIS2_PLACEMENT_3D('',#1936,#1569,#1570);
#1263=AXIS2_PLACEMENT_3D('',#1938,#1572,#1573);
#1264=AXIS2_PLACEMENT_3D('',#1939,#1574,#1575);
#1265=AXIS2_PLACEMENT_3D('',#1940,#1576,#1577);
#1266=AXIS2_PLACEMENT_3D('',#1942,#1578,#1579);
#1267=AXIS2_PLACEMENT_3D('',#1944,#1580,#1581);
#1268=AXIS2_PLACEMENT_3D('',#1945,#1582,#1583);
#1269=AXIS2_PLACEMENT_3D('',#1946,#1584,#1585);
#1270=AXIS2_PLACEMENT_3D('',#1948,#1586,#1587);
#1271=AXIS2_PLACEMENT_3D('',#1950,#1589,#1590);
#1272=AXIS2_PLACEMENT_3D('',#1952,#1591,#1592);
#1273=AXIS2_PLACEMENT_3D('',#1953,#1593,#1594);
#1274=AXIS2_PLACEMENT_3D('',#1954,#1595,#1596);
#1275=AXIS2_PLACEMENT_3D('',#1956,#1598,#1599);
#1276=AXIS2_PLACEMENT_3D('',#1962,#1603,#1604);
#1277=AXIS2_PLACEMENT_3D('',#1965,#1606,#1607);
#1278=AXIS2_PLACEMENT_3D('',#1966,#1608,#1609);
#1279=AXIS2_PLACEMENT_3D('',#1967,#1610,#1611);
#1280=AXIS2_PLACEMENT_3D('',#1968,#1612,#1613);
#1281=AXIS2_PLACEMENT_3D('',#1969,#1614,#1615);
#1282=AXIS2_PLACEMENT_3D('',#1971,#1616,#1617);
#1283=AXIS2_PLACEMENT_3D('',#1973,#1619,#1620);
#1284=AXIS2_PLACEMENT_3D('',#1974,#1621,#1622);
#1285=AXIS2_PLACEMENT_3D('',#1975,#1623,#1624);
#1286=AXIS2_PLACEMENT_3D('',#1976,#1625,#1626);
#1287=AXIS2_PLACEMENT_3D('',#1977,#1627,#1628);
#1288=AXIS2_PLACEMENT_3D('',#1979,#1630,#1631);
#1289=AXIS2_PLACEMENT_3D('',#1981,#1632,#1633);
#1290=AXIS2_PLACEMENT_3D('',#1983,#1634,#1635);
#1291=AXIS2_PLACEMENT_3D('',#1984,#1636,#1637);
#1292=AXIS2_PLACEMENT_3D('',#1985,#1638,#1639);
#1293=AXIS2_PLACEMENT_3D('',#1987,#1640,#1641);
#1294=AXIS2_PLACEMENT_3D('',#1989,#1643,#1644);
#1295=AXIS2_PLACEMENT_3D('',#1991,#1645,#1646);
#1296=AXIS2_PLACEMENT_3D('',#1992,#1647,#1648);
#1297=AXIS2_PLACEMENT_3D('',#1993,#1649,#1650);
#1298=AXIS2_PLACEMENT_3D('',#1995,#1652,#1653);
#1299=AXIS2_PLACEMENT_3D('',#2001,#1657,#1658);
#1300=AXIS2_PLACEMENT_3D('',#2004,#1660,#1661);
#1301=AXIS2_PLACEMENT_3D('',#2005,#1662,#1663);
#1302=AXIS2_PLACEMENT_3D('',#2007,#1664,#1665);
#1303=AXIS2_PLACEMENT_3D('',#2008,#1666,#1667);
#1304=AXIS2_PLACEMENT_3D('',#2009,#1668,#1669);
#1305=AXIS2_PLACEMENT_3D('',#2010,#1670,#1671);
#1306=AXIS2_PLACEMENT_3D('',#2011,#1672,#1673);
#1307=AXIS2_PLACEMENT_3D('',#2012,#1674,#1675);
#1308=AXIS2_PLACEMENT_3D('',#2013,#1676,#1677);
#1309=AXIS2_PLACEMENT_3D('',#2014,#1678,#1679);
#1310=AXIS2_PLACEMENT_3D('',#2016,#1681,#1682);
#1311=AXIS2_PLACEMENT_3D('',#2018,#1684,#1685);
#1312=AXIS2_PLACEMENT_3D('',#2020,#1686,#1687);
#1313=AXIS2_PLACEMENT_3D('',#2021,#1688,#1689);
#1314=AXIS2_PLACEMENT_3D('',#2022,#1690,#1691);
#1315=AXIS2_PLACEMENT_3D('',#2024,#1692,#1693);
#1316=AXIS2_PLACEMENT_3D('',#2026,#1695,#1696);
#1317=AXIS2_PLACEMENT_3D('',#2027,#1697,#1698);
#1318=AXIS2_PLACEMENT_3D('',#2028,#1699,#1700);
#1319=AXIS2_PLACEMENT_3D('',#2029,#1701,#1702);
#1320=DIRECTION('axis',(0.,0.,1.));
#1321=DIRECTION('refdir',(1.,0.,0.));
#1322=DIRECTION('center_axis',(-0.500000000000001,0.866025403784438,0.));
#1323=DIRECTION('ref_axis',(0.612372435695791,0.353553390593299,0.707106781186538));
#1324=DIRECTION('',(-0.500000000000001,0.866025403784438,0.));
#1325=DIRECTION('center_axis',(-0.866025403784442,0.499999999999993,0.));
#1326=DIRECTION('ref_axis',(-0.499999999999993,-0.866025403784442,0.));
#1327=DIRECTION('',(0.500000000000001,-0.866025403784438,0.));
#1328=DIRECTION('center_axis',(0.,1.,0.));
#1329=DIRECTION('ref_axis',(-1.,0.,0.));
#1330=DIRECTION('center_axis',(-1.,0.,0.));
#1331=DIRECTION('ref_axis',(0.,0.707106781186552,0.707106781186543));
#1332=DIRECTION('',(-1.,0.,0.));
#1333=DIRECTION('center_axis',(-0.86602540378445,-0.499999999999981,1.92296268638359E-15));
#1334=DIRECTION('ref_axis',(0.499999999999981,-0.86602540378445,3.33066907387568E-15));
#1335=DIRECTION('',(1.,0.,0.));
#1336=DIRECTION('center_axis',(-0.500000000000001,-0.866025403784438,0.));
#1337=DIRECTION('ref_axis',(-0.612372435695796,0.353553390593257,0.707106781186554));
#1338=DIRECTION('',(0.500000000000001,0.866025403784438,0.));
#1339=DIRECTION('',(-0.500000000000001,-0.866025403784438,0.));
#1340=DIRECTION('center_axis',(0.,-1.,0.));
#1341=DIRECTION('ref_axis',(1.,0.,0.));
#1342=DIRECTION('center_axis',(0.499999999999999,-0.866025403784439,0.));
#1343=DIRECTION('ref_axis',(-0.612372435695789,-0.353553390593279,0.707106781186549));
#1344=DIRECTION('',(-0.499999999999999,0.866025403784439,0.));
#1345=DIRECTION('',(0.499999999999999,-0.866025403784439,0.));
#1346=DIRECTION('center_axis',(0.866025403784439,-0.5,0.));
#1347=DIRECTION('ref_axis',(0.5,0.866025403784439,0.));
#1348=DIRECTION('center_axis',(1.,0.,0.));
#1349=DIRECTION('ref_axis',(0.,-0.707106781186552,0.707106781186543));
#1350=DIRECTION('',(-1.,0.,0.));
#1351=DIRECTION('',(1.,0.,0.));
#1352=DIRECTION('center_axis',(0.866025403784436,0.500000000000005,0.));
#1353=DIRECTION('ref_axis',(-0.500000000000005,0.866025403784436,0.));
#1354=DIRECTION('center_axis',(0.5,0.866025403784439,0.));
#1355=DIRECTION('ref_axis',(0.612372435695795,-0.353553390593277,0.707106781186545));
#1356=DIRECTION('',(-0.5,-0.866025403784439,0.));
#1357=DIRECTION('',(0.5,0.866025403784439,0.));
#1358=DIRECTION('center_axis',(0.,-1.,0.));
#1359=DIRECTION('ref_axis',(1.,0.,0.));
#1360=DIRECTION('',(0.,0.,1.));
#1361=DIRECTION('',(1.,0.,0.));
#1362=DIRECTION('',(0.,0.,1.));
#1363=DIRECTION('center_axis',(0.866025403784439,-0.5,0.));
#1364=DIRECTION('ref_axis',(0.5,0.866025403784439,0.));
#1365=DIRECTION('',(0.,0.,1.));
#1366=DIRECTION('',(0.5,0.866025403784439,0.));
#1367=DIRECTION('center_axis',(0.866025403784438,0.500000000000001,0.));
#1368=DIRECTION('ref_axis',(-0.500000000000001,0.866025403784438,0.));
#1369=DIRECTION('',(0.,0.,1.));
#1370=DIRECTION('',(-0.500000000000001,0.866025403784438,0.));
#1371=DIRECTION('center_axis',(0.,0.,-1.));
#1372=DIRECTION('ref_axis',(-1.,0.,0.));
#1373=DIRECTION('center_axis',(0.,0.,-1.));
#1374=DIRECTION('ref_axis',(1.,0.,0.));
#1375=DIRECTION('center_axis',(0.,0.,-1.));
#1376=DIRECTION('ref_axis',(-1.,0.,0.));
#1377=DIRECTION('center_axis',(0.,0.,1.));
#1378=DIRECTION('ref_axis',(-1.,0.,0.));
#1379=DIRECTION('center_axis',(0.,-1.,0.));
#1380=DIRECTION('ref_axis',(1.,0.,0.));
#1381=DIRECTION('center_axis',(0.,0.,-1.));
#1382=DIRECTION('ref_axis',(-1.,0.,0.));
#1383=DIRECTION('center_axis',(0.,0.,1.));
#1384=DIRECTION('ref_axis',(-1.,0.,0.));
#1385=DIRECTION('center_axis',(0.,0.,1.));
#1386=DIRECTION('ref_axis',(1.,0.,0.));
#1387=DIRECTION('',(0.,0.,1.));
#1388=DIRECTION('center_axis',(0.,0.,1.));
#1389=DIRECTION('ref_axis',(1.,0.,0.));
#1390=DIRECTION('center_axis',(0.,0.,-1.));
#1391=DIRECTION('ref_axis',(-1.,1.22464679914735E-16,0.));
#1392=DIRECTION('center_axis',(0.,0.,1.));
#1393=DIRECTION('ref_axis',(-1.,0.,0.));
#1394=DIRECTION('center_axis',(0.,0.,1.));
#1395=DIRECTION('ref_axis',(0.,-1.,0.));
#1396=DIRECTION('',(-1.77635683940025E-16,-1.,0.));
#1397=DIRECTION('center_axis',(0.,0.,1.));
#1398=DIRECTION('ref_axis',(-2.01858731750028E-15,1.,0.));
#1399=DIRECTION('',(1.77635683940025E-16,1.,0.));
#1400=DIRECTION('center_axis',(0.,0.,1.));
#1401=DIRECTION('ref_axis',(2.01858731750028E-15,-1.,0.));
#1402=DIRECTION('',(0.,-1.,0.));
#1403=DIRECTION('center_axis',(0.,0.,1.));
#1404=DIRECTION('ref_axis',(0.,1.,0.));
#1405=DIRECTION('',(0.,1.,0.));
#1406=DIRECTION('center_axis',(0.,0.,-1.));
#1407=DIRECTION('ref_axis',(-1.,0.,0.));
#1408=DIRECTION('center_axis',(0.,-1.,0.));
#1409=DIRECTION('ref_axis',(1.,0.,0.));
#1410=DIRECTION('center_axis',(0.5,0.866025403784439,0.));
#1411=DIRECTION('ref_axis',(-0.612372435695795,0.353553390593278,-0.707106781186545));
#1412=DIRECTION('',(-0.5,-0.866025403784439,0.));
#1413=DIRECTION('center_axis',(0.866025403784434,0.500000000000008,9.61481343191777E-16));
#1414=DIRECTION('ref_axis',(0.500000000000008,-0.866025403784434,1.66533453693776E-15));
#1415=DIRECTION('center_axis',(0.,1.,0.));
#1416=DIRECTION('ref_axis',(1.,0.,0.));
#1417=DIRECTION('center_axis',(1.,0.,0.));
#1418=DIRECTION('ref_axis',(0.,0.707106781186553,-0.707106781186543));
#1419=DIRECTION('',(-1.,0.,0.));
#1420=DIRECTION('center_axis',(0.866025403784437,-0.500000000000004,-1.92296268638356E-15));
#1421=DIRECTION('ref_axis',(-0.500000000000004,-0.866025403784436,-3.33066907387543E-15));
#1422=DIRECTION('center_axis',(-0.500000000000001,-0.866025403784438,0.));
#1423=DIRECTION('ref_axis',(0.612372435695799,-0.353553390593276,-0.707106781186542));
#1424=DIRECTION('',(0.500000000000001,0.866025403784438,0.));
#1425=DIRECTION('center_axis',(-0.866025403784443,-0.499999999999993,0.));
#1426=DIRECTION('ref_axis',(-0.499999999999993,0.866025403784443,0.));
#1427=DIRECTION('',(-0.500000000000001,-0.866025403784438,0.));
#1428=DIRECTION('center_axis',(0.,1.,0.));
#1429=DIRECTION('ref_axis',(1.,0.,0.));
#1430=DIRECTION('center_axis',(-1.,0.,0.));
#1431=DIRECTION('ref_axis',(0.,-0.707106781186553,-0.707106781186543));
#1432=DIRECTION('',(-1.,0.,0.));
#1433=DIRECTION('',(1.,0.,0.));
#1434=DIRECTION('center_axis',(-0.866025403784442,0.499999999999995,2.88444402957536E-15));
#1435=DIRECTION('ref_axis',(0.499999999999995,0.866025403784442,4.99600361081329E-15));
#1436=DIRECTION('center_axis',(0.499999999999999,-0.866025403784439,0.));
#1437=DIRECTION('ref_axis',(0.612372435695797,0.353553390593277,-0.707106781186544));
#1438=DIRECTION('',(-0.499999999999999,0.866025403784439,0.));
#1439=DIRECTION('',(0.499999999999999,-0.866025403784439,0.));
#1440=DIRECTION('center_axis',(-0.500000000000001,0.866025403784438,0.));
#1441=DIRECTION('ref_axis',(-0.612372435695799,-0.353553390593276,-0.707106781186542));
#1442=DIRECTION('',(0.500000000000001,-0.866025403784438,0.));
#1443=DIRECTION('center_axis',(-0.866025403784439,-0.499999999999999,0.));
#1444=DIRECTION('ref_axis',(0.499999999999999,-0.866025403784439,0.));
#1445=DIRECTION('',(0.,0.,1.));
#1446=DIRECTION('center_axis',(-0.866025403784438,0.500000000000001,0.));
#1447=DIRECTION('ref_axis',(-0.500000000000001,-0.866025403784438,0.));
#1448=DIRECTION('',(0.,0.,1.));
#1449=DIRECTION('center_axis',(0.,0.,1.));
#1450=DIRECTION('ref_axis',(1.,0.,0.));
#1451=DIRECTION('center_axis',(0.,0.,1.));
#1452=DIRECTION('ref_axis',(-1.,1.22464679914735E-16,0.));
#1453=DIRECTION('',(-0.500000000000001,-0.866025403784438,0.));
#1454=DIRECTION('',(0.499999999999998,-0.86602540378444,0.));
#1455=DIRECTION('',(1.,-2.13662520709285E-15,0.));
#1456=DIRECTION('',(0.500000000000003,0.866025403784437,0.));
#1457=DIRECTION('',(-0.500000000000001,0.866025403784438,0.));
#1458=DIRECTION('',(-1.,0.,0.));
#1459=DIRECTION('center_axis',(0.,0.,-1.));
#1460=DIRECTION('ref_axis',(-2.01858731750028E-15,1.,0.));
#1461=DIRECTION('',(1.77635683940025E-16,1.,0.));
#1462=DIRECTION('center_axis',(0.,0.,-1.));
#1463=DIRECTION('ref_axis',(0.,-1.,0.));
#1464=DIRECTION('',(-1.77635683940025E-16,-1.,0.));
#1465=DIRECTION('center_axis',(0.,0.,-1.));
#1466=DIRECTION('ref_axis',(2.01858731750028E-15,-1.,0.));
#1467=DIRECTION('',(0.,-1.,0.));
#1468=DIRECTION('center_axis',(0.,0.,-1.));
#1469=DIRECTION('ref_axis',(0.,1.,0.));
#1470=DIRECTION('',(0.,1.,0.));
#1471=DIRECTION('center_axis',(0.,0.,-1.));
#1472=DIRECTION('ref_axis',(-1.,0.,0.));
#1473=DIRECTION('center_axis',(0.,-1.,0.));
#1474=DIRECTION('ref_axis',(1.,0.,0.));
#1475=DIRECTION('center_axis',(0.,0.,-1.));
#1476=DIRECTION('ref_axis',(-1.,0.,0.));
#1477=DIRECTION('center_axis',(0.,0.,1.));
#1478=DIRECTION('ref_axis',(-1.,0.,0.));
#1479=DIRECTION('center_axis',(0.,0.,1.));
#1480=DIRECTION('ref_axis',(1.,0.,0.));
#1481=DIRECTION('',(0.,0.,1.));
#1482=DIRECTION('center_axis',(-0.499999999999998,0.86602540378444,0.));
#1483=DIRECTION('ref_axis',(0.612372435695797,0.353553390593277,0.707106781186544));
#1484=DIRECTION('',(-0.499999999999998,0.86602540378444,0.));
#1485=DIRECTION('center_axis',(-0.866025403784436,0.500000000000005,0.));
#1486=DIRECTION('ref_axis',(-0.500000000000005,-0.866025403784436,0.));
#1487=DIRECTION('',(0.499999999999998,-0.86602540378444,0.));
#1488=DIRECTION('center_axis',(0.,1.,0.));
#1489=DIRECTION('ref_axis',(-1.,0.,0.));
#1490=DIRECTION('center_axis',(-1.,2.13662520709285E-15,0.));
#1491=DIRECTION('ref_axis',(1.57009245868376E-15,0.707106781186552,0.707106781186543));
#1492=DIRECTION('',(-1.,2.13662520709285E-15,0.));
#1493=DIRECTION('center_axis',(-0.866025403784439,-0.5,-3.84592537276713E-15));
#1494=DIRECTION('ref_axis',(0.5,-0.866025403784439,-6.66133814775091E-15));
#1495=DIRECTION('',(1.,-2.13662520709285E-15,0.));
#1496=DIRECTION('center_axis',(-0.500000000000003,-0.866025403784437,0.));
#1497=DIRECTION('ref_axis',(-0.612372435695796,0.353553390593277,0.707106781186545));
#1498=DIRECTION('',(0.500000000000003,0.866025403784437,0.));
#1499=DIRECTION('',(-0.500000000000003,-0.866025403784437,0.));
#1500=DIRECTION('center_axis',(-3.0767402982137E-14,-1.,2.04952075192135E-28));
#1501=DIRECTION('ref_axis',(1.,-3.0767402982137E-14,3.54987407349477E-28));
#1502=DIRECTION('center_axis',(0.500000000000001,-0.866025403784438,0.));
#1503=DIRECTION('ref_axis',(-0.612372435695796,-0.353553390593257,0.707106781186554));
#1504=DIRECTION('',(-0.500000000000001,0.866025403784438,0.));
#1505=DIRECTION('',(0.500000000000001,-0.866025403784438,0.));
#1506=DIRECTION('center_axis',(0.866025403784449,-0.499999999999983,0.));
#1507=DIRECTION('ref_axis',(0.499999999999983,0.866025403784449,0.));
#1508=DIRECTION('center_axis',(1.,0.,0.));
#1509=DIRECTION('ref_axis',(0.,-0.707106781186552,0.707106781186543));
#1510=DIRECTION('',(-1.,0.,0.));
#1511=DIRECTION('',(1.,0.,0.));
#1512=DIRECTION('center_axis',(0.866025403784439,0.5,0.));
#1513=DIRECTION('ref_axis',(-0.5,0.866025403784439,0.));
#1514=DIRECTION('center_axis',(0.500000000000001,0.866025403784438,0.));
#1515=DIRECTION('ref_axis',(0.612372435695803,-0.353553390593254,0.70710678118655));
#1516=DIRECTION('',(-0.500000000000001,-0.866025403784438,0.));
#1517=DIRECTION('',(0.500000000000001,0.866025403784438,0.));
#1518=DIRECTION('center_axis',(0.,-1.,0.));
#1519=DIRECTION('ref_axis',(1.,0.,0.));
#1520=DIRECTION('',(0.,0.,1.));
#1521=DIRECTION('',(1.,0.,0.));
#1522=DIRECTION('',(0.,0.,1.));
#1523=DIRECTION('center_axis',(0.866025403784438,-0.500000000000001,0.));
#1524=DIRECTION('ref_axis',(0.500000000000001,0.866025403784438,0.));
#1525=DIRECTION('',(0.,0.,1.));
#1526=DIRECTION('',(0.500000000000001,0.866025403784438,0.));
#1527=DIRECTION('center_axis',(0.86602540378444,0.499999999999998,0.));
#1528=DIRECTION('ref_axis',(-0.499999999999998,0.86602540378444,0.));
#1529=DIRECTION('',(0.,0.,1.));
#1530=DIRECTION('',(-0.499999999999998,0.86602540378444,0.));
#1531=DIRECTION('center_axis',(0.,0.,-1.));
#1532=DIRECTION('ref_axis',(-1.,0.,0.));
#1533=DIRECTION('center_axis',(0.,0.,-1.));
#1534=DIRECTION('ref_axis',(1.,0.,0.));
#1535=DIRECTION('center_axis',(0.,0.,-1.));
#1536=DIRECTION('ref_axis',(-1.,0.,0.));
#1537=DIRECTION('center_axis',(0.,-1.,0.));
#1538=DIRECTION('ref_axis',(1.,0.,0.));
#1539=DIRECTION('center_axis',(0.500000000000001,0.866025403784438,0.));
#1540=DIRECTION('ref_axis',(-0.612372435695799,0.353553390593276,-0.707106781186542));
#1541=DIRECTION('center_axis',(0.866025403784444,0.499999999999991,3.84592537276715E-15));
#1542=DIRECTION('ref_axis',(0.499999999999991,-0.866025403784444,6.66133814775083E-15));
#1543=DIRECTION('center_axis',(0.,-1.,0.));
#1544=DIRECTION('ref_axis',(-1.,0.,0.));
#1545=DIRECTION('center_axis',(1.,0.,0.));
#1546=DIRECTION('ref_axis',(0.,0.707106781186553,-0.707106781186543));
#1547=DIRECTION('center_axis',(0.866025403784446,-0.499999999999988,-2.88444402957537E-15));
#1548=DIRECTION('ref_axis',(-0.499999999999988,-0.866025403784446,-4.99600361081341E-15));
#1549=DIRECTION('center_axis',(0.500000000000001,-0.866025403784438,0.));
#1550=DIRECTION('ref_axis',(0.612372435695799,0.353553390593276,-0.707106781186542));
#1551=DIRECTION('center_axis',(0.,-1.,0.));
#1552=DIRECTION('ref_axis',(-1.,0.,0.));
#1553=DIRECTION('',(0.500000000000001,-0.866025403784438,0.));
#1554=DIRECTION('center_axis',(-0.500000000000003,-0.866025403784437,0.));
#1555=DIRECTION('ref_axis',(0.612372435695791,-0.353553390593279,-0.707106781186548));
#1556=DIRECTION('center_axis',(-0.866025403784437,-0.500000000000002,0.));
#1557=DIRECTION('ref_axis',(-0.500000000000002,0.866025403784437,0.));
#1558=DIRECTION('',(-0.500000000000003,-0.866025403784437,0.));
#1559=DIRECTION('center_axis',(-1.,2.13662520709285E-15,0.));
#1560=DIRECTION('ref_axis',(-1.57009245868379E-15,-0.70710678118654,-0.707106781186555));
#1561=DIRECTION('',(-1.,2.13662520709285E-15,0.));
#1562=DIRECTION('center_axis',(-0.866025403784431,0.500000000000012,-6.73036940234242E-15));
#1563=DIRECTION('ref_axis',(0.500000000000012,0.866025403784431,-1.16573417585637E-14));
#1564=DIRECTION('center_axis',(-0.499999999999998,0.86602540378444,0.));
#1565=DIRECTION('ref_axis',(-0.612372435695797,-0.353553390593277,-0.707106781186544));
#1566=DIRECTION('center_axis',(2.13662520709285E-15,1.,0.));
#1567=DIRECTION('ref_axis',(-1.,2.13662520709285E-15,0.));
#1568=DIRECTION('',(0.,0.,1.));
#1569=DIRECTION('center_axis',(-0.866025403784438,-0.500000000000001,0.));
#1570=DIRECTION('ref_axis',(0.500000000000001,-0.866025403784438,0.));
#1571=DIRECTION('',(0.,0.,1.));
#1572=DIRECTION('center_axis',(-0.866025403784437,0.500000000000003,0.));
#1573=DIRECTION('ref_axis',(-0.500000000000003,-0.866025403784437,0.));
#1574=DIRECTION('center_axis',(0.,1.,0.));
#1575=DIRECTION('ref_axis',(-1.,0.,0.));
#1576=DIRECTION('center_axis',(0.,0.,-1.));
#1577=DIRECTION('ref_axis',(-1.,0.,0.));
#1578=DIRECTION('center_axis',(0.,-1.,0.));
#1579=DIRECTION('ref_axis',(-1.,0.,0.));
#1580=DIRECTION('center_axis',(0.,-1.,0.));
#1581=DIRECTION('ref_axis',(0.,0.,-1.));
#1582=DIRECTION('center_axis',(0.,0.,1.));
#1583=DIRECTION('ref_axis',(2.01858731750028E-15,-1.,0.));
#1584=DIRECTION('center_axis',(0.,1.,0.));
#1585=DIRECTION('ref_axis',(0.707106781186553,0.,-0.707106781186543));
#1586=DIRECTION('center_axis',(0.,-1.,0.));
#1587=DIRECTION('ref_axis',(0.,0.,-1.));
#1588=DIRECTION('',(0.,-1.,0.));
#1589=DIRECTION('center_axis',(0.,0.,-1.));
#1590=DIRECTION('ref_axis',(-1.,0.,0.));
#1591=DIRECTION('center_axis',(0.,1.,0.));
#1592=DIRECTION('ref_axis',(0.,0.,-1.));
#1593=DIRECTION('center_axis',(0.,0.,1.));
#1594=DIRECTION('ref_axis',(0.,1.,0.));
#1595=DIRECTION('center_axis',(0.,-1.,0.));
#1596=DIRECTION('ref_axis',(-0.707106781186553,0.,-0.707106781186543));
#1597=DIRECTION('',(0.,1.,0.));
#1598=DIRECTION('center_axis',(-1.,0.,0.));
#1599=DIRECTION('ref_axis',(0.,-1.,0.));
#1600=DIRECTION('',(0.,0.,1.));
#1601=DIRECTION('',(0.,-1.,0.));
#1602=DIRECTION('',(0.,0.,1.));
#1603=DIRECTION('center_axis',(0.,0.,1.));
#1604=DIRECTION('ref_axis',(1.,0.,0.));
#1605=DIRECTION('',(0.,0.,1.));
#1606=DIRECTION('center_axis',(0.,0.,-1.));
#1607=DIRECTION('ref_axis',(2.01858731750028E-15,-1.,0.));
#1608=DIRECTION('center_axis',(0.,0.,-1.));
#1609=DIRECTION('ref_axis',(-1.,0.,0.));
#1610=DIRECTION('center_axis',(0.,-1.,0.));
#1611=DIRECTION('ref_axis',(0.,0.,1.));
#1612=DIRECTION('center_axis',(0.,-1.,0.));
#1613=DIRECTION('ref_axis',(1.,0.,0.));
#1614=DIRECTION('center_axis',(0.,1.,0.));
#1615=DIRECTION('ref_axis',(0.707106781186552,0.,0.707106781186543));
#1616=DIRECTION('center_axis',(0.,-1.,0.));
#1617=DIRECTION('ref_axis',(1.,0.,0.));
#1618=DIRECTION('',(0.,1.,0.));
#1619=DIRECTION('center_axis',(0.,0.,-1.));
#1620=DIRECTION('ref_axis',(-1.,0.,0.));
#1621=DIRECTION('center_axis',(0.,1.,0.));
#1622=DIRECTION('ref_axis',(-1.,0.,0.));
#1623=DIRECTION('center_axis',(0.,0.,-1.));
#1624=DIRECTION('ref_axis',(0.,1.,0.));
#1625=DIRECTION('center_axis',(0.,-1.,0.));
#1626=DIRECTION('ref_axis',(-0.707106781186552,0.,0.707106781186543));
#1627=DIRECTION('center_axis',(1.,0.,0.));
#1628=DIRECTION('ref_axis',(0.,1.,0.));
#1629=DIRECTION('',(0.,0.,1.));
#1630=DIRECTION('center_axis',(0.,0.,-1.));
#1631=DIRECTION('ref_axis',(-1.,0.,0.));
#1632=DIRECTION('center_axis',(0.,1.,0.));
#1633=DIRECTION('ref_axis',(1.,0.,0.));
#1634=DIRECTION('center_axis',(0.,1.,0.));
#1635=DIRECTION('ref_axis',(0.,0.,-1.));
#1636=DIRECTION('center_axis',(0.,0.,1.));
#1637=DIRECTION('ref_axis',(-2.01858731750028E-15,1.,0.));
#1638=DIRECTION('center_axis',(-1.77635683940025E-16,-1.,0.));
#1639=DIRECTION('ref_axis',(-0.70710678118654,0.,-0.707106781186555));
#1640=DIRECTION('center_axis',(0.,1.,0.));
#1641=DIRECTION('ref_axis',(0.,0.,-1.));
#1642=DIRECTION('',(1.77635683940025E-16,1.,0.));
#1643=DIRECTION('center_axis',(0.,0.,-1.));
#1644=DIRECTION('ref_axis',(-1.,0.,0.));
#1645=DIRECTION('center_axis',(0.,-1.,0.));
#1646=DIRECTION('ref_axis',(0.,0.,-1.));
#1647=DIRECTION('center_axis',(0.,0.,1.));
#1648=DIRECTION('ref_axis',(0.,-1.,0.));
#1649=DIRECTION('center_axis',(1.77635683940025E-16,1.,0.));
#1650=DIRECTION('ref_axis',(0.70710678118654,0.,-0.707106781186555));
#1651=DIRECTION('',(-1.77635683940025E-16,-1.,0.));
#1652=DIRECTION('center_axis',(1.,-1.77635683940025E-16,0.));
#1653=DIRECTION('ref_axis',(1.77635683940025E-16,1.,0.));
#1654=DIRECTION('',(0.,0.,1.));
#1655=DIRECTION('',(1.77635683940025E-16,1.,0.));
#1656=DIRECTION('',(0.,0.,1.));
#1657=DIRECTION('center_axis',(0.,0.,1.));
#1658=DIRECTION('ref_axis',(-1.,0.,0.));
#1659=DIRECTION('',(0.,0.,1.));
#1660=DIRECTION('center_axis',(0.,0.,-1.));
#1661=DIRECTION('ref_axis',(-2.01858731750028E-15,1.,0.));
#1662=DIRECTION('center_axis',(0.,0.,-1.));
#1663=DIRECTION('ref_axis',(-1.,0.,0.));
#1664=DIRECTION('center_axis',(0.,-1.,0.));
#1665=DIRECTION('ref_axis',(0.,0.,1.));
#1666=DIRECTION('center_axis',(0.,0.,-1.));
#1667=DIRECTION('ref_axis',(0.,-1.,0.));
#1668=DIRECTION('center_axis',(0.,-1.,0.));
#1669=DIRECTION('ref_axis',(1.,0.,0.));
#1670=DIRECTION('center_axis',(1.77635683940025E-16,1.,0.));
#1671=DIRECTION('ref_axis',(0.70710678118654,0.,0.707106781186555));
#1672=DIRECTION('center_axis',(0.,-1.,0.));
#1673=DIRECTION('ref_axis',(1.,0.,0.));
#1674=DIRECTION('center_axis',(0.,0.,-1.));
#1675=DIRECTION('ref_axis',(-1.,0.,0.));
#1676=DIRECTION('center_axis',(0.,1.,0.));
#1677=DIRECTION('ref_axis',(-1.,0.,0.));
#1678=DIRECTION('center_axis',(-1.77635683940025E-16,-1.,0.));
#1679=DIRECTION('ref_axis',(-0.70710678118654,0.,0.707106781186555));
#1680=DIRECTION('',(-1.77635683940025E-16,-1.,0.));
#1681=DIRECTION('center_axis',(0.,0.,1.));
#1682=DIRECTION('ref_axis',(1.,0.,0.));
#1683=DIRECTION('',(0.,0.,1.));
#1684=DIRECTION('center_axis',(0.,0.,1.));
#1685=DIRECTION('ref_axis',(1.,0.,0.));
#1686=DIRECTION('center_axis',(0.,0.,-1.));
#1687=DIRECTION('ref_axis',(-1.,1.22464679914735E-16,0.));
#1688=DIRECTION('center_axis',(1.22464679914735E-16,-1.,0.));
#1689=DIRECTION('ref_axis',(-1.,-1.22464679914735E-16,0.));
#1690=DIRECTION('center_axis',(0.,0.,1.));
#1691=DIRECTION('ref_axis',(1.,0.,0.));
#1692=DIRECTION('center_axis',(0.,0.,1.));
#1693=DIRECTION('ref_axis',(-1.,1.22464679914735E-16,0.));
#1694=DIRECTION('',(0.,0.,-1.));
#1695=DIRECTION('center_axis',(0.,0.,1.));
#1696=DIRECTION('ref_axis',(1.,0.,0.));
#1697=DIRECTION('center_axis',(1.22464679914735E-16,-1.,0.));
#1698=DIRECTION('ref_axis',(-1.,-1.22464679914735E-16,0.));
#1699=DIRECTION('center_axis',(0.,0.,1.));
#1700=DIRECTION('ref_axis',(-1.,0.,0.));
#1701=DIRECTION('center_axis',(-1.,1.77635683940025E-16,0.));
#1702=DIRECTION('ref_axis',(-1.77635683940025E-16,-1.,0.));
#1703=CARTESIAN_POINT('',(0.,0.,0.));
#1704=CARTESIAN_POINT('Origin',(3.42080034494853,40.775,2.95));
#1705=CARTESIAN_POINT('',(3.86824680357049,40.,3.2));
#1706=CARTESIAN_POINT('',(1.93412340178524,43.35,3.2));
#1707=CARTESIAN_POINT('',(3.42080034494853,40.775,3.2));
#1708=CARTESIAN_POINT('',(2.07846096908265,43.6,2.95));
#1709=CARTESIAN_POINT('Origin',(1.93412340178524,43.35,2.95));
#1710=CARTESIAN_POINT('',(4.1569219381653,40.,2.95));
#1711=CARTESIAN_POINT('',(3.63730669589464,40.9,2.95));
#1712=CARTESIAN_POINT('Origin',(3.86824680357049,40.,2.95));
#1713=CARTESIAN_POINT('Origin',(1.03923048454132,43.35,2.95));
#1714=CARTESIAN_POINT('',(-1.93412340178525,43.35,3.2));
#1715=CARTESIAN_POINT('',(1.03923048454132,43.35,3.2));
#1716=CARTESIAN_POINT('',(-2.07846096908265,43.6,2.95));
#1717=CARTESIAN_POINT('Origin',(-1.93412340178525,43.35,2.95));
#1718=CARTESIAN_POINT('',(1.03923048454132,43.6,2.95));
#1719=CARTESIAN_POINT('Origin',(-2.3815698604072,42.575,2.95));
#1720=CARTESIAN_POINT('',(-4.1569219381653,40.,2.95));
#1721=CARTESIAN_POINT('',(-2.59807621135331,42.7,2.95));
#1722=CARTESIAN_POINT('',(-3.86824680357049,40.,3.2));
#1723=CARTESIAN_POINT('',(-2.3815698604072,42.575,3.2));
#1724=CARTESIAN_POINT('Origin',(-3.86824680357049,40.,2.95));
#1725=CARTESIAN_POINT('Origin',(-3.42080034494853,39.225,2.95));
#1726=CARTESIAN_POINT('',(-2.07846096908266,36.4,2.95));
#1727=CARTESIAN_POINT('',(-3.63730669589464,39.1,2.95));
#1728=CARTESIAN_POINT('',(-1.93412340178525,36.65,3.2));
#1729=CARTESIAN_POINT('',(-3.42080034494853,39.225,3.2));
#1730=CARTESIAN_POINT('Origin',(-1.93412340178525,36.65,2.95));
#1731=CARTESIAN_POINT('Origin',(-1.03923048454133,36.65,2.95));
#1732=CARTESIAN_POINT('',(2.07846096908265,36.4,2.95));
#1733=CARTESIAN_POINT('',(-1.03923048454133,36.4,2.95));
#1734=CARTESIAN_POINT('',(1.93412340178525,36.65,3.2));
#1735=CARTESIAN_POINT('',(-1.03923048454133,36.65,3.2));
#1736=CARTESIAN_POINT('Origin',(1.93412340178524,36.65,2.95));
#1737=CARTESIAN_POINT('Origin',(2.38156986040721,37.425,2.95));
#1738=CARTESIAN_POINT('',(2.59807621135332,37.3,2.95));
#1739=CARTESIAN_POINT('',(2.38156986040721,37.425,3.2));
#1740=CARTESIAN_POINT('Origin',(-2.07846096908266,36.4,0.));
#1741=CARTESIAN_POINT('',(2.07846096908265,36.4,0.25));
#1742=CARTESIAN_POINT('',(2.07846096908265,36.4,0.));
#1743=CARTESIAN_POINT('',(-2.07846096908266,36.4,0.25));
#1744=CARTESIAN_POINT('',(-1.03923048454133,36.4,0.25));
#1745=CARTESIAN_POINT('',(-2.07846096908266,36.4,0.));
#1746=CARTESIAN_POINT('Origin',(2.07846096908265,36.4,0.));
#1747=CARTESIAN_POINT('',(4.1569219381653,40.,0.25));
#1748=CARTESIAN_POINT('',(4.1569219381653,40.,0.));
#1749=CARTESIAN_POINT('',(-6.06217782649107,22.3,0.25));
#1750=CARTESIAN_POINT('Origin',(4.1569219381653,40.,0.));
#1751=CARTESIAN_POINT('',(2.07846096908265,43.6,0.25));
#1752=CARTESIAN_POINT('',(2.07846096908265,43.6,0.));
#1753=CARTESIAN_POINT('',(12.297560733739,25.9,0.25));
#1754=CARTESIAN_POINT('Origin',(2.77555756156289E-16,40.,3.2));
#1755=CARTESIAN_POINT('',(2.45,40.,3.2));
#1756=CARTESIAN_POINT('Origin',(0.,40.,3.2));
#1757=CARTESIAN_POINT('Origin',(0.,40.,4.75));
#1758=CARTESIAN_POINT('',(2.45,40.,5.));
#1759=CARTESIAN_POINT('Origin',(0.,40.,5.));
#1760=CARTESIAN_POINT('',(2.2,40.,4.75));
#1761=CARTESIAN_POINT('Origin',(2.45,40.,4.75));
#1762=CARTESIAN_POINT('Origin',(0.,40.,4.75));
#1763=CARTESIAN_POINT('Origin',(0.,40.,0.));
#1764=CARTESIAN_POINT('',(2.2,40.,3.45));
#1765=CARTESIAN_POINT('Origin',(0.,40.,3.45));
#1766=CARTESIAN_POINT('',(2.2,40.,0.));
#1767=CARTESIAN_POINT('Origin',(0.,0.,5.));
#1768=CARTESIAN_POINT('',(-99.75,-1.22158518214948E-14,5.));
#1769=CARTESIAN_POINT('Origin',(0.,0.,5.));
#1770=CARTESIAN_POINT('',(2.45,-40.,5.));
#1771=CARTESIAN_POINT('Origin',(0.,-40.,5.));
#1772=CARTESIAN_POINT('',(22.55,-25.,5.));
#1773=CARTESIAN_POINT('',(27.45,-25.,5.));
#1774=CARTESIAN_POINT('Origin',(25.,-25.,5.));
#1775=CARTESIAN_POINT('',(22.55,25.,5.));
#1776=CARTESIAN_POINT('',(22.55,-12.5,5.));
#1777=CARTESIAN_POINT('',(27.45,25.,5.));
#1778=CARTESIAN_POINT('Origin',(25.,25.,5.));
#1779=CARTESIAN_POINT('',(27.45,12.5,5.));
#1780=CARTESIAN_POINT('',(-27.45,-25.,5.));
#1781=CARTESIAN_POINT('',(-22.55,-25.,5.));
#1782=CARTESIAN_POINT('Origin',(-25.,-25.,5.));
#1783=CARTESIAN_POINT('',(-27.45,25.,5.));
#1784=CARTESIAN_POINT('',(-27.45,-12.5,5.));
#1785=CARTESIAN_POINT('',(-22.55,25.,5.));
#1786=CARTESIAN_POINT('Origin',(-25.,25.,5.));
#1787=CARTESIAN_POINT('',(-22.55,12.5,5.));
#1788=CARTESIAN_POINT('Origin',(0.,40.,3.45));
#1789=CARTESIAN_POINT('Origin',(2.45,40.,3.45));
#1790=CARTESIAN_POINT('Origin',(-5.84567147554496,22.175,0.25));
#1791=CARTESIAN_POINT('',(4.44559707276012,40.,0.));
#1792=CARTESIAN_POINT('',(2.22279853638006,36.15,0.));
#1793=CARTESIAN_POINT('',(-5.84567147554496,22.175,0.));
#1794=CARTESIAN_POINT('Origin',(2.22279853638006,36.15,0.25));
#1795=CARTESIAN_POINT('Origin',(4.44559707276012,40.,0.25));
#1796=CARTESIAN_POINT('Origin',(-1.03923048454133,36.15,0.25));
#1797=CARTESIAN_POINT('',(-2.22279853638006,36.15,0.));
#1798=CARTESIAN_POINT('',(-1.03923048454133,36.15,0.));
#1799=CARTESIAN_POINT('Origin',(-2.22279853638006,36.15,0.25));
#1800=CARTESIAN_POINT('Origin',(-11.4748366001438,27.825,0.25));
#1801=CARTESIAN_POINT('',(-4.44559707276012,40.,0.));
#1802=CARTESIAN_POINT('',(-2.22279853638006,43.85,0.));
#1803=CARTESIAN_POINT('',(-11.4748366001438,27.825,0.));
#1804=CARTESIAN_POINT('',(-2.07846096908265,43.6,0.25));
#1805=CARTESIAN_POINT('Origin',(-2.22279853638006,43.85,0.25));
#1806=CARTESIAN_POINT('',(-4.1569219381653,40.,0.25));
#1807=CARTESIAN_POINT('',(-11.2583302491977,27.7,0.25));
#1808=CARTESIAN_POINT('Origin',(-4.44559707276012,40.,0.25));
#1809=CARTESIAN_POINT('Origin',(1.03923048454132,43.85,0.25));
#1810=CARTESIAN_POINT('',(1.03923048454132,43.6,0.25));
#1811=CARTESIAN_POINT('',(2.22279853638005,43.85,0.));
#1812=CARTESIAN_POINT('',(1.03923048454132,43.85,0.));
#1813=CARTESIAN_POINT('Origin',(2.22279853638006,43.85,0.25));
#1814=CARTESIAN_POINT('Origin',(4.80644099100363,23.975,0.25));
#1815=CARTESIAN_POINT('',(4.80644099100363,23.975,0.));
#1816=CARTESIAN_POINT('',(5.02294734194974,24.1,0.25));
#1817=CARTESIAN_POINT('Origin',(12.5140670846851,26.025,0.25));
#1818=CARTESIAN_POINT('',(12.5140670846851,26.025,0.));
#1819=CARTESIAN_POINT('Origin',(-4.1569219381653,40.,0.));
#1820=CARTESIAN_POINT('',(-4.1569219381653,40.,0.));
#1821=CARTESIAN_POINT('Origin',(-2.07846096908265,43.6,0.));
#1822=CARTESIAN_POINT('',(-2.07846096908265,43.6,0.));
#1823=CARTESIAN_POINT('Origin',(0.,0.,0.));
#1824=CARTESIAN_POINT('',(-99.75,-1.22158518214948E-14,0.));
#1825=CARTESIAN_POINT('Origin',(0.,0.,0.));
#1826=CARTESIAN_POINT('',(4.44559707276012,-40.,0.));
#1827=CARTESIAN_POINT('',(2.22279853638006,-43.85,0.));
#1828=CARTESIAN_POINT('',(11.4748366001438,-27.825,0.));
#1829=CARTESIAN_POINT('',(2.22279853638007,-36.15,0.));
#1830=CARTESIAN_POINT('',(-4.8064409910036,-23.975,0.));
#1831=CARTESIAN_POINT('',(-2.22279853638005,-36.15,0.));
#1832=CARTESIAN_POINT('',(1.03923048454129,-36.15,0.));
#1833=CARTESIAN_POINT('',(-4.44559707276013,-40.,0.));
#1834=CARTESIAN_POINT('',(5.845671475545,-22.175,0.));
#1835=CARTESIAN_POINT('',(-2.22279853638005,-43.85,0.));
#1836=CARTESIAN_POINT('',(-12.5140670846852,-26.025,0.));
#1837=CARTESIAN_POINT('',(-1.03923048454133,-43.85,0.));
#1838=CARTESIAN_POINT('',(22.55,25.,0.));
#1839=CARTESIAN_POINT('',(27.45,25.,0.));
#1840=CARTESIAN_POINT('Origin',(25.,25.,0.));
#1841=CARTESIAN_POINT('',(22.55,-25.,0.));
#1842=CARTESIAN_POINT('',(22.55,-12.5,0.));
#1843=CARTESIAN_POINT('',(27.45,-25.,0.));
#1844=CARTESIAN_POINT('Origin',(25.,-25.,0.));
#1845=CARTESIAN_POINT('',(27.45,12.5,0.));
#1846=CARTESIAN_POINT('',(-22.55,-25.,0.));
#1847=CARTESIAN_POINT('',(-27.45,-25.,0.));
#1848=CARTESIAN_POINT('Origin',(-25.,-25.,0.));
#1849=CARTESIAN_POINT('',(-22.55,25.,0.));
#1850=CARTESIAN_POINT('',(-22.55,12.5,0.));
#1851=CARTESIAN_POINT('',(-27.45,25.,0.));
#1852=CARTESIAN_POINT('Origin',(-25.,25.,0.));
#1853=CARTESIAN_POINT('',(-27.45,-12.5,0.));
#1854=CARTESIAN_POINT('Origin',(0.,-40.,4.75));
#1855=CARTESIAN_POINT('',(2.2,-40.,4.75));
#1856=CARTESIAN_POINT('Origin',(2.45,-40.,4.75));
#1857=CARTESIAN_POINT('Origin',(0.,-40.,4.75));
#1858=CARTESIAN_POINT('Origin',(0.,-40.,0.));
#1859=CARTESIAN_POINT('',(2.2,-40.,3.45));
#1860=CARTESIAN_POINT('Origin',(0.,-40.,3.45));
#1861=CARTESIAN_POINT('',(2.2,-40.,0.));
#1862=CARTESIAN_POINT('Origin',(3.42080034494854,-39.225,2.95));
#1863=CARTESIAN_POINT('',(3.86824680357049,-40.,3.2));
#1864=CARTESIAN_POINT('',(1.93412340178525,-36.65,3.2));
#1865=CARTESIAN_POINT('',(3.42080034494854,-39.225,3.2));
#1866=CARTESIAN_POINT('',(2.07846096908266,-36.4,2.95));
#1867=CARTESIAN_POINT('Origin',(1.93412340178525,-36.65,2.95));
#1868=CARTESIAN_POINT('',(4.15692193816531,-40.,2.95));
#1869=CARTESIAN_POINT('',(3.63730669589465,-39.1,2.95));
#1870=CARTESIAN_POINT('Origin',(3.86824680357049,-40.,2.95));
#1871=CARTESIAN_POINT('Origin',(1.03923048454133,-36.65,2.95));
#1872=CARTESIAN_POINT('',(-1.93412340178524,-36.65,3.2));
#1873=CARTESIAN_POINT('',(1.03923048454133,-36.65,3.2));
#1874=CARTESIAN_POINT('',(-2.07846096908264,-36.4,2.95));
#1875=CARTESIAN_POINT('Origin',(-1.93412340178524,-36.65,2.95));
#1876=CARTESIAN_POINT('',(1.03923048454133,-36.4,2.95));
#1877=CARTESIAN_POINT('Origin',(-2.3815698604072,-37.425,2.95));
#1878=CARTESIAN_POINT('',(-4.15692193816532,-40.,2.95));
#1879=CARTESIAN_POINT('',(-2.59807621135331,-37.3,2.95));
#1880=CARTESIAN_POINT('',(-3.8682468035705,-40.,3.2));
#1881=CARTESIAN_POINT('',(-2.3815698604072,-37.425,3.2));
#1882=CARTESIAN_POINT('Origin',(-3.8682468035705,-40.,2.95));
#1883=CARTESIAN_POINT('Origin',(-3.42080034494854,-40.775,2.95));
#1884=CARTESIAN_POINT('',(-2.07846096908265,-43.6,2.95));
#1885=CARTESIAN_POINT('',(-3.63730669589465,-40.9,2.95));
#1886=CARTESIAN_POINT('',(-1.93412340178525,-43.35,3.2));
#1887=CARTESIAN_POINT('',(-3.42080034494854,-40.775,3.2));
#1888=CARTESIAN_POINT('Origin',(-1.93412340178525,-43.35,2.95));
#1889=CARTESIAN_POINT('Origin',(-1.03923048454133,-43.35,2.95));
#1890=CARTESIAN_POINT('',(2.07846096908265,-43.6,2.95));
#1891=CARTESIAN_POINT('',(-1.03923048454133,-43.6,2.95));
#1892=CARTESIAN_POINT('',(1.93412340178524,-43.35,3.2));
#1893=CARTESIAN_POINT('',(-1.03923048454133,-43.35,3.2));
#1894=CARTESIAN_POINT('Origin',(1.93412340178524,-43.35,2.95));
#1895=CARTESIAN_POINT('Origin',(2.38156986040721,-42.575,2.95));
#1896=CARTESIAN_POINT('',(2.59807621135332,-42.7,2.95));
#1897=CARTESIAN_POINT('',(2.38156986040721,-42.575,3.2));
#1898=CARTESIAN_POINT('Origin',(-2.07846096908265,-43.6,0.));
#1899=CARTESIAN_POINT('',(2.07846096908265,-43.6,0.25));
#1900=CARTESIAN_POINT('',(2.07846096908265,-43.6,0.));
#1901=CARTESIAN_POINT('',(-2.07846096908265,-43.6,0.25));
#1902=CARTESIAN_POINT('',(-1.03923048454133,-43.6,0.25));
#1903=CARTESIAN_POINT('',(-2.07846096908265,-43.6,0.));
#1904=CARTESIAN_POINT('Origin',(2.07846096908265,-43.6,0.));
#1905=CARTESIAN_POINT('',(4.15692193816531,-40.,0.25));
#1906=CARTESIAN_POINT('',(4.15692193816531,-40.,0.));
#1907=CARTESIAN_POINT('',(11.2583302491977,-27.7,0.25));
#1908=CARTESIAN_POINT('Origin',(4.15692193816531,-40.,0.));
#1909=CARTESIAN_POINT('',(2.07846096908266,-36.4,0.25));
#1910=CARTESIAN_POINT('',(2.07846096908266,-36.4,0.));
#1911=CARTESIAN_POINT('',(-5.02294734194972,-24.1,0.25));
#1912=CARTESIAN_POINT('Origin',(-4.71844785465692E-15,-40.,3.2));
#1913=CARTESIAN_POINT('',(2.45,-40.,3.2));
#1914=CARTESIAN_POINT('Origin',(0.,-40.,3.2));
#1915=CARTESIAN_POINT('Origin',(0.,-40.,3.45));
#1916=CARTESIAN_POINT('Origin',(2.45,-40.,3.45));
#1917=CARTESIAN_POINT('Origin',(11.4748366001438,-27.825,0.25));
#1918=CARTESIAN_POINT('Origin',(2.22279853638006,-43.85,0.25));
#1919=CARTESIAN_POINT('Origin',(4.44559707276012,-40.,0.25));
#1920=CARTESIAN_POINT('Origin',(-1.03923048454133,-43.85,0.25));
#1921=CARTESIAN_POINT('Origin',(-2.22279853638005,-43.85,0.25));
#1922=CARTESIAN_POINT('Origin',(-12.5140670846852,-26.025,0.25));
#1923=CARTESIAN_POINT('',(-4.15692193816532,-40.,0.25));
#1924=CARTESIAN_POINT('Origin',(-4.44559707276013,-40.,0.25));
#1925=CARTESIAN_POINT('',(-12.297560733739,-25.9,0.25));
#1926=CARTESIAN_POINT('Origin',(5.845671475545,-22.175,0.25));
#1927=CARTESIAN_POINT('',(-2.07846096908264,-36.4,0.25));
#1928=CARTESIAN_POINT('Origin',(-2.22279853638005,-36.15,0.25));
#1929=CARTESIAN_POINT('',(6.06217782649111,-22.3,0.25));
#1930=CARTESIAN_POINT('Origin',(1.03923048454129,-36.15,0.25));
#1931=CARTESIAN_POINT('',(1.03923048454129,-36.4,0.25));
#1932=CARTESIAN_POINT('Origin',(2.22279853638007,-36.15,0.25));
#1933=CARTESIAN_POINT('Origin',(-4.8064409910036,-23.975,0.25));
#1934=CARTESIAN_POINT('Origin',(2.07846096908266,-36.4,0.));
#1935=CARTESIAN_POINT('',(-2.07846096908264,-36.4,0.));
#1936=CARTESIAN_POINT('Origin',(-4.15692193816532,-40.,0.));
#1937=CARTESIAN_POINT('',(-4.15692193816532,-40.,0.));
#1938=CARTESIAN_POINT('Origin',(-2.07846096908264,-36.4,0.));
#1939=CARTESIAN_POINT('Origin',(2.07846096908265,43.6,0.));
#1940=CARTESIAN_POINT('Origin',(-25.,-25.,0.25));
#1941=CARTESIAN_POINT('',(-22.8,-25.,0.25));
#1942=CARTESIAN_POINT('Origin',(-22.55,-25.,0.25));
#1943=CARTESIAN_POINT('',(-27.2,-25.,0.25));
#1944=CARTESIAN_POINT('Origin',(-27.45,-25.,0.25));
#1945=CARTESIAN_POINT('Origin',(-25.,-25.,0.25));
#1946=CARTESIAN_POINT('Origin',(-27.45,-12.5,0.25));
#1947=CARTESIAN_POINT('',(-27.2,25.,0.25));
#1948=CARTESIAN_POINT('Origin',(-27.45,25.,0.25));
#1949=CARTESIAN_POINT('',(-27.2,-12.5,0.25));
#1950=CARTESIAN_POINT('Origin',(-25.,25.,0.25));
#1951=CARTESIAN_POINT('',(-22.8,25.,0.25));
#1952=CARTESIAN_POINT('Origin',(-22.55,25.,0.25));
#1953=CARTESIAN_POINT('Origin',(-25.,25.,0.25));
#1954=CARTESIAN_POINT('Origin',(-22.55,12.5,0.25));
#1955=CARTESIAN_POINT('',(-22.8,12.5,0.25));
#1956=CARTESIAN_POINT('Origin',(-22.8,25.,0.));
#1957=CARTESIAN_POINT('',(-22.8,-25.,4.75));
#1958=CARTESIAN_POINT('',(-22.8,-25.,0.));
#1959=CARTESIAN_POINT('',(-22.8,25.,4.75));
#1960=CARTESIAN_POINT('',(-22.8,12.5,4.75));
#1961=CARTESIAN_POINT('',(-22.8,25.,0.));
#1962=CARTESIAN_POINT('Origin',(-25.,-25.,0.));
#1963=CARTESIAN_POINT('',(-27.2,-25.,4.75));
#1964=CARTESIAN_POINT('',(-27.2,-25.,0.));
#1965=CARTESIAN_POINT('Origin',(-25.,-25.,4.75));
#1966=CARTESIAN_POINT('Origin',(-25.,-25.,4.75));
#1967=CARTESIAN_POINT('Origin',(-22.55,-25.,4.75));
#1968=CARTESIAN_POINT('Origin',(-27.45,-25.,4.75));
#1969=CARTESIAN_POINT('Origin',(-27.45,-12.5,4.75));
#1970=CARTESIAN_POINT('',(-27.2,25.,4.75));
#1971=CARTESIAN_POINT('Origin',(-27.45,25.,4.75));
#1972=CARTESIAN_POINT('',(-27.2,-12.5,4.75));
#1973=CARTESIAN_POINT('Origin',(-25.,25.,4.75));
#1974=CARTESIAN_POINT('Origin',(-22.55,25.,4.75));
#1975=CARTESIAN_POINT('Origin',(-25.,25.,4.75));
#1976=CARTESIAN_POINT('Origin',(-22.55,12.5,4.75));
#1977=CARTESIAN_POINT('Origin',(-27.2,-25.,0.));
#1978=CARTESIAN_POINT('',(-27.2,25.,0.));
#1979=CARTESIAN_POINT('Origin',(25.,25.,0.25));
#1980=CARTESIAN_POINT('',(22.8,25.,0.25));
#1981=CARTESIAN_POINT('Origin',(22.55,25.,0.25));
#1982=CARTESIAN_POINT('',(27.2,25.,0.25));
#1983=CARTESIAN_POINT('Origin',(27.45,25.,0.25));
#1984=CARTESIAN_POINT('Origin',(25.,25.,0.25));
#1985=CARTESIAN_POINT('Origin',(27.45,12.5,0.25));
#1986=CARTESIAN_POINT('',(27.2,-25.,0.25));
#1987=CARTESIAN_POINT('Origin',(27.45,-25.,0.25));
#1988=CARTESIAN_POINT('',(27.2,12.5,0.25));
#1989=CARTESIAN_POINT('Origin',(25.,-25.,0.25));
#1990=CARTESIAN_POINT('',(22.8,-25.,0.25));
#1991=CARTESIAN_POINT('Origin',(22.55,-25.,0.25));
#1992=CARTESIAN_POINT('Origin',(25.,-25.,0.25));
#1993=CARTESIAN_POINT('Origin',(22.55,-12.5,0.25));
#1994=CARTESIAN_POINT('',(22.8,-12.5,0.25));
#1995=CARTESIAN_POINT('Origin',(22.8,-25.,0.));
#1996=CARTESIAN_POINT('',(22.8,25.,4.75));
#1997=CARTESIAN_POINT('',(22.8,25.,0.));
#1998=CARTESIAN_POINT('',(22.8,-25.,4.75));
#1999=CARTESIAN_POINT('',(22.8,-12.5,4.75));
#2000=CARTESIAN_POINT('',(22.8,-25.,0.));
#2001=CARTESIAN_POINT('Origin',(25.,25.,0.));
#2002=CARTESIAN_POINT('',(27.2,25.,4.75));
#2003=CARTESIAN_POINT('',(27.2,25.,0.));
#2004=CARTESIAN_POINT('Origin',(25.,25.,4.75));
#2005=CARTESIAN_POINT('Origin',(25.,-25.,4.75));
#2006=CARTESIAN_POINT('',(27.2,-25.,4.75));
#2007=CARTESIAN_POINT('Origin',(27.45,-25.,4.75));
#2008=CARTESIAN_POINT('Origin',(25.,-25.,4.75));
#2009=CARTESIAN_POINT('Origin',(22.55,-25.,4.75));
#2010=CARTESIAN_POINT('Origin',(22.55,-12.5,4.75));
#2011=CARTESIAN_POINT('Origin',(22.55,25.,4.75));
#2012=CARTESIAN_POINT('Origin',(25.,25.,4.75));
#2013=CARTESIAN_POINT('Origin',(27.45,25.,4.75));
#2014=CARTESIAN_POINT('Origin',(27.45,12.5,4.75));
#2015=CARTESIAN_POINT('',(27.2,12.5,4.75));
#2016=CARTESIAN_POINT('Origin',(25.,-25.,0.));
#2017=CARTESIAN_POINT('',(27.2,-25.,0.));
#2018=CARTESIAN_POINT('Origin',(0.,0.,0.25));
#2019=CARTESIAN_POINT('',(-100.,-1.22464679914735E-14,0.25));
#2020=CARTESIAN_POINT('Origin',(0.,0.,0.25));
#2021=CARTESIAN_POINT('Origin',(-99.75,-1.22158518214948E-14,0.25));
#2022=CARTESIAN_POINT('Origin',(0.,0.,0.));
#2023=CARTESIAN_POINT('',(-100.,-1.22464679914735E-14,4.75));
#2024=CARTESIAN_POINT('Origin',(0.,0.,4.75));
#2025=CARTESIAN_POINT('',(-100.,-1.22464679914735E-14,0.));
#2026=CARTESIAN_POINT('Origin',(0.,0.,4.75));
#2027=CARTESIAN_POINT('Origin',(-99.75,-1.22158518214948E-14,4.75));
#2028=CARTESIAN_POINT('Origin',(-25.,25.,0.));
#2029=CARTESIAN_POINT('Origin',(27.2,25.,0.));
#2030=UNCERTAINTY_MEASURE_WITH_UNIT(LENGTH_MEASURE(0.01),#2034,
'DISTANCE_ACCURACY_VALUE',
'Maximum model space distance between geometric entities at asserted c
onnectivities');
#2031=UNCERTAINTY_MEASURE_WITH_UNIT(LENGTH_MEASURE(0.01),#2034,
'DISTANCE_ACCURACY_VALUE',
'Maximum model space distance between geometric entities at asserted c
onnectivities');
#2032=(
GEOMETRIC_REPRESENTATION_CONTEXT(3)
GLOBAL_UNCERTAINTY_ASSIGNED_CONTEXT((#2030))
GLOBAL_UNIT_ASSIGNED_CONTEXT((#2034,#2036,#2037))
REPRESENTATION_CONTEXT('','3D')
);
#2033=(
GEOMETRIC_REPRESENTATION_CONTEXT(3)
GLOBAL_UNCERTAINTY_ASSIGNED_CONTEXT((#2031))
GLOBAL_UNIT_ASSIGNED_CONTEXT((#2034,#2036,#2037))
REPRESENTATION_CONTEXT('','3D')
);
#2034=(
LENGTH_UNIT()
NAMED_UNIT(*)
SI_UNIT(.MILLI.,.METRE.)
);
#2035=(
LENGTH_UNIT()
NAMED_UNIT(*)
SI_UNIT(.CENTI.,.METRE.)
);
#2036=(
NAMED_UNIT(*)
PLANE_ANGLE_UNIT()
SI_UNIT($,.RADIAN.)
);
#2037=(
NAMED_UNIT(*)
SI_UNIT($,.STERADIAN.)
SOLID_ANGLE_UNIT()
);
#2038=SHAPE_DEFINITION_REPRESENTATION(#2039,#2040);
#2039=PRODUCT_DEFINITION_SHAPE('',$,#2042);
#2040=SHAPE_REPRESENTATION('',(#1172),#2032);
#2041=PRODUCT_DEFINITION_CONTEXT('part definition',#2046,'design');
#2042=PRODUCT_DEFINITION('TableStandMiddle','TableStandMiddle',#2043,#2041);
#2043=PRODUCT_DEFINITION_FORMATION('',$,#2048);
#2044=PRODUCT_RELATED_PRODUCT_CATEGORY('TableStandMiddle',
'TableStandMiddle',(#2048));
#2045=APPLICATION_PROTOCOL_DEFINITION('international standard',
'automotive_design',2009,#2046);
#2046=APPLICATION_CONTEXT(
'Core Data for Automotive Mechanical Design Process');
#2047=PRODUCT_CONTEXT('part definition',#2046,'mechanical');
#2048=PRODUCT('TableStandMiddle','TableStandMiddle',$,(#2047));
#2049=PRESENTATION_STYLE_ASSIGNMENT((#2050));
#2050=SURFACE_STYLE_USAGE(.BOTH.,#2053);
#2051=SURFACE_STYLE_RENDERING_WITH_PROPERTIES($,#2057,(#2052));
#2052=SURFACE_STYLE_TRANSPARENT(0.);
#2053=SURFACE_SIDE_STYLE('',(#2054,#2051));
#2054=SURFACE_STYLE_FILL_AREA(#2055);
#2055=FILL_AREA_STYLE('',(#2056));
#2056=FILL_AREA_STYLE_COLOUR('',#2057);
#2057=COLOUR_RGB('',0.749019607843137,0.749019607843137,0.749019607843137);
ENDSEC;
END-ISO-10303-21;
